<?xml version="1.0" encoding="UTF-8" standalone="no"?>
<!DOCTYPE svg PUBLIC "-//W3C//DTD SVG 1.1//EN"
 "http://www.w3.org/Graphics/SVG/1.1/DTD/svg11.dtd">
<!-- Generated by graphviz version 12.0.0 (20240704.0754)
 -->
<!-- Title: Parser Pages: 1 -->
<svg width="1072pt" height="305pt"
 viewBox="0.00 0.00 1072.25 304.77" xmlns="http://www.w3.org/2000/svg" xmlns:xlink="http://www.w3.org/1999/xlink">
<g id="graph0" class="graph" transform="scale(1 1) rotate(0) translate(4 300.77)">
<title>Parser</title>
<polygon fill="white" stroke="none" points="-4,4 -4,-300.77 1068.25,-300.77 1068.25,4 -4,4"/>
<!-- Parser -->
<g id="node1" class="node">
<title>Parser</title>
<ellipse fill="none" stroke="black" cx="544.25" cy="-246.57" rx="83.44" ry="50.2"/>
<text text-anchor="middle" x="544.25" y="-264.77" font-family="Times New Roman,serif" font-size="14.00">Parser</text>
<text text-anchor="middle" x="544.25" y="-249.02" font-family="Times New Roman,serif" font-size="14.00">Input: &quot;a x c $&quot;</text>
<text text-anchor="middle" x="544.25" y="-233.27" font-family="Times New Roman,serif" font-size="14.00">Location: 0 (&#39;a&#39;)</text>
<text text-anchor="middle" x="544.25" y="-217.52" font-family="Times New Roman,serif" font-size="14.00">Step 1: Expanding</text>
</g>
<!-- todoLists -->
<g id="node2" class="node">
<title>todoLists</title>
<polygon fill="none" stroke="black" points="0,-108.11 0,-144.11 404.5,-144.11 404.5,-108.11 0,-108.11"/>
<text text-anchor="middle" x="11.38" y="-120.69" font-family="Times New Roman,serif" font-size="14.00">0</text>
<polyline fill="none" stroke="black" points="22.75,-108.11 22.75,-144.11"/>
<text text-anchor="middle" x="34.12" y="-120.69" font-family="Times New Roman,serif" font-size="14.00">1</text>
<polyline fill="none" stroke="black" points="45.5,-108.11 45.5,-144.11"/>
<text text-anchor="middle" x="56.88" y="-120.69" font-family="Times New Roman,serif" font-size="14.00">2</text>
<polyline fill="none" stroke="black" points="68.25,-108.11 68.25,-144.11"/>
<text text-anchor="middle" x="79.62" y="-120.69" font-family="Times New Roman,serif" font-size="14.00">3</text>
<polyline fill="none" stroke="black" points="91,-108.11 91,-144.11"/>
<text text-anchor="middle" x="102.38" y="-120.69" font-family="Times New Roman,serif" font-size="14.00">4</text>
<polyline fill="none" stroke="black" points="113.75,-108.11 113.75,-144.11"/>
<text text-anchor="middle" x="125.12" y="-120.69" font-family="Times New Roman,serif" font-size="14.00">5</text>
<polyline fill="none" stroke="black" points="136.5,-108.11 136.5,-144.11"/>
<text text-anchor="middle" x="147.88" y="-120.69" font-family="Times New Roman,serif" font-size="14.00">6</text>
<polyline fill="none" stroke="black" points="159.25,-108.11 159.25,-144.11"/>
<text text-anchor="middle" x="170.62" y="-120.69" font-family="Times New Roman,serif" font-size="14.00">7</text>
<polyline fill="none" stroke="black" points="182,-108.11 182,-144.11"/>
<text text-anchor="middle" x="193.38" y="-120.69" font-family="Times New Roman,serif" font-size="14.00">8</text>
<polyline fill="none" stroke="black" points="204.75,-108.11 204.75,-144.11"/>
<text text-anchor="middle" x="216.12" y="-120.69" font-family="Times New Roman,serif" font-size="14.00">9</text>
<polyline fill="none" stroke="black" points="227.5,-108.11 227.5,-144.11"/>
<text text-anchor="middle" x="242.25" y="-120.69" font-family="Times New Roman,serif" font-size="14.00">10</text>
<polyline fill="none" stroke="black" points="257,-108.11 257,-144.11"/>
<text text-anchor="middle" x="271.75" y="-120.69" font-family="Times New Roman,serif" font-size="14.00">11</text>
<polyline fill="none" stroke="black" points="286.5,-108.11 286.5,-144.11"/>
<text text-anchor="middle" x="301.25" y="-120.69" font-family="Times New Roman,serif" font-size="14.00">12</text>
<polyline fill="none" stroke="black" points="316,-108.11 316,-144.11"/>
<text text-anchor="middle" x="330.75" y="-120.69" font-family="Times New Roman,serif" font-size="14.00">13</text>
<polyline fill="none" stroke="black" points="345.5,-108.11 345.5,-144.11"/>
<text text-anchor="middle" x="360.25" y="-120.69" font-family="Times New Roman,serif" font-size="14.00">14</text>
<polyline fill="none" stroke="black" points="375,-108.11 375,-144.11"/>
<text text-anchor="middle" x="389.75" y="-120.69" font-family="Times New Roman,serif" font-size="14.00">15</text>
</g>
<!-- Parser&#45;&gt;todoLists -->
<g id="edge1" class="edge">
<title>Parser&#45;&gt;todoLists</title>
<path fill="none" stroke="black" d="M472.56,-220.73C410.51,-199.24 321.76,-168.51 263.11,-148.19"/>
<polygon fill="black" stroke="black" points="264.55,-144.98 253.95,-145.02 262.26,-151.6 264.55,-144.98"/>
<text text-anchor="middle" x="369.12" y="-165.06" font-family="Times New Roman,serif" font-size="14.00">todo lists</text>
</g>
<!-- stacksToExpand -->
<g id="node4" class="node">
<title>stacksToExpand</title>
<polygon fill="none" stroke="red" points="422.25,-108.11 422.25,-144.11 476.25,-144.11 476.25,-108.11 422.25,-108.11"/>
<text text-anchor="middle" x="449.12" y="-120.69" font-family="Times New Roman,serif" font-size="14.00">0</text>
</g>
<!-- Parser&#45;&gt;stacksToExpand -->
<g id="edge3" class="edge">
<title>Parser&#45;&gt;stacksToExpand</title>
<path fill="none" stroke="black" d="M479.31,-214.53C465.85,-204.91 453.44,-192.91 445.75,-178.36 442.1,-171.45 441.36,-163.26 441.96,-155.48"/>
<polygon fill="black" stroke="black" points="445.41,-156.12 443.48,-145.7 438.49,-155.05 445.41,-156.12"/>
<text text-anchor="middle" x="493.5" y="-165.06" font-family="Times New Roman,serif" font-size="14.00">stacks to expand</text>
</g>
<!-- terminalsToReduce -->
<g id="node5" class="node">
<title>terminalsToReduce</title>
<polygon fill="none" stroke="black" points="517.25,-108.11 517.25,-144.11 571.25,-144.11 571.25,-108.11 517.25,-108.11"/>
<text text-anchor="middle" x="544.12" y="-120.69" font-family="Times New Roman,serif" font-size="14.00"> </text>
</g>
<!-- Parser&#45;&gt;terminalsToReduce -->
<g id="edge4" class="edge">
<title>Parser&#45;&gt;terminalsToReduce</title>
<path fill="none" stroke="black" d="M544.25,-196.02C544.25,-182.23 544.25,-167.72 544.25,-155.59"/>
<polygon fill="black" stroke="black" points="547.75,-155.88 544.25,-145.88 540.75,-155.88 547.75,-155.88"/>
<text text-anchor="middle" x="597.12" y="-165.06" font-family="Times New Roman,serif" font-size="14.00">terminals to reduce</text>
</g>
<!-- nonTerminalsToReduce -->
<g id="node6" class="node">
<title>nonTerminalsToReduce</title>
<polygon fill="none" stroke="black" points="646.25,-108.11 646.25,-144.11 700.25,-144.11 700.25,-108.11 646.25,-108.11"/>
<text text-anchor="middle" x="673.12" y="-120.69" font-family="Times New Roman,serif" font-size="14.00"> </text>
</g>
<!-- Parser&#45;&gt;nonTerminalsToReduce -->
<g id="edge5" class="edge">
<title>Parser&#45;&gt;nonTerminalsToReduce</title>
<path fill="none" stroke="black" d="M608.3,-214.1C623.82,-204.27 639.34,-192.28 651.25,-178.36 657.05,-171.58 661.52,-163.05 664.88,-154.9"/>
<polygon fill="black" stroke="black" points="668.11,-156.23 668.25,-145.64 661.54,-153.84 668.11,-156.23"/>
<text text-anchor="middle" x="725.88" y="-165.06" font-family="Times New Roman,serif" font-size="14.00">non&#45;terminals to reduce</text>
</g>
<!-- error -->
<g id="node11" class="node">
<title>error</title>
<ellipse fill="none" stroke="black" cx="827.25" cy="-126.11" rx="34.1" ry="18"/>
<text text-anchor="middle" x="827.25" y="-120.69" font-family="Times New Roman,serif" font-size="14.00">Errors</text>
</g>
<!-- Parser&#45;&gt;error -->
<g id="edge6" class="edge">
<title>Parser&#45;&gt;error</title>
<path fill="none" stroke="black" d="M626.95,-238.96C679.42,-231.24 746.39,-214.52 795.25,-178.36 803.61,-172.17 810.3,-163.09 815.35,-154.28"/>
<polygon fill="black" stroke="black" points="818.36,-156.09 819.84,-145.6 812.14,-152.87 818.36,-156.09"/>
<text text-anchor="middle" x="846.75" y="-165.06" font-family="Times New Roman,serif" font-size="14.00">error tracking</text>
</g>
<!-- &#45;1 -->
<g id="node3" class="node">
<title>&#45;1</title>
<ellipse fill="none" stroke="black" cx="449.25" cy="-27.93" rx="73.36" ry="27.93"/>
<text text-anchor="middle" x="449.25" y="-30.38" font-family="Times New Roman,serif" font-size="14.00">NonTerminal: S</text>
<text text-anchor="middle" x="449.25" y="-14.63" font-family="Times New Roman,serif" font-size="14.00">.0@&#45;1</text>
</g>
<!-- stacksToExpand&#45;&gt;&#45;1 -->
<g id="edge2" class="edge">
<title>stacksToExpand:0&#45;&gt;&#45;1</title>
<path fill="none" stroke="black" d="M449.15,-107.83C449.16,-96.49 449.18,-81.48 449.2,-67.6"/>
<polygon fill="black" stroke="black" points="452.7,-67.83 449.21,-57.83 445.7,-67.83 452.7,-67.83"/>
</g>
<!-- unexpandableNodes -->
<g id="node7" class="node">
<title>unexpandableNodes</title>
<polygon fill="none" stroke="black" points="639.25,-9.93 639.25,-45.93 693.25,-45.93 693.25,-9.93 639.25,-9.93"/>
<text text-anchor="middle" x="666.12" y="-22.51" font-family="Times New Roman,serif" font-size="14.00"> </text>
</g>
<!-- unmatchableLeafNodes -->
<g id="node8" class="node">
<title>unmatchableLeafNodes</title>
<polygon fill="none" stroke="black" points="739.25,-9.93 739.25,-45.93 793.25,-45.93 793.25,-9.93 739.25,-9.93"/>
<text text-anchor="middle" x="766.12" y="-22.51" font-family="Times New Roman,serif" font-size="14.00"> </text>
</g>
<!-- unmatchableMidProductionNodes -->
<g id="node9" class="node">
<title>unmatchableMidProductionNodes</title>
<polygon fill="none" stroke="black" points="861.25,-9.93 861.25,-45.93 915.25,-45.93 915.25,-9.93 861.25,-9.93"/>
<text text-anchor="middle" x="888.12" y="-22.51" font-family="Times New Roman,serif" font-size="14.00"> </text>
</g>
<!-- filteredNodes -->
<g id="node10" class="node">
<title>filteredNodes</title>
<polygon fill="none" stroke="black" points="1010.25,-9.93 1010.25,-45.93 1064.25,-45.93 1064.25,-9.93 1010.25,-9.93"/>
<text text-anchor="middle" x="1037.12" y="-22.51" font-family="Times New Roman,serif" font-size="14.00"> </text>
</g>
<!-- error&#45;&gt;unexpandableNodes -->
<g id="edge7" class="edge">
<title>error&#45;&gt;unexpandableNodes</title>
<path fill="none" stroke="black" d="M794.08,-121.12C755.9,-115.85 696.45,-105.37 680.75,-89.61 672.35,-81.19 668.49,-68.82 666.82,-57.44"/>
<polygon fill="black" stroke="black" points="670.32,-57.3 665.91,-47.66 663.35,-57.94 670.32,-57.3"/>
<text text-anchor="middle" x="718.5" y="-76.31" font-family="Times New Roman,serif" font-size="14.00">unexpandable</text>
</g>
<!-- error&#45;&gt;unmatchableLeafNodes -->
<g id="edge8" class="edge">
<title>error&#45;&gt;unmatchableLeafNodes</title>
<path fill="none" stroke="black" d="M799.06,-115.62C787.06,-110.03 774.24,-101.65 767.25,-89.61 761.75,-80.15 760.55,-68.37 761.06,-57.72"/>
<polygon fill="black" stroke="black" points="764.54,-58.16 762.08,-47.85 757.57,-57.44 764.54,-58.16"/>
<text text-anchor="middle" x="816.75" y="-76.31" font-family="Times New Roman,serif" font-size="14.00">unmatchable leafs</text>
</g>
<!-- error&#45;&gt;unmatchableMidProductionNodes -->
<g id="edge9" class="edge">
<title>error&#45;&gt;unmatchableMidProductionNodes</title>
<path fill="none" stroke="black" d="M846.57,-110.8C853.52,-104.87 860.95,-97.52 866.25,-89.61 872.8,-79.83 877.68,-67.87 881.15,-57.15"/>
<polygon fill="black" stroke="black" points="884.49,-58.21 883.96,-47.63 877.77,-56.23 884.49,-58.21"/>
<text text-anchor="middle" x="937.25" y="-76.31" font-family="Times New Roman,serif" font-size="14.00">unmatchable mid&#45;prod</text>
</g>
<!-- error&#45;&gt;filteredNodes -->
<g id="edge10" class="edge">
<title>error&#45;&gt;filteredNodes</title>
<path fill="none" stroke="black" d="M860.66,-121.8C905.43,-116.8 981.86,-106.12 1004.25,-89.61 1015.26,-81.49 1023.01,-68.56 1028.22,-56.72"/>
<polygon fill="black" stroke="black" points="1031.36,-58.31 1031.76,-47.72 1024.84,-55.75 1031.36,-58.31"/>
<text text-anchor="middle" x="1037.38" y="-76.31" font-family="Times New Roman,serif" font-size="14.00">filtered</text>
</g>
</g>
</svg>
