<?xml version="1.0" encoding="UTF-8" standalone="no"?>
<!DOCTYPE svg PUBLIC "-//W3C//DTD SVG 1.1//EN"
 "http://www.w3.org/Graphics/SVG/1.1/DTD/svg11.dtd">
<!-- Generated by graphviz version 12.0.0 (20240704.0754)
 -->
<!-- Title: Parser Pages: 1 -->
<svg width="1014pt" height="490pt"
 viewBox="0.00 0.00 1014.25 490.49" xmlns="http://www.w3.org/2000/svg" xmlns:xlink="http://www.w3.org/1999/xlink">
<g id="graph0" class="graph" transform="scale(1 1) rotate(0) translate(4 486.49)">
<title>Parser</title>
<polygon fill="white" stroke="none" points="-4,4 -4,-486.49 1010.25,-486.49 1010.25,4 -4,4"/>
<!-- Parser -->
<g id="node1" class="node">
<title>Parser</title>
<ellipse fill="none" stroke="black" cx="534.25" cy="-432.29" rx="134.88" ry="50.2"/>
<text text-anchor="middle" x="534.25" y="-450.49" font-family="Times New Roman,serif" font-size="14.00">Parser</text>
<text text-anchor="middle" x="534.25" y="-434.74" font-family="Times New Roman,serif" font-size="14.00">Input: &quot;a x c $&quot;</text>
<text text-anchor="middle" x="534.25" y="-418.99" font-family="Times New Roman,serif" font-size="14.00">Location: 1 (&#39; &#39;)</text>
<text text-anchor="middle" x="534.25" y="-403.24" font-family="Times New Roman,serif" font-size="14.00">Step 3: Reducing non&#45;terminals</text>
</g>
<!-- todoLists -->
<g id="node2" class="node">
<title>todoLists</title>
<polygon fill="none" stroke="black" points="0,-293.83 0,-329.83 404.5,-329.83 404.5,-293.83 0,-293.83"/>
<text text-anchor="middle" x="11.38" y="-306.41" font-family="Times New Roman,serif" font-size="14.00">0</text>
<polyline fill="none" stroke="black" points="22.75,-293.83 22.75,-329.83"/>
<text text-anchor="middle" x="34.12" y="-306.41" font-family="Times New Roman,serif" font-size="14.00">1</text>
<polyline fill="none" stroke="black" points="45.5,-293.83 45.5,-329.83"/>
<text text-anchor="middle" x="56.88" y="-306.41" font-family="Times New Roman,serif" font-size="14.00">2</text>
<polyline fill="none" stroke="black" points="68.25,-293.83 68.25,-329.83"/>
<text text-anchor="middle" x="79.62" y="-306.41" font-family="Times New Roman,serif" font-size="14.00">3</text>
<polyline fill="none" stroke="black" points="91,-293.83 91,-329.83"/>
<text text-anchor="middle" x="102.38" y="-306.41" font-family="Times New Roman,serif" font-size="14.00">4</text>
<polyline fill="none" stroke="black" points="113.75,-293.83 113.75,-329.83"/>
<text text-anchor="middle" x="125.12" y="-306.41" font-family="Times New Roman,serif" font-size="14.00">5</text>
<polyline fill="none" stroke="black" points="136.5,-293.83 136.5,-329.83"/>
<text text-anchor="middle" x="147.88" y="-306.41" font-family="Times New Roman,serif" font-size="14.00">6</text>
<polyline fill="none" stroke="black" points="159.25,-293.83 159.25,-329.83"/>
<text text-anchor="middle" x="170.62" y="-306.41" font-family="Times New Roman,serif" font-size="14.00">7</text>
<polyline fill="none" stroke="black" points="182,-293.83 182,-329.83"/>
<text text-anchor="middle" x="193.38" y="-306.41" font-family="Times New Roman,serif" font-size="14.00">8</text>
<polyline fill="none" stroke="black" points="204.75,-293.83 204.75,-329.83"/>
<text text-anchor="middle" x="216.12" y="-306.41" font-family="Times New Roman,serif" font-size="14.00">9</text>
<polyline fill="none" stroke="black" points="227.5,-293.83 227.5,-329.83"/>
<text text-anchor="middle" x="242.25" y="-306.41" font-family="Times New Roman,serif" font-size="14.00">10</text>
<polyline fill="none" stroke="black" points="257,-293.83 257,-329.83"/>
<text text-anchor="middle" x="271.75" y="-306.41" font-family="Times New Roman,serif" font-size="14.00">11</text>
<polyline fill="none" stroke="black" points="286.5,-293.83 286.5,-329.83"/>
<text text-anchor="middle" x="301.25" y="-306.41" font-family="Times New Roman,serif" font-size="14.00">12</text>
<polyline fill="none" stroke="black" points="316,-293.83 316,-329.83"/>
<text text-anchor="middle" x="330.75" y="-306.41" font-family="Times New Roman,serif" font-size="14.00">13</text>
<polyline fill="none" stroke="black" points="345.5,-293.83 345.5,-329.83"/>
<text text-anchor="middle" x="360.25" y="-306.41" font-family="Times New Roman,serif" font-size="14.00">14</text>
<polyline fill="none" stroke="black" points="375,-293.83 375,-329.83"/>
<text text-anchor="middle" x="389.75" y="-306.41" font-family="Times New Roman,serif" font-size="14.00">15</text>
</g>
<!-- Parser&#45;&gt;todoLists -->
<g id="edge1" class="edge">
<title>Parser&#45;&gt;todoLists</title>
<path fill="none" stroke="black" d="M437.78,-396.87C380.82,-376.55 310.53,-351.47 261.64,-334.02"/>
<polygon fill="black" stroke="black" points="262.95,-330.77 252.35,-330.71 260.59,-337.37 262.95,-330.77"/>
<text text-anchor="middle" x="365.12" y="-350.78" font-family="Times New Roman,serif" font-size="14.00">todo lists</text>
</g>
<!-- stacksToExpand -->
<g id="node6" class="node">
<title>stacksToExpand</title>
<polygon fill="none" stroke="black" points="422.25,-293.83 422.25,-329.83 476.25,-329.83 476.25,-293.83 422.25,-293.83"/>
<text text-anchor="middle" x="449.12" y="-306.41" font-family="Times New Roman,serif" font-size="14.00">0</text>
</g>
<!-- Parser&#45;&gt;stacksToExpand -->
<g id="edge5" class="edge">
<title>Parser&#45;&gt;stacksToExpand</title>
<path fill="none" stroke="black" d="M457.27,-390.68C448.65,-383 441.07,-374.15 435.75,-364.08 431.95,-356.9 432.38,-348.56 434.58,-340.73"/>
<polygon fill="black" stroke="black" points="437.77,-342.18 438.06,-331.59 431.23,-339.69 437.77,-342.18"/>
<text text-anchor="middle" x="483.5" y="-350.78" font-family="Times New Roman,serif" font-size="14.00">stacks to expand</text>
</g>
<!-- terminalsToReduce -->
<g id="node7" class="node">
<title>terminalsToReduce</title>
<polygon fill="none" stroke="black" points="507.25,-293.83 507.25,-329.83 561.25,-329.83 561.25,-293.83 507.25,-293.83"/>
<text text-anchor="middle" x="534.12" y="-306.41" font-family="Times New Roman,serif" font-size="14.00"> </text>
</g>
<!-- Parser&#45;&gt;terminalsToReduce -->
<g id="edge6" class="edge">
<title>Parser&#45;&gt;terminalsToReduce</title>
<path fill="none" stroke="black" d="M534.25,-381.74C534.25,-367.95 534.25,-353.44 534.25,-341.31"/>
<polygon fill="black" stroke="black" points="537.75,-341.61 534.25,-331.61 530.75,-341.61 537.75,-341.61"/>
<text text-anchor="middle" x="587.12" y="-350.78" font-family="Times New Roman,serif" font-size="14.00">terminals to reduce</text>
</g>
<!-- nonTerminalsToReduce -->
<g id="node8" class="node">
<title>nonTerminalsToReduce</title>
<polygon fill="none" stroke="red" points="636.25,-293.83 636.25,-329.83 690.25,-329.83 690.25,-293.83 636.25,-293.83"/>
<text text-anchor="middle" x="663.12" y="-306.41" font-family="Times New Roman,serif" font-size="14.00"> </text>
</g>
<!-- Parser&#45;&gt;nonTerminalsToReduce -->
<g id="edge7" class="edge">
<title>Parser&#45;&gt;nonTerminalsToReduce</title>
<path fill="none" stroke="black" d="M611.6,-390.82C622.44,-382.94 632.76,-374 641.25,-364.08 647.05,-357.31 651.52,-348.77 654.88,-340.62"/>
<polygon fill="black" stroke="black" points="658.11,-341.96 658.25,-331.36 651.54,-339.56 658.11,-341.96"/>
<text text-anchor="middle" x="715.88" y="-350.78" font-family="Times New Roman,serif" font-size="14.00">non&#45;terminals to reduce</text>
</g>
<!-- error -->
<g id="node13" class="node">
<title>error</title>
<ellipse fill="none" stroke="black" cx="817.25" cy="-311.83" rx="34.1" ry="18"/>
<text text-anchor="middle" x="817.25" y="-306.41" font-family="Times New Roman,serif" font-size="14.00">Errors</text>
</g>
<!-- Parser&#45;&gt;error -->
<g id="edge8" class="edge">
<title>Parser&#45;&gt;error</title>
<path fill="none" stroke="black" d="M662.45,-416.14C704.6,-406.4 749.71,-390.38 785.25,-364.08 793.61,-357.89 800.3,-348.81 805.35,-340"/>
<polygon fill="black" stroke="black" points="808.36,-341.81 809.84,-331.32 802.14,-338.59 808.36,-341.81"/>
<text text-anchor="middle" x="836.75" y="-350.78" font-family="Times New Roman,serif" font-size="14.00">error tracking</text>
</g>
<!-- 56 -->
<g id="node3" class="node">
<title>56</title>
<ellipse fill="none" stroke="black" cx="449.25" cy="-213.65" rx="95.11" ry="27.93"/>
<text text-anchor="middle" x="449.25" y="-216.1" font-family="Times New Roman,serif" font-size="14.00">NonTerminal: Layout</text>
<text text-anchor="middle" x="449.25" y="-200.35" font-family="Times New Roman,serif" font-size="14.00">.1@1</text>
</g>
<!-- 35 -->
<g id="node4" class="node">
<title>35</title>
<ellipse fill="none" stroke="black" cx="449.25" cy="-120.79" rx="87.68" ry="27.93"/>
<text text-anchor="middle" x="449.25" y="-123.24" font-family="Times New Roman,serif" font-size="14.00">NonTerminal: ABC</text>
<text text-anchor="middle" x="449.25" y="-107.49" font-family="Times New Roman,serif" font-size="14.00">.0@0</text>
</g>
<!-- 56&#45;&gt;35 -->
<g id="edge3" class="edge">
<title>56&#45;&gt;35</title>
<path fill="none" stroke="black" d="M449.25,-185.39C449.25,-177.58 449.25,-168.9 449.25,-160.53"/>
<polygon fill="black" stroke="black" points="452.75,-160.55 449.25,-150.55 445.75,-160.55 452.75,-160.55"/>
</g>
<!-- &#45;1 -->
<g id="node5" class="node">
<title>&#45;1</title>
<ellipse fill="none" stroke="black" cx="449.25" cy="-27.93" rx="73.36" ry="27.93"/>
<text text-anchor="middle" x="449.25" y="-30.38" font-family="Times New Roman,serif" font-size="14.00">NonTerminal: S</text>
<text text-anchor="middle" x="449.25" y="-14.63" font-family="Times New Roman,serif" font-size="14.00">.0@&#45;1</text>
</g>
<!-- 35&#45;&gt;&#45;1 -->
<g id="edge2" class="edge">
<title>35&#45;&gt;&#45;1</title>
<path fill="none" stroke="black" d="M449.25,-92.53C449.25,-84.71 449.25,-76.04 449.25,-67.67"/>
<polygon fill="black" stroke="black" points="452.75,-67.69 449.25,-57.69 445.75,-67.69 452.75,-67.69"/>
</g>
<!-- stacksToExpand&#45;&gt;56 -->
<g id="edge4" class="edge">
<title>stacksToExpand:0&#45;&gt;56</title>
<path fill="none" stroke="black" d="M449.15,-293.56C449.16,-282.22 449.18,-267.21 449.2,-253.33"/>
<polygon fill="black" stroke="black" points="452.7,-253.56 449.21,-243.55 445.7,-253.55 452.7,-253.56"/>
</g>
<!-- unexpandableNodes -->
<g id="node9" class="node">
<title>unexpandableNodes</title>
<polygon fill="none" stroke="black" points="581.25,-195.65 581.25,-231.65 635.25,-231.65 635.25,-195.65 581.25,-195.65"/>
<text text-anchor="middle" x="608.12" y="-208.23" font-family="Times New Roman,serif" font-size="14.00"> </text>
</g>
<!-- unmatchableLeafNodes -->
<g id="node10" class="node">
<title>unmatchableLeafNodes</title>
<polygon fill="none" stroke="black" points="681.25,-195.65 681.25,-231.65 735.25,-231.65 735.25,-195.65 681.25,-195.65"/>
<text text-anchor="middle" x="708.12" y="-208.23" font-family="Times New Roman,serif" font-size="14.00"> </text>
</g>
<!-- unmatchableMidProductionNodes -->
<g id="node11" class="node">
<title>unmatchableMidProductionNodes</title>
<polygon fill="none" stroke="black" points="803.25,-195.65 803.25,-231.65 857.25,-231.65 857.25,-195.65 803.25,-195.65"/>
<text text-anchor="middle" x="830.12" y="-208.23" font-family="Times New Roman,serif" font-size="14.00"> </text>
</g>
<!-- filteredNodes -->
<g id="node12" class="node">
<title>filteredNodes</title>
<polygon fill="none" stroke="black" points="952.25,-195.65 952.25,-231.65 1006.25,-231.65 1006.25,-195.65 952.25,-195.65"/>
<text text-anchor="middle" x="979.12" y="-208.23" font-family="Times New Roman,serif" font-size="14.00"> </text>
</g>
<!-- error&#45;&gt;unexpandableNodes -->
<g id="edge9" class="edge">
<title>error&#45;&gt;unexpandableNodes</title>
<path fill="none" stroke="black" d="M784.26,-306.4C733.62,-299.33 641.35,-285.28 629.75,-275.33 620.27,-267.21 614.97,-254.61 612,-243"/>
<polygon fill="black" stroke="black" points="615.47,-242.5 610.05,-233.4 608.61,-243.89 615.47,-242.5"/>
<text text-anchor="middle" x="667.5" y="-262.03" font-family="Times New Roman,serif" font-size="14.00">unexpandable</text>
</g>
<!-- error&#45;&gt;unmatchableLeafNodes -->
<g id="edge10" class="edge">
<title>error&#45;&gt;unmatchableLeafNodes</title>
<path fill="none" stroke="black" d="M783.82,-307.5C761.89,-303.49 734.38,-294.69 718.25,-275.33 710.92,-266.54 707.98,-254.47 707.03,-243.41"/>
<polygon fill="black" stroke="black" points="710.53,-243.4 706.72,-233.52 703.53,-243.62 710.53,-243.4"/>
<text text-anchor="middle" x="767.75" y="-262.03" font-family="Times New Roman,serif" font-size="14.00">unmatchable leafs</text>
</g>
<!-- error&#45;&gt;unmatchableMidProductionNodes -->
<g id="edge11" class="edge">
<title>error&#45;&gt;unmatchableMidProductionNodes</title>
<path fill="none" stroke="black" d="M819.57,-293.64C821.47,-279.64 824.18,-259.58 826.39,-243.18"/>
<polygon fill="black" stroke="black" points="829.83,-243.9 827.7,-233.52 822.89,-242.97 829.83,-243.9"/>
<text text-anchor="middle" x="886.25" y="-262.03" font-family="Times New Roman,serif" font-size="14.00">unmatchable mid&#45;prod</text>
</g>
<!-- error&#45;&gt;filteredNodes -->
<g id="edge12" class="edge">
<title>error&#45;&gt;filteredNodes</title>
<path fill="none" stroke="black" d="M851.54,-310.07C881.62,-307.66 924.86,-299.77 953.25,-275.33 962.89,-267.04 969.06,-254.52 972.96,-243.02"/>
<polygon fill="black" stroke="black" points="976.3,-244.07 975.72,-233.49 969.57,-242.12 976.3,-244.07"/>
<text text-anchor="middle" x="984.38" y="-262.03" font-family="Times New Roman,serif" font-size="14.00">filtered</text>
</g>
</g>
</svg>
