<?xml version="1.0" encoding="UTF-8" standalone="no"?>
<!DOCTYPE svg PUBLIC "-//W3C//DTD SVG 1.1//EN"
 "http://www.w3.org/Graphics/SVG/1.1/DTD/svg11.dtd">
<!-- Generated by graphviz version 12.0.0 (20240704.0754)
 -->
<!-- Title: Parser Pages: 1 -->
<svg width="1289pt" height="694pt"
 viewBox="0.00 0.00 1288.80 694.38" xmlns="http://www.w3.org/2000/svg" xmlns:xlink="http://www.w3.org/1999/xlink">
<g id="graph0" class="graph" transform="scale(1 1) rotate(0) translate(4 690.38)">
<title>Parser</title>
<polygon fill="white" stroke="none" points="-4,4 -4,-690.38 1284.8,-690.38 1284.8,4 -4,4"/>
<!-- Parser -->
<g id="node1" class="node">
<title>Parser</title>
<ellipse fill="none" stroke="black" cx="760.8" cy="-636.17" rx="130.64" ry="50.2"/>
<text text-anchor="middle" x="760.8" y="-654.37" font-family="Times New Roman,serif" font-size="14.00">Parser</text>
<text text-anchor="middle" x="760.8" y="-638.62" font-family="Times New Roman,serif" font-size="14.00">Input: &quot;a x c $&quot;</text>
<text text-anchor="middle" x="760.8" y="-622.87" font-family="Times New Roman,serif" font-size="14.00">Location: 1 (&#39; &#39;)</text>
<text text-anchor="middle" x="760.8" y="-607.12" font-family="Times New Roman,serif" font-size="14.00">Step 6: Found stack to reduce</text>
</g>
<!-- todoLists -->
<g id="node8" class="node">
<title>todoLists</title>
<polygon fill="none" stroke="black" points="193.55,-497.72 193.55,-533.72 598.05,-533.72 598.05,-497.72 193.55,-497.72"/>
<text text-anchor="middle" x="204.93" y="-510.29" font-family="Times New Roman,serif" font-size="14.00">0</text>
<polyline fill="none" stroke="black" points="216.3,-497.72 216.3,-533.72"/>
<text text-anchor="middle" x="227.68" y="-510.29" font-family="Times New Roman,serif" font-size="14.00">1</text>
<polyline fill="none" stroke="black" points="239.05,-497.72 239.05,-533.72"/>
<text text-anchor="middle" x="250.43" y="-510.29" font-family="Times New Roman,serif" font-size="14.00">2</text>
<polyline fill="none" stroke="black" points="261.8,-497.72 261.8,-533.72"/>
<text text-anchor="middle" x="273.18" y="-510.29" font-family="Times New Roman,serif" font-size="14.00">3</text>
<polyline fill="none" stroke="black" points="284.55,-497.72 284.55,-533.72"/>
<text text-anchor="middle" x="295.93" y="-510.29" font-family="Times New Roman,serif" font-size="14.00">4</text>
<polyline fill="none" stroke="black" points="307.3,-497.72 307.3,-533.72"/>
<text text-anchor="middle" x="318.68" y="-510.29" font-family="Times New Roman,serif" font-size="14.00">5</text>
<polyline fill="none" stroke="black" points="330.05,-497.72 330.05,-533.72"/>
<text text-anchor="middle" x="341.43" y="-510.29" font-family="Times New Roman,serif" font-size="14.00">6</text>
<polyline fill="none" stroke="black" points="352.8,-497.72 352.8,-533.72"/>
<text text-anchor="middle" x="364.18" y="-510.29" font-family="Times New Roman,serif" font-size="14.00">7</text>
<polyline fill="none" stroke="black" points="375.55,-497.72 375.55,-533.72"/>
<text text-anchor="middle" x="386.93" y="-510.29" font-family="Times New Roman,serif" font-size="14.00">8</text>
<polyline fill="none" stroke="black" points="398.3,-497.72 398.3,-533.72"/>
<text text-anchor="middle" x="409.68" y="-510.29" font-family="Times New Roman,serif" font-size="14.00">9</text>
<polyline fill="none" stroke="black" points="421.05,-497.72 421.05,-533.72"/>
<text text-anchor="middle" x="435.8" y="-510.29" font-family="Times New Roman,serif" font-size="14.00">10</text>
<polyline fill="none" stroke="black" points="450.55,-497.72 450.55,-533.72"/>
<text text-anchor="middle" x="465.3" y="-510.29" font-family="Times New Roman,serif" font-size="14.00">11</text>
<polyline fill="none" stroke="black" points="480.05,-497.72 480.05,-533.72"/>
<text text-anchor="middle" x="494.8" y="-510.29" font-family="Times New Roman,serif" font-size="14.00">12</text>
<polyline fill="none" stroke="black" points="509.55,-497.72 509.55,-533.72"/>
<text text-anchor="middle" x="524.3" y="-510.29" font-family="Times New Roman,serif" font-size="14.00">13</text>
<polyline fill="none" stroke="black" points="539.05,-497.72 539.05,-533.72"/>
<text text-anchor="middle" x="553.8" y="-510.29" font-family="Times New Roman,serif" font-size="14.00">14</text>
<polyline fill="none" stroke="black" points="568.55,-497.72 568.55,-533.72"/>
<text text-anchor="middle" x="583.3" y="-510.29" font-family="Times New Roman,serif" font-size="14.00">15</text>
</g>
<!-- Parser&#45;&gt;todoLists -->
<g id="edge7" class="edge">
<title>Parser&#45;&gt;todoLists</title>
<path fill="none" stroke="black" d="M662.03,-603.12C598,-582.34 516.41,-555.86 460.54,-537.73"/>
<polygon fill="black" stroke="black" points="461.75,-534.44 451.16,-534.68 459.59,-541.1 461.75,-534.44"/>
<text text-anchor="middle" x="571.68" y="-554.67" font-family="Times New Roman,serif" font-size="14.00">todo lists</text>
</g>
<!-- stacksToExpand -->
<g id="node9" class="node">
<title>stacksToExpand</title>
<polygon fill="none" stroke="black" points="615.8,-497.72 615.8,-533.72 669.8,-533.72 669.8,-497.72 615.8,-497.72"/>
<text text-anchor="middle" x="642.68" y="-510.29" font-family="Times New Roman,serif" font-size="14.00"> </text>
</g>
<!-- Parser&#45;&gt;stacksToExpand -->
<g id="edge8" class="edge">
<title>Parser&#45;&gt;stacksToExpand</title>
<path fill="none" stroke="black" d="M688.78,-593.87C679.02,-586.15 669.8,-577.48 662.3,-567.97 657.02,-561.26 653.04,-552.96 650.1,-545.01"/>
<polygon fill="black" stroke="black" points="653.48,-544.08 647.08,-535.64 646.82,-546.23 653.48,-544.08"/>
<text text-anchor="middle" x="710.05" y="-554.67" font-family="Times New Roman,serif" font-size="14.00">stacks to expand</text>
</g>
<!-- terminalsToReduce -->
<g id="node10" class="node">
<title>terminalsToReduce</title>
<polygon fill="none" stroke="black" points="733.8,-497.72 733.8,-533.72 787.8,-533.72 787.8,-497.72 733.8,-497.72"/>
<text text-anchor="middle" x="760.68" y="-510.29" font-family="Times New Roman,serif" font-size="14.00"> </text>
</g>
<!-- Parser&#45;&gt;terminalsToReduce -->
<g id="edge9" class="edge">
<title>Parser&#45;&gt;terminalsToReduce</title>
<path fill="none" stroke="black" d="M760.8,-585.63C760.8,-571.84 760.8,-557.33 760.8,-545.2"/>
<polygon fill="black" stroke="black" points="764.3,-545.49 760.8,-535.49 757.3,-545.49 764.3,-545.49"/>
<text text-anchor="middle" x="813.68" y="-554.67" font-family="Times New Roman,serif" font-size="14.00">terminals to reduce</text>
</g>
<!-- nonTerminalsToReduce -->
<g id="node11" class="node">
<title>nonTerminalsToReduce</title>
<polygon fill="none" stroke="black" points="862.8,-497.72 862.8,-533.72 916.8,-533.72 916.8,-497.72 862.8,-497.72"/>
<text text-anchor="middle" x="889.68" y="-510.29" font-family="Times New Roman,serif" font-size="14.00"> </text>
</g>
<!-- Parser&#45;&gt;nonTerminalsToReduce -->
<g id="edge10" class="edge">
<title>Parser&#45;&gt;nonTerminalsToReduce</title>
<path fill="none" stroke="black" d="M837.61,-595.1C848.65,-587.13 859.18,-578.05 867.8,-567.97 873.6,-561.19 878.08,-552.66 881.43,-544.5"/>
<polygon fill="black" stroke="black" points="884.67,-545.84 884.81,-535.25 878.09,-543.44 884.67,-545.84"/>
<text text-anchor="middle" x="943.43" y="-554.67" font-family="Times New Roman,serif" font-size="14.00">non&#45;terminals to reduce</text>
</g>
<!-- error -->
<g id="node16" class="node">
<title>error</title>
<ellipse fill="none" stroke="black" cx="1043.8" cy="-515.72" rx="34.1" ry="18"/>
<text text-anchor="middle" x="1043.8" y="-510.29" font-family="Times New Roman,serif" font-size="14.00">Errors</text>
</g>
<!-- Parser&#45;&gt;error -->
<g id="edge11" class="edge">
<title>Parser&#45;&gt;error</title>
<path fill="none" stroke="black" d="M885.85,-621.28C929.28,-611.67 976.22,-595.42 1012.8,-567.97 1021.05,-561.78 1027.57,-552.69 1032.45,-543.88"/>
<polygon fill="black" stroke="black" points="1035.44,-545.73 1036.76,-535.21 1029.17,-542.61 1035.44,-545.73"/>
<text text-anchor="middle" x="1064.3" y="-554.67" font-family="Times New Roman,serif" font-size="14.00">error tracking</text>
</g>
<!-- todo&#45;1 -->
<g id="node2" class="node">
<title>todo&#45;1</title>
<polygon fill="none" stroke="red" points="200.8,-408.97 200.8,-444.97 254.8,-444.97 254.8,-408.97 200.8,-408.97"/>
<text text-anchor="middle" x="227.68" y="-421.54" font-family="Times New Roman,serif" font-size="14.00">0</text>
</g>
<!-- 92 -->
<g id="node3" class="node">
<title>92</title>
<ellipse fill="none" stroke="black" cx="124.8" cy="-317.65" rx="124.8" ry="39.07"/>
<text text-anchor="middle" x="124.8" y="-327.98" font-family="Times New Roman,serif" font-size="14.00">Char: </text>
<text text-anchor="middle" x="124.8" y="-312.23" font-family="Times New Roman,serif" font-size="14.00">.0@1</text>
<text text-anchor="middle" x="124.8" y="-296.48" font-family="Times New Roman,serif" font-size="14.00">in: &#39;Layout &#45;&gt; [range(32,32)]&#39;</text>
</g>
<!-- todo&#45;1&#45;&gt;92 -->
<g id="edge4" class="edge">
<title>todo&#45;1:sw&#45;&gt;92</title>
<path fill="none" stroke="black" d="M200.8,-408.47C187.17,-394.83 173.25,-379.04 161.12,-364.53"/>
<polygon fill="black" stroke="black" points="163.85,-362.34 154.78,-356.87 158.46,-366.8 163.85,-362.34"/>
<text text-anchor="middle" x="199.55" y="-377.17" font-family="Times New Roman,serif" font-size="14.00">Stack</text>
</g>
<!-- 858267892 -->
<g id="node7" class="node">
<title>858267892</title>
<polygon fill="none" stroke="black" points="390.42,-305.13 390.42,-330.17 354.32,-347.88 303.28,-347.88 267.19,-330.17 267.19,-305.13 303.28,-287.42 354.32,-287.42 390.42,-305.13"/>
<text text-anchor="middle" x="328.8" y="-320.1" font-family="Times New Roman,serif" font-size="14.00">Char</text>
<text text-anchor="middle" x="328.8" y="-304.35" font-family="Times New Roman,serif" font-size="14.00">char=32(&#39; &#39;)</text>
</g>
<!-- todo&#45;1&#45;&gt;858267892 -->
<g id="edge5" class="edge">
<title>todo&#45;1:se&#45;&gt;858267892</title>
<path fill="none" stroke="black" d="M254.55,-408.47C270.49,-392.54 286.61,-373.47 299.74,-357.01"/>
<polygon fill="black" stroke="black" points="302.33,-359.37 305.77,-349.35 296.83,-355.04 302.33,-359.37"/>
<text text-anchor="middle" x="300.18" y="-377.17" font-family="Times New Roman,serif" font-size="14.00">Node</text>
</g>
<!-- 56 -->
<g id="node4" class="node">
<title>56</title>
<ellipse fill="none" stroke="black" cx="124.8" cy="-213.65" rx="95.11" ry="27.93"/>
<text text-anchor="middle" x="124.8" y="-216.1" font-family="Times New Roman,serif" font-size="14.00">NonTerminal: Layout</text>
<text text-anchor="middle" x="124.8" y="-200.35" font-family="Times New Roman,serif" font-size="14.00">.1@1</text>
</g>
<!-- 92&#45;&gt;56 -->
<g id="edge3" class="edge">
<title>92&#45;&gt;56</title>
<path fill="none" stroke="black" d="M124.8,-278.09C124.8,-269.98 124.8,-261.42 124.8,-253.31"/>
<polygon fill="black" stroke="black" points="128.3,-253.35 124.8,-243.35 121.3,-253.35 128.3,-253.35"/>
</g>
<!-- 35 -->
<g id="node5" class="node">
<title>35</title>
<ellipse fill="none" stroke="black" cx="124.8" cy="-120.79" rx="87.68" ry="27.93"/>
<text text-anchor="middle" x="124.8" y="-123.24" font-family="Times New Roman,serif" font-size="14.00">NonTerminal: ABC</text>
<text text-anchor="middle" x="124.8" y="-107.49" font-family="Times New Roman,serif" font-size="14.00">.0@0</text>
</g>
<!-- 56&#45;&gt;35 -->
<g id="edge2" class="edge">
<title>56&#45;&gt;35</title>
<path fill="none" stroke="black" d="M124.8,-185.39C124.8,-177.58 124.8,-168.9 124.8,-160.53"/>
<polygon fill="black" stroke="black" points="128.3,-160.55 124.8,-150.55 121.3,-160.55 128.3,-160.55"/>
</g>
<!-- &#45;1 -->
<g id="node6" class="node">
<title>&#45;1</title>
<ellipse fill="none" stroke="black" cx="124.8" cy="-27.93" rx="73.36" ry="27.93"/>
<text text-anchor="middle" x="124.8" y="-30.38" font-family="Times New Roman,serif" font-size="14.00">NonTerminal: S</text>
<text text-anchor="middle" x="124.8" y="-14.63" font-family="Times New Roman,serif" font-size="14.00">.0@&#45;1</text>
</g>
<!-- 35&#45;&gt;&#45;1 -->
<g id="edge1" class="edge">
<title>35&#45;&gt;&#45;1</title>
<path fill="none" stroke="black" d="M124.8,-92.53C124.8,-84.71 124.8,-76.04 124.8,-67.67"/>
<polygon fill="black" stroke="black" points="128.3,-67.69 124.8,-57.69 121.3,-67.69 128.3,-67.69"/>
</g>
<!-- todoLists&#45;&gt;todo&#45;1 -->
<g id="edge6" class="edge">
<title>todoLists:1&#45;&gt;todo&#45;1</title>
<path fill="none" stroke="black" d="M227.68,-497.22C227.68,-483.83 227.7,-468.98 227.73,-456.47"/>
<polygon fill="black" stroke="black" points="231.23,-456.85 227.75,-446.84 224.23,-456.84 231.23,-456.85"/>
</g>
<!-- unexpandableNodes -->
<g id="node12" class="node">
<title>unexpandableNodes</title>
<polygon fill="none" stroke="black" points="855.8,-408.97 855.8,-444.97 909.8,-444.97 909.8,-408.97 855.8,-408.97"/>
<text text-anchor="middle" x="882.68" y="-421.54" font-family="Times New Roman,serif" font-size="14.00"> </text>
</g>
<!-- unmatchableLeafNodes -->
<g id="node13" class="node">
<title>unmatchableLeafNodes</title>
<polygon fill="none" stroke="black" points="955.8,-408.97 955.8,-444.97 1009.8,-444.97 1009.8,-408.97 955.8,-408.97"/>
<text text-anchor="middle" x="982.68" y="-421.54" font-family="Times New Roman,serif" font-size="14.00"> </text>
</g>
<!-- unmatchableMidProductionNodes -->
<g id="node14" class="node">
<title>unmatchableMidProductionNodes</title>
<polygon fill="none" stroke="black" points="1077.8,-408.97 1077.8,-444.97 1131.8,-444.97 1131.8,-408.97 1077.8,-408.97"/>
<text text-anchor="middle" x="1104.68" y="-421.54" font-family="Times New Roman,serif" font-size="14.00"> </text>
</g>
<!-- filteredNodes -->
<g id="node15" class="node">
<title>filteredNodes</title>
<polygon fill="none" stroke="black" points="1226.8,-408.97 1226.8,-444.97 1280.8,-444.97 1280.8,-408.97 1226.8,-408.97"/>
<text text-anchor="middle" x="1253.68" y="-421.54" font-family="Times New Roman,serif" font-size="14.00"> </text>
</g>
<!-- error&#45;&gt;unexpandableNodes -->
<g id="edge12" class="edge">
<title>error&#45;&gt;unexpandableNodes</title>
<path fill="none" stroke="black" d="M1010.68,-510.49C972.9,-505.02 914.3,-494.37 898.3,-479.22 891.99,-473.24 888.23,-464.8 885.98,-456.48"/>
<polygon fill="black" stroke="black" points="889.47,-456.07 884.08,-446.95 882.61,-457.44 889.47,-456.07"/>
<text text-anchor="middle" x="937.05" y="-465.92" font-family="Times New Roman,serif" font-size="14.00">unexpandable</text>
</g>
<!-- error&#45;&gt;unmatchableLeafNodes -->
<g id="edge13" class="edge">
<title>error&#45;&gt;unmatchableLeafNodes</title>
<path fill="none" stroke="black" d="M1015.63,-505.22C1003.64,-499.63 990.82,-491.24 983.8,-479.22 979.87,-472.48 978.52,-464.35 978.43,-456.57"/>
<polygon fill="black" stroke="black" points="981.92,-456.95 979.02,-446.76 974.93,-456.53 981.92,-456.95"/>
<text text-anchor="middle" x="1033.3" y="-465.92" font-family="Times New Roman,serif" font-size="14.00">unmatchable leafs</text>
</g>
<!-- error&#45;&gt;unmatchableMidProductionNodes -->
<g id="edge14" class="edge">
<title>error&#45;&gt;unmatchableMidProductionNodes</title>
<path fill="none" stroke="black" d="M1062.48,-500.58C1069.52,-494.57 1077.17,-487.12 1082.8,-479.22 1087.84,-472.14 1092.05,-463.73 1095.4,-455.79"/>
<polygon fill="black" stroke="black" points="1098.65,-457.07 1098.99,-446.48 1092.13,-454.55 1098.65,-457.07"/>
<text text-anchor="middle" x="1153.8" y="-465.92" font-family="Times New Roman,serif" font-size="14.00">unmatchable mid&#45;prod</text>
</g>
<!-- error&#45;&gt;filteredNodes -->
<g id="edge15" class="edge">
<title>error&#45;&gt;filteredNodes</title>
<path fill="none" stroke="black" d="M1078.11,-515.51C1116.15,-514.75 1177.82,-508.52 1220.8,-479.22 1229.48,-473.31 1236.38,-464.28 1241.59,-455.45"/>
<polygon fill="black" stroke="black" points="1244.64,-457.17 1246.22,-446.69 1238.45,-453.9 1244.64,-457.17"/>
<text text-anchor="middle" x="1254.93" y="-465.92" font-family="Times New Roman,serif" font-size="14.00">filtered</text>
</g>
</g>
</svg>
