<?xml version="1.0" encoding="UTF-8" standalone="no"?>
<!DOCTYPE svg PUBLIC "-//W3C//DTD SVG 1.1//EN"
 "http://www.w3.org/Graphics/SVG/1.1/DTD/svg11.dtd">
<!-- Generated by graphviz version 12.0.0 (20240704.0754)
 -->
<!-- Title: Parser Pages: 1 -->
<svg width="1267pt" height="495pt"
 viewBox="0.00 0.00 1267.25 495.10" xmlns="http://www.w3.org/2000/svg" xmlns:xlink="http://www.w3.org/1999/xlink">
<g id="graph0" class="graph" transform="scale(1 1) rotate(0) translate(4 491.1)">
<title>Parser</title>
<polygon fill="white" stroke="none" points="-4,4 -4,-491.1 1263.25,-491.1 1263.25,4 -4,4"/>
<!-- Parser -->
<g id="node1" class="node">
<title>Parser</title>
<ellipse fill="none" stroke="black" cx="567.25" cy="-436.89" rx="134.88" ry="50.2"/>
<text text-anchor="middle" x="567.25" y="-455.09" font-family="Times New Roman,serif" font-size="14.00">Parser</text>
<text text-anchor="middle" x="567.25" y="-439.34" font-family="Times New Roman,serif" font-size="14.00">Input: &quot;a x c $&quot;</text>
<text text-anchor="middle" x="567.25" y="-423.59" font-family="Times New Roman,serif" font-size="14.00">Location: 2 (&#39;x&#39;)</text>
<text text-anchor="middle" x="567.25" y="-407.84" font-family="Times New Roman,serif" font-size="14.00">Step 8: Reducing non&#45;terminals</text>
</g>
<!-- todoLists -->
<g id="node2" class="node">
<title>todoLists</title>
<polygon fill="none" stroke="black" points="0,-298.44 0,-334.44 404.5,-334.44 404.5,-298.44 0,-298.44"/>
<text text-anchor="middle" x="11.38" y="-311.01" font-family="Times New Roman,serif" font-size="14.00">0</text>
<polyline fill="none" stroke="black" points="22.75,-298.44 22.75,-334.44"/>
<text text-anchor="middle" x="34.12" y="-311.01" font-family="Times New Roman,serif" font-size="14.00">1</text>
<polyline fill="none" stroke="black" points="45.5,-298.44 45.5,-334.44"/>
<text text-anchor="middle" x="56.88" y="-311.01" font-family="Times New Roman,serif" font-size="14.00">2</text>
<polyline fill="none" stroke="black" points="68.25,-298.44 68.25,-334.44"/>
<text text-anchor="middle" x="79.62" y="-311.01" font-family="Times New Roman,serif" font-size="14.00">3</text>
<polyline fill="none" stroke="black" points="91,-298.44 91,-334.44"/>
<text text-anchor="middle" x="102.38" y="-311.01" font-family="Times New Roman,serif" font-size="14.00">4</text>
<polyline fill="none" stroke="black" points="113.75,-298.44 113.75,-334.44"/>
<text text-anchor="middle" x="125.12" y="-311.01" font-family="Times New Roman,serif" font-size="14.00">5</text>
<polyline fill="none" stroke="black" points="136.5,-298.44 136.5,-334.44"/>
<text text-anchor="middle" x="147.88" y="-311.01" font-family="Times New Roman,serif" font-size="14.00">6</text>
<polyline fill="none" stroke="black" points="159.25,-298.44 159.25,-334.44"/>
<text text-anchor="middle" x="170.62" y="-311.01" font-family="Times New Roman,serif" font-size="14.00">7</text>
<polyline fill="none" stroke="black" points="182,-298.44 182,-334.44"/>
<text text-anchor="middle" x="193.38" y="-311.01" font-family="Times New Roman,serif" font-size="14.00">8</text>
<polyline fill="none" stroke="black" points="204.75,-298.44 204.75,-334.44"/>
<text text-anchor="middle" x="216.12" y="-311.01" font-family="Times New Roman,serif" font-size="14.00">9</text>
<polyline fill="none" stroke="black" points="227.5,-298.44 227.5,-334.44"/>
<text text-anchor="middle" x="242.25" y="-311.01" font-family="Times New Roman,serif" font-size="14.00">10</text>
<polyline fill="none" stroke="black" points="257,-298.44 257,-334.44"/>
<text text-anchor="middle" x="271.75" y="-311.01" font-family="Times New Roman,serif" font-size="14.00">11</text>
<polyline fill="none" stroke="black" points="286.5,-298.44 286.5,-334.44"/>
<text text-anchor="middle" x="301.25" y="-311.01" font-family="Times New Roman,serif" font-size="14.00">12</text>
<polyline fill="none" stroke="black" points="316,-298.44 316,-334.44"/>
<text text-anchor="middle" x="330.75" y="-311.01" font-family="Times New Roman,serif" font-size="14.00">13</text>
<polyline fill="none" stroke="black" points="345.5,-298.44 345.5,-334.44"/>
<text text-anchor="middle" x="360.25" y="-311.01" font-family="Times New Roman,serif" font-size="14.00">14</text>
<polyline fill="none" stroke="black" points="375,-298.44 375,-334.44"/>
<text text-anchor="middle" x="389.75" y="-311.01" font-family="Times New Roman,serif" font-size="14.00">15</text>
</g>
<!-- Parser&#45;&gt;todoLists -->
<g id="edge1" class="edge">
<title>Parser&#45;&gt;todoLists</title>
<path fill="none" stroke="black" d="M466.55,-403.21C402.75,-382.51 322.14,-356.34 266.81,-338.39"/>
<polygon fill="black" stroke="black" points="268.13,-335.14 257.54,-335.38 265.97,-341.8 268.13,-335.14"/>
<text text-anchor="middle" x="378.12" y="-355.39" font-family="Times New Roman,serif" font-size="14.00">todo lists</text>
</g>
<!-- stacksToExpand -->
<g id="node3" class="node">
<title>stacksToExpand</title>
<polygon fill="none" stroke="black" points="422.25,-298.44 422.25,-334.44 476.25,-334.44 476.25,-298.44 422.25,-298.44"/>
<text text-anchor="middle" x="449.12" y="-311.01" font-family="Times New Roman,serif" font-size="14.00"> </text>
</g>
<!-- Parser&#45;&gt;stacksToExpand -->
<g id="edge2" class="edge">
<title>Parser&#45;&gt;stacksToExpand</title>
<path fill="none" stroke="black" d="M494.97,-394.39C485.31,-386.72 476.19,-378.11 468.75,-368.69 463.46,-361.98 459.48,-353.68 456.55,-345.73"/>
<polygon fill="black" stroke="black" points="459.93,-344.8 453.53,-336.36 453.27,-346.95 459.93,-344.8"/>
<text text-anchor="middle" x="516.5" y="-355.39" font-family="Times New Roman,serif" font-size="14.00">stacks to expand</text>
</g>
<!-- terminalsToReduce -->
<g id="node4" class="node">
<title>terminalsToReduce</title>
<polygon fill="none" stroke="black" points="540.25,-298.44 540.25,-334.44 594.25,-334.44 594.25,-298.44 540.25,-298.44"/>
<text text-anchor="middle" x="567.12" y="-311.01" font-family="Times New Roman,serif" font-size="14.00"> </text>
</g>
<!-- Parser&#45;&gt;terminalsToReduce -->
<g id="edge3" class="edge">
<title>Parser&#45;&gt;terminalsToReduce</title>
<path fill="none" stroke="black" d="M567.25,-386.34C567.25,-372.55 567.25,-358.05 567.25,-345.92"/>
<polygon fill="black" stroke="black" points="570.75,-346.21 567.25,-336.21 563.75,-346.21 570.75,-346.21"/>
<text text-anchor="middle" x="620.12" y="-355.39" font-family="Times New Roman,serif" font-size="14.00">terminals to reduce</text>
</g>
<!-- nonTerminalsToReduce -->
<g id="node5" class="node">
<title>nonTerminalsToReduce</title>
<polygon fill="none" stroke="red" points="641.25,-298.44 641.25,-334.44 695.25,-334.44 695.25,-298.44 641.25,-298.44"/>
<text text-anchor="middle" x="668.12" y="-311.01" font-family="Times New Roman,serif" font-size="14.00">0</text>
</g>
<!-- Parser&#45;&gt;nonTerminalsToReduce -->
<g id="edge8" class="edge">
<title>Parser&#45;&gt;nonTerminalsToReduce</title>
<path fill="none" stroke="black" d="M649.99,-396.82C659.69,-388.87 668.25,-379.53 674.25,-368.69 678.09,-361.73 678.55,-353.45 677.51,-345.59"/>
<polygon fill="black" stroke="black" points="680.99,-345.09 675.46,-336.06 674.15,-346.57 680.99,-345.09"/>
<text text-anchor="middle" x="743.88" y="-355.39" font-family="Times New Roman,serif" font-size="14.00">non&#45;terminals to reduce</text>
</g>
<!-- error -->
<g id="node14" class="node">
<title>error</title>
<ellipse fill="none" stroke="black" cx="961.25" cy="-316.44" rx="34.1" ry="18"/>
<text text-anchor="middle" x="961.25" y="-311.01" font-family="Times New Roman,serif" font-size="14.00">Errors</text>
</g>
<!-- Parser&#45;&gt;error -->
<g id="edge9" class="edge">
<title>Parser&#45;&gt;error</title>
<path fill="none" stroke="black" d="M677.3,-407.51C719.95,-396.07 769.05,-382.36 813.25,-368.69 850.91,-357.04 893.38,-342.14 923.14,-331.42"/>
<polygon fill="black" stroke="black" points="924.25,-334.74 932.46,-328.04 921.86,-328.16 924.25,-334.74"/>
<text text-anchor="middle" x="895.75" y="-355.39" font-family="Times New Roman,serif" font-size="14.00">error tracking</text>
</g>
<!-- 56 -->
<g id="node6" class="node">
<title>56</title>
<ellipse fill="none" stroke="black" cx="458.25" cy="-215.95" rx="95.11" ry="27.93"/>
<text text-anchor="middle" x="458.25" y="-218.4" font-family="Times New Roman,serif" font-size="14.00">NonTerminal: Layout</text>
<text text-anchor="middle" x="458.25" y="-202.65" font-family="Times New Roman,serif" font-size="14.00">.1@1</text>
</g>
<!-- nonTerminalsToReduce&#45;&gt;56 -->
<g id="edge6" class="edge">
<title>nonTerminalsToReduce:sw&#45;&gt;56</title>
<path fill="none" stroke="black" d="M641.25,-297.94C613.53,-270.22 574.7,-251.2 539.93,-238.6"/>
<polygon fill="black" stroke="black" points="541.32,-235.38 530.72,-235.39 539.01,-241.99 541.32,-235.38"/>
<text text-anchor="middle" x="633" y="-266.64" font-family="Times New Roman,serif" font-size="14.00">Stack</text>
</g>
<!-- 429269396 -->
<g id="node9" class="node">
<title>429269396</title>
<polygon fill="none" stroke="black" points="816.71,-203.43 816.71,-228.48 744.97,-246.19 643.53,-246.19 571.79,-228.48 571.79,-203.43 643.53,-185.72 744.97,-185.72 816.71,-203.43"/>
<text text-anchor="middle" x="694.25" y="-218.4" font-family="Times New Roman,serif" font-size="14.00">SortContainer 1&#45;2</text>
<text text-anchor="middle" x="694.25" y="-202.65" font-family="Times New Roman,serif" font-size="14.00">&#39;Layout &#45;&gt; [range(32,32)]&#39;</text>
</g>
<!-- nonTerminalsToReduce&#45;&gt;429269396 -->
<g id="edge7" class="edge">
<title>nonTerminalsToReduce:se&#45;&gt;429269396</title>
<path fill="none" stroke="black" d="M695,-297.94C705.46,-287.48 707.19,-271.94 705.61,-257.27"/>
<polygon fill="black" stroke="black" points="709.13,-257.12 704.09,-247.81 702.22,-258.24 709.13,-257.12"/>
<text text-anchor="middle" x="721.62" y="-266.64" font-family="Times New Roman,serif" font-size="14.00">Node</text>
</g>
<!-- 35 -->
<g id="node7" class="node">
<title>35</title>
<ellipse fill="none" stroke="black" cx="458.25" cy="-120.79" rx="87.68" ry="27.93"/>
<text text-anchor="middle" x="458.25" y="-123.24" font-family="Times New Roman,serif" font-size="14.00">NonTerminal: ABC</text>
<text text-anchor="middle" x="458.25" y="-107.49" font-family="Times New Roman,serif" font-size="14.00">.0@0</text>
</g>
<!-- 56&#45;&gt;35 -->
<g id="edge5" class="edge">
<title>56&#45;&gt;35</title>
<path fill="none" stroke="black" d="M458.25,-188.01C458.25,-179.39 458.25,-169.68 458.25,-160.4"/>
<polygon fill="black" stroke="black" points="461.75,-160.51 458.25,-150.51 454.75,-160.51 461.75,-160.51"/>
</g>
<!-- &#45;1 -->
<g id="node8" class="node">
<title>&#45;1</title>
<ellipse fill="none" stroke="black" cx="458.25" cy="-27.93" rx="73.36" ry="27.93"/>
<text text-anchor="middle" x="458.25" y="-30.38" font-family="Times New Roman,serif" font-size="14.00">NonTerminal: S</text>
<text text-anchor="middle" x="458.25" y="-14.63" font-family="Times New Roman,serif" font-size="14.00">.0@&#45;1</text>
</g>
<!-- 35&#45;&gt;&#45;1 -->
<g id="edge4" class="edge">
<title>35&#45;&gt;&#45;1</title>
<path fill="none" stroke="black" d="M458.25,-92.53C458.25,-84.71 458.25,-76.04 458.25,-67.67"/>
<polygon fill="black" stroke="black" points="461.75,-67.69 458.25,-57.69 454.75,-67.69 461.75,-67.69"/>
</g>
<!-- unexpandableNodes -->
<g id="node10" class="node">
<title>unexpandableNodes</title>
<polygon fill="none" stroke="black" points="834.25,-197.95 834.25,-233.95 888.25,-233.95 888.25,-197.95 834.25,-197.95"/>
<text text-anchor="middle" x="861.12" y="-210.53" font-family="Times New Roman,serif" font-size="14.00"> </text>
</g>
<!-- unmatchableLeafNodes -->
<g id="node11" class="node">
<title>unmatchableLeafNodes</title>
<polygon fill="none" stroke="black" points="934.25,-197.95 934.25,-233.95 988.25,-233.95 988.25,-197.95 934.25,-197.95"/>
<text text-anchor="middle" x="961.12" y="-210.53" font-family="Times New Roman,serif" font-size="14.00"> </text>
</g>
<!-- unmatchableMidProductionNodes -->
<g id="node12" class="node">
<title>unmatchableMidProductionNodes</title>
<polygon fill="none" stroke="black" points="1056.25,-197.95 1056.25,-233.95 1110.25,-233.95 1110.25,-197.95 1056.25,-197.95"/>
<text text-anchor="middle" x="1083.12" y="-210.53" font-family="Times New Roman,serif" font-size="14.00"> </text>
</g>
<!-- filteredNodes -->
<g id="node13" class="node">
<title>filteredNodes</title>
<polygon fill="none" stroke="black" points="1205.25,-197.95 1205.25,-233.95 1259.25,-233.95 1259.25,-197.95 1205.25,-197.95"/>
<text text-anchor="middle" x="1232.12" y="-210.53" font-family="Times New Roman,serif" font-size="14.00"> </text>
</g>
<!-- error&#45;&gt;unexpandableNodes -->
<g id="edge10" class="edge">
<title>error&#45;&gt;unexpandableNodes</title>
<path fill="none" stroke="black" d="M930.36,-308.51C913.57,-303.27 893.66,-294.42 880.75,-279.94 872.3,-270.45 867.51,-257.35 864.8,-245.55"/>
<polygon fill="black" stroke="black" points="868.26,-245.05 862.99,-235.86 861.38,-246.33 868.26,-245.05"/>
<text text-anchor="middle" x="918.5" y="-266.64" font-family="Times New Roman,serif" font-size="14.00">unexpandable</text>
</g>
<!-- error&#45;&gt;unmatchableLeafNodes -->
<g id="edge11" class="edge">
<title>error&#45;&gt;unmatchableLeafNodes</title>
<path fill="none" stroke="black" d="M961.25,-298.28C961.25,-283.69 961.25,-262.43 961.25,-245.3"/>
<polygon fill="black" stroke="black" points="964.75,-245.76 961.25,-235.76 957.75,-245.76 964.75,-245.76"/>
<text text-anchor="middle" x="1010.75" y="-266.64" font-family="Times New Roman,serif" font-size="14.00">unmatchable leafs</text>
</g>
<!-- error&#45;&gt;unmatchableMidProductionNodes -->
<g id="edge12" class="edge">
<title>error&#45;&gt;unmatchableMidProductionNodes</title>
<path fill="none" stroke="black" d="M993.97,-311.25C1015.66,-306.87 1043.32,-297.96 1061.25,-279.94 1070.47,-270.67 1075.84,-257.32 1078.96,-245.3"/>
<polygon fill="black" stroke="black" points="1082.31,-246.35 1080.99,-235.83 1075.47,-244.87 1082.31,-246.35"/>
<text text-anchor="middle" x="1134.25" y="-266.64" font-family="Times New Roman,serif" font-size="14.00">unmatchable mid&#45;prod</text>
</g>
<!-- error&#45;&gt;filteredNodes -->
<g id="edge13" class="edge">
<title>error&#45;&gt;filteredNodes</title>
<path fill="none" stroke="black" d="M995.35,-314.23C1053.6,-311.56 1169.09,-303.39 1201.25,-279.94 1212.83,-271.49 1220.31,-257.52 1225.01,-244.88"/>
<polygon fill="black" stroke="black" points="1228.23,-246.32 1228,-235.73 1221.57,-244.15 1228.23,-246.32"/>
<text text-anchor="middle" x="1233.38" y="-266.64" font-family="Times New Roman,serif" font-size="14.00">filtered</text>
</g>
</g>
</svg>
