<?xml version="1.0" encoding="UTF-8" standalone="no"?>
<!DOCTYPE svg PUBLIC "-//W3C//DTD SVG 1.1//EN"
 "http://www.w3.org/Graphics/SVG/1.1/DTD/svg11.dtd">
<!-- Generated by graphviz version 12.0.0 (20240704.0754)
 -->
<!-- Title: Parser Pages: 1 -->
<svg width="1156pt" height="751pt"
 viewBox="0.00 0.00 1155.71 750.71" xmlns="http://www.w3.org/2000/svg" xmlns:xlink="http://www.w3.org/1999/xlink">
<g id="graph0" class="graph" transform="scale(1 1) rotate(0) translate(4 746.71)">
<title>Parser</title>
<polygon fill="white" stroke="none" points="-4,4 -4,-746.71 1151.71,-746.71 1151.71,4 -4,4"/>
<!-- Parser -->
<g id="node1" class="node">
<title>Parser</title>
<ellipse fill="none" stroke="black" cx="567.25" cy="-692.5" rx="131.17" ry="50.2"/>
<text text-anchor="middle" x="567.25" y="-710.7" font-family="Times New Roman,serif" font-size="14.00">Parser</text>
<text text-anchor="middle" x="567.25" y="-694.95" font-family="Times New Roman,serif" font-size="14.00">Input: &quot;a x c $&quot;</text>
<text text-anchor="middle" x="567.25" y="-679.2" font-family="Times New Roman,serif" font-size="14.00">Location: 2 (&#39;x&#39;)</text>
<text text-anchor="middle" x="567.25" y="-663.45" font-family="Times New Roman,serif" font-size="14.00">Step 13: Queue recovery node</text>
</g>
<!-- todoLists -->
<g id="node2" class="node">
<title>todoLists</title>
<polygon fill="none" stroke="black" points="0,-554.05 0,-590.05 404.5,-590.05 404.5,-554.05 0,-554.05"/>
<text text-anchor="middle" x="11.38" y="-566.62" font-family="Times New Roman,serif" font-size="14.00">0</text>
<polyline fill="none" stroke="black" points="22.75,-554.05 22.75,-590.05"/>
<text text-anchor="middle" x="34.12" y="-566.62" font-family="Times New Roman,serif" font-size="14.00">1</text>
<polyline fill="none" stroke="black" points="45.5,-554.05 45.5,-590.05"/>
<text text-anchor="middle" x="56.88" y="-566.62" font-family="Times New Roman,serif" font-size="14.00">2</text>
<polyline fill="none" stroke="black" points="68.25,-554.05 68.25,-590.05"/>
<text text-anchor="middle" x="79.62" y="-566.62" font-family="Times New Roman,serif" font-size="14.00">3</text>
<polyline fill="none" stroke="black" points="91,-554.05 91,-590.05"/>
<text text-anchor="middle" x="102.38" y="-566.62" font-family="Times New Roman,serif" font-size="14.00">4</text>
<polyline fill="none" stroke="black" points="113.75,-554.05 113.75,-590.05"/>
<text text-anchor="middle" x="125.12" y="-566.62" font-family="Times New Roman,serif" font-size="14.00">5</text>
<polyline fill="none" stroke="black" points="136.5,-554.05 136.5,-590.05"/>
<text text-anchor="middle" x="147.88" y="-566.62" font-family="Times New Roman,serif" font-size="14.00">6</text>
<polyline fill="none" stroke="black" points="159.25,-554.05 159.25,-590.05"/>
<text text-anchor="middle" x="170.62" y="-566.62" font-family="Times New Roman,serif" font-size="14.00">7</text>
<polyline fill="none" stroke="black" points="182,-554.05 182,-590.05"/>
<text text-anchor="middle" x="193.38" y="-566.62" font-family="Times New Roman,serif" font-size="14.00">8</text>
<polyline fill="none" stroke="black" points="204.75,-554.05 204.75,-590.05"/>
<text text-anchor="middle" x="216.12" y="-566.62" font-family="Times New Roman,serif" font-size="14.00">9</text>
<polyline fill="none" stroke="black" points="227.5,-554.05 227.5,-590.05"/>
<text text-anchor="middle" x="242.25" y="-566.62" font-family="Times New Roman,serif" font-size="14.00">10</text>
<polyline fill="none" stroke="black" points="257,-554.05 257,-590.05"/>
<text text-anchor="middle" x="271.75" y="-566.62" font-family="Times New Roman,serif" font-size="14.00">11</text>
<polyline fill="none" stroke="black" points="286.5,-554.05 286.5,-590.05"/>
<text text-anchor="middle" x="301.25" y="-566.62" font-family="Times New Roman,serif" font-size="14.00">12</text>
<polyline fill="none" stroke="black" points="316,-554.05 316,-590.05"/>
<text text-anchor="middle" x="330.75" y="-566.62" font-family="Times New Roman,serif" font-size="14.00">13</text>
<polyline fill="none" stroke="black" points="345.5,-554.05 345.5,-590.05"/>
<text text-anchor="middle" x="360.25" y="-566.62" font-family="Times New Roman,serif" font-size="14.00">14</text>
<polyline fill="none" stroke="black" points="375,-554.05 375,-590.05"/>
<text text-anchor="middle" x="389.75" y="-566.62" font-family="Times New Roman,serif" font-size="14.00">15</text>
</g>
<!-- Parser&#45;&gt;todoLists -->
<g id="edge1" class="edge">
<title>Parser&#45;&gt;todoLists</title>
<path fill="none" stroke="black" d="M467.99,-659.29C403.97,-638.51 322.55,-612.09 266.81,-594"/>
<polygon fill="black" stroke="black" points="268.05,-590.72 257.46,-590.97 265.89,-597.38 268.05,-590.72"/>
<text text-anchor="middle" x="378.12" y="-611" font-family="Times New Roman,serif" font-size="14.00">todo lists</text>
</g>
<!-- stacksToExpand -->
<g id="node3" class="node">
<title>stacksToExpand</title>
<polygon fill="none" stroke="black" points="422.25,-554.05 422.25,-590.05 476.25,-590.05 476.25,-554.05 422.25,-554.05"/>
<text text-anchor="middle" x="449.12" y="-566.62" font-family="Times New Roman,serif" font-size="14.00"> </text>
</g>
<!-- Parser&#45;&gt;stacksToExpand -->
<g id="edge2" class="edge">
<title>Parser&#45;&gt;stacksToExpand</title>
<path fill="none" stroke="black" d="M495.22,-650.2C485.47,-642.48 476.25,-633.81 468.75,-624.3 463.46,-617.59 459.48,-609.29 456.55,-601.34"/>
<polygon fill="black" stroke="black" points="459.93,-600.41 453.53,-591.97 453.27,-602.56 459.93,-600.41"/>
<text text-anchor="middle" x="516.5" y="-611" font-family="Times New Roman,serif" font-size="14.00">stacks to expand</text>
</g>
<!-- terminalsToReduce -->
<g id="node4" class="node">
<title>terminalsToReduce</title>
<polygon fill="none" stroke="black" points="540.25,-554.05 540.25,-590.05 594.25,-590.05 594.25,-554.05 540.25,-554.05"/>
<text text-anchor="middle" x="567.12" y="-566.62" font-family="Times New Roman,serif" font-size="14.00"> </text>
</g>
<!-- Parser&#45;&gt;terminalsToReduce -->
<g id="edge3" class="edge">
<title>Parser&#45;&gt;terminalsToReduce</title>
<path fill="none" stroke="black" d="M567.25,-641.95C567.25,-628.16 567.25,-613.66 567.25,-601.53"/>
<polygon fill="black" stroke="black" points="570.75,-601.82 567.25,-591.82 563.75,-601.82 570.75,-601.82"/>
<text text-anchor="middle" x="620.12" y="-611" font-family="Times New Roman,serif" font-size="14.00">terminals to reduce</text>
</g>
<!-- nonTerminalsToReduce -->
<g id="node5" class="node">
<title>nonTerminalsToReduce</title>
<polygon fill="none" stroke="black" points="669.25,-554.05 669.25,-590.05 723.25,-590.05 723.25,-554.05 669.25,-554.05"/>
<text text-anchor="middle" x="696.12" y="-566.62" font-family="Times New Roman,serif" font-size="14.00"> </text>
</g>
<!-- Parser&#45;&gt;nonTerminalsToReduce -->
<g id="edge4" class="edge">
<title>Parser&#45;&gt;nonTerminalsToReduce</title>
<path fill="none" stroke="black" d="M644.05,-651.43C655.1,-643.45 665.62,-634.38 674.25,-624.3 680.05,-617.52 684.52,-608.98 687.88,-600.83"/>
<polygon fill="black" stroke="black" points="691.11,-602.17 691.25,-591.58 684.54,-599.77 691.11,-602.17"/>
<text text-anchor="middle" x="749.88" y="-611" font-family="Times New Roman,serif" font-size="14.00">non&#45;terminals to reduce</text>
</g>
<!-- error -->
<g id="node17" class="node">
<title>error</title>
<ellipse fill="none" stroke="black" cx="850.25" cy="-572.05" rx="34.1" ry="18"/>
<text text-anchor="middle" x="850.25" y="-566.62" font-family="Times New Roman,serif" font-size="14.00">Errors</text>
</g>
<!-- Parser&#45;&gt;error -->
<g id="edge12" class="edge">
<title>Parser&#45;&gt;error</title>
<path fill="none" stroke="black" d="M692.94,-677.47C736.19,-667.83 782.85,-651.61 819.25,-624.3 827.5,-618.11 834.01,-609.02 838.89,-600.21"/>
<polygon fill="black" stroke="black" points="841.88,-602.05 843.2,-591.54 835.62,-598.94 841.88,-602.05"/>
<text text-anchor="middle" x="870.75" y="-611" font-family="Times New Roman,serif" font-size="14.00">error tracking</text>
</g>
<!-- unexpandableNodes -->
<g id="node6" class="node">
<title>unexpandableNodes</title>
<polygon fill="none" stroke="black" points="662.25,-465.3 662.25,-501.3 716.25,-501.3 716.25,-465.3 662.25,-465.3"/>
<text text-anchor="middle" x="689.12" y="-477.87" font-family="Times New Roman,serif" font-size="14.00"> </text>
</g>
<!-- unmatchableLeafNodes -->
<g id="node7" class="node">
<title>unmatchableLeafNodes</title>
<polygon fill="none" stroke="black" points="762.25,-465.3 762.25,-501.3 816.25,-501.3 816.25,-465.3 762.25,-465.3"/>
<text text-anchor="middle" x="789.12" y="-477.87" font-family="Times New Roman,serif" font-size="14.00"> </text>
</g>
<!-- unmatchableMidProductionNodes -->
<g id="node8" class="node">
<title>unmatchableMidProductionNodes</title>
<polygon fill="none" stroke="black" points="884.25,-465.3 884.25,-501.3 938.25,-501.3 938.25,-465.3 884.25,-465.3"/>
<text text-anchor="middle" x="911.12" y="-477.87" font-family="Times New Roman,serif" font-size="14.00">0</text>
</g>
<!-- unmatchable&#45;mid&#45;production&#45;0 -->
<g id="node9" class="node">
<title>unmatchable&#45;mid&#45;production&#45;0</title>
<polygon fill="none" stroke="black" points="823.62,-391.3 823.62,-427.3 998.88,-427.3 998.88,-391.3 823.62,-391.3"/>
<text text-anchor="middle" x="865.75" y="-403.87" font-family="Times New Roman,serif" font-size="14.00">Failed Node</text>
<polyline fill="none" stroke="black" points="907.88,-391.3 907.88,-427.3"/>
<text text-anchor="middle" x="953.38" y="-403.87" font-family="Times New Roman,serif" font-size="14.00">Predecessors</text>
</g>
<!-- unmatchableMidProductionNodes&#45;&gt;unmatchable&#45;mid&#45;production&#45;0 -->
<g id="edge5" class="edge">
<title>unmatchableMidProductionNodes:0&#45;&gt;unmatchable&#45;mid&#45;production&#45;0</title>
<path fill="none" stroke="black" d="M911.16,-464.88C911.17,-457.04 911.19,-447.71 911.2,-439"/>
<polygon fill="black" stroke="black" points="914.7,-439.23 911.22,-429.22 907.7,-439.22 914.7,-439.23"/>
</g>
<!-- 57 -->
<g id="node10" class="node">
<title>57</title>
<ellipse fill="none" stroke="black" cx="866.25" cy="-325.87" rx="40.48" ry="27.93"/>
<text text-anchor="middle" x="866.25" y="-328.32" font-family="Times New Roman,serif" font-size="14.00">Literal: </text>
<text text-anchor="middle" x="866.25" y="-312.57" font-family="Times New Roman,serif" font-size="14.00">.2@&#45;1</text>
</g>
<!-- unmatchable&#45;mid&#45;production&#45;0&#45;&gt;57 -->
<g id="edge10" class="edge">
<title>unmatchable&#45;mid&#45;production&#45;0:failedNode&#45;&gt;57</title>
<path fill="none" stroke="black" d="M865.75,-390.8C865.75,-382.65 865.79,-373.92 865.85,-365.61"/>
<polygon fill="black" stroke="black" points="869.35,-365.79 865.93,-355.76 862.35,-365.73 869.35,-365.79"/>
</g>
<!-- unmatchable&#45;mid&#45;production&#45;predecessors&#45;0 -->
<g id="node11" class="node">
<title>unmatchable&#45;mid&#45;production&#45;predecessors&#45;0</title>
<polygon fill="none" stroke="black" points="926.25,-307.87 926.25,-343.87 980.25,-343.87 980.25,-307.87 926.25,-307.87"/>
<text text-anchor="middle" x="953.12" y="-320.44" font-family="Times New Roman,serif" font-size="14.00">0</text>
</g>
<!-- unmatchable&#45;mid&#45;production&#45;0&#45;&gt;unmatchable&#45;mid&#45;production&#45;predecessors&#45;0 -->
<g id="edge11" class="edge">
<title>unmatchable&#45;mid&#45;production&#45;0:predecessors&#45;&gt;unmatchable&#45;mid&#45;production&#45;predecessors&#45;0</title>
<path fill="none" stroke="black" d="M953.38,-390.8C953.38,-379.22 953.35,-366.47 953.33,-355.42"/>
<polygon fill="black" stroke="black" points="956.83,-355.74 953.31,-345.75 949.83,-355.76 956.83,-355.74"/>
</g>
<!-- 56 -->
<g id="node12" class="node">
<title>56</title>
<ellipse fill="none" stroke="black" cx="789.25" cy="-215.95" rx="95.11" ry="27.93"/>
<text text-anchor="middle" x="789.25" y="-218.4" font-family="Times New Roman,serif" font-size="14.00">NonTerminal: Layout</text>
<text text-anchor="middle" x="789.25" y="-202.65" font-family="Times New Roman,serif" font-size="14.00">.1@1</text>
</g>
<!-- unmatchable&#45;mid&#45;production&#45;predecessors&#45;0&#45;&gt;56 -->
<g id="edge8" class="edge">
<title>unmatchable&#45;mid&#45;production&#45;predecessors&#45;0:sw&#45;&gt;56</title>
<path fill="none" stroke="black" d="M926.25,-306.87C902.53,-283.14 871.58,-262.2 845.11,-246.5"/>
<polygon fill="black" stroke="black" points="846.92,-243.51 836.52,-241.51 843.41,-249.56 846.92,-243.51"/>
<text text-anchor="middle" x="907" y="-266.64" font-family="Times New Roman,serif" font-size="14.00">Stack</text>
</g>
<!-- 429269396 -->
<g id="node15" class="node">
<title>429269396</title>
<polygon fill="none" stroke="black" points="1147.71,-203.43 1147.71,-228.48 1075.97,-246.19 974.53,-246.19 902.79,-228.48 902.79,-203.43 974.53,-185.72 1075.97,-185.72 1147.71,-203.43"/>
<text text-anchor="middle" x="1025.25" y="-218.4" font-family="Times New Roman,serif" font-size="14.00">SortContainer 1&#45;2</text>
<text text-anchor="middle" x="1025.25" y="-202.65" font-family="Times New Roman,serif" font-size="14.00">&#39;Layout &#45;&gt; [range(32,32)]&#39;</text>
</g>
<!-- unmatchable&#45;mid&#45;production&#45;predecessors&#45;0&#45;&gt;429269396 -->
<g id="edge9" class="edge">
<title>unmatchable&#45;mid&#45;production&#45;predecessors&#45;0:se&#45;&gt;429269396</title>
<path fill="none" stroke="black" d="M980,-306.87C993.92,-292.95 1004.35,-273.88 1011.66,-256.88"/>
<polygon fill="black" stroke="black" points="1014.74,-258.61 1015.25,-248.03 1008.25,-255.98 1014.74,-258.61"/>
<text text-anchor="middle" x="1022.62" y="-266.64" font-family="Times New Roman,serif" font-size="14.00">Node</text>
</g>
<!-- 35 -->
<g id="node13" class="node">
<title>35</title>
<ellipse fill="none" stroke="black" cx="789.25" cy="-120.79" rx="87.68" ry="27.93"/>
<text text-anchor="middle" x="789.25" y="-123.24" font-family="Times New Roman,serif" font-size="14.00">NonTerminal: ABC</text>
<text text-anchor="middle" x="789.25" y="-107.49" font-family="Times New Roman,serif" font-size="14.00">.0@0</text>
</g>
<!-- 56&#45;&gt;35 -->
<g id="edge7" class="edge">
<title>56&#45;&gt;35</title>
<path fill="none" stroke="black" d="M789.25,-188.01C789.25,-179.39 789.25,-169.68 789.25,-160.4"/>
<polygon fill="black" stroke="black" points="792.75,-160.51 789.25,-150.51 785.75,-160.51 792.75,-160.51"/>
</g>
<!-- &#45;1 -->
<g id="node14" class="node">
<title>&#45;1</title>
<ellipse fill="none" stroke="black" cx="789.25" cy="-27.93" rx="73.36" ry="27.93"/>
<text text-anchor="middle" x="789.25" y="-30.38" font-family="Times New Roman,serif" font-size="14.00">NonTerminal: S</text>
<text text-anchor="middle" x="789.25" y="-14.63" font-family="Times New Roman,serif" font-size="14.00">.0@&#45;1</text>
</g>
<!-- 35&#45;&gt;&#45;1 -->
<g id="edge6" class="edge">
<title>35&#45;&gt;&#45;1</title>
<path fill="none" stroke="black" d="M789.25,-92.53C789.25,-84.71 789.25,-76.04 789.25,-67.67"/>
<polygon fill="black" stroke="black" points="792.75,-67.69 789.25,-57.69 785.75,-67.69 792.75,-67.69"/>
</g>
<!-- filteredNodes -->
<g id="node16" class="node">
<title>filteredNodes</title>
<polygon fill="none" stroke="black" points="1033.25,-465.3 1033.25,-501.3 1087.25,-501.3 1087.25,-465.3 1033.25,-465.3"/>
<text text-anchor="middle" x="1060.12" y="-477.87" font-family="Times New Roman,serif" font-size="14.00"> </text>
</g>
<!-- error&#45;&gt;unexpandableNodes -->
<g id="edge13" class="edge">
<title>error&#45;&gt;unexpandableNodes</title>
<path fill="none" stroke="black" d="M817.12,-566.82C779.35,-561.35 720.75,-550.7 704.75,-535.55 698.44,-529.57 694.67,-521.12 692.43,-512.81"/>
<polygon fill="black" stroke="black" points="695.92,-512.4 690.52,-503.28 689.05,-513.77 695.92,-512.4"/>
<text text-anchor="middle" x="743.5" y="-522.25" font-family="Times New Roman,serif" font-size="14.00">unexpandable</text>
</g>
<!-- error&#45;&gt;unmatchableLeafNodes -->
<g id="edge14" class="edge">
<title>error&#45;&gt;unmatchableLeafNodes</title>
<path fill="none" stroke="black" d="M822.08,-561.55C810.08,-555.96 797.26,-547.57 790.25,-535.55 786.32,-528.81 784.96,-520.68 784.88,-512.9"/>
<polygon fill="black" stroke="black" points="788.36,-513.28 785.47,-503.09 781.38,-512.86 788.36,-513.28"/>
<text text-anchor="middle" x="839.75" y="-522.25" font-family="Times New Roman,serif" font-size="14.00">unmatchable leafs</text>
</g>
<!-- error&#45;&gt;unmatchableMidProductionNodes -->
<g id="edge15" class="edge">
<title>error&#45;&gt;unmatchableMidProductionNodes</title>
<path fill="none" stroke="black" d="M868.93,-556.91C875.97,-550.9 883.62,-543.45 889.25,-535.55 894.29,-528.47 898.5,-520.06 901.84,-512.12"/>
<polygon fill="black" stroke="black" points="905.1,-513.4 905.44,-502.81 898.57,-510.87 905.1,-513.4"/>
<text text-anchor="middle" x="960.25" y="-522.25" font-family="Times New Roman,serif" font-size="14.00">unmatchable mid&#45;prod</text>
</g>
<!-- error&#45;&gt;filteredNodes -->
<g id="edge16" class="edge">
<title>error&#45;&gt;filteredNodes</title>
<path fill="none" stroke="black" d="M884.56,-571.84C922.6,-571.08 984.26,-564.85 1027.25,-535.55 1035.92,-529.64 1042.83,-520.61 1048.04,-511.77"/>
<polygon fill="black" stroke="black" points="1051.08,-513.5 1052.66,-503.02 1044.9,-510.23 1051.08,-513.5"/>
<text text-anchor="middle" x="1061.38" y="-522.25" font-family="Times New Roman,serif" font-size="14.00">filtered</text>
</g>
</g>
</svg>
