<?xml version="1.0" encoding="UTF-8" standalone="no"?>
<!DOCTYPE svg PUBLIC "-//W3C//DTD SVG 1.1//EN"
 "http://www.w3.org/Graphics/SVG/1.1/DTD/svg11.dtd">
<!-- Generated by graphviz version 12.0.0 (20240704.0754)
 -->
<!-- Title: Parser Pages: 1 -->
<svg width="960pt" height="875pt"
 viewBox="0.00 0.00 960.02 875.42" xmlns="http://www.w3.org/2000/svg" xmlns:xlink="http://www.w3.org/1999/xlink">
<g id="graph0" class="graph" transform="scale(1 1) rotate(0) translate(4 871.42)">
<title>Parser</title>
<polygon fill="white" stroke="none" points="-4,4 -4,-871.42 956.02,-871.42 956.02,4 -4,4"/>
<!-- Parser -->
<g id="node1" class="node">
<title>Parser</title>
<ellipse fill="none" stroke="black" cx="624.77" cy="-817.21" rx="131.17" ry="50.2"/>
<text text-anchor="middle" x="624.77" y="-835.41" font-family="Times New Roman,serif" font-size="14.00">Parser</text>
<text text-anchor="middle" x="624.77" y="-819.66" font-family="Times New Roman,serif" font-size="14.00">Input: &quot;a x c $&quot;</text>
<text text-anchor="middle" x="624.77" y="-803.91" font-family="Times New Roman,serif" font-size="14.00">Location: 2 (&#39;x&#39;)</text>
<text text-anchor="middle" x="624.77" y="-788.16" font-family="Times New Roman,serif" font-size="14.00">Step 14: Queue recovery node</text>
</g>
<!-- todoLists -->
<g id="node8" class="node">
<title>todoLists</title>
<polygon fill="none" stroke="black" points="45.52,-678.76 45.52,-714.76 450.02,-714.76 450.02,-678.76 45.52,-678.76"/>
<text text-anchor="middle" x="56.9" y="-691.33" font-family="Times New Roman,serif" font-size="14.00">0</text>
<polyline fill="none" stroke="black" points="68.27,-678.76 68.27,-714.76"/>
<text text-anchor="middle" x="79.65" y="-691.33" font-family="Times New Roman,serif" font-size="14.00">1</text>
<polyline fill="none" stroke="black" points="91.02,-678.76 91.02,-714.76"/>
<text text-anchor="middle" x="102.4" y="-691.33" font-family="Times New Roman,serif" font-size="14.00">2</text>
<polyline fill="none" stroke="black" points="113.77,-678.76 113.77,-714.76"/>
<text text-anchor="middle" x="125.15" y="-691.33" font-family="Times New Roman,serif" font-size="14.00">3</text>
<polyline fill="none" stroke="black" points="136.52,-678.76 136.52,-714.76"/>
<text text-anchor="middle" x="147.9" y="-691.33" font-family="Times New Roman,serif" font-size="14.00">4</text>
<polyline fill="none" stroke="black" points="159.27,-678.76 159.27,-714.76"/>
<text text-anchor="middle" x="170.65" y="-691.33" font-family="Times New Roman,serif" font-size="14.00">5</text>
<polyline fill="none" stroke="black" points="182.02,-678.76 182.02,-714.76"/>
<text text-anchor="middle" x="193.4" y="-691.33" font-family="Times New Roman,serif" font-size="14.00">6</text>
<polyline fill="none" stroke="black" points="204.77,-678.76 204.77,-714.76"/>
<text text-anchor="middle" x="216.15" y="-691.33" font-family="Times New Roman,serif" font-size="14.00">7</text>
<polyline fill="none" stroke="black" points="227.52,-678.76 227.52,-714.76"/>
<text text-anchor="middle" x="238.9" y="-691.33" font-family="Times New Roman,serif" font-size="14.00">8</text>
<polyline fill="none" stroke="black" points="250.27,-678.76 250.27,-714.76"/>
<text text-anchor="middle" x="261.65" y="-691.33" font-family="Times New Roman,serif" font-size="14.00">9</text>
<polyline fill="none" stroke="black" points="273.02,-678.76 273.02,-714.76"/>
<text text-anchor="middle" x="287.77" y="-691.33" font-family="Times New Roman,serif" font-size="14.00">10</text>
<polyline fill="none" stroke="black" points="302.52,-678.76 302.52,-714.76"/>
<text text-anchor="middle" x="317.27" y="-691.33" font-family="Times New Roman,serif" font-size="14.00">11</text>
<polyline fill="none" stroke="black" points="332.02,-678.76 332.02,-714.76"/>
<text text-anchor="middle" x="346.77" y="-691.33" font-family="Times New Roman,serif" font-size="14.00">12</text>
<polyline fill="none" stroke="black" points="361.52,-678.76 361.52,-714.76"/>
<text text-anchor="middle" x="376.27" y="-691.33" font-family="Times New Roman,serif" font-size="14.00">13</text>
<polyline fill="none" stroke="black" points="391.02,-678.76 391.02,-714.76"/>
<text text-anchor="middle" x="405.77" y="-691.33" font-family="Times New Roman,serif" font-size="14.00">14</text>
<polyline fill="none" stroke="black" points="420.52,-678.76 420.52,-714.76"/>
<text text-anchor="middle" x="435.27" y="-691.33" font-family="Times New Roman,serif" font-size="14.00">15</text>
</g>
<!-- Parser&#45;&gt;todoLists -->
<g id="edge7" class="edge">
<title>Parser&#45;&gt;todoLists</title>
<path fill="none" stroke="black" d="M524.24,-784.62C457.74,-763.73 372.42,-736.92 314.27,-718.65"/>
<polygon fill="black" stroke="black" points="315.41,-715.34 304.82,-715.68 313.31,-722.02 315.41,-715.34"/>
<text text-anchor="middle" x="427.65" y="-735.71" font-family="Times New Roman,serif" font-size="14.00">todo lists</text>
</g>
<!-- stacksToExpand -->
<g id="node9" class="node">
<title>stacksToExpand</title>
<polygon fill="none" stroke="black" points="695.77,-678.76 695.77,-714.76 749.77,-714.76 749.77,-678.76 695.77,-678.76"/>
<text text-anchor="middle" x="722.65" y="-691.33" font-family="Times New Roman,serif" font-size="14.00"> </text>
</g>
<!-- Parser&#45;&gt;stacksToExpand -->
<g id="edge8" class="edge">
<title>Parser&#45;&gt;stacksToExpand</title>
<path fill="none" stroke="black" d="M681.26,-771.5C688.35,-764.44 695.1,-756.86 700.77,-749.01 705.87,-741.97 710.09,-733.57 713.43,-725.62"/>
<polygon fill="black" stroke="black" points="716.69,-726.89 717.02,-716.3 710.16,-724.38 716.69,-726.89"/>
<text text-anchor="middle" x="756.02" y="-735.71" font-family="Times New Roman,serif" font-size="14.00">stacks to expand</text>
</g>
<!-- terminalsToReduce -->
<g id="node10" class="node">
<title>terminalsToReduce</title>
<polygon fill="none" stroke="black" points="401.77,-590.01 401.77,-626.01 455.77,-626.01 455.77,-590.01 401.77,-590.01"/>
<text text-anchor="middle" x="428.65" y="-602.58" font-family="Times New Roman,serif" font-size="14.00">0</text>
</g>
<!-- Parser&#45;&gt;terminalsToReduce -->
<g id="edge11" class="edge">
<title>Parser&#45;&gt;terminalsToReduce</title>
<path fill="none" stroke="black" d="M560.24,-773.05C538.11,-756.5 514.13,-736.46 495.02,-715.26 473.29,-691.14 454.37,-659 442.37,-636.41"/>
<polygon fill="black" stroke="black" points="445.62,-635.07 437.91,-627.8 439.41,-638.29 445.62,-635.07"/>
<text text-anchor="middle" x="547.65" y="-691.33" font-family="Times New Roman,serif" font-size="14.00">terminals to reduce</text>
</g>
<!-- nonTerminalsToReduce -->
<g id="node11" class="node">
<title>nonTerminalsToReduce</title>
<polygon fill="none" stroke="black" points="813.77,-678.76 813.77,-714.76 867.77,-714.76 867.77,-678.76 813.77,-678.76"/>
<text text-anchor="middle" x="840.65" y="-691.33" font-family="Times New Roman,serif" font-size="14.00"> </text>
</g>
<!-- Parser&#45;&gt;nonTerminalsToReduce -->
<g id="edge12" class="edge">
<title>Parser&#45;&gt;nonTerminalsToReduce</title>
<path fill="none" stroke="black" d="M733.93,-789.14C759.88,-779.33 786.25,-766.25 807.77,-749.01 815.85,-742.54 822.57,-733.54 827.79,-724.88"/>
<polygon fill="black" stroke="black" points="830.72,-726.82 832.49,-716.38 824.59,-723.44 830.72,-726.82"/>
<text text-anchor="middle" x="886.4" y="-735.71" font-family="Times New Roman,serif" font-size="14.00">non&#45;terminals to reduce</text>
</g>
<!-- error -->
<g id="node21" class="node">
<title>error</title>
<ellipse fill="none" stroke="black" cx="643.77" cy="-696.76" rx="34.1" ry="18"/>
<text text-anchor="middle" x="643.77" y="-691.33" font-family="Times New Roman,serif" font-size="14.00">Errors</text>
</g>
<!-- Parser&#45;&gt;error -->
<g id="edge19" class="edge">
<title>Parser&#45;&gt;error</title>
<path fill="none" stroke="black" d="M621.69,-766.62C622.02,-755.52 623.17,-743.89 625.77,-733.26 626.51,-730.28 627.53,-727.26 628.71,-724.31"/>
<polygon fill="black" stroke="black" points="631.77,-726.02 632.87,-715.49 625.44,-723.04 631.77,-726.02"/>
<text text-anchor="middle" x="663.27" y="-735.71" font-family="Times New Roman,serif" font-size="14.00">error tracking</text>
</g>
<!-- todo&#45;2 -->
<g id="node2" class="node">
<title>todo&#45;2</title>
<polygon fill="none" stroke="black" points="141.77,-590.01 141.77,-626.01 195.77,-626.01 195.77,-590.01 141.77,-590.01"/>
<text text-anchor="middle" x="168.65" y="-602.58" font-family="Times New Roman,serif" font-size="14.00">0</text>
</g>
<!-- 1610612734 -->
<g id="node3" class="node">
<title>1610612734</title>
<ellipse fill="none" stroke="black" cx="141.77" cy="-495.47" rx="141.77" ry="39.07"/>
<text text-anchor="middle" x="141.77" y="-505.8" font-family="Times New Roman,serif" font-size="14.00">Skipping: </text>
<text text-anchor="middle" x="141.77" y="-490.05" font-family="Times New Roman,serif" font-size="14.00">.0@2</text>
<text text-anchor="middle" x="141.77" y="-474.3" font-family="Times New Roman,serif" font-size="14.00">in: &#39;ABC &#45;&gt; a Layout b Layout c&#39;</text>
</g>
<!-- todo&#45;2&#45;&gt;1610612734 -->
<g id="edge4" class="edge">
<title>todo&#45;2:sw&#45;&gt;1610612734</title>
<path fill="none" stroke="black" d="M141.77,-589.51C130.56,-578.29 127.95,-562 128.99,-546.17"/>
<polygon fill="black" stroke="black" points="132.46,-546.65 130.15,-536.31 125.51,-545.83 132.46,-546.65"/>
<text text-anchor="middle" x="147.52" y="-558.21" font-family="Times New Roman,serif" font-size="14.00">Stack</text>
</g>
<!-- 668929853 -->
<g id="node7" class="node">
<title>668929853</title>
<polygon fill="none" stroke="black" points="608.23,-477.95 608.23,-512.99 518.34,-537.76 391.21,-537.76 301.32,-512.99 301.32,-477.95 391.21,-453.18 518.34,-453.18 608.23,-477.95"/>
<text text-anchor="middle" x="454.77" y="-505.8" font-family="Times New Roman,serif" font-size="14.00">Skipped</text>
<text text-anchor="middle" x="454.77" y="-490.05" font-family="Times New Roman,serif" font-size="14.00">.2@2: &#160;&quot;x&quot;</text>
<text text-anchor="middle" x="454.77" y="-474.3" font-family="Times New Roman,serif" font-size="14.00">in: &#39;ABC &#45;&gt; a Layout b Layout c&#39;</text>
</g>
<!-- todo&#45;2&#45;&gt;668929853 -->
<g id="edge5" class="edge">
<title>todo&#45;2:se&#45;&gt;668929853</title>
<path fill="none" stroke="black" d="M195.52,-589.51C216.37,-568.66 277.3,-546.3 334.85,-528.74"/>
<polygon fill="black" stroke="black" points="335.53,-532.19 344.1,-525.95 333.51,-525.48 335.53,-532.19"/>
<text text-anchor="middle" x="267.15" y="-558.21" font-family="Times New Roman,serif" font-size="14.00">Node</text>
</g>
<!-- 1610612733 -->
<g id="node4" class="node">
<title>1610612733</title>
<ellipse fill="none" stroke="black" cx="299.77" cy="-303.25" rx="141.77" ry="39.07"/>
<text text-anchor="middle" x="299.77" y="-313.58" font-family="Times New Roman,serif" font-size="14.00">RecoveryPoint: 1610612733</text>
<text text-anchor="middle" x="299.77" y="-297.83" font-family="Times New Roman,serif" font-size="14.00">.2@2</text>
<text text-anchor="middle" x="299.77" y="-282.08" font-family="Times New Roman,serif" font-size="14.00">in: &#39;ABC &#45;&gt; a Layout b Layout c&#39;</text>
</g>
<!-- 1610612734&#45;&gt;1610612733 -->
<g id="edge3" class="edge">
<title>1610612734&#45;&gt;1610612733</title>
<path fill="none" stroke="black" d="M172.99,-456.89C198.42,-426.28 234.42,-382.93 261.57,-350.25"/>
<polygon fill="black" stroke="black" points="263.96,-352.85 267.66,-342.92 258.57,-348.38 263.96,-352.85"/>
</g>
<!-- 35 -->
<g id="node5" class="node">
<title>35</title>
<ellipse fill="none" stroke="black" cx="381.77" cy="-120.79" rx="87.68" ry="27.93"/>
<text text-anchor="middle" x="381.77" y="-123.24" font-family="Times New Roman,serif" font-size="14.00">NonTerminal: ABC</text>
<text text-anchor="middle" x="381.77" y="-107.49" font-family="Times New Roman,serif" font-size="14.00">.0@0</text>
</g>
<!-- 1610612733&#45;&gt;35 -->
<g id="edge2" class="edge">
<title>1610612733&#45;&gt;35</title>
<path fill="none" stroke="black" d="M316.96,-264.42C331.04,-233.45 350.84,-189.87 364.84,-159.06"/>
<polygon fill="black" stroke="black" points="367.96,-160.66 368.91,-150.11 361.58,-157.76 367.96,-160.66"/>
</g>
<!-- &#45;1 -->
<g id="node6" class="node">
<title>&#45;1</title>
<ellipse fill="none" stroke="black" cx="381.77" cy="-27.93" rx="73.36" ry="27.93"/>
<text text-anchor="middle" x="381.77" y="-30.38" font-family="Times New Roman,serif" font-size="14.00">NonTerminal: S</text>
<text text-anchor="middle" x="381.77" y="-14.63" font-family="Times New Roman,serif" font-size="14.00">.0@&#45;1</text>
</g>
<!-- 35&#45;&gt;&#45;1 -->
<g id="edge1" class="edge">
<title>35&#45;&gt;&#45;1</title>
<path fill="none" stroke="black" d="M381.77,-92.53C381.77,-84.71 381.77,-76.04 381.77,-67.67"/>
<polygon fill="black" stroke="black" points="385.28,-67.69 381.77,-57.69 378.28,-67.69 385.28,-67.69"/>
</g>
<!-- todoLists&#45;&gt;todo&#45;2 -->
<g id="edge6" class="edge">
<title>todoLists:2&#45;&gt;todo&#45;2</title>
<path fill="none" stroke="black" d="M102.4,-678.26C102.4,-658.35 116.87,-641.93 132.3,-630.09"/>
<polygon fill="black" stroke="black" points="134.02,-633.16 140.16,-624.53 129.97,-627.45 134.02,-633.16"/>
</g>
<!-- terminalsToReduce&#45;&gt;1610612734 -->
<g id="edge9" class="edge">
<title>terminalsToReduce:sw&#45;&gt;1610612734</title>
<path fill="none" stroke="black" d="M401.77,-589.51C379.91,-567.64 314.06,-544.19 254.1,-526.3"/>
<polygon fill="black" stroke="black" points="255.41,-523.03 244.83,-523.56 253.43,-529.75 255.41,-523.03"/>
<text text-anchor="middle" x="390.52" y="-558.21" font-family="Times New Roman,serif" font-size="14.00">Stack</text>
</g>
<!-- terminalsToReduce&#45;&gt;668929853 -->
<g id="edge10" class="edge">
<title>terminalsToReduce:se&#45;&gt;668929853</title>
<path fill="none" stroke="black" d="M455.52,-589.51C465.99,-579.04 468.87,-564.14 468.25,-549.33"/>
<polygon fill="black" stroke="black" points="471.75,-549.22 467.31,-539.6 464.79,-549.89 471.75,-549.22"/>
<text text-anchor="middle" x="483.15" y="-558.21" font-family="Times New Roman,serif" font-size="14.00">Node</text>
</g>
<!-- unexpandableNodes -->
<g id="node12" class="node">
<title>unexpandableNodes</title>
<polygon fill="none" stroke="black" points="824.77,-590.01 824.77,-626.01 878.77,-626.01 878.77,-590.01 824.77,-590.01"/>
<text text-anchor="middle" x="851.65" y="-602.58" font-family="Times New Roman,serif" font-size="14.00"> </text>
</g>
<!-- unmatchableLeafNodes -->
<g id="node13" class="node">
<title>unmatchableLeafNodes</title>
<polygon fill="none" stroke="black" points="492.77,-590.01 492.77,-626.01 546.77,-626.01 546.77,-590.01 492.77,-590.01"/>
<text text-anchor="middle" x="519.65" y="-602.58" font-family="Times New Roman,serif" font-size="14.00"> </text>
</g>
<!-- unmatchableMidProductionNodes -->
<g id="node14" class="node">
<title>unmatchableMidProductionNodes</title>
<polygon fill="none" stroke="black" points="686.77,-590.01 686.77,-626.01 740.77,-626.01 740.77,-590.01 686.77,-590.01"/>
<text text-anchor="middle" x="713.65" y="-602.58" font-family="Times New Roman,serif" font-size="14.00">0</text>
</g>
<!-- unmatchable&#45;mid&#45;production&#45;0 -->
<g id="node15" class="node">
<title>unmatchable&#45;mid&#45;production&#45;0</title>
<polygon fill="none" stroke="black" points="626.15,-477.47 626.15,-513.47 801.4,-513.47 801.4,-477.47 626.15,-477.47"/>
<text text-anchor="middle" x="668.27" y="-490.05" font-family="Times New Roman,serif" font-size="14.00">Failed Node</text>
<polyline fill="none" stroke="black" points="710.4,-477.47 710.4,-513.47"/>
<text text-anchor="middle" x="755.9" y="-490.05" font-family="Times New Roman,serif" font-size="14.00">Predecessors</text>
</g>
<!-- unmatchableMidProductionNodes&#45;&gt;unmatchable&#45;mid&#45;production&#45;0 -->
<g id="edge13" class="edge">
<title>unmatchableMidProductionNodes:0&#45;&gt;unmatchable&#45;mid&#45;production&#45;0</title>
<path fill="none" stroke="black" d="M713.67,-589.59C713.69,-572.09 713.72,-545.5 713.74,-525.21"/>
<polygon fill="black" stroke="black" points="717.24,-525.33 713.75,-515.33 710.24,-525.32 717.24,-525.33"/>
</g>
<!-- 57 -->
<g id="node16" class="node">
<title>57</title>
<ellipse fill="none" stroke="black" cx="668.77" cy="-388.25" rx="40.48" ry="27.93"/>
<text text-anchor="middle" x="668.77" y="-390.7" font-family="Times New Roman,serif" font-size="14.00">Literal: </text>
<text text-anchor="middle" x="668.77" y="-374.95" font-family="Times New Roman,serif" font-size="14.00">.2@&#45;1</text>
</g>
<!-- unmatchable&#45;mid&#45;production&#45;0&#45;&gt;57 -->
<g id="edge17" class="edge">
<title>unmatchable&#45;mid&#45;production&#45;0:failedNode&#45;&gt;57</title>
<path fill="none" stroke="black" d="M668.27,-476.47C668.27,-460.42 668.36,-442.71 668.46,-427.47"/>
<polygon fill="black" stroke="black" points="671.96,-427.9 668.53,-417.87 664.96,-427.85 671.96,-427.9"/>
</g>
<!-- unmatchable&#45;mid&#45;production&#45;predecessors&#45;0 -->
<g id="node17" class="node">
<title>unmatchable&#45;mid&#45;production&#45;predecessors&#45;0</title>
<polygon fill="none" stroke="black" points="727.77,-370.25 727.77,-406.25 781.77,-406.25 781.77,-370.25 727.77,-370.25"/>
<text text-anchor="middle" x="754.65" y="-382.83" font-family="Times New Roman,serif" font-size="14.00">0</text>
</g>
<!-- unmatchable&#45;mid&#45;production&#45;0&#45;&gt;unmatchable&#45;mid&#45;production&#45;predecessors&#45;0 -->
<g id="edge18" class="edge">
<title>unmatchable&#45;mid&#45;production&#45;0:predecessors&#45;&gt;unmatchable&#45;mid&#45;production&#45;predecessors&#45;0</title>
<path fill="none" stroke="black" d="M755.9,-476.47C755.9,-456.97 755.62,-435.03 755.33,-418.03"/>
<polygon fill="black" stroke="black" points="758.83,-418.08 755.16,-408.14 751.84,-418.2 758.83,-418.08"/>
</g>
<!-- 56 -->
<g id="node18" class="node">
<title>56</title>
<ellipse fill="none" stroke="black" cx="527.77" cy="-215.95" rx="95.11" ry="27.93"/>
<text text-anchor="middle" x="527.77" y="-218.4" font-family="Times New Roman,serif" font-size="14.00">NonTerminal: Layout</text>
<text text-anchor="middle" x="527.77" y="-202.65" font-family="Times New Roman,serif" font-size="14.00">.1@1</text>
</g>
<!-- unmatchable&#45;mid&#45;production&#45;predecessors&#45;0&#45;&gt;56 -->
<g id="edge15" class="edge">
<title>unmatchable&#45;mid&#45;production&#45;predecessors&#45;0:sw&#45;&gt;56</title>
<path fill="none" stroke="black" d="M727.77,-369.25C680.53,-322.01 618.28,-276.81 575.86,-248.11"/>
<polygon fill="black" stroke="black" points="577.83,-245.21 567.58,-242.55 573.93,-251.03 577.83,-245.21"/>
<text text-anchor="middle" x="713.52" y="-297.83" font-family="Times New Roman,serif" font-size="14.00">Stack</text>
</g>
<!-- 429269396 -->
<g id="node19" class="node">
<title>429269396</title>
<polygon fill="none" stroke="black" points="903.23,-203.43 903.23,-228.48 831.5,-246.19 730.05,-246.19 658.32,-228.48 658.32,-203.43 730.05,-185.72 831.5,-185.72 903.23,-203.43"/>
<text text-anchor="middle" x="780.77" y="-218.4" font-family="Times New Roman,serif" font-size="14.00">SortContainer 1&#45;2</text>
<text text-anchor="middle" x="780.77" y="-202.65" font-family="Times New Roman,serif" font-size="14.00">&#39;Layout &#45;&gt; [range(32,32)]&#39;</text>
</g>
<!-- unmatchable&#45;mid&#45;production&#45;predecessors&#45;0&#45;&gt;429269396 -->
<g id="edge16" class="edge">
<title>unmatchable&#45;mid&#45;production&#45;predecessors&#45;0:se&#45;&gt;429269396</title>
<path fill="none" stroke="black" d="M781.52,-369.25C810.12,-340.66 804.28,-291.87 794.94,-257.22"/>
<polygon fill="black" stroke="black" points="798.4,-256.59 792.25,-247.97 791.68,-258.55 798.4,-256.59"/>
<text text-anchor="middle" x="817.15" y="-297.83" font-family="Times New Roman,serif" font-size="14.00">Node</text>
</g>
<!-- 56&#45;&gt;35 -->
<g id="edge14" class="edge">
<title>56&#45;&gt;35</title>
<path fill="none" stroke="black" d="M489.03,-190.23C470.82,-178.61 448.93,-164.64 429.69,-152.37"/>
<polygon fill="black" stroke="black" points="431.78,-149.55 421.47,-147.12 428.01,-155.45 431.78,-149.55"/>
</g>
<!-- filteredNodes -->
<g id="node20" class="node">
<title>filteredNodes</title>
<polygon fill="none" stroke="black" points="614.77,-590.01 614.77,-626.01 668.77,-626.01 668.77,-590.01 614.77,-590.01"/>
<text text-anchor="middle" x="641.65" y="-602.58" font-family="Times New Roman,serif" font-size="14.00"> </text>
</g>
<!-- error&#45;&gt;unexpandableNodes -->
<g id="edge20" class="edge">
<title>error&#45;&gt;unexpandableNodes</title>
<path fill="none" stroke="black" d="M668.87,-684.3C674.66,-682.01 680.85,-679.83 686.77,-678.26 745.28,-662.72 771.37,-693.78 821.77,-660.26 830.41,-654.51 836.9,-645.36 841.58,-636.38"/>
<polygon fill="black" stroke="black" points="844.67,-638.04 845.65,-627.49 838.31,-635.13 844.67,-638.04"/>
<text text-anchor="middle" x="874.02" y="-646.96" font-family="Times New Roman,serif" font-size="14.00">unexpandable</text>
</g>
<!-- error&#45;&gt;unmatchableLeafNodes -->
<g id="edge21" class="edge">
<title>error&#45;&gt;unmatchableLeafNodes</title>
<path fill="none" stroke="black" d="M616.43,-685.55C609.7,-683.11 602.49,-680.54 595.77,-678.26 570.62,-669.7 558.02,-678.57 538.77,-660.26 532.35,-654.14 528.08,-645.65 525.25,-637.35"/>
<polygon fill="black" stroke="black" points="528.66,-636.53 522.63,-627.83 521.91,-638.4 528.66,-636.53"/>
<text text-anchor="middle" x="588.27" y="-646.96" font-family="Times New Roman,serif" font-size="14.00">unmatchable leafs</text>
</g>
<!-- error&#45;&gt;unmatchableMidProductionNodes -->
<g id="edge22" class="edge">
<title>error&#45;&gt;unmatchableMidProductionNodes</title>
<path fill="none" stroke="black" d="M660.82,-680.98C667.4,-674.88 674.78,-667.54 680.77,-660.26 686.93,-652.79 692.89,-644.12 698.02,-636.06"/>
<polygon fill="black" stroke="black" points="700.96,-637.95 703.23,-627.6 695,-634.29 700.96,-637.95"/>
<text text-anchor="middle" x="754.77" y="-646.96" font-family="Times New Roman,serif" font-size="14.00">unmatchable mid&#45;prod</text>
</g>
<!-- error&#45;&gt;filteredNodes -->
<g id="edge23" class="edge">
<title>error&#45;&gt;filteredNodes</title>
<path fill="none" stroke="black" d="M643.09,-678.42C642.89,-672.65 642.67,-666.18 642.52,-660.26 642.34,-652.87 642.2,-644.89 642.09,-637.47"/>
<polygon fill="black" stroke="black" points="645.59,-637.56 641.96,-627.61 638.59,-637.65 645.59,-637.56"/>
<text text-anchor="middle" x="660.9" y="-646.96" font-family="Times New Roman,serif" font-size="14.00">filtered</text>
</g>
</g>
</svg>
