<?xml version="1.0" encoding="UTF-8" standalone="no"?>
<!DOCTYPE svg PUBLIC "-//W3C//DTD SVG 1.1//EN"
 "http://www.w3.org/Graphics/SVG/1.1/DTD/svg11.dtd">
<!-- Generated by graphviz version 12.0.0 (20240704.0754)
 -->
<!-- Title: Parser Pages: 1 -->
<svg width="1385pt" height="809pt"
 viewBox="0.00 0.00 1384.77 808.94" xmlns="http://www.w3.org/2000/svg" xmlns:xlink="http://www.w3.org/1999/xlink">
<g id="graph0" class="graph" transform="scale(1 1) rotate(0) translate(4 804.94)">
<title>Parser</title>
<polygon fill="white" stroke="none" points="-4,4 -4,-804.94 1380.77,-804.94 1380.77,4 -4,4"/>
<!-- Parser -->
<g id="node1" class="node">
<title>Parser</title>
<ellipse fill="none" stroke="black" cx="723.77" cy="-750.74" rx="139.65" ry="50.2"/>
<text text-anchor="middle" x="723.77" y="-768.94" font-family="Times New Roman,serif" font-size="14.00">Parser</text>
<text text-anchor="middle" x="723.77" y="-753.19" font-family="Times New Roman,serif" font-size="14.00">Input: &quot;a x c $&quot;</text>
<text text-anchor="middle" x="723.77" y="-737.44" font-family="Times New Roman,serif" font-size="14.00">Location: 1 (&#39; &#39;)</text>
<text text-anchor="middle" x="723.77" y="-721.69" font-family="Times New Roman,serif" font-size="14.00">Step 18: Reducing non&#45;terminals</text>
</g>
<!-- todoLists -->
<g id="node8" class="node">
<title>todoLists</title>
<polygon fill="none" stroke="black" points="83.27,-612.28 83.27,-648.28 576.27,-648.28 576.27,-612.28 83.27,-612.28"/>
<text text-anchor="middle" x="94.65" y="-624.86" font-family="Times New Roman,serif" font-size="14.00">0</text>
<polyline fill="none" stroke="black" points="106.02,-612.28 106.02,-648.28"/>
<text text-anchor="middle" x="117.4" y="-624.86" font-family="Times New Roman,serif" font-size="14.00">1</text>
<polyline fill="none" stroke="black" points="128.77,-612.28 128.77,-648.28"/>
<text text-anchor="middle" x="140.15" y="-624.86" font-family="Times New Roman,serif" font-size="14.00">2</text>
<polyline fill="none" stroke="black" points="151.52,-612.28 151.52,-648.28"/>
<text text-anchor="middle" x="162.9" y="-624.86" font-family="Times New Roman,serif" font-size="14.00">3</text>
<polyline fill="none" stroke="black" points="174.27,-612.28 174.27,-648.28"/>
<text text-anchor="middle" x="185.65" y="-624.86" font-family="Times New Roman,serif" font-size="14.00">4</text>
<polyline fill="none" stroke="black" points="197.02,-612.28 197.02,-648.28"/>
<text text-anchor="middle" x="208.4" y="-624.86" font-family="Times New Roman,serif" font-size="14.00">5</text>
<polyline fill="none" stroke="black" points="219.77,-612.28 219.77,-648.28"/>
<text text-anchor="middle" x="231.15" y="-624.86" font-family="Times New Roman,serif" font-size="14.00">6</text>
<polyline fill="none" stroke="black" points="242.52,-612.28 242.52,-648.28"/>
<text text-anchor="middle" x="253.9" y="-624.86" font-family="Times New Roman,serif" font-size="14.00">7</text>
<polyline fill="none" stroke="black" points="265.27,-612.28 265.27,-648.28"/>
<text text-anchor="middle" x="276.65" y="-624.86" font-family="Times New Roman,serif" font-size="14.00">8</text>
<polyline fill="none" stroke="black" points="288.02,-612.28 288.02,-648.28"/>
<text text-anchor="middle" x="299.4" y="-624.86" font-family="Times New Roman,serif" font-size="14.00">9</text>
<polyline fill="none" stroke="black" points="310.77,-612.28 310.77,-648.28"/>
<text text-anchor="middle" x="325.52" y="-624.86" font-family="Times New Roman,serif" font-size="14.00">10</text>
<polyline fill="none" stroke="black" points="340.27,-612.28 340.27,-648.28"/>
<text text-anchor="middle" x="355.02" y="-624.86" font-family="Times New Roman,serif" font-size="14.00">11</text>
<polyline fill="none" stroke="black" points="369.77,-612.28 369.77,-648.28"/>
<text text-anchor="middle" x="384.52" y="-624.86" font-family="Times New Roman,serif" font-size="14.00">12</text>
<polyline fill="none" stroke="black" points="399.27,-612.28 399.27,-648.28"/>
<text text-anchor="middle" x="414.02" y="-624.86" font-family="Times New Roman,serif" font-size="14.00">13</text>
<polyline fill="none" stroke="black" points="428.77,-612.28 428.77,-648.28"/>
<text text-anchor="middle" x="443.52" y="-624.86" font-family="Times New Roman,serif" font-size="14.00">14</text>
<polyline fill="none" stroke="black" points="458.27,-612.28 458.27,-648.28"/>
<text text-anchor="middle" x="473.02" y="-624.86" font-family="Times New Roman,serif" font-size="14.00">15</text>
<polyline fill="none" stroke="black" points="487.77,-612.28 487.77,-648.28"/>
<text text-anchor="middle" x="502.52" y="-624.86" font-family="Times New Roman,serif" font-size="14.00">16</text>
<polyline fill="none" stroke="black" points="517.27,-612.28 517.27,-648.28"/>
<text text-anchor="middle" x="532.02" y="-624.86" font-family="Times New Roman,serif" font-size="14.00">17</text>
<polyline fill="none" stroke="black" points="546.77,-612.28 546.77,-648.28"/>
<text text-anchor="middle" x="561.52" y="-624.86" font-family="Times New Roman,serif" font-size="14.00">18</text>
</g>
<!-- Parser&#45;&gt;todoLists -->
<g id="edge7" class="edge">
<title>Parser&#45;&gt;todoLists</title>
<path fill="none" stroke="black" d="M617.41,-717.76C547.9,-696.86 459.12,-670.17 398.71,-652.01"/>
<polygon fill="black" stroke="black" points="399.8,-648.68 389.22,-649.15 397.79,-655.38 399.8,-648.68"/>
<text text-anchor="middle" x="517.65" y="-669.23" font-family="Times New Roman,serif" font-size="14.00">todo lists</text>
</g>
<!-- stacksToExpand -->
<g id="node9" class="node">
<title>stacksToExpand</title>
<polygon fill="none" stroke="black" points="594.77,-612.28 594.77,-648.28 648.77,-648.28 648.77,-612.28 594.77,-612.28"/>
<text text-anchor="middle" x="621.65" y="-624.86" font-family="Times New Roman,serif" font-size="14.00"> </text>
</g>
<!-- Parser&#45;&gt;stacksToExpand -->
<g id="edge8" class="edge">
<title>Parser&#45;&gt;stacksToExpand</title>
<path fill="none" stroke="black" d="M646.95,-708.36C638.43,-700.83 630.83,-692.23 625.27,-682.53 621.39,-675.75 619.75,-667.6 619.28,-659.82"/>
<polygon fill="black" stroke="black" points="622.78,-660.04 619.32,-650.03 615.78,-660.02 622.78,-660.04"/>
<text text-anchor="middle" x="673.02" y="-669.23" font-family="Times New Roman,serif" font-size="14.00">stacks to expand</text>
</g>
<!-- terminalsToReduce -->
<g id="node10" class="node">
<title>terminalsToReduce</title>
<polygon fill="none" stroke="black" points="696.77,-612.28 696.77,-648.28 750.77,-648.28 750.77,-612.28 696.77,-612.28"/>
<text text-anchor="middle" x="723.65" y="-624.86" font-family="Times New Roman,serif" font-size="14.00"> </text>
</g>
<!-- Parser&#45;&gt;terminalsToReduce -->
<g id="edge9" class="edge">
<title>Parser&#45;&gt;terminalsToReduce</title>
<path fill="none" stroke="black" d="M723.77,-700.19C723.77,-686.4 723.77,-671.89 723.77,-659.76"/>
<polygon fill="black" stroke="black" points="727.28,-660.05 723.77,-650.05 720.28,-660.05 727.28,-660.05"/>
<text text-anchor="middle" x="776.65" y="-669.23" font-family="Times New Roman,serif" font-size="14.00">terminals to reduce</text>
</g>
<!-- nonTerminalsToReduce -->
<g id="node11" class="node">
<title>nonTerminalsToReduce</title>
<polygon fill="none" stroke="red" points="768.77,-612.28 768.77,-648.28 822.77,-648.28 822.77,-612.28 768.77,-612.28"/>
<text text-anchor="middle" x="795.65" y="-624.86" font-family="Times New Roman,serif" font-size="14.00">0</text>
</g>
<!-- Parser&#45;&gt;nonTerminalsToReduce -->
<g id="edge13" class="edge">
<title>Parser&#45;&gt;nonTerminalsToReduce</title>
<path fill="none" stroke="black" d="M807.29,-710.03C816.67,-702.21 824.94,-693.09 830.77,-682.53 835.47,-674.04 832.53,-665.17 826.74,-657.25"/>
<polygon fill="black" stroke="black" points="829.5,-655.09 820.25,-649.91 824.25,-659.72 829.5,-655.09"/>
<text text-anchor="middle" x="898.4" y="-669.23" font-family="Times New Roman,serif" font-size="14.00">non&#45;terminals to reduce</text>
</g>
<!-- error -->
<g id="node18" class="node">
<title>error</title>
<ellipse fill="none" stroke="black" cx="1078.77" cy="-630.28" rx="34.1" ry="18"/>
<text text-anchor="middle" x="1078.77" y="-624.86" font-family="Times New Roman,serif" font-size="14.00">Errors</text>
</g>
<!-- Parser&#45;&gt;error -->
<g id="edge14" class="edge">
<title>Parser&#45;&gt;error</title>
<path fill="none" stroke="black" d="M839.2,-722.1C880.25,-711.18 926.51,-697.62 967.77,-682.53 994.33,-672.82 1023.3,-659.34 1044.99,-648.64"/>
<polygon fill="black" stroke="black" points="1046.26,-651.91 1053.65,-644.32 1043.14,-645.65 1046.26,-651.91"/>
<text text-anchor="middle" x="1042.27" y="-669.23" font-family="Times New Roman,serif" font-size="14.00">error tracking</text>
</g>
<!-- todo&#45;3 -->
<g id="node2" class="node">
<title>todo&#45;3</title>
<polygon fill="none" stroke="black" points="141.77,-511.8 141.77,-547.8 195.77,-547.8 195.77,-511.8 141.77,-511.8"/>
<text text-anchor="middle" x="168.65" y="-524.37" font-family="Times New Roman,serif" font-size="14.00">0</text>
</g>
<!-- 1610612734 -->
<g id="node3" class="node">
<title>1610612734</title>
<ellipse fill="none" stroke="black" cx="141.77" cy="-343.14" rx="141.77" ry="39.07"/>
<text text-anchor="middle" x="141.77" y="-353.47" font-family="Times New Roman,serif" font-size="14.00">Skipping: </text>
<text text-anchor="middle" x="141.77" y="-337.72" font-family="Times New Roman,serif" font-size="14.00">.0@2</text>
<text text-anchor="middle" x="141.77" y="-321.97" font-family="Times New Roman,serif" font-size="14.00">in: &#39;ABC &#45;&gt; a Layout b Layout c&#39;</text>
</g>
<!-- todo&#45;3&#45;&gt;1610612734 -->
<g id="edge4" class="edge">
<title>todo&#45;3:sw&#45;&gt;1610612734</title>
<path fill="none" stroke="black" d="M141.77,-510.8C111.8,-480.82 116.14,-430.56 125.33,-393.05"/>
<polygon fill="black" stroke="black" points="128.6,-394.38 127.78,-383.82 121.83,-392.59 128.6,-394.38"/>
<text text-anchor="middle" x="139.52" y="-437.07" font-family="Times New Roman,serif" font-size="14.00">Stack</text>
</g>
<!-- 668929853 -->
<g id="node7" class="node">
<title>668929853</title>
<polygon fill="none" stroke="black" points="608.23,-325.63 608.23,-360.66 518.34,-385.43 391.21,-385.43 301.32,-360.66 301.32,-325.63 391.21,-300.86 518.34,-300.86 608.23,-325.63"/>
<text text-anchor="middle" x="454.77" y="-353.47" font-family="Times New Roman,serif" font-size="14.00">Skipped</text>
<text text-anchor="middle" x="454.77" y="-337.72" font-family="Times New Roman,serif" font-size="14.00">.2@2: &#160;&quot;x&quot;</text>
<text text-anchor="middle" x="454.77" y="-321.97" font-family="Times New Roman,serif" font-size="14.00">in: &#39;ABC &#45;&gt; a Layout b Layout c&#39;</text>
</g>
<!-- todo&#45;3&#45;&gt;668929853 -->
<g id="edge5" class="edge">
<title>todo&#45;3:se&#45;&gt;668929853</title>
<path fill="none" stroke="black" d="M195.52,-510.8C245.92,-460.4 314.07,-417.33 367.84,-387.6"/>
<polygon fill="black" stroke="black" points="369.29,-390.8 376.38,-382.93 365.93,-384.66 369.29,-390.8"/>
<text text-anchor="middle" x="351.15" y="-437.07" font-family="Times New Roman,serif" font-size="14.00">Node</text>
</g>
<!-- 1610612733 -->
<g id="node4" class="node">
<title>1610612733</title>
<ellipse fill="none" stroke="black" cx="388.77" cy="-224.79" rx="141.77" ry="39.07"/>
<text text-anchor="middle" x="388.77" y="-235.12" font-family="Times New Roman,serif" font-size="14.00">RecoveryPoint: 1610612733</text>
<text text-anchor="middle" x="388.77" y="-219.37" font-family="Times New Roman,serif" font-size="14.00">.2@2</text>
<text text-anchor="middle" x="388.77" y="-203.62" font-family="Times New Roman,serif" font-size="14.00">in: &#39;ABC &#45;&gt; a Layout b Layout c&#39;</text>
</g>
<!-- 1610612734&#45;&gt;1610612733 -->
<g id="edge3" class="edge">
<title>1610612734&#45;&gt;1610612733</title>
<path fill="none" stroke="black" d="M212.22,-308.96C242.07,-294.9 277.03,-278.43 307.92,-263.88"/>
<polygon fill="black" stroke="black" points="309.31,-267.09 316.86,-259.67 306.32,-260.76 309.31,-267.09"/>
</g>
<!-- 35 -->
<g id="node5" class="node">
<title>35</title>
<ellipse fill="none" stroke="black" cx="471.77" cy="-120.79" rx="87.68" ry="27.93"/>
<text text-anchor="middle" x="471.77" y="-123.24" font-family="Times New Roman,serif" font-size="14.00">NonTerminal: ABC</text>
<text text-anchor="middle" x="471.77" y="-107.49" font-family="Times New Roman,serif" font-size="14.00">.0@0</text>
</g>
<!-- 1610612733&#45;&gt;35 -->
<g id="edge2" class="edge">
<title>1610612733&#45;&gt;35</title>
<path fill="none" stroke="black" d="M419.21,-186.39C426.99,-176.82 435.34,-166.57 443.03,-157.11"/>
<polygon fill="black" stroke="black" points="445.62,-159.48 449.22,-149.51 440.19,-155.06 445.62,-159.48"/>
</g>
<!-- &#45;1 -->
<g id="node6" class="node">
<title>&#45;1</title>
<ellipse fill="none" stroke="black" cx="557.77" cy="-27.93" rx="73.36" ry="27.93"/>
<text text-anchor="middle" x="557.77" y="-30.38" font-family="Times New Roman,serif" font-size="14.00">NonTerminal: S</text>
<text text-anchor="middle" x="557.77" y="-14.63" font-family="Times New Roman,serif" font-size="14.00">.0@&#45;1</text>
</g>
<!-- 35&#45;&gt;&#45;1 -->
<g id="edge1" class="edge">
<title>35&#45;&gt;&#45;1</title>
<path fill="none" stroke="black" d="M496.19,-94C505.44,-84.23 516.1,-72.96 525.94,-62.57"/>
<polygon fill="black" stroke="black" points="528.22,-65.24 532.56,-55.57 523.14,-60.43 528.22,-65.24"/>
</g>
<!-- todoLists&#45;&gt;todo&#45;3 -->
<g id="edge6" class="edge">
<title>todoLists:3&#45;&gt;todo&#45;3</title>
<path fill="none" stroke="black" d="M162.9,-611.78C162.9,-594.43 164.26,-575.04 165.67,-559.59"/>
<polygon fill="black" stroke="black" points="169.15,-559.95 166.64,-549.66 162.18,-559.27 169.15,-559.95"/>
</g>
<!-- 1610612735 -->
<g id="node12" class="node">
<title>1610612735</title>
<ellipse fill="none" stroke="black" cx="645.77" cy="-442.5" rx="122.68" ry="39.07"/>
<text text-anchor="middle" x="645.77" y="-452.82" font-family="Times New Roman,serif" font-size="14.00">RecoveryPoint: 1610612735</text>
<text text-anchor="middle" x="645.77" y="-437.07" font-family="Times New Roman,serif" font-size="14.00">.0@0</text>
<text text-anchor="middle" x="645.77" y="-421.32" font-family="Times New Roman,serif" font-size="14.00">in: &#39;S &#45;&gt; ABC Layout End&#39;</text>
</g>
<!-- nonTerminalsToReduce&#45;&gt;1610612735 -->
<g id="edge11" class="edge">
<title>nonTerminalsToReduce:sw&#45;&gt;1610612735</title>
<path fill="none" stroke="black" d="M768.77,-611.78C741.42,-584.42 723.12,-590.1 698.77,-560.03 682.61,-540.06 670.24,-514.37 661.53,-492.19"/>
<polygon fill="black" stroke="black" points="664.88,-491.17 658.08,-483.05 658.33,-493.64 664.88,-491.17"/>
<text text-anchor="middle" x="761.52" y="-580.48" font-family="Times New Roman,serif" font-size="14.00">Stack</text>
</g>
<!-- 942444738 -->
<g id="node13" class="node">
<title>942444738</title>
<polygon fill="none" stroke="black" points="934.05,-517.28 934.05,-542.32 867.69,-560.03 773.86,-560.03 707.5,-542.32 707.5,-517.28 773.86,-499.57 867.69,-499.57 934.05,-517.28"/>
<text text-anchor="middle" x="820.77" y="-532.25" font-family="Times New Roman,serif" font-size="14.00">Recovered 0&#45;1</text>
<text text-anchor="middle" x="820.77" y="-516.5" font-family="Times New Roman,serif" font-size="14.00">&#39;S &#45;&gt; ABC Layout End&#39;</text>
</g>
<!-- nonTerminalsToReduce&#45;&gt;942444738 -->
<g id="edge12" class="edge">
<title>nonTerminalsToReduce:se&#45;&gt;942444738</title>
<path fill="none" stroke="black" d="M822.52,-611.78C832.98,-601.32 834.55,-585.78 832.77,-571.11"/>
<polygon fill="black" stroke="black" points="836.29,-570.89 831.11,-561.64 829.39,-572.1 836.29,-570.89"/>
<text text-anchor="middle" x="848.15" y="-580.48" font-family="Times New Roman,serif" font-size="14.00">Node</text>
</g>
<!-- 1610612735&#45;&gt;&#45;1 -->
<g id="edge10" class="edge">
<title>1610612735&#45;&gt;&#45;1</title>
<path fill="none" stroke="black" d="M645.02,-403.03C644.45,-370.91 643.77,-323.9 643.77,-282.86 643.77,-282.86 643.77,-282.86 643.77,-119.79 643.77,-94.85 626.48,-74.01 607.39,-58.6"/>
<polygon fill="black" stroke="black" points="609.55,-55.84 599.46,-52.61 605.33,-61.43 609.55,-55.84"/>
</g>
<!-- unexpandableNodes -->
<g id="node14" class="node">
<title>unexpandableNodes</title>
<polygon fill="none" stroke="black" points="951.77,-511.8 951.77,-547.8 1005.77,-547.8 1005.77,-511.8 951.77,-511.8"/>
<text text-anchor="middle" x="978.65" y="-524.37" font-family="Times New Roman,serif" font-size="14.00"> </text>
</g>
<!-- unmatchableLeafNodes -->
<g id="node15" class="node">
<title>unmatchableLeafNodes</title>
<polygon fill="none" stroke="black" points="1051.77,-511.8 1051.77,-547.8 1105.77,-547.8 1105.77,-511.8 1051.77,-511.8"/>
<text text-anchor="middle" x="1078.65" y="-524.37" font-family="Times New Roman,serif" font-size="14.00"> </text>
</g>
<!-- unmatchableMidProductionNodes -->
<g id="node16" class="node">
<title>unmatchableMidProductionNodes</title>
<polygon fill="none" stroke="black" points="1173.77,-511.8 1173.77,-547.8 1227.77,-547.8 1227.77,-511.8 1173.77,-511.8"/>
<text text-anchor="middle" x="1200.65" y="-524.37" font-family="Times New Roman,serif" font-size="14.00"> </text>
</g>
<!-- filteredNodes -->
<g id="node17" class="node">
<title>filteredNodes</title>
<polygon fill="none" stroke="black" points="1322.77,-511.8 1322.77,-547.8 1376.77,-547.8 1376.77,-511.8 1322.77,-511.8"/>
<text text-anchor="middle" x="1349.65" y="-524.37" font-family="Times New Roman,serif" font-size="14.00"> </text>
</g>
<!-- error&#45;&gt;unexpandableNodes -->
<g id="edge15" class="edge">
<title>error&#45;&gt;unexpandableNodes</title>
<path fill="none" stroke="black" d="M1047.88,-622.36C1031.09,-617.11 1011.18,-608.26 998.27,-593.78 989.82,-584.29 985.03,-571.19 982.32,-559.4"/>
<polygon fill="black" stroke="black" points="985.79,-558.89 980.52,-549.7 978.91,-560.18 985.79,-558.89"/>
<text text-anchor="middle" x="1036.02" y="-580.48" font-family="Times New Roman,serif" font-size="14.00">unexpandable</text>
</g>
<!-- error&#45;&gt;unmatchableLeafNodes -->
<g id="edge16" class="edge">
<title>error&#45;&gt;unmatchableLeafNodes</title>
<path fill="none" stroke="black" d="M1078.77,-612.13C1078.77,-597.53 1078.77,-576.27 1078.77,-559.15"/>
<polygon fill="black" stroke="black" points="1082.28,-559.6 1078.77,-549.6 1075.28,-559.6 1082.28,-559.6"/>
<text text-anchor="middle" x="1128.27" y="-580.48" font-family="Times New Roman,serif" font-size="14.00">unmatchable leafs</text>
</g>
<!-- error&#45;&gt;unmatchableMidProductionNodes -->
<g id="edge17" class="edge">
<title>error&#45;&gt;unmatchableMidProductionNodes</title>
<path fill="none" stroke="black" d="M1111.5,-625.09C1133.19,-620.71 1160.84,-611.8 1178.77,-593.78 1188,-584.51 1193.37,-571.16 1196.48,-559.14"/>
<polygon fill="black" stroke="black" points="1199.84,-560.19 1198.52,-549.68 1193,-558.72 1199.84,-560.19"/>
<text text-anchor="middle" x="1251.77" y="-580.48" font-family="Times New Roman,serif" font-size="14.00">unmatchable mid&#45;prod</text>
</g>
<!-- error&#45;&gt;filteredNodes -->
<g id="edge18" class="edge">
<title>error&#45;&gt;filteredNodes</title>
<path fill="none" stroke="black" d="M1112.88,-628.08C1171.13,-625.41 1286.62,-617.23 1318.77,-593.78 1330.35,-585.34 1337.83,-571.37 1342.54,-558.73"/>
<polygon fill="black" stroke="black" points="1345.75,-560.16 1345.52,-549.57 1339.1,-557.99 1345.75,-560.16"/>
<text text-anchor="middle" x="1350.9" y="-580.48" font-family="Times New Roman,serif" font-size="14.00">filtered</text>
</g>
</g>
</svg>
