<?xml version="1.0" encoding="UTF-8" standalone="no"?>
<!DOCTYPE svg PUBLIC "-//W3C//DTD SVG 1.1//EN"
 "http://www.w3.org/Graphics/SVG/1.1/DTD/svg11.dtd">
<!-- Generated by graphviz version 12.0.0 (20240704.0754)
 -->
<!-- Title: Parser Pages: 1 -->
<svg width="1449pt" height="723pt"
 viewBox="0.00 0.00 1448.77 723.09" xmlns="http://www.w3.org/2000/svg" xmlns:xlink="http://www.w3.org/1999/xlink">
<g id="graph0" class="graph" transform="scale(1 1) rotate(0) translate(4 719.09)">
<title>Parser</title>
<polygon fill="white" stroke="none" points="-4,4 -4,-719.09 1444.77,-719.09 1444.77,4 -4,4"/>
<!-- Parser -->
<g id="node1" class="node">
<title>Parser</title>
<ellipse fill="none" stroke="black" cx="920.77" cy="-664.89" rx="135.41" ry="50.2"/>
<text text-anchor="middle" x="920.77" y="-683.09" font-family="Times New Roman,serif" font-size="14.00">Parser</text>
<text text-anchor="middle" x="920.77" y="-667.34" font-family="Times New Roman,serif" font-size="14.00">Input: &quot;a x c $&quot;</text>
<text text-anchor="middle" x="920.77" y="-651.59" font-family="Times New Roman,serif" font-size="14.00">Location: 1 (&#39; &#39;)</text>
<text text-anchor="middle" x="920.77" y="-635.84" font-family="Times New Roman,serif" font-size="14.00">Step 21: Found stack to reduce</text>
</g>
<!-- todoLists -->
<g id="node8" class="node">
<title>todoLists</title>
<polygon fill="none" stroke="black" points="264.27,-526.43 264.27,-562.43 757.27,-562.43 757.27,-526.43 264.27,-526.43"/>
<text text-anchor="middle" x="275.65" y="-539.01" font-family="Times New Roman,serif" font-size="14.00">0</text>
<polyline fill="none" stroke="black" points="287.02,-526.43 287.02,-562.43"/>
<text text-anchor="middle" x="298.4" y="-539.01" font-family="Times New Roman,serif" font-size="14.00">1</text>
<polyline fill="none" stroke="black" points="309.77,-526.43 309.77,-562.43"/>
<text text-anchor="middle" x="321.15" y="-539.01" font-family="Times New Roman,serif" font-size="14.00">2</text>
<polyline fill="none" stroke="black" points="332.52,-526.43 332.52,-562.43"/>
<text text-anchor="middle" x="343.9" y="-539.01" font-family="Times New Roman,serif" font-size="14.00">3</text>
<polyline fill="none" stroke="black" points="355.27,-526.43 355.27,-562.43"/>
<text text-anchor="middle" x="366.65" y="-539.01" font-family="Times New Roman,serif" font-size="14.00">4</text>
<polyline fill="none" stroke="black" points="378.02,-526.43 378.02,-562.43"/>
<text text-anchor="middle" x="389.4" y="-539.01" font-family="Times New Roman,serif" font-size="14.00">5</text>
<polyline fill="none" stroke="black" points="400.77,-526.43 400.77,-562.43"/>
<text text-anchor="middle" x="412.15" y="-539.01" font-family="Times New Roman,serif" font-size="14.00">6</text>
<polyline fill="none" stroke="black" points="423.52,-526.43 423.52,-562.43"/>
<text text-anchor="middle" x="434.9" y="-539.01" font-family="Times New Roman,serif" font-size="14.00">7</text>
<polyline fill="none" stroke="black" points="446.27,-526.43 446.27,-562.43"/>
<text text-anchor="middle" x="457.65" y="-539.01" font-family="Times New Roman,serif" font-size="14.00">8</text>
<polyline fill="none" stroke="black" points="469.02,-526.43 469.02,-562.43"/>
<text text-anchor="middle" x="480.4" y="-539.01" font-family="Times New Roman,serif" font-size="14.00">9</text>
<polyline fill="none" stroke="black" points="491.77,-526.43 491.77,-562.43"/>
<text text-anchor="middle" x="506.52" y="-539.01" font-family="Times New Roman,serif" font-size="14.00">10</text>
<polyline fill="none" stroke="black" points="521.27,-526.43 521.27,-562.43"/>
<text text-anchor="middle" x="536.02" y="-539.01" font-family="Times New Roman,serif" font-size="14.00">11</text>
<polyline fill="none" stroke="black" points="550.77,-526.43 550.77,-562.43"/>
<text text-anchor="middle" x="565.52" y="-539.01" font-family="Times New Roman,serif" font-size="14.00">12</text>
<polyline fill="none" stroke="black" points="580.27,-526.43 580.27,-562.43"/>
<text text-anchor="middle" x="595.02" y="-539.01" font-family="Times New Roman,serif" font-size="14.00">13</text>
<polyline fill="none" stroke="black" points="609.77,-526.43 609.77,-562.43"/>
<text text-anchor="middle" x="624.52" y="-539.01" font-family="Times New Roman,serif" font-size="14.00">14</text>
<polyline fill="none" stroke="black" points="639.27,-526.43 639.27,-562.43"/>
<text text-anchor="middle" x="654.02" y="-539.01" font-family="Times New Roman,serif" font-size="14.00">15</text>
<polyline fill="none" stroke="black" points="668.77,-526.43 668.77,-562.43"/>
<text text-anchor="middle" x="683.52" y="-539.01" font-family="Times New Roman,serif" font-size="14.00">16</text>
<polyline fill="none" stroke="black" points="698.27,-526.43 698.27,-562.43"/>
<text text-anchor="middle" x="713.02" y="-539.01" font-family="Times New Roman,serif" font-size="14.00">17</text>
<polyline fill="none" stroke="black" points="727.77,-526.43 727.77,-562.43"/>
<text text-anchor="middle" x="742.52" y="-539.01" font-family="Times New Roman,serif" font-size="14.00">18</text>
</g>
<!-- Parser&#45;&gt;todoLists -->
<g id="edge7" class="edge">
<title>Parser&#45;&gt;todoLists</title>
<path fill="none" stroke="black" d="M814.66,-633.23C741.54,-612.1 646.35,-584.6 582.15,-566.05"/>
<polygon fill="black" stroke="black" points="583.36,-562.76 572.78,-563.35 581.41,-569.48 583.36,-562.76"/>
<text text-anchor="middle" x="705.65" y="-583.38" font-family="Times New Roman,serif" font-size="14.00">todo lists</text>
</g>
<!-- stacksToExpand -->
<g id="node9" class="node">
<title>stacksToExpand</title>
<polygon fill="none" stroke="black" points="775.77,-526.43 775.77,-562.43 829.77,-562.43 829.77,-526.43 775.77,-526.43"/>
<text text-anchor="middle" x="802.65" y="-539.01" font-family="Times New Roman,serif" font-size="14.00"> </text>
</g>
<!-- Parser&#45;&gt;stacksToExpand -->
<g id="edge8" class="edge">
<title>Parser&#45;&gt;stacksToExpand</title>
<path fill="none" stroke="black" d="M848.5,-622.39C838.83,-614.71 829.71,-606.11 822.27,-596.68 816.99,-589.97 813.01,-581.67 810.07,-573.72"/>
<polygon fill="black" stroke="black" points="813.45,-572.8 807.05,-564.35 806.79,-574.94 813.45,-572.8"/>
<text text-anchor="middle" x="870.02" y="-583.38" font-family="Times New Roman,serif" font-size="14.00">stacks to expand</text>
</g>
<!-- terminalsToReduce -->
<g id="node10" class="node">
<title>terminalsToReduce</title>
<polygon fill="none" stroke="black" points="893.77,-526.43 893.77,-562.43 947.77,-562.43 947.77,-526.43 893.77,-526.43"/>
<text text-anchor="middle" x="920.65" y="-539.01" font-family="Times New Roman,serif" font-size="14.00"> </text>
</g>
<!-- Parser&#45;&gt;terminalsToReduce -->
<g id="edge9" class="edge">
<title>Parser&#45;&gt;terminalsToReduce</title>
<path fill="none" stroke="black" d="M920.77,-614.34C920.77,-600.55 920.77,-586.04 920.77,-573.91"/>
<polygon fill="black" stroke="black" points="924.28,-574.2 920.77,-564.2 917.28,-574.2 924.28,-574.2"/>
<text text-anchor="middle" x="973.65" y="-583.38" font-family="Times New Roman,serif" font-size="14.00">terminals to reduce</text>
</g>
<!-- nonTerminalsToReduce -->
<g id="node11" class="node">
<title>nonTerminalsToReduce</title>
<polygon fill="none" stroke="black" points="1022.77,-526.43 1022.77,-562.43 1076.77,-562.43 1076.77,-526.43 1022.77,-526.43"/>
<text text-anchor="middle" x="1049.65" y="-539.01" font-family="Times New Roman,serif" font-size="14.00"> </text>
</g>
<!-- Parser&#45;&gt;nonTerminalsToReduce -->
<g id="edge10" class="edge">
<title>Parser&#45;&gt;nonTerminalsToReduce</title>
<path fill="none" stroke="black" d="M998.12,-623.41C1008.97,-615.54 1019.29,-606.6 1027.77,-596.68 1033.57,-589.9 1038.05,-581.37 1041.4,-573.21"/>
<polygon fill="black" stroke="black" points="1044.64,-574.55 1044.78,-563.96 1038.06,-572.16 1044.64,-574.55"/>
<text text-anchor="middle" x="1103.4" y="-583.38" font-family="Times New Roman,serif" font-size="14.00">non&#45;terminals to reduce</text>
</g>
<!-- error -->
<g id="node16" class="node">
<title>error</title>
<ellipse fill="none" stroke="black" cx="1203.77" cy="-544.43" rx="34.1" ry="18"/>
<text text-anchor="middle" x="1203.77" y="-539.01" font-family="Times New Roman,serif" font-size="14.00">Errors</text>
</g>
<!-- Parser&#45;&gt;error -->
<g id="edge11" class="edge">
<title>Parser&#45;&gt;error</title>
<path fill="none" stroke="black" d="M1049.7,-649.12C1092.03,-639.4 1137.28,-623.31 1172.77,-596.68 1181.02,-590.49 1187.54,-581.4 1192.42,-572.59"/>
<polygon fill="black" stroke="black" points="1195.41,-574.44 1196.73,-563.92 1189.14,-571.32 1195.41,-574.44"/>
<text text-anchor="middle" x="1224.27" y="-583.38" font-family="Times New Roman,serif" font-size="14.00">error tracking</text>
</g>
<!-- todo&#45;1 -->
<g id="node2" class="node">
<title>todo&#45;1</title>
<polygon fill="none" stroke="black" points="271.77,-437.68 271.77,-473.68 325.77,-473.68 325.77,-437.68 271.77,-437.68"/>
<text text-anchor="middle" x="298.65" y="-450.26" font-family="Times New Roman,serif" font-size="14.00">0</text>
</g>
<!-- 1610612734 -->
<g id="node3" class="node">
<title>1610612734</title>
<ellipse fill="none" stroke="black" cx="141.77" cy="-343.14" rx="141.77" ry="39.07"/>
<text text-anchor="middle" x="141.77" y="-353.47" font-family="Times New Roman,serif" font-size="14.00">Skipping: </text>
<text text-anchor="middle" x="141.77" y="-337.72" font-family="Times New Roman,serif" font-size="14.00">.0@2</text>
<text text-anchor="middle" x="141.77" y="-321.97" font-family="Times New Roman,serif" font-size="14.00">in: &#39;ABC &#45;&gt; a Layout b Layout c&#39;</text>
</g>
<!-- todo&#45;1&#45;&gt;1610612734 -->
<g id="edge4" class="edge">
<title>todo&#45;1:sw&#45;&gt;1610612734</title>
<path fill="none" stroke="black" d="M271.77,-437.18C252.88,-418.29 229.82,-400.45 208.39,-385.55"/>
<polygon fill="black" stroke="black" points="210.49,-382.74 200.26,-379.98 206.53,-388.52 210.49,-382.74"/>
<text text-anchor="middle" x="265.52" y="-405.88" font-family="Times New Roman,serif" font-size="14.00">Stack</text>
</g>
<!-- 668929853 -->
<g id="node7" class="node">
<title>668929853</title>
<polygon fill="none" stroke="black" points="608.23,-325.63 608.23,-360.66 518.34,-385.43 391.21,-385.43 301.32,-360.66 301.32,-325.63 391.21,-300.86 518.34,-300.86 608.23,-325.63"/>
<text text-anchor="middle" x="454.77" y="-353.47" font-family="Times New Roman,serif" font-size="14.00">Skipped</text>
<text text-anchor="middle" x="454.77" y="-337.72" font-family="Times New Roman,serif" font-size="14.00">.2@2: &#160;&quot;x&quot;</text>
<text text-anchor="middle" x="454.77" y="-321.97" font-family="Times New Roman,serif" font-size="14.00">in: &#39;ABC &#45;&gt; a Layout b Layout c&#39;</text>
</g>
<!-- todo&#45;1&#45;&gt;668929853 -->
<g id="edge5" class="edge">
<title>todo&#45;1:se&#45;&gt;668929853</title>
<path fill="none" stroke="black" d="M325.52,-437.18C341.82,-420.88 361.21,-405.34 379.95,-391.78"/>
<polygon fill="black" stroke="black" points="381.72,-394.81 387.84,-386.16 377.67,-389.1 381.72,-394.81"/>
<text text-anchor="middle" x="377.15" y="-405.88" font-family="Times New Roman,serif" font-size="14.00">Node</text>
</g>
<!-- 1610612733 -->
<g id="node4" class="node">
<title>1610612733</title>
<ellipse fill="none" stroke="black" cx="141.77" cy="-224.79" rx="141.77" ry="39.07"/>
<text text-anchor="middle" x="141.77" y="-235.12" font-family="Times New Roman,serif" font-size="14.00">RecoveryPoint: 1610612733</text>
<text text-anchor="middle" x="141.77" y="-219.37" font-family="Times New Roman,serif" font-size="14.00">.2@2</text>
<text text-anchor="middle" x="141.77" y="-203.62" font-family="Times New Roman,serif" font-size="14.00">in: &#39;ABC &#45;&gt; a Layout b Layout c&#39;</text>
</g>
<!-- 1610612734&#45;&gt;1610612733 -->
<g id="edge3" class="edge">
<title>1610612734&#45;&gt;1610612733</title>
<path fill="none" stroke="black" d="M141.77,-303.72C141.77,-294.69 141.77,-284.93 141.77,-275.48"/>
<polygon fill="black" stroke="black" points="145.28,-275.68 141.77,-265.68 138.28,-275.68 145.28,-275.68"/>
</g>
<!-- 35 -->
<g id="node5" class="node">
<title>35</title>
<ellipse fill="none" stroke="black" cx="141.77" cy="-120.79" rx="87.68" ry="27.93"/>
<text text-anchor="middle" x="141.77" y="-123.24" font-family="Times New Roman,serif" font-size="14.00">NonTerminal: ABC</text>
<text text-anchor="middle" x="141.77" y="-107.49" font-family="Times New Roman,serif" font-size="14.00">.0@0</text>
</g>
<!-- 1610612733&#45;&gt;35 -->
<g id="edge2" class="edge">
<title>1610612733&#45;&gt;35</title>
<path fill="none" stroke="black" d="M141.77,-185.23C141.77,-177.12 141.77,-168.56 141.77,-160.44"/>
<polygon fill="black" stroke="black" points="145.28,-160.49 141.77,-150.49 138.28,-160.49 145.28,-160.49"/>
</g>
<!-- &#45;1 -->
<g id="node6" class="node">
<title>&#45;1</title>
<ellipse fill="none" stroke="black" cx="141.77" cy="-27.93" rx="73.36" ry="27.93"/>
<text text-anchor="middle" x="141.77" y="-30.38" font-family="Times New Roman,serif" font-size="14.00">NonTerminal: S</text>
<text text-anchor="middle" x="141.77" y="-14.63" font-family="Times New Roman,serif" font-size="14.00">.0@&#45;1</text>
</g>
<!-- 35&#45;&gt;&#45;1 -->
<g id="edge1" class="edge">
<title>35&#45;&gt;&#45;1</title>
<path fill="none" stroke="black" d="M141.77,-92.53C141.77,-84.71 141.77,-76.04 141.77,-67.67"/>
<polygon fill="black" stroke="black" points="145.28,-67.69 141.77,-57.69 138.28,-67.69 145.28,-67.69"/>
</g>
<!-- todoLists&#45;&gt;todo&#45;1 -->
<g id="edge6" class="edge">
<title>todoLists:1&#45;&gt;todo&#45;1</title>
<path fill="none" stroke="black" d="M298.4,-525.93C298.4,-512.54 298.47,-497.69 298.55,-485.19"/>
<polygon fill="black" stroke="black" points="302.05,-485.58 298.62,-475.55 295.05,-485.53 302.05,-485.58"/>
</g>
<!-- unexpandableNodes -->
<g id="node12" class="node">
<title>unexpandableNodes</title>
<polygon fill="none" stroke="black" points="1015.77,-437.68 1015.77,-473.68 1069.77,-473.68 1069.77,-437.68 1015.77,-437.68"/>
<text text-anchor="middle" x="1042.65" y="-450.26" font-family="Times New Roman,serif" font-size="14.00"> </text>
</g>
<!-- unmatchableLeafNodes -->
<g id="node13" class="node">
<title>unmatchableLeafNodes</title>
<polygon fill="none" stroke="black" points="1115.77,-437.68 1115.77,-473.68 1169.77,-473.68 1169.77,-437.68 1115.77,-437.68"/>
<text text-anchor="middle" x="1142.65" y="-450.26" font-family="Times New Roman,serif" font-size="14.00"> </text>
</g>
<!-- unmatchableMidProductionNodes -->
<g id="node14" class="node">
<title>unmatchableMidProductionNodes</title>
<polygon fill="none" stroke="black" points="1237.77,-437.68 1237.77,-473.68 1291.77,-473.68 1291.77,-437.68 1237.77,-437.68"/>
<text text-anchor="middle" x="1264.65" y="-450.26" font-family="Times New Roman,serif" font-size="14.00"> </text>
</g>
<!-- filteredNodes -->
<g id="node15" class="node">
<title>filteredNodes</title>
<polygon fill="none" stroke="black" points="1386.77,-437.68 1386.77,-473.68 1440.77,-473.68 1440.77,-437.68 1386.77,-437.68"/>
<text text-anchor="middle" x="1413.65" y="-450.26" font-family="Times New Roman,serif" font-size="14.00"> </text>
</g>
<!-- error&#45;&gt;unexpandableNodes -->
<g id="edge12" class="edge">
<title>error&#45;&gt;unexpandableNodes</title>
<path fill="none" stroke="black" d="M1170.65,-539.2C1132.87,-533.73 1074.27,-523.08 1058.27,-507.93 1051.96,-501.95 1048.2,-493.51 1045.95,-485.19"/>
<polygon fill="black" stroke="black" points="1049.44,-484.78 1044.05,-475.66 1042.58,-486.15 1049.44,-484.78"/>
<text text-anchor="middle" x="1097.02" y="-494.63" font-family="Times New Roman,serif" font-size="14.00">unexpandable</text>
</g>
<!-- error&#45;&gt;unmatchableLeafNodes -->
<g id="edge13" class="edge">
<title>error&#45;&gt;unmatchableLeafNodes</title>
<path fill="none" stroke="black" d="M1175.6,-533.93C1163.61,-528.34 1150.79,-519.95 1143.77,-507.93 1139.84,-501.19 1138.49,-493.06 1138.4,-485.28"/>
<polygon fill="black" stroke="black" points="1141.89,-485.67 1138.99,-475.47 1134.9,-485.25 1141.89,-485.67"/>
<text text-anchor="middle" x="1193.27" y="-494.63" font-family="Times New Roman,serif" font-size="14.00">unmatchable leafs</text>
</g>
<!-- error&#45;&gt;unmatchableMidProductionNodes -->
<g id="edge14" class="edge">
<title>error&#45;&gt;unmatchableMidProductionNodes</title>
<path fill="none" stroke="black" d="M1222.45,-529.29C1229.49,-523.28 1237.14,-515.84 1242.77,-507.93 1247.81,-500.86 1252.02,-492.44 1255.37,-484.5"/>
<polygon fill="black" stroke="black" points="1258.63,-485.78 1258.96,-475.19 1252.1,-483.26 1258.63,-485.78"/>
<text text-anchor="middle" x="1313.77" y="-494.63" font-family="Times New Roman,serif" font-size="14.00">unmatchable mid&#45;prod</text>
</g>
<!-- error&#45;&gt;filteredNodes -->
<g id="edge15" class="edge">
<title>error&#45;&gt;filteredNodes</title>
<path fill="none" stroke="black" d="M1238.08,-544.22C1276.13,-543.46 1337.79,-537.24 1380.77,-507.93 1389.45,-502.02 1396.35,-492.99 1401.56,-484.16"/>
<polygon fill="black" stroke="black" points="1404.61,-485.88 1406.19,-475.4 1398.42,-482.61 1404.61,-485.88"/>
<text text-anchor="middle" x="1414.9" y="-494.63" font-family="Times New Roman,serif" font-size="14.00">filtered</text>
</g>
</g>
</svg>
