<?xml version="1.0" encoding="UTF-8" standalone="no"?>
<!DOCTYPE svg PUBLIC "-//W3C//DTD SVG 1.1//EN"
 "http://www.w3.org/Graphics/SVG/1.1/DTD/svg11.dtd">
<!-- Generated by graphviz version 12.0.0 (20240704.0754)
 -->
<!-- Title: Parser Pages: 1 -->
<svg width="1153pt" height="602pt"
 viewBox="0.00 0.00 1152.50 601.52" xmlns="http://www.w3.org/2000/svg" xmlns:xlink="http://www.w3.org/1999/xlink">
<g id="graph0" class="graph" transform="scale(1 1) rotate(0) translate(4 597.52)">
<title>Parser</title>
<polygon fill="white" stroke="none" points="-4,4 -4,-597.52 1148.5,-597.52 1148.5,4 -4,4"/>
<!-- Parser -->
<g id="node1" class="node">
<title>Parser</title>
<ellipse fill="none" stroke="black" cx="657.5" cy="-543.31" rx="121.62" ry="50.2"/>
<text text-anchor="middle" x="657.5" y="-561.51" font-family="Times New Roman,serif" font-size="14.00">Parser</text>
<text text-anchor="middle" x="657.5" y="-545.76" font-family="Times New Roman,serif" font-size="14.00">Input: &quot;a x c $&quot;</text>
<text text-anchor="middle" x="657.5" y="-530.01" font-family="Times New Roman,serif" font-size="14.00">Location: 4 (&#39;c&#39;)</text>
<text text-anchor="middle" x="657.5" y="-514.26" font-family="Times New Roman,serif" font-size="14.00">Step 27: Reducing terminals</text>
</g>
<!-- todoLists -->
<g id="node7" class="node">
<title>todoLists</title>
<polygon fill="none" stroke="black" points="0,-404.86 0,-440.86 493,-440.86 493,-404.86 0,-404.86"/>
<text text-anchor="middle" x="11.38" y="-417.43" font-family="Times New Roman,serif" font-size="14.00">0</text>
<polyline fill="none" stroke="black" points="22.75,-404.86 22.75,-440.86"/>
<text text-anchor="middle" x="34.12" y="-417.43" font-family="Times New Roman,serif" font-size="14.00">1</text>
<polyline fill="none" stroke="black" points="45.5,-404.86 45.5,-440.86"/>
<text text-anchor="middle" x="56.88" y="-417.43" font-family="Times New Roman,serif" font-size="14.00">2</text>
<polyline fill="none" stroke="black" points="68.25,-404.86 68.25,-440.86"/>
<text text-anchor="middle" x="79.62" y="-417.43" font-family="Times New Roman,serif" font-size="14.00">3</text>
<polyline fill="none" stroke="black" points="91,-404.86 91,-440.86"/>
<text text-anchor="middle" x="102.38" y="-417.43" font-family="Times New Roman,serif" font-size="14.00">4</text>
<polyline fill="none" stroke="black" points="113.75,-404.86 113.75,-440.86"/>
<text text-anchor="middle" x="125.12" y="-417.43" font-family="Times New Roman,serif" font-size="14.00">5</text>
<polyline fill="none" stroke="black" points="136.5,-404.86 136.5,-440.86"/>
<text text-anchor="middle" x="147.88" y="-417.43" font-family="Times New Roman,serif" font-size="14.00">6</text>
<polyline fill="none" stroke="black" points="159.25,-404.86 159.25,-440.86"/>
<text text-anchor="middle" x="170.62" y="-417.43" font-family="Times New Roman,serif" font-size="14.00">7</text>
<polyline fill="none" stroke="black" points="182,-404.86 182,-440.86"/>
<text text-anchor="middle" x="193.38" y="-417.43" font-family="Times New Roman,serif" font-size="14.00">8</text>
<polyline fill="none" stroke="black" points="204.75,-404.86 204.75,-440.86"/>
<text text-anchor="middle" x="216.12" y="-417.43" font-family="Times New Roman,serif" font-size="14.00">9</text>
<polyline fill="none" stroke="black" points="227.5,-404.86 227.5,-440.86"/>
<text text-anchor="middle" x="242.25" y="-417.43" font-family="Times New Roman,serif" font-size="14.00">10</text>
<polyline fill="none" stroke="black" points="257,-404.86 257,-440.86"/>
<text text-anchor="middle" x="271.75" y="-417.43" font-family="Times New Roman,serif" font-size="14.00">11</text>
<polyline fill="none" stroke="black" points="286.5,-404.86 286.5,-440.86"/>
<text text-anchor="middle" x="301.25" y="-417.43" font-family="Times New Roman,serif" font-size="14.00">12</text>
<polyline fill="none" stroke="black" points="316,-404.86 316,-440.86"/>
<text text-anchor="middle" x="330.75" y="-417.43" font-family="Times New Roman,serif" font-size="14.00">13</text>
<polyline fill="none" stroke="black" points="345.5,-404.86 345.5,-440.86"/>
<text text-anchor="middle" x="360.25" y="-417.43" font-family="Times New Roman,serif" font-size="14.00">14</text>
<polyline fill="none" stroke="black" points="375,-404.86 375,-440.86"/>
<text text-anchor="middle" x="389.75" y="-417.43" font-family="Times New Roman,serif" font-size="14.00">15</text>
<polyline fill="none" stroke="black" points="404.5,-404.86 404.5,-440.86"/>
<text text-anchor="middle" x="419.25" y="-417.43" font-family="Times New Roman,serif" font-size="14.00">16</text>
<polyline fill="none" stroke="black" points="434,-404.86 434,-440.86"/>
<text text-anchor="middle" x="448.75" y="-417.43" font-family="Times New Roman,serif" font-size="14.00">17</text>
<polyline fill="none" stroke="black" points="463.5,-404.86 463.5,-440.86"/>
<text text-anchor="middle" x="478.25" y="-417.43" font-family="Times New Roman,serif" font-size="14.00">18</text>
</g>
<!-- Parser&#45;&gt;todoLists -->
<g id="edge6" class="edge">
<title>Parser&#45;&gt;todoLists</title>
<path fill="none" stroke="black" d="M558.53,-513.79C484.28,-492.39 384.38,-463.6 317.83,-444.42"/>
<polygon fill="black" stroke="black" points="319.07,-441.13 308.49,-441.73 317.13,-447.86 319.07,-441.13"/>
<text text-anchor="middle" x="441.38" y="-461.81" font-family="Times New Roman,serif" font-size="14.00">todo lists</text>
</g>
<!-- stacksToExpand -->
<g id="node8" class="node">
<title>stacksToExpand</title>
<polygon fill="none" stroke="black" points="653.5,-404.86 653.5,-440.86 707.5,-440.86 707.5,-404.86 653.5,-404.86"/>
<text text-anchor="middle" x="680.38" y="-417.43" font-family="Times New Roman,serif" font-size="14.00"> </text>
</g>
<!-- Parser&#45;&gt;stacksToExpand -->
<g id="edge7" class="edge">
<title>Parser&#45;&gt;stacksToExpand</title>
<path fill="none" stroke="black" d="M654.16,-492.99C654.56,-481.76 655.92,-470.01 659,-459.36 659.81,-456.57 660.89,-453.78 662.14,-451.06"/>
<polygon fill="black" stroke="black" points="665.16,-452.84 666.88,-442.39 659.01,-449.49 665.16,-452.84"/>
<text text-anchor="middle" x="706.75" y="-461.81" font-family="Times New Roman,serif" font-size="14.00">stacks to expand</text>
</g>
<!-- terminalsToReduce -->
<g id="node9" class="node">
<title>terminalsToReduce</title>
<polygon fill="none" stroke="red" points="416.5,-316.11 416.5,-352.11 470.5,-352.11 470.5,-316.11 416.5,-316.11"/>
<text text-anchor="middle" x="443.38" y="-328.68" font-family="Times New Roman,serif" font-size="14.00">0</text>
</g>
<!-- Parser&#45;&gt;terminalsToReduce -->
<g id="edge10" class="edge">
<title>Parser&#45;&gt;terminalsToReduce</title>
<path fill="none" stroke="black" d="M602.35,-498.07C581.84,-480.95 558.72,-460.81 538.75,-441.36 512.04,-415.34 483.82,-383.19 465.09,-361.12"/>
<polygon fill="black" stroke="black" points="467.77,-358.87 458.65,-353.47 462.42,-363.38 467.77,-358.87"/>
<text text-anchor="middle" x="592.38" y="-417.43" font-family="Times New Roman,serif" font-size="14.00">terminals to reduce</text>
</g>
<!-- nonTerminalsToReduce -->
<g id="node10" class="node">
<title>nonTerminalsToReduce</title>
<polygon fill="none" stroke="black" points="748.5,-404.86 748.5,-440.86 802.5,-440.86 802.5,-404.86 748.5,-404.86"/>
<text text-anchor="middle" x="775.38" y="-417.43" font-family="Times New Roman,serif" font-size="14.00"> </text>
</g>
<!-- Parser&#45;&gt;nonTerminalsToReduce -->
<g id="edge11" class="edge">
<title>Parser&#45;&gt;nonTerminalsToReduce</title>
<path fill="none" stroke="black" d="M726.12,-501.5C736.12,-493.59 745.67,-484.74 753.5,-475.11 759.04,-468.29 763.42,-459.87 766.76,-451.83"/>
<polygon fill="black" stroke="black" points="769.95,-453.31 770.16,-442.72 763.39,-450.87 769.95,-453.31"/>
<text text-anchor="middle" x="828.12" y="-461.81" font-family="Times New Roman,serif" font-size="14.00">non&#45;terminals to reduce</text>
</g>
<!-- error -->
<g id="node15" class="node">
<title>error</title>
<ellipse fill="none" stroke="black" cx="929.5" cy="-422.86" rx="34.1" ry="18"/>
<text text-anchor="middle" x="929.5" y="-417.43" font-family="Times New Roman,serif" font-size="14.00">Errors</text>
</g>
<!-- Parser&#45;&gt;error -->
<g id="edge12" class="edge">
<title>Parser&#45;&gt;error</title>
<path fill="none" stroke="black" d="M773.68,-527.69C815.79,-518 861.74,-501.89 897.5,-475.11 905.83,-468.87 912.51,-459.77 917.56,-450.97"/>
<polygon fill="black" stroke="black" points="920.56,-452.79 922.06,-442.3 914.35,-449.56 920.56,-452.79"/>
<text text-anchor="middle" x="949" y="-461.81" font-family="Times New Roman,serif" font-size="14.00">error tracking</text>
</g>
<!-- todo&#45;1 -->
<g id="node2" class="node">
<title>todo&#45;1</title>
<polygon fill="none" stroke="black" points="265.5,-316.11 265.5,-352.11 319.5,-352.11 319.5,-316.11 265.5,-316.11"/>
<text text-anchor="middle" x="292.38" y="-328.68" font-family="Times New Roman,serif" font-size="14.00">0</text>
</g>
<!-- 92 -->
<g id="node3" class="node">
<title>92</title>
<ellipse fill="none" stroke="black" cx="265.5" cy="-224.79" rx="124.8" ry="39.07"/>
<text text-anchor="middle" x="265.5" y="-235.12" font-family="Times New Roman,serif" font-size="14.00">Char: </text>
<text text-anchor="middle" x="265.5" y="-219.37" font-family="Times New Roman,serif" font-size="14.00">.0@3</text>
<text text-anchor="middle" x="265.5" y="-203.62" font-family="Times New Roman,serif" font-size="14.00">in: &#39;Layout &#45;&gt; [range(32,32)]&#39;</text>
</g>
<!-- todo&#45;1&#45;&gt;92 -->
<g id="edge3" class="edge">
<title>todo&#45;1:sw&#45;&gt;92</title>
<path fill="none" stroke="black" d="M265.5,-315.61C255.04,-305.15 252.33,-290.12 253.07,-275.33"/>
<polygon fill="black" stroke="black" points="256.52,-275.97 254.07,-265.66 249.56,-275.25 256.52,-275.97"/>
<text text-anchor="middle" x="271.25" y="-284.31" font-family="Times New Roman,serif" font-size="14.00">Stack</text>
</g>
<!-- 858267892 -->
<g id="node6" class="node">
<title>858267892</title>
<polygon fill="none" stroke="black" points="531.11,-212.27 531.11,-237.31 495.02,-255.02 443.98,-255.02 407.89,-237.31 407.89,-212.27 443.98,-194.56 495.02,-194.56 531.11,-212.27"/>
<text text-anchor="middle" x="469.5" y="-227.24" font-family="Times New Roman,serif" font-size="14.00">Char</text>
<text text-anchor="middle" x="469.5" y="-211.49" font-family="Times New Roman,serif" font-size="14.00">char=32(&#39; &#39;)</text>
</g>
<!-- todo&#45;1&#45;&gt;858267892 -->
<g id="edge4" class="edge">
<title>todo&#45;1:se&#45;&gt;858267892</title>
<path fill="none" stroke="black" d="M319.25,-315.61C333.97,-300.88 334.36,-293.31 351.75,-281.86 370.69,-269.38 378.88,-273.3 399.5,-263.86 406.26,-260.76 413.27,-257.29 420.12,-253.73"/>
<polygon fill="black" stroke="black" points="421.47,-256.98 428.67,-249.21 418.19,-250.79 421.47,-256.98"/>
<text text-anchor="middle" x="367.88" y="-284.31" font-family="Times New Roman,serif" font-size="14.00">Node</text>
</g>
<!-- 36 -->
<g id="node4" class="node">
<title>36</title>
<ellipse fill="none" stroke="black" cx="265.5" cy="-120.79" rx="95.11" ry="27.93"/>
<text text-anchor="middle" x="265.5" y="-123.24" font-family="Times New Roman,serif" font-size="14.00">NonTerminal: Layout</text>
<text text-anchor="middle" x="265.5" y="-107.49" font-family="Times New Roman,serif" font-size="14.00">.1@3</text>
</g>
<!-- 92&#45;&gt;36 -->
<g id="edge2" class="edge">
<title>92&#45;&gt;36</title>
<path fill="none" stroke="black" d="M265.5,-185.23C265.5,-177.12 265.5,-168.56 265.5,-160.44"/>
<polygon fill="black" stroke="black" points="269,-160.49 265.5,-150.49 262,-160.49 269,-160.49"/>
</g>
<!-- &#45;1 -->
<g id="node5" class="node">
<title>&#45;1</title>
<ellipse fill="none" stroke="black" cx="265.5" cy="-27.93" rx="73.36" ry="27.93"/>
<text text-anchor="middle" x="265.5" y="-30.38" font-family="Times New Roman,serif" font-size="14.00">NonTerminal: S</text>
<text text-anchor="middle" x="265.5" y="-14.63" font-family="Times New Roman,serif" font-size="14.00">.0@&#45;1</text>
</g>
<!-- 36&#45;&gt;&#45;1 -->
<g id="edge1" class="edge">
<title>36&#45;&gt;&#45;1</title>
<path fill="none" stroke="black" d="M265.5,-92.53C265.5,-84.71 265.5,-76.04 265.5,-67.67"/>
<polygon fill="black" stroke="black" points="269,-67.69 265.5,-57.69 262,-67.69 269,-67.69"/>
</g>
<!-- todoLists&#45;&gt;todo&#45;1 -->
<g id="edge5" class="edge">
<title>todoLists:1&#45;&gt;todo&#45;1</title>
<path fill="none" stroke="black" d="M34.12,-404.36C34.12,-359.38 182.07,-342.82 254.06,-337.42"/>
<polygon fill="black" stroke="black" points="254.1,-340.93 263.83,-336.73 253.61,-333.95 254.1,-340.93"/>
</g>
<!-- terminalsToReduce&#45;&gt;92 -->
<g id="edge8" class="edge">
<title>terminalsToReduce:sw&#45;&gt;92</title>
<path fill="none" stroke="black" d="M416.5,-315.61C401.44,-300.55 399.9,-294.13 382.5,-281.86 372.25,-274.63 360.92,-267.89 349.47,-261.77"/>
<polygon fill="black" stroke="black" points="351.24,-258.75 340.75,-257.26 348.02,-264.96 351.24,-258.75"/>
<text text-anchor="middle" x="416.25" y="-284.31" font-family="Times New Roman,serif" font-size="14.00">Stack</text>
</g>
<!-- terminalsToReduce&#45;&gt;858267892 -->
<g id="edge9" class="edge">
<title>terminalsToReduce:se&#45;&gt;858267892</title>
<path fill="none" stroke="black" d="M470.25,-315.61C482.82,-303.04 484.05,-283.84 481.54,-266.42"/>
<polygon fill="black" stroke="black" points="485.02,-265.98 479.71,-256.81 478.14,-267.28 485.02,-265.98"/>
<text text-anchor="middle" x="498.88" y="-284.31" font-family="Times New Roman,serif" font-size="14.00">Node</text>
</g>
<!-- unexpandableNodes -->
<g id="node11" class="node">
<title>unexpandableNodes</title>
<polygon fill="none" stroke="black" points="938.5,-316.11 938.5,-352.11 992.5,-352.11 992.5,-316.11 938.5,-316.11"/>
<text text-anchor="middle" x="965.38" y="-328.68" font-family="Times New Roman,serif" font-size="14.00"> </text>
</g>
<!-- unmatchableLeafNodes -->
<g id="node12" class="node">
<title>unmatchableLeafNodes</title>
<polygon fill="none" stroke="black" points="1035.5,-316.11 1035.5,-352.11 1089.5,-352.11 1089.5,-316.11 1035.5,-316.11"/>
<text text-anchor="middle" x="1062.38" y="-328.68" font-family="Times New Roman,serif" font-size="14.00"> </text>
</g>
<!-- unmatchableMidProductionNodes -->
<g id="node13" class="node">
<title>unmatchableMidProductionNodes</title>
<polygon fill="none" stroke="black" points="720.5,-316.11 720.5,-352.11 774.5,-352.11 774.5,-316.11 720.5,-316.11"/>
<text text-anchor="middle" x="747.38" y="-328.68" font-family="Times New Roman,serif" font-size="14.00"> </text>
</g>
<!-- filteredNodes -->
<g id="node14" class="node">
<title>filteredNodes</title>
<polygon fill="none" stroke="black" points="866.5,-316.11 866.5,-352.11 920.5,-352.11 920.5,-316.11 866.5,-316.11"/>
<text text-anchor="middle" x="893.38" y="-328.68" font-family="Times New Roman,serif" font-size="14.00"> </text>
</g>
<!-- error&#45;&gt;unexpandableNodes -->
<g id="edge13" class="edge">
<title>error&#45;&gt;unexpandableNodes</title>
<path fill="none" stroke="black" d="M936.44,-405.13C941.41,-393.17 948.21,-376.78 953.98,-362.87"/>
<polygon fill="black" stroke="black" points="957.15,-364.35 957.75,-353.77 950.69,-361.67 957.15,-364.35"/>
<text text-anchor="middle" x="988.75" y="-373.06" font-family="Times New Roman,serif" font-size="14.00">unexpandable</text>
</g>
<!-- error&#45;&gt;unmatchableLeafNodes -->
<g id="edge14" class="edge">
<title>error&#45;&gt;unmatchableLeafNodes</title>
<path fill="none" stroke="black" d="M961.72,-416.57C983.32,-411.69 1011.39,-402.65 1031.5,-386.36 1039.31,-380.03 1045.65,-371.17 1050.5,-362.6"/>
<polygon fill="black" stroke="black" points="1053.56,-364.31 1055,-353.81 1047.33,-361.12 1053.56,-364.31"/>
<text text-anchor="middle" x="1095" y="-373.06" font-family="Times New Roman,serif" font-size="14.00">unmatchable leafs</text>
</g>
<!-- error&#45;&gt;unmatchableMidProductionNodes -->
<g id="edge15" class="edge">
<title>error&#45;&gt;unmatchableMidProductionNodes</title>
<path fill="none" stroke="black" d="M896.26,-418.39C854.38,-413.4 785.58,-402.93 766.5,-386.36 759.63,-380.39 755.23,-371.69 752.43,-363.15"/>
<polygon fill="black" stroke="black" points="755.88,-362.52 749.97,-353.73 749.11,-364.29 755.88,-362.52"/>
<text text-anchor="middle" x="829.5" y="-373.06" font-family="Times New Roman,serif" font-size="14.00">unmatchable mid&#45;prod</text>
</g>
<!-- error&#45;&gt;filteredNodes -->
<g id="edge16" class="edge">
<title>error&#45;&gt;filteredNodes</title>
<path fill="none" stroke="black" d="M914.32,-406.42C909.4,-400.57 904.4,-393.58 901.25,-386.36 898.18,-379.32 896.3,-371.28 895.15,-363.69"/>
<polygon fill="black" stroke="black" points="898.64,-363.4 894.05,-353.84 891.68,-364.17 898.64,-363.4"/>
<text text-anchor="middle" x="919.62" y="-373.06" font-family="Times New Roman,serif" font-size="14.00">filtered</text>
</g>
</g>
</svg>
