<?xml version="1.0" encoding="UTF-8" standalone="no"?>
<!DOCTYPE svg PUBLIC "-//W3C//DTD SVG 1.1//EN"
 "http://www.w3.org/Graphics/SVG/1.1/DTD/svg11.dtd">
<!-- Generated by graphviz version 12.0.0 (20240704.0754)
 -->
<!-- Title: Parser Pages: 1 -->
<svg width="1356pt" height="402pt"
 viewBox="0.00 0.00 1355.50 402.23" xmlns="http://www.w3.org/2000/svg" xmlns:xlink="http://www.w3.org/1999/xlink">
<g id="graph0" class="graph" transform="scale(1 1) rotate(0) translate(4 398.23)">
<title>Parser</title>
<polygon fill="white" stroke="none" points="-4,4 -4,-398.23 1351.5,-398.23 1351.5,4 -4,4"/>
<!-- Parser -->
<g id="node1" class="node">
<title>Parser</title>
<ellipse fill="none" stroke="black" cx="656.5" cy="-344.03" rx="139.65" ry="50.2"/>
<text text-anchor="middle" x="656.5" y="-362.23" font-family="Times New Roman,serif" font-size="14.00">Parser</text>
<text text-anchor="middle" x="656.5" y="-346.48" font-family="Times New Roman,serif" font-size="14.00">Input: &quot;a x c $&quot;</text>
<text text-anchor="middle" x="656.5" y="-330.73" font-family="Times New Roman,serif" font-size="14.00">Location: 4 (&#39;c&#39;)</text>
<text text-anchor="middle" x="656.5" y="-314.98" font-family="Times New Roman,serif" font-size="14.00">Step 28: Reducing non&#45;terminals</text>
</g>
<!-- todoLists -->
<g id="node2" class="node">
<title>todoLists</title>
<polygon fill="none" stroke="black" points="0,-205.58 0,-241.58 493,-241.58 493,-205.58 0,-205.58"/>
<text text-anchor="middle" x="11.38" y="-218.15" font-family="Times New Roman,serif" font-size="14.00">0</text>
<polyline fill="none" stroke="black" points="22.75,-205.58 22.75,-241.58"/>
<text text-anchor="middle" x="34.12" y="-218.15" font-family="Times New Roman,serif" font-size="14.00">1</text>
<polyline fill="none" stroke="black" points="45.5,-205.58 45.5,-241.58"/>
<text text-anchor="middle" x="56.88" y="-218.15" font-family="Times New Roman,serif" font-size="14.00">2</text>
<polyline fill="none" stroke="black" points="68.25,-205.58 68.25,-241.58"/>
<text text-anchor="middle" x="79.62" y="-218.15" font-family="Times New Roman,serif" font-size="14.00">3</text>
<polyline fill="none" stroke="black" points="91,-205.58 91,-241.58"/>
<text text-anchor="middle" x="102.38" y="-218.15" font-family="Times New Roman,serif" font-size="14.00">4</text>
<polyline fill="none" stroke="black" points="113.75,-205.58 113.75,-241.58"/>
<text text-anchor="middle" x="125.12" y="-218.15" font-family="Times New Roman,serif" font-size="14.00">5</text>
<polyline fill="none" stroke="black" points="136.5,-205.58 136.5,-241.58"/>
<text text-anchor="middle" x="147.88" y="-218.15" font-family="Times New Roman,serif" font-size="14.00">6</text>
<polyline fill="none" stroke="black" points="159.25,-205.58 159.25,-241.58"/>
<text text-anchor="middle" x="170.62" y="-218.15" font-family="Times New Roman,serif" font-size="14.00">7</text>
<polyline fill="none" stroke="black" points="182,-205.58 182,-241.58"/>
<text text-anchor="middle" x="193.38" y="-218.15" font-family="Times New Roman,serif" font-size="14.00">8</text>
<polyline fill="none" stroke="black" points="204.75,-205.58 204.75,-241.58"/>
<text text-anchor="middle" x="216.12" y="-218.15" font-family="Times New Roman,serif" font-size="14.00">9</text>
<polyline fill="none" stroke="black" points="227.5,-205.58 227.5,-241.58"/>
<text text-anchor="middle" x="242.25" y="-218.15" font-family="Times New Roman,serif" font-size="14.00">10</text>
<polyline fill="none" stroke="black" points="257,-205.58 257,-241.58"/>
<text text-anchor="middle" x="271.75" y="-218.15" font-family="Times New Roman,serif" font-size="14.00">11</text>
<polyline fill="none" stroke="black" points="286.5,-205.58 286.5,-241.58"/>
<text text-anchor="middle" x="301.25" y="-218.15" font-family="Times New Roman,serif" font-size="14.00">12</text>
<polyline fill="none" stroke="black" points="316,-205.58 316,-241.58"/>
<text text-anchor="middle" x="330.75" y="-218.15" font-family="Times New Roman,serif" font-size="14.00">13</text>
<polyline fill="none" stroke="black" points="345.5,-205.58 345.5,-241.58"/>
<text text-anchor="middle" x="360.25" y="-218.15" font-family="Times New Roman,serif" font-size="14.00">14</text>
<polyline fill="none" stroke="black" points="375,-205.58 375,-241.58"/>
<text text-anchor="middle" x="389.75" y="-218.15" font-family="Times New Roman,serif" font-size="14.00">15</text>
<polyline fill="none" stroke="black" points="404.5,-205.58 404.5,-241.58"/>
<text text-anchor="middle" x="419.25" y="-218.15" font-family="Times New Roman,serif" font-size="14.00">16</text>
<polyline fill="none" stroke="black" points="434,-205.58 434,-241.58"/>
<text text-anchor="middle" x="448.75" y="-218.15" font-family="Times New Roman,serif" font-size="14.00">17</text>
<polyline fill="none" stroke="black" points="463.5,-205.58 463.5,-241.58"/>
<text text-anchor="middle" x="478.25" y="-218.15" font-family="Times New Roman,serif" font-size="14.00">18</text>
</g>
<!-- Parser&#45;&gt;todoLists -->
<g id="edge1" class="edge">
<title>Parser&#45;&gt;todoLists</title>
<path fill="none" stroke="black" d="M548.51,-311.83C475.51,-290.74 381.17,-263.48 317.51,-245.09"/>
<polygon fill="black" stroke="black" points="318.82,-241.83 308.24,-242.41 316.87,-248.55 318.82,-241.83"/>
<text text-anchor="middle" x="441.38" y="-262.53" font-family="Times New Roman,serif" font-size="14.00">todo lists</text>
</g>
<!-- stacksToExpand -->
<g id="node3" class="node">
<title>stacksToExpand</title>
<polygon fill="none" stroke="black" points="511.5,-205.58 511.5,-241.58 565.5,-241.58 565.5,-205.58 511.5,-205.58"/>
<text text-anchor="middle" x="538.38" y="-218.15" font-family="Times New Roman,serif" font-size="14.00"> </text>
</g>
<!-- Parser&#45;&gt;stacksToExpand -->
<g id="edge2" class="edge">
<title>Parser&#45;&gt;stacksToExpand</title>
<path fill="none" stroke="black" d="M583.72,-301.13C574.24,-293.56 565.31,-285.09 558,-275.83 552.71,-269.12 548.73,-260.82 545.8,-252.87"/>
<polygon fill="black" stroke="black" points="549.18,-251.94 542.78,-243.5 542.52,-254.09 549.18,-251.94"/>
<text text-anchor="middle" x="605.75" y="-262.53" font-family="Times New Roman,serif" font-size="14.00">stacks to expand</text>
</g>
<!-- terminalsToReduce -->
<g id="node4" class="node">
<title>terminalsToReduce</title>
<polygon fill="none" stroke="black" points="629.5,-205.58 629.5,-241.58 683.5,-241.58 683.5,-205.58 629.5,-205.58"/>
<text text-anchor="middle" x="656.38" y="-218.15" font-family="Times New Roman,serif" font-size="14.00"> </text>
</g>
<!-- Parser&#45;&gt;terminalsToReduce -->
<g id="edge3" class="edge">
<title>Parser&#45;&gt;terminalsToReduce</title>
<path fill="none" stroke="black" d="M656.5,-293.48C656.5,-279.69 656.5,-265.18 656.5,-253.06"/>
<polygon fill="black" stroke="black" points="660,-253.35 656.5,-243.35 653,-253.35 660,-253.35"/>
<text text-anchor="middle" x="709.38" y="-262.53" font-family="Times New Roman,serif" font-size="14.00">terminals to reduce</text>
</g>
<!-- nonTerminalsToReduce -->
<g id="node5" class="node">
<title>nonTerminalsToReduce</title>
<polygon fill="none" stroke="red" points="729.5,-205.58 729.5,-241.58 783.5,-241.58 783.5,-205.58 729.5,-205.58"/>
<text text-anchor="middle" x="756.38" y="-218.15" font-family="Times New Roman,serif" font-size="14.00">0</text>
</g>
<!-- Parser&#45;&gt;nonTerminalsToReduce -->
<g id="edge7" class="edge">
<title>Parser&#45;&gt;nonTerminalsToReduce</title>
<path fill="none" stroke="black" d="M740.01,-303.33C749.4,-295.51 757.66,-286.38 763.5,-275.83 767.35,-268.86 767.7,-260.56 766.5,-252.7"/>
<polygon fill="black" stroke="black" points="769.95,-252.08 764.22,-243.17 763.14,-253.71 769.95,-252.08"/>
<text text-anchor="middle" x="833.12" y="-262.53" font-family="Times New Roman,serif" font-size="14.00">non&#45;terminals to reduce</text>
</g>
<!-- error -->
<g id="node13" class="node">
<title>error</title>
<ellipse fill="none" stroke="black" cx="1049.5" cy="-223.58" rx="34.1" ry="18"/>
<text text-anchor="middle" x="1049.5" y="-218.15" font-family="Times New Roman,serif" font-size="14.00">Errors</text>
</g>
<!-- Parser&#45;&gt;error -->
<g id="edge8" class="edge">
<title>Parser&#45;&gt;error</title>
<path fill="none" stroke="black" d="M769.02,-314.03C811.09,-302.74 859.16,-289.28 902.5,-275.83 939.81,-264.24 981.85,-249.4 1011.38,-238.67"/>
<polygon fill="black" stroke="black" points="1012.44,-242.01 1020.63,-235.3 1010.04,-235.44 1012.44,-242.01"/>
<text text-anchor="middle" x="984" y="-262.53" font-family="Times New Roman,serif" font-size="14.00">error tracking</text>
</g>
<!-- 36 -->
<g id="node6" class="node">
<title>36</title>
<ellipse fill="none" stroke="black" cx="546.5" cy="-123.09" rx="95.11" ry="27.93"/>
<text text-anchor="middle" x="546.5" y="-125.54" font-family="Times New Roman,serif" font-size="14.00">NonTerminal: Layout</text>
<text text-anchor="middle" x="546.5" y="-109.79" font-family="Times New Roman,serif" font-size="14.00">.1@3</text>
</g>
<!-- nonTerminalsToReduce&#45;&gt;36 -->
<g id="edge5" class="edge">
<title>nonTerminalsToReduce:sw&#45;&gt;36</title>
<path fill="none" stroke="black" d="M729.5,-205.08C701.78,-177.36 662.95,-158.34 628.18,-145.74"/>
<polygon fill="black" stroke="black" points="629.57,-142.52 618.97,-142.53 627.26,-149.13 629.57,-142.52"/>
<text text-anchor="middle" x="721.25" y="-173.78" font-family="Times New Roman,serif" font-size="14.00">Stack</text>
</g>
<!-- 1150436743 -->
<g id="node8" class="node">
<title>1150436743</title>
<polygon fill="none" stroke="black" points="904.96,-110.57 904.96,-135.62 833.22,-153.33 731.78,-153.33 660.04,-135.62 660.04,-110.57 731.78,-92.86 833.22,-92.86 904.96,-110.57"/>
<text text-anchor="middle" x="782.5" y="-125.54" font-family="Times New Roman,serif" font-size="14.00">SortContainer 3&#45;4</text>
<text text-anchor="middle" x="782.5" y="-109.79" font-family="Times New Roman,serif" font-size="14.00">&#39;Layout &#45;&gt; [range(32,32)]&#39;</text>
</g>
<!-- nonTerminalsToReduce&#45;&gt;1150436743 -->
<g id="edge6" class="edge">
<title>nonTerminalsToReduce:se&#45;&gt;1150436743</title>
<path fill="none" stroke="black" d="M783.25,-205.08C793.71,-194.62 795.44,-179.08 793.86,-164.41"/>
<polygon fill="black" stroke="black" points="797.38,-164.26 792.34,-154.94 790.47,-165.37 797.38,-164.26"/>
<text text-anchor="middle" x="809.88" y="-173.78" font-family="Times New Roman,serif" font-size="14.00">Node</text>
</g>
<!-- &#45;1 -->
<g id="node7" class="node">
<title>&#45;1</title>
<ellipse fill="none" stroke="black" cx="546.5" cy="-27.93" rx="73.36" ry="27.93"/>
<text text-anchor="middle" x="546.5" y="-30.38" font-family="Times New Roman,serif" font-size="14.00">NonTerminal: S</text>
<text text-anchor="middle" x="546.5" y="-14.63" font-family="Times New Roman,serif" font-size="14.00">.0@&#45;1</text>
</g>
<!-- 36&#45;&gt;&#45;1 -->
<g id="edge4" class="edge">
<title>36&#45;&gt;&#45;1</title>
<path fill="none" stroke="black" d="M546.5,-95.15C546.5,-86.53 546.5,-76.82 546.5,-67.54"/>
<polygon fill="black" stroke="black" points="550,-67.65 546.5,-57.65 543,-67.65 550,-67.65"/>
</g>
<!-- unexpandableNodes -->
<g id="node9" class="node">
<title>unexpandableNodes</title>
<polygon fill="none" stroke="black" points="922.5,-105.09 922.5,-141.09 976.5,-141.09 976.5,-105.09 922.5,-105.09"/>
<text text-anchor="middle" x="949.38" y="-117.67" font-family="Times New Roman,serif" font-size="14.00"> </text>
</g>
<!-- unmatchableLeafNodes -->
<g id="node10" class="node">
<title>unmatchableLeafNodes</title>
<polygon fill="none" stroke="black" points="1022.5,-105.09 1022.5,-141.09 1076.5,-141.09 1076.5,-105.09 1022.5,-105.09"/>
<text text-anchor="middle" x="1049.38" y="-117.67" font-family="Times New Roman,serif" font-size="14.00"> </text>
</g>
<!-- unmatchableMidProductionNodes -->
<g id="node11" class="node">
<title>unmatchableMidProductionNodes</title>
<polygon fill="none" stroke="black" points="1144.5,-105.09 1144.5,-141.09 1198.5,-141.09 1198.5,-105.09 1144.5,-105.09"/>
<text text-anchor="middle" x="1171.38" y="-117.67" font-family="Times New Roman,serif" font-size="14.00"> </text>
</g>
<!-- filteredNodes -->
<g id="node12" class="node">
<title>filteredNodes</title>
<polygon fill="none" stroke="black" points="1293.5,-105.09 1293.5,-141.09 1347.5,-141.09 1347.5,-105.09 1293.5,-105.09"/>
<text text-anchor="middle" x="1320.38" y="-117.67" font-family="Times New Roman,serif" font-size="14.00"> </text>
</g>
<!-- error&#45;&gt;unexpandableNodes -->
<g id="edge9" class="edge">
<title>error&#45;&gt;unexpandableNodes</title>
<path fill="none" stroke="black" d="M1018.61,-215.65C1001.82,-210.41 981.91,-201.56 969,-187.08 960.55,-177.59 955.76,-164.49 953.05,-152.69"/>
<polygon fill="black" stroke="black" points="956.51,-152.19 951.24,-143 949.63,-153.47 956.51,-152.19"/>
<text text-anchor="middle" x="1006.75" y="-173.78" font-family="Times New Roman,serif" font-size="14.00">unexpandable</text>
</g>
<!-- error&#45;&gt;unmatchableLeafNodes -->
<g id="edge10" class="edge">
<title>error&#45;&gt;unmatchableLeafNodes</title>
<path fill="none" stroke="black" d="M1049.5,-205.42C1049.5,-190.82 1049.5,-169.56 1049.5,-152.44"/>
<polygon fill="black" stroke="black" points="1053,-152.9 1049.5,-142.9 1046,-152.9 1053,-152.9"/>
<text text-anchor="middle" x="1099" y="-173.78" font-family="Times New Roman,serif" font-size="14.00">unmatchable leafs</text>
</g>
<!-- error&#45;&gt;unmatchableMidProductionNodes -->
<g id="edge11" class="edge">
<title>error&#45;&gt;unmatchableMidProductionNodes</title>
<path fill="none" stroke="black" d="M1082.22,-218.39C1103.91,-214.01 1131.57,-205.1 1149.5,-187.08 1158.72,-177.8 1164.09,-164.46 1167.21,-152.44"/>
<polygon fill="black" stroke="black" points="1170.56,-153.48 1169.24,-142.97 1163.72,-152.01 1170.56,-153.48"/>
<text text-anchor="middle" x="1222.5" y="-173.78" font-family="Times New Roman,serif" font-size="14.00">unmatchable mid&#45;prod</text>
</g>
<!-- error&#45;&gt;filteredNodes -->
<g id="edge12" class="edge">
<title>error&#45;&gt;filteredNodes</title>
<path fill="none" stroke="black" d="M1083.6,-221.37C1141.85,-218.7 1257.34,-210.53 1289.5,-187.08 1301.08,-178.63 1308.56,-164.66 1313.26,-152.02"/>
<polygon fill="black" stroke="black" points="1316.48,-153.46 1316.25,-142.87 1309.82,-151.29 1316.48,-153.46"/>
<text text-anchor="middle" x="1321.62" y="-173.78" font-family="Times New Roman,serif" font-size="14.00">filtered</text>
</g>
</g>
</svg>
