<?xml version="1.0" encoding="UTF-8" standalone="no"?>
<!DOCTYPE svg PUBLIC "-//W3C//DTD SVG 1.1//EN"
 "http://www.w3.org/Graphics/SVG/1.1/DTD/svg11.dtd">
<!-- Generated by graphviz version 12.0.0 (20240704.0754)
 -->
<!-- Title: Parser Pages: 1 -->
<svg width="1153pt" height="420pt"
 viewBox="0.00 0.00 1152.50 419.91" xmlns="http://www.w3.org/2000/svg" xmlns:xlink="http://www.w3.org/1999/xlink">
<g id="graph0" class="graph" transform="scale(1 1) rotate(0) translate(4 415.91)">
<title>Parser</title>
<polygon fill="white" stroke="none" points="-4,4 -4,-415.91 1148.5,-415.91 1148.5,4 -4,4"/>
<!-- Parser -->
<g id="node1" class="node">
<title>Parser</title>
<ellipse fill="none" stroke="black" cx="633.5" cy="-361.7" rx="88.21" ry="50.2"/>
<text text-anchor="middle" x="633.5" y="-379.9" font-family="Times New Roman,serif" font-size="14.00">Parser</text>
<text text-anchor="middle" x="633.5" y="-364.15" font-family="Times New Roman,serif" font-size="14.00">Input: &quot;a x c $&quot;</text>
<text text-anchor="middle" x="633.5" y="-348.4" font-family="Times New Roman,serif" font-size="14.00">Location: 4 (&#39;c&#39;)</text>
<text text-anchor="middle" x="633.5" y="-332.65" font-family="Times New Roman,serif" font-size="14.00">Step 29: Expanding</text>
</g>
<!-- todoLists -->
<g id="node2" class="node">
<title>todoLists</title>
<polygon fill="none" stroke="black" points="0,-223.25 0,-259.25 493,-259.25 493,-223.25 0,-223.25"/>
<text text-anchor="middle" x="11.38" y="-235.82" font-family="Times New Roman,serif" font-size="14.00">0</text>
<polyline fill="none" stroke="black" points="22.75,-223.25 22.75,-259.25"/>
<text text-anchor="middle" x="34.12" y="-235.82" font-family="Times New Roman,serif" font-size="14.00">1</text>
<polyline fill="none" stroke="black" points="45.5,-223.25 45.5,-259.25"/>
<text text-anchor="middle" x="56.88" y="-235.82" font-family="Times New Roman,serif" font-size="14.00">2</text>
<polyline fill="none" stroke="black" points="68.25,-223.25 68.25,-259.25"/>
<text text-anchor="middle" x="79.62" y="-235.82" font-family="Times New Roman,serif" font-size="14.00">3</text>
<polyline fill="none" stroke="black" points="91,-223.25 91,-259.25"/>
<text text-anchor="middle" x="102.38" y="-235.82" font-family="Times New Roman,serif" font-size="14.00">4</text>
<polyline fill="none" stroke="black" points="113.75,-223.25 113.75,-259.25"/>
<text text-anchor="middle" x="125.12" y="-235.82" font-family="Times New Roman,serif" font-size="14.00">5</text>
<polyline fill="none" stroke="black" points="136.5,-223.25 136.5,-259.25"/>
<text text-anchor="middle" x="147.88" y="-235.82" font-family="Times New Roman,serif" font-size="14.00">6</text>
<polyline fill="none" stroke="black" points="159.25,-223.25 159.25,-259.25"/>
<text text-anchor="middle" x="170.62" y="-235.82" font-family="Times New Roman,serif" font-size="14.00">7</text>
<polyline fill="none" stroke="black" points="182,-223.25 182,-259.25"/>
<text text-anchor="middle" x="193.38" y="-235.82" font-family="Times New Roman,serif" font-size="14.00">8</text>
<polyline fill="none" stroke="black" points="204.75,-223.25 204.75,-259.25"/>
<text text-anchor="middle" x="216.12" y="-235.82" font-family="Times New Roman,serif" font-size="14.00">9</text>
<polyline fill="none" stroke="black" points="227.5,-223.25 227.5,-259.25"/>
<text text-anchor="middle" x="242.25" y="-235.82" font-family="Times New Roman,serif" font-size="14.00">10</text>
<polyline fill="none" stroke="black" points="257,-223.25 257,-259.25"/>
<text text-anchor="middle" x="271.75" y="-235.82" font-family="Times New Roman,serif" font-size="14.00">11</text>
<polyline fill="none" stroke="black" points="286.5,-223.25 286.5,-259.25"/>
<text text-anchor="middle" x="301.25" y="-235.82" font-family="Times New Roman,serif" font-size="14.00">12</text>
<polyline fill="none" stroke="black" points="316,-223.25 316,-259.25"/>
<text text-anchor="middle" x="330.75" y="-235.82" font-family="Times New Roman,serif" font-size="14.00">13</text>
<polyline fill="none" stroke="black" points="345.5,-223.25 345.5,-259.25"/>
<text text-anchor="middle" x="360.25" y="-235.82" font-family="Times New Roman,serif" font-size="14.00">14</text>
<polyline fill="none" stroke="black" points="375,-223.25 375,-259.25"/>
<text text-anchor="middle" x="389.75" y="-235.82" font-family="Times New Roman,serif" font-size="14.00">15</text>
<polyline fill="none" stroke="black" points="404.5,-223.25 404.5,-259.25"/>
<text text-anchor="middle" x="419.25" y="-235.82" font-family="Times New Roman,serif" font-size="14.00">16</text>
<polyline fill="none" stroke="black" points="434,-223.25 434,-259.25"/>
<text text-anchor="middle" x="448.75" y="-235.82" font-family="Times New Roman,serif" font-size="14.00">17</text>
<polyline fill="none" stroke="black" points="463.5,-223.25 463.5,-259.25"/>
<text text-anchor="middle" x="478.25" y="-235.82" font-family="Times New Roman,serif" font-size="14.00">18</text>
</g>
<!-- Parser&#45;&gt;todoLists -->
<g id="edge1" class="edge">
<title>Parser&#45;&gt;todoLists</title>
<path fill="none" stroke="black" d="M556.11,-337.01C485.49,-315.4 382.12,-283.76 314.57,-263.08"/>
<polygon fill="black" stroke="black" points="315.67,-259.76 305.09,-260.18 313.62,-266.45 315.67,-259.76"/>
<text text-anchor="middle" x="431.38" y="-280.2" font-family="Times New Roman,serif" font-size="14.00">todo lists</text>
</g>
<!-- stacksToExpand -->
<g id="node5" class="node">
<title>stacksToExpand</title>
<polygon fill="none" stroke="red" points="511.5,-223.25 511.5,-259.25 565.5,-259.25 565.5,-223.25 511.5,-223.25"/>
<text text-anchor="middle" x="538.38" y="-235.82" font-family="Times New Roman,serif" font-size="14.00">0</text>
</g>
<!-- Parser&#45;&gt;stacksToExpand -->
<g id="edge4" class="edge">
<title>Parser&#45;&gt;stacksToExpand</title>
<path fill="none" stroke="black" d="M566.79,-328.38C554.02,-318.98 542.35,-307.41 535,-293.5 531.35,-286.58 530.61,-278.4 531.21,-270.62"/>
<polygon fill="black" stroke="black" points="534.66,-271.26 532.73,-260.84 527.74,-270.19 534.66,-271.26"/>
<text text-anchor="middle" x="582.75" y="-280.2" font-family="Times New Roman,serif" font-size="14.00">stacks to expand</text>
</g>
<!-- terminalsToReduce -->
<g id="node6" class="node">
<title>terminalsToReduce</title>
<polygon fill="none" stroke="black" points="606.5,-223.25 606.5,-259.25 660.5,-259.25 660.5,-223.25 606.5,-223.25"/>
<text text-anchor="middle" x="633.38" y="-235.82" font-family="Times New Roman,serif" font-size="14.00"> </text>
</g>
<!-- Parser&#45;&gt;terminalsToReduce -->
<g id="edge5" class="edge">
<title>Parser&#45;&gt;terminalsToReduce</title>
<path fill="none" stroke="black" d="M633.5,-311.15C633.5,-297.36 633.5,-282.85 633.5,-270.73"/>
<polygon fill="black" stroke="black" points="637,-271.02 633.5,-261.02 630,-271.02 637,-271.02"/>
<text text-anchor="middle" x="686.38" y="-280.2" font-family="Times New Roman,serif" font-size="14.00">terminals to reduce</text>
</g>
<!-- nonTerminalsToReduce -->
<g id="node7" class="node">
<title>nonTerminalsToReduce</title>
<polygon fill="none" stroke="black" points="735.5,-223.25 735.5,-259.25 789.5,-259.25 789.5,-223.25 735.5,-223.25"/>
<text text-anchor="middle" x="762.38" y="-235.82" font-family="Times New Roman,serif" font-size="14.00"> </text>
</g>
<!-- Parser&#45;&gt;nonTerminalsToReduce -->
<g id="edge6" class="edge">
<title>Parser&#45;&gt;nonTerminalsToReduce</title>
<path fill="none" stroke="black" d="M699.51,-327.99C714.36,-318.39 729.09,-306.83 740.5,-293.5 746.3,-286.72 750.77,-278.18 754.13,-270.03"/>
<polygon fill="black" stroke="black" points="757.36,-271.37 757.5,-260.78 750.79,-268.97 757.36,-271.37"/>
<text text-anchor="middle" x="815.12" y="-280.2" font-family="Times New Roman,serif" font-size="14.00">non&#45;terminals to reduce</text>
</g>
<!-- error -->
<g id="node12" class="node">
<title>error</title>
<ellipse fill="none" stroke="black" cx="916.5" cy="-241.25" rx="34.1" ry="18"/>
<text text-anchor="middle" x="916.5" y="-235.82" font-family="Times New Roman,serif" font-size="14.00">Errors</text>
</g>
<!-- Parser&#45;&gt;error -->
<g id="edge7" class="edge">
<title>Parser&#45;&gt;error</title>
<path fill="none" stroke="black" d="M720.91,-353.38C772.63,-345.36 837.09,-328.58 884.5,-293.5 892.86,-287.31 899.55,-278.22 904.6,-269.41"/>
<polygon fill="black" stroke="black" points="907.61,-271.22 909.09,-260.73 901.39,-268 907.61,-271.22"/>
<text text-anchor="middle" x="936" y="-280.2" font-family="Times New Roman,serif" font-size="14.00">error tracking</text>
</g>
<!-- 37 -->
<g id="node3" class="node">
<title>37</title>
<ellipse fill="none" stroke="black" cx="538.5" cy="-131.93" rx="116.32" ry="39.07"/>
<text text-anchor="middle" x="538.5" y="-142.25" font-family="Times New Roman,serif" font-size="14.00">NonTerminal: End</text>
<text text-anchor="middle" x="538.5" y="-126.5" font-family="Times New Roman,serif" font-size="14.00">.2@4</text>
<text text-anchor="middle" x="538.5" y="-110.75" font-family="Times New Roman,serif" font-size="14.00">in: &#39;S &#45;&gt; ABC Layout End&#39;</text>
</g>
<!-- &#45;1 -->
<g id="node4" class="node">
<title>&#45;1</title>
<ellipse fill="none" stroke="black" cx="538.5" cy="-27.93" rx="73.36" ry="27.93"/>
<text text-anchor="middle" x="538.5" y="-30.38" font-family="Times New Roman,serif" font-size="14.00">NonTerminal: S</text>
<text text-anchor="middle" x="538.5" y="-14.63" font-family="Times New Roman,serif" font-size="14.00">.0@&#45;1</text>
</g>
<!-- 37&#45;&gt;&#45;1 -->
<g id="edge2" class="edge">
<title>37&#45;&gt;&#45;1</title>
<path fill="none" stroke="black" d="M538.5,-92.37C538.5,-84.26 538.5,-75.7 538.5,-67.58"/>
<polygon fill="black" stroke="black" points="542,-67.63 538.5,-57.63 535,-67.63 542,-67.63"/>
</g>
<!-- stacksToExpand&#45;&gt;37 -->
<g id="edge3" class="edge">
<title>stacksToExpand:0&#45;&gt;37</title>
<path fill="none" stroke="black" d="M538.4,-222.87C538.41,-211.73 538.43,-196.92 538.44,-182.55"/>
<polygon fill="black" stroke="black" points="541.94,-182.71 538.45,-172.71 534.94,-182.7 541.94,-182.71"/>
</g>
<!-- unexpandableNodes -->
<g id="node8" class="node">
<title>unexpandableNodes</title>
<polygon fill="none" stroke="black" points="719.5,-113.93 719.5,-149.93 773.5,-149.93 773.5,-113.93 719.5,-113.93"/>
<text text-anchor="middle" x="746.38" y="-126.5" font-family="Times New Roman,serif" font-size="14.00"> </text>
</g>
<!-- unmatchableLeafNodes -->
<g id="node9" class="node">
<title>unmatchableLeafNodes</title>
<polygon fill="none" stroke="black" points="819.5,-113.93 819.5,-149.93 873.5,-149.93 873.5,-113.93 819.5,-113.93"/>
<text text-anchor="middle" x="846.38" y="-126.5" font-family="Times New Roman,serif" font-size="14.00"> </text>
</g>
<!-- unmatchableMidProductionNodes -->
<g id="node10" class="node">
<title>unmatchableMidProductionNodes</title>
<polygon fill="none" stroke="black" points="941.5,-113.93 941.5,-149.93 995.5,-149.93 995.5,-113.93 941.5,-113.93"/>
<text text-anchor="middle" x="968.38" y="-126.5" font-family="Times New Roman,serif" font-size="14.00"> </text>
</g>
<!-- filteredNodes -->
<g id="node11" class="node">
<title>filteredNodes</title>
<polygon fill="none" stroke="black" points="1090.5,-113.93 1090.5,-149.93 1144.5,-149.93 1144.5,-113.93 1090.5,-113.93"/>
<text text-anchor="middle" x="1117.38" y="-126.5" font-family="Times New Roman,serif" font-size="14.00"> </text>
</g>
<!-- error&#45;&gt;unexpandableNodes -->
<g id="edge8" class="edge">
<title>error&#45;&gt;unexpandableNodes</title>
<path fill="none" stroke="black" d="M884.24,-235.07C840.18,-227.7 765.64,-214.05 757,-204.75 746.38,-193.31 743.58,-176.12 743.51,-161.43"/>
<polygon fill="black" stroke="black" points="747,-161.98 743.9,-151.85 740,-161.71 747,-161.98"/>
<text text-anchor="middle" x="794.75" y="-191.45" font-family="Times New Roman,serif" font-size="14.00">unexpandable</text>
</g>
<!-- error&#45;&gt;unmatchableLeafNodes -->
<g id="edge9" class="edge">
<title>error&#45;&gt;unmatchableLeafNodes</title>
<path fill="none" stroke="black" d="M885.31,-233.36C869.91,-228.21 852.69,-219.44 843.5,-204.75 835.54,-192.02 835.72,-175.39 838.15,-161.34"/>
<polygon fill="black" stroke="black" points="841.53,-162.29 840.27,-151.77 834.69,-160.78 841.53,-162.29"/>
<text text-anchor="middle" x="893" y="-191.45" font-family="Times New Roman,serif" font-size="14.00">unmatchable leafs</text>
</g>
<!-- error&#45;&gt;unmatchableMidProductionNodes -->
<g id="edge10" class="edge">
<title>error&#45;&gt;unmatchableMidProductionNodes</title>
<path fill="none" stroke="black" d="M931.73,-225.01C936.99,-219.08 942.56,-211.97 946.5,-204.75 953.84,-191.29 959.08,-175.05 962.6,-161.41"/>
<polygon fill="black" stroke="black" points="966,-162.25 964.91,-151.71 959.19,-160.63 966,-162.25"/>
<text text-anchor="middle" x="1015.5" y="-191.45" font-family="Times New Roman,serif" font-size="14.00">unmatchable mid&#45;prod</text>
</g>
<!-- error&#45;&gt;filteredNodes -->
<g id="edge11" class="edge">
<title>error&#45;&gt;filteredNodes</title>
<path fill="none" stroke="black" d="M949.74,-236.61C992.08,-231.39 1062.19,-220.64 1082.5,-204.75 1096.34,-193.92 1105.05,-176.21 1110.33,-161.1"/>
<polygon fill="black" stroke="black" points="1113.64,-162.23 1113.26,-151.64 1106.95,-160.15 1113.64,-162.23"/>
<text text-anchor="middle" x="1114.62" y="-191.45" font-family="Times New Roman,serif" font-size="14.00">filtered</text>
</g>
</g>
</svg>
