<?xml version="1.0" encoding="UTF-8" standalone="no"?>
<!DOCTYPE svg PUBLIC "-//W3C//DTD SVG 1.1//EN"
 "http://www.w3.org/Graphics/SVG/1.1/DTD/svg11.dtd">
<!-- Generated by graphviz version 12.0.0 (20240704.0754)
 -->
<!-- Title: Parser Pages: 1 -->
<svg width="1185pt" height="494pt"
 viewBox="0.00 0.00 1184.50 493.91" xmlns="http://www.w3.org/2000/svg" xmlns:xlink="http://www.w3.org/1999/xlink">
<g id="graph0" class="graph" transform="scale(1 1) rotate(0) translate(4 489.91)">
<title>Parser</title>
<polygon fill="white" stroke="none" points="-4,4 -4,-489.91 1180.5,-489.91 1180.5,4 -4,4"/>
<!-- Parser -->
<g id="node1" class="node">
<title>Parser</title>
<ellipse fill="none" stroke="black" cx="656.5" cy="-435.7" rx="143.37" ry="50.2"/>
<text text-anchor="middle" x="656.5" y="-453.9" font-family="Times New Roman,serif" font-size="14.00">Parser</text>
<text text-anchor="middle" x="656.5" y="-438.15" font-family="Times New Roman,serif" font-size="14.00">Input: &quot;a x c $&quot;</text>
<text text-anchor="middle" x="656.5" y="-422.4" font-family="Times New Roman,serif" font-size="14.00">Location: 4 (&#39;c&#39;)</text>
<text text-anchor="middle" x="656.5" y="-406.65" font-family="Times New Roman,serif" font-size="14.00">Step 30: Finding stacks to reduce</text>
</g>
<!-- todoLists -->
<g id="node2" class="node">
<title>todoLists</title>
<polygon fill="none" stroke="red" points="0,-297.25 0,-333.25 493,-333.25 493,-297.25 0,-297.25"/>
<text text-anchor="middle" x="11.38" y="-309.82" font-family="Times New Roman,serif" font-size="14.00">0</text>
<polyline fill="none" stroke="red" points="22.75,-297.25 22.75,-333.25"/>
<text text-anchor="middle" x="34.12" y="-309.82" font-family="Times New Roman,serif" font-size="14.00">1</text>
<polyline fill="none" stroke="red" points="45.5,-297.25 45.5,-333.25"/>
<text text-anchor="middle" x="56.88" y="-309.82" font-family="Times New Roman,serif" font-size="14.00">2</text>
<polyline fill="none" stroke="red" points="68.25,-297.25 68.25,-333.25"/>
<text text-anchor="middle" x="79.62" y="-309.82" font-family="Times New Roman,serif" font-size="14.00">3</text>
<polyline fill="none" stroke="red" points="91,-297.25 91,-333.25"/>
<text text-anchor="middle" x="102.38" y="-309.82" font-family="Times New Roman,serif" font-size="14.00">4</text>
<polyline fill="none" stroke="red" points="113.75,-297.25 113.75,-333.25"/>
<text text-anchor="middle" x="125.12" y="-309.82" font-family="Times New Roman,serif" font-size="14.00">5</text>
<polyline fill="none" stroke="red" points="136.5,-297.25 136.5,-333.25"/>
<text text-anchor="middle" x="147.88" y="-309.82" font-family="Times New Roman,serif" font-size="14.00">6</text>
<polyline fill="none" stroke="red" points="159.25,-297.25 159.25,-333.25"/>
<text text-anchor="middle" x="170.62" y="-309.82" font-family="Times New Roman,serif" font-size="14.00">7</text>
<polyline fill="none" stroke="red" points="182,-297.25 182,-333.25"/>
<text text-anchor="middle" x="193.38" y="-309.82" font-family="Times New Roman,serif" font-size="14.00">8</text>
<polyline fill="none" stroke="red" points="204.75,-297.25 204.75,-333.25"/>
<text text-anchor="middle" x="216.12" y="-309.82" font-family="Times New Roman,serif" font-size="14.00">9</text>
<polyline fill="none" stroke="red" points="227.5,-297.25 227.5,-333.25"/>
<text text-anchor="middle" x="242.25" y="-309.82" font-family="Times New Roman,serif" font-size="14.00">10</text>
<polyline fill="none" stroke="red" points="257,-297.25 257,-333.25"/>
<text text-anchor="middle" x="271.75" y="-309.82" font-family="Times New Roman,serif" font-size="14.00">11</text>
<polyline fill="none" stroke="red" points="286.5,-297.25 286.5,-333.25"/>
<text text-anchor="middle" x="301.25" y="-309.82" font-family="Times New Roman,serif" font-size="14.00">12</text>
<polyline fill="none" stroke="red" points="316,-297.25 316,-333.25"/>
<text text-anchor="middle" x="330.75" y="-309.82" font-family="Times New Roman,serif" font-size="14.00">13</text>
<polyline fill="none" stroke="red" points="345.5,-297.25 345.5,-333.25"/>
<text text-anchor="middle" x="360.25" y="-309.82" font-family="Times New Roman,serif" font-size="14.00">14</text>
<polyline fill="none" stroke="red" points="375,-297.25 375,-333.25"/>
<text text-anchor="middle" x="389.75" y="-309.82" font-family="Times New Roman,serif" font-size="14.00">15</text>
<polyline fill="none" stroke="red" points="404.5,-297.25 404.5,-333.25"/>
<text text-anchor="middle" x="419.25" y="-309.82" font-family="Times New Roman,serif" font-size="14.00">16</text>
<polyline fill="none" stroke="red" points="434,-297.25 434,-333.25"/>
<text text-anchor="middle" x="448.75" y="-309.82" font-family="Times New Roman,serif" font-size="14.00">17</text>
<polyline fill="none" stroke="red" points="463.5,-297.25 463.5,-333.25"/>
<text text-anchor="middle" x="478.25" y="-309.82" font-family="Times New Roman,serif" font-size="14.00">18</text>
</g>
<!-- Parser&#45;&gt;todoLists -->
<g id="edge1" class="edge">
<title>Parser&#45;&gt;todoLists</title>
<path fill="none" stroke="black" d="M546.9,-403.04C474.28,-382.06 381.11,-355.14 317.93,-336.88"/>
<polygon fill="black" stroke="black" points="318.92,-333.53 308.34,-334.11 316.97,-340.25 318.92,-333.53"/>
<text text-anchor="middle" x="441.38" y="-354.2" font-family="Times New Roman,serif" font-size="14.00">todo lists</text>
</g>
<!-- stacksToExpand -->
<g id="node3" class="node">
<title>stacksToExpand</title>
<polygon fill="none" stroke="black" points="511.5,-297.25 511.5,-333.25 565.5,-333.25 565.5,-297.25 511.5,-297.25"/>
<text text-anchor="middle" x="538.38" y="-309.82" font-family="Times New Roman,serif" font-size="14.00"> </text>
</g>
<!-- Parser&#45;&gt;stacksToExpand -->
<g id="edge2" class="edge">
<title>Parser&#45;&gt;stacksToExpand</title>
<path fill="none" stroke="black" d="M583.22,-392.4C573.93,-384.94 565.18,-376.6 558,-367.5 552.71,-360.79 548.73,-352.49 545.8,-344.54"/>
<polygon fill="black" stroke="black" points="549.18,-343.61 542.78,-335.17 542.52,-345.76 549.18,-343.61"/>
<text text-anchor="middle" x="605.75" y="-354.2" font-family="Times New Roman,serif" font-size="14.00">stacks to expand</text>
</g>
<!-- terminalsToReduce -->
<g id="node4" class="node">
<title>terminalsToReduce</title>
<polygon fill="none" stroke="black" points="629.5,-297.25 629.5,-333.25 683.5,-333.25 683.5,-297.25 629.5,-297.25"/>
<text text-anchor="middle" x="656.38" y="-309.82" font-family="Times New Roman,serif" font-size="14.00"> </text>
</g>
<!-- Parser&#45;&gt;terminalsToReduce -->
<g id="edge3" class="edge">
<title>Parser&#45;&gt;terminalsToReduce</title>
<path fill="none" stroke="black" d="M656.5,-385.15C656.5,-371.36 656.5,-356.85 656.5,-344.73"/>
<polygon fill="black" stroke="black" points="660,-345.02 656.5,-335.02 653,-345.02 660,-345.02"/>
<text text-anchor="middle" x="709.38" y="-354.2" font-family="Times New Roman,serif" font-size="14.00">terminals to reduce</text>
</g>
<!-- nonTerminalsToReduce -->
<g id="node5" class="node">
<title>nonTerminalsToReduce</title>
<polygon fill="none" stroke="black" points="758.5,-297.25 758.5,-333.25 812.5,-333.25 812.5,-297.25 758.5,-297.25"/>
<text text-anchor="middle" x="785.38" y="-309.82" font-family="Times New Roman,serif" font-size="14.00"> </text>
</g>
<!-- Parser&#45;&gt;nonTerminalsToReduce -->
<g id="edge4" class="edge">
<title>Parser&#45;&gt;nonTerminalsToReduce</title>
<path fill="none" stroke="black" d="M734.94,-393.43C745.39,-385.75 755.3,-377.08 763.5,-367.5 769.3,-360.72 773.77,-352.18 777.13,-344.03"/>
<polygon fill="black" stroke="black" points="780.36,-345.37 780.5,-334.78 773.79,-342.97 780.36,-345.37"/>
<text text-anchor="middle" x="839.12" y="-354.2" font-family="Times New Roman,serif" font-size="14.00">non&#45;terminals to reduce</text>
</g>
<!-- error -->
<g id="node14" class="node">
<title>error</title>
<ellipse fill="none" stroke="black" cx="939.5" cy="-315.25" rx="34.1" ry="18"/>
<text text-anchor="middle" x="939.5" y="-309.82" font-family="Times New Roman,serif" font-size="14.00">Errors</text>
</g>
<!-- Parser&#45;&gt;error -->
<g id="edge9" class="edge">
<title>Parser&#45;&gt;error</title>
<path fill="none" stroke="black" d="M791.6,-418.48C832.12,-408.63 874.73,-392.84 908.5,-367.5 916.75,-361.31 923.26,-352.22 928.14,-343.41"/>
<polygon fill="black" stroke="black" points="931.13,-345.25 932.45,-334.74 924.87,-342.13 931.13,-345.25"/>
<text text-anchor="middle" x="961" y="-354.2" font-family="Times New Roman,serif" font-size="14.00">error tracking</text>
</g>
<!-- 37 -->
<g id="node6" class="node">
<title>37</title>
<ellipse fill="none" stroke="black" cx="693.5" cy="-131.93" rx="116.32" ry="39.07"/>
<text text-anchor="middle" x="693.5" y="-142.25" font-family="Times New Roman,serif" font-size="14.00">NonTerminal: End</text>
<text text-anchor="middle" x="693.5" y="-126.5" font-family="Times New Roman,serif" font-size="14.00">.2@4</text>
<text text-anchor="middle" x="693.5" y="-110.75" font-family="Times New Roman,serif" font-size="14.00">in: &#39;S &#45;&gt; ABC Layout End&#39;</text>
</g>
<!-- &#45;1 -->
<g id="node7" class="node">
<title>&#45;1</title>
<ellipse fill="none" stroke="black" cx="693.5" cy="-27.93" rx="73.36" ry="27.93"/>
<text text-anchor="middle" x="693.5" y="-30.38" font-family="Times New Roman,serif" font-size="14.00">NonTerminal: S</text>
<text text-anchor="middle" x="693.5" y="-14.63" font-family="Times New Roman,serif" font-size="14.00">.0@&#45;1</text>
</g>
<!-- 37&#45;&gt;&#45;1 -->
<g id="edge5" class="edge">
<title>37&#45;&gt;&#45;1</title>
<path fill="none" stroke="black" d="M693.5,-92.37C693.5,-84.26 693.5,-75.7 693.5,-67.58"/>
<polygon fill="black" stroke="black" points="697,-67.63 693.5,-57.63 690,-67.63 697,-67.63"/>
</g>
<!-- unexpandableNodes -->
<g id="node8" class="node">
<title>unexpandableNodes</title>
<polygon fill="none" stroke="black" points="729.5,-208.5 729.5,-244.5 783.5,-244.5 783.5,-208.5 729.5,-208.5"/>
<text text-anchor="middle" x="756.38" y="-221.07" font-family="Times New Roman,serif" font-size="14.00">0</text>
</g>
<!-- unexpandableNodes&#45;&gt;37 -->
<g id="edge6" class="edge">
<title>unexpandableNodes:0&#45;&gt;37</title>
<path fill="none" stroke="black" d="M743.95,-208.01C738.47,-199.86 731.76,-189.87 725.04,-179.87"/>
<polygon fill="black" stroke="black" points="727.97,-177.94 719.48,-171.6 722.16,-181.85 727.97,-177.94"/>
</g>
<!-- 86 -->
<g id="node9" class="node">
<title>86</title>
<ellipse fill="none" stroke="black" cx="890.5" cy="-131.93" rx="62.23" ry="39.07"/>
<text text-anchor="middle" x="890.5" y="-142.25" font-family="Times New Roman,serif" font-size="14.00">Literal: </text>
<text text-anchor="middle" x="890.5" y="-126.5" font-family="Times New Roman,serif" font-size="14.00">.0@&#45;1</text>
<text text-anchor="middle" x="890.5" y="-110.75" font-family="Times New Roman,serif" font-size="14.00">in: &#39;End &#45;&gt; $&#39;</text>
</g>
<!-- unmatchableLeafNodes -->
<g id="node10" class="node">
<title>unmatchableLeafNodes</title>
<polygon fill="none" stroke="black" points="876.5,-208.5 876.5,-244.5 930.5,-244.5 930.5,-208.5 876.5,-208.5"/>
<text text-anchor="middle" x="889.88" y="-221.07" font-family="Times New Roman,serif" font-size="14.00">0</text>
<polyline fill="none" stroke="black" points="903.25,-208.5 903.25,-244.5"/>
<text text-anchor="middle" x="916.62" y="-221.07" font-family="Times New Roman,serif" font-size="14.00">1</text>
</g>
<!-- unmatchableLeafNodes&#45;&gt;86 -->
<g id="edge7" class="edge">
<title>unmatchableLeafNodes:0&#45;&gt;86</title>
<path fill="none" stroke="black" d="M889.88,-208C889.88,-199.75 889.91,-191 889.97,-182.49"/>
<polygon fill="black" stroke="black" points="893.47,-182.66 890.05,-172.63 886.47,-182.6 893.47,-182.66"/>
</g>
<!-- 78 -->
<g id="node11" class="node">
<title>78</title>
<ellipse fill="none" stroke="black" cx="1006.5" cy="-131.93" rx="35.71" ry="27.93"/>
<text text-anchor="middle" x="1006.5" y="-134.38" font-family="Times New Roman,serif" font-size="14.00">Char: </text>
<text text-anchor="middle" x="1006.5" y="-118.63" font-family="Times New Roman,serif" font-size="14.00">.0@&#45;1</text>
</g>
<!-- unmatchableLeafNodes&#45;&gt;78 -->
<g id="edge8" class="edge">
<title>unmatchableLeafNodes:1&#45;&gt;78</title>
<path fill="none" stroke="black" d="M931,-226.5C946.71,-226.5 970.04,-194.15 986.61,-167.5"/>
<polygon fill="black" stroke="black" points="989.39,-169.66 991.59,-159.3 983.41,-166.02 989.39,-169.66"/>
</g>
<!-- unmatchableMidProductionNodes -->
<g id="node12" class="node">
<title>unmatchableMidProductionNodes</title>
<polygon fill="none" stroke="black" points="973.5,-208.5 973.5,-244.5 1027.5,-244.5 1027.5,-208.5 973.5,-208.5"/>
<text text-anchor="middle" x="1000.38" y="-221.07" font-family="Times New Roman,serif" font-size="14.00"> </text>
</g>
<!-- filteredNodes -->
<g id="node13" class="node">
<title>filteredNodes</title>
<polygon fill="none" stroke="black" points="1122.5,-208.5 1122.5,-244.5 1176.5,-244.5 1176.5,-208.5 1122.5,-208.5"/>
<text text-anchor="middle" x="1149.38" y="-221.07" font-family="Times New Roman,serif" font-size="14.00"> </text>
</g>
<!-- error&#45;&gt;unexpandableNodes -->
<g id="edge10" class="edge">
<title>error&#45;&gt;unexpandableNodes</title>
<path fill="none" stroke="black" d="M905.67,-312C875.15,-308.61 830.1,-300.11 797,-278.75 787.34,-272.51 778.99,-263.19 772.41,-254.19"/>
<polygon fill="black" stroke="black" points="775.35,-252.29 766.85,-245.97 769.56,-256.21 775.35,-252.29"/>
<text text-anchor="middle" x="835.75" y="-265.45" font-family="Times New Roman,serif" font-size="14.00">unexpandable</text>
</g>
<!-- error&#45;&gt;unmatchableLeafNodes -->
<g id="edge11" class="edge">
<title>error&#45;&gt;unmatchableLeafNodes</title>
<path fill="none" stroke="black" d="M911.22,-304.81C899.2,-299.23 886.4,-290.84 879.5,-278.75 875.12,-271.07 876.79,-262.45 880.79,-254.51"/>
<polygon fill="black" stroke="black" points="883.65,-256.53 886.02,-246.21 877.73,-252.8 883.65,-256.53"/>
<text text-anchor="middle" x="929" y="-265.45" font-family="Times New Roman,serif" font-size="14.00">unmatchable leafs</text>
</g>
<!-- error&#45;&gt;unmatchableMidProductionNodes -->
<g id="edge12" class="edge">
<title>error&#45;&gt;unmatchableMidProductionNodes</title>
<path fill="none" stroke="black" d="M958.18,-300.11C965.22,-294.1 972.87,-286.65 978.5,-278.75 983.54,-271.67 987.75,-263.26 991.09,-255.32"/>
<polygon fill="black" stroke="black" points="994.35,-256.59 994.69,-246.01 987.82,-254.07 994.35,-256.59"/>
<text text-anchor="middle" x="1049.5" y="-265.45" font-family="Times New Roman,serif" font-size="14.00">unmatchable mid&#45;prod</text>
</g>
<!-- error&#45;&gt;filteredNodes -->
<g id="edge13" class="edge">
<title>error&#45;&gt;filteredNodes</title>
<path fill="none" stroke="black" d="M973.81,-315.03C1011.85,-314.28 1073.51,-308.05 1116.5,-278.75 1125.17,-272.83 1132.08,-263.81 1137.29,-254.97"/>
<polygon fill="black" stroke="black" points="1140.33,-256.7 1141.91,-246.22 1134.15,-253.42 1140.33,-256.7"/>
<text text-anchor="middle" x="1150.62" y="-265.45" font-family="Times New Roman,serif" font-size="14.00">filtered</text>
</g>
</g>
</svg>
