<?xml version="1.0" encoding="UTF-8" standalone="no"?>
<!DOCTYPE svg PUBLIC "-//W3C//DTD SVG 1.1//EN"
 "http://www.w3.org/Graphics/SVG/1.1/DTD/svg11.dtd">
<!-- Generated by graphviz version 12.0.0 (20240704.0754)
 -->
<!-- Title: Parser Pages: 1 -->
<svg width="1485pt" height="707pt"
 viewBox="0.00 0.00 1485.40 707.36" xmlns="http://www.w3.org/2000/svg" xmlns:xlink="http://www.w3.org/1999/xlink">
<g id="graph0" class="graph" transform="scale(1 1) rotate(0) translate(4 703.36)">
<title>Parser</title>
<polygon fill="white" stroke="none" points="-4,4 -4,-703.36 1481.4,-703.36 1481.4,4 -4,4"/>
<!-- Parser -->
<g id="node1" class="node">
<title>Parser</title>
<ellipse fill="none" stroke="black" cx="656.5" cy="-649.16" rx="80.79" ry="50.2"/>
<text text-anchor="middle" x="656.5" y="-667.36" font-family="Times New Roman,serif" font-size="14.00">Parser</text>
<text text-anchor="middle" x="656.5" y="-651.61" font-family="Times New Roman,serif" font-size="14.00">Input: &quot;a x c $&quot;</text>
<text text-anchor="middle" x="656.5" y="-635.86" font-family="Times New Roman,serif" font-size="14.00">Location: 4 (&#39;c&#39;)</text>
<text text-anchor="middle" x="656.5" y="-620.11" font-family="Times New Roman,serif" font-size="14.00">Step 32: Reviving</text>
</g>
<!-- todoLists -->
<g id="node2" class="node">
<title>todoLists</title>
<polygon fill="none" stroke="black" points="0,-510.71 0,-546.71 493,-546.71 493,-510.71 0,-510.71"/>
<text text-anchor="middle" x="11.38" y="-523.28" font-family="Times New Roman,serif" font-size="14.00">0</text>
<polyline fill="none" stroke="black" points="22.75,-510.71 22.75,-546.71"/>
<text text-anchor="middle" x="34.12" y="-523.28" font-family="Times New Roman,serif" font-size="14.00">1</text>
<polyline fill="none" stroke="black" points="45.5,-510.71 45.5,-546.71"/>
<text text-anchor="middle" x="56.88" y="-523.28" font-family="Times New Roman,serif" font-size="14.00">2</text>
<polyline fill="none" stroke="black" points="68.25,-510.71 68.25,-546.71"/>
<text text-anchor="middle" x="79.62" y="-523.28" font-family="Times New Roman,serif" font-size="14.00">3</text>
<polyline fill="none" stroke="black" points="91,-510.71 91,-546.71"/>
<text text-anchor="middle" x="102.38" y="-523.28" font-family="Times New Roman,serif" font-size="14.00">4</text>
<polyline fill="none" stroke="black" points="113.75,-510.71 113.75,-546.71"/>
<text text-anchor="middle" x="125.12" y="-523.28" font-family="Times New Roman,serif" font-size="14.00">5</text>
<polyline fill="none" stroke="black" points="136.5,-510.71 136.5,-546.71"/>
<text text-anchor="middle" x="147.88" y="-523.28" font-family="Times New Roman,serif" font-size="14.00">6</text>
<polyline fill="none" stroke="black" points="159.25,-510.71 159.25,-546.71"/>
<text text-anchor="middle" x="170.62" y="-523.28" font-family="Times New Roman,serif" font-size="14.00">7</text>
<polyline fill="none" stroke="black" points="182,-510.71 182,-546.71"/>
<text text-anchor="middle" x="193.38" y="-523.28" font-family="Times New Roman,serif" font-size="14.00">8</text>
<polyline fill="none" stroke="black" points="204.75,-510.71 204.75,-546.71"/>
<text text-anchor="middle" x="216.12" y="-523.28" font-family="Times New Roman,serif" font-size="14.00">9</text>
<polyline fill="none" stroke="black" points="227.5,-510.71 227.5,-546.71"/>
<text text-anchor="middle" x="242.25" y="-523.28" font-family="Times New Roman,serif" font-size="14.00">10</text>
<polyline fill="none" stroke="black" points="257,-510.71 257,-546.71"/>
<text text-anchor="middle" x="271.75" y="-523.28" font-family="Times New Roman,serif" font-size="14.00">11</text>
<polyline fill="none" stroke="black" points="286.5,-510.71 286.5,-546.71"/>
<text text-anchor="middle" x="301.25" y="-523.28" font-family="Times New Roman,serif" font-size="14.00">12</text>
<polyline fill="none" stroke="black" points="316,-510.71 316,-546.71"/>
<text text-anchor="middle" x="330.75" y="-523.28" font-family="Times New Roman,serif" font-size="14.00">13</text>
<polyline fill="none" stroke="black" points="345.5,-510.71 345.5,-546.71"/>
<text text-anchor="middle" x="360.25" y="-523.28" font-family="Times New Roman,serif" font-size="14.00">14</text>
<polyline fill="none" stroke="black" points="375,-510.71 375,-546.71"/>
<text text-anchor="middle" x="389.75" y="-523.28" font-family="Times New Roman,serif" font-size="14.00">15</text>
<polyline fill="none" stroke="black" points="404.5,-510.71 404.5,-546.71"/>
<text text-anchor="middle" x="419.25" y="-523.28" font-family="Times New Roman,serif" font-size="14.00">16</text>
<polyline fill="none" stroke="black" points="434,-510.71 434,-546.71"/>
<text text-anchor="middle" x="448.75" y="-523.28" font-family="Times New Roman,serif" font-size="14.00">17</text>
<polyline fill="none" stroke="black" points="463.5,-510.71 463.5,-546.71"/>
<text text-anchor="middle" x="478.25" y="-523.28" font-family="Times New Roman,serif" font-size="14.00">18</text>
</g>
<!-- Parser&#45;&gt;todoLists -->
<g id="edge1" class="edge">
<title>Parser&#45;&gt;todoLists</title>
<path fill="none" stroke="black" d="M583.67,-627.12C508.55,-605.42 392.16,-571.79 317.66,-550.26"/>
<polygon fill="black" stroke="black" points="319.01,-547.01 308.43,-547.6 317.07,-553.74 319.01,-547.01"/>
<text text-anchor="middle" x="441.38" y="-567.66" font-family="Times New Roman,serif" font-size="14.00">todo lists</text>
</g>
<!-- stacksToExpand -->
<g id="node3" class="node">
<title>stacksToExpand</title>
<polygon fill="none" stroke="black" points="511.5,-510.71 511.5,-546.71 565.5,-546.71 565.5,-510.71 511.5,-510.71"/>
<text text-anchor="middle" x="538.38" y="-523.28" font-family="Times New Roman,serif" font-size="14.00"> </text>
</g>
<!-- Parser&#45;&gt;stacksToExpand -->
<g id="edge2" class="edge">
<title>Parser&#45;&gt;stacksToExpand</title>
<path fill="none" stroke="black" d="M596.16,-615.52C582.23,-605.83 568.45,-594.2 558,-580.96 552.71,-574.25 548.73,-565.95 545.8,-557.99"/>
<polygon fill="black" stroke="black" points="549.18,-557.07 542.78,-548.63 542.52,-559.22 549.18,-557.07"/>
<text text-anchor="middle" x="605.75" y="-567.66" font-family="Times New Roman,serif" font-size="14.00">stacks to expand</text>
</g>
<!-- terminalsToReduce -->
<g id="node4" class="node">
<title>terminalsToReduce</title>
<polygon fill="none" stroke="black" points="629.5,-510.71 629.5,-546.71 683.5,-546.71 683.5,-510.71 629.5,-510.71"/>
<text text-anchor="middle" x="656.38" y="-523.28" font-family="Times New Roman,serif" font-size="14.00"> </text>
</g>
<!-- Parser&#45;&gt;terminalsToReduce -->
<g id="edge3" class="edge">
<title>Parser&#45;&gt;terminalsToReduce</title>
<path fill="none" stroke="black" d="M656.5,-598.61C656.5,-584.82 656.5,-570.31 656.5,-558.19"/>
<polygon fill="black" stroke="black" points="660,-558.48 656.5,-548.48 653,-558.48 660,-558.48"/>
<text text-anchor="middle" x="709.38" y="-567.66" font-family="Times New Roman,serif" font-size="14.00">terminals to reduce</text>
</g>
<!-- nonTerminalsToReduce -->
<g id="node5" class="node">
<title>nonTerminalsToReduce</title>
<polygon fill="none" stroke="black" points="758.5,-510.71 758.5,-546.71 812.5,-546.71 812.5,-510.71 758.5,-510.71"/>
<text text-anchor="middle" x="785.38" y="-523.28" font-family="Times New Roman,serif" font-size="14.00"> </text>
</g>
<!-- Parser&#45;&gt;nonTerminalsToReduce -->
<g id="edge4" class="edge">
<title>Parser&#45;&gt;nonTerminalsToReduce</title>
<path fill="none" stroke="black" d="M719.44,-617.4C735.32,-607.43 751.31,-595.21 763.5,-580.96 769.3,-574.18 773.77,-565.64 777.13,-557.49"/>
<polygon fill="black" stroke="black" points="780.36,-558.83 780.5,-548.23 773.79,-556.43 780.36,-558.83"/>
<text text-anchor="middle" x="839.12" y="-567.66" font-family="Times New Roman,serif" font-size="14.00">non&#45;terminals to reduce</text>
</g>
<!-- error -->
<g id="node14" class="node">
<title>error</title>
<ellipse fill="none" stroke="black" cx="939.5" cy="-528.71" rx="34.1" ry="18"/>
<text text-anchor="middle" x="939.5" y="-523.28" font-family="Times New Roman,serif" font-size="14.00">Errors</text>
</g>
<!-- Parser&#45;&gt;error -->
<g id="edge9" class="edge">
<title>Parser&#45;&gt;error</title>
<path fill="none" stroke="black" d="M736.78,-642.27C789.95,-634.87 858.79,-618.25 908.5,-580.96 916.75,-574.76 923.26,-565.68 928.14,-556.87"/>
<polygon fill="black" stroke="black" points="931.13,-558.71 932.45,-548.2 924.87,-555.59 931.13,-558.71"/>
<text text-anchor="middle" x="960" y="-567.66" font-family="Times New Roman,serif" font-size="14.00">error tracking</text>
</g>
<!-- 37 -->
<g id="node6" class="node">
<title>37</title>
<ellipse fill="none" stroke="black" cx="771.5" cy="-228.06" rx="116.32" ry="39.07"/>
<text text-anchor="middle" x="771.5" y="-238.39" font-family="Times New Roman,serif" font-size="14.00">NonTerminal: End</text>
<text text-anchor="middle" x="771.5" y="-222.64" font-family="Times New Roman,serif" font-size="14.00">.2@4</text>
<text text-anchor="middle" x="771.5" y="-206.89" font-family="Times New Roman,serif" font-size="14.00">in: &#39;S &#45;&gt; ABC Layout End&#39;</text>
</g>
<!-- &#45;1 -->
<g id="node7" class="node">
<title>&#45;1</title>
<ellipse fill="none" stroke="black" cx="895.5" cy="-27.93" rx="73.36" ry="27.93"/>
<text text-anchor="middle" x="895.5" y="-30.38" font-family="Times New Roman,serif" font-size="14.00">NonTerminal: S</text>
<text text-anchor="middle" x="895.5" y="-14.63" font-family="Times New Roman,serif" font-size="14.00">.0@&#45;1</text>
</g>
<!-- 37&#45;&gt;&#45;1 -->
<g id="edge5" class="edge">
<title>37&#45;&gt;&#45;1</title>
<path fill="none" stroke="black" d="M795.12,-189.33C817.53,-153.51 850.98,-100.06 873.02,-64.85"/>
<polygon fill="black" stroke="black" points="875.77,-67.05 878.11,-56.72 869.84,-63.34 875.77,-67.05"/>
</g>
<!-- unexpandableNodes -->
<g id="node8" class="node">
<title>unexpandableNodes</title>
<polygon fill="none" stroke="black" points="689.5,-421.96 689.5,-457.96 743.5,-457.96 743.5,-421.96 689.5,-421.96"/>
<text text-anchor="middle" x="716.38" y="-434.53" font-family="Times New Roman,serif" font-size="14.00">0</text>
</g>
<!-- unexpandableNodes&#45;&gt;37 -->
<g id="edge6" class="edge">
<title>unexpandableNodes:0&#45;&gt;37</title>
<path fill="none" stroke="black" d="M715.82,-421.69C715.51,-392.07 717.34,-332.16 734.5,-285.13 735.55,-282.25 736.78,-279.37 738.13,-276.53"/>
<polygon fill="black" stroke="black" points="741.2,-278.21 742.79,-267.74 735.01,-274.93 741.2,-278.21"/>
</g>
<!-- 86 -->
<g id="node9" class="node">
<title>86</title>
<ellipse fill="none" stroke="black" cx="805.5" cy="-327.42" rx="62.23" ry="39.07"/>
<text text-anchor="middle" x="805.5" y="-337.74" font-family="Times New Roman,serif" font-size="14.00">Literal: </text>
<text text-anchor="middle" x="805.5" y="-321.99" font-family="Times New Roman,serif" font-size="14.00">.0@&#45;1</text>
<text text-anchor="middle" x="805.5" y="-306.24" font-family="Times New Roman,serif" font-size="14.00">in: &#39;End &#45;&gt; $&#39;</text>
</g>
<!-- unmatchableLeafNodes -->
<g id="node10" class="node">
<title>unmatchableLeafNodes</title>
<polygon fill="none" stroke="black" points="791.5,-421.96 791.5,-457.96 845.5,-457.96 845.5,-421.96 791.5,-421.96"/>
<text text-anchor="middle" x="804.88" y="-434.53" font-family="Times New Roman,serif" font-size="14.00">0</text>
<polyline fill="none" stroke="black" points="818.25,-421.96 818.25,-457.96"/>
<text text-anchor="middle" x="831.62" y="-434.53" font-family="Times New Roman,serif" font-size="14.00">1</text>
</g>
<!-- unmatchableLeafNodes&#45;&gt;86 -->
<g id="edge7" class="edge">
<title>unmatchableLeafNodes:0&#45;&gt;86</title>
<path fill="none" stroke="black" d="M804.88,-421.46C804.88,-407.45 804.95,-392.25 805.04,-378.29"/>
<polygon fill="black" stroke="black" points="808.54,-378.43 805.11,-368.41 801.54,-378.38 808.54,-378.43"/>
</g>
<!-- 78 -->
<g id="node11" class="node">
<title>78</title>
<ellipse fill="none" stroke="black" cx="921.5" cy="-327.42" rx="35.71" ry="27.93"/>
<text text-anchor="middle" x="921.5" y="-329.87" font-family="Times New Roman,serif" font-size="14.00">Char: </text>
<text text-anchor="middle" x="921.5" y="-314.12" font-family="Times New Roman,serif" font-size="14.00">.0@&#45;1</text>
</g>
<!-- unmatchableLeafNodes&#45;&gt;78 -->
<g id="edge8" class="edge">
<title>unmatchableLeafNodes:1&#45;&gt;78</title>
<path fill="none" stroke="black" d="M846,-439.96C882.4,-439.96 902.44,-398.72 912.57,-366.4"/>
<polygon fill="black" stroke="black" points="915.91,-367.45 915.33,-356.87 909.18,-365.5 915.91,-367.45"/>
</g>
<!-- unmatchableMidProductionNodes -->
<g id="node12" class="node">
<title>unmatchableMidProductionNodes</title>
<polygon fill="none" stroke="black" points="912.5,-421.96 912.5,-457.96 966.5,-457.96 966.5,-421.96 912.5,-421.96"/>
<text text-anchor="middle" x="939.38" y="-434.53" font-family="Times New Roman,serif" font-size="14.00"> </text>
</g>
<!-- filteredNodes -->
<g id="node13" class="node">
<title>filteredNodes</title>
<polygon fill="none" stroke="black" points="1061.5,-421.96 1061.5,-457.96 1115.5,-457.96 1115.5,-421.96 1061.5,-421.96"/>
<text text-anchor="middle" x="1088.38" y="-434.53" font-family="Times New Roman,serif" font-size="14.00"> </text>
</g>
<!-- error&#45;&gt;unexpandableNodes -->
<g id="edge10" class="edge">
<title>error&#45;&gt;unexpandableNodes</title>
<path fill="none" stroke="black" d="M906.69,-523.16C855.2,-515.8 759.93,-501.21 747,-492.21 738.57,-486.34 732.1,-477.32 727.32,-468.48"/>
<polygon fill="black" stroke="black" points="730.62,-467.26 723.15,-459.74 724.3,-470.28 730.62,-467.26"/>
<text text-anchor="middle" x="785.75" y="-478.91" font-family="Times New Roman,serif" font-size="14.00">unexpandable</text>
</g>
<!-- error&#45;&gt;unmatchableLeafNodes -->
<g id="edge11" class="edge">
<title>error&#45;&gt;unmatchableLeafNodes</title>
<path fill="none" stroke="black" d="M906.31,-523.85C883.91,-519.61 855.14,-510.74 836.5,-492.21 830.25,-485.99 826.16,-477.48 823.49,-469.17"/>
<polygon fill="black" stroke="black" points="826.93,-468.49 821.04,-459.69 820.15,-470.24 826.93,-468.49"/>
<text text-anchor="middle" x="886" y="-478.91" font-family="Times New Roman,serif" font-size="14.00">unmatchable leafs</text>
</g>
<!-- error&#45;&gt;unmatchableMidProductionNodes -->
<g id="edge12" class="edge">
<title>error&#45;&gt;unmatchableMidProductionNodes</title>
<path fill="none" stroke="black" d="M939.5,-510.57C939.5,-498.88 939.5,-483.12 939.5,-469.56"/>
<polygon fill="black" stroke="black" points="943,-469.87 939.5,-459.87 936,-469.87 943,-469.87"/>
<text text-anchor="middle" x="1002.5" y="-478.91" font-family="Times New Roman,serif" font-size="14.00">unmatchable mid&#45;prod</text>
</g>
<!-- error&#45;&gt;filteredNodes -->
<g id="edge13" class="edge">
<title>error&#45;&gt;filteredNodes</title>
<path fill="none" stroke="black" d="M973.5,-526.12C1001.5,-523.12 1040.66,-514.82 1066.5,-492.21 1073.49,-486.09 1078.33,-477.35 1081.65,-468.83"/>
<polygon fill="black" stroke="black" points="1084.95,-470.01 1084.73,-459.41 1078.3,-467.83 1084.95,-470.01"/>
<text text-anchor="middle" x="1096.62" y="-478.91" font-family="Times New Roman,serif" font-size="14.00">filtered</text>
</g>
<!-- recoveredNodes -->
<g id="node15" class="node">
<title>recoveredNodes</title>
<polygon fill="none" stroke="red" points="1133.5,-421.96 1133.5,-457.96 1187.5,-457.96 1187.5,-421.96 1133.5,-421.96"/>
<text text-anchor="middle" x="1160.38" y="-434.53" font-family="Times New Roman,serif" font-size="14.00">0</text>
</g>
<!-- error&#45;&gt;recoveredNodes -->
<g id="edge18" class="edge">
<title>error&#45;&gt;recoveredNodes</title>
<path fill="none" stroke="black" d="M973.84,-527.8C1012.03,-526.42 1074.3,-519.63 1119.5,-492.21 1129.48,-486.15 1138.03,-476.74 1144.71,-467.62"/>
<polygon fill="black" stroke="black" points="1147.41,-469.88 1150.12,-459.64 1141.61,-465.95 1147.41,-469.88"/>
<text text-anchor="middle" x="1180.75" y="-478.91" font-family="Times New Roman,serif" font-size="14.00">Nodes to revive</text>
</g>
<!-- 1610612738 -->
<g id="node16" class="node">
<title>1610612738</title>
<ellipse fill="none" stroke="black" cx="1091.5" cy="-327.42" rx="116.32" ry="39.07"/>
<text text-anchor="middle" x="1091.5" y="-337.74" font-family="Times New Roman,serif" font-size="14.00">Skipping: </text>
<text text-anchor="middle" x="1091.5" y="-321.99" font-family="Times New Roman,serif" font-size="14.00">.0@4</text>
<text text-anchor="middle" x="1091.5" y="-306.24" font-family="Times New Roman,serif" font-size="14.00">in: &#39;S &#45;&gt; ABC Layout End&#39;</text>
</g>
<!-- recoveredNodes&#45;&gt;1610612738 -->
<g id="edge16" class="edge">
<title>recoveredNodes:sw&#45;&gt;1610612738</title>
<path fill="none" stroke="black" d="M1133.5,-421.46C1121.28,-409.24 1112.28,-392.83 1105.81,-377.2"/>
<polygon fill="black" stroke="black" points="1109.12,-376.06 1102.28,-367.97 1102.59,-378.56 1109.12,-376.06"/>
<text text-anchor="middle" x="1133.25" y="-390.16" font-family="Times New Roman,serif" font-size="14.00">Stack</text>
</g>
<!-- 1401095299 -->
<g id="node18" class="node">
<title>1401095299</title>
<polygon fill="none" stroke="black" points="1477.4,-309.9 1477.4,-344.93 1403.65,-369.71 1299.35,-369.71 1225.6,-344.93 1225.6,-309.9 1299.35,-285.13 1403.65,-285.13 1477.4,-309.9"/>
<text text-anchor="middle" x="1351.5" y="-337.74" font-family="Times New Roman,serif" font-size="14.00">Skipped</text>
<text text-anchor="middle" x="1351.5" y="-321.99" font-family="Times New Roman,serif" font-size="14.00">.2@4: &#160;&quot;c&quot;</text>
<text text-anchor="middle" x="1351.5" y="-306.24" font-family="Times New Roman,serif" font-size="14.00">in: &#39;S &#45;&gt; ABC Layout End&#39;</text>
</g>
<!-- recoveredNodes&#45;&gt;1401095299 -->
<g id="edge17" class="edge">
<title>recoveredNodes:se&#45;&gt;1401095299</title>
<path fill="none" stroke="black" d="M1187.25,-421.46C1209.03,-399.67 1236.96,-381.34 1263.59,-366.87"/>
<polygon fill="black" stroke="black" points="1265.17,-369.99 1272.37,-362.22 1261.9,-363.8 1265.17,-369.99"/>
<text text-anchor="middle" x="1241.88" y="-390.16" font-family="Times New Roman,serif" font-size="14.00">Node</text>
</g>
<!-- 1610612737 -->
<g id="node17" class="node">
<title>1610612737</title>
<ellipse fill="none" stroke="black" cx="1062.5" cy="-131.93" rx="122.68" ry="39.07"/>
<text text-anchor="middle" x="1062.5" y="-142.25" font-family="Times New Roman,serif" font-size="14.00">RecoveryPoint: 1610612737</text>
<text text-anchor="middle" x="1062.5" y="-126.5" font-family="Times New Roman,serif" font-size="14.00">.2@4</text>
<text text-anchor="middle" x="1062.5" y="-110.75" font-family="Times New Roman,serif" font-size="14.00">in: &#39;S &#45;&gt; ABC Layout End&#39;</text>
</g>
<!-- 1610612738&#45;&gt;1610612737 -->
<g id="edge15" class="edge">
<title>1610612738&#45;&gt;1610612737</title>
<path fill="none" stroke="black" d="M1085.77,-288.19C1081.24,-257.95 1074.87,-215.48 1069.94,-182.6"/>
<polygon fill="black" stroke="black" points="1073.44,-182.28 1068.49,-172.9 1066.51,-183.31 1073.44,-182.28"/>
</g>
<!-- 1610612737&#45;&gt;&#45;1 -->
<g id="edge14" class="edge">
<title>1610612737&#45;&gt;&#45;1</title>
<path fill="none" stroke="black" d="M1006.89,-96.97C986.27,-84.37 963.09,-70.22 943.24,-58.09"/>
<polygon fill="black" stroke="black" points="945.14,-55.15 934.78,-52.92 941.49,-61.12 945.14,-55.15"/>
</g>
</g>
</svg>
