<?xml version="1.0" encoding="UTF-8" standalone="no"?>
<!DOCTYPE svg PUBLIC "-//W3C//DTD SVG 1.1//EN"
 "http://www.w3.org/Graphics/SVG/1.1/DTD/svg11.dtd">
<!-- Generated by graphviz version 12.0.0 (20240704.0754)
 -->
<!-- Title: Parser Pages: 1 -->
<svg width="1016pt" height="707pt"
 viewBox="0.00 0.00 1015.75 707.36" xmlns="http://www.w3.org/2000/svg" xmlns:xlink="http://www.w3.org/1999/xlink">
<g id="graph0" class="graph" transform="scale(1 1) rotate(0) translate(4 703.36)">
<title>Parser</title>
<polygon fill="white" stroke="none" points="-4,4 -4,-703.36 1011.75,-703.36 1011.75,4 -4,4"/>
<!-- Parser -->
<g id="node1" class="node">
<title>Parser</title>
<ellipse fill="none" stroke="black" cx="680.5" cy="-649.16" rx="143.37" ry="50.2"/>
<text text-anchor="middle" x="680.5" y="-667.36" font-family="Times New Roman,serif" font-size="14.00">Parser</text>
<text text-anchor="middle" x="680.5" y="-651.61" font-family="Times New Roman,serif" font-size="14.00">Input: &quot;a x c $&quot;</text>
<text text-anchor="middle" x="680.5" y="-635.86" font-family="Times New Roman,serif" font-size="14.00">Location: 4 (&#39;c&#39;)</text>
<text text-anchor="middle" x="680.5" y="-620.11" font-family="Times New Roman,serif" font-size="14.00">Step 34: Finding stacks to reduce</text>
</g>
<!-- todoLists -->
<g id="node7" class="node">
<title>todoLists</title>
<polygon fill="none" stroke="red" points="0,-510.71 0,-546.71 493,-546.71 493,-510.71 0,-510.71"/>
<text text-anchor="middle" x="11.38" y="-523.28" font-family="Times New Roman,serif" font-size="14.00">0</text>
<polyline fill="none" stroke="red" points="22.75,-510.71 22.75,-546.71"/>
<text text-anchor="middle" x="34.12" y="-523.28" font-family="Times New Roman,serif" font-size="14.00">1</text>
<polyline fill="none" stroke="red" points="45.5,-510.71 45.5,-546.71"/>
<text text-anchor="middle" x="56.88" y="-523.28" font-family="Times New Roman,serif" font-size="14.00">2</text>
<polyline fill="none" stroke="red" points="68.25,-510.71 68.25,-546.71"/>
<text text-anchor="middle" x="79.62" y="-523.28" font-family="Times New Roman,serif" font-size="14.00">3</text>
<polyline fill="none" stroke="red" points="91,-510.71 91,-546.71"/>
<text text-anchor="middle" x="102.38" y="-523.28" font-family="Times New Roman,serif" font-size="14.00">4</text>
<polyline fill="none" stroke="red" points="113.75,-510.71 113.75,-546.71"/>
<text text-anchor="middle" x="125.12" y="-523.28" font-family="Times New Roman,serif" font-size="14.00">5</text>
<polyline fill="none" stroke="red" points="136.5,-510.71 136.5,-546.71"/>
<text text-anchor="middle" x="147.88" y="-523.28" font-family="Times New Roman,serif" font-size="14.00">6</text>
<polyline fill="none" stroke="red" points="159.25,-510.71 159.25,-546.71"/>
<text text-anchor="middle" x="170.62" y="-523.28" font-family="Times New Roman,serif" font-size="14.00">7</text>
<polyline fill="none" stroke="red" points="182,-510.71 182,-546.71"/>
<text text-anchor="middle" x="193.38" y="-523.28" font-family="Times New Roman,serif" font-size="14.00">8</text>
<polyline fill="none" stroke="red" points="204.75,-510.71 204.75,-546.71"/>
<text text-anchor="middle" x="216.12" y="-523.28" font-family="Times New Roman,serif" font-size="14.00">9</text>
<polyline fill="none" stroke="red" points="227.5,-510.71 227.5,-546.71"/>
<text text-anchor="middle" x="242.25" y="-523.28" font-family="Times New Roman,serif" font-size="14.00">10</text>
<polyline fill="none" stroke="red" points="257,-510.71 257,-546.71"/>
<text text-anchor="middle" x="271.75" y="-523.28" font-family="Times New Roman,serif" font-size="14.00">11</text>
<polyline fill="none" stroke="red" points="286.5,-510.71 286.5,-546.71"/>
<text text-anchor="middle" x="301.25" y="-523.28" font-family="Times New Roman,serif" font-size="14.00">12</text>
<polyline fill="none" stroke="red" points="316,-510.71 316,-546.71"/>
<text text-anchor="middle" x="330.75" y="-523.28" font-family="Times New Roman,serif" font-size="14.00">13</text>
<polyline fill="none" stroke="red" points="345.5,-510.71 345.5,-546.71"/>
<text text-anchor="middle" x="360.25" y="-523.28" font-family="Times New Roman,serif" font-size="14.00">14</text>
<polyline fill="none" stroke="red" points="375,-510.71 375,-546.71"/>
<text text-anchor="middle" x="389.75" y="-523.28" font-family="Times New Roman,serif" font-size="14.00">15</text>
<polyline fill="none" stroke="red" points="404.5,-510.71 404.5,-546.71"/>
<text text-anchor="middle" x="419.25" y="-523.28" font-family="Times New Roman,serif" font-size="14.00">16</text>
<polyline fill="none" stroke="red" points="434,-510.71 434,-546.71"/>
<text text-anchor="middle" x="448.75" y="-523.28" font-family="Times New Roman,serif" font-size="14.00">17</text>
<polyline fill="none" stroke="red" points="463.5,-510.71 463.5,-546.71"/>
<text text-anchor="middle" x="478.25" y="-523.28" font-family="Times New Roman,serif" font-size="14.00">18</text>
</g>
<!-- Parser&#45;&gt;todoLists -->
<g id="edge6" class="edge">
<title>Parser&#45;&gt;todoLists</title>
<path fill="none" stroke="black" d="M568.17,-617.5C490.61,-596.33 389.59,-568.76 321.63,-550.21"/>
<polygon fill="black" stroke="black" points="322.62,-546.85 312.05,-547.6 320.78,-553.61 322.62,-546.85"/>
<text text-anchor="middle" x="450.38" y="-567.66" font-family="Times New Roman,serif" font-size="14.00">todo lists</text>
</g>
<!-- stacksToExpand -->
<g id="node8" class="node">
<title>stacksToExpand</title>
<polygon fill="none" stroke="black" points="751.5,-510.71 751.5,-546.71 805.5,-546.71 805.5,-510.71 751.5,-510.71"/>
<text text-anchor="middle" x="778.38" y="-523.28" font-family="Times New Roman,serif" font-size="14.00"> </text>
</g>
<!-- Parser&#45;&gt;stacksToExpand -->
<g id="edge7" class="edge">
<title>Parser&#45;&gt;stacksToExpand</title>
<path fill="none" stroke="black" d="M737.76,-602.67C744.57,-595.83 751.03,-588.52 756.5,-580.96 761.59,-573.92 765.82,-565.52 769.16,-557.57"/>
<polygon fill="black" stroke="black" points="772.42,-558.84 772.74,-548.25 765.88,-556.33 772.42,-558.84"/>
<text text-anchor="middle" x="811.75" y="-567.66" font-family="Times New Roman,serif" font-size="14.00">stacks to expand</text>
</g>
<!-- terminalsToReduce -->
<g id="node9" class="node">
<title>terminalsToReduce</title>
<polygon fill="none" stroke="black" points="463.5,-421.96 463.5,-457.96 517.5,-457.96 517.5,-421.96 463.5,-421.96"/>
<text text-anchor="middle" x="490.38" y="-434.53" font-family="Times New Roman,serif" font-size="14.00">0</text>
</g>
<!-- Parser&#45;&gt;terminalsToReduce -->
<g id="edge10" class="edge">
<title>Parser&#45;&gt;terminalsToReduce</title>
<path fill="none" stroke="black" d="M614.14,-604.44C592.34,-588.12 569.04,-568.37 550.75,-547.21 530.02,-523.21 512.95,-491 502.34,-468.35"/>
<polygon fill="black" stroke="black" points="505.62,-467.11 498.29,-459.46 499.25,-470.01 505.62,-467.11"/>
<text text-anchor="middle" x="603.38" y="-523.28" font-family="Times New Roman,serif" font-size="14.00">terminals to reduce</text>
</g>
<!-- nonTerminalsToReduce -->
<g id="node10" class="node">
<title>nonTerminalsToReduce</title>
<polygon fill="none" stroke="black" points="869.5,-510.71 869.5,-546.71 923.5,-546.71 923.5,-510.71 869.5,-510.71"/>
<text text-anchor="middle" x="896.38" y="-523.28" font-family="Times New Roman,serif" font-size="14.00"> </text>
</g>
<!-- Parser&#45;&gt;nonTerminalsToReduce -->
<g id="edge11" class="edge">
<title>Parser&#45;&gt;nonTerminalsToReduce</title>
<path fill="none" stroke="black" d="M795.39,-618.87C819.46,-609.33 843.56,-596.93 863.5,-580.96 871.57,-574.49 878.29,-565.49 883.52,-556.83"/>
<polygon fill="black" stroke="black" points="886.44,-558.77 888.22,-548.32 880.32,-555.38 886.44,-558.77"/>
<text text-anchor="middle" x="942.12" y="-567.66" font-family="Times New Roman,serif" font-size="14.00">non&#45;terminals to reduce</text>
</g>
<!-- error -->
<g id="node18" class="node">
<title>error</title>
<ellipse fill="none" stroke="black" cx="699.5" cy="-528.71" rx="34.1" ry="18"/>
<text text-anchor="middle" x="699.5" y="-523.28" font-family="Times New Roman,serif" font-size="14.00">Errors</text>
</g>
<!-- Parser&#45;&gt;error -->
<g id="edge16" class="edge">
<title>Parser&#45;&gt;error</title>
<path fill="none" stroke="black" d="M677.42,-598.56C677.74,-587.47 678.89,-575.84 681.5,-565.21 682.23,-562.22 683.25,-559.21 684.44,-556.26"/>
<polygon fill="black" stroke="black" points="687.5,-557.97 688.59,-547.43 681.17,-554.99 687.5,-557.97"/>
<text text-anchor="middle" x="719" y="-567.66" font-family="Times New Roman,serif" font-size="14.00">error tracking</text>
</g>
<!-- todo&#45;2 -->
<g id="node2" class="node">
<title>todo&#45;2</title>
<polygon fill="none" stroke="black" points="286.5,-421.96 286.5,-457.96 340.5,-457.96 340.5,-421.96 286.5,-421.96"/>
<text text-anchor="middle" x="313.38" y="-434.53" font-family="Times New Roman,serif" font-size="14.00">0</text>
</g>
<!-- 1610612738 -->
<g id="node3" class="node">
<title>1610612738</title>
<ellipse fill="none" stroke="black" cx="286.5" cy="-327.42" rx="116.32" ry="39.07"/>
<text text-anchor="middle" x="286.5" y="-337.74" font-family="Times New Roman,serif" font-size="14.00">Skipping: </text>
<text text-anchor="middle" x="286.5" y="-321.99" font-family="Times New Roman,serif" font-size="14.00">.0@4</text>
<text text-anchor="middle" x="286.5" y="-306.24" font-family="Times New Roman,serif" font-size="14.00">in: &#39;S &#45;&gt; ABC Layout End&#39;</text>
</g>
<!-- todo&#45;2&#45;&gt;1610612738 -->
<g id="edge3" class="edge">
<title>todo&#45;2:sw&#45;&gt;1610612738</title>
<path fill="none" stroke="black" d="M286.5,-421.46C275.29,-410.24 272.67,-393.95 273.71,-378.12"/>
<polygon fill="black" stroke="black" points="277.18,-378.59 274.87,-368.26 270.23,-377.78 277.18,-378.59"/>
<text text-anchor="middle" x="292.25" y="-390.16" font-family="Times New Roman,serif" font-size="14.00">Stack</text>
</g>
<!-- 1401095299 -->
<g id="node6" class="node">
<title>1401095299</title>
<polygon fill="none" stroke="black" points="672.4,-309.9 672.4,-344.93 598.65,-369.71 494.35,-369.71 420.6,-344.93 420.6,-309.9 494.35,-285.13 598.65,-285.13 672.4,-309.9"/>
<text text-anchor="middle" x="546.5" y="-337.74" font-family="Times New Roman,serif" font-size="14.00">Skipped</text>
<text text-anchor="middle" x="546.5" y="-321.99" font-family="Times New Roman,serif" font-size="14.00">.2@4: &#160;&quot;c&quot;</text>
<text text-anchor="middle" x="546.5" y="-306.24" font-family="Times New Roman,serif" font-size="14.00">in: &#39;S &#45;&gt; ABC Layout End&#39;</text>
</g>
<!-- todo&#45;2&#45;&gt;1401095299 -->
<g id="edge4" class="edge">
<title>todo&#45;2:se&#45;&gt;1401095299</title>
<path fill="none" stroke="black" d="M340.25,-421.46C367.74,-393.96 404.81,-373.82 439.93,-359.46"/>
<polygon fill="black" stroke="black" points="440.85,-362.86 448.86,-355.93 438.27,-356.35 440.85,-362.86"/>
<text text-anchor="middle" x="392.88" y="-390.16" font-family="Times New Roman,serif" font-size="14.00">Node</text>
</g>
<!-- 1610612737 -->
<g id="node4" class="node">
<title>1610612737</title>
<ellipse fill="none" stroke="black" cx="484.5" cy="-131.93" rx="122.68" ry="39.07"/>
<text text-anchor="middle" x="484.5" y="-142.25" font-family="Times New Roman,serif" font-size="14.00">RecoveryPoint: 1610612737</text>
<text text-anchor="middle" x="484.5" y="-126.5" font-family="Times New Roman,serif" font-size="14.00">.2@4</text>
<text text-anchor="middle" x="484.5" y="-110.75" font-family="Times New Roman,serif" font-size="14.00">in: &#39;S &#45;&gt; ABC Layout End&#39;</text>
</g>
<!-- 1610612738&#45;&gt;1610612737 -->
<g id="edge2" class="edge">
<title>1610612738&#45;&gt;1610612737</title>
<path fill="none" stroke="black" d="M323.74,-290.02C356.41,-258.1 404.02,-211.58 438.95,-177.44"/>
<polygon fill="black" stroke="black" points="441.3,-180.04 446.01,-170.55 436.41,-175.03 441.3,-180.04"/>
</g>
<!-- &#45;1 -->
<g id="node5" class="node">
<title>&#45;1</title>
<ellipse fill="none" stroke="black" cx="592.5" cy="-27.93" rx="73.36" ry="27.93"/>
<text text-anchor="middle" x="592.5" y="-30.38" font-family="Times New Roman,serif" font-size="14.00">NonTerminal: S</text>
<text text-anchor="middle" x="592.5" y="-14.63" font-family="Times New Roman,serif" font-size="14.00">.0@&#45;1</text>
</g>
<!-- 1610612737&#45;&gt;&#45;1 -->
<g id="edge1" class="edge">
<title>1610612737&#45;&gt;&#45;1</title>
<path fill="none" stroke="black" d="M523.19,-94.39C534.38,-83.83 546.52,-72.35 557.47,-62.01"/>
<polygon fill="black" stroke="black" points="559.61,-64.8 564.48,-55.39 554.81,-59.71 559.61,-64.8"/>
</g>
<!-- todoLists&#45;&gt;todo&#45;2 -->
<g id="edge5" class="edge">
<title>todoLists:2&#45;&gt;todo&#45;2</title>
<path fill="none" stroke="black" d="M56.88,-510.21C56.88,-465.62 203.1,-448.89 274.79,-443.36"/>
<polygon fill="black" stroke="black" points="274.81,-446.87 284.53,-442.65 274.3,-439.89 274.81,-446.87"/>
</g>
<!-- terminalsToReduce&#45;&gt;1610612738 -->
<g id="edge8" class="edge">
<title>terminalsToReduce:sw&#45;&gt;1610612738</title>
<path fill="none" stroke="black" d="M463.5,-421.46C438.47,-396.42 405.29,-376.57 374.44,-361.74"/>
<polygon fill="black" stroke="black" points="375.99,-358.61 365.45,-357.55 373.03,-364.95 375.99,-358.61"/>
<text text-anchor="middle" x="454.25" y="-390.16" font-family="Times New Roman,serif" font-size="14.00">Stack</text>
</g>
<!-- terminalsToReduce&#45;&gt;1401095299 -->
<g id="edge9" class="edge">
<title>terminalsToReduce:se&#45;&gt;1401095299</title>
<path fill="none" stroke="black" d="M517.25,-421.46C528.13,-410.58 534.97,-395.71 539.27,-381.04"/>
<polygon fill="black" stroke="black" points="542.64,-381.96 541.71,-371.41 535.86,-380.24 542.64,-381.96"/>
<text text-anchor="middle" x="551.88" y="-390.16" font-family="Times New Roman,serif" font-size="14.00">Node</text>
</g>
<!-- 37 -->
<g id="node11" class="node">
<title>37</title>
<ellipse fill="none" stroke="black" cx="685.5" cy="-228.06" rx="116.32" ry="39.07"/>
<text text-anchor="middle" x="685.5" y="-238.39" font-family="Times New Roman,serif" font-size="14.00">NonTerminal: End</text>
<text text-anchor="middle" x="685.5" y="-222.64" font-family="Times New Roman,serif" font-size="14.00">.2@4</text>
<text text-anchor="middle" x="685.5" y="-206.89" font-family="Times New Roman,serif" font-size="14.00">in: &#39;S &#45;&gt; ABC Layout End&#39;</text>
</g>
<!-- 37&#45;&gt;&#45;1 -->
<g id="edge12" class="edge">
<title>37&#45;&gt;&#45;1</title>
<path fill="none" stroke="black" d="M667.79,-189.33C651.17,-153.92 626.46,-101.28 609.93,-66.06"/>
<polygon fill="black" stroke="black" points="613.14,-64.67 605.72,-57.1 606.8,-67.64 613.14,-64.67"/>
</g>
<!-- unexpandableNodes -->
<g id="node12" class="node">
<title>unexpandableNodes</title>
<polygon fill="none" stroke="black" points="751.5,-421.96 751.5,-457.96 805.5,-457.96 805.5,-421.96 751.5,-421.96"/>
<text text-anchor="middle" x="778.38" y="-434.53" font-family="Times New Roman,serif" font-size="14.00">0</text>
</g>
<!-- unexpandableNodes&#45;&gt;37 -->
<g id="edge13" class="edge">
<title>unexpandableNodes:0&#45;&gt;37</title>
<path fill="none" stroke="black" d="M760.11,-421.48C747.84,-408.12 732.21,-389.07 722.5,-369.71 708.13,-341.04 698.91,-306.2 693.27,-278.37"/>
<polygon fill="black" stroke="black" points="696.75,-277.94 691.43,-268.79 689.88,-279.27 696.75,-277.94"/>
</g>
<!-- 86 -->
<g id="node13" class="node">
<title>86</title>
<ellipse fill="none" stroke="black" cx="793.5" cy="-327.42" rx="62.23" ry="39.07"/>
<text text-anchor="middle" x="793.5" y="-337.74" font-family="Times New Roman,serif" font-size="14.00">Literal: </text>
<text text-anchor="middle" x="793.5" y="-321.99" font-family="Times New Roman,serif" font-size="14.00">.0@&#45;1</text>
<text text-anchor="middle" x="793.5" y="-306.24" font-family="Times New Roman,serif" font-size="14.00">in: &#39;End &#45;&gt; $&#39;</text>
</g>
<!-- unmatchableLeafNodes -->
<g id="node14" class="node">
<title>unmatchableLeafNodes</title>
<polygon fill="none" stroke="black" points="845.5,-421.96 845.5,-457.96 899.5,-457.96 899.5,-421.96 845.5,-421.96"/>
<text text-anchor="middle" x="858.88" y="-434.53" font-family="Times New Roman,serif" font-size="14.00">0</text>
<polyline fill="none" stroke="black" points="872.25,-421.96 872.25,-457.96"/>
<text text-anchor="middle" x="885.62" y="-434.53" font-family="Times New Roman,serif" font-size="14.00">1</text>
</g>
<!-- unmatchableLeafNodes&#45;&gt;86 -->
<g id="edge14" class="edge">
<title>unmatchableLeafNodes:0&#45;&gt;86</title>
<path fill="none" stroke="black" d="M844.5,-439.96C829.76,-439.96 816.04,-407.31 806.55,-377.35"/>
<polygon fill="black" stroke="black" points="809.95,-376.49 803.69,-367.94 803.25,-378.52 809.95,-376.49"/>
</g>
<!-- 78 -->
<g id="node15" class="node">
<title>78</title>
<ellipse fill="none" stroke="black" cx="909.5" cy="-327.42" rx="35.71" ry="27.93"/>
<text text-anchor="middle" x="909.5" y="-329.87" font-family="Times New Roman,serif" font-size="14.00">Char: </text>
<text text-anchor="middle" x="909.5" y="-314.12" font-family="Times New Roman,serif" font-size="14.00">.0@&#45;1</text>
</g>
<!-- unmatchableLeafNodes&#45;&gt;78 -->
<g id="edge15" class="edge">
<title>unmatchableLeafNodes:1&#45;&gt;78</title>
<path fill="none" stroke="black" d="M885.62,-421.46C885.62,-402.44 890.36,-381.91 895.62,-364.98"/>
<polygon fill="black" stroke="black" points="898.81,-366.46 898.62,-355.87 892.16,-364.27 898.81,-366.46"/>
</g>
<!-- unmatchableMidProductionNodes -->
<g id="node16" class="node">
<title>unmatchableMidProductionNodes</title>
<polygon fill="none" stroke="black" points="535.5,-421.96 535.5,-457.96 589.5,-457.96 589.5,-421.96 535.5,-421.96"/>
<text text-anchor="middle" x="562.38" y="-434.53" font-family="Times New Roman,serif" font-size="14.00"> </text>
</g>
<!-- filteredNodes -->
<g id="node17" class="node">
<title>filteredNodes</title>
<polygon fill="none" stroke="black" points="679.5,-421.96 679.5,-457.96 733.5,-457.96 733.5,-421.96 679.5,-421.96"/>
<text text-anchor="middle" x="706.38" y="-434.53" font-family="Times New Roman,serif" font-size="14.00"> </text>
</g>
<!-- error&#45;&gt;unexpandableNodes -->
<g id="edge17" class="edge">
<title>error&#45;&gt;unexpandableNodes</title>
<path fill="none" stroke="black" d="M720,-514.21C728.45,-508.08 737.99,-500.38 745.5,-492.21 752.22,-484.89 758.44,-476.05 763.64,-467.79"/>
<polygon fill="black" stroke="black" points="766.51,-469.81 768.64,-459.44 760.5,-466.21 766.51,-469.81"/>
<text text-anchor="middle" x="795.75" y="-478.91" font-family="Times New Roman,serif" font-size="14.00">unexpandable</text>
</g>
<!-- error&#45;&gt;unmatchableLeafNodes -->
<g id="edge18" class="edge">
<title>error&#45;&gt;unmatchableLeafNodes</title>
<path fill="none" stroke="black" d="M725.12,-516.3C730.77,-514.06 736.78,-511.89 742.5,-510.21 784.15,-497.96 802.31,-516.18 838.5,-492.21 847.42,-486.29 854.57,-477.15 859.97,-468.21"/>
<polygon fill="black" stroke="black" points="862.88,-470.18 864.59,-459.72 856.74,-466.83 862.88,-470.18"/>
<text text-anchor="middle" x="903" y="-478.91" font-family="Times New Roman,serif" font-size="14.00">unmatchable leafs</text>
</g>
<!-- error&#45;&gt;unmatchableMidProductionNodes -->
<g id="edge19" class="edge">
<title>error&#45;&gt;unmatchableMidProductionNodes</title>
<path fill="none" stroke="black" d="M670.24,-519.01C660.48,-516.16 649.54,-513 639.5,-510.21 609.38,-501.83 592.65,-515.23 571.5,-492.21 565.85,-486.05 563.11,-477.66 561.91,-469.45"/>
<polygon fill="black" stroke="black" points="565.42,-469.45 561.21,-459.73 558.44,-469.95 565.42,-469.45"/>
<text text-anchor="middle" x="634.5" y="-478.91" font-family="Times New Roman,serif" font-size="14.00">unmatchable mid&#45;prod</text>
</g>
<!-- error&#45;&gt;filteredNodes -->
<g id="edge20" class="edge">
<title>error&#45;&gt;filteredNodes</title>
<path fill="none" stroke="black" d="M700.88,-510.57C701.83,-498.88 703.1,-483.12 704.19,-469.56"/>
<polygon fill="black" stroke="black" points="707.66,-470.11 704.97,-459.86 700.68,-469.55 707.66,-470.11"/>
<text text-anchor="middle" x="722.62" y="-478.91" font-family="Times New Roman,serif" font-size="14.00">filtered</text>
</g>
</g>
</svg>
