<?xml version="1.0" encoding="UTF-8" standalone="no"?>
<!DOCTYPE svg PUBLIC "-//W3C//DTD SVG 1.1//EN"
 "http://www.w3.org/Graphics/SVG/1.1/DTD/svg11.dtd">
<!-- Generated by graphviz version 12.0.0 (20240704.0754)
 -->
<!-- Title: Parser Pages: 1 -->
<svg width="1153pt" height="630pt"
 viewBox="0.00 0.00 1152.50 630.23" xmlns="http://www.w3.org/2000/svg" xmlns:xlink="http://www.w3.org/1999/xlink">
<g id="graph0" class="graph" transform="scale(1 1) rotate(0) translate(4 626.23)">
<title>Parser</title>
<polygon fill="white" stroke="none" points="-4,4 -4,-626.23 1148.5,-626.23 1148.5,4 -4,4"/>
<!-- Parser -->
<g id="node1" class="node">
<title>Parser</title>
<ellipse fill="none" stroke="black" cx="657.5" cy="-572.02" rx="121.62" ry="50.2"/>
<text text-anchor="middle" x="657.5" y="-590.22" font-family="Times New Roman,serif" font-size="14.00">Parser</text>
<text text-anchor="middle" x="657.5" y="-574.47" font-family="Times New Roman,serif" font-size="14.00">Input: &quot;a x c $&quot;</text>
<text text-anchor="middle" x="657.5" y="-558.72" font-family="Times New Roman,serif" font-size="14.00">Location: 5 (&#39; &#39;)</text>
<text text-anchor="middle" x="657.5" y="-542.97" font-family="Times New Roman,serif" font-size="14.00">Step 36: Reducing terminals</text>
</g>
<!-- todoLists -->
<g id="node7" class="node">
<title>todoLists</title>
<polygon fill="none" stroke="black" points="0,-433.57 0,-469.57 493,-469.57 493,-433.57 0,-433.57"/>
<text text-anchor="middle" x="11.38" y="-446.14" font-family="Times New Roman,serif" font-size="14.00">0</text>
<polyline fill="none" stroke="black" points="22.75,-433.57 22.75,-469.57"/>
<text text-anchor="middle" x="34.12" y="-446.14" font-family="Times New Roman,serif" font-size="14.00">1</text>
<polyline fill="none" stroke="black" points="45.5,-433.57 45.5,-469.57"/>
<text text-anchor="middle" x="56.88" y="-446.14" font-family="Times New Roman,serif" font-size="14.00">2</text>
<polyline fill="none" stroke="black" points="68.25,-433.57 68.25,-469.57"/>
<text text-anchor="middle" x="79.62" y="-446.14" font-family="Times New Roman,serif" font-size="14.00">3</text>
<polyline fill="none" stroke="black" points="91,-433.57 91,-469.57"/>
<text text-anchor="middle" x="102.38" y="-446.14" font-family="Times New Roman,serif" font-size="14.00">4</text>
<polyline fill="none" stroke="black" points="113.75,-433.57 113.75,-469.57"/>
<text text-anchor="middle" x="125.12" y="-446.14" font-family="Times New Roman,serif" font-size="14.00">5</text>
<polyline fill="none" stroke="black" points="136.5,-433.57 136.5,-469.57"/>
<text text-anchor="middle" x="147.88" y="-446.14" font-family="Times New Roman,serif" font-size="14.00">6</text>
<polyline fill="none" stroke="black" points="159.25,-433.57 159.25,-469.57"/>
<text text-anchor="middle" x="170.62" y="-446.14" font-family="Times New Roman,serif" font-size="14.00">7</text>
<polyline fill="none" stroke="black" points="182,-433.57 182,-469.57"/>
<text text-anchor="middle" x="193.38" y="-446.14" font-family="Times New Roman,serif" font-size="14.00">8</text>
<polyline fill="none" stroke="black" points="204.75,-433.57 204.75,-469.57"/>
<text text-anchor="middle" x="216.12" y="-446.14" font-family="Times New Roman,serif" font-size="14.00">9</text>
<polyline fill="none" stroke="black" points="227.5,-433.57 227.5,-469.57"/>
<text text-anchor="middle" x="242.25" y="-446.14" font-family="Times New Roman,serif" font-size="14.00">10</text>
<polyline fill="none" stroke="black" points="257,-433.57 257,-469.57"/>
<text text-anchor="middle" x="271.75" y="-446.14" font-family="Times New Roman,serif" font-size="14.00">11</text>
<polyline fill="none" stroke="black" points="286.5,-433.57 286.5,-469.57"/>
<text text-anchor="middle" x="301.25" y="-446.14" font-family="Times New Roman,serif" font-size="14.00">12</text>
<polyline fill="none" stroke="black" points="316,-433.57 316,-469.57"/>
<text text-anchor="middle" x="330.75" y="-446.14" font-family="Times New Roman,serif" font-size="14.00">13</text>
<polyline fill="none" stroke="black" points="345.5,-433.57 345.5,-469.57"/>
<text text-anchor="middle" x="360.25" y="-446.14" font-family="Times New Roman,serif" font-size="14.00">14</text>
<polyline fill="none" stroke="black" points="375,-433.57 375,-469.57"/>
<text text-anchor="middle" x="389.75" y="-446.14" font-family="Times New Roman,serif" font-size="14.00">15</text>
<polyline fill="none" stroke="black" points="404.5,-433.57 404.5,-469.57"/>
<text text-anchor="middle" x="419.25" y="-446.14" font-family="Times New Roman,serif" font-size="14.00">16</text>
<polyline fill="none" stroke="black" points="434,-433.57 434,-469.57"/>
<text text-anchor="middle" x="448.75" y="-446.14" font-family="Times New Roman,serif" font-size="14.00">17</text>
<polyline fill="none" stroke="black" points="463.5,-433.57 463.5,-469.57"/>
<text text-anchor="middle" x="478.25" y="-446.14" font-family="Times New Roman,serif" font-size="14.00">18</text>
</g>
<!-- Parser&#45;&gt;todoLists -->
<g id="edge6" class="edge">
<title>Parser&#45;&gt;todoLists</title>
<path fill="none" stroke="black" d="M558.53,-542.5C484.28,-521.1 384.38,-492.31 317.83,-473.13"/>
<polygon fill="black" stroke="black" points="319.07,-469.84 308.49,-470.44 317.13,-476.57 319.07,-469.84"/>
<text text-anchor="middle" x="441.38" y="-490.52" font-family="Times New Roman,serif" font-size="14.00">todo lists</text>
</g>
<!-- stacksToExpand -->
<g id="node8" class="node">
<title>stacksToExpand</title>
<polygon fill="none" stroke="black" points="653.5,-433.57 653.5,-469.57 707.5,-469.57 707.5,-433.57 653.5,-433.57"/>
<text text-anchor="middle" x="680.38" y="-446.14" font-family="Times New Roman,serif" font-size="14.00"> </text>
</g>
<!-- Parser&#45;&gt;stacksToExpand -->
<g id="edge7" class="edge">
<title>Parser&#45;&gt;stacksToExpand</title>
<path fill="none" stroke="black" d="M654.16,-521.7C654.56,-510.48 655.92,-498.73 659,-488.07 659.81,-485.28 660.89,-482.5 662.14,-479.78"/>
<polygon fill="black" stroke="black" points="665.16,-481.55 666.88,-471.1 659.01,-478.2 665.16,-481.55"/>
<text text-anchor="middle" x="706.75" y="-490.52" font-family="Times New Roman,serif" font-size="14.00">stacks to expand</text>
</g>
<!-- terminalsToReduce -->
<g id="node9" class="node">
<title>terminalsToReduce</title>
<polygon fill="none" stroke="red" points="430.5,-344.82 430.5,-380.82 484.5,-380.82 484.5,-344.82 430.5,-344.82"/>
<text text-anchor="middle" x="457.38" y="-357.39" font-family="Times New Roman,serif" font-size="14.00">0</text>
</g>
<!-- Parser&#45;&gt;terminalsToReduce -->
<g id="edge10" class="edge">
<title>Parser&#45;&gt;terminalsToReduce</title>
<path fill="none" stroke="black" d="M600.92,-527.11C580.47,-510.18 557.76,-490.08 538.75,-470.07 514.79,-444.84 491.05,-412.75 475.47,-390.47"/>
<polygon fill="black" stroke="black" points="478.54,-388.76 469.98,-382.52 472.79,-392.74 478.54,-388.76"/>
<text text-anchor="middle" x="592.38" y="-446.14" font-family="Times New Roman,serif" font-size="14.00">terminals to reduce</text>
</g>
<!-- nonTerminalsToReduce -->
<g id="node10" class="node">
<title>nonTerminalsToReduce</title>
<polygon fill="none" stroke="black" points="748.5,-433.57 748.5,-469.57 802.5,-469.57 802.5,-433.57 748.5,-433.57"/>
<text text-anchor="middle" x="775.38" y="-446.14" font-family="Times New Roman,serif" font-size="14.00"> </text>
</g>
<!-- Parser&#45;&gt;nonTerminalsToReduce -->
<g id="edge11" class="edge">
<title>Parser&#45;&gt;nonTerminalsToReduce</title>
<path fill="none" stroke="black" d="M726.12,-530.21C736.12,-522.3 745.67,-513.45 753.5,-503.82 759.04,-497 763.42,-488.58 766.76,-480.54"/>
<polygon fill="black" stroke="black" points="769.95,-482.03 770.16,-471.43 763.39,-479.58 769.95,-482.03"/>
<text text-anchor="middle" x="828.12" y="-490.52" font-family="Times New Roman,serif" font-size="14.00">non&#45;terminals to reduce</text>
</g>
<!-- error -->
<g id="node15" class="node">
<title>error</title>
<ellipse fill="none" stroke="black" cx="929.5" cy="-451.57" rx="34.1" ry="18"/>
<text text-anchor="middle" x="929.5" y="-446.14" font-family="Times New Roman,serif" font-size="14.00">Errors</text>
</g>
<!-- Parser&#45;&gt;error -->
<g id="edge12" class="edge">
<title>Parser&#45;&gt;error</title>
<path fill="none" stroke="black" d="M773.68,-556.4C815.79,-546.71 861.74,-530.6 897.5,-503.82 905.83,-497.58 912.51,-488.49 917.56,-479.68"/>
<polygon fill="black" stroke="black" points="920.56,-481.5 922.06,-471.01 914.35,-478.28 920.56,-481.5"/>
<text text-anchor="middle" x="949" y="-490.52" font-family="Times New Roman,serif" font-size="14.00">error tracking</text>
</g>
<!-- todo&#45;1 -->
<g id="node2" class="node">
<title>todo&#45;1</title>
<polygon fill="none" stroke="black" points="223.5,-344.82 223.5,-380.82 277.5,-380.82 277.5,-344.82 223.5,-344.82"/>
<text text-anchor="middle" x="250.38" y="-357.39" font-family="Times New Roman,serif" font-size="14.00">0</text>
</g>
<!-- 1610612738 -->
<g id="node3" class="node">
<title>1610612738</title>
<ellipse fill="none" stroke="black" cx="223.5" cy="-250.28" rx="116.32" ry="39.07"/>
<text text-anchor="middle" x="223.5" y="-260.61" font-family="Times New Roman,serif" font-size="14.00">Skipping: </text>
<text text-anchor="middle" x="223.5" y="-244.86" font-family="Times New Roman,serif" font-size="14.00">.0@4</text>
<text text-anchor="middle" x="223.5" y="-229.11" font-family="Times New Roman,serif" font-size="14.00">in: &#39;S &#45;&gt; ABC Layout End&#39;</text>
</g>
<!-- todo&#45;1&#45;&gt;1610612738 -->
<g id="edge3" class="edge">
<title>todo&#45;1:sw&#45;&gt;1610612738</title>
<path fill="none" stroke="black" d="M223.5,-344.32C212.29,-333.11 209.67,-316.81 210.71,-300.98"/>
<polygon fill="black" stroke="black" points="214.18,-301.46 211.87,-291.12 207.23,-300.64 214.18,-301.46"/>
<text text-anchor="middle" x="229.25" y="-313.02" font-family="Times New Roman,serif" font-size="14.00">Stack</text>
</g>
<!-- 1401095299 -->
<g id="node6" class="node">
<title>1401095299</title>
<polygon fill="none" stroke="black" points="609.4,-232.77 609.4,-267.8 535.65,-292.57 431.35,-292.57 357.6,-267.8 357.6,-232.77 431.35,-208 535.65,-208 609.4,-232.77"/>
<text text-anchor="middle" x="483.5" y="-260.61" font-family="Times New Roman,serif" font-size="14.00">Skipped</text>
<text text-anchor="middle" x="483.5" y="-244.86" font-family="Times New Roman,serif" font-size="14.00">.2@4: &#160;&quot;c&quot;</text>
<text text-anchor="middle" x="483.5" y="-229.11" font-family="Times New Roman,serif" font-size="14.00">in: &#39;S &#45;&gt; ABC Layout End&#39;</text>
</g>
<!-- todo&#45;1&#45;&gt;1401095299 -->
<g id="edge4" class="edge">
<title>todo&#45;1:se&#45;&gt;1401095299</title>
<path fill="none" stroke="black" d="M277.25,-344.32C304.74,-316.83 341.81,-296.69 376.93,-282.32"/>
<polygon fill="black" stroke="black" points="377.85,-285.72 385.86,-278.79 375.27,-279.21 377.85,-285.72"/>
<text text-anchor="middle" x="330.88" y="-313.02" font-family="Times New Roman,serif" font-size="14.00">Node</text>
</g>
<!-- 1610612737 -->
<g id="node4" class="node">
<title>1610612737</title>
<ellipse fill="none" stroke="black" cx="223.5" cy="-131.93" rx="122.68" ry="39.07"/>
<text text-anchor="middle" x="223.5" y="-142.25" font-family="Times New Roman,serif" font-size="14.00">RecoveryPoint: 1610612737</text>
<text text-anchor="middle" x="223.5" y="-126.5" font-family="Times New Roman,serif" font-size="14.00">.2@4</text>
<text text-anchor="middle" x="223.5" y="-110.75" font-family="Times New Roman,serif" font-size="14.00">in: &#39;S &#45;&gt; ABC Layout End&#39;</text>
</g>
<!-- 1610612738&#45;&gt;1610612737 -->
<g id="edge2" class="edge">
<title>1610612738&#45;&gt;1610612737</title>
<path fill="none" stroke="black" d="M223.5,-210.86C223.5,-201.83 223.5,-192.07 223.5,-182.62"/>
<polygon fill="black" stroke="black" points="227,-182.82 223.5,-172.82 220,-182.82 227,-182.82"/>
</g>
<!-- &#45;1 -->
<g id="node5" class="node">
<title>&#45;1</title>
<ellipse fill="none" stroke="black" cx="223.5" cy="-27.93" rx="73.36" ry="27.93"/>
<text text-anchor="middle" x="223.5" y="-30.38" font-family="Times New Roman,serif" font-size="14.00">NonTerminal: S</text>
<text text-anchor="middle" x="223.5" y="-14.63" font-family="Times New Roman,serif" font-size="14.00">.0@&#45;1</text>
</g>
<!-- 1610612737&#45;&gt;&#45;1 -->
<g id="edge1" class="edge">
<title>1610612737&#45;&gt;&#45;1</title>
<path fill="none" stroke="black" d="M223.5,-92.37C223.5,-84.26 223.5,-75.7 223.5,-67.58"/>
<polygon fill="black" stroke="black" points="227,-67.63 223.5,-57.63 220,-67.63 227,-67.63"/>
</g>
<!-- todoLists&#45;&gt;todo&#45;1 -->
<g id="edge5" class="edge">
<title>todoLists:1&#45;&gt;todo&#45;1</title>
<path fill="none" stroke="black" d="M34.12,-433.07C34.12,-396.2 149.52,-376.25 211.77,-368.17"/>
<polygon fill="black" stroke="black" points="212.11,-371.65 221.59,-366.94 211.24,-364.71 212.11,-371.65"/>
</g>
<!-- terminalsToReduce&#45;&gt;1610612738 -->
<g id="edge8" class="edge">
<title>terminalsToReduce:sw&#45;&gt;1610612738</title>
<path fill="none" stroke="black" d="M430.5,-344.32C412.5,-326.32 359.92,-302.78 312.27,-283.89"/>
<polygon fill="black" stroke="black" points="313.55,-280.63 302.97,-280.24 311,-287.15 313.55,-280.63"/>
<text text-anchor="middle" x="420.25" y="-313.02" font-family="Times New Roman,serif" font-size="14.00">Stack</text>
</g>
<!-- terminalsToReduce&#45;&gt;1401095299 -->
<g id="edge9" class="edge">
<title>terminalsToReduce:se&#45;&gt;1401095299</title>
<path fill="none" stroke="black" d="M484.25,-344.32C494.72,-333.85 497.59,-318.96 496.97,-304.15"/>
<polygon fill="black" stroke="black" points="500.48,-304.03 496.03,-294.42 493.51,-304.71 500.48,-304.03"/>
<text text-anchor="middle" x="512.88" y="-313.02" font-family="Times New Roman,serif" font-size="14.00">Node</text>
</g>
<!-- unexpandableNodes -->
<g id="node11" class="node">
<title>unexpandableNodes</title>
<polygon fill="none" stroke="black" points="938.5,-344.82 938.5,-380.82 992.5,-380.82 992.5,-344.82 938.5,-344.82"/>
<text text-anchor="middle" x="965.38" y="-357.39" font-family="Times New Roman,serif" font-size="14.00"> </text>
</g>
<!-- unmatchableLeafNodes -->
<g id="node12" class="node">
<title>unmatchableLeafNodes</title>
<polygon fill="none" stroke="black" points="1035.5,-344.82 1035.5,-380.82 1089.5,-380.82 1089.5,-344.82 1035.5,-344.82"/>
<text text-anchor="middle" x="1062.38" y="-357.39" font-family="Times New Roman,serif" font-size="14.00"> </text>
</g>
<!-- unmatchableMidProductionNodes -->
<g id="node13" class="node">
<title>unmatchableMidProductionNodes</title>
<polygon fill="none" stroke="black" points="720.5,-344.82 720.5,-380.82 774.5,-380.82 774.5,-344.82 720.5,-344.82"/>
<text text-anchor="middle" x="747.38" y="-357.39" font-family="Times New Roman,serif" font-size="14.00"> </text>
</g>
<!-- filteredNodes -->
<g id="node14" class="node">
<title>filteredNodes</title>
<polygon fill="none" stroke="black" points="866.5,-344.82 866.5,-380.82 920.5,-380.82 920.5,-344.82 866.5,-344.82"/>
<text text-anchor="middle" x="893.38" y="-357.39" font-family="Times New Roman,serif" font-size="14.00"> </text>
</g>
<!-- error&#45;&gt;unexpandableNodes -->
<g id="edge13" class="edge">
<title>error&#45;&gt;unexpandableNodes</title>
<path fill="none" stroke="black" d="M936.44,-433.84C941.41,-421.88 948.21,-405.49 953.98,-391.58"/>
<polygon fill="black" stroke="black" points="957.15,-393.06 957.75,-382.49 950.69,-390.38 957.15,-393.06"/>
<text text-anchor="middle" x="988.75" y="-401.77" font-family="Times New Roman,serif" font-size="14.00">unexpandable</text>
</g>
<!-- error&#45;&gt;unmatchableLeafNodes -->
<g id="edge14" class="edge">
<title>error&#45;&gt;unmatchableLeafNodes</title>
<path fill="none" stroke="black" d="M961.72,-445.28C983.32,-440.4 1011.39,-431.36 1031.5,-415.07 1039.31,-408.74 1045.65,-399.88 1050.5,-391.31"/>
<polygon fill="black" stroke="black" points="1053.56,-393.02 1055,-382.52 1047.33,-389.83 1053.56,-393.02"/>
<text text-anchor="middle" x="1095" y="-401.77" font-family="Times New Roman,serif" font-size="14.00">unmatchable leafs</text>
</g>
<!-- error&#45;&gt;unmatchableMidProductionNodes -->
<g id="edge15" class="edge">
<title>error&#45;&gt;unmatchableMidProductionNodes</title>
<path fill="none" stroke="black" d="M896.26,-447.1C854.38,-442.11 785.58,-431.64 766.5,-415.07 759.63,-409.1 755.23,-400.4 752.43,-391.87"/>
<polygon fill="black" stroke="black" points="755.88,-391.23 749.97,-382.44 749.11,-393 755.88,-391.23"/>
<text text-anchor="middle" x="829.5" y="-401.77" font-family="Times New Roman,serif" font-size="14.00">unmatchable mid&#45;prod</text>
</g>
<!-- error&#45;&gt;filteredNodes -->
<g id="edge16" class="edge">
<title>error&#45;&gt;filteredNodes</title>
<path fill="none" stroke="black" d="M914.32,-435.13C909.4,-429.29 904.4,-422.29 901.25,-415.07 898.18,-408.03 896.3,-399.99 895.15,-392.4"/>
<polygon fill="black" stroke="black" points="898.64,-392.11 894.05,-382.56 891.68,-392.88 898.64,-392.11"/>
<text text-anchor="middle" x="919.62" y="-401.77" font-family="Times New Roman,serif" font-size="14.00">filtered</text>
</g>
</g>
</svg>
