<?xml version="1.0" encoding="UTF-8" standalone="no"?>
<!DOCTYPE svg PUBLIC "-//W3C//DTD SVG 1.1//EN"
 "http://www.w3.org/Graphics/SVG/1.1/DTD/svg11.dtd">
<!-- Generated by graphviz version 12.0.0 (20240704.0754)
 -->
<!-- Title: Parser Pages: 1 -->
<svg width="1233pt" height="286pt"
 viewBox="0.00 0.00 1233.00 285.91" xmlns="http://www.w3.org/2000/svg" xmlns:xlink="http://www.w3.org/1999/xlink">
<g id="graph0" class="graph" transform="scale(1 1) rotate(0) translate(4 281.91)">
<title>Parser</title>
<polygon fill="white" stroke="none" points="-4,4 -4,-281.91 1229,-281.91 1229,4 -4,4"/>
<!-- Parser -->
<g id="node1" class="node">
<title>Parser</title>
<ellipse fill="none" stroke="black" cx="656.5" cy="-227.7" rx="80.79" ry="50.2"/>
<text text-anchor="middle" x="656.5" y="-245.9" font-family="Times New Roman,serif" font-size="14.00">Parser</text>
<text text-anchor="middle" x="656.5" y="-230.15" font-family="Times New Roman,serif" font-size="14.00">Input: &quot;a x c $&quot;</text>
<text text-anchor="middle" x="656.5" y="-214.4" font-family="Times New Roman,serif" font-size="14.00">Location: 5 (&#39; &#39;)</text>
<text text-anchor="middle" x="656.5" y="-198.65" font-family="Times New Roman,serif" font-size="14.00">Step 41: Reviving</text>
</g>
<!-- todoLists -->
<g id="node2" class="node">
<title>todoLists</title>
<polygon fill="none" stroke="black" points="0,-89.25 0,-125.25 493,-125.25 493,-89.25 0,-89.25"/>
<text text-anchor="middle" x="11.38" y="-101.83" font-family="Times New Roman,serif" font-size="14.00">0</text>
<polyline fill="none" stroke="black" points="22.75,-89.25 22.75,-125.25"/>
<text text-anchor="middle" x="34.12" y="-101.83" font-family="Times New Roman,serif" font-size="14.00">1</text>
<polyline fill="none" stroke="black" points="45.5,-89.25 45.5,-125.25"/>
<text text-anchor="middle" x="56.88" y="-101.83" font-family="Times New Roman,serif" font-size="14.00">2</text>
<polyline fill="none" stroke="black" points="68.25,-89.25 68.25,-125.25"/>
<text text-anchor="middle" x="79.62" y="-101.83" font-family="Times New Roman,serif" font-size="14.00">3</text>
<polyline fill="none" stroke="black" points="91,-89.25 91,-125.25"/>
<text text-anchor="middle" x="102.38" y="-101.83" font-family="Times New Roman,serif" font-size="14.00">4</text>
<polyline fill="none" stroke="black" points="113.75,-89.25 113.75,-125.25"/>
<text text-anchor="middle" x="125.12" y="-101.83" font-family="Times New Roman,serif" font-size="14.00">5</text>
<polyline fill="none" stroke="black" points="136.5,-89.25 136.5,-125.25"/>
<text text-anchor="middle" x="147.88" y="-101.83" font-family="Times New Roman,serif" font-size="14.00">6</text>
<polyline fill="none" stroke="black" points="159.25,-89.25 159.25,-125.25"/>
<text text-anchor="middle" x="170.62" y="-101.83" font-family="Times New Roman,serif" font-size="14.00">7</text>
<polyline fill="none" stroke="black" points="182,-89.25 182,-125.25"/>
<text text-anchor="middle" x="193.38" y="-101.83" font-family="Times New Roman,serif" font-size="14.00">8</text>
<polyline fill="none" stroke="black" points="204.75,-89.25 204.75,-125.25"/>
<text text-anchor="middle" x="216.12" y="-101.83" font-family="Times New Roman,serif" font-size="14.00">9</text>
<polyline fill="none" stroke="black" points="227.5,-89.25 227.5,-125.25"/>
<text text-anchor="middle" x="242.25" y="-101.83" font-family="Times New Roman,serif" font-size="14.00">10</text>
<polyline fill="none" stroke="black" points="257,-89.25 257,-125.25"/>
<text text-anchor="middle" x="271.75" y="-101.83" font-family="Times New Roman,serif" font-size="14.00">11</text>
<polyline fill="none" stroke="black" points="286.5,-89.25 286.5,-125.25"/>
<text text-anchor="middle" x="301.25" y="-101.83" font-family="Times New Roman,serif" font-size="14.00">12</text>
<polyline fill="none" stroke="black" points="316,-89.25 316,-125.25"/>
<text text-anchor="middle" x="330.75" y="-101.83" font-family="Times New Roman,serif" font-size="14.00">13</text>
<polyline fill="none" stroke="black" points="345.5,-89.25 345.5,-125.25"/>
<text text-anchor="middle" x="360.25" y="-101.83" font-family="Times New Roman,serif" font-size="14.00">14</text>
<polyline fill="none" stroke="black" points="375,-89.25 375,-125.25"/>
<text text-anchor="middle" x="389.75" y="-101.83" font-family="Times New Roman,serif" font-size="14.00">15</text>
<polyline fill="none" stroke="black" points="404.5,-89.25 404.5,-125.25"/>
<text text-anchor="middle" x="419.25" y="-101.83" font-family="Times New Roman,serif" font-size="14.00">16</text>
<polyline fill="none" stroke="black" points="434,-89.25 434,-125.25"/>
<text text-anchor="middle" x="448.75" y="-101.83" font-family="Times New Roman,serif" font-size="14.00">17</text>
<polyline fill="none" stroke="black" points="463.5,-89.25 463.5,-125.25"/>
<text text-anchor="middle" x="478.25" y="-101.83" font-family="Times New Roman,serif" font-size="14.00">18</text>
</g>
<!-- Parser&#45;&gt;todoLists -->
<g id="edge1" class="edge">
<title>Parser&#45;&gt;todoLists</title>
<path fill="none" stroke="black" d="M583.67,-205.66C508.55,-183.96 392.16,-150.33 317.66,-128.81"/>
<polygon fill="black" stroke="black" points="319.01,-125.56 308.43,-126.14 317.07,-132.28 319.01,-125.56"/>
<text text-anchor="middle" x="441.38" y="-146.2" font-family="Times New Roman,serif" font-size="14.00">todo lists</text>
</g>
<!-- stacksToExpand -->
<g id="node3" class="node">
<title>stacksToExpand</title>
<polygon fill="none" stroke="black" points="511.5,-89.25 511.5,-125.25 565.5,-125.25 565.5,-89.25 511.5,-89.25"/>
<text text-anchor="middle" x="538.38" y="-101.83" font-family="Times New Roman,serif" font-size="14.00"> </text>
</g>
<!-- Parser&#45;&gt;stacksToExpand -->
<g id="edge2" class="edge">
<title>Parser&#45;&gt;stacksToExpand</title>
<path fill="none" stroke="black" d="M596.16,-194.06C582.23,-184.37 568.45,-172.75 558,-159.5 552.71,-152.79 548.73,-144.49 545.8,-136.54"/>
<polygon fill="black" stroke="black" points="549.18,-135.61 542.78,-127.17 542.52,-137.76 549.18,-135.61"/>
<text text-anchor="middle" x="605.75" y="-146.2" font-family="Times New Roman,serif" font-size="14.00">stacks to expand</text>
</g>
<!-- terminalsToReduce -->
<g id="node4" class="node">
<title>terminalsToReduce</title>
<polygon fill="none" stroke="black" points="629.5,-89.25 629.5,-125.25 683.5,-125.25 683.5,-89.25 629.5,-89.25"/>
<text text-anchor="middle" x="656.38" y="-101.83" font-family="Times New Roman,serif" font-size="14.00"> </text>
</g>
<!-- Parser&#45;&gt;terminalsToReduce -->
<g id="edge3" class="edge">
<title>Parser&#45;&gt;terminalsToReduce</title>
<path fill="none" stroke="black" d="M656.5,-177.16C656.5,-163.37 656.5,-148.86 656.5,-136.73"/>
<polygon fill="black" stroke="black" points="660,-137.02 656.5,-127.02 653,-137.02 660,-137.02"/>
<text text-anchor="middle" x="709.38" y="-146.2" font-family="Times New Roman,serif" font-size="14.00">terminals to reduce</text>
</g>
<!-- nonTerminalsToReduce -->
<g id="node5" class="node">
<title>nonTerminalsToReduce</title>
<polygon fill="none" stroke="black" points="758.5,-89.25 758.5,-125.25 812.5,-125.25 812.5,-89.25 758.5,-89.25"/>
<text text-anchor="middle" x="785.38" y="-101.83" font-family="Times New Roman,serif" font-size="14.00"> </text>
</g>
<!-- Parser&#45;&gt;nonTerminalsToReduce -->
<g id="edge4" class="edge">
<title>Parser&#45;&gt;nonTerminalsToReduce</title>
<path fill="none" stroke="black" d="M719.44,-195.95C735.32,-185.98 751.31,-173.75 763.5,-159.5 769.3,-152.72 773.77,-144.19 777.13,-136.03"/>
<polygon fill="black" stroke="black" points="780.36,-137.37 780.5,-126.78 773.79,-134.97 780.36,-137.37"/>
<text text-anchor="middle" x="839.12" y="-146.2" font-family="Times New Roman,serif" font-size="14.00">non&#45;terminals to reduce</text>
</g>
<!-- error -->
<g id="node10" class="node">
<title>error</title>
<ellipse fill="none" stroke="black" cx="939.5" cy="-107.25" rx="34.1" ry="18"/>
<text text-anchor="middle" x="939.5" y="-101.83" font-family="Times New Roman,serif" font-size="14.00">Errors</text>
</g>
<!-- Parser&#45;&gt;error -->
<g id="edge5" class="edge">
<title>Parser&#45;&gt;error</title>
<path fill="none" stroke="black" d="M736.78,-220.81C789.95,-213.42 858.79,-196.8 908.5,-159.5 916.75,-153.31 923.26,-144.22 928.14,-135.41"/>
<polygon fill="black" stroke="black" points="931.13,-137.26 932.45,-126.74 924.87,-134.14 931.13,-137.26"/>
<text text-anchor="middle" x="960" y="-146.2" font-family="Times New Roman,serif" font-size="14.00">error tracking</text>
</g>
<!-- unexpandableNodes -->
<g id="node6" class="node">
<title>unexpandableNodes</title>
<polygon fill="none" stroke="black" points="690.5,-0.5 690.5,-36.5 744.5,-36.5 744.5,-0.5 690.5,-0.5"/>
<text text-anchor="middle" x="717.38" y="-13.07" font-family="Times New Roman,serif" font-size="14.00"> </text>
</g>
<!-- unmatchableLeafNodes -->
<g id="node7" class="node">
<title>unmatchableLeafNodes</title>
<polygon fill="none" stroke="black" points="790.5,-0.5 790.5,-36.5 844.5,-36.5 844.5,-0.5 790.5,-0.5"/>
<text text-anchor="middle" x="817.38" y="-13.07" font-family="Times New Roman,serif" font-size="14.00"> </text>
</g>
<!-- unmatchableMidProductionNodes -->
<g id="node8" class="node">
<title>unmatchableMidProductionNodes</title>
<polygon fill="none" stroke="black" points="912.5,-0.5 912.5,-36.5 966.5,-36.5 966.5,-0.5 912.5,-0.5"/>
<text text-anchor="middle" x="939.38" y="-13.07" font-family="Times New Roman,serif" font-size="14.00"> </text>
</g>
<!-- filteredNodes -->
<g id="node9" class="node">
<title>filteredNodes</title>
<polygon fill="none" stroke="black" points="1061.5,-0.5 1061.5,-36.5 1115.5,-36.5 1115.5,-0.5 1061.5,-0.5"/>
<text text-anchor="middle" x="1088.38" y="-13.07" font-family="Times New Roman,serif" font-size="14.00"> </text>
</g>
<!-- error&#45;&gt;unexpandableNodes -->
<g id="edge6" class="edge">
<title>error&#45;&gt;unexpandableNodes</title>
<path fill="none" stroke="black" d="M906.49,-101.76C854.69,-94.48 758.87,-79.98 746,-70.75 737.88,-64.93 731.8,-56.04 727.39,-47.29"/>
<polygon fill="black" stroke="black" points="730.66,-46.03 723.42,-38.29 724.25,-48.85 730.66,-46.03"/>
<text text-anchor="middle" x="784.75" y="-57.45" font-family="Times New Roman,serif" font-size="14.00">unexpandable</text>
</g>
<!-- error&#45;&gt;unmatchableLeafNodes -->
<g id="edge7" class="edge">
<title>error&#45;&gt;unmatchableLeafNodes</title>
<path fill="none" stroke="black" d="M906.41,-102.3C884.05,-98.01 855.3,-89.12 836.5,-70.75 830.15,-64.55 825.91,-56.04 823.08,-47.74"/>
<polygon fill="black" stroke="black" points="826.49,-46.93 820.43,-38.24 819.74,-48.81 826.49,-46.93"/>
<text text-anchor="middle" x="886" y="-57.45" font-family="Times New Roman,serif" font-size="14.00">unmatchable leafs</text>
</g>
<!-- error&#45;&gt;unmatchableMidProductionNodes -->
<g id="edge8" class="edge">
<title>error&#45;&gt;unmatchableMidProductionNodes</title>
<path fill="none" stroke="black" d="M939.5,-89.11C939.5,-77.42 939.5,-61.67 939.5,-48.1"/>
<polygon fill="black" stroke="black" points="943,-48.41 939.5,-38.41 936,-48.41 943,-48.41"/>
<text text-anchor="middle" x="1002.5" y="-57.45" font-family="Times New Roman,serif" font-size="14.00">unmatchable mid&#45;prod</text>
</g>
<!-- error&#45;&gt;filteredNodes -->
<g id="edge9" class="edge">
<title>error&#45;&gt;filteredNodes</title>
<path fill="none" stroke="black" d="M973.5,-104.66C1001.5,-101.67 1040.66,-93.37 1066.5,-70.75 1073.49,-64.63 1078.33,-55.9 1081.65,-47.37"/>
<polygon fill="black" stroke="black" points="1084.95,-48.55 1084.73,-37.96 1078.3,-46.38 1084.95,-48.55"/>
<text text-anchor="middle" x="1096.62" y="-57.45" font-family="Times New Roman,serif" font-size="14.00">filtered</text>
</g>
<!-- recoveredNodes -->
<g id="node11" class="node">
<title>recoveredNodes</title>
<polygon fill="none" stroke="red" points="1133.5,-0.5 1133.5,-36.5 1187.5,-36.5 1187.5,-0.5 1133.5,-0.5"/>
<text text-anchor="middle" x="1160.38" y="-13.07" font-family="Times New Roman,serif" font-size="14.00"> </text>
</g>
<!-- error&#45;&gt;recoveredNodes -->
<g id="edge10" class="edge">
<title>error&#45;&gt;recoveredNodes</title>
<path fill="none" stroke="black" d="M973.84,-106.34C1012.03,-104.96 1074.3,-98.18 1119.5,-70.75 1129.48,-64.7 1138.03,-55.28 1144.71,-46.17"/>
<polygon fill="black" stroke="black" points="1147.41,-48.42 1150.12,-38.18 1141.61,-44.5 1147.41,-48.42"/>
<text text-anchor="middle" x="1180.75" y="-57.45" font-family="Times New Roman,serif" font-size="14.00">Nodes to revive</text>
</g>
</g>
</svg>
