<?xml version="1.0" encoding="UTF-8" standalone="no"?>
<!DOCTYPE svg PUBLIC "-//W3C//DTD SVG 1.1//EN"
 "http://www.w3.org/Graphics/SVG/1.1/DTD/svg11.dtd">
<!-- Generated by graphviz version 12.0.0 (20240704.0754)
 -->
<!-- Title: Parser Pages: 1 -->
<svg width="1266pt" height="694pt"
 viewBox="0.00 0.00 1265.80 694.38" xmlns="http://www.w3.org/2000/svg" xmlns:xlink="http://www.w3.org/1999/xlink">
<g id="graph0" class="graph" transform="scale(1 1) rotate(0) translate(4 690.38)">
<title>Parser</title>
<polygon fill="white" stroke="none" points="-4,4 -4,-690.38 1261.8,-690.38 1261.8,4 -4,4"/>
<!-- Parser -->
<g id="node1" class="node">
<title>Parser</title>
<ellipse fill="none" stroke="black" cx="737.8" cy="-636.17" rx="138.59" ry="50.2"/>
<text text-anchor="middle" x="737.8" y="-654.37" font-family="Times New Roman,serif" font-size="14.00">Parser</text>
<text text-anchor="middle" x="737.8" y="-638.62" font-family="Times New Roman,serif" font-size="14.00">Input: &quot;a x $&quot;</text>
<text text-anchor="middle" x="737.8" y="-622.87" font-family="Times New Roman,serif" font-size="14.00">Location: 1 (&#39; &#39;)</text>
<text text-anchor="middle" x="737.8" y="-607.12" font-family="Times New Roman,serif" font-size="14.00">Step 5: Finding stacks to reduce</text>
</g>
<!-- todoLists -->
<g id="node8" class="node">
<title>todoLists</title>
<polygon fill="none" stroke="red" points="170.55,-497.72 170.55,-533.72 575.05,-533.72 575.05,-497.72 170.55,-497.72"/>
<text text-anchor="middle" x="181.93" y="-510.29" font-family="Times New Roman,serif" font-size="14.00">0</text>
<polyline fill="none" stroke="red" points="193.3,-497.72 193.3,-533.72"/>
<text text-anchor="middle" x="204.68" y="-510.29" font-family="Times New Roman,serif" font-size="14.00">1</text>
<polyline fill="none" stroke="red" points="216.05,-497.72 216.05,-533.72"/>
<text text-anchor="middle" x="227.43" y="-510.29" font-family="Times New Roman,serif" font-size="14.00">2</text>
<polyline fill="none" stroke="red" points="238.8,-497.72 238.8,-533.72"/>
<text text-anchor="middle" x="250.18" y="-510.29" font-family="Times New Roman,serif" font-size="14.00">3</text>
<polyline fill="none" stroke="red" points="261.55,-497.72 261.55,-533.72"/>
<text text-anchor="middle" x="272.93" y="-510.29" font-family="Times New Roman,serif" font-size="14.00">4</text>
<polyline fill="none" stroke="red" points="284.3,-497.72 284.3,-533.72"/>
<text text-anchor="middle" x="295.68" y="-510.29" font-family="Times New Roman,serif" font-size="14.00">5</text>
<polyline fill="none" stroke="red" points="307.05,-497.72 307.05,-533.72"/>
<text text-anchor="middle" x="318.43" y="-510.29" font-family="Times New Roman,serif" font-size="14.00">6</text>
<polyline fill="none" stroke="red" points="329.8,-497.72 329.8,-533.72"/>
<text text-anchor="middle" x="341.18" y="-510.29" font-family="Times New Roman,serif" font-size="14.00">7</text>
<polyline fill="none" stroke="red" points="352.55,-497.72 352.55,-533.72"/>
<text text-anchor="middle" x="363.93" y="-510.29" font-family="Times New Roman,serif" font-size="14.00">8</text>
<polyline fill="none" stroke="red" points="375.3,-497.72 375.3,-533.72"/>
<text text-anchor="middle" x="386.68" y="-510.29" font-family="Times New Roman,serif" font-size="14.00">9</text>
<polyline fill="none" stroke="red" points="398.05,-497.72 398.05,-533.72"/>
<text text-anchor="middle" x="412.8" y="-510.29" font-family="Times New Roman,serif" font-size="14.00">10</text>
<polyline fill="none" stroke="red" points="427.55,-497.72 427.55,-533.72"/>
<text text-anchor="middle" x="442.3" y="-510.29" font-family="Times New Roman,serif" font-size="14.00">11</text>
<polyline fill="none" stroke="red" points="457.05,-497.72 457.05,-533.72"/>
<text text-anchor="middle" x="471.8" y="-510.29" font-family="Times New Roman,serif" font-size="14.00">12</text>
<polyline fill="none" stroke="red" points="486.55,-497.72 486.55,-533.72"/>
<text text-anchor="middle" x="501.3" y="-510.29" font-family="Times New Roman,serif" font-size="14.00">13</text>
<polyline fill="none" stroke="red" points="516.05,-497.72 516.05,-533.72"/>
<text text-anchor="middle" x="530.8" y="-510.29" font-family="Times New Roman,serif" font-size="14.00">14</text>
<polyline fill="none" stroke="red" points="545.55,-497.72 545.55,-533.72"/>
<text text-anchor="middle" x="560.3" y="-510.29" font-family="Times New Roman,serif" font-size="14.00">15</text>
</g>
<!-- Parser&#45;&gt;todoLists -->
<g id="edge7" class="edge">
<title>Parser&#45;&gt;todoLists</title>
<path fill="none" stroke="black" d="M635.65,-602.02C571.98,-581.36 492.02,-555.41 437.11,-537.59"/>
<polygon fill="black" stroke="black" points="438.5,-534.36 427.91,-534.6 436.34,-541.02 438.5,-534.36"/>
<text text-anchor="middle" x="548.68" y="-554.67" font-family="Times New Roman,serif" font-size="14.00">todo lists</text>
</g>
<!-- stacksToExpand -->
<g id="node9" class="node">
<title>stacksToExpand</title>
<polygon fill="none" stroke="black" points="592.8,-497.72 592.8,-533.72 646.8,-533.72 646.8,-497.72 592.8,-497.72"/>
<text text-anchor="middle" x="619.68" y="-510.29" font-family="Times New Roman,serif" font-size="14.00"> </text>
</g>
<!-- Parser&#45;&gt;stacksToExpand -->
<g id="edge8" class="edge">
<title>Parser&#45;&gt;stacksToExpand</title>
<path fill="none" stroke="black" d="M665.03,-593.28C655.55,-585.71 646.61,-577.23 639.3,-567.97 634.02,-561.26 630.04,-552.96 627.1,-545.01"/>
<polygon fill="black" stroke="black" points="630.48,-544.08 624.08,-535.64 623.82,-546.23 630.48,-544.08"/>
<text text-anchor="middle" x="687.05" y="-554.67" font-family="Times New Roman,serif" font-size="14.00">stacks to expand</text>
</g>
<!-- terminalsToReduce -->
<g id="node10" class="node">
<title>terminalsToReduce</title>
<polygon fill="none" stroke="black" points="710.8,-497.72 710.8,-533.72 764.8,-533.72 764.8,-497.72 710.8,-497.72"/>
<text text-anchor="middle" x="737.68" y="-510.29" font-family="Times New Roman,serif" font-size="14.00"> </text>
</g>
<!-- Parser&#45;&gt;terminalsToReduce -->
<g id="edge9" class="edge">
<title>Parser&#45;&gt;terminalsToReduce</title>
<path fill="none" stroke="black" d="M737.8,-585.63C737.8,-571.84 737.8,-557.33 737.8,-545.2"/>
<polygon fill="black" stroke="black" points="741.3,-545.49 737.8,-535.49 734.3,-545.49 741.3,-545.49"/>
<text text-anchor="middle" x="790.68" y="-554.67" font-family="Times New Roman,serif" font-size="14.00">terminals to reduce</text>
</g>
<!-- nonTerminalsToReduce -->
<g id="node11" class="node">
<title>nonTerminalsToReduce</title>
<polygon fill="none" stroke="black" points="839.8,-497.72 839.8,-533.72 893.8,-533.72 893.8,-497.72 839.8,-497.72"/>
<text text-anchor="middle" x="866.68" y="-510.29" font-family="Times New Roman,serif" font-size="14.00"> </text>
</g>
<!-- Parser&#45;&gt;nonTerminalsToReduce -->
<g id="edge10" class="edge">
<title>Parser&#45;&gt;nonTerminalsToReduce</title>
<path fill="none" stroke="black" d="M815.7,-594.3C826.34,-586.52 836.46,-577.72 844.8,-567.97 850.6,-561.19 855.08,-552.66 858.43,-544.5"/>
<polygon fill="black" stroke="black" points="861.67,-545.84 861.81,-535.25 855.09,-543.44 861.67,-545.84"/>
<text text-anchor="middle" x="920.43" y="-554.67" font-family="Times New Roman,serif" font-size="14.00">non&#45;terminals to reduce</text>
</g>
<!-- error -->
<g id="node16" class="node">
<title>error</title>
<ellipse fill="none" stroke="black" cx="1020.8" cy="-515.72" rx="34.1" ry="18"/>
<text text-anchor="middle" x="1020.8" y="-510.29" font-family="Times New Roman,serif" font-size="14.00">Errors</text>
</g>
<!-- Parser&#45;&gt;error -->
<g id="edge11" class="edge">
<title>Parser&#45;&gt;error</title>
<path fill="none" stroke="black" d="M869.33,-619.81C910.91,-610.03 955.04,-594.06 989.8,-567.97 998.05,-561.78 1004.57,-552.69 1009.45,-543.88"/>
<polygon fill="black" stroke="black" points="1012.44,-545.73 1013.76,-535.21 1006.17,-542.61 1012.44,-545.73"/>
<text text-anchor="middle" x="1041.3" y="-554.67" font-family="Times New Roman,serif" font-size="14.00">error tracking</text>
</g>
<!-- todo&#45;2 -->
<g id="node2" class="node">
<title>todo&#45;2</title>
<polygon fill="none" stroke="black" points="200.8,-408.97 200.8,-444.97 254.8,-444.97 254.8,-408.97 200.8,-408.97"/>
<text text-anchor="middle" x="227.68" y="-421.54" font-family="Times New Roman,serif" font-size="14.00">0</text>
</g>
<!-- 92 -->
<g id="node3" class="node">
<title>92</title>
<ellipse fill="none" stroke="black" cx="124.8" cy="-317.65" rx="124.8" ry="39.07"/>
<text text-anchor="middle" x="124.8" y="-327.98" font-family="Times New Roman,serif" font-size="14.00">Char: </text>
<text text-anchor="middle" x="124.8" y="-312.23" font-family="Times New Roman,serif" font-size="14.00">.0@1</text>
<text text-anchor="middle" x="124.8" y="-296.48" font-family="Times New Roman,serif" font-size="14.00">in: &#39;Layout &#45;&gt; [range(32,32)]&#39;</text>
</g>
<!-- todo&#45;2&#45;&gt;92 -->
<g id="edge4" class="edge">
<title>todo&#45;2:sw&#45;&gt;92</title>
<path fill="none" stroke="black" d="M200.8,-408.47C187.17,-394.83 173.25,-379.04 161.12,-364.53"/>
<polygon fill="black" stroke="black" points="163.85,-362.34 154.78,-356.87 158.46,-366.8 163.85,-362.34"/>
<text text-anchor="middle" x="199.55" y="-377.17" font-family="Times New Roman,serif" font-size="14.00">Stack</text>
</g>
<!-- 2082353865 -->
<g id="node7" class="node">
<title>2082353865</title>
<polygon fill="none" stroke="black" points="390.42,-305.13 390.42,-330.17 354.32,-347.88 303.28,-347.88 267.19,-330.17 267.19,-305.13 303.28,-287.42 354.32,-287.42 390.42,-305.13"/>
<text text-anchor="middle" x="328.8" y="-320.1" font-family="Times New Roman,serif" font-size="14.00">Char</text>
<text text-anchor="middle" x="328.8" y="-304.35" font-family="Times New Roman,serif" font-size="14.00">char=32(&#39; &#39;)</text>
</g>
<!-- todo&#45;2&#45;&gt;2082353865 -->
<g id="edge5" class="edge">
<title>todo&#45;2:se&#45;&gt;2082353865</title>
<path fill="none" stroke="black" d="M254.55,-408.47C270.49,-392.54 286.61,-373.47 299.74,-357.01"/>
<polygon fill="black" stroke="black" points="302.33,-359.37 305.77,-349.35 296.83,-355.04 302.33,-359.37"/>
<text text-anchor="middle" x="300.18" y="-377.17" font-family="Times New Roman,serif" font-size="14.00">Node</text>
</g>
<!-- 56 -->
<g id="node4" class="node">
<title>56</title>
<ellipse fill="none" stroke="black" cx="124.8" cy="-213.65" rx="95.11" ry="27.93"/>
<text text-anchor="middle" x="124.8" y="-216.1" font-family="Times New Roman,serif" font-size="14.00">NonTerminal: Layout</text>
<text text-anchor="middle" x="124.8" y="-200.35" font-family="Times New Roman,serif" font-size="14.00">.1@1</text>
</g>
<!-- 92&#45;&gt;56 -->
<g id="edge3" class="edge">
<title>92&#45;&gt;56</title>
<path fill="none" stroke="black" d="M124.8,-278.09C124.8,-269.98 124.8,-261.42 124.8,-253.31"/>
<polygon fill="black" stroke="black" points="128.3,-253.35 124.8,-243.35 121.3,-253.35 128.3,-253.35"/>
</g>
<!-- 35 -->
<g id="node5" class="node">
<title>35</title>
<ellipse fill="none" stroke="black" cx="124.8" cy="-120.79" rx="87.68" ry="27.93"/>
<text text-anchor="middle" x="124.8" y="-123.24" font-family="Times New Roman,serif" font-size="14.00">NonTerminal: ABC</text>
<text text-anchor="middle" x="124.8" y="-107.49" font-family="Times New Roman,serif" font-size="14.00">.0@0</text>
</g>
<!-- 56&#45;&gt;35 -->
<g id="edge2" class="edge">
<title>56&#45;&gt;35</title>
<path fill="none" stroke="black" d="M124.8,-185.39C124.8,-177.58 124.8,-168.9 124.8,-160.53"/>
<polygon fill="black" stroke="black" points="128.3,-160.55 124.8,-150.55 121.3,-160.55 128.3,-160.55"/>
</g>
<!-- &#45;1 -->
<g id="node6" class="node">
<title>&#45;1</title>
<ellipse fill="none" stroke="black" cx="124.8" cy="-27.93" rx="73.36" ry="27.93"/>
<text text-anchor="middle" x="124.8" y="-30.38" font-family="Times New Roman,serif" font-size="14.00">NonTerminal: S</text>
<text text-anchor="middle" x="124.8" y="-14.63" font-family="Times New Roman,serif" font-size="14.00">.0@&#45;1</text>
</g>
<!-- 35&#45;&gt;&#45;1 -->
<g id="edge1" class="edge">
<title>35&#45;&gt;&#45;1</title>
<path fill="none" stroke="black" d="M124.8,-92.53C124.8,-84.71 124.8,-76.04 124.8,-67.67"/>
<polygon fill="black" stroke="black" points="128.3,-67.69 124.8,-57.69 121.3,-67.69 128.3,-67.69"/>
</g>
<!-- todoLists&#45;&gt;todo&#45;2 -->
<g id="edge6" class="edge">
<title>todoLists:2&#45;&gt;todo&#45;2</title>
<path fill="none" stroke="black" d="M227.43,-497.22C227.43,-483.83 227.5,-468.98 227.58,-456.47"/>
<polygon fill="black" stroke="black" points="231.08,-456.87 227.65,-446.84 224.08,-456.82 231.08,-456.87"/>
</g>
<!-- unexpandableNodes -->
<g id="node12" class="node">
<title>unexpandableNodes</title>
<polygon fill="none" stroke="black" points="832.8,-408.97 832.8,-444.97 886.8,-444.97 886.8,-408.97 832.8,-408.97"/>
<text text-anchor="middle" x="859.68" y="-421.54" font-family="Times New Roman,serif" font-size="14.00"> </text>
</g>
<!-- unmatchableLeafNodes -->
<g id="node13" class="node">
<title>unmatchableLeafNodes</title>
<polygon fill="none" stroke="black" points="932.8,-408.97 932.8,-444.97 986.8,-444.97 986.8,-408.97 932.8,-408.97"/>
<text text-anchor="middle" x="959.68" y="-421.54" font-family="Times New Roman,serif" font-size="14.00"> </text>
</g>
<!-- unmatchableMidProductionNodes -->
<g id="node14" class="node">
<title>unmatchableMidProductionNodes</title>
<polygon fill="none" stroke="black" points="1054.8,-408.97 1054.8,-444.97 1108.8,-444.97 1108.8,-408.97 1054.8,-408.97"/>
<text text-anchor="middle" x="1081.68" y="-421.54" font-family="Times New Roman,serif" font-size="14.00"> </text>
</g>
<!-- filteredNodes -->
<g id="node15" class="node">
<title>filteredNodes</title>
<polygon fill="none" stroke="black" points="1203.8,-408.97 1203.8,-444.97 1257.8,-444.97 1257.8,-408.97 1203.8,-408.97"/>
<text text-anchor="middle" x="1230.68" y="-421.54" font-family="Times New Roman,serif" font-size="14.00"> </text>
</g>
<!-- error&#45;&gt;unexpandableNodes -->
<g id="edge12" class="edge">
<title>error&#45;&gt;unexpandableNodes</title>
<path fill="none" stroke="black" d="M987.68,-510.49C949.9,-505.02 891.3,-494.37 875.3,-479.22 868.99,-473.24 865.23,-464.8 862.98,-456.48"/>
<polygon fill="black" stroke="black" points="866.47,-456.07 861.08,-446.95 859.61,-457.44 866.47,-456.07"/>
<text text-anchor="middle" x="914.05" y="-465.92" font-family="Times New Roman,serif" font-size="14.00">unexpandable</text>
</g>
<!-- error&#45;&gt;unmatchableLeafNodes -->
<g id="edge13" class="edge">
<title>error&#45;&gt;unmatchableLeafNodes</title>
<path fill="none" stroke="black" d="M992.63,-505.22C980.64,-499.63 967.82,-491.24 960.8,-479.22 956.87,-472.48 955.52,-464.35 955.43,-456.57"/>
<polygon fill="black" stroke="black" points="958.92,-456.95 956.02,-446.76 951.93,-456.53 958.92,-456.95"/>
<text text-anchor="middle" x="1010.3" y="-465.92" font-family="Times New Roman,serif" font-size="14.00">unmatchable leafs</text>
</g>
<!-- error&#45;&gt;unmatchableMidProductionNodes -->
<g id="edge14" class="edge">
<title>error&#45;&gt;unmatchableMidProductionNodes</title>
<path fill="none" stroke="black" d="M1039.48,-500.58C1046.52,-494.57 1054.17,-487.12 1059.8,-479.22 1064.84,-472.14 1069.05,-463.73 1072.4,-455.79"/>
<polygon fill="black" stroke="black" points="1075.65,-457.07 1075.99,-446.48 1069.13,-454.55 1075.65,-457.07"/>
<text text-anchor="middle" x="1130.8" y="-465.92" font-family="Times New Roman,serif" font-size="14.00">unmatchable mid&#45;prod</text>
</g>
<!-- error&#45;&gt;filteredNodes -->
<g id="edge15" class="edge">
<title>error&#45;&gt;filteredNodes</title>
<path fill="none" stroke="black" d="M1055.11,-515.51C1093.15,-514.75 1154.82,-508.52 1197.8,-479.22 1206.48,-473.31 1213.38,-464.28 1218.59,-455.45"/>
<polygon fill="black" stroke="black" points="1221.64,-457.17 1223.22,-446.69 1215.45,-453.9 1221.64,-457.17"/>
<text text-anchor="middle" x="1231.93" y="-465.92" font-family="Times New Roman,serif" font-size="14.00">filtered</text>
</g>
</g>
</svg>
