<?xml version="1.0" encoding="UTF-8" standalone="no"?>
<!DOCTYPE svg PUBLIC "-//W3C//DTD SVG 1.1//EN"
 "http://www.w3.org/Graphics/SVG/1.1/DTD/svg11.dtd">
<!-- Generated by graphviz version 12.0.0 (20240704.0754)
 -->
<!-- Title: Parser Pages: 1 -->
<svg width="1849pt" height="889pt"
 viewBox="0.00 0.00 1849.15 888.98" xmlns="http://www.w3.org/2000/svg" xmlns:xlink="http://www.w3.org/1999/xlink">
<g id="graph0" class="graph" transform="scale(1 1) rotate(0) translate(4 884.98)">
<title>Parser</title>
<polygon fill="white" stroke="none" points="-4,4 -4,-884.98 1845.15,-884.98 1845.15,4 -4,4"/>
<!-- Parser -->
<g id="node1" class="node">
<title>Parser</title>
<ellipse fill="none" stroke="black" cx="567.25" cy="-830.77" rx="80.79" ry="50.2"/>
<text text-anchor="middle" x="567.25" y="-848.97" font-family="Times New Roman,serif" font-size="14.00">Parser</text>
<text text-anchor="middle" x="567.25" y="-833.22" font-family="Times New Roman,serif" font-size="14.00">Input: &quot;a x $&quot;</text>
<text text-anchor="middle" x="567.25" y="-817.47" font-family="Times New Roman,serif" font-size="14.00">Location: 2 (&#39;x&#39;)</text>
<text text-anchor="middle" x="567.25" y="-801.72" font-family="Times New Roman,serif" font-size="14.00">Step 12: Reviving</text>
</g>
<!-- todoLists -->
<g id="node2" class="node">
<title>todoLists</title>
<polygon fill="none" stroke="black" points="0,-692.32 0,-728.32 404.5,-728.32 404.5,-692.32 0,-692.32"/>
<text text-anchor="middle" x="11.38" y="-704.89" font-family="Times New Roman,serif" font-size="14.00">0</text>
<polyline fill="none" stroke="black" points="22.75,-692.32 22.75,-728.32"/>
<text text-anchor="middle" x="34.12" y="-704.89" font-family="Times New Roman,serif" font-size="14.00">1</text>
<polyline fill="none" stroke="black" points="45.5,-692.32 45.5,-728.32"/>
<text text-anchor="middle" x="56.88" y="-704.89" font-family="Times New Roman,serif" font-size="14.00">2</text>
<polyline fill="none" stroke="black" points="68.25,-692.32 68.25,-728.32"/>
<text text-anchor="middle" x="79.62" y="-704.89" font-family="Times New Roman,serif" font-size="14.00">3</text>
<polyline fill="none" stroke="black" points="91,-692.32 91,-728.32"/>
<text text-anchor="middle" x="102.38" y="-704.89" font-family="Times New Roman,serif" font-size="14.00">4</text>
<polyline fill="none" stroke="black" points="113.75,-692.32 113.75,-728.32"/>
<text text-anchor="middle" x="125.12" y="-704.89" font-family="Times New Roman,serif" font-size="14.00">5</text>
<polyline fill="none" stroke="black" points="136.5,-692.32 136.5,-728.32"/>
<text text-anchor="middle" x="147.88" y="-704.89" font-family="Times New Roman,serif" font-size="14.00">6</text>
<polyline fill="none" stroke="black" points="159.25,-692.32 159.25,-728.32"/>
<text text-anchor="middle" x="170.62" y="-704.89" font-family="Times New Roman,serif" font-size="14.00">7</text>
<polyline fill="none" stroke="black" points="182,-692.32 182,-728.32"/>
<text text-anchor="middle" x="193.38" y="-704.89" font-family="Times New Roman,serif" font-size="14.00">8</text>
<polyline fill="none" stroke="black" points="204.75,-692.32 204.75,-728.32"/>
<text text-anchor="middle" x="216.12" y="-704.89" font-family="Times New Roman,serif" font-size="14.00">9</text>
<polyline fill="none" stroke="black" points="227.5,-692.32 227.5,-728.32"/>
<text text-anchor="middle" x="242.25" y="-704.89" font-family="Times New Roman,serif" font-size="14.00">10</text>
<polyline fill="none" stroke="black" points="257,-692.32 257,-728.32"/>
<text text-anchor="middle" x="271.75" y="-704.89" font-family="Times New Roman,serif" font-size="14.00">11</text>
<polyline fill="none" stroke="black" points="286.5,-692.32 286.5,-728.32"/>
<text text-anchor="middle" x="301.25" y="-704.89" font-family="Times New Roman,serif" font-size="14.00">12</text>
<polyline fill="none" stroke="black" points="316,-692.32 316,-728.32"/>
<text text-anchor="middle" x="330.75" y="-704.89" font-family="Times New Roman,serif" font-size="14.00">13</text>
<polyline fill="none" stroke="black" points="345.5,-692.32 345.5,-728.32"/>
<text text-anchor="middle" x="360.25" y="-704.89" font-family="Times New Roman,serif" font-size="14.00">14</text>
<polyline fill="none" stroke="black" points="375,-692.32 375,-728.32"/>
<text text-anchor="middle" x="389.75" y="-704.89" font-family="Times New Roman,serif" font-size="14.00">15</text>
</g>
<!-- Parser&#45;&gt;todoLists -->
<g id="edge1" class="edge">
<title>Parser&#45;&gt;todoLists</title>
<path fill="none" stroke="black" d="M496.01,-806.65C429.52,-785.07 331.18,-753.16 266.91,-732.3"/>
<polygon fill="black" stroke="black" points="268.14,-729.02 257.55,-729.26 265.98,-735.68 268.14,-729.02"/>
<text text-anchor="middle" x="378.12" y="-749.27" font-family="Times New Roman,serif" font-size="14.00">todo lists</text>
</g>
<!-- stacksToExpand -->
<g id="node3" class="node">
<title>stacksToExpand</title>
<polygon fill="none" stroke="black" points="422.25,-692.32 422.25,-728.32 476.25,-728.32 476.25,-692.32 422.25,-692.32"/>
<text text-anchor="middle" x="449.12" y="-704.89" font-family="Times New Roman,serif" font-size="14.00"> </text>
</g>
<!-- Parser&#45;&gt;stacksToExpand -->
<g id="edge2" class="edge">
<title>Parser&#45;&gt;stacksToExpand</title>
<path fill="none" stroke="black" d="M506.91,-797.13C492.98,-787.44 479.2,-775.81 468.75,-762.57 463.46,-755.86 459.48,-747.56 456.55,-739.61"/>
<polygon fill="black" stroke="black" points="459.93,-738.68 453.53,-730.24 453.27,-740.83 459.93,-738.68"/>
<text text-anchor="middle" x="516.5" y="-749.27" font-family="Times New Roman,serif" font-size="14.00">stacks to expand</text>
</g>
<!-- terminalsToReduce -->
<g id="node4" class="node">
<title>terminalsToReduce</title>
<polygon fill="none" stroke="black" points="540.25,-692.32 540.25,-728.32 594.25,-728.32 594.25,-692.32 540.25,-692.32"/>
<text text-anchor="middle" x="567.12" y="-704.89" font-family="Times New Roman,serif" font-size="14.00"> </text>
</g>
<!-- Parser&#45;&gt;terminalsToReduce -->
<g id="edge3" class="edge">
<title>Parser&#45;&gt;terminalsToReduce</title>
<path fill="none" stroke="black" d="M567.25,-780.22C567.25,-766.43 567.25,-751.92 567.25,-739.8"/>
<polygon fill="black" stroke="black" points="570.75,-740.09 567.25,-730.09 563.75,-740.09 570.75,-740.09"/>
<text text-anchor="middle" x="620.12" y="-749.27" font-family="Times New Roman,serif" font-size="14.00">terminals to reduce</text>
</g>
<!-- nonTerminalsToReduce -->
<g id="node5" class="node">
<title>nonTerminalsToReduce</title>
<polygon fill="none" stroke="black" points="669.25,-692.32 669.25,-728.32 723.25,-728.32 723.25,-692.32 669.25,-692.32"/>
<text text-anchor="middle" x="696.12" y="-704.89" font-family="Times New Roman,serif" font-size="14.00"> </text>
</g>
<!-- Parser&#45;&gt;nonTerminalsToReduce -->
<g id="edge4" class="edge">
<title>Parser&#45;&gt;nonTerminalsToReduce</title>
<path fill="none" stroke="black" d="M630.19,-799.01C646.07,-789.05 662.06,-776.82 674.25,-762.57 680.05,-755.79 684.52,-747.25 687.88,-739.1"/>
<polygon fill="black" stroke="black" points="691.11,-740.44 691.25,-729.85 684.54,-738.04 691.11,-740.44"/>
<text text-anchor="middle" x="749.88" y="-749.27" font-family="Times New Roman,serif" font-size="14.00">non&#45;terminals to reduce</text>
</g>
<!-- error -->
<g id="node17" class="node">
<title>error</title>
<ellipse fill="none" stroke="black" cx="850.25" cy="-710.32" rx="34.1" ry="18"/>
<text text-anchor="middle" x="850.25" y="-704.89" font-family="Times New Roman,serif" font-size="14.00">Errors</text>
</g>
<!-- Parser&#45;&gt;error -->
<g id="edge12" class="edge">
<title>Parser&#45;&gt;error</title>
<path fill="none" stroke="black" d="M647.53,-823.88C700.7,-816.49 769.54,-799.86 819.25,-762.57 827.5,-756.38 834.01,-747.29 838.89,-738.48"/>
<polygon fill="black" stroke="black" points="841.88,-740.32 843.2,-729.81 835.62,-737.2 841.88,-740.32"/>
<text text-anchor="middle" x="871.75" y="-749.27" font-family="Times New Roman,serif" font-size="14.00">error tracking</text>
</g>
<!-- unexpandableNodes -->
<g id="node6" class="node">
<title>unexpandableNodes</title>
<polygon fill="none" stroke="black" points="601.25,-603.57 601.25,-639.57 655.25,-639.57 655.25,-603.57 601.25,-603.57"/>
<text text-anchor="middle" x="628.12" y="-616.14" font-family="Times New Roman,serif" font-size="14.00"> </text>
</g>
<!-- unmatchableLeafNodes -->
<g id="node7" class="node">
<title>unmatchableLeafNodes</title>
<polygon fill="none" stroke="black" points="701.25,-603.57 701.25,-639.57 755.25,-639.57 755.25,-603.57 701.25,-603.57"/>
<text text-anchor="middle" x="728.12" y="-616.14" font-family="Times New Roman,serif" font-size="14.00"> </text>
</g>
<!-- unmatchableMidProductionNodes -->
<g id="node8" class="node">
<title>unmatchableMidProductionNodes</title>
<polygon fill="none" stroke="black" points="798.25,-603.57 798.25,-639.57 852.25,-639.57 852.25,-603.57 798.25,-603.57"/>
<text text-anchor="middle" x="825.12" y="-616.14" font-family="Times New Roman,serif" font-size="14.00">0</text>
</g>
<!-- unmatchable&#45;mid&#45;production&#45;0 -->
<g id="node9" class="node">
<title>unmatchable&#45;mid&#45;production&#45;0</title>
<polygon fill="none" stroke="black" points="538.62,-529.57 538.62,-565.57 713.88,-565.57 713.88,-529.57 538.62,-529.57"/>
<text text-anchor="middle" x="580.75" y="-542.14" font-family="Times New Roman,serif" font-size="14.00">Failed Node</text>
<polyline fill="none" stroke="black" points="622.88,-529.57 622.88,-565.57"/>
<text text-anchor="middle" x="668.38" y="-542.14" font-family="Times New Roman,serif" font-size="14.00">Predecessors</text>
</g>
<!-- unmatchableMidProductionNodes&#45;&gt;unmatchable&#45;mid&#45;production&#45;0 -->
<g id="edge5" class="edge">
<title>unmatchableMidProductionNodes:0&#45;&gt;unmatchable&#45;mid&#45;production&#45;0</title>
<path fill="none" stroke="black" d="M797.83,-602.86C769.64,-589.12 737.24,-577.82 708.23,-569.15"/>
<polygon fill="black" stroke="black" points="709.33,-565.83 698.75,-566.38 707.37,-572.55 709.33,-565.83"/>
</g>
<!-- 57 -->
<g id="node10" class="node">
<title>57</title>
<ellipse fill="none" stroke="black" cx="581.25" cy="-435.03" rx="40.48" ry="27.93"/>
<text text-anchor="middle" x="581.25" y="-437.48" font-family="Times New Roman,serif" font-size="14.00">Literal: </text>
<text text-anchor="middle" x="581.25" y="-421.73" font-family="Times New Roman,serif" font-size="14.00">.2@&#45;1</text>
</g>
<!-- unmatchable&#45;mid&#45;production&#45;0&#45;&gt;57 -->
<g id="edge10" class="edge">
<title>unmatchable&#45;mid&#45;production&#45;0:failedNode&#45;&gt;57</title>
<path fill="none" stroke="black" d="M580.75,-529.07C580.75,-511.09 580.84,-491.15 580.95,-474.36"/>
<polygon fill="black" stroke="black" points="584.45,-474.84 581.02,-464.82 577.45,-474.79 584.45,-474.84"/>
</g>
<!-- unmatchable&#45;mid&#45;production&#45;predecessors&#45;0 -->
<g id="node11" class="node">
<title>unmatchable&#45;mid&#45;production&#45;predecessors&#45;0</title>
<polygon fill="none" stroke="black" points="640.25,-417.03 640.25,-453.03 694.25,-453.03 694.25,-417.03 640.25,-417.03"/>
<text text-anchor="middle" x="667.12" y="-429.6" font-family="Times New Roman,serif" font-size="14.00">0</text>
</g>
<!-- unmatchable&#45;mid&#45;production&#45;0&#45;&gt;unmatchable&#45;mid&#45;production&#45;predecessors&#45;0 -->
<g id="edge11" class="edge">
<title>unmatchable&#45;mid&#45;production&#45;0:predecessors&#45;&gt;unmatchable&#45;mid&#45;production&#45;predecessors&#45;0</title>
<path fill="none" stroke="black" d="M668.38,-529.07C668.38,-507.57 668.07,-483.28 667.78,-464.91"/>
<polygon fill="black" stroke="black" points="671.28,-464.97 667.61,-455.03 664.28,-465.09 671.28,-464.97"/>
</g>
<!-- 56 -->
<g id="node12" class="node">
<title>56</title>
<ellipse fill="none" stroke="black" cx="503.25" cy="-301.93" rx="95.11" ry="27.93"/>
<text text-anchor="middle" x="503.25" y="-304.38" font-family="Times New Roman,serif" font-size="14.00">NonTerminal: Layout</text>
<text text-anchor="middle" x="503.25" y="-288.63" font-family="Times New Roman,serif" font-size="14.00">.1@1</text>
</g>
<!-- unmatchable&#45;mid&#45;production&#45;predecessors&#45;0&#45;&gt;56 -->
<g id="edge8" class="edge">
<title>unmatchable&#45;mid&#45;production&#45;predecessors&#45;0:sw&#45;&gt;56</title>
<path fill="none" stroke="black" d="M640.25,-416.03C632.29,-408.07 637.34,-401.5 630.25,-392.74 610.68,-368.56 583,-347.95 558.48,-332.6"/>
<polygon fill="black" stroke="black" points="560.56,-329.77 550.2,-327.56 556.92,-335.75 560.56,-329.77"/>
<text text-anchor="middle" x="629" y="-361.44" font-family="Times New Roman,serif" font-size="14.00">Stack</text>
</g>
<!-- 1410514922 -->
<g id="node15" class="node">
<title>1410514922</title>
<polygon fill="none" stroke="black" points="861.71,-289.4 861.71,-314.45 789.97,-332.16 688.53,-332.16 616.79,-314.45 616.79,-289.4 688.53,-271.69 789.97,-271.69 861.71,-289.4"/>
<text text-anchor="middle" x="739.25" y="-304.38" font-family="Times New Roman,serif" font-size="14.00">SortContainer 1&#45;2</text>
<text text-anchor="middle" x="739.25" y="-288.63" font-family="Times New Roman,serif" font-size="14.00">&#39;Layout &#45;&gt; [range(32,32)]&#39;</text>
</g>
<!-- unmatchable&#45;mid&#45;production&#45;predecessors&#45;0&#45;&gt;1410514922 -->
<g id="edge9" class="edge">
<title>unmatchable&#45;mid&#45;production&#45;predecessors&#45;0:se&#45;&gt;1410514922</title>
<path fill="none" stroke="black" d="M694,-416.03C701.87,-408.16 699.12,-403.09 703.25,-392.74 709.78,-376.39 716.99,-358.37 723.24,-342.79"/>
<polygon fill="black" stroke="black" points="726.35,-344.44 726.83,-333.85 719.86,-341.83 726.35,-344.44"/>
<text text-anchor="middle" x="731.62" y="-361.44" font-family="Times New Roman,serif" font-size="14.00">Node</text>
</g>
<!-- 35 -->
<g id="node13" class="node">
<title>35</title>
<ellipse fill="none" stroke="black" cx="1021.25" cy="-120.79" rx="87.68" ry="27.93"/>
<text text-anchor="middle" x="1021.25" y="-123.24" font-family="Times New Roman,serif" font-size="14.00">NonTerminal: ABC</text>
<text text-anchor="middle" x="1021.25" y="-107.49" font-family="Times New Roman,serif" font-size="14.00">.0@0</text>
</g>
<!-- 56&#45;&gt;35 -->
<g id="edge7" class="edge">
<title>56&#45;&gt;35</title>
<path fill="none" stroke="black" d="M561.77,-279.49C576.89,-274.01 593.16,-268.17 608.25,-262.86 728.46,-220.54 868.99,-172.94 951.25,-145.26"/>
<polygon fill="black" stroke="black" points="952.17,-148.64 960.54,-142.14 949.94,-142.01 952.17,-148.64"/>
</g>
<!-- &#45;1 -->
<g id="node14" class="node">
<title>&#45;1</title>
<ellipse fill="none" stroke="black" cx="1136.25" cy="-27.93" rx="73.36" ry="27.93"/>
<text text-anchor="middle" x="1136.25" y="-30.38" font-family="Times New Roman,serif" font-size="14.00">NonTerminal: S</text>
<text text-anchor="middle" x="1136.25" y="-14.63" font-family="Times New Roman,serif" font-size="14.00">.0@&#45;1</text>
</g>
<!-- 35&#45;&gt;&#45;1 -->
<g id="edge6" class="edge">
<title>35&#45;&gt;&#45;1</title>
<path fill="none" stroke="black" d="M1053.28,-94.48C1066.59,-83.97 1082.17,-71.66 1096.21,-60.56"/>
<polygon fill="black" stroke="black" points="1098.32,-63.36 1103.99,-54.42 1093.98,-57.87 1098.32,-63.36"/>
</g>
<!-- filteredNodes -->
<g id="node16" class="node">
<title>filteredNodes</title>
<polygon fill="none" stroke="black" points="972.25,-603.57 972.25,-639.57 1026.25,-639.57 1026.25,-603.57 972.25,-603.57"/>
<text text-anchor="middle" x="999.12" y="-616.14" font-family="Times New Roman,serif" font-size="14.00"> </text>
</g>
<!-- error&#45;&gt;unexpandableNodes -->
<g id="edge13" class="edge">
<title>error&#45;&gt;unexpandableNodes</title>
<path fill="none" stroke="black" d="M817.51,-704.48C761.64,-696.11 653.26,-679.28 646.75,-673.82 639.8,-667.98 635.46,-659.32 632.75,-650.77"/>
<polygon fill="black" stroke="black" points="636.21,-650.18 630.41,-641.31 629.42,-651.86 636.21,-650.18"/>
<text text-anchor="middle" x="685.5" y="-660.52" font-family="Times New Roman,serif" font-size="14.00">unexpandable</text>
</g>
<!-- error&#45;&gt;unmatchableLeafNodes -->
<g id="edge14" class="edge">
<title>error&#45;&gt;unmatchableLeafNodes</title>
<path fill="none" stroke="black" d="M815.98,-708.66C789.16,-706.18 753.17,-698.11 733.25,-673.82 728.07,-667.5 725.95,-659.16 725.37,-651.05"/>
<polygon fill="black" stroke="black" points="728.87,-651.13 725.43,-641.11 721.87,-651.09 728.87,-651.13"/>
<text text-anchor="middle" x="782.75" y="-660.52" font-family="Times New Roman,serif" font-size="14.00">unmatchable leafs</text>
</g>
<!-- error&#45;&gt;unmatchableMidProductionNodes -->
<g id="edge15" class="edge">
<title>error&#45;&gt;unmatchableMidProductionNodes</title>
<path fill="none" stroke="black" d="M845.31,-692.18C841.91,-680.37 837.31,-664.42 833.37,-650.76"/>
<polygon fill="black" stroke="black" points="836.82,-650.06 830.68,-641.42 830.09,-652 836.82,-650.06"/>
<text text-anchor="middle" x="903.25" y="-660.52" font-family="Times New Roman,serif" font-size="14.00">unmatchable mid&#45;prod</text>
</g>
<!-- error&#45;&gt;filteredNodes -->
<g id="edge16" class="edge">
<title>error&#45;&gt;filteredNodes</title>
<path fill="none" stroke="black" d="M883.92,-706.22C909.88,-702.33 945.42,-693.56 970.25,-673.82 978.1,-667.57 984.19,-658.59 988.72,-649.88"/>
<polygon fill="black" stroke="black" points="991.82,-651.52 992.85,-640.97 985.47,-648.58 991.82,-651.52"/>
<text text-anchor="middle" x="1002.38" y="-660.52" font-family="Times New Roman,serif" font-size="14.00">filtered</text>
</g>
<!-- recoveredNodes -->
<g id="node18" class="node">
<title>recoveredNodes</title>
<polygon fill="none" stroke="red" points="1140.25,-529.57 1140.25,-565.57 1194.25,-565.57 1194.25,-529.57 1140.25,-529.57"/>
<text text-anchor="middle" x="1153.62" y="-542.14" font-family="Times New Roman,serif" font-size="14.00">0</text>
<polyline fill="none" stroke="red" points="1167,-529.57 1167,-565.57"/>
<text text-anchor="middle" x="1180.38" y="-542.14" font-family="Times New Roman,serif" font-size="14.00">1</text>
</g>
<!-- error&#45;&gt;recoveredNodes -->
<g id="edge25" class="edge">
<title>error&#45;&gt;recoveredNodes</title>
<path fill="none" stroke="black" d="M884.17,-707.63C920.71,-704.66 979.73,-696.45 1025.25,-673.82 1074.6,-649.28 1120.21,-603.16 1145.82,-574.25"/>
<polygon fill="black" stroke="black" points="1148.19,-576.86 1152.11,-567.02 1142.91,-572.27 1148.19,-576.86"/>
<text text-anchor="middle" x="1162.5" y="-616.14" font-family="Times New Roman,serif" font-size="14.00">Nodes to revive</text>
</g>
<!-- 1610612734 -->
<g id="node19" class="node">
<title>1610612734</title>
<ellipse fill="none" stroke="black" cx="854.25" cy="-435.03" rx="141.77" ry="39.07"/>
<text text-anchor="middle" x="854.25" y="-445.35" font-family="Times New Roman,serif" font-size="14.00">Skipping: </text>
<text text-anchor="middle" x="854.25" y="-429.6" font-family="Times New Roman,serif" font-size="14.00">.0@2</text>
<text text-anchor="middle" x="854.25" y="-413.85" font-family="Times New Roman,serif" font-size="14.00">in: &#39;ABC &#45;&gt; a Layout b Layout c&#39;</text>
</g>
<!-- recoveredNodes&#45;&gt;1610612734 -->
<g id="edge19" class="edge">
<title>recoveredNodes:sw&#45;&gt;1610612734</title>
<path fill="none" stroke="black" d="M1140.25,-529.07C1127.03,-515.85 1039.1,-488.3 964.19,-466.6"/>
<polygon fill="black" stroke="black" points="965.27,-463.27 954.69,-463.86 963.33,-470 965.27,-463.27"/>
<text text-anchor="middle" x="1117" y="-497.77" font-family="Times New Roman,serif" font-size="14.00">Stack</text>
</g>
<!-- 409393797 -->
<g id="node21" class="node">
<title>409393797</title>
<polygon fill="none" stroke="black" points="1320.71,-417.51 1320.71,-452.55 1230.81,-477.32 1103.69,-477.32 1013.79,-452.55 1013.79,-417.51 1103.69,-392.74 1230.81,-392.74 1320.71,-417.51"/>
<text text-anchor="middle" x="1167.25" y="-445.35" font-family="Times New Roman,serif" font-size="14.00">Skipped</text>
<text text-anchor="middle" x="1167.25" y="-429.6" font-family="Times New Roman,serif" font-size="14.00">.2@2: &#160;&quot;x&quot;</text>
<text text-anchor="middle" x="1167.25" y="-413.85" font-family="Times New Roman,serif" font-size="14.00">in: &#39;ABC &#45;&gt; a Layout b Layout c&#39;</text>
</g>
<!-- recoveredNodes&#45;&gt;409393797 -->
<g id="edge20" class="edge">
<title>recoveredNodes:se&#45;&gt;409393797</title>
<path fill="none" stroke="black" d="M1167,-529.07C1177.47,-518.6 1180.47,-503.7 1180.02,-488.89"/>
<polygon fill="black" stroke="black" points="1183.52,-488.83 1179.19,-479.17 1176.55,-489.43 1183.52,-488.83"/>
<text text-anchor="middle" x="1194.62" y="-497.77" font-family="Times New Roman,serif" font-size="14.00">Node</text>
</g>
<!-- 1610612736 -->
<g id="node22" class="node">
<title>1610612736</title>
<ellipse fill="none" stroke="black" cx="1455.25" cy="-435.03" rx="116.32" ry="39.07"/>
<text text-anchor="middle" x="1455.25" y="-445.35" font-family="Times New Roman,serif" font-size="14.00">Skipping: </text>
<text text-anchor="middle" x="1455.25" y="-429.6" font-family="Times New Roman,serif" font-size="14.00">.0@0</text>
<text text-anchor="middle" x="1455.25" y="-413.85" font-family="Times New Roman,serif" font-size="14.00">in: &#39;S &#45;&gt; ABC Layout End&#39;</text>
</g>
<!-- recoveredNodes&#45;&gt;1610612736 -->
<g id="edge23" class="edge">
<title>recoveredNodes:sw&#45;&gt;1610612736</title>
<path fill="none" stroke="black" d="M1167,-529.07C1163.65,-525.72 1324.75,-478.77 1329.25,-477.32 1340.04,-473.83 1351.34,-470.15 1362.56,-466.49"/>
<polygon fill="black" stroke="black" points="1363.41,-469.9 1371.83,-463.47 1361.24,-463.24 1363.41,-469.9"/>
<text text-anchor="middle" x="1280" y="-497.77" font-family="Times New Roman,serif" font-size="14.00">Stack</text>
</g>
<!-- 131709548 -->
<g id="node24" class="node">
<title>131709548</title>
<polygon fill="none" stroke="black" points="1841.15,-417.51 1841.15,-452.55 1767.4,-477.32 1663.1,-477.32 1589.35,-452.55 1589.35,-417.51 1663.1,-392.74 1767.4,-392.74 1841.15,-417.51"/>
<text text-anchor="middle" x="1715.25" y="-445.35" font-family="Times New Roman,serif" font-size="14.00">Skipped</text>
<text text-anchor="middle" x="1715.25" y="-429.6" font-family="Times New Roman,serif" font-size="14.00">.0@0: &#160;&quot;a&quot;</text>
<text text-anchor="middle" x="1715.25" y="-413.85" font-family="Times New Roman,serif" font-size="14.00">in: &#39;S &#45;&gt; ABC Layout End&#39;</text>
</g>
<!-- recoveredNodes&#45;&gt;131709548 -->
<g id="edge24" class="edge">
<title>recoveredNodes:se&#45;&gt;131709548</title>
<path fill="none" stroke="black" d="M1193.75,-529.07C1201.41,-521.41 1569.67,-479.63 1580.25,-477.32 1591.8,-474.79 1603.79,-471.76 1615.64,-468.49"/>
<polygon fill="black" stroke="black" points="1616.35,-471.93 1625.02,-465.84 1614.44,-465.19 1616.35,-471.93"/>
<text text-anchor="middle" x="1445.62" y="-497.77" font-family="Times New Roman,serif" font-size="14.00">Node</text>
</g>
<!-- 1610612733 -->
<g id="node20" class="node">
<title>1610612733</title>
<ellipse fill="none" stroke="black" cx="1021.25" cy="-301.93" rx="141.77" ry="39.07"/>
<text text-anchor="middle" x="1021.25" y="-312.25" font-family="Times New Roman,serif" font-size="14.00">RecoveryPoint: 1610612733</text>
<text text-anchor="middle" x="1021.25" y="-296.5" font-family="Times New Roman,serif" font-size="14.00">.2@2</text>
<text text-anchor="middle" x="1021.25" y="-280.75" font-family="Times New Roman,serif" font-size="14.00">in: &#39;ABC &#45;&gt; a Layout b Layout c&#39;</text>
</g>
<!-- 1610612734&#45;&gt;1610612733 -->
<g id="edge18" class="edge">
<title>1610612734&#45;&gt;1610612733</title>
<path fill="none" stroke="black" d="M900.33,-397.86C920.68,-381.88 944.79,-362.95 966.09,-346.23"/>
<polygon fill="black" stroke="black" points="968.14,-349.07 973.84,-340.14 963.82,-343.56 968.14,-349.07"/>
</g>
<!-- 1610612733&#45;&gt;35 -->
<g id="edge17" class="edge">
<title>1610612733&#45;&gt;35</title>
<path fill="none" stroke="black" d="M1021.25,-262.5C1021.25,-232.37 1021.25,-190.62 1021.25,-160.44"/>
<polygon fill="black" stroke="black" points="1024.75,-160.59 1021.25,-150.59 1017.75,-160.59 1024.75,-160.59"/>
</g>
<!-- 1610612735 -->
<g id="node23" class="node">
<title>1610612735</title>
<ellipse fill="none" stroke="black" cx="1252.25" cy="-205.79" rx="122.68" ry="39.07"/>
<text text-anchor="middle" x="1252.25" y="-216.12" font-family="Times New Roman,serif" font-size="14.00">RecoveryPoint: 1610612735</text>
<text text-anchor="middle" x="1252.25" y="-200.37" font-family="Times New Roman,serif" font-size="14.00">.0@0</text>
<text text-anchor="middle" x="1252.25" y="-184.62" font-family="Times New Roman,serif" font-size="14.00">in: &#39;S &#45;&gt; ABC Layout End&#39;</text>
</g>
<!-- 1610612736&#45;&gt;1610612735 -->
<g id="edge22" class="edge">
<title>1610612736&#45;&gt;1610612735</title>
<path fill="none" stroke="black" d="M1422.41,-397.27C1387.14,-357.78 1331.03,-294.98 1292.98,-252.38"/>
<polygon fill="black" stroke="black" points="1295.66,-250.13 1286.39,-245.01 1290.44,-254.8 1295.66,-250.13"/>
</g>
<!-- 1610612735&#45;&gt;&#45;1 -->
<g id="edge21" class="edge">
<title>1610612735&#45;&gt;&#45;1</title>
<path fill="none" stroke="black" d="M1227.37,-167.06C1207.45,-136.87 1179.7,-94.8 1160.07,-65.04"/>
<polygon fill="black" stroke="black" points="1163.01,-63.14 1154.58,-56.72 1157.16,-66.99 1163.01,-63.14"/>
</g>
</g>
</svg>
