<?xml version="1.0" encoding="UTF-8" standalone="no"?>
<!DOCTYPE svg PUBLIC "-//W3C//DTD SVG 1.1//EN"
 "http://www.w3.org/Graphics/SVG/1.1/DTD/svg11.dtd">
<!-- Generated by graphviz version 12.0.0 (20240704.0754)
 -->
<!-- Title: Parser Pages: 1 -->
<svg width="1432pt" height="953pt"
 viewBox="0.00 0.00 1431.78 952.55" xmlns="http://www.w3.org/2000/svg" xmlns:xlink="http://www.w3.org/1999/xlink">
<g id="graph0" class="graph" transform="scale(1 1) rotate(0) translate(4 948.55)">
<title>Parser</title>
<polygon fill="white" stroke="none" points="-4,4 -4,-948.55 1427.78,-948.55 1427.78,4 -4,4"/>
<!-- Parser -->
<g id="node1" class="node">
<title>Parser</title>
<ellipse fill="none" stroke="black" cx="941.32" cy="-894.35" rx="143.37" ry="50.2"/>
<text text-anchor="middle" x="941.32" y="-912.55" font-family="Times New Roman,serif" font-size="14.00">Parser</text>
<text text-anchor="middle" x="941.32" y="-896.8" font-family="Times New Roman,serif" font-size="14.00">Input: &quot;a x $&quot;</text>
<text text-anchor="middle" x="941.32" y="-881.05" font-family="Times New Roman,serif" font-size="14.00">Location: 0 (&#39;x&#39;)</text>
<text text-anchor="middle" x="941.32" y="-865.3" font-family="Times New Roman,serif" font-size="14.00">Step 15: Finding stacks to reduce</text>
</g>
<!-- todoLists -->
<g id="node7" class="node">
<title>todoLists</title>
<polygon fill="none" stroke="red" points="292.82,-755.89 292.82,-791.89 785.82,-791.89 785.82,-755.89 292.82,-755.89"/>
<text text-anchor="middle" x="304.19" y="-768.47" font-family="Times New Roman,serif" font-size="14.00">0</text>
<polyline fill="none" stroke="red" points="315.57,-755.89 315.57,-791.89"/>
<text text-anchor="middle" x="326.94" y="-768.47" font-family="Times New Roman,serif" font-size="14.00">1</text>
<polyline fill="none" stroke="red" points="338.32,-755.89 338.32,-791.89"/>
<text text-anchor="middle" x="349.69" y="-768.47" font-family="Times New Roman,serif" font-size="14.00">2</text>
<polyline fill="none" stroke="red" points="361.07,-755.89 361.07,-791.89"/>
<text text-anchor="middle" x="372.44" y="-768.47" font-family="Times New Roman,serif" font-size="14.00">3</text>
<polyline fill="none" stroke="red" points="383.82,-755.89 383.82,-791.89"/>
<text text-anchor="middle" x="395.19" y="-768.47" font-family="Times New Roman,serif" font-size="14.00">4</text>
<polyline fill="none" stroke="red" points="406.57,-755.89 406.57,-791.89"/>
<text text-anchor="middle" x="417.94" y="-768.47" font-family="Times New Roman,serif" font-size="14.00">5</text>
<polyline fill="none" stroke="red" points="429.32,-755.89 429.32,-791.89"/>
<text text-anchor="middle" x="440.69" y="-768.47" font-family="Times New Roman,serif" font-size="14.00">6</text>
<polyline fill="none" stroke="red" points="452.07,-755.89 452.07,-791.89"/>
<text text-anchor="middle" x="463.44" y="-768.47" font-family="Times New Roman,serif" font-size="14.00">7</text>
<polyline fill="none" stroke="red" points="474.82,-755.89 474.82,-791.89"/>
<text text-anchor="middle" x="486.19" y="-768.47" font-family="Times New Roman,serif" font-size="14.00">8</text>
<polyline fill="none" stroke="red" points="497.57,-755.89 497.57,-791.89"/>
<text text-anchor="middle" x="508.94" y="-768.47" font-family="Times New Roman,serif" font-size="14.00">9</text>
<polyline fill="none" stroke="red" points="520.32,-755.89 520.32,-791.89"/>
<text text-anchor="middle" x="535.07" y="-768.47" font-family="Times New Roman,serif" font-size="14.00">10</text>
<polyline fill="none" stroke="red" points="549.82,-755.89 549.82,-791.89"/>
<text text-anchor="middle" x="564.57" y="-768.47" font-family="Times New Roman,serif" font-size="14.00">11</text>
<polyline fill="none" stroke="red" points="579.32,-755.89 579.32,-791.89"/>
<text text-anchor="middle" x="594.07" y="-768.47" font-family="Times New Roman,serif" font-size="14.00">12</text>
<polyline fill="none" stroke="red" points="608.82,-755.89 608.82,-791.89"/>
<text text-anchor="middle" x="623.57" y="-768.47" font-family="Times New Roman,serif" font-size="14.00">13</text>
<polyline fill="none" stroke="red" points="638.32,-755.89 638.32,-791.89"/>
<text text-anchor="middle" x="653.07" y="-768.47" font-family="Times New Roman,serif" font-size="14.00">14</text>
<polyline fill="none" stroke="red" points="667.82,-755.89 667.82,-791.89"/>
<text text-anchor="middle" x="682.57" y="-768.47" font-family="Times New Roman,serif" font-size="14.00">15</text>
<polyline fill="none" stroke="red" points="697.32,-755.89 697.32,-791.89"/>
<text text-anchor="middle" x="712.07" y="-768.47" font-family="Times New Roman,serif" font-size="14.00">16</text>
<polyline fill="none" stroke="red" points="726.82,-755.89 726.82,-791.89"/>
<text text-anchor="middle" x="741.57" y="-768.47" font-family="Times New Roman,serif" font-size="14.00">17</text>
<polyline fill="none" stroke="red" points="756.32,-755.89 756.32,-791.89"/>
<text text-anchor="middle" x="771.07" y="-768.47" font-family="Times New Roman,serif" font-size="14.00">18</text>
</g>
<!-- Parser&#45;&gt;todoLists -->
<g id="edge12" class="edge">
<title>Parser&#45;&gt;todoLists</title>
<path fill="none" stroke="black" d="M832.53,-861.29C761.57,-840.38 671.03,-813.7 609.46,-795.56"/>
<polygon fill="black" stroke="black" points="610.73,-792.29 600.15,-792.82 608.75,-799 610.73,-792.29"/>
<text text-anchor="middle" x="729.19" y="-812.84" font-family="Times New Roman,serif" font-size="14.00">todo lists</text>
</g>
<!-- stacksToExpand -->
<g id="node13" class="node">
<title>stacksToExpand</title>
<polygon fill="none" stroke="black" points="804.32,-755.89 804.32,-791.89 858.32,-791.89 858.32,-755.89 804.32,-755.89"/>
<text text-anchor="middle" x="831.19" y="-768.47" font-family="Times New Roman,serif" font-size="14.00"> </text>
</g>
<!-- Parser&#45;&gt;stacksToExpand -->
<g id="edge13" class="edge">
<title>Parser&#45;&gt;stacksToExpand</title>
<path fill="none" stroke="black" d="M856.68,-853.43C847.23,-845.66 838.85,-836.61 832.82,-826.14 828.92,-819.38 827.52,-811.24 827.36,-803.46"/>
<polygon fill="black" stroke="black" points="830.84,-803.82 827.83,-793.66 823.85,-803.48 830.84,-803.82"/>
<text text-anchor="middle" x="879.57" y="-812.84" font-family="Times New Roman,serif" font-size="14.00">stacks to expand</text>
</g>
<!-- terminalsToReduce -->
<g id="node14" class="node">
<title>terminalsToReduce</title>
<polygon fill="none" stroke="black" points="914.32,-667.14 914.32,-703.14 968.32,-703.14 968.32,-667.14 914.32,-667.14"/>
<text text-anchor="middle" x="941.19" y="-679.72" font-family="Times New Roman,serif" font-size="14.00">0</text>
</g>
<!-- Parser&#45;&gt;terminalsToReduce -->
<g id="edge16" class="edge">
<title>Parser&#45;&gt;terminalsToReduce</title>
<path fill="none" stroke="black" d="M941.32,-843.72C941.32,-803.41 941.32,-747.98 941.32,-714.74"/>
<polygon fill="black" stroke="black" points="944.82,-715.09 941.32,-705.09 937.82,-715.09 944.82,-715.09"/>
<text text-anchor="middle" x="994.19" y="-768.47" font-family="Times New Roman,serif" font-size="14.00">terminals to reduce</text>
</g>
<!-- nonTerminalsToReduce -->
<g id="node15" class="node">
<title>nonTerminalsToReduce</title>
<polygon fill="none" stroke="black" points="1065.32,-755.89 1065.32,-791.89 1119.32,-791.89 1119.32,-755.89 1065.32,-755.89"/>
<text text-anchor="middle" x="1092.19" y="-768.47" font-family="Times New Roman,serif" font-size="14.00"> </text>
</g>
<!-- Parser&#45;&gt;nonTerminalsToReduce -->
<g id="edge17" class="edge">
<title>Parser&#45;&gt;nonTerminalsToReduce</title>
<path fill="none" stroke="black" d="M998.84,-848.23C1020.13,-831.52 1043.45,-813.23 1061.47,-799.09"/>
<polygon fill="black" stroke="black" points="1063.47,-801.97 1069.18,-793.04 1059.15,-796.46 1063.47,-801.97"/>
<text text-anchor="middle" x="1108.94" y="-812.84" font-family="Times New Roman,serif" font-size="14.00">non&#45;terminals to reduce</text>
</g>
<!-- error -->
<g id="node25" class="node">
<title>error</title>
<ellipse fill="none" stroke="black" cx="1203.32" cy="-773.89" rx="34.1" ry="18"/>
<text text-anchor="middle" x="1203.32" y="-768.47" font-family="Times New Roman,serif" font-size="14.00">Errors</text>
</g>
<!-- Parser&#45;&gt;error -->
<g id="edge24" class="edge">
<title>Parser&#45;&gt;error</title>
<path fill="none" stroke="black" d="M1075.34,-875.96C1111.79,-866.04 1149.21,-850.5 1178.32,-826.14 1185.69,-819.98 1191.06,-811.12 1194.89,-802.51"/>
<polygon fill="black" stroke="black" points="1198.09,-803.94 1198.42,-793.35 1191.56,-801.42 1198.09,-803.94"/>
<text text-anchor="middle" x="1227.82" y="-812.84" font-family="Times New Roman,serif" font-size="14.00">error tracking</text>
</g>
<!-- todo&#45;2 -->
<g id="node2" class="node">
<title>todo&#45;2</title>
<polygon fill="none" stroke="black" points="323.32,-667.14 323.32,-703.14 377.32,-703.14 377.32,-667.14 323.32,-667.14"/>
<text text-anchor="middle" x="350.19" y="-679.72" font-family="Times New Roman,serif" font-size="14.00">0</text>
</g>
<!-- 1610612736 -->
<g id="node3" class="node">
<title>1610612736</title>
<ellipse fill="none" stroke="black" cx="116.32" cy="-572.61" rx="116.32" ry="39.07"/>
<text text-anchor="middle" x="116.32" y="-582.93" font-family="Times New Roman,serif" font-size="14.00">Skipping: </text>
<text text-anchor="middle" x="116.32" y="-567.18" font-family="Times New Roman,serif" font-size="14.00">.0@0</text>
<text text-anchor="middle" x="116.32" y="-551.43" font-family="Times New Roman,serif" font-size="14.00">in: &#39;S &#45;&gt; ABC Layout End&#39;</text>
</g>
<!-- todo&#45;2&#45;&gt;1610612736 -->
<g id="edge3" class="edge">
<title>todo&#45;2:sw&#45;&gt;1610612736</title>
<path fill="none" stroke="black" d="M323.32,-666.64C305.32,-648.64 252.74,-625.11 205.09,-606.21"/>
<polygon fill="black" stroke="black" points="206.37,-602.96 195.79,-602.56 203.82,-609.47 206.37,-602.96"/>
<text text-anchor="middle" x="313.07" y="-635.34" font-family="Times New Roman,serif" font-size="14.00">Stack</text>
</g>
<!-- 131709548 -->
<g id="node6" class="node">
<title>131709548</title>
<polygon fill="none" stroke="black" points="502.22,-555.09 502.22,-590.12 428.47,-614.89 324.17,-614.89 250.42,-590.12 250.42,-555.09 324.17,-530.32 428.47,-530.32 502.22,-555.09"/>
<text text-anchor="middle" x="376.32" y="-582.93" font-family="Times New Roman,serif" font-size="14.00">Skipped</text>
<text text-anchor="middle" x="376.32" y="-567.18" font-family="Times New Roman,serif" font-size="14.00">.0@0: &#160;&quot;a&quot;</text>
<text text-anchor="middle" x="376.32" y="-551.43" font-family="Times New Roman,serif" font-size="14.00">in: &#39;S &#45;&gt; ABC Layout End&#39;</text>
</g>
<!-- todo&#45;2&#45;&gt;131709548 -->
<g id="edge4" class="edge">
<title>todo&#45;2:se&#45;&gt;131709548</title>
<path fill="none" stroke="black" d="M377.07,-666.64C387.54,-656.18 390.41,-641.28 389.79,-626.47"/>
<polygon fill="black" stroke="black" points="393.3,-626.35 388.85,-616.74 386.33,-627.03 393.3,-626.35"/>
<text text-anchor="middle" x="405.69" y="-635.34" font-family="Times New Roman,serif" font-size="14.00">Node</text>
</g>
<!-- 1610612735 -->
<g id="node4" class="node">
<title>1610612735</title>
<ellipse fill="none" stroke="black" cx="417.32" cy="-205.79" rx="122.68" ry="39.07"/>
<text text-anchor="middle" x="417.32" y="-216.12" font-family="Times New Roman,serif" font-size="14.00">RecoveryPoint: 1610612735</text>
<text text-anchor="middle" x="417.32" y="-200.37" font-family="Times New Roman,serif" font-size="14.00">.0@0</text>
<text text-anchor="middle" x="417.32" y="-184.62" font-family="Times New Roman,serif" font-size="14.00">in: &#39;S &#45;&gt; ABC Layout End&#39;</text>
</g>
<!-- 1610612736&#45;&gt;1610612735 -->
<g id="edge2" class="edge">
<title>1610612736&#45;&gt;1610612735</title>
<path fill="none" stroke="black" d="M146.84,-534.62C202.27,-467.43 319.35,-325.53 379.66,-252.44"/>
<polygon fill="black" stroke="black" points="382.09,-254.98 385.76,-245.04 376.69,-250.53 382.09,-254.98"/>
</g>
<!-- &#45;1 -->
<g id="node5" class="node">
<title>&#45;1</title>
<ellipse fill="none" stroke="black" cx="440.32" cy="-27.93" rx="73.36" ry="27.93"/>
<text text-anchor="middle" x="440.32" y="-30.38" font-family="Times New Roman,serif" font-size="14.00">NonTerminal: S</text>
<text text-anchor="middle" x="440.32" y="-14.63" font-family="Times New Roman,serif" font-size="14.00">.0@&#45;1</text>
</g>
<!-- 1610612735&#45;&gt;&#45;1 -->
<g id="edge1" class="edge">
<title>1610612735&#45;&gt;&#45;1</title>
<path fill="none" stroke="black" d="M422.31,-166.63C426.16,-137.2 431.46,-96.68 435.31,-67.22"/>
<polygon fill="black" stroke="black" points="438.74,-67.99 436.57,-57.62 431.8,-67.08 438.74,-67.99"/>
</g>
<!-- todoLists&#45;&gt;todo&#45;2 -->
<g id="edge5" class="edge">
<title>todoLists:2&#45;&gt;todo&#45;2</title>
<path fill="none" stroke="black" d="M349.69,-755.39C349.69,-742 349.81,-727.15 349.95,-714.65"/>
<polygon fill="black" stroke="black" points="353.44,-715.06 350.06,-705.02 346.44,-714.97 353.44,-715.06"/>
</g>
<!-- todo&#45;4 -->
<g id="node8" class="node">
<title>todo&#45;4</title>
<polygon fill="none" stroke="black" points="662.32,-667.14 662.32,-703.14 716.32,-703.14 716.32,-667.14 662.32,-667.14"/>
<text text-anchor="middle" x="689.19" y="-679.72" font-family="Times New Roman,serif" font-size="14.00">0</text>
</g>
<!-- todoLists&#45;&gt;todo&#45;4 -->
<g id="edge11" class="edge">
<title>todoLists:4&#45;&gt;todo&#45;4</title>
<path fill="none" stroke="black" d="M395.19,-755.39C395.19,-703.45 571.16,-690.43 650.88,-687.2"/>
<polygon fill="black" stroke="black" points="650.54,-690.71 660.4,-686.84 650.28,-683.72 650.54,-690.71"/>
</g>
<!-- 1610612734 -->
<g id="node9" class="node">
<title>1610612734</title>
<ellipse fill="none" stroke="black" cx="662.32" cy="-572.61" rx="141.77" ry="39.07"/>
<text text-anchor="middle" x="662.32" y="-582.93" font-family="Times New Roman,serif" font-size="14.00">Skipping: </text>
<text text-anchor="middle" x="662.32" y="-567.18" font-family="Times New Roman,serif" font-size="14.00">.0@2</text>
<text text-anchor="middle" x="662.32" y="-551.43" font-family="Times New Roman,serif" font-size="14.00">in: &#39;ABC &#45;&gt; a Layout b Layout c&#39;</text>
</g>
<!-- todo&#45;4&#45;&gt;1610612734 -->
<g id="edge9" class="edge">
<title>todo&#45;4:sw&#45;&gt;1610612734</title>
<path fill="none" stroke="black" d="M662.32,-666.64C651.11,-655.43 648.49,-639.13 649.53,-623.3"/>
<polygon fill="black" stroke="black" points="653,-623.78 650.69,-613.44 646.05,-622.97 653,-623.78"/>
<text text-anchor="middle" x="667.07" y="-635.34" font-family="Times New Roman,serif" font-size="14.00">Stack</text>
</g>
<!-- 409393797 -->
<g id="node12" class="node">
<title>409393797</title>
<polygon fill="none" stroke="black" points="1128.78,-555.09 1128.78,-590.12 1038.88,-614.89 911.76,-614.89 821.86,-590.12 821.86,-555.09 911.76,-530.32 1038.88,-530.32 1128.78,-555.09"/>
<text text-anchor="middle" x="975.32" y="-582.93" font-family="Times New Roman,serif" font-size="14.00">Skipped</text>
<text text-anchor="middle" x="975.32" y="-567.18" font-family="Times New Roman,serif" font-size="14.00">.2@2: &#160;&quot;x&quot;</text>
<text text-anchor="middle" x="975.32" y="-551.43" font-family="Times New Roman,serif" font-size="14.00">in: &#39;ABC &#45;&gt; a Layout b Layout c&#39;</text>
</g>
<!-- todo&#45;4&#45;&gt;409393797 -->
<g id="edge10" class="edge">
<title>todo&#45;4:se&#45;&gt;409393797</title>
<path fill="none" stroke="black" d="M716.07,-666.64C736.92,-645.79 797.84,-623.44 855.4,-605.87"/>
<polygon fill="black" stroke="black" points="856.08,-609.32 864.64,-603.08 854.06,-602.62 856.08,-609.32"/>
<text text-anchor="middle" x="786.69" y="-635.34" font-family="Times New Roman,serif" font-size="14.00">Node</text>
</g>
<!-- 1610612733 -->
<g id="node10" class="node">
<title>1610612733</title>
<ellipse fill="none" stroke="black" cx="662.32" cy="-380.39" rx="141.77" ry="39.07"/>
<text text-anchor="middle" x="662.32" y="-390.71" font-family="Times New Roman,serif" font-size="14.00">RecoveryPoint: 1610612733</text>
<text text-anchor="middle" x="662.32" y="-374.96" font-family="Times New Roman,serif" font-size="14.00">.2@2</text>
<text text-anchor="middle" x="662.32" y="-359.21" font-family="Times New Roman,serif" font-size="14.00">in: &#39;ABC &#45;&gt; a Layout b Layout c&#39;</text>
</g>
<!-- 1610612734&#45;&gt;1610612733 -->
<g id="edge8" class="edge">
<title>1610612734&#45;&gt;1610612733</title>
<path fill="none" stroke="black" d="M662.32,-533.11C662.32,-503.72 662.32,-462.99 662.32,-431.13"/>
<polygon fill="black" stroke="black" points="665.82,-431.34 662.32,-421.34 658.82,-431.34 665.82,-431.34"/>
</g>
<!-- 35 -->
<g id="node11" class="node">
<title>35</title>
<ellipse fill="none" stroke="black" cx="662.32" cy="-120.79" rx="87.68" ry="27.93"/>
<text text-anchor="middle" x="662.32" y="-123.24" font-family="Times New Roman,serif" font-size="14.00">NonTerminal: ABC</text>
<text text-anchor="middle" x="662.32" y="-107.49" font-family="Times New Roman,serif" font-size="14.00">.0@0</text>
</g>
<!-- 1610612733&#45;&gt;35 -->
<g id="edge7" class="edge">
<title>1610612733&#45;&gt;35</title>
<path fill="none" stroke="black" d="M662.32,-340.82C662.32,-292.2 662.32,-209.1 662.32,-160.44"/>
<polygon fill="black" stroke="black" points="665.82,-160.65 662.32,-150.65 658.82,-160.65 665.82,-160.65"/>
</g>
<!-- 35&#45;&gt;&#45;1 -->
<g id="edge6" class="edge">
<title>35&#45;&gt;&#45;1</title>
<path fill="none" stroke="black" d="M609.43,-98.14C576.42,-84.63 533.86,-67.22 499.7,-53.23"/>
<polygon fill="black" stroke="black" points="501.37,-50.14 490.79,-49.59 498.72,-56.61 501.37,-50.14"/>
</g>
<!-- terminalsToReduce&#45;&gt;1610612734 -->
<g id="edge14" class="edge">
<title>terminalsToReduce:sw&#45;&gt;1610612734</title>
<path fill="none" stroke="black" d="M914.32,-666.64C893.17,-645.49 829.95,-622.18 772.13,-604.18"/>
<polygon fill="black" stroke="black" points="773.44,-600.92 762.85,-601.33 771.38,-607.61 773.44,-600.92"/>
<text text-anchor="middle" x="903.07" y="-635.34" font-family="Times New Roman,serif" font-size="14.00">Stack</text>
</g>
<!-- terminalsToReduce&#45;&gt;409393797 -->
<g id="edge15" class="edge">
<title>terminalsToReduce:se&#45;&gt;409393797</title>
<path fill="none" stroke="black" d="M968.07,-666.64C978.57,-656.14 982.48,-641.24 983.17,-626.43"/>
<polygon fill="black" stroke="black" points="986.67,-626.7 983.14,-616.71 979.67,-626.72 986.67,-626.7"/>
<text text-anchor="middle" x="997.69" y="-635.34" font-family="Times New Roman,serif" font-size="14.00">Node</text>
</g>
<!-- unexpandableNodes -->
<g id="node16" class="node">
<title>unexpandableNodes</title>
<polygon fill="none" stroke="black" points="986.32,-667.14 986.32,-703.14 1040.32,-703.14 1040.32,-667.14 986.32,-667.14"/>
<text text-anchor="middle" x="1013.19" y="-679.72" font-family="Times New Roman,serif" font-size="14.00"> </text>
</g>
<!-- unmatchableLeafNodes -->
<g id="node17" class="node">
<title>unmatchableLeafNodes</title>
<polygon fill="none" stroke="black" points="1086.32,-667.14 1086.32,-703.14 1140.32,-703.14 1140.32,-667.14 1086.32,-667.14"/>
<text text-anchor="middle" x="1113.19" y="-679.72" font-family="Times New Roman,serif" font-size="14.00"> </text>
</g>
<!-- unmatchableMidProductionNodes -->
<g id="node18" class="node">
<title>unmatchableMidProductionNodes</title>
<polygon fill="none" stroke="black" points="1207.32,-667.14 1207.32,-703.14 1261.32,-703.14 1261.32,-667.14 1207.32,-667.14"/>
<text text-anchor="middle" x="1234.19" y="-679.72" font-family="Times New Roman,serif" font-size="14.00">0</text>
</g>
<!-- unmatchable&#45;mid&#45;production&#45;0 -->
<g id="node19" class="node">
<title>unmatchable&#45;mid&#45;production&#45;0</title>
<polygon fill="none" stroke="black" points="1146.69,-554.61 1146.69,-590.61 1321.94,-590.61 1321.94,-554.61 1146.69,-554.61"/>
<text text-anchor="middle" x="1188.82" y="-567.18" font-family="Times New Roman,serif" font-size="14.00">Failed Node</text>
<polyline fill="none" stroke="black" points="1230.94,-554.61 1230.94,-590.61"/>
<text text-anchor="middle" x="1276.44" y="-567.18" font-family="Times New Roman,serif" font-size="14.00">Predecessors</text>
</g>
<!-- unmatchableMidProductionNodes&#45;&gt;unmatchable&#45;mid&#45;production&#45;0 -->
<g id="edge18" class="edge">
<title>unmatchableMidProductionNodes:0&#45;&gt;unmatchable&#45;mid&#45;production&#45;0</title>
<path fill="none" stroke="black" d="M1234.21,-666.72C1234.23,-649.22 1234.26,-622.63 1234.29,-602.34"/>
<polygon fill="black" stroke="black" points="1237.79,-602.47 1234.3,-592.46 1230.79,-602.46 1237.79,-602.47"/>
</g>
<!-- 57 -->
<g id="node20" class="node">
<title>57</title>
<ellipse fill="none" stroke="black" cx="1189.32" cy="-465.39" rx="40.48" ry="27.93"/>
<text text-anchor="middle" x="1189.32" y="-467.84" font-family="Times New Roman,serif" font-size="14.00">Literal: </text>
<text text-anchor="middle" x="1189.32" y="-452.09" font-family="Times New Roman,serif" font-size="14.00">.2@&#45;1</text>
</g>
<!-- unmatchable&#45;mid&#45;production&#45;0&#45;&gt;57 -->
<g id="edge22" class="edge">
<title>unmatchable&#45;mid&#45;production&#45;0:failedNode&#45;&gt;57</title>
<path fill="none" stroke="black" d="M1188.82,-553.61C1188.82,-537.56 1188.9,-519.85 1189.01,-504.6"/>
<polygon fill="black" stroke="black" points="1192.5,-505.03 1189.07,-495.01 1185.5,-504.98 1192.5,-505.03"/>
</g>
<!-- unmatchable&#45;mid&#45;production&#45;predecessors&#45;0 -->
<g id="node21" class="node">
<title>unmatchable&#45;mid&#45;production&#45;predecessors&#45;0</title>
<polygon fill="none" stroke="black" points="1248.32,-447.39 1248.32,-483.39 1302.32,-483.39 1302.32,-447.39 1248.32,-447.39"/>
<text text-anchor="middle" x="1275.19" y="-459.96" font-family="Times New Roman,serif" font-size="14.00">0</text>
</g>
<!-- unmatchable&#45;mid&#45;production&#45;0&#45;&gt;unmatchable&#45;mid&#45;production&#45;predecessors&#45;0 -->
<g id="edge23" class="edge">
<title>unmatchable&#45;mid&#45;production&#45;0:predecessors&#45;&gt;unmatchable&#45;mid&#45;production&#45;predecessors&#45;0</title>
<path fill="none" stroke="black" d="M1276.44,-553.61C1276.44,-534.11 1276.16,-512.16 1275.88,-495.16"/>
<polygon fill="black" stroke="black" points="1279.38,-495.21 1275.7,-485.28 1272.38,-495.34 1279.38,-495.21"/>
</g>
<!-- 56 -->
<g id="node22" class="node">
<title>56</title>
<ellipse fill="none" stroke="black" cx="925.32" cy="-293.09" rx="95.11" ry="27.93"/>
<text text-anchor="middle" x="925.32" y="-295.54" font-family="Times New Roman,serif" font-size="14.00">NonTerminal: Layout</text>
<text text-anchor="middle" x="925.32" y="-279.79" font-family="Times New Roman,serif" font-size="14.00">.1@1</text>
</g>
<!-- unmatchable&#45;mid&#45;production&#45;predecessors&#45;0&#45;&gt;56 -->
<g id="edge20" class="edge">
<title>unmatchable&#45;mid&#45;production&#45;predecessors&#45;0:sw&#45;&gt;56</title>
<path fill="none" stroke="black" d="M1248.32,-446.39C1180.98,-379.05 1078.15,-337.68 1006.67,-315.37"/>
<polygon fill="black" stroke="black" points="1007.96,-312.1 997.37,-312.53 1005.91,-318.8 1007.96,-312.1"/>
<text text-anchor="middle" x="1227.07" y="-374.96" font-family="Times New Roman,serif" font-size="14.00">Stack</text>
</g>
<!-- 1410514922 -->
<g id="node23" class="node">
<title>1410514922</title>
<polygon fill="none" stroke="black" points="1423.78,-280.57 1423.78,-305.61 1352.04,-323.32 1250.6,-323.32 1178.86,-305.61 1178.86,-280.57 1250.6,-262.86 1352.04,-262.86 1423.78,-280.57"/>
<text text-anchor="middle" x="1301.32" y="-295.54" font-family="Times New Roman,serif" font-size="14.00">SortContainer 1&#45;2</text>
<text text-anchor="middle" x="1301.32" y="-279.79" font-family="Times New Roman,serif" font-size="14.00">&#39;Layout &#45;&gt; [range(32,32)]&#39;</text>
</g>
<!-- unmatchable&#45;mid&#45;production&#45;predecessors&#45;0&#45;&gt;1410514922 -->
<g id="edge21" class="edge">
<title>unmatchable&#45;mid&#45;production&#45;predecessors&#45;0:se&#45;&gt;1410514922</title>
<path fill="none" stroke="black" d="M1302.07,-446.39C1330.66,-417.79 1324.82,-369 1315.49,-334.36"/>
<polygon fill="black" stroke="black" points="1318.95,-333.73 1312.8,-325.1 1312.23,-335.68 1318.95,-333.73"/>
<text text-anchor="middle" x="1337.69" y="-374.96" font-family="Times New Roman,serif" font-size="14.00">Node</text>
</g>
<!-- 56&#45;&gt;35 -->
<g id="edge19" class="edge">
<title>56&#45;&gt;35</title>
<path fill="none" stroke="black" d="M886.79,-267.14C839.75,-236.68 760.19,-185.17 709.51,-152.35"/>
<polygon fill="black" stroke="black" points="711.66,-149.57 701.36,-147.07 707.85,-155.45 711.66,-149.57"/>
</g>
<!-- filteredNodes -->
<g id="node24" class="node">
<title>filteredNodes</title>
<polygon fill="none" stroke="black" points="1357.32,-667.14 1357.32,-703.14 1411.32,-703.14 1411.32,-667.14 1357.32,-667.14"/>
<text text-anchor="middle" x="1384.19" y="-679.72" font-family="Times New Roman,serif" font-size="14.00"> </text>
</g>
<!-- error&#45;&gt;unexpandableNodes -->
<g id="edge25" class="edge">
<title>error&#45;&gt;unexpandableNodes</title>
<path fill="none" stroke="black" d="M1172.75,-765.36C1159.18,-762.11 1142.99,-758.39 1128.32,-755.39 1083,-746.13 1059.58,-769.01 1025.82,-737.39 1019.48,-731.45 1016.12,-722.88 1014.4,-714.43"/>
<polygon fill="black" stroke="black" points="1017.91,-714.23 1013.15,-704.76 1010.97,-715.13 1017.91,-714.23"/>
<text text-anchor="middle" x="1063.57" y="-724.09" font-family="Times New Roman,serif" font-size="14.00">unexpandable</text>
</g>
<!-- error&#45;&gt;unmatchableLeafNodes -->
<g id="edge26" class="edge">
<title>error&#45;&gt;unmatchableLeafNodes</title>
<path fill="none" stroke="black" d="M1170.2,-769.27C1149.83,-765.13 1125.23,-756.29 1112.32,-737.39 1107.8,-730.78 1106.58,-722.48 1106.9,-714.49"/>
<polygon fill="black" stroke="black" points="1110.35,-715.11 1108.09,-704.76 1103.41,-714.26 1110.35,-715.11"/>
<text text-anchor="middle" x="1161.82" y="-724.09" font-family="Times New Roman,serif" font-size="14.00">unmatchable leafs</text>
</g>
<!-- error&#45;&gt;unmatchableMidProductionNodes -->
<g id="edge27" class="edge">
<title>error&#45;&gt;unmatchableMidProductionNodes</title>
<path fill="none" stroke="black" d="M1209.44,-755.75C1213.66,-743.95 1219.36,-727.99 1224.25,-714.33"/>
<polygon fill="black" stroke="black" points="1227.52,-715.56 1227.59,-704.97 1220.93,-713.21 1227.52,-715.56"/>
<text text-anchor="middle" x="1284.32" y="-724.09" font-family="Times New Roman,serif" font-size="14.00">unmatchable mid&#45;prod</text>
</g>
<!-- error&#45;&gt;filteredNodes -->
<g id="edge28" class="edge">
<title>error&#45;&gt;filteredNodes</title>
<path fill="none" stroke="black" d="M1237.42,-771.84C1269.49,-769.31 1317.49,-761.4 1351.32,-737.39 1359.88,-731.32 1366.76,-722.26 1371.98,-713.44"/>
<polygon fill="black" stroke="black" points="1375.01,-715.19 1376.63,-704.72 1368.83,-711.9 1375.01,-715.19"/>
<text text-anchor="middle" x="1384.44" y="-724.09" font-family="Times New Roman,serif" font-size="14.00">filtered</text>
</g>
</g>
</svg>
