<?xml version="1.0" encoding="UTF-8" standalone="no"?>
<!DOCTYPE svg PUBLIC "-//W3C//DTD SVG 1.1//EN"
 "http://www.w3.org/Graphics/SVG/1.1/DTD/svg11.dtd">
<!-- Generated by graphviz version 12.0.0 (20240704.0754)
 -->
<!-- Title: Parser Pages: 1 -->
<svg width="1433pt" height="953pt"
 viewBox="0.00 0.00 1432.78 952.55" xmlns="http://www.w3.org/2000/svg" xmlns:xlink="http://www.w3.org/1999/xlink">
<g id="graph0" class="graph" transform="scale(1 1) rotate(0) translate(4 948.55)">
<title>Parser</title>
<polygon fill="white" stroke="none" points="-4,4 -4,-948.55 1428.78,-948.55 1428.78,4 -4,4"/>
<!-- Parser -->
<g id="node1" class="node">
<title>Parser</title>
<ellipse fill="none" stroke="black" cx="949.32" cy="-894.35" rx="135.41" ry="50.2"/>
<text text-anchor="middle" x="949.32" y="-912.55" font-family="Times New Roman,serif" font-size="14.00">Parser</text>
<text text-anchor="middle" x="949.32" y="-896.8" font-family="Times New Roman,serif" font-size="14.00">Input: &quot;a x $&quot;</text>
<text text-anchor="middle" x="949.32" y="-881.05" font-family="Times New Roman,serif" font-size="14.00">Location: 0 (&#39;x&#39;)</text>
<text text-anchor="middle" x="949.32" y="-865.3" font-family="Times New Roman,serif" font-size="14.00">Step 16: Found stack to reduce</text>
</g>
<!-- todoLists -->
<g id="node7" class="node">
<title>todoLists</title>
<polygon fill="none" stroke="black" points="309.82,-755.89 309.82,-791.89 802.82,-791.89 802.82,-755.89 309.82,-755.89"/>
<text text-anchor="middle" x="321.19" y="-768.47" font-family="Times New Roman,serif" font-size="14.00">0</text>
<polyline fill="none" stroke="black" points="332.57,-755.89 332.57,-791.89"/>
<text text-anchor="middle" x="343.94" y="-768.47" font-family="Times New Roman,serif" font-size="14.00">1</text>
<polyline fill="none" stroke="black" points="355.32,-755.89 355.32,-791.89"/>
<text text-anchor="middle" x="366.69" y="-768.47" font-family="Times New Roman,serif" font-size="14.00">2</text>
<polyline fill="none" stroke="black" points="378.07,-755.89 378.07,-791.89"/>
<text text-anchor="middle" x="389.44" y="-768.47" font-family="Times New Roman,serif" font-size="14.00">3</text>
<polyline fill="none" stroke="black" points="400.82,-755.89 400.82,-791.89"/>
<text text-anchor="middle" x="412.19" y="-768.47" font-family="Times New Roman,serif" font-size="14.00">4</text>
<polyline fill="none" stroke="black" points="423.57,-755.89 423.57,-791.89"/>
<text text-anchor="middle" x="434.94" y="-768.47" font-family="Times New Roman,serif" font-size="14.00">5</text>
<polyline fill="none" stroke="black" points="446.32,-755.89 446.32,-791.89"/>
<text text-anchor="middle" x="457.69" y="-768.47" font-family="Times New Roman,serif" font-size="14.00">6</text>
<polyline fill="none" stroke="black" points="469.07,-755.89 469.07,-791.89"/>
<text text-anchor="middle" x="480.44" y="-768.47" font-family="Times New Roman,serif" font-size="14.00">7</text>
<polyline fill="none" stroke="black" points="491.82,-755.89 491.82,-791.89"/>
<text text-anchor="middle" x="503.19" y="-768.47" font-family="Times New Roman,serif" font-size="14.00">8</text>
<polyline fill="none" stroke="black" points="514.57,-755.89 514.57,-791.89"/>
<text text-anchor="middle" x="525.94" y="-768.47" font-family="Times New Roman,serif" font-size="14.00">9</text>
<polyline fill="none" stroke="black" points="537.32,-755.89 537.32,-791.89"/>
<text text-anchor="middle" x="552.07" y="-768.47" font-family="Times New Roman,serif" font-size="14.00">10</text>
<polyline fill="none" stroke="black" points="566.82,-755.89 566.82,-791.89"/>
<text text-anchor="middle" x="581.57" y="-768.47" font-family="Times New Roman,serif" font-size="14.00">11</text>
<polyline fill="none" stroke="black" points="596.32,-755.89 596.32,-791.89"/>
<text text-anchor="middle" x="611.07" y="-768.47" font-family="Times New Roman,serif" font-size="14.00">12</text>
<polyline fill="none" stroke="black" points="625.82,-755.89 625.82,-791.89"/>
<text text-anchor="middle" x="640.57" y="-768.47" font-family="Times New Roman,serif" font-size="14.00">13</text>
<polyline fill="none" stroke="black" points="655.32,-755.89 655.32,-791.89"/>
<text text-anchor="middle" x="670.07" y="-768.47" font-family="Times New Roman,serif" font-size="14.00">14</text>
<polyline fill="none" stroke="black" points="684.82,-755.89 684.82,-791.89"/>
<text text-anchor="middle" x="699.57" y="-768.47" font-family="Times New Roman,serif" font-size="14.00">15</text>
<polyline fill="none" stroke="black" points="714.32,-755.89 714.32,-791.89"/>
<text text-anchor="middle" x="729.07" y="-768.47" font-family="Times New Roman,serif" font-size="14.00">16</text>
<polyline fill="none" stroke="black" points="743.82,-755.89 743.82,-791.89"/>
<text text-anchor="middle" x="758.57" y="-768.47" font-family="Times New Roman,serif" font-size="14.00">17</text>
<polyline fill="none" stroke="black" points="773.32,-755.89 773.32,-791.89"/>
<text text-anchor="middle" x="788.07" y="-768.47" font-family="Times New Roman,serif" font-size="14.00">18</text>
</g>
<!-- Parser&#45;&gt;todoLists -->
<g id="edge12" class="edge">
<title>Parser&#45;&gt;todoLists</title>
<path fill="none" stroke="black" d="M845.03,-861.91C775.46,-840.94 685.94,-813.96 625.15,-795.64"/>
<polygon fill="black" stroke="black" points="626.18,-792.29 615.6,-792.76 624.16,-799 626.18,-792.29"/>
<text text-anchor="middle" x="743.19" y="-812.84" font-family="Times New Roman,serif" font-size="14.00">todo lists</text>
</g>
<!-- stacksToExpand -->
<g id="node13" class="node">
<title>stacksToExpand</title>
<polygon fill="none" stroke="black" points="821.32,-755.89 821.32,-791.89 875.32,-791.89 875.32,-755.89 821.32,-755.89"/>
<text text-anchor="middle" x="848.19" y="-768.47" font-family="Times New Roman,serif" font-size="14.00"> </text>
</g>
<!-- Parser&#45;&gt;stacksToExpand -->
<g id="edge13" class="edge">
<title>Parser&#45;&gt;stacksToExpand</title>
<path fill="none" stroke="black" d="M865.7,-854.66C855.75,-846.63 846.96,-837.18 840.82,-826.14 836.94,-819.17 836.65,-810.88 837.92,-803.02"/>
<polygon fill="black" stroke="black" points="841.28,-804.04 840.31,-793.49 834.49,-802.34 841.28,-804.04"/>
<text text-anchor="middle" x="887.57" y="-812.84" font-family="Times New Roman,serif" font-size="14.00">stacks to expand</text>
</g>
<!-- terminalsToReduce -->
<g id="node14" class="node">
<title>terminalsToReduce</title>
<polygon fill="none" stroke="black" points="917.32,-667.14 917.32,-703.14 971.32,-703.14 971.32,-667.14 917.32,-667.14"/>
<text text-anchor="middle" x="944.19" y="-679.72" font-family="Times New Roman,serif" font-size="14.00">0</text>
</g>
<!-- Parser&#45;&gt;terminalsToReduce -->
<g id="edge16" class="edge">
<title>Parser&#45;&gt;terminalsToReduce</title>
<path fill="none" stroke="black" d="M948.12,-843.72C947.15,-803.41 945.81,-747.98 945.01,-714.74"/>
<polygon fill="black" stroke="black" points="948.52,-715 944.78,-705.09 941.52,-715.17 948.52,-715"/>
<text text-anchor="middle" x="999.19" y="-768.47" font-family="Times New Roman,serif" font-size="14.00">terminals to reduce</text>
</g>
<!-- nonTerminalsToReduce -->
<g id="node15" class="node">
<title>nonTerminalsToReduce</title>
<polygon fill="none" stroke="black" points="1073.32,-755.89 1073.32,-791.89 1127.32,-791.89 1127.32,-755.89 1073.32,-755.89"/>
<text text-anchor="middle" x="1100.19" y="-768.47" font-family="Times New Roman,serif" font-size="14.00"> </text>
</g>
<!-- Parser&#45;&gt;nonTerminalsToReduce -->
<g id="edge17" class="edge">
<title>Parser&#45;&gt;nonTerminalsToReduce</title>
<path fill="none" stroke="black" d="M1006.41,-848.56C1027.74,-831.83 1051.17,-813.45 1069.28,-799.24"/>
<polygon fill="black" stroke="black" points="1071.34,-802.08 1077.05,-793.15 1067.02,-796.57 1071.34,-802.08"/>
<text text-anchor="middle" x="1116.94" y="-812.84" font-family="Times New Roman,serif" font-size="14.00">non&#45;terminals to reduce</text>
</g>
<!-- error -->
<g id="node25" class="node">
<title>error</title>
<ellipse fill="none" stroke="black" cx="1211.32" cy="-773.89" rx="34.1" ry="18"/>
<text text-anchor="middle" x="1211.32" y="-768.47" font-family="Times New Roman,serif" font-size="14.00">Errors</text>
</g>
<!-- Parser&#45;&gt;error -->
<g id="edge24" class="edge">
<title>Parser&#45;&gt;error</title>
<path fill="none" stroke="black" d="M1077.49,-877.5C1115.77,-867.68 1155.65,-851.8 1186.32,-826.14 1193.69,-819.98 1199.06,-811.12 1202.89,-802.51"/>
<polygon fill="black" stroke="black" points="1206.09,-803.94 1206.42,-793.35 1199.56,-801.42 1206.09,-803.94"/>
<text text-anchor="middle" x="1235.82" y="-812.84" font-family="Times New Roman,serif" font-size="14.00">error tracking</text>
</g>
<!-- todo&#45;1 -->
<g id="node2" class="node">
<title>todo&#45;1</title>
<polygon fill="none" stroke="red" points="317.32,-667.14 317.32,-703.14 371.32,-703.14 371.32,-667.14 317.32,-667.14"/>
<text text-anchor="middle" x="344.19" y="-679.72" font-family="Times New Roman,serif" font-size="14.00">0</text>
</g>
<!-- 1610612736 -->
<g id="node3" class="node">
<title>1610612736</title>
<ellipse fill="none" stroke="black" cx="116.32" cy="-572.61" rx="116.32" ry="39.07"/>
<text text-anchor="middle" x="116.32" y="-582.93" font-family="Times New Roman,serif" font-size="14.00">Skipping: </text>
<text text-anchor="middle" x="116.32" y="-567.18" font-family="Times New Roman,serif" font-size="14.00">.0@0</text>
<text text-anchor="middle" x="116.32" y="-551.43" font-family="Times New Roman,serif" font-size="14.00">in: &#39;S &#45;&gt; ABC Layout End&#39;</text>
</g>
<!-- todo&#45;1&#45;&gt;1610612736 -->
<g id="edge3" class="edge">
<title>todo&#45;1:sw&#45;&gt;1610612736</title>
<path fill="none" stroke="black" d="M317.32,-666.64C288.86,-638.18 250.07,-617.44 214.16,-602.87"/>
<polygon fill="black" stroke="black" points="215.62,-599.68 205.03,-599.28 213.06,-606.19 215.62,-599.68"/>
<text text-anchor="middle" x="311.07" y="-635.34" font-family="Times New Roman,serif" font-size="14.00">Stack</text>
</g>
<!-- 131709548 -->
<g id="node6" class="node">
<title>131709548</title>
<polygon fill="none" stroke="black" points="502.22,-555.09 502.22,-590.12 428.47,-614.89 324.17,-614.89 250.42,-590.12 250.42,-555.09 324.17,-530.32 428.47,-530.32 502.22,-555.09"/>
<text text-anchor="middle" x="376.32" y="-582.93" font-family="Times New Roman,serif" font-size="14.00">Skipped</text>
<text text-anchor="middle" x="376.32" y="-567.18" font-family="Times New Roman,serif" font-size="14.00">.0@0: &#160;&quot;a&quot;</text>
<text text-anchor="middle" x="376.32" y="-551.43" font-family="Times New Roman,serif" font-size="14.00">in: &#39;S &#45;&gt; ABC Layout End&#39;</text>
</g>
<!-- todo&#45;1&#45;&gt;131709548 -->
<g id="edge4" class="edge">
<title>todo&#45;1:se&#45;&gt;131709548</title>
<path fill="none" stroke="black" d="M371.07,-666.64C381.55,-656.16 385.2,-641.26 385.57,-626.45"/>
<polygon fill="black" stroke="black" points="389.08,-626.63 385.31,-616.73 382.08,-626.82 389.08,-626.63"/>
<text text-anchor="middle" x="400.69" y="-635.34" font-family="Times New Roman,serif" font-size="14.00">Node</text>
</g>
<!-- 1610612735 -->
<g id="node4" class="node">
<title>1610612735</title>
<ellipse fill="none" stroke="black" cx="417.32" cy="-205.79" rx="122.68" ry="39.07"/>
<text text-anchor="middle" x="417.32" y="-216.12" font-family="Times New Roman,serif" font-size="14.00">RecoveryPoint: 1610612735</text>
<text text-anchor="middle" x="417.32" y="-200.37" font-family="Times New Roman,serif" font-size="14.00">.0@0</text>
<text text-anchor="middle" x="417.32" y="-184.62" font-family="Times New Roman,serif" font-size="14.00">in: &#39;S &#45;&gt; ABC Layout End&#39;</text>
</g>
<!-- 1610612736&#45;&gt;1610612735 -->
<g id="edge2" class="edge">
<title>1610612736&#45;&gt;1610612735</title>
<path fill="none" stroke="black" d="M146.84,-534.62C202.27,-467.43 319.35,-325.53 379.66,-252.44"/>
<polygon fill="black" stroke="black" points="382.09,-254.98 385.76,-245.04 376.69,-250.53 382.09,-254.98"/>
</g>
<!-- &#45;1 -->
<g id="node5" class="node">
<title>&#45;1</title>
<ellipse fill="none" stroke="black" cx="440.32" cy="-27.93" rx="73.36" ry="27.93"/>
<text text-anchor="middle" x="440.32" y="-30.38" font-family="Times New Roman,serif" font-size="14.00">NonTerminal: S</text>
<text text-anchor="middle" x="440.32" y="-14.63" font-family="Times New Roman,serif" font-size="14.00">.0@&#45;1</text>
</g>
<!-- 1610612735&#45;&gt;&#45;1 -->
<g id="edge1" class="edge">
<title>1610612735&#45;&gt;&#45;1</title>
<path fill="none" stroke="black" d="M422.31,-166.63C426.16,-137.2 431.46,-96.68 435.31,-67.22"/>
<polygon fill="black" stroke="black" points="438.74,-67.99 436.57,-57.62 431.8,-67.08 438.74,-67.99"/>
</g>
<!-- todoLists&#45;&gt;todo&#45;1 -->
<g id="edge5" class="edge">
<title>todoLists:1&#45;&gt;todo&#45;1</title>
<path fill="none" stroke="black" d="M343.94,-755.39C343.94,-742 344.02,-727.15 344.1,-714.65"/>
<polygon fill="black" stroke="black" points="347.59,-715.04 344.16,-705.02 340.59,-714.99 347.59,-715.04"/>
</g>
<!-- todo&#45;3 -->
<g id="node8" class="node">
<title>todo&#45;3</title>
<polygon fill="none" stroke="black" points="662.32,-667.14 662.32,-703.14 716.32,-703.14 716.32,-667.14 662.32,-667.14"/>
<text text-anchor="middle" x="689.19" y="-679.72" font-family="Times New Roman,serif" font-size="14.00">0</text>
</g>
<!-- todoLists&#45;&gt;todo&#45;3 -->
<g id="edge11" class="edge">
<title>todoLists:3&#45;&gt;todo&#45;3</title>
<path fill="none" stroke="black" d="M389.44,-755.39C389.44,-702.42 569.35,-689.96 650.47,-687.04"/>
<polygon fill="black" stroke="black" points="650.52,-690.54 660.4,-686.71 650.29,-683.54 650.52,-690.54"/>
</g>
<!-- 1610612734 -->
<g id="node9" class="node">
<title>1610612734</title>
<ellipse fill="none" stroke="black" cx="662.32" cy="-572.61" rx="141.77" ry="39.07"/>
<text text-anchor="middle" x="662.32" y="-582.93" font-family="Times New Roman,serif" font-size="14.00">Skipping: </text>
<text text-anchor="middle" x="662.32" y="-567.18" font-family="Times New Roman,serif" font-size="14.00">.0@2</text>
<text text-anchor="middle" x="662.32" y="-551.43" font-family="Times New Roman,serif" font-size="14.00">in: &#39;ABC &#45;&gt; a Layout b Layout c&#39;</text>
</g>
<!-- todo&#45;3&#45;&gt;1610612734 -->
<g id="edge9" class="edge">
<title>todo&#45;3:sw&#45;&gt;1610612734</title>
<path fill="none" stroke="black" d="M662.32,-666.64C651.11,-655.43 648.49,-639.13 649.53,-623.3"/>
<polygon fill="black" stroke="black" points="653,-623.78 650.69,-613.44 646.05,-622.97 653,-623.78"/>
<text text-anchor="middle" x="667.07" y="-635.34" font-family="Times New Roman,serif" font-size="14.00">Stack</text>
</g>
<!-- 409393797 -->
<g id="node12" class="node">
<title>409393797</title>
<polygon fill="none" stroke="black" points="1128.78,-555.09 1128.78,-590.12 1038.88,-614.89 911.76,-614.89 821.86,-590.12 821.86,-555.09 911.76,-530.32 1038.88,-530.32 1128.78,-555.09"/>
<text text-anchor="middle" x="975.32" y="-582.93" font-family="Times New Roman,serif" font-size="14.00">Skipped</text>
<text text-anchor="middle" x="975.32" y="-567.18" font-family="Times New Roman,serif" font-size="14.00">.2@2: &#160;&quot;x&quot;</text>
<text text-anchor="middle" x="975.32" y="-551.43" font-family="Times New Roman,serif" font-size="14.00">in: &#39;ABC &#45;&gt; a Layout b Layout c&#39;</text>
</g>
<!-- todo&#45;3&#45;&gt;409393797 -->
<g id="edge10" class="edge">
<title>todo&#45;3:se&#45;&gt;409393797</title>
<path fill="none" stroke="black" d="M716.07,-666.64C736.92,-645.79 797.84,-623.44 855.4,-605.87"/>
<polygon fill="black" stroke="black" points="856.08,-609.32 864.64,-603.08 854.06,-602.62 856.08,-609.32"/>
<text text-anchor="middle" x="786.69" y="-635.34" font-family="Times New Roman,serif" font-size="14.00">Node</text>
</g>
<!-- 1610612733 -->
<g id="node10" class="node">
<title>1610612733</title>
<ellipse fill="none" stroke="black" cx="662.32" cy="-380.39" rx="141.77" ry="39.07"/>
<text text-anchor="middle" x="662.32" y="-390.71" font-family="Times New Roman,serif" font-size="14.00">RecoveryPoint: 1610612733</text>
<text text-anchor="middle" x="662.32" y="-374.96" font-family="Times New Roman,serif" font-size="14.00">.2@2</text>
<text text-anchor="middle" x="662.32" y="-359.21" font-family="Times New Roman,serif" font-size="14.00">in: &#39;ABC &#45;&gt; a Layout b Layout c&#39;</text>
</g>
<!-- 1610612734&#45;&gt;1610612733 -->
<g id="edge8" class="edge">
<title>1610612734&#45;&gt;1610612733</title>
<path fill="none" stroke="black" d="M662.32,-533.11C662.32,-503.72 662.32,-462.99 662.32,-431.13"/>
<polygon fill="black" stroke="black" points="665.82,-431.34 662.32,-421.34 658.82,-431.34 665.82,-431.34"/>
</g>
<!-- 35 -->
<g id="node11" class="node">
<title>35</title>
<ellipse fill="none" stroke="black" cx="662.32" cy="-120.79" rx="87.68" ry="27.93"/>
<text text-anchor="middle" x="662.32" y="-123.24" font-family="Times New Roman,serif" font-size="14.00">NonTerminal: ABC</text>
<text text-anchor="middle" x="662.32" y="-107.49" font-family="Times New Roman,serif" font-size="14.00">.0@0</text>
</g>
<!-- 1610612733&#45;&gt;35 -->
<g id="edge7" class="edge">
<title>1610612733&#45;&gt;35</title>
<path fill="none" stroke="black" d="M662.32,-340.82C662.32,-292.2 662.32,-209.1 662.32,-160.44"/>
<polygon fill="black" stroke="black" points="665.82,-160.65 662.32,-150.65 658.82,-160.65 665.82,-160.65"/>
</g>
<!-- 35&#45;&gt;&#45;1 -->
<g id="edge6" class="edge">
<title>35&#45;&gt;&#45;1</title>
<path fill="none" stroke="black" d="M609.43,-98.14C576.42,-84.63 533.86,-67.22 499.7,-53.23"/>
<polygon fill="black" stroke="black" points="501.37,-50.14 490.79,-49.59 498.72,-56.61 501.37,-50.14"/>
</g>
<!-- terminalsToReduce&#45;&gt;1610612734 -->
<g id="edge14" class="edge">
<title>terminalsToReduce:sw&#45;&gt;1610612734</title>
<path fill="none" stroke="black" d="M917.32,-666.64C895.91,-645.23 831.74,-621.87 773.14,-603.92"/>
<polygon fill="black" stroke="black" points="774.3,-600.61 763.72,-601.07 772.28,-607.31 774.3,-600.61"/>
<text text-anchor="middle" x="906.07" y="-635.34" font-family="Times New Roman,serif" font-size="14.00">Stack</text>
</g>
<!-- terminalsToReduce&#45;&gt;409393797 -->
<g id="edge15" class="edge">
<title>terminalsToReduce:se&#45;&gt;409393797</title>
<path fill="none" stroke="black" d="M971.07,-666.64C981.55,-656.16 985.07,-641.27 985.27,-626.45"/>
<polygon fill="black" stroke="black" points="988.78,-626.59 984.9,-616.73 981.78,-626.86 988.78,-626.59"/>
<text text-anchor="middle" x="999.69" y="-635.34" font-family="Times New Roman,serif" font-size="14.00">Node</text>
</g>
<!-- unexpandableNodes -->
<g id="node16" class="node">
<title>unexpandableNodes</title>
<polygon fill="none" stroke="black" points="989.32,-667.14 989.32,-703.14 1043.32,-703.14 1043.32,-667.14 989.32,-667.14"/>
<text text-anchor="middle" x="1016.19" y="-679.72" font-family="Times New Roman,serif" font-size="14.00"> </text>
</g>
<!-- unmatchableLeafNodes -->
<g id="node17" class="node">
<title>unmatchableLeafNodes</title>
<polygon fill="none" stroke="black" points="1089.32,-667.14 1089.32,-703.14 1143.32,-703.14 1143.32,-667.14 1089.32,-667.14"/>
<text text-anchor="middle" x="1116.19" y="-679.72" font-family="Times New Roman,serif" font-size="14.00"> </text>
</g>
<!-- unmatchableMidProductionNodes -->
<g id="node18" class="node">
<title>unmatchableMidProductionNodes</title>
<polygon fill="none" stroke="black" points="1210.32,-667.14 1210.32,-703.14 1264.32,-703.14 1264.32,-667.14 1210.32,-667.14"/>
<text text-anchor="middle" x="1237.19" y="-679.72" font-family="Times New Roman,serif" font-size="14.00">0</text>
</g>
<!-- unmatchable&#45;mid&#45;production&#45;0 -->
<g id="node19" class="node">
<title>unmatchable&#45;mid&#45;production&#45;0</title>
<polygon fill="none" stroke="black" points="1147.69,-554.61 1147.69,-590.61 1322.94,-590.61 1322.94,-554.61 1147.69,-554.61"/>
<text text-anchor="middle" x="1189.82" y="-567.18" font-family="Times New Roman,serif" font-size="14.00">Failed Node</text>
<polyline fill="none" stroke="black" points="1231.94,-554.61 1231.94,-590.61"/>
<text text-anchor="middle" x="1277.44" y="-567.18" font-family="Times New Roman,serif" font-size="14.00">Predecessors</text>
</g>
<!-- unmatchableMidProductionNodes&#45;&gt;unmatchable&#45;mid&#45;production&#45;0 -->
<g id="edge18" class="edge">
<title>unmatchableMidProductionNodes:0&#45;&gt;unmatchable&#45;mid&#45;production&#45;0</title>
<path fill="none" stroke="black" d="M1236.88,-666.72C1236.59,-649.22 1236.14,-622.63 1235.8,-602.34"/>
<polygon fill="black" stroke="black" points="1239.3,-602.4 1235.64,-592.46 1232.3,-602.52 1239.3,-602.4"/>
</g>
<!-- 57 -->
<g id="node20" class="node">
<title>57</title>
<ellipse fill="none" stroke="black" cx="1190.32" cy="-465.39" rx="40.48" ry="27.93"/>
<text text-anchor="middle" x="1190.32" y="-467.84" font-family="Times New Roman,serif" font-size="14.00">Literal: </text>
<text text-anchor="middle" x="1190.32" y="-452.09" font-family="Times New Roman,serif" font-size="14.00">.2@&#45;1</text>
</g>
<!-- unmatchable&#45;mid&#45;production&#45;0&#45;&gt;57 -->
<g id="edge22" class="edge">
<title>unmatchable&#45;mid&#45;production&#45;0:failedNode&#45;&gt;57</title>
<path fill="none" stroke="black" d="M1189.82,-553.61C1189.82,-537.56 1189.9,-519.85 1190.01,-504.6"/>
<polygon fill="black" stroke="black" points="1193.5,-505.03 1190.07,-495.01 1186.5,-504.98 1193.5,-505.03"/>
</g>
<!-- unmatchable&#45;mid&#45;production&#45;predecessors&#45;0 -->
<g id="node21" class="node">
<title>unmatchable&#45;mid&#45;production&#45;predecessors&#45;0</title>
<polygon fill="none" stroke="black" points="1249.32,-447.39 1249.32,-483.39 1303.32,-483.39 1303.32,-447.39 1249.32,-447.39"/>
<text text-anchor="middle" x="1276.19" y="-459.96" font-family="Times New Roman,serif" font-size="14.00">0</text>
</g>
<!-- unmatchable&#45;mid&#45;production&#45;0&#45;&gt;unmatchable&#45;mid&#45;production&#45;predecessors&#45;0 -->
<g id="edge23" class="edge">
<title>unmatchable&#45;mid&#45;production&#45;0:predecessors&#45;&gt;unmatchable&#45;mid&#45;production&#45;predecessors&#45;0</title>
<path fill="none" stroke="black" d="M1277.44,-553.61C1277.44,-534.11 1277.16,-512.16 1276.88,-495.16"/>
<polygon fill="black" stroke="black" points="1280.38,-495.21 1276.7,-485.28 1273.38,-495.34 1280.38,-495.21"/>
</g>
<!-- 56 -->
<g id="node22" class="node">
<title>56</title>
<ellipse fill="none" stroke="black" cx="926.32" cy="-293.09" rx="95.11" ry="27.93"/>
<text text-anchor="middle" x="926.32" y="-295.54" font-family="Times New Roman,serif" font-size="14.00">NonTerminal: Layout</text>
<text text-anchor="middle" x="926.32" y="-279.79" font-family="Times New Roman,serif" font-size="14.00">.1@1</text>
</g>
<!-- unmatchable&#45;mid&#45;production&#45;predecessors&#45;0&#45;&gt;56 -->
<g id="edge20" class="edge">
<title>unmatchable&#45;mid&#45;production&#45;predecessors&#45;0:sw&#45;&gt;56</title>
<path fill="none" stroke="black" d="M1249.32,-446.39C1181.98,-379.05 1079.15,-337.68 1007.67,-315.37"/>
<polygon fill="black" stroke="black" points="1008.96,-312.1 998.37,-312.53 1006.91,-318.8 1008.96,-312.1"/>
<text text-anchor="middle" x="1228.07" y="-374.96" font-family="Times New Roman,serif" font-size="14.00">Stack</text>
</g>
<!-- 1410514922 -->
<g id="node23" class="node">
<title>1410514922</title>
<polygon fill="none" stroke="black" points="1424.78,-280.57 1424.78,-305.61 1353.04,-323.32 1251.6,-323.32 1179.86,-305.61 1179.86,-280.57 1251.6,-262.86 1353.04,-262.86 1424.78,-280.57"/>
<text text-anchor="middle" x="1302.32" y="-295.54" font-family="Times New Roman,serif" font-size="14.00">SortContainer 1&#45;2</text>
<text text-anchor="middle" x="1302.32" y="-279.79" font-family="Times New Roman,serif" font-size="14.00">&#39;Layout &#45;&gt; [range(32,32)]&#39;</text>
</g>
<!-- unmatchable&#45;mid&#45;production&#45;predecessors&#45;0&#45;&gt;1410514922 -->
<g id="edge21" class="edge">
<title>unmatchable&#45;mid&#45;production&#45;predecessors&#45;0:se&#45;&gt;1410514922</title>
<path fill="none" stroke="black" d="M1303.07,-446.39C1331.66,-417.79 1325.82,-369 1316.49,-334.36"/>
<polygon fill="black" stroke="black" points="1319.95,-333.73 1313.8,-325.1 1313.23,-335.68 1319.95,-333.73"/>
<text text-anchor="middle" x="1338.69" y="-374.96" font-family="Times New Roman,serif" font-size="14.00">Node</text>
</g>
<!-- 56&#45;&gt;35 -->
<g id="edge19" class="edge">
<title>56&#45;&gt;35</title>
<path fill="none" stroke="black" d="M887.65,-267.14C840.42,-236.68 760.56,-185.17 709.69,-152.35"/>
<polygon fill="black" stroke="black" points="711.81,-149.55 701.51,-147.07 708.01,-155.43 711.81,-149.55"/>
</g>
<!-- filteredNodes -->
<g id="node24" class="node">
<title>filteredNodes</title>
<polygon fill="none" stroke="black" points="1360.32,-667.14 1360.32,-703.14 1414.32,-703.14 1414.32,-667.14 1360.32,-667.14"/>
<text text-anchor="middle" x="1387.19" y="-679.72" font-family="Times New Roman,serif" font-size="14.00"> </text>
</g>
<!-- error&#45;&gt;unexpandableNodes -->
<g id="edge25" class="edge">
<title>error&#45;&gt;unexpandableNodes</title>
<path fill="none" stroke="black" d="M1180.76,-765.33C1167.19,-762.09 1151,-758.37 1136.32,-755.39 1090.13,-746.03 1067.13,-768.6 1031.82,-737.39 1025.21,-731.55 1021.37,-723 1019.16,-714.55"/>
<polygon fill="black" stroke="black" points="1022.62,-714.02 1017.32,-704.84 1015.74,-715.32 1022.62,-714.02"/>
<text text-anchor="middle" x="1069.57" y="-724.09" font-family="Times New Roman,serif" font-size="14.00">unexpandable</text>
</g>
<!-- error&#45;&gt;unmatchableLeafNodes -->
<g id="edge26" class="edge">
<title>error&#45;&gt;unmatchableLeafNodes</title>
<path fill="none" stroke="black" d="M1178.21,-769.39C1157.42,-765.31 1132.02,-756.49 1118.32,-737.39 1113.64,-730.88 1112.01,-722.61 1111.86,-714.62"/>
<polygon fill="black" stroke="black" points="1115.34,-715.06 1112.42,-704.87 1108.35,-714.65 1115.34,-715.06"/>
<text text-anchor="middle" x="1167.82" y="-724.09" font-family="Times New Roman,serif" font-size="14.00">unmatchable leafs</text>
</g>
<!-- error&#45;&gt;unmatchableMidProductionNodes -->
<g id="edge27" class="edge">
<title>error&#45;&gt;unmatchableMidProductionNodes</title>
<path fill="none" stroke="black" d="M1216.46,-755.75C1219.99,-743.95 1224.78,-727.99 1228.87,-714.33"/>
<polygon fill="black" stroke="black" points="1232.15,-715.58 1231.67,-704.99 1225.45,-713.57 1232.15,-715.58"/>
<text text-anchor="middle" x="1289.32" y="-724.09" font-family="Times New Roman,serif" font-size="14.00">unmatchable mid&#45;prod</text>
</g>
<!-- error&#45;&gt;filteredNodes -->
<g id="edge28" class="edge">
<title>error&#45;&gt;filteredNodes</title>
<path fill="none" stroke="black" d="M1245.49,-771.83C1277.02,-769.27 1323.73,-761.32 1356.32,-737.39 1364.63,-731.29 1371.16,-722.22 1376.03,-713.4"/>
<polygon fill="black" stroke="black" points="1379.03,-715.23 1380.33,-704.71 1372.76,-712.12 1379.03,-715.23"/>
<text text-anchor="middle" x="1389.44" y="-724.09" font-family="Times New Roman,serif" font-size="14.00">filtered</text>
</g>
</g>
</svg>
