<?xml version="1.0" encoding="UTF-8" standalone="no"?>
<!DOCTYPE svg PUBLIC "-//W3C//DTD SVG 1.1//EN"
 "http://www.w3.org/Graphics/SVG/1.1/DTD/svg11.dtd">
<!-- Generated by graphviz version 12.0.0 (20240704.0754)
 -->
<!-- Title: Parser Pages: 1 -->
<svg width="1153pt" height="723pt"
 viewBox="0.00 0.00 1152.50 723.09" xmlns="http://www.w3.org/2000/svg" xmlns:xlink="http://www.w3.org/1999/xlink">
<g id="graph0" class="graph" transform="scale(1 1) rotate(0) translate(4 719.09)">
<title>Parser</title>
<polygon fill="white" stroke="none" points="-4,4 -4,-719.09 1148.5,-719.09 1148.5,4 -4,4"/>
<!-- Parser -->
<g id="node1" class="node">
<title>Parser</title>
<ellipse fill="none" stroke="black" cx="657.5" cy="-664.89" rx="121.62" ry="50.2"/>
<text text-anchor="middle" x="657.5" y="-683.09" font-family="Times New Roman,serif" font-size="14.00">Parser</text>
<text text-anchor="middle" x="657.5" y="-667.34" font-family="Times New Roman,serif" font-size="14.00">Input: &quot;a x $&quot;</text>
<text text-anchor="middle" x="657.5" y="-651.59" font-family="Times New Roman,serif" font-size="14.00">Location: 3 (&#39; &#39;)</text>
<text text-anchor="middle" x="657.5" y="-635.84" font-family="Times New Roman,serif" font-size="14.00">Step 22: Reducing terminals</text>
</g>
<!-- todoLists -->
<g id="node8" class="node">
<title>todoLists</title>
<polygon fill="none" stroke="black" points="0,-526.43 0,-562.43 493,-562.43 493,-526.43 0,-526.43"/>
<text text-anchor="middle" x="11.38" y="-539.01" font-family="Times New Roman,serif" font-size="14.00">0</text>
<polyline fill="none" stroke="black" points="22.75,-526.43 22.75,-562.43"/>
<text text-anchor="middle" x="34.12" y="-539.01" font-family="Times New Roman,serif" font-size="14.00">1</text>
<polyline fill="none" stroke="black" points="45.5,-526.43 45.5,-562.43"/>
<text text-anchor="middle" x="56.88" y="-539.01" font-family="Times New Roman,serif" font-size="14.00">2</text>
<polyline fill="none" stroke="black" points="68.25,-526.43 68.25,-562.43"/>
<text text-anchor="middle" x="79.62" y="-539.01" font-family="Times New Roman,serif" font-size="14.00">3</text>
<polyline fill="none" stroke="black" points="91,-526.43 91,-562.43"/>
<text text-anchor="middle" x="102.38" y="-539.01" font-family="Times New Roman,serif" font-size="14.00">4</text>
<polyline fill="none" stroke="black" points="113.75,-526.43 113.75,-562.43"/>
<text text-anchor="middle" x="125.12" y="-539.01" font-family="Times New Roman,serif" font-size="14.00">5</text>
<polyline fill="none" stroke="black" points="136.5,-526.43 136.5,-562.43"/>
<text text-anchor="middle" x="147.88" y="-539.01" font-family="Times New Roman,serif" font-size="14.00">6</text>
<polyline fill="none" stroke="black" points="159.25,-526.43 159.25,-562.43"/>
<text text-anchor="middle" x="170.62" y="-539.01" font-family="Times New Roman,serif" font-size="14.00">7</text>
<polyline fill="none" stroke="black" points="182,-526.43 182,-562.43"/>
<text text-anchor="middle" x="193.38" y="-539.01" font-family="Times New Roman,serif" font-size="14.00">8</text>
<polyline fill="none" stroke="black" points="204.75,-526.43 204.75,-562.43"/>
<text text-anchor="middle" x="216.12" y="-539.01" font-family="Times New Roman,serif" font-size="14.00">9</text>
<polyline fill="none" stroke="black" points="227.5,-526.43 227.5,-562.43"/>
<text text-anchor="middle" x="242.25" y="-539.01" font-family="Times New Roman,serif" font-size="14.00">10</text>
<polyline fill="none" stroke="black" points="257,-526.43 257,-562.43"/>
<text text-anchor="middle" x="271.75" y="-539.01" font-family="Times New Roman,serif" font-size="14.00">11</text>
<polyline fill="none" stroke="black" points="286.5,-526.43 286.5,-562.43"/>
<text text-anchor="middle" x="301.25" y="-539.01" font-family="Times New Roman,serif" font-size="14.00">12</text>
<polyline fill="none" stroke="black" points="316,-526.43 316,-562.43"/>
<text text-anchor="middle" x="330.75" y="-539.01" font-family="Times New Roman,serif" font-size="14.00">13</text>
<polyline fill="none" stroke="black" points="345.5,-526.43 345.5,-562.43"/>
<text text-anchor="middle" x="360.25" y="-539.01" font-family="Times New Roman,serif" font-size="14.00">14</text>
<polyline fill="none" stroke="black" points="375,-526.43 375,-562.43"/>
<text text-anchor="middle" x="389.75" y="-539.01" font-family="Times New Roman,serif" font-size="14.00">15</text>
<polyline fill="none" stroke="black" points="404.5,-526.43 404.5,-562.43"/>
<text text-anchor="middle" x="419.25" y="-539.01" font-family="Times New Roman,serif" font-size="14.00">16</text>
<polyline fill="none" stroke="black" points="434,-526.43 434,-562.43"/>
<text text-anchor="middle" x="448.75" y="-539.01" font-family="Times New Roman,serif" font-size="14.00">17</text>
<polyline fill="none" stroke="black" points="463.5,-526.43 463.5,-562.43"/>
<text text-anchor="middle" x="478.25" y="-539.01" font-family="Times New Roman,serif" font-size="14.00">18</text>
</g>
<!-- Parser&#45;&gt;todoLists -->
<g id="edge7" class="edge">
<title>Parser&#45;&gt;todoLists</title>
<path fill="none" stroke="black" d="M558.53,-635.36C484.28,-613.96 384.38,-585.17 317.83,-565.99"/>
<polygon fill="black" stroke="black" points="319.07,-562.7 308.49,-563.3 317.13,-569.43 319.07,-562.7"/>
<text text-anchor="middle" x="441.38" y="-583.38" font-family="Times New Roman,serif" font-size="14.00">todo lists</text>
</g>
<!-- stacksToExpand -->
<g id="node9" class="node">
<title>stacksToExpand</title>
<polygon fill="none" stroke="black" points="653.5,-526.43 653.5,-562.43 707.5,-562.43 707.5,-526.43 653.5,-526.43"/>
<text text-anchor="middle" x="680.38" y="-539.01" font-family="Times New Roman,serif" font-size="14.00"> </text>
</g>
<!-- Parser&#45;&gt;stacksToExpand -->
<g id="edge8" class="edge">
<title>Parser&#45;&gt;stacksToExpand</title>
<path fill="none" stroke="black" d="M654.16,-614.56C654.56,-603.34 655.92,-591.59 659,-580.93 659.81,-578.15 660.89,-575.36 662.14,-572.64"/>
<polygon fill="black" stroke="black" points="665.16,-574.42 666.88,-563.96 659.01,-571.06 665.16,-574.42"/>
<text text-anchor="middle" x="706.75" y="-583.38" font-family="Times New Roman,serif" font-size="14.00">stacks to expand</text>
</g>
<!-- terminalsToReduce -->
<g id="node10" class="node">
<title>terminalsToReduce</title>
<polygon fill="none" stroke="red" points="443.5,-437.68 443.5,-473.68 497.5,-473.68 497.5,-437.68 443.5,-437.68"/>
<text text-anchor="middle" x="470.38" y="-450.26" font-family="Times New Roman,serif" font-size="14.00">0</text>
</g>
<!-- Parser&#45;&gt;terminalsToReduce -->
<g id="edge11" class="edge">
<title>Parser&#45;&gt;terminalsToReduce</title>
<path fill="none" stroke="black" d="M599.4,-620.3C579.02,-603.56 556.74,-583.5 538.75,-562.93 517.19,-538.28 497.56,-506.23 484.94,-483.81"/>
<polygon fill="black" stroke="black" points="488.13,-482.33 480.23,-475.27 482,-485.71 488.13,-482.33"/>
<text text-anchor="middle" x="592.38" y="-539.01" font-family="Times New Roman,serif" font-size="14.00">terminals to reduce</text>
</g>
<!-- nonTerminalsToReduce -->
<g id="node11" class="node">
<title>nonTerminalsToReduce</title>
<polygon fill="none" stroke="black" points="748.5,-526.43 748.5,-562.43 802.5,-562.43 802.5,-526.43 748.5,-526.43"/>
<text text-anchor="middle" x="775.38" y="-539.01" font-family="Times New Roman,serif" font-size="14.00"> </text>
</g>
<!-- Parser&#45;&gt;nonTerminalsToReduce -->
<g id="edge12" class="edge">
<title>Parser&#45;&gt;nonTerminalsToReduce</title>
<path fill="none" stroke="black" d="M726.12,-623.07C736.12,-615.17 745.67,-606.31 753.5,-596.68 759.04,-589.86 763.42,-581.44 766.76,-573.4"/>
<polygon fill="black" stroke="black" points="769.95,-574.89 770.16,-564.29 763.39,-572.44 769.95,-574.89"/>
<text text-anchor="middle" x="828.12" y="-583.38" font-family="Times New Roman,serif" font-size="14.00">non&#45;terminals to reduce</text>
</g>
<!-- error -->
<g id="node16" class="node">
<title>error</title>
<ellipse fill="none" stroke="black" cx="929.5" cy="-544.43" rx="34.1" ry="18"/>
<text text-anchor="middle" x="929.5" y="-539.01" font-family="Times New Roman,serif" font-size="14.00">Errors</text>
</g>
<!-- Parser&#45;&gt;error -->
<g id="edge13" class="edge">
<title>Parser&#45;&gt;error</title>
<path fill="none" stroke="black" d="M773.68,-649.26C815.79,-639.57 861.74,-623.46 897.5,-596.68 905.83,-590.44 912.51,-581.35 917.56,-572.54"/>
<polygon fill="black" stroke="black" points="920.56,-574.36 922.06,-563.87 914.35,-571.14 920.56,-574.36"/>
<text text-anchor="middle" x="949" y="-583.38" font-family="Times New Roman,serif" font-size="14.00">error tracking</text>
</g>
<!-- todo&#45;1 -->
<g id="node2" class="node">
<title>todo&#45;1</title>
<polygon fill="none" stroke="black" points="183.5,-437.68 183.5,-473.68 237.5,-473.68 237.5,-437.68 183.5,-437.68"/>
<text text-anchor="middle" x="210.38" y="-450.26" font-family="Times New Roman,serif" font-size="14.00">0</text>
</g>
<!-- 1610612734 -->
<g id="node3" class="node">
<title>1610612734</title>
<ellipse fill="none" stroke="black" cx="183.5" cy="-343.14" rx="141.77" ry="39.07"/>
<text text-anchor="middle" x="183.5" y="-353.47" font-family="Times New Roman,serif" font-size="14.00">Skipping: </text>
<text text-anchor="middle" x="183.5" y="-337.72" font-family="Times New Roman,serif" font-size="14.00">.0@2</text>
<text text-anchor="middle" x="183.5" y="-321.97" font-family="Times New Roman,serif" font-size="14.00">in: &#39;ABC &#45;&gt; a Layout b Layout c&#39;</text>
</g>
<!-- todo&#45;1&#45;&gt;1610612734 -->
<g id="edge4" class="edge">
<title>todo&#45;1:sw&#45;&gt;1610612734</title>
<path fill="none" stroke="black" d="M183.5,-437.18C172.29,-425.97 169.67,-409.67 170.71,-393.84"/>
<polygon fill="black" stroke="black" points="174.18,-394.32 171.87,-383.98 167.23,-393.51 174.18,-394.32"/>
<text text-anchor="middle" x="189.25" y="-405.88" font-family="Times New Roman,serif" font-size="14.00">Stack</text>
</g>
<!-- 409393797 -->
<g id="node7" class="node">
<title>409393797</title>
<polygon fill="none" stroke="black" points="649.96,-325.63 649.96,-360.66 560.06,-385.43 432.94,-385.43 343.04,-360.66 343.04,-325.63 432.94,-300.86 560.06,-300.86 649.96,-325.63"/>
<text text-anchor="middle" x="496.5" y="-353.47" font-family="Times New Roman,serif" font-size="14.00">Skipped</text>
<text text-anchor="middle" x="496.5" y="-337.72" font-family="Times New Roman,serif" font-size="14.00">.2@2: &#160;&quot;x&quot;</text>
<text text-anchor="middle" x="496.5" y="-321.97" font-family="Times New Roman,serif" font-size="14.00">in: &#39;ABC &#45;&gt; a Layout b Layout c&#39;</text>
</g>
<!-- todo&#45;1&#45;&gt;409393797 -->
<g id="edge5" class="edge">
<title>todo&#45;1:se&#45;&gt;409393797</title>
<path fill="none" stroke="black" d="M237.25,-437.18C258.1,-416.33 319.03,-393.98 376.58,-376.41"/>
<polygon fill="black" stroke="black" points="377.26,-379.86 385.82,-373.62 375.24,-373.16 377.26,-379.86"/>
<text text-anchor="middle" x="308.88" y="-405.88" font-family="Times New Roman,serif" font-size="14.00">Node</text>
</g>
<!-- 1610612733 -->
<g id="node4" class="node">
<title>1610612733</title>
<ellipse fill="none" stroke="black" cx="183.5" cy="-224.79" rx="141.77" ry="39.07"/>
<text text-anchor="middle" x="183.5" y="-235.12" font-family="Times New Roman,serif" font-size="14.00">RecoveryPoint: 1610612733</text>
<text text-anchor="middle" x="183.5" y="-219.37" font-family="Times New Roman,serif" font-size="14.00">.2@2</text>
<text text-anchor="middle" x="183.5" y="-203.62" font-family="Times New Roman,serif" font-size="14.00">in: &#39;ABC &#45;&gt; a Layout b Layout c&#39;</text>
</g>
<!-- 1610612734&#45;&gt;1610612733 -->
<g id="edge3" class="edge">
<title>1610612734&#45;&gt;1610612733</title>
<path fill="none" stroke="black" d="M183.5,-303.72C183.5,-294.69 183.5,-284.93 183.5,-275.48"/>
<polygon fill="black" stroke="black" points="187,-275.68 183.5,-265.68 180,-275.68 187,-275.68"/>
</g>
<!-- 35 -->
<g id="node5" class="node">
<title>35</title>
<ellipse fill="none" stroke="black" cx="183.5" cy="-120.79" rx="87.68" ry="27.93"/>
<text text-anchor="middle" x="183.5" y="-123.24" font-family="Times New Roman,serif" font-size="14.00">NonTerminal: ABC</text>
<text text-anchor="middle" x="183.5" y="-107.49" font-family="Times New Roman,serif" font-size="14.00">.0@0</text>
</g>
<!-- 1610612733&#45;&gt;35 -->
<g id="edge2" class="edge">
<title>1610612733&#45;&gt;35</title>
<path fill="none" stroke="black" d="M183.5,-185.23C183.5,-177.12 183.5,-168.56 183.5,-160.44"/>
<polygon fill="black" stroke="black" points="187,-160.49 183.5,-150.49 180,-160.49 187,-160.49"/>
</g>
<!-- &#45;1 -->
<g id="node6" class="node">
<title>&#45;1</title>
<ellipse fill="none" stroke="black" cx="183.5" cy="-27.93" rx="73.36" ry="27.93"/>
<text text-anchor="middle" x="183.5" y="-30.38" font-family="Times New Roman,serif" font-size="14.00">NonTerminal: S</text>
<text text-anchor="middle" x="183.5" y="-14.63" font-family="Times New Roman,serif" font-size="14.00">.0@&#45;1</text>
</g>
<!-- 35&#45;&gt;&#45;1 -->
<g id="edge1" class="edge">
<title>35&#45;&gt;&#45;1</title>
<path fill="none" stroke="black" d="M183.5,-92.53C183.5,-84.71 183.5,-76.04 183.5,-67.67"/>
<polygon fill="black" stroke="black" points="187,-67.69 183.5,-57.69 180,-67.69 187,-67.69"/>
</g>
<!-- todoLists&#45;&gt;todo&#45;1 -->
<g id="edge6" class="edge">
<title>todoLists:1&#45;&gt;todo&#45;1</title>
<path fill="none" stroke="black" d="M34.12,-525.93C34.12,-496.49 120.32,-474.37 172.2,-463.72"/>
<polygon fill="black" stroke="black" points="172.72,-467.19 181.84,-461.8 171.35,-460.32 172.72,-467.19"/>
</g>
<!-- terminalsToReduce&#45;&gt;1610612734 -->
<g id="edge9" class="edge">
<title>terminalsToReduce:sw&#45;&gt;1610612734</title>
<path fill="none" stroke="black" d="M443.5,-437.18C421.63,-415.32 355.78,-391.86 295.83,-373.97"/>
<polygon fill="black" stroke="black" points="297.14,-370.71 286.55,-371.24 295.16,-377.42 297.14,-370.71"/>
<text text-anchor="middle" x="432.25" y="-405.88" font-family="Times New Roman,serif" font-size="14.00">Stack</text>
</g>
<!-- terminalsToReduce&#45;&gt;409393797 -->
<g id="edge10" class="edge">
<title>terminalsToReduce:se&#45;&gt;409393797</title>
<path fill="none" stroke="black" d="M497.25,-437.18C507.72,-426.71 510.59,-411.82 509.97,-397.01"/>
<polygon fill="black" stroke="black" points="513.48,-396.89 509.03,-387.28 506.51,-397.57 513.48,-396.89"/>
<text text-anchor="middle" x="525.88" y="-405.88" font-family="Times New Roman,serif" font-size="14.00">Node</text>
</g>
<!-- unexpandableNodes -->
<g id="node12" class="node">
<title>unexpandableNodes</title>
<polygon fill="none" stroke="black" points="938.5,-437.68 938.5,-473.68 992.5,-473.68 992.5,-437.68 938.5,-437.68"/>
<text text-anchor="middle" x="965.38" y="-450.26" font-family="Times New Roman,serif" font-size="14.00"> </text>
</g>
<!-- unmatchableLeafNodes -->
<g id="node13" class="node">
<title>unmatchableLeafNodes</title>
<polygon fill="none" stroke="black" points="1035.5,-437.68 1035.5,-473.68 1089.5,-473.68 1089.5,-437.68 1035.5,-437.68"/>
<text text-anchor="middle" x="1062.38" y="-450.26" font-family="Times New Roman,serif" font-size="14.00"> </text>
</g>
<!-- unmatchableMidProductionNodes -->
<g id="node14" class="node">
<title>unmatchableMidProductionNodes</title>
<polygon fill="none" stroke="black" points="720.5,-437.68 720.5,-473.68 774.5,-473.68 774.5,-437.68 720.5,-437.68"/>
<text text-anchor="middle" x="747.38" y="-450.26" font-family="Times New Roman,serif" font-size="14.00"> </text>
</g>
<!-- filteredNodes -->
<g id="node15" class="node">
<title>filteredNodes</title>
<polygon fill="none" stroke="black" points="866.5,-437.68 866.5,-473.68 920.5,-473.68 920.5,-437.68 866.5,-437.68"/>
<text text-anchor="middle" x="893.38" y="-450.26" font-family="Times New Roman,serif" font-size="14.00"> </text>
</g>
<!-- error&#45;&gt;unexpandableNodes -->
<g id="edge14" class="edge">
<title>error&#45;&gt;unexpandableNodes</title>
<path fill="none" stroke="black" d="M936.44,-526.7C941.41,-514.74 948.21,-498.36 953.98,-484.44"/>
<polygon fill="black" stroke="black" points="957.15,-485.93 957.75,-475.35 950.69,-483.24 957.15,-485.93"/>
<text text-anchor="middle" x="988.75" y="-494.63" font-family="Times New Roman,serif" font-size="14.00">unexpandable</text>
</g>
<!-- error&#45;&gt;unmatchableLeafNodes -->
<g id="edge15" class="edge">
<title>error&#45;&gt;unmatchableLeafNodes</title>
<path fill="none" stroke="black" d="M961.72,-538.14C983.32,-533.26 1011.39,-524.22 1031.5,-507.93 1039.31,-501.6 1045.65,-492.74 1050.5,-484.17"/>
<polygon fill="black" stroke="black" points="1053.56,-485.88 1055,-475.39 1047.33,-482.69 1053.56,-485.88"/>
<text text-anchor="middle" x="1095" y="-494.63" font-family="Times New Roman,serif" font-size="14.00">unmatchable leafs</text>
</g>
<!-- error&#45;&gt;unmatchableMidProductionNodes -->
<g id="edge16" class="edge">
<title>error&#45;&gt;unmatchableMidProductionNodes</title>
<path fill="none" stroke="black" d="M896.26,-539.97C854.38,-534.98 785.58,-524.5 766.5,-507.93 759.63,-501.96 755.23,-493.27 752.43,-484.73"/>
<polygon fill="black" stroke="black" points="755.88,-484.09 749.97,-475.3 749.11,-485.86 755.88,-484.09"/>
<text text-anchor="middle" x="829.5" y="-494.63" font-family="Times New Roman,serif" font-size="14.00">unmatchable mid&#45;prod</text>
</g>
<!-- error&#45;&gt;filteredNodes -->
<g id="edge17" class="edge">
<title>error&#45;&gt;filteredNodes</title>
<path fill="none" stroke="black" d="M914.32,-527.99C909.4,-522.15 904.4,-515.15 901.25,-507.93 898.18,-500.89 896.3,-492.86 895.15,-485.26"/>
<polygon fill="black" stroke="black" points="898.64,-484.97 894.05,-475.42 891.68,-485.74 898.64,-484.97"/>
<text text-anchor="middle" x="919.62" y="-494.63" font-family="Times New Roman,serif" font-size="14.00">filtered</text>
</g>
</g>
</svg>
