<?xml version="1.0" encoding="UTF-8" standalone="no"?>
<!DOCTYPE svg PUBLIC "-//W3C//DTD SVG 1.1//EN"
 "http://www.w3.org/Graphics/SVG/1.1/DTD/svg11.dtd">
<!-- Generated by graphviz version 12.0.0 (20240704.0754)
 -->
<!-- Title: Parser Pages: 1 -->
<svg width="1375pt" height="513pt"
 viewBox="0.00 0.00 1374.50 512.77" xmlns="http://www.w3.org/2000/svg" xmlns:xlink="http://www.w3.org/1999/xlink">
<g id="graph0" class="graph" transform="scale(1 1) rotate(0) translate(4 508.77)">
<title>Parser</title>
<polygon fill="white" stroke="none" points="-4,4 -4,-508.77 1370.5,-508.77 1370.5,4 -4,4"/>
<!-- Parser -->
<g id="node1" class="node">
<title>Parser</title>
<ellipse fill="none" stroke="black" cx="656.5" cy="-454.56" rx="139.65" ry="50.2"/>
<text text-anchor="middle" x="656.5" y="-472.76" font-family="Times New Roman,serif" font-size="14.00">Parser</text>
<text text-anchor="middle" x="656.5" y="-457.01" font-family="Times New Roman,serif" font-size="14.00">Input: &quot;a x $&quot;</text>
<text text-anchor="middle" x="656.5" y="-441.26" font-family="Times New Roman,serif" font-size="14.00">Location: 3 (&#39; &#39;)</text>
<text text-anchor="middle" x="656.5" y="-425.51" font-family="Times New Roman,serif" font-size="14.00">Step 23: Reducing non&#45;terminals</text>
</g>
<!-- todoLists -->
<g id="node2" class="node">
<title>todoLists</title>
<polygon fill="none" stroke="black" points="0,-316.11 0,-352.11 493,-352.11 493,-316.11 0,-316.11"/>
<text text-anchor="middle" x="11.38" y="-328.68" font-family="Times New Roman,serif" font-size="14.00">0</text>
<polyline fill="none" stroke="black" points="22.75,-316.11 22.75,-352.11"/>
<text text-anchor="middle" x="34.12" y="-328.68" font-family="Times New Roman,serif" font-size="14.00">1</text>
<polyline fill="none" stroke="black" points="45.5,-316.11 45.5,-352.11"/>
<text text-anchor="middle" x="56.88" y="-328.68" font-family="Times New Roman,serif" font-size="14.00">2</text>
<polyline fill="none" stroke="black" points="68.25,-316.11 68.25,-352.11"/>
<text text-anchor="middle" x="79.62" y="-328.68" font-family="Times New Roman,serif" font-size="14.00">3</text>
<polyline fill="none" stroke="black" points="91,-316.11 91,-352.11"/>
<text text-anchor="middle" x="102.38" y="-328.68" font-family="Times New Roman,serif" font-size="14.00">4</text>
<polyline fill="none" stroke="black" points="113.75,-316.11 113.75,-352.11"/>
<text text-anchor="middle" x="125.12" y="-328.68" font-family="Times New Roman,serif" font-size="14.00">5</text>
<polyline fill="none" stroke="black" points="136.5,-316.11 136.5,-352.11"/>
<text text-anchor="middle" x="147.88" y="-328.68" font-family="Times New Roman,serif" font-size="14.00">6</text>
<polyline fill="none" stroke="black" points="159.25,-316.11 159.25,-352.11"/>
<text text-anchor="middle" x="170.62" y="-328.68" font-family="Times New Roman,serif" font-size="14.00">7</text>
<polyline fill="none" stroke="black" points="182,-316.11 182,-352.11"/>
<text text-anchor="middle" x="193.38" y="-328.68" font-family="Times New Roman,serif" font-size="14.00">8</text>
<polyline fill="none" stroke="black" points="204.75,-316.11 204.75,-352.11"/>
<text text-anchor="middle" x="216.12" y="-328.68" font-family="Times New Roman,serif" font-size="14.00">9</text>
<polyline fill="none" stroke="black" points="227.5,-316.11 227.5,-352.11"/>
<text text-anchor="middle" x="242.25" y="-328.68" font-family="Times New Roman,serif" font-size="14.00">10</text>
<polyline fill="none" stroke="black" points="257,-316.11 257,-352.11"/>
<text text-anchor="middle" x="271.75" y="-328.68" font-family="Times New Roman,serif" font-size="14.00">11</text>
<polyline fill="none" stroke="black" points="286.5,-316.11 286.5,-352.11"/>
<text text-anchor="middle" x="301.25" y="-328.68" font-family="Times New Roman,serif" font-size="14.00">12</text>
<polyline fill="none" stroke="black" points="316,-316.11 316,-352.11"/>
<text text-anchor="middle" x="330.75" y="-328.68" font-family="Times New Roman,serif" font-size="14.00">13</text>
<polyline fill="none" stroke="black" points="345.5,-316.11 345.5,-352.11"/>
<text text-anchor="middle" x="360.25" y="-328.68" font-family="Times New Roman,serif" font-size="14.00">14</text>
<polyline fill="none" stroke="black" points="375,-316.11 375,-352.11"/>
<text text-anchor="middle" x="389.75" y="-328.68" font-family="Times New Roman,serif" font-size="14.00">15</text>
<polyline fill="none" stroke="black" points="404.5,-316.11 404.5,-352.11"/>
<text text-anchor="middle" x="419.25" y="-328.68" font-family="Times New Roman,serif" font-size="14.00">16</text>
<polyline fill="none" stroke="black" points="434,-316.11 434,-352.11"/>
<text text-anchor="middle" x="448.75" y="-328.68" font-family="Times New Roman,serif" font-size="14.00">17</text>
<polyline fill="none" stroke="black" points="463.5,-316.11 463.5,-352.11"/>
<text text-anchor="middle" x="478.25" y="-328.68" font-family="Times New Roman,serif" font-size="14.00">18</text>
</g>
<!-- Parser&#45;&gt;todoLists -->
<g id="edge1" class="edge">
<title>Parser&#45;&gt;todoLists</title>
<path fill="none" stroke="black" d="M548.51,-422.36C475.51,-401.27 381.17,-374.02 317.51,-355.62"/>
<polygon fill="black" stroke="black" points="318.82,-352.36 308.24,-352.94 316.87,-359.08 318.82,-352.36"/>
<text text-anchor="middle" x="441.38" y="-373.06" font-family="Times New Roman,serif" font-size="14.00">todo lists</text>
</g>
<!-- stacksToExpand -->
<g id="node3" class="node">
<title>stacksToExpand</title>
<polygon fill="none" stroke="black" points="511.5,-316.11 511.5,-352.11 565.5,-352.11 565.5,-316.11 511.5,-316.11"/>
<text text-anchor="middle" x="538.38" y="-328.68" font-family="Times New Roman,serif" font-size="14.00"> </text>
</g>
<!-- Parser&#45;&gt;stacksToExpand -->
<g id="edge2" class="edge">
<title>Parser&#45;&gt;stacksToExpand</title>
<path fill="none" stroke="black" d="M583.72,-411.67C574.24,-404.09 565.31,-395.62 558,-386.36 552.71,-379.65 548.73,-371.35 545.8,-363.4"/>
<polygon fill="black" stroke="black" points="549.18,-362.47 542.78,-354.03 542.52,-364.62 549.18,-362.47"/>
<text text-anchor="middle" x="605.75" y="-373.06" font-family="Times New Roman,serif" font-size="14.00">stacks to expand</text>
</g>
<!-- terminalsToReduce -->
<g id="node4" class="node">
<title>terminalsToReduce</title>
<polygon fill="none" stroke="black" points="629.5,-316.11 629.5,-352.11 683.5,-352.11 683.5,-316.11 629.5,-316.11"/>
<text text-anchor="middle" x="656.38" y="-328.68" font-family="Times New Roman,serif" font-size="14.00"> </text>
</g>
<!-- Parser&#45;&gt;terminalsToReduce -->
<g id="edge3" class="edge">
<title>Parser&#45;&gt;terminalsToReduce</title>
<path fill="none" stroke="black" d="M656.5,-404.01C656.5,-390.22 656.5,-375.72 656.5,-363.59"/>
<polygon fill="black" stroke="black" points="660,-363.88 656.5,-353.88 653,-363.88 660,-363.88"/>
<text text-anchor="middle" x="709.38" y="-373.06" font-family="Times New Roman,serif" font-size="14.00">terminals to reduce</text>
</g>
<!-- nonTerminalsToReduce -->
<g id="node5" class="node">
<title>nonTerminalsToReduce</title>
<polygon fill="none" stroke="red" points="729.5,-316.11 729.5,-352.11 783.5,-352.11 783.5,-316.11 729.5,-316.11"/>
<text text-anchor="middle" x="756.38" y="-328.68" font-family="Times New Roman,serif" font-size="14.00">0</text>
</g>
<!-- Parser&#45;&gt;nonTerminalsToReduce -->
<g id="edge8" class="edge">
<title>Parser&#45;&gt;nonTerminalsToReduce</title>
<path fill="none" stroke="black" d="M740.01,-413.86C749.4,-406.04 757.66,-396.92 763.5,-386.36 767.35,-379.39 767.7,-371.1 766.5,-363.24"/>
<polygon fill="black" stroke="black" points="769.95,-362.62 764.22,-353.7 763.14,-364.24 769.95,-362.62"/>
<text text-anchor="middle" x="833.12" y="-373.06" font-family="Times New Roman,serif" font-size="14.00">non&#45;terminals to reduce</text>
</g>
<!-- error -->
<g id="node14" class="node">
<title>error</title>
<ellipse fill="none" stroke="black" cx="1068.5" cy="-334.11" rx="34.1" ry="18"/>
<text text-anchor="middle" x="1068.5" y="-328.68" font-family="Times New Roman,serif" font-size="14.00">Errors</text>
</g>
<!-- Parser&#45;&gt;error -->
<g id="edge9" class="edge">
<title>Parser&#45;&gt;error</title>
<path fill="none" stroke="black" d="M767.85,-423.97C810.1,-412.53 858.61,-399.13 902.5,-386.36 945.95,-373.72 995.49,-358.29 1029.06,-347.68"/>
<polygon fill="black" stroke="black" points="1029.88,-351.1 1038.35,-344.74 1027.76,-344.42 1029.88,-351.1"/>
<text text-anchor="middle" x="990" y="-373.06" font-family="Times New Roman,serif" font-size="14.00">error tracking</text>
</g>
<!-- 1610612733 -->
<g id="node6" class="node">
<title>1610612733</title>
<ellipse fill="none" stroke="black" cx="481.5" cy="-224.79" rx="141.77" ry="39.07"/>
<text text-anchor="middle" x="481.5" y="-235.12" font-family="Times New Roman,serif" font-size="14.00">RecoveryPoint: 1610612733</text>
<text text-anchor="middle" x="481.5" y="-219.37" font-family="Times New Roman,serif" font-size="14.00">.2@2</text>
<text text-anchor="middle" x="481.5" y="-203.62" font-family="Times New Roman,serif" font-size="14.00">in: &#39;ABC &#45;&gt; a Layout b Layout c&#39;</text>
</g>
<!-- nonTerminalsToReduce&#45;&gt;1610612733 -->
<g id="edge6" class="edge">
<title>nonTerminalsToReduce:sw&#45;&gt;1610612733</title>
<path fill="none" stroke="black" d="M729.5,-315.61C709.12,-295.23 648.81,-273.17 592.78,-256.02"/>
<polygon fill="black" stroke="black" points="594.04,-252.74 583.46,-253.2 592.02,-259.44 594.04,-252.74"/>
<text text-anchor="middle" x="714.25" y="-284.31" font-family="Times New Roman,serif" font-size="14.00">Stack</text>
</g>
<!-- 21723014 -->
<g id="node9" class="node">
<title>21723014</title>
<polygon fill="none" stroke="black" points="923.33,-212.27 923.33,-237.31 840.83,-255.02 724.17,-255.02 641.67,-237.31 641.67,-212.27 724.17,-194.56 840.83,-194.56 923.33,-212.27"/>
<text text-anchor="middle" x="782.5" y="-227.24" font-family="Times New Roman,serif" font-size="14.00">Recovered 2&#45;3</text>
<text text-anchor="middle" x="782.5" y="-211.49" font-family="Times New Roman,serif" font-size="14.00">&#39;ABC &#45;&gt; a Layout b Layout c&#39;</text>
</g>
<!-- nonTerminalsToReduce&#45;&gt;21723014 -->
<g id="edge7" class="edge">
<title>nonTerminalsToReduce:se&#45;&gt;21723014</title>
<path fill="none" stroke="black" d="M783.25,-315.61C795.82,-303.04 797.05,-283.84 794.54,-266.42"/>
<polygon fill="black" stroke="black" points="798.02,-265.98 792.71,-256.81 791.14,-267.28 798.02,-265.98"/>
<text text-anchor="middle" x="811.88" y="-284.31" font-family="Times New Roman,serif" font-size="14.00">Node</text>
</g>
<!-- 35 -->
<g id="node7" class="node">
<title>35</title>
<ellipse fill="none" stroke="black" cx="481.5" cy="-120.79" rx="87.68" ry="27.93"/>
<text text-anchor="middle" x="481.5" y="-123.24" font-family="Times New Roman,serif" font-size="14.00">NonTerminal: ABC</text>
<text text-anchor="middle" x="481.5" y="-107.49" font-family="Times New Roman,serif" font-size="14.00">.0@0</text>
</g>
<!-- 1610612733&#45;&gt;35 -->
<g id="edge5" class="edge">
<title>1610612733&#45;&gt;35</title>
<path fill="none" stroke="black" d="M481.5,-185.23C481.5,-177.12 481.5,-168.56 481.5,-160.44"/>
<polygon fill="black" stroke="black" points="485,-160.49 481.5,-150.49 478,-160.49 485,-160.49"/>
</g>
<!-- &#45;1 -->
<g id="node8" class="node">
<title>&#45;1</title>
<ellipse fill="none" stroke="black" cx="481.5" cy="-27.93" rx="73.36" ry="27.93"/>
<text text-anchor="middle" x="481.5" y="-30.38" font-family="Times New Roman,serif" font-size="14.00">NonTerminal: S</text>
<text text-anchor="middle" x="481.5" y="-14.63" font-family="Times New Roman,serif" font-size="14.00">.0@&#45;1</text>
</g>
<!-- 35&#45;&gt;&#45;1 -->
<g id="edge4" class="edge">
<title>35&#45;&gt;&#45;1</title>
<path fill="none" stroke="black" d="M481.5,-92.53C481.5,-84.71 481.5,-76.04 481.5,-67.67"/>
<polygon fill="black" stroke="black" points="485,-67.69 481.5,-57.69 478,-67.69 485,-67.69"/>
</g>
<!-- unexpandableNodes -->
<g id="node10" class="node">
<title>unexpandableNodes</title>
<polygon fill="none" stroke="black" points="941.5,-206.79 941.5,-242.79 995.5,-242.79 995.5,-206.79 941.5,-206.79"/>
<text text-anchor="middle" x="968.38" y="-219.37" font-family="Times New Roman,serif" font-size="14.00"> </text>
</g>
<!-- unmatchableLeafNodes -->
<g id="node11" class="node">
<title>unmatchableLeafNodes</title>
<polygon fill="none" stroke="black" points="1041.5,-206.79 1041.5,-242.79 1095.5,-242.79 1095.5,-206.79 1041.5,-206.79"/>
<text text-anchor="middle" x="1068.38" y="-219.37" font-family="Times New Roman,serif" font-size="14.00"> </text>
</g>
<!-- unmatchableMidProductionNodes -->
<g id="node12" class="node">
<title>unmatchableMidProductionNodes</title>
<polygon fill="none" stroke="black" points="1163.5,-206.79 1163.5,-242.79 1217.5,-242.79 1217.5,-206.79 1163.5,-206.79"/>
<text text-anchor="middle" x="1190.38" y="-219.37" font-family="Times New Roman,serif" font-size="14.00"> </text>
</g>
<!-- filteredNodes -->
<g id="node13" class="node">
<title>filteredNodes</title>
<polygon fill="none" stroke="black" points="1312.5,-206.79 1312.5,-242.79 1366.5,-242.79 1366.5,-206.79 1312.5,-206.79"/>
<text text-anchor="middle" x="1339.38" y="-219.37" font-family="Times New Roman,serif" font-size="14.00"> </text>
</g>
<!-- error&#45;&gt;unexpandableNodes -->
<g id="edge10" class="edge">
<title>error&#45;&gt;unexpandableNodes</title>
<path fill="none" stroke="black" d="M1037.41,-326.35C1020.56,-321.17 1000.65,-312.32 988,-297.61 977.73,-285.67 972.82,-268.82 970.49,-254.44"/>
<polygon fill="black" stroke="black" points="973.98,-254.1 969.27,-244.61 967.03,-254.97 973.98,-254.1"/>
<text text-anchor="middle" x="1025.75" y="-284.31" font-family="Times New Roman,serif" font-size="14.00">unexpandable</text>
</g>
<!-- error&#45;&gt;unmatchableLeafNodes -->
<g id="edge11" class="edge">
<title>error&#45;&gt;unmatchableLeafNodes</title>
<path fill="none" stroke="black" d="M1068.5,-315.87C1068.5,-299.28 1068.5,-273.91 1068.5,-254.31"/>
<polygon fill="black" stroke="black" points="1072,-254.5 1068.5,-244.5 1065,-254.5 1072,-254.5"/>
<text text-anchor="middle" x="1118" y="-284.31" font-family="Times New Roman,serif" font-size="14.00">unmatchable leafs</text>
</g>
<!-- error&#45;&gt;unmatchableMidProductionNodes -->
<g id="edge12" class="edge">
<title>error&#45;&gt;unmatchableMidProductionNodes</title>
<path fill="none" stroke="black" d="M1101.45,-329.14C1123.24,-324.86 1150.92,-315.98 1168.5,-297.61 1179.67,-285.94 1185.18,-268.74 1187.89,-254.11"/>
<polygon fill="black" stroke="black" points="1191.3,-254.97 1189.3,-244.57 1184.38,-253.95 1191.3,-254.97"/>
<text text-anchor="middle" x="1241.5" y="-284.31" font-family="Times New Roman,serif" font-size="14.00">unmatchable mid&#45;prod</text>
</g>
<!-- error&#45;&gt;filteredNodes -->
<g id="edge13" class="edge">
<title>error&#45;&gt;filteredNodes</title>
<path fill="none" stroke="black" d="M1102.73,-332.07C1161.16,-329.65 1276.94,-321.86 1308.5,-297.61 1322.14,-287.13 1329.88,-269.43 1334.21,-254.22"/>
<polygon fill="black" stroke="black" points="1337.56,-255.26 1336.54,-244.71 1330.76,-253.59 1337.56,-255.26"/>
<text text-anchor="middle" x="1340.62" y="-284.31" font-family="Times New Roman,serif" font-size="14.00">filtered</text>
</g>
</g>
</svg>
