<?xml version="1.0" encoding="UTF-8" standalone="no"?>
<!DOCTYPE svg PUBLIC "-//W3C//DTD SVG 1.1//EN"
 "http://www.w3.org/Graphics/SVG/1.1/DTD/svg11.dtd">
<!-- Generated by graphviz version 12.0.0 (20240704.0754)
 -->
<!-- Title: Parser Pages: 1 -->
<svg width="1142pt" height="398pt"
 viewBox="0.00 0.00 1141.50 397.63" xmlns="http://www.w3.org/2000/svg" xmlns:xlink="http://www.w3.org/1999/xlink">
<g id="graph0" class="graph" transform="scale(1 1) rotate(0) translate(4 393.63)">
<title>Parser</title>
<polygon fill="white" stroke="none" points="-4,4 -4,-393.63 1137.5,-393.63 1137.5,4 -4,4"/>
<!-- Parser -->
<g id="node1" class="node">
<title>Parser</title>
<ellipse fill="none" stroke="black" cx="633.5" cy="-339.43" rx="88.21" ry="50.2"/>
<text text-anchor="middle" x="633.5" y="-357.63" font-family="Times New Roman,serif" font-size="14.00">Parser</text>
<text text-anchor="middle" x="633.5" y="-341.88" font-family="Times New Roman,serif" font-size="14.00">Input: &quot;a x $&quot;</text>
<text text-anchor="middle" x="633.5" y="-326.13" font-family="Times New Roman,serif" font-size="14.00">Location: 3 (&#39; &#39;)</text>
<text text-anchor="middle" x="633.5" y="-310.38" font-family="Times New Roman,serif" font-size="14.00">Step 24: Expanding</text>
</g>
<!-- todoLists -->
<g id="node2" class="node">
<title>todoLists</title>
<polygon fill="none" stroke="black" points="0,-200.97 0,-236.97 493,-236.97 493,-200.97 0,-200.97"/>
<text text-anchor="middle" x="11.38" y="-213.55" font-family="Times New Roman,serif" font-size="14.00">0</text>
<polyline fill="none" stroke="black" points="22.75,-200.97 22.75,-236.97"/>
<text text-anchor="middle" x="34.12" y="-213.55" font-family="Times New Roman,serif" font-size="14.00">1</text>
<polyline fill="none" stroke="black" points="45.5,-200.97 45.5,-236.97"/>
<text text-anchor="middle" x="56.88" y="-213.55" font-family="Times New Roman,serif" font-size="14.00">2</text>
<polyline fill="none" stroke="black" points="68.25,-200.97 68.25,-236.97"/>
<text text-anchor="middle" x="79.62" y="-213.55" font-family="Times New Roman,serif" font-size="14.00">3</text>
<polyline fill="none" stroke="black" points="91,-200.97 91,-236.97"/>
<text text-anchor="middle" x="102.38" y="-213.55" font-family="Times New Roman,serif" font-size="14.00">4</text>
<polyline fill="none" stroke="black" points="113.75,-200.97 113.75,-236.97"/>
<text text-anchor="middle" x="125.12" y="-213.55" font-family="Times New Roman,serif" font-size="14.00">5</text>
<polyline fill="none" stroke="black" points="136.5,-200.97 136.5,-236.97"/>
<text text-anchor="middle" x="147.88" y="-213.55" font-family="Times New Roman,serif" font-size="14.00">6</text>
<polyline fill="none" stroke="black" points="159.25,-200.97 159.25,-236.97"/>
<text text-anchor="middle" x="170.62" y="-213.55" font-family="Times New Roman,serif" font-size="14.00">7</text>
<polyline fill="none" stroke="black" points="182,-200.97 182,-236.97"/>
<text text-anchor="middle" x="193.38" y="-213.55" font-family="Times New Roman,serif" font-size="14.00">8</text>
<polyline fill="none" stroke="black" points="204.75,-200.97 204.75,-236.97"/>
<text text-anchor="middle" x="216.12" y="-213.55" font-family="Times New Roman,serif" font-size="14.00">9</text>
<polyline fill="none" stroke="black" points="227.5,-200.97 227.5,-236.97"/>
<text text-anchor="middle" x="242.25" y="-213.55" font-family="Times New Roman,serif" font-size="14.00">10</text>
<polyline fill="none" stroke="black" points="257,-200.97 257,-236.97"/>
<text text-anchor="middle" x="271.75" y="-213.55" font-family="Times New Roman,serif" font-size="14.00">11</text>
<polyline fill="none" stroke="black" points="286.5,-200.97 286.5,-236.97"/>
<text text-anchor="middle" x="301.25" y="-213.55" font-family="Times New Roman,serif" font-size="14.00">12</text>
<polyline fill="none" stroke="black" points="316,-200.97 316,-236.97"/>
<text text-anchor="middle" x="330.75" y="-213.55" font-family="Times New Roman,serif" font-size="14.00">13</text>
<polyline fill="none" stroke="black" points="345.5,-200.97 345.5,-236.97"/>
<text text-anchor="middle" x="360.25" y="-213.55" font-family="Times New Roman,serif" font-size="14.00">14</text>
<polyline fill="none" stroke="black" points="375,-200.97 375,-236.97"/>
<text text-anchor="middle" x="389.75" y="-213.55" font-family="Times New Roman,serif" font-size="14.00">15</text>
<polyline fill="none" stroke="black" points="404.5,-200.97 404.5,-236.97"/>
<text text-anchor="middle" x="419.25" y="-213.55" font-family="Times New Roman,serif" font-size="14.00">16</text>
<polyline fill="none" stroke="black" points="434,-200.97 434,-236.97"/>
<text text-anchor="middle" x="448.75" y="-213.55" font-family="Times New Roman,serif" font-size="14.00">17</text>
<polyline fill="none" stroke="black" points="463.5,-200.97 463.5,-236.97"/>
<text text-anchor="middle" x="478.25" y="-213.55" font-family="Times New Roman,serif" font-size="14.00">18</text>
</g>
<!-- Parser&#45;&gt;todoLists -->
<g id="edge1" class="edge">
<title>Parser&#45;&gt;todoLists</title>
<path fill="none" stroke="black" d="M556.11,-314.74C485.49,-293.12 382.12,-261.48 314.57,-240.81"/>
<polygon fill="black" stroke="black" points="315.67,-237.49 305.09,-237.91 313.62,-244.18 315.67,-237.49"/>
<text text-anchor="middle" x="431.38" y="-257.92" font-family="Times New Roman,serif" font-size="14.00">todo lists</text>
</g>
<!-- stacksToExpand -->
<g id="node5" class="node">
<title>stacksToExpand</title>
<polygon fill="none" stroke="red" points="511.5,-200.97 511.5,-236.97 565.5,-236.97 565.5,-200.97 511.5,-200.97"/>
<text text-anchor="middle" x="538.38" y="-213.55" font-family="Times New Roman,serif" font-size="14.00">0</text>
</g>
<!-- Parser&#45;&gt;stacksToExpand -->
<g id="edge4" class="edge">
<title>Parser&#45;&gt;stacksToExpand</title>
<path fill="none" stroke="black" d="M566.79,-306.11C554.02,-296.71 542.35,-285.13 535,-271.22 531.35,-264.31 530.61,-256.12 531.21,-248.34"/>
<polygon fill="black" stroke="black" points="534.66,-248.98 532.73,-238.57 527.74,-247.91 534.66,-248.98"/>
<text text-anchor="middle" x="582.75" y="-257.92" font-family="Times New Roman,serif" font-size="14.00">stacks to expand</text>
</g>
<!-- terminalsToReduce -->
<g id="node6" class="node">
<title>terminalsToReduce</title>
<polygon fill="none" stroke="black" points="606.5,-200.97 606.5,-236.97 660.5,-236.97 660.5,-200.97 606.5,-200.97"/>
<text text-anchor="middle" x="633.38" y="-213.55" font-family="Times New Roman,serif" font-size="14.00"> </text>
</g>
<!-- Parser&#45;&gt;terminalsToReduce -->
<g id="edge5" class="edge">
<title>Parser&#45;&gt;terminalsToReduce</title>
<path fill="none" stroke="black" d="M633.5,-288.88C633.5,-275.09 633.5,-260.58 633.5,-248.45"/>
<polygon fill="black" stroke="black" points="637,-248.75 633.5,-238.75 630,-248.75 637,-248.75"/>
<text text-anchor="middle" x="686.38" y="-257.92" font-family="Times New Roman,serif" font-size="14.00">terminals to reduce</text>
</g>
<!-- nonTerminalsToReduce -->
<g id="node7" class="node">
<title>nonTerminalsToReduce</title>
<polygon fill="none" stroke="black" points="735.5,-200.97 735.5,-236.97 789.5,-236.97 789.5,-200.97 735.5,-200.97"/>
<text text-anchor="middle" x="762.38" y="-213.55" font-family="Times New Roman,serif" font-size="14.00"> </text>
</g>
<!-- Parser&#45;&gt;nonTerminalsToReduce -->
<g id="edge6" class="edge">
<title>Parser&#45;&gt;nonTerminalsToReduce</title>
<path fill="none" stroke="black" d="M699.51,-305.72C714.36,-296.12 729.09,-284.56 740.5,-271.22 746.3,-264.44 750.77,-255.91 754.13,-247.76"/>
<polygon fill="black" stroke="black" points="757.36,-249.1 757.5,-238.5 750.79,-246.7 757.36,-249.1"/>
<text text-anchor="middle" x="815.12" y="-257.92" font-family="Times New Roman,serif" font-size="14.00">non&#45;terminals to reduce</text>
</g>
<!-- error -->
<g id="node12" class="node">
<title>error</title>
<ellipse fill="none" stroke="black" cx="916.5" cy="-218.97" rx="34.1" ry="18"/>
<text text-anchor="middle" x="916.5" y="-213.55" font-family="Times New Roman,serif" font-size="14.00">Errors</text>
</g>
<!-- Parser&#45;&gt;error -->
<g id="edge7" class="edge">
<title>Parser&#45;&gt;error</title>
<path fill="none" stroke="black" d="M720.91,-331.11C772.63,-323.09 837.09,-306.31 884.5,-271.22 892.86,-265.03 899.55,-255.95 904.6,-247.14"/>
<polygon fill="black" stroke="black" points="907.61,-248.95 909.09,-238.46 901.39,-245.73 907.61,-248.95"/>
<text text-anchor="middle" x="936" y="-257.92" font-family="Times New Roman,serif" font-size="14.00">error tracking</text>
</g>
<!-- 36 -->
<g id="node3" class="node">
<title>36</title>
<ellipse fill="none" stroke="black" cx="538.5" cy="-120.79" rx="95.11" ry="27.93"/>
<text text-anchor="middle" x="538.5" y="-123.24" font-family="Times New Roman,serif" font-size="14.00">NonTerminal: Layout</text>
<text text-anchor="middle" x="538.5" y="-107.49" font-family="Times New Roman,serif" font-size="14.00">.1@3</text>
</g>
<!-- &#45;1 -->
<g id="node4" class="node">
<title>&#45;1</title>
<ellipse fill="none" stroke="black" cx="538.5" cy="-27.93" rx="73.36" ry="27.93"/>
<text text-anchor="middle" x="538.5" y="-30.38" font-family="Times New Roman,serif" font-size="14.00">NonTerminal: S</text>
<text text-anchor="middle" x="538.5" y="-14.63" font-family="Times New Roman,serif" font-size="14.00">.0@&#45;1</text>
</g>
<!-- 36&#45;&gt;&#45;1 -->
<g id="edge2" class="edge">
<title>36&#45;&gt;&#45;1</title>
<path fill="none" stroke="black" d="M538.5,-92.53C538.5,-84.71 538.5,-76.04 538.5,-67.67"/>
<polygon fill="black" stroke="black" points="542,-67.69 538.5,-57.69 535,-67.69 542,-67.69"/>
</g>
<!-- stacksToExpand&#45;&gt;36 -->
<g id="edge3" class="edge">
<title>stacksToExpand:0&#45;&gt;36</title>
<path fill="none" stroke="black" d="M538.4,-200.69C538.41,-189.35 538.43,-174.35 538.45,-160.47"/>
<polygon fill="black" stroke="black" points="541.95,-160.7 538.46,-150.69 534.95,-160.69 541.95,-160.7"/>
</g>
<!-- unexpandableNodes -->
<g id="node8" class="node">
<title>unexpandableNodes</title>
<polygon fill="none" stroke="black" points="708.5,-102.79 708.5,-138.79 762.5,-138.79 762.5,-102.79 708.5,-102.79"/>
<text text-anchor="middle" x="735.38" y="-115.37" font-family="Times New Roman,serif" font-size="14.00"> </text>
</g>
<!-- unmatchableLeafNodes -->
<g id="node9" class="node">
<title>unmatchableLeafNodes</title>
<polygon fill="none" stroke="black" points="808.5,-102.79 808.5,-138.79 862.5,-138.79 862.5,-102.79 808.5,-102.79"/>
<text text-anchor="middle" x="835.38" y="-115.37" font-family="Times New Roman,serif" font-size="14.00"> </text>
</g>
<!-- unmatchableMidProductionNodes -->
<g id="node10" class="node">
<title>unmatchableMidProductionNodes</title>
<polygon fill="none" stroke="black" points="930.5,-102.79 930.5,-138.79 984.5,-138.79 984.5,-102.79 930.5,-102.79"/>
<text text-anchor="middle" x="957.38" y="-115.37" font-family="Times New Roman,serif" font-size="14.00"> </text>
</g>
<!-- filteredNodes -->
<g id="node11" class="node">
<title>filteredNodes</title>
<polygon fill="none" stroke="black" points="1079.5,-102.79 1079.5,-138.79 1133.5,-138.79 1133.5,-102.79 1079.5,-102.79"/>
<text text-anchor="middle" x="1106.38" y="-115.37" font-family="Times New Roman,serif" font-size="14.00"> </text>
</g>
<!-- error&#45;&gt;unexpandableNodes -->
<g id="edge8" class="edge">
<title>error&#45;&gt;unexpandableNodes</title>
<path fill="none" stroke="black" d="M884.01,-213.21C837.25,-206.06 755.54,-192.34 746,-182.47 737.89,-174.09 734.79,-161.83 733.9,-150.52"/>
<polygon fill="black" stroke="black" points="737.4,-150.71 733.68,-140.79 730.4,-150.87 737.4,-150.71"/>
<text text-anchor="middle" x="784.75" y="-169.17" font-family="Times New Roman,serif" font-size="14.00">unexpandable</text>
</g>
<!-- error&#45;&gt;unmatchableLeafNodes -->
<g id="edge9" class="edge">
<title>error&#45;&gt;unmatchableLeafNodes</title>
<path fill="none" stroke="black" d="M883.75,-213.11C865.36,-208.51 843.87,-199.63 832.5,-182.47 826.34,-173.18 825.78,-161.21 827.24,-150.36"/>
<polygon fill="black" stroke="black" points="830.65,-151.18 829.17,-140.69 823.78,-149.81 830.65,-151.18"/>
<text text-anchor="middle" x="882" y="-169.17" font-family="Times New Roman,serif" font-size="14.00">unmatchable leafs</text>
</g>
<!-- error&#45;&gt;unmatchableMidProductionNodes -->
<g id="edge10" class="edge">
<title>error&#45;&gt;unmatchableMidProductionNodes</title>
<path fill="none" stroke="black" d="M926.09,-201.25C929.27,-195.4 932.71,-188.73 935.5,-182.47 940.19,-171.95 944.67,-160.09 948.34,-149.67"/>
<polygon fill="black" stroke="black" points="951.55,-151.08 951.49,-140.48 944.93,-148.81 951.55,-151.08"/>
<text text-anchor="middle" x="1004.5" y="-169.17" font-family="Times New Roman,serif" font-size="14.00">unmatchable mid&#45;prod</text>
</g>
<!-- error&#45;&gt;filteredNodes -->
<g id="edge11" class="edge">
<title>error&#45;&gt;filteredNodes</title>
<path fill="none" stroke="black" d="M950.87,-217.8C984.63,-215.98 1036.09,-208.64 1071.5,-182.47 1082.66,-174.23 1090.82,-161.28 1096.44,-149.46"/>
<polygon fill="black" stroke="black" points="1099.57,-151.05 1100.31,-140.48 1093.14,-148.28 1099.57,-151.05"/>
<text text-anchor="middle" x="1104.62" y="-169.17" font-family="Times New Roman,serif" font-size="14.00">filtered</text>
</g>
</g>
</svg>
