<?xml version="1.0" encoding="UTF-8" standalone="no"?>
<!DOCTYPE svg PUBLIC "-//W3C//DTD SVG 1.1//EN"
 "http://www.w3.org/Graphics/SVG/1.1/DTD/svg11.dtd">
<!-- Generated by graphviz version 12.0.0 (20240704.0754)
 -->
<!-- Title: Parser Pages: 1 -->
<svg width="1355pt" height="602pt"
 viewBox="0.00 0.00 1354.80 601.52" xmlns="http://www.w3.org/2000/svg" xmlns:xlink="http://www.w3.org/1999/xlink">
<g id="graph0" class="graph" transform="scale(1 1) rotate(0) translate(4 597.52)">
<title>Parser</title>
<polygon fill="white" stroke="none" points="-4,4 -4,-597.52 1350.8,-597.52 1350.8,4 -4,4"/>
<!-- Parser -->
<g id="node1" class="node">
<title>Parser</title>
<ellipse fill="none" stroke="black" cx="826.8" cy="-543.31" rx="143.37" ry="50.2"/>
<text text-anchor="middle" x="826.8" y="-561.51" font-family="Times New Roman,serif" font-size="14.00">Parser</text>
<text text-anchor="middle" x="826.8" y="-545.76" font-family="Times New Roman,serif" font-size="14.00">Input: &quot;a x $&quot;</text>
<text text-anchor="middle" x="826.8" y="-530.01" font-family="Times New Roman,serif" font-size="14.00">Location: 3 (&#39; &#39;)</text>
<text text-anchor="middle" x="826.8" y="-514.26" font-family="Times New Roman,serif" font-size="14.00">Step 25: Finding stacks to reduce</text>
</g>
<!-- todoLists -->
<g id="node7" class="node">
<title>todoLists</title>
<polygon fill="none" stroke="red" points="170.3,-404.86 170.3,-440.86 663.3,-440.86 663.3,-404.86 170.3,-404.86"/>
<text text-anchor="middle" x="181.68" y="-417.43" font-family="Times New Roman,serif" font-size="14.00">0</text>
<polyline fill="none" stroke="red" points="193.05,-404.86 193.05,-440.86"/>
<text text-anchor="middle" x="204.43" y="-417.43" font-family="Times New Roman,serif" font-size="14.00">1</text>
<polyline fill="none" stroke="red" points="215.8,-404.86 215.8,-440.86"/>
<text text-anchor="middle" x="227.18" y="-417.43" font-family="Times New Roman,serif" font-size="14.00">2</text>
<polyline fill="none" stroke="red" points="238.55,-404.86 238.55,-440.86"/>
<text text-anchor="middle" x="249.93" y="-417.43" font-family="Times New Roman,serif" font-size="14.00">3</text>
<polyline fill="none" stroke="red" points="261.3,-404.86 261.3,-440.86"/>
<text text-anchor="middle" x="272.68" y="-417.43" font-family="Times New Roman,serif" font-size="14.00">4</text>
<polyline fill="none" stroke="red" points="284.05,-404.86 284.05,-440.86"/>
<text text-anchor="middle" x="295.43" y="-417.43" font-family="Times New Roman,serif" font-size="14.00">5</text>
<polyline fill="none" stroke="red" points="306.8,-404.86 306.8,-440.86"/>
<text text-anchor="middle" x="318.18" y="-417.43" font-family="Times New Roman,serif" font-size="14.00">6</text>
<polyline fill="none" stroke="red" points="329.55,-404.86 329.55,-440.86"/>
<text text-anchor="middle" x="340.93" y="-417.43" font-family="Times New Roman,serif" font-size="14.00">7</text>
<polyline fill="none" stroke="red" points="352.3,-404.86 352.3,-440.86"/>
<text text-anchor="middle" x="363.68" y="-417.43" font-family="Times New Roman,serif" font-size="14.00">8</text>
<polyline fill="none" stroke="red" points="375.05,-404.86 375.05,-440.86"/>
<text text-anchor="middle" x="386.43" y="-417.43" font-family="Times New Roman,serif" font-size="14.00">9</text>
<polyline fill="none" stroke="red" points="397.8,-404.86 397.8,-440.86"/>
<text text-anchor="middle" x="412.55" y="-417.43" font-family="Times New Roman,serif" font-size="14.00">10</text>
<polyline fill="none" stroke="red" points="427.3,-404.86 427.3,-440.86"/>
<text text-anchor="middle" x="442.05" y="-417.43" font-family="Times New Roman,serif" font-size="14.00">11</text>
<polyline fill="none" stroke="red" points="456.8,-404.86 456.8,-440.86"/>
<text text-anchor="middle" x="471.55" y="-417.43" font-family="Times New Roman,serif" font-size="14.00">12</text>
<polyline fill="none" stroke="red" points="486.3,-404.86 486.3,-440.86"/>
<text text-anchor="middle" x="501.05" y="-417.43" font-family="Times New Roman,serif" font-size="14.00">13</text>
<polyline fill="none" stroke="red" points="515.8,-404.86 515.8,-440.86"/>
<text text-anchor="middle" x="530.55" y="-417.43" font-family="Times New Roman,serif" font-size="14.00">14</text>
<polyline fill="none" stroke="red" points="545.3,-404.86 545.3,-440.86"/>
<text text-anchor="middle" x="560.05" y="-417.43" font-family="Times New Roman,serif" font-size="14.00">15</text>
<polyline fill="none" stroke="red" points="574.8,-404.86 574.8,-440.86"/>
<text text-anchor="middle" x="589.55" y="-417.43" font-family="Times New Roman,serif" font-size="14.00">16</text>
<polyline fill="none" stroke="red" points="604.3,-404.86 604.3,-440.86"/>
<text text-anchor="middle" x="619.05" y="-417.43" font-family="Times New Roman,serif" font-size="14.00">17</text>
<polyline fill="none" stroke="red" points="633.8,-404.86 633.8,-440.86"/>
<text text-anchor="middle" x="648.55" y="-417.43" font-family="Times New Roman,serif" font-size="14.00">18</text>
</g>
<!-- Parser&#45;&gt;todoLists -->
<g id="edge6" class="edge">
<title>Parser&#45;&gt;todoLists</title>
<path fill="none" stroke="black" d="M717.2,-510.65C644.59,-489.67 551.42,-462.75 488.23,-444.5"/>
<polygon fill="black" stroke="black" points="489.22,-441.14 478.64,-441.72 487.28,-447.86 489.22,-441.14"/>
<text text-anchor="middle" x="611.68" y="-461.81" font-family="Times New Roman,serif" font-size="14.00">todo lists</text>
</g>
<!-- stacksToExpand -->
<g id="node8" class="node">
<title>stacksToExpand</title>
<polygon fill="none" stroke="black" points="681.8,-404.86 681.8,-440.86 735.8,-440.86 735.8,-404.86 681.8,-404.86"/>
<text text-anchor="middle" x="708.68" y="-417.43" font-family="Times New Roman,serif" font-size="14.00"> </text>
</g>
<!-- Parser&#45;&gt;stacksToExpand -->
<g id="edge7" class="edge">
<title>Parser&#45;&gt;stacksToExpand</title>
<path fill="none" stroke="black" d="M753.53,-500.02C744.24,-492.55 735.48,-484.21 728.3,-475.11 723.02,-468.4 719.04,-460.1 716.1,-452.15"/>
<polygon fill="black" stroke="black" points="719.48,-451.22 713.08,-442.78 712.82,-453.37 719.48,-451.22"/>
<text text-anchor="middle" x="776.05" y="-461.81" font-family="Times New Roman,serif" font-size="14.00">stacks to expand</text>
</g>
<!-- terminalsToReduce -->
<g id="node9" class="node">
<title>terminalsToReduce</title>
<polygon fill="none" stroke="black" points="799.8,-404.86 799.8,-440.86 853.8,-440.86 853.8,-404.86 799.8,-404.86"/>
<text text-anchor="middle" x="826.68" y="-417.43" font-family="Times New Roman,serif" font-size="14.00"> </text>
</g>
<!-- Parser&#45;&gt;terminalsToReduce -->
<g id="edge8" class="edge">
<title>Parser&#45;&gt;terminalsToReduce</title>
<path fill="none" stroke="black" d="M826.8,-492.76C826.8,-478.97 826.8,-464.47 826.8,-452.34"/>
<polygon fill="black" stroke="black" points="830.3,-452.63 826.8,-442.63 823.3,-452.63 830.3,-452.63"/>
<text text-anchor="middle" x="879.68" y="-461.81" font-family="Times New Roman,serif" font-size="14.00">terminals to reduce</text>
</g>
<!-- nonTerminalsToReduce -->
<g id="node10" class="node">
<title>nonTerminalsToReduce</title>
<polygon fill="none" stroke="black" points="928.8,-404.86 928.8,-440.86 982.8,-440.86 982.8,-404.86 928.8,-404.86"/>
<text text-anchor="middle" x="955.68" y="-417.43" font-family="Times New Roman,serif" font-size="14.00"> </text>
</g>
<!-- Parser&#45;&gt;nonTerminalsToReduce -->
<g id="edge9" class="edge">
<title>Parser&#45;&gt;nonTerminalsToReduce</title>
<path fill="none" stroke="black" d="M905.24,-501.04C915.69,-493.36 925.6,-484.69 933.8,-475.11 939.6,-468.33 944.08,-459.79 947.43,-451.64"/>
<polygon fill="black" stroke="black" points="950.67,-452.98 950.81,-442.39 944.09,-450.58 950.67,-452.98"/>
<text text-anchor="middle" x="1009.43" y="-461.81" font-family="Times New Roman,serif" font-size="14.00">non&#45;terminals to reduce</text>
</g>
<!-- error -->
<g id="node15" class="node">
<title>error</title>
<ellipse fill="none" stroke="black" cx="1109.8" cy="-422.86" rx="34.1" ry="18"/>
<text text-anchor="middle" x="1109.8" y="-417.43" font-family="Times New Roman,serif" font-size="14.00">Errors</text>
</g>
<!-- Parser&#45;&gt;error -->
<g id="edge10" class="edge">
<title>Parser&#45;&gt;error</title>
<path fill="none" stroke="black" d="M961.9,-526.09C1002.43,-516.25 1045.03,-500.45 1078.8,-475.11 1087.05,-468.92 1093.57,-459.83 1098.45,-451.02"/>
<polygon fill="black" stroke="black" points="1101.44,-452.86 1102.76,-442.35 1095.17,-449.75 1101.44,-452.86"/>
<text text-anchor="middle" x="1130.3" y="-461.81" font-family="Times New Roman,serif" font-size="14.00">error tracking</text>
</g>
<!-- todo&#45;2 -->
<g id="node2" class="node">
<title>todo&#45;2</title>
<polygon fill="none" stroke="black" points="200.8,-316.11 200.8,-352.11 254.8,-352.11 254.8,-316.11 200.8,-316.11"/>
<text text-anchor="middle" x="227.68" y="-328.68" font-family="Times New Roman,serif" font-size="14.00">0</text>
</g>
<!-- 92 -->
<g id="node3" class="node">
<title>92</title>
<ellipse fill="none" stroke="black" cx="124.8" cy="-224.79" rx="124.8" ry="39.07"/>
<text text-anchor="middle" x="124.8" y="-235.12" font-family="Times New Roman,serif" font-size="14.00">Char: </text>
<text text-anchor="middle" x="124.8" y="-219.37" font-family="Times New Roman,serif" font-size="14.00">.0@3</text>
<text text-anchor="middle" x="124.8" y="-203.62" font-family="Times New Roman,serif" font-size="14.00">in: &#39;Layout &#45;&gt; [range(32,32)]&#39;</text>
</g>
<!-- todo&#45;2&#45;&gt;92 -->
<g id="edge3" class="edge">
<title>todo&#45;2:sw&#45;&gt;92</title>
<path fill="none" stroke="black" d="M200.8,-315.61C187.17,-301.97 173.25,-286.18 161.12,-271.67"/>
<polygon fill="black" stroke="black" points="163.85,-269.48 154.78,-264.01 158.46,-273.94 163.85,-269.48"/>
<text text-anchor="middle" x="199.55" y="-284.31" font-family="Times New Roman,serif" font-size="14.00">Stack</text>
</g>
<!-- 2082353865 -->
<g id="node6" class="node">
<title>2082353865</title>
<polygon fill="none" stroke="black" points="390.42,-212.27 390.42,-237.31 354.32,-255.02 303.28,-255.02 267.19,-237.31 267.19,-212.27 303.28,-194.56 354.32,-194.56 390.42,-212.27"/>
<text text-anchor="middle" x="328.8" y="-227.24" font-family="Times New Roman,serif" font-size="14.00">Char</text>
<text text-anchor="middle" x="328.8" y="-211.49" font-family="Times New Roman,serif" font-size="14.00">char=32(&#39; &#39;)</text>
</g>
<!-- todo&#45;2&#45;&gt;2082353865 -->
<g id="edge4" class="edge">
<title>todo&#45;2:se&#45;&gt;2082353865</title>
<path fill="none" stroke="black" d="M254.55,-315.61C270.49,-299.67 286.61,-280.61 299.74,-264.14"/>
<polygon fill="black" stroke="black" points="302.33,-266.51 305.77,-256.49 296.83,-262.18 302.33,-266.51"/>
<text text-anchor="middle" x="300.18" y="-284.31" font-family="Times New Roman,serif" font-size="14.00">Node</text>
</g>
<!-- 36 -->
<g id="node4" class="node">
<title>36</title>
<ellipse fill="none" stroke="black" cx="124.8" cy="-120.79" rx="95.11" ry="27.93"/>
<text text-anchor="middle" x="124.8" y="-123.24" font-family="Times New Roman,serif" font-size="14.00">NonTerminal: Layout</text>
<text text-anchor="middle" x="124.8" y="-107.49" font-family="Times New Roman,serif" font-size="14.00">.1@3</text>
</g>
<!-- 92&#45;&gt;36 -->
<g id="edge2" class="edge">
<title>92&#45;&gt;36</title>
<path fill="none" stroke="black" d="M124.8,-185.23C124.8,-177.12 124.8,-168.56 124.8,-160.44"/>
<polygon fill="black" stroke="black" points="128.3,-160.49 124.8,-150.49 121.3,-160.49 128.3,-160.49"/>
</g>
<!-- &#45;1 -->
<g id="node5" class="node">
<title>&#45;1</title>
<ellipse fill="none" stroke="black" cx="124.8" cy="-27.93" rx="73.36" ry="27.93"/>
<text text-anchor="middle" x="124.8" y="-30.38" font-family="Times New Roman,serif" font-size="14.00">NonTerminal: S</text>
<text text-anchor="middle" x="124.8" y="-14.63" font-family="Times New Roman,serif" font-size="14.00">.0@&#45;1</text>
</g>
<!-- 36&#45;&gt;&#45;1 -->
<g id="edge1" class="edge">
<title>36&#45;&gt;&#45;1</title>
<path fill="none" stroke="black" d="M124.8,-92.53C124.8,-84.71 124.8,-76.04 124.8,-67.67"/>
<polygon fill="black" stroke="black" points="128.3,-67.69 124.8,-57.69 121.3,-67.69 128.3,-67.69"/>
</g>
<!-- todoLists&#45;&gt;todo&#45;2 -->
<g id="edge5" class="edge">
<title>todoLists:2&#45;&gt;todo&#45;2</title>
<path fill="none" stroke="black" d="M227.18,-404.36C227.18,-390.96 227.3,-376.11 227.43,-363.61"/>
<polygon fill="black" stroke="black" points="230.93,-364.02 227.54,-353.98 223.93,-363.94 230.93,-364.02"/>
</g>
<!-- unexpandableNodes -->
<g id="node11" class="node">
<title>unexpandableNodes</title>
<polygon fill="none" stroke="black" points="921.8,-316.11 921.8,-352.11 975.8,-352.11 975.8,-316.11 921.8,-316.11"/>
<text text-anchor="middle" x="948.68" y="-328.68" font-family="Times New Roman,serif" font-size="14.00"> </text>
</g>
<!-- unmatchableLeafNodes -->
<g id="node12" class="node">
<title>unmatchableLeafNodes</title>
<polygon fill="none" stroke="black" points="1021.8,-316.11 1021.8,-352.11 1075.8,-352.11 1075.8,-316.11 1021.8,-316.11"/>
<text text-anchor="middle" x="1048.68" y="-328.68" font-family="Times New Roman,serif" font-size="14.00"> </text>
</g>
<!-- unmatchableMidProductionNodes -->
<g id="node13" class="node">
<title>unmatchableMidProductionNodes</title>
<polygon fill="none" stroke="black" points="1143.8,-316.11 1143.8,-352.11 1197.8,-352.11 1197.8,-316.11 1143.8,-316.11"/>
<text text-anchor="middle" x="1170.68" y="-328.68" font-family="Times New Roman,serif" font-size="14.00"> </text>
</g>
<!-- filteredNodes -->
<g id="node14" class="node">
<title>filteredNodes</title>
<polygon fill="none" stroke="black" points="1292.8,-316.11 1292.8,-352.11 1346.8,-352.11 1346.8,-316.11 1292.8,-316.11"/>
<text text-anchor="middle" x="1319.68" y="-328.68" font-family="Times New Roman,serif" font-size="14.00"> </text>
</g>
<!-- error&#45;&gt;unexpandableNodes -->
<g id="edge11" class="edge">
<title>error&#45;&gt;unexpandableNodes</title>
<path fill="none" stroke="black" d="M1076.68,-417.63C1038.9,-412.16 980.3,-401.51 964.3,-386.36 957.99,-380.38 954.23,-371.93 951.98,-363.62"/>
<polygon fill="black" stroke="black" points="955.47,-363.21 950.08,-354.09 948.61,-364.58 955.47,-363.21"/>
<text text-anchor="middle" x="1003.05" y="-373.06" font-family="Times New Roman,serif" font-size="14.00">unexpandable</text>
</g>
<!-- error&#45;&gt;unmatchableLeafNodes -->
<g id="edge12" class="edge">
<title>error&#45;&gt;unmatchableLeafNodes</title>
<path fill="none" stroke="black" d="M1081.63,-412.36C1069.64,-406.77 1056.82,-398.38 1049.8,-386.36 1045.87,-379.62 1044.52,-371.49 1044.43,-363.71"/>
<polygon fill="black" stroke="black" points="1047.92,-364.09 1045.02,-353.9 1040.93,-363.67 1047.92,-364.09"/>
<text text-anchor="middle" x="1099.3" y="-373.06" font-family="Times New Roman,serif" font-size="14.00">unmatchable leafs</text>
</g>
<!-- error&#45;&gt;unmatchableMidProductionNodes -->
<g id="edge13" class="edge">
<title>error&#45;&gt;unmatchableMidProductionNodes</title>
<path fill="none" stroke="black" d="M1128.48,-407.72C1135.52,-401.71 1143.17,-394.26 1148.8,-386.36 1153.84,-379.28 1158.05,-370.87 1161.4,-362.93"/>
<polygon fill="black" stroke="black" points="1164.65,-364.21 1164.99,-353.62 1158.13,-361.68 1164.65,-364.21"/>
<text text-anchor="middle" x="1219.8" y="-373.06" font-family="Times New Roman,serif" font-size="14.00">unmatchable mid&#45;prod</text>
</g>
<!-- error&#45;&gt;filteredNodes -->
<g id="edge14" class="edge">
<title>error&#45;&gt;filteredNodes</title>
<path fill="none" stroke="black" d="M1144.11,-422.65C1182.15,-421.89 1243.82,-415.66 1286.8,-386.36 1295.48,-380.45 1302.38,-371.42 1307.59,-362.58"/>
<polygon fill="black" stroke="black" points="1310.64,-364.31 1312.22,-353.83 1304.45,-361.04 1310.64,-364.31"/>
<text text-anchor="middle" x="1320.93" y="-373.06" font-family="Times New Roman,serif" font-size="14.00">filtered</text>
</g>
</g>
</svg>
