<?xml version="1.0" encoding="UTF-8" standalone="no"?>
<!DOCTYPE svg PUBLIC "-//W3C//DTD SVG 1.1//EN"
 "http://www.w3.org/Graphics/SVG/1.1/DTD/svg11.dtd">
<!-- Generated by graphviz version 12.0.0 (20240704.0754)
 -->
<!-- Title: Parser Pages: 1 -->
<svg width="1378pt" height="602pt"
 viewBox="0.00 0.00 1377.80 601.52" xmlns="http://www.w3.org/2000/svg" xmlns:xlink="http://www.w3.org/1999/xlink">
<g id="graph0" class="graph" transform="scale(1 1) rotate(0) translate(4 597.52)">
<title>Parser</title>
<polygon fill="white" stroke="none" points="-4,4 -4,-597.52 1373.8,-597.52 1373.8,4 -4,4"/>
<!-- Parser -->
<g id="node1" class="node">
<title>Parser</title>
<ellipse fill="none" stroke="black" cx="849.8" cy="-543.31" rx="135.41" ry="50.2"/>
<text text-anchor="middle" x="849.8" y="-561.51" font-family="Times New Roman,serif" font-size="14.00">Parser</text>
<text text-anchor="middle" x="849.8" y="-545.76" font-family="Times New Roman,serif" font-size="14.00">Input: &quot;a x $&quot;</text>
<text text-anchor="middle" x="849.8" y="-530.01" font-family="Times New Roman,serif" font-size="14.00">Location: 3 (&#39; &#39;)</text>
<text text-anchor="middle" x="849.8" y="-514.26" font-family="Times New Roman,serif" font-size="14.00">Step 26: Found stack to reduce</text>
</g>
<!-- todoLists -->
<g id="node7" class="node">
<title>todoLists</title>
<polygon fill="none" stroke="black" points="193.3,-404.86 193.3,-440.86 686.3,-440.86 686.3,-404.86 193.3,-404.86"/>
<text text-anchor="middle" x="204.68" y="-417.43" font-family="Times New Roman,serif" font-size="14.00">0</text>
<polyline fill="none" stroke="black" points="216.05,-404.86 216.05,-440.86"/>
<text text-anchor="middle" x="227.43" y="-417.43" font-family="Times New Roman,serif" font-size="14.00">1</text>
<polyline fill="none" stroke="black" points="238.8,-404.86 238.8,-440.86"/>
<text text-anchor="middle" x="250.18" y="-417.43" font-family="Times New Roman,serif" font-size="14.00">2</text>
<polyline fill="none" stroke="black" points="261.55,-404.86 261.55,-440.86"/>
<text text-anchor="middle" x="272.93" y="-417.43" font-family="Times New Roman,serif" font-size="14.00">3</text>
<polyline fill="none" stroke="black" points="284.3,-404.86 284.3,-440.86"/>
<text text-anchor="middle" x="295.68" y="-417.43" font-family="Times New Roman,serif" font-size="14.00">4</text>
<polyline fill="none" stroke="black" points="307.05,-404.86 307.05,-440.86"/>
<text text-anchor="middle" x="318.43" y="-417.43" font-family="Times New Roman,serif" font-size="14.00">5</text>
<polyline fill="none" stroke="black" points="329.8,-404.86 329.8,-440.86"/>
<text text-anchor="middle" x="341.18" y="-417.43" font-family="Times New Roman,serif" font-size="14.00">6</text>
<polyline fill="none" stroke="black" points="352.55,-404.86 352.55,-440.86"/>
<text text-anchor="middle" x="363.93" y="-417.43" font-family="Times New Roman,serif" font-size="14.00">7</text>
<polyline fill="none" stroke="black" points="375.3,-404.86 375.3,-440.86"/>
<text text-anchor="middle" x="386.68" y="-417.43" font-family="Times New Roman,serif" font-size="14.00">8</text>
<polyline fill="none" stroke="black" points="398.05,-404.86 398.05,-440.86"/>
<text text-anchor="middle" x="409.43" y="-417.43" font-family="Times New Roman,serif" font-size="14.00">9</text>
<polyline fill="none" stroke="black" points="420.8,-404.86 420.8,-440.86"/>
<text text-anchor="middle" x="435.55" y="-417.43" font-family="Times New Roman,serif" font-size="14.00">10</text>
<polyline fill="none" stroke="black" points="450.3,-404.86 450.3,-440.86"/>
<text text-anchor="middle" x="465.05" y="-417.43" font-family="Times New Roman,serif" font-size="14.00">11</text>
<polyline fill="none" stroke="black" points="479.8,-404.86 479.8,-440.86"/>
<text text-anchor="middle" x="494.55" y="-417.43" font-family="Times New Roman,serif" font-size="14.00">12</text>
<polyline fill="none" stroke="black" points="509.3,-404.86 509.3,-440.86"/>
<text text-anchor="middle" x="524.05" y="-417.43" font-family="Times New Roman,serif" font-size="14.00">13</text>
<polyline fill="none" stroke="black" points="538.8,-404.86 538.8,-440.86"/>
<text text-anchor="middle" x="553.55" y="-417.43" font-family="Times New Roman,serif" font-size="14.00">14</text>
<polyline fill="none" stroke="black" points="568.3,-404.86 568.3,-440.86"/>
<text text-anchor="middle" x="583.05" y="-417.43" font-family="Times New Roman,serif" font-size="14.00">15</text>
<polyline fill="none" stroke="black" points="597.8,-404.86 597.8,-440.86"/>
<text text-anchor="middle" x="612.55" y="-417.43" font-family="Times New Roman,serif" font-size="14.00">16</text>
<polyline fill="none" stroke="black" points="627.3,-404.86 627.3,-440.86"/>
<text text-anchor="middle" x="642.05" y="-417.43" font-family="Times New Roman,serif" font-size="14.00">17</text>
<polyline fill="none" stroke="black" points="656.8,-404.86 656.8,-440.86"/>
<text text-anchor="middle" x="671.55" y="-417.43" font-family="Times New Roman,serif" font-size="14.00">18</text>
</g>
<!-- Parser&#45;&gt;todoLists -->
<g id="edge6" class="edge">
<title>Parser&#45;&gt;todoLists</title>
<path fill="none" stroke="black" d="M743.69,-511.65C670.57,-490.53 575.38,-463.03 511.18,-444.48"/>
<polygon fill="black" stroke="black" points="512.39,-441.19 501.81,-441.77 510.44,-447.91 512.39,-441.19"/>
<text text-anchor="middle" x="634.68" y="-461.81" font-family="Times New Roman,serif" font-size="14.00">todo lists</text>
</g>
<!-- stacksToExpand -->
<g id="node8" class="node">
<title>stacksToExpand</title>
<polygon fill="none" stroke="black" points="704.8,-404.86 704.8,-440.86 758.8,-440.86 758.8,-404.86 704.8,-404.86"/>
<text text-anchor="middle" x="731.68" y="-417.43" font-family="Times New Roman,serif" font-size="14.00"> </text>
</g>
<!-- Parser&#45;&gt;stacksToExpand -->
<g id="edge7" class="edge">
<title>Parser&#45;&gt;stacksToExpand</title>
<path fill="none" stroke="black" d="M777.53,-500.81C767.86,-493.14 758.74,-484.54 751.3,-475.11 746.02,-468.4 742.04,-460.1 739.1,-452.15"/>
<polygon fill="black" stroke="black" points="742.48,-451.22 736.08,-442.78 735.82,-453.37 742.48,-451.22"/>
<text text-anchor="middle" x="799.05" y="-461.81" font-family="Times New Roman,serif" font-size="14.00">stacks to expand</text>
</g>
<!-- terminalsToReduce -->
<g id="node9" class="node">
<title>terminalsToReduce</title>
<polygon fill="none" stroke="black" points="822.8,-404.86 822.8,-440.86 876.8,-440.86 876.8,-404.86 822.8,-404.86"/>
<text text-anchor="middle" x="849.68" y="-417.43" font-family="Times New Roman,serif" font-size="14.00"> </text>
</g>
<!-- Parser&#45;&gt;terminalsToReduce -->
<g id="edge8" class="edge">
<title>Parser&#45;&gt;terminalsToReduce</title>
<path fill="none" stroke="black" d="M849.8,-492.76C849.8,-478.97 849.8,-464.47 849.8,-452.34"/>
<polygon fill="black" stroke="black" points="853.3,-452.63 849.8,-442.63 846.3,-452.63 853.3,-452.63"/>
<text text-anchor="middle" x="902.68" y="-461.81" font-family="Times New Roman,serif" font-size="14.00">terminals to reduce</text>
</g>
<!-- nonTerminalsToReduce -->
<g id="node10" class="node">
<title>nonTerminalsToReduce</title>
<polygon fill="none" stroke="black" points="951.8,-404.86 951.8,-440.86 1005.8,-440.86 1005.8,-404.86 951.8,-404.86"/>
<text text-anchor="middle" x="978.68" y="-417.43" font-family="Times New Roman,serif" font-size="14.00"> </text>
</g>
<!-- Parser&#45;&gt;nonTerminalsToReduce -->
<g id="edge9" class="edge">
<title>Parser&#45;&gt;nonTerminalsToReduce</title>
<path fill="none" stroke="black" d="M927.15,-501.84C938,-493.96 948.32,-485.03 956.8,-475.11 962.6,-468.33 967.08,-459.79 970.43,-451.64"/>
<polygon fill="black" stroke="black" points="973.67,-452.98 973.81,-442.39 967.09,-450.58 973.67,-452.98"/>
<text text-anchor="middle" x="1032.43" y="-461.81" font-family="Times New Roman,serif" font-size="14.00">non&#45;terminals to reduce</text>
</g>
<!-- error -->
<g id="node15" class="node">
<title>error</title>
<ellipse fill="none" stroke="black" cx="1132.8" cy="-422.86" rx="34.1" ry="18"/>
<text text-anchor="middle" x="1132.8" y="-417.43" font-family="Times New Roman,serif" font-size="14.00">Errors</text>
</g>
<!-- Parser&#45;&gt;error -->
<g id="edge10" class="edge">
<title>Parser&#45;&gt;error</title>
<path fill="none" stroke="black" d="M978.73,-527.55C1021.06,-517.83 1066.31,-501.74 1101.8,-475.11 1110.05,-468.92 1116.57,-459.83 1121.45,-451.02"/>
<polygon fill="black" stroke="black" points="1124.44,-452.86 1125.76,-442.35 1118.17,-449.75 1124.44,-452.86"/>
<text text-anchor="middle" x="1153.3" y="-461.81" font-family="Times New Roman,serif" font-size="14.00">error tracking</text>
</g>
<!-- todo&#45;1 -->
<g id="node2" class="node">
<title>todo&#45;1</title>
<polygon fill="none" stroke="red" points="200.8,-316.11 200.8,-352.11 254.8,-352.11 254.8,-316.11 200.8,-316.11"/>
<text text-anchor="middle" x="227.68" y="-328.68" font-family="Times New Roman,serif" font-size="14.00">0</text>
</g>
<!-- 92 -->
<g id="node3" class="node">
<title>92</title>
<ellipse fill="none" stroke="black" cx="124.8" cy="-224.79" rx="124.8" ry="39.07"/>
<text text-anchor="middle" x="124.8" y="-235.12" font-family="Times New Roman,serif" font-size="14.00">Char: </text>
<text text-anchor="middle" x="124.8" y="-219.37" font-family="Times New Roman,serif" font-size="14.00">.0@3</text>
<text text-anchor="middle" x="124.8" y="-203.62" font-family="Times New Roman,serif" font-size="14.00">in: &#39;Layout &#45;&gt; [range(32,32)]&#39;</text>
</g>
<!-- todo&#45;1&#45;&gt;92 -->
<g id="edge3" class="edge">
<title>todo&#45;1:sw&#45;&gt;92</title>
<path fill="none" stroke="black" d="M200.8,-315.61C187.17,-301.97 173.25,-286.18 161.12,-271.67"/>
<polygon fill="black" stroke="black" points="163.85,-269.48 154.78,-264.01 158.46,-273.94 163.85,-269.48"/>
<text text-anchor="middle" x="199.55" y="-284.31" font-family="Times New Roman,serif" font-size="14.00">Stack</text>
</g>
<!-- 2082353865 -->
<g id="node6" class="node">
<title>2082353865</title>
<polygon fill="none" stroke="black" points="390.42,-212.27 390.42,-237.31 354.32,-255.02 303.28,-255.02 267.19,-237.31 267.19,-212.27 303.28,-194.56 354.32,-194.56 390.42,-212.27"/>
<text text-anchor="middle" x="328.8" y="-227.24" font-family="Times New Roman,serif" font-size="14.00">Char</text>
<text text-anchor="middle" x="328.8" y="-211.49" font-family="Times New Roman,serif" font-size="14.00">char=32(&#39; &#39;)</text>
</g>
<!-- todo&#45;1&#45;&gt;2082353865 -->
<g id="edge4" class="edge">
<title>todo&#45;1:se&#45;&gt;2082353865</title>
<path fill="none" stroke="black" d="M254.55,-315.61C270.49,-299.67 286.61,-280.61 299.74,-264.14"/>
<polygon fill="black" stroke="black" points="302.33,-266.51 305.77,-256.49 296.83,-262.18 302.33,-266.51"/>
<text text-anchor="middle" x="300.18" y="-284.31" font-family="Times New Roman,serif" font-size="14.00">Node</text>
</g>
<!-- 36 -->
<g id="node4" class="node">
<title>36</title>
<ellipse fill="none" stroke="black" cx="124.8" cy="-120.79" rx="95.11" ry="27.93"/>
<text text-anchor="middle" x="124.8" y="-123.24" font-family="Times New Roman,serif" font-size="14.00">NonTerminal: Layout</text>
<text text-anchor="middle" x="124.8" y="-107.49" font-family="Times New Roman,serif" font-size="14.00">.1@3</text>
</g>
<!-- 92&#45;&gt;36 -->
<g id="edge2" class="edge">
<title>92&#45;&gt;36</title>
<path fill="none" stroke="black" d="M124.8,-185.23C124.8,-177.12 124.8,-168.56 124.8,-160.44"/>
<polygon fill="black" stroke="black" points="128.3,-160.49 124.8,-150.49 121.3,-160.49 128.3,-160.49"/>
</g>
<!-- &#45;1 -->
<g id="node5" class="node">
<title>&#45;1</title>
<ellipse fill="none" stroke="black" cx="124.8" cy="-27.93" rx="73.36" ry="27.93"/>
<text text-anchor="middle" x="124.8" y="-30.38" font-family="Times New Roman,serif" font-size="14.00">NonTerminal: S</text>
<text text-anchor="middle" x="124.8" y="-14.63" font-family="Times New Roman,serif" font-size="14.00">.0@&#45;1</text>
</g>
<!-- 36&#45;&gt;&#45;1 -->
<g id="edge1" class="edge">
<title>36&#45;&gt;&#45;1</title>
<path fill="none" stroke="black" d="M124.8,-92.53C124.8,-84.71 124.8,-76.04 124.8,-67.67"/>
<polygon fill="black" stroke="black" points="128.3,-67.69 124.8,-57.69 121.3,-67.69 128.3,-67.69"/>
</g>
<!-- todoLists&#45;&gt;todo&#45;1 -->
<g id="edge5" class="edge">
<title>todoLists:1&#45;&gt;todo&#45;1</title>
<path fill="none" stroke="black" d="M227.43,-404.36C227.43,-390.97 227.5,-376.12 227.58,-363.61"/>
<polygon fill="black" stroke="black" points="231.08,-364.01 227.65,-353.98 224.08,-363.96 231.08,-364.01"/>
</g>
<!-- unexpandableNodes -->
<g id="node11" class="node">
<title>unexpandableNodes</title>
<polygon fill="none" stroke="black" points="944.8,-316.11 944.8,-352.11 998.8,-352.11 998.8,-316.11 944.8,-316.11"/>
<text text-anchor="middle" x="971.68" y="-328.68" font-family="Times New Roman,serif" font-size="14.00"> </text>
</g>
<!-- unmatchableLeafNodes -->
<g id="node12" class="node">
<title>unmatchableLeafNodes</title>
<polygon fill="none" stroke="black" points="1044.8,-316.11 1044.8,-352.11 1098.8,-352.11 1098.8,-316.11 1044.8,-316.11"/>
<text text-anchor="middle" x="1071.68" y="-328.68" font-family="Times New Roman,serif" font-size="14.00"> </text>
</g>
<!-- unmatchableMidProductionNodes -->
<g id="node13" class="node">
<title>unmatchableMidProductionNodes</title>
<polygon fill="none" stroke="black" points="1166.8,-316.11 1166.8,-352.11 1220.8,-352.11 1220.8,-316.11 1166.8,-316.11"/>
<text text-anchor="middle" x="1193.68" y="-328.68" font-family="Times New Roman,serif" font-size="14.00"> </text>
</g>
<!-- filteredNodes -->
<g id="node14" class="node">
<title>filteredNodes</title>
<polygon fill="none" stroke="black" points="1315.8,-316.11 1315.8,-352.11 1369.8,-352.11 1369.8,-316.11 1315.8,-316.11"/>
<text text-anchor="middle" x="1342.68" y="-328.68" font-family="Times New Roman,serif" font-size="14.00"> </text>
</g>
<!-- error&#45;&gt;unexpandableNodes -->
<g id="edge11" class="edge">
<title>error&#45;&gt;unexpandableNodes</title>
<path fill="none" stroke="black" d="M1099.68,-417.63C1061.9,-412.16 1003.3,-401.51 987.3,-386.36 980.99,-380.38 977.23,-371.93 974.98,-363.62"/>
<polygon fill="black" stroke="black" points="978.47,-363.21 973.08,-354.09 971.61,-364.58 978.47,-363.21"/>
<text text-anchor="middle" x="1026.05" y="-373.06" font-family="Times New Roman,serif" font-size="14.00">unexpandable</text>
</g>
<!-- error&#45;&gt;unmatchableLeafNodes -->
<g id="edge12" class="edge">
<title>error&#45;&gt;unmatchableLeafNodes</title>
<path fill="none" stroke="black" d="M1104.63,-412.36C1092.64,-406.77 1079.82,-398.38 1072.8,-386.36 1068.87,-379.62 1067.52,-371.49 1067.43,-363.71"/>
<polygon fill="black" stroke="black" points="1070.92,-364.09 1068.02,-353.9 1063.93,-363.67 1070.92,-364.09"/>
<text text-anchor="middle" x="1122.3" y="-373.06" font-family="Times New Roman,serif" font-size="14.00">unmatchable leafs</text>
</g>
<!-- error&#45;&gt;unmatchableMidProductionNodes -->
<g id="edge13" class="edge">
<title>error&#45;&gt;unmatchableMidProductionNodes</title>
<path fill="none" stroke="black" d="M1151.48,-407.72C1158.52,-401.71 1166.17,-394.26 1171.8,-386.36 1176.84,-379.28 1181.05,-370.87 1184.4,-362.93"/>
<polygon fill="black" stroke="black" points="1187.65,-364.21 1187.99,-353.62 1181.13,-361.68 1187.65,-364.21"/>
<text text-anchor="middle" x="1242.8" y="-373.06" font-family="Times New Roman,serif" font-size="14.00">unmatchable mid&#45;prod</text>
</g>
<!-- error&#45;&gt;filteredNodes -->
<g id="edge14" class="edge">
<title>error&#45;&gt;filteredNodes</title>
<path fill="none" stroke="black" d="M1167.11,-422.65C1205.15,-421.89 1266.82,-415.66 1309.8,-386.36 1318.48,-380.45 1325.38,-371.42 1330.59,-362.58"/>
<polygon fill="black" stroke="black" points="1333.64,-364.31 1335.22,-353.83 1327.45,-361.04 1333.64,-364.31"/>
<text text-anchor="middle" x="1343.93" y="-373.06" font-family="Times New Roman,serif" font-size="14.00">filtered</text>
</g>
</g>
</svg>
