<?xml version="1.0" encoding="UTF-8" standalone="no"?>
<!DOCTYPE svg PUBLIC "-//W3C//DTD SVG 1.1//EN"
 "http://www.w3.org/Graphics/SVG/1.1/DTD/svg11.dtd">
<!-- Generated by graphviz version 12.0.0 (20240704.0754)
 -->
<!-- Title: Parser Pages: 1 -->
<svg width="1329pt" height="624pt"
 viewBox="0.00 0.00 1329.32 623.79" xmlns="http://www.w3.org/2000/svg" xmlns:xlink="http://www.w3.org/1999/xlink">
<g id="graph0" class="graph" transform="scale(1 1) rotate(0) translate(4 619.79)">
<title>Parser</title>
<polygon fill="white" stroke="none" points="-4,4 -4,-619.79 1325.32,-619.79 1325.32,4 -4,4"/>
<!-- Parser -->
<g id="node1" class="node">
<title>Parser</title>
<ellipse fill="none" stroke="black" cx="801.32" cy="-565.59" rx="143.37" ry="50.2"/>
<text text-anchor="middle" x="801.32" y="-583.79" font-family="Times New Roman,serif" font-size="14.00">Parser</text>
<text text-anchor="middle" x="801.32" y="-568.04" font-family="Times New Roman,serif" font-size="14.00">Input: &quot;a x $&quot;</text>
<text text-anchor="middle" x="801.32" y="-552.29" font-family="Times New Roman,serif" font-size="14.00">Location: 4 (&#39;$&#39;)</text>
<text text-anchor="middle" x="801.32" y="-536.54" font-family="Times New Roman,serif" font-size="14.00">Step 30: Finding stacks to reduce</text>
</g>
<!-- todoLists -->
<g id="node7" class="node">
<title>todoLists</title>
<polygon fill="none" stroke="red" points="144.82,-427.13 144.82,-463.13 637.82,-463.13 637.82,-427.13 144.82,-427.13"/>
<text text-anchor="middle" x="156.19" y="-439.71" font-family="Times New Roman,serif" font-size="14.00">0</text>
<polyline fill="none" stroke="red" points="167.57,-427.13 167.57,-463.13"/>
<text text-anchor="middle" x="178.94" y="-439.71" font-family="Times New Roman,serif" font-size="14.00">1</text>
<polyline fill="none" stroke="red" points="190.32,-427.13 190.32,-463.13"/>
<text text-anchor="middle" x="201.69" y="-439.71" font-family="Times New Roman,serif" font-size="14.00">2</text>
<polyline fill="none" stroke="red" points="213.07,-427.13 213.07,-463.13"/>
<text text-anchor="middle" x="224.44" y="-439.71" font-family="Times New Roman,serif" font-size="14.00">3</text>
<polyline fill="none" stroke="red" points="235.82,-427.13 235.82,-463.13"/>
<text text-anchor="middle" x="247.19" y="-439.71" font-family="Times New Roman,serif" font-size="14.00">4</text>
<polyline fill="none" stroke="red" points="258.57,-427.13 258.57,-463.13"/>
<text text-anchor="middle" x="269.94" y="-439.71" font-family="Times New Roman,serif" font-size="14.00">5</text>
<polyline fill="none" stroke="red" points="281.32,-427.13 281.32,-463.13"/>
<text text-anchor="middle" x="292.69" y="-439.71" font-family="Times New Roman,serif" font-size="14.00">6</text>
<polyline fill="none" stroke="red" points="304.07,-427.13 304.07,-463.13"/>
<text text-anchor="middle" x="315.44" y="-439.71" font-family="Times New Roman,serif" font-size="14.00">7</text>
<polyline fill="none" stroke="red" points="326.82,-427.13 326.82,-463.13"/>
<text text-anchor="middle" x="338.19" y="-439.71" font-family="Times New Roman,serif" font-size="14.00">8</text>
<polyline fill="none" stroke="red" points="349.57,-427.13 349.57,-463.13"/>
<text text-anchor="middle" x="360.94" y="-439.71" font-family="Times New Roman,serif" font-size="14.00">9</text>
<polyline fill="none" stroke="red" points="372.32,-427.13 372.32,-463.13"/>
<text text-anchor="middle" x="387.07" y="-439.71" font-family="Times New Roman,serif" font-size="14.00">10</text>
<polyline fill="none" stroke="red" points="401.82,-427.13 401.82,-463.13"/>
<text text-anchor="middle" x="416.57" y="-439.71" font-family="Times New Roman,serif" font-size="14.00">11</text>
<polyline fill="none" stroke="red" points="431.32,-427.13 431.32,-463.13"/>
<text text-anchor="middle" x="446.07" y="-439.71" font-family="Times New Roman,serif" font-size="14.00">12</text>
<polyline fill="none" stroke="red" points="460.82,-427.13 460.82,-463.13"/>
<text text-anchor="middle" x="475.57" y="-439.71" font-family="Times New Roman,serif" font-size="14.00">13</text>
<polyline fill="none" stroke="red" points="490.32,-427.13 490.32,-463.13"/>
<text text-anchor="middle" x="505.07" y="-439.71" font-family="Times New Roman,serif" font-size="14.00">14</text>
<polyline fill="none" stroke="red" points="519.82,-427.13 519.82,-463.13"/>
<text text-anchor="middle" x="534.57" y="-439.71" font-family="Times New Roman,serif" font-size="14.00">15</text>
<polyline fill="none" stroke="red" points="549.32,-427.13 549.32,-463.13"/>
<text text-anchor="middle" x="564.07" y="-439.71" font-family="Times New Roman,serif" font-size="14.00">16</text>
<polyline fill="none" stroke="red" points="578.82,-427.13 578.82,-463.13"/>
<text text-anchor="middle" x="593.57" y="-439.71" font-family="Times New Roman,serif" font-size="14.00">17</text>
<polyline fill="none" stroke="red" points="608.32,-427.13 608.32,-463.13"/>
<text text-anchor="middle" x="623.07" y="-439.71" font-family="Times New Roman,serif" font-size="14.00">18</text>
</g>
<!-- Parser&#45;&gt;todoLists -->
<g id="edge6" class="edge">
<title>Parser&#45;&gt;todoLists</title>
<path fill="none" stroke="black" d="M691.72,-532.92C619.1,-511.94 525.93,-485.02 462.75,-466.77"/>
<polygon fill="black" stroke="black" points="463.73,-463.41 453.16,-464 461.79,-470.14 463.73,-463.41"/>
<text text-anchor="middle" x="586.19" y="-484.08" font-family="Times New Roman,serif" font-size="14.00">todo lists</text>
</g>
<!-- stacksToExpand -->
<g id="node8" class="node">
<title>stacksToExpand</title>
<polygon fill="none" stroke="black" points="656.32,-427.13 656.32,-463.13 710.32,-463.13 710.32,-427.13 656.32,-427.13"/>
<text text-anchor="middle" x="683.19" y="-439.71" font-family="Times New Roman,serif" font-size="14.00"> </text>
</g>
<!-- Parser&#45;&gt;stacksToExpand -->
<g id="edge7" class="edge">
<title>Parser&#45;&gt;stacksToExpand</title>
<path fill="none" stroke="black" d="M728.04,-522.29C718.75,-514.82 710,-506.48 702.82,-497.38 697.53,-490.68 693.55,-482.38 690.62,-474.42"/>
<polygon fill="black" stroke="black" points="694,-473.5 687.6,-465.05 687.33,-475.64 694,-473.5"/>
<text text-anchor="middle" x="750.57" y="-484.08" font-family="Times New Roman,serif" font-size="14.00">stacks to expand</text>
</g>
<!-- terminalsToReduce -->
<g id="node9" class="node">
<title>terminalsToReduce</title>
<polygon fill="none" stroke="black" points="774.32,-427.13 774.32,-463.13 828.32,-463.13 828.32,-427.13 774.32,-427.13"/>
<text text-anchor="middle" x="801.19" y="-439.71" font-family="Times New Roman,serif" font-size="14.00"> </text>
</g>
<!-- Parser&#45;&gt;terminalsToReduce -->
<g id="edge8" class="edge">
<title>Parser&#45;&gt;terminalsToReduce</title>
<path fill="none" stroke="black" d="M801.32,-515.04C801.32,-501.25 801.32,-486.74 801.32,-474.61"/>
<polygon fill="black" stroke="black" points="804.82,-474.91 801.32,-464.91 797.82,-474.91 804.82,-474.91"/>
<text text-anchor="middle" x="854.19" y="-484.08" font-family="Times New Roman,serif" font-size="14.00">terminals to reduce</text>
</g>
<!-- nonTerminalsToReduce -->
<g id="node10" class="node">
<title>nonTerminalsToReduce</title>
<polygon fill="none" stroke="black" points="903.32,-427.13 903.32,-463.13 957.32,-463.13 957.32,-427.13 903.32,-427.13"/>
<text text-anchor="middle" x="930.19" y="-439.71" font-family="Times New Roman,serif" font-size="14.00"> </text>
</g>
<!-- Parser&#45;&gt;nonTerminalsToReduce -->
<g id="edge9" class="edge">
<title>Parser&#45;&gt;nonTerminalsToReduce</title>
<path fill="none" stroke="black" d="M879.76,-523.32C890.2,-515.64 900.12,-506.97 908.32,-497.38 914.12,-490.6 918.59,-482.07 921.94,-473.92"/>
<polygon fill="black" stroke="black" points="925.18,-475.26 925.32,-464.66 918.61,-472.86 925.18,-475.26"/>
<text text-anchor="middle" x="983.94" y="-484.08" font-family="Times New Roman,serif" font-size="14.00">non&#45;terminals to reduce</text>
</g>
<!-- error -->
<g id="node16" class="node">
<title>error</title>
<ellipse fill="none" stroke="black" cx="1084.32" cy="-445.13" rx="34.1" ry="18"/>
<text text-anchor="middle" x="1084.32" y="-439.71" font-family="Times New Roman,serif" font-size="14.00">Errors</text>
</g>
<!-- Parser&#45;&gt;error -->
<g id="edge11" class="edge">
<title>Parser&#45;&gt;error</title>
<path fill="none" stroke="black" d="M936.42,-548.36C976.94,-538.52 1019.55,-522.72 1053.32,-497.38 1061.57,-491.19 1068.08,-482.1 1072.96,-473.3"/>
<polygon fill="black" stroke="black" points="1075.95,-475.14 1077.27,-464.63 1069.69,-472.02 1075.95,-475.14"/>
<text text-anchor="middle" x="1104.82" y="-484.08" font-family="Times New Roman,serif" font-size="14.00">error tracking</text>
</g>
<!-- todo&#45;2 -->
<g id="node2" class="node">
<title>todo&#45;2</title>
<polygon fill="none" stroke="black" points="175.32,-338.38 175.32,-374.38 229.32,-374.38 229.32,-338.38 175.32,-338.38"/>
<text text-anchor="middle" x="202.19" y="-350.96" font-family="Times New Roman,serif" font-size="14.00">0</text>
</g>
<!-- 86 -->
<g id="node3" class="node">
<title>86</title>
<ellipse fill="none" stroke="black" cx="116.32" cy="-247.06" rx="62.23" ry="39.07"/>
<text text-anchor="middle" x="116.32" y="-257.39" font-family="Times New Roman,serif" font-size="14.00">Literal: </text>
<text text-anchor="middle" x="116.32" y="-241.64" font-family="Times New Roman,serif" font-size="14.00">.0@4</text>
<text text-anchor="middle" x="116.32" y="-225.89" font-family="Times New Roman,serif" font-size="14.00">in: &#39;End &#45;&gt; $&#39;</text>
</g>
<!-- todo&#45;2&#45;&gt;86 -->
<g id="edge3" class="edge">
<title>todo&#45;2:sw&#45;&gt;86</title>
<path fill="none" stroke="black" d="M175.32,-337.88C162.55,-325.11 151,-309.16 141.58,-294.25"/>
<polygon fill="black" stroke="black" points="144.7,-292.65 136.49,-285.95 138.73,-296.3 144.7,-292.65"/>
<text text-anchor="middle" x="174.07" y="-306.58" font-family="Times New Roman,serif" font-size="14.00">Stack</text>
</g>
<!-- 412375354 -->
<g id="node6" class="node">
<title>412375354</title>
<polygon fill="none" stroke="black" points="301.89,-239.61 301.89,-254.52 271.09,-265.06 227.54,-265.06 196.75,-254.52 196.75,-239.61 227.54,-229.06 271.09,-229.06 301.89,-239.61"/>
<text text-anchor="middle" x="249.32" y="-241.64" font-family="Times New Roman,serif" font-size="14.00">Literal &quot;$&quot;</text>
</g>
<!-- todo&#45;2&#45;&gt;412375354 -->
<g id="edge4" class="edge">
<title>todo&#45;2:se&#45;&gt;412375354</title>
<path fill="none" stroke="black" d="M229.07,-337.88C244.89,-322.06 249.46,-296.7 250.36,-276.95"/>
<polygon fill="black" stroke="black" points="253.86,-277.07 250.49,-267.03 246.86,-276.98 253.86,-277.07"/>
<text text-anchor="middle" x="261.69" y="-306.58" font-family="Times New Roman,serif" font-size="14.00">Node</text>
</g>
<!-- 37 -->
<g id="node4" class="node">
<title>37</title>
<ellipse fill="none" stroke="black" cx="116.32" cy="-131.93" rx="116.32" ry="39.07"/>
<text text-anchor="middle" x="116.32" y="-142.25" font-family="Times New Roman,serif" font-size="14.00">NonTerminal: End</text>
<text text-anchor="middle" x="116.32" y="-126.5" font-family="Times New Roman,serif" font-size="14.00">.2@4</text>
<text text-anchor="middle" x="116.32" y="-110.75" font-family="Times New Roman,serif" font-size="14.00">in: &#39;S &#45;&gt; ABC Layout End&#39;</text>
</g>
<!-- 86&#45;&gt;37 -->
<g id="edge2" class="edge">
<title>86&#45;&gt;37</title>
<path fill="none" stroke="black" d="M116.32,-207.76C116.32,-199.65 116.32,-190.98 116.32,-182.52"/>
<polygon fill="black" stroke="black" points="119.82,-182.71 116.32,-172.71 112.82,-182.71 119.82,-182.71"/>
</g>
<!-- &#45;1 -->
<g id="node5" class="node">
<title>&#45;1</title>
<ellipse fill="none" stroke="black" cx="116.32" cy="-27.93" rx="73.36" ry="27.93"/>
<text text-anchor="middle" x="116.32" y="-30.38" font-family="Times New Roman,serif" font-size="14.00">NonTerminal: S</text>
<text text-anchor="middle" x="116.32" y="-14.63" font-family="Times New Roman,serif" font-size="14.00">.0@&#45;1</text>
</g>
<!-- 37&#45;&gt;&#45;1 -->
<g id="edge1" class="edge">
<title>37&#45;&gt;&#45;1</title>
<path fill="none" stroke="black" d="M116.32,-92.37C116.32,-84.26 116.32,-75.7 116.32,-67.58"/>
<polygon fill="black" stroke="black" points="119.82,-67.63 116.32,-57.63 112.82,-67.63 119.82,-67.63"/>
</g>
<!-- todoLists&#45;&gt;todo&#45;2 -->
<g id="edge5" class="edge">
<title>todoLists:2&#45;&gt;todo&#45;2</title>
<path fill="none" stroke="black" d="M201.69,-426.63C201.69,-413.24 201.81,-398.39 201.95,-385.89"/>
<polygon fill="black" stroke="black" points="205.44,-386.3 202.06,-376.26 198.44,-386.21 205.44,-386.3"/>
</g>
<!-- unexpandableNodes -->
<g id="node11" class="node">
<title>unexpandableNodes</title>
<polygon fill="none" stroke="black" points="896.32,-338.38 896.32,-374.38 950.32,-374.38 950.32,-338.38 896.32,-338.38"/>
<text text-anchor="middle" x="923.19" y="-350.96" font-family="Times New Roman,serif" font-size="14.00"> </text>
</g>
<!-- 78 -->
<g id="node12" class="node">
<title>78</title>
<ellipse fill="none" stroke="black" cx="1023.32" cy="-247.06" rx="35.71" ry="27.93"/>
<text text-anchor="middle" x="1023.32" y="-249.51" font-family="Times New Roman,serif" font-size="14.00">Char: </text>
<text text-anchor="middle" x="1023.32" y="-233.76" font-family="Times New Roman,serif" font-size="14.00">.0@&#45;1</text>
</g>
<!-- unmatchableLeafNodes -->
<g id="node13" class="node">
<title>unmatchableLeafNodes</title>
<polygon fill="none" stroke="black" points="996.32,-338.38 996.32,-374.38 1050.32,-374.38 1050.32,-338.38 996.32,-338.38"/>
<text text-anchor="middle" x="1023.19" y="-350.96" font-family="Times New Roman,serif" font-size="14.00">0</text>
</g>
<!-- unmatchableLeafNodes&#45;&gt;78 -->
<g id="edge10" class="edge">
<title>unmatchableLeafNodes:0&#45;&gt;78</title>
<path fill="none" stroke="black" d="M1023.22,-338.01C1023.23,-323.95 1023.25,-304.06 1023.27,-286.56"/>
<polygon fill="black" stroke="black" points="1026.77,-287.01 1023.29,-277 1019.77,-287 1026.77,-287.01"/>
</g>
<!-- unmatchableMidProductionNodes -->
<g id="node14" class="node">
<title>unmatchableMidProductionNodes</title>
<polygon fill="none" stroke="black" points="1118.32,-338.38 1118.32,-374.38 1172.32,-374.38 1172.32,-338.38 1118.32,-338.38"/>
<text text-anchor="middle" x="1145.19" y="-350.96" font-family="Times New Roman,serif" font-size="14.00"> </text>
</g>
<!-- filteredNodes -->
<g id="node15" class="node">
<title>filteredNodes</title>
<polygon fill="none" stroke="black" points="1267.32,-338.38 1267.32,-374.38 1321.32,-374.38 1321.32,-338.38 1267.32,-338.38"/>
<text text-anchor="middle" x="1294.19" y="-350.96" font-family="Times New Roman,serif" font-size="14.00"> </text>
</g>
<!-- error&#45;&gt;unexpandableNodes -->
<g id="edge12" class="edge">
<title>error&#45;&gt;unexpandableNodes</title>
<path fill="none" stroke="black" d="M1051.19,-439.9C1013.42,-434.43 954.82,-423.78 938.82,-408.63 932.51,-402.66 928.74,-394.21 926.5,-385.89"/>
<polygon fill="black" stroke="black" points="929.99,-385.48 924.59,-376.36 923.12,-386.85 929.99,-385.48"/>
<text text-anchor="middle" x="977.57" y="-395.33" font-family="Times New Roman,serif" font-size="14.00">unexpandable</text>
</g>
<!-- error&#45;&gt;unmatchableLeafNodes -->
<g id="edge13" class="edge">
<title>error&#45;&gt;unmatchableLeafNodes</title>
<path fill="none" stroke="black" d="M1056.15,-434.63C1044.15,-429.04 1031.33,-420.66 1024.32,-408.63 1020.39,-401.89 1019.03,-393.76 1018.95,-385.98"/>
<polygon fill="black" stroke="black" points="1022.43,-386.37 1019.54,-376.17 1015.44,-385.95 1022.43,-386.37"/>
<text text-anchor="middle" x="1073.82" y="-395.33" font-family="Times New Roman,serif" font-size="14.00">unmatchable leafs</text>
</g>
<!-- error&#45;&gt;unmatchableMidProductionNodes -->
<g id="edge14" class="edge">
<title>error&#45;&gt;unmatchableMidProductionNodes</title>
<path fill="none" stroke="black" d="M1103,-429.99C1110.03,-423.98 1117.69,-416.54 1123.32,-408.63 1128.36,-401.56 1132.57,-393.15 1135.91,-385.2"/>
<polygon fill="black" stroke="black" points="1139.17,-386.48 1139.51,-375.89 1132.64,-383.96 1139.17,-386.48"/>
<text text-anchor="middle" x="1194.32" y="-395.33" font-family="Times New Roman,serif" font-size="14.00">unmatchable mid&#45;prod</text>
</g>
<!-- error&#45;&gt;filteredNodes -->
<g id="edge15" class="edge">
<title>error&#45;&gt;filteredNodes</title>
<path fill="none" stroke="black" d="M1118.63,-444.92C1156.67,-444.16 1218.33,-437.94 1261.32,-408.63 1269.99,-402.72 1276.9,-393.7 1282.1,-384.86"/>
<polygon fill="black" stroke="black" points="1285.15,-386.58 1286.73,-376.11 1278.96,-383.31 1285.15,-386.58"/>
<text text-anchor="middle" x="1295.44" y="-395.33" font-family="Times New Roman,serif" font-size="14.00">filtered</text>
</g>
</g>
</svg>
