<?xml version="1.0" encoding="UTF-8" standalone="no"?>
<!DOCTYPE svg PUBLIC "-//W3C//DTD SVG 1.1//EN"
 "http://www.w3.org/Graphics/SVG/1.1/DTD/svg11.dtd">
<!-- Generated by graphviz version 12.0.0 (20240704.0754)
 -->
<!-- Title: Parser Pages: 1 -->
<svg width="1352pt" height="624pt"
 viewBox="0.00 0.00 1352.32 623.79" xmlns="http://www.w3.org/2000/svg" xmlns:xlink="http://www.w3.org/1999/xlink">
<g id="graph0" class="graph" transform="scale(1 1) rotate(0) translate(4 619.79)">
<title>Parser</title>
<polygon fill="white" stroke="none" points="-4,4 -4,-619.79 1348.32,-619.79 1348.32,4 -4,4"/>
<!-- Parser -->
<g id="node1" class="node">
<title>Parser</title>
<ellipse fill="none" stroke="black" cx="824.32" cy="-565.59" rx="135.41" ry="50.2"/>
<text text-anchor="middle" x="824.32" y="-583.79" font-family="Times New Roman,serif" font-size="14.00">Parser</text>
<text text-anchor="middle" x="824.32" y="-568.04" font-family="Times New Roman,serif" font-size="14.00">Input: &quot;a x $&quot;</text>
<text text-anchor="middle" x="824.32" y="-552.29" font-family="Times New Roman,serif" font-size="14.00">Location: 4 (&#39;$&#39;)</text>
<text text-anchor="middle" x="824.32" y="-536.54" font-family="Times New Roman,serif" font-size="14.00">Step 31: Found stack to reduce</text>
</g>
<!-- todoLists -->
<g id="node7" class="node">
<title>todoLists</title>
<polygon fill="none" stroke="black" points="167.82,-427.13 167.82,-463.13 660.82,-463.13 660.82,-427.13 167.82,-427.13"/>
<text text-anchor="middle" x="179.19" y="-439.71" font-family="Times New Roman,serif" font-size="14.00">0</text>
<polyline fill="none" stroke="black" points="190.57,-427.13 190.57,-463.13"/>
<text text-anchor="middle" x="201.94" y="-439.71" font-family="Times New Roman,serif" font-size="14.00">1</text>
<polyline fill="none" stroke="black" points="213.32,-427.13 213.32,-463.13"/>
<text text-anchor="middle" x="224.69" y="-439.71" font-family="Times New Roman,serif" font-size="14.00">2</text>
<polyline fill="none" stroke="black" points="236.07,-427.13 236.07,-463.13"/>
<text text-anchor="middle" x="247.44" y="-439.71" font-family="Times New Roman,serif" font-size="14.00">3</text>
<polyline fill="none" stroke="black" points="258.82,-427.13 258.82,-463.13"/>
<text text-anchor="middle" x="270.19" y="-439.71" font-family="Times New Roman,serif" font-size="14.00">4</text>
<polyline fill="none" stroke="black" points="281.57,-427.13 281.57,-463.13"/>
<text text-anchor="middle" x="292.94" y="-439.71" font-family="Times New Roman,serif" font-size="14.00">5</text>
<polyline fill="none" stroke="black" points="304.32,-427.13 304.32,-463.13"/>
<text text-anchor="middle" x="315.69" y="-439.71" font-family="Times New Roman,serif" font-size="14.00">6</text>
<polyline fill="none" stroke="black" points="327.07,-427.13 327.07,-463.13"/>
<text text-anchor="middle" x="338.44" y="-439.71" font-family="Times New Roman,serif" font-size="14.00">7</text>
<polyline fill="none" stroke="black" points="349.82,-427.13 349.82,-463.13"/>
<text text-anchor="middle" x="361.19" y="-439.71" font-family="Times New Roman,serif" font-size="14.00">8</text>
<polyline fill="none" stroke="black" points="372.57,-427.13 372.57,-463.13"/>
<text text-anchor="middle" x="383.94" y="-439.71" font-family="Times New Roman,serif" font-size="14.00">9</text>
<polyline fill="none" stroke="black" points="395.32,-427.13 395.32,-463.13"/>
<text text-anchor="middle" x="410.07" y="-439.71" font-family="Times New Roman,serif" font-size="14.00">10</text>
<polyline fill="none" stroke="black" points="424.82,-427.13 424.82,-463.13"/>
<text text-anchor="middle" x="439.57" y="-439.71" font-family="Times New Roman,serif" font-size="14.00">11</text>
<polyline fill="none" stroke="black" points="454.32,-427.13 454.32,-463.13"/>
<text text-anchor="middle" x="469.07" y="-439.71" font-family="Times New Roman,serif" font-size="14.00">12</text>
<polyline fill="none" stroke="black" points="483.82,-427.13 483.82,-463.13"/>
<text text-anchor="middle" x="498.57" y="-439.71" font-family="Times New Roman,serif" font-size="14.00">13</text>
<polyline fill="none" stroke="black" points="513.32,-427.13 513.32,-463.13"/>
<text text-anchor="middle" x="528.07" y="-439.71" font-family="Times New Roman,serif" font-size="14.00">14</text>
<polyline fill="none" stroke="black" points="542.82,-427.13 542.82,-463.13"/>
<text text-anchor="middle" x="557.57" y="-439.71" font-family="Times New Roman,serif" font-size="14.00">15</text>
<polyline fill="none" stroke="black" points="572.32,-427.13 572.32,-463.13"/>
<text text-anchor="middle" x="587.07" y="-439.71" font-family="Times New Roman,serif" font-size="14.00">16</text>
<polyline fill="none" stroke="black" points="601.82,-427.13 601.82,-463.13"/>
<text text-anchor="middle" x="616.57" y="-439.71" font-family="Times New Roman,serif" font-size="14.00">17</text>
<polyline fill="none" stroke="black" points="631.32,-427.13 631.32,-463.13"/>
<text text-anchor="middle" x="646.07" y="-439.71" font-family="Times New Roman,serif" font-size="14.00">18</text>
</g>
<!-- Parser&#45;&gt;todoLists -->
<g id="edge6" class="edge">
<title>Parser&#45;&gt;todoLists</title>
<path fill="none" stroke="black" d="M718.2,-533.93C645.08,-512.8 549.89,-485.3 485.69,-466.75"/>
<polygon fill="black" stroke="black" points="486.9,-463.46 476.32,-464.05 484.96,-470.18 486.9,-463.46"/>
<text text-anchor="middle" x="609.19" y="-484.08" font-family="Times New Roman,serif" font-size="14.00">todo lists</text>
</g>
<!-- stacksToExpand -->
<g id="node8" class="node">
<title>stacksToExpand</title>
<polygon fill="none" stroke="black" points="679.32,-427.13 679.32,-463.13 733.32,-463.13 733.32,-427.13 679.32,-427.13"/>
<text text-anchor="middle" x="706.19" y="-439.71" font-family="Times New Roman,serif" font-size="14.00"> </text>
</g>
<!-- Parser&#45;&gt;stacksToExpand -->
<g id="edge7" class="edge">
<title>Parser&#45;&gt;stacksToExpand</title>
<path fill="none" stroke="black" d="M752.04,-523.09C742.38,-515.42 733.25,-506.81 725.82,-497.38 720.53,-490.68 716.55,-482.38 713.62,-474.42"/>
<polygon fill="black" stroke="black" points="717,-473.5 710.6,-465.05 710.33,-475.64 717,-473.5"/>
<text text-anchor="middle" x="773.57" y="-484.08" font-family="Times New Roman,serif" font-size="14.00">stacks to expand</text>
</g>
<!-- terminalsToReduce -->
<g id="node9" class="node">
<title>terminalsToReduce</title>
<polygon fill="none" stroke="black" points="797.32,-427.13 797.32,-463.13 851.32,-463.13 851.32,-427.13 797.32,-427.13"/>
<text text-anchor="middle" x="824.19" y="-439.71" font-family="Times New Roman,serif" font-size="14.00"> </text>
</g>
<!-- Parser&#45;&gt;terminalsToReduce -->
<g id="edge8" class="edge">
<title>Parser&#45;&gt;terminalsToReduce</title>
<path fill="none" stroke="black" d="M824.32,-515.04C824.32,-501.25 824.32,-486.74 824.32,-474.61"/>
<polygon fill="black" stroke="black" points="827.82,-474.91 824.32,-464.91 820.82,-474.91 827.82,-474.91"/>
<text text-anchor="middle" x="877.19" y="-484.08" font-family="Times New Roman,serif" font-size="14.00">terminals to reduce</text>
</g>
<!-- nonTerminalsToReduce -->
<g id="node10" class="node">
<title>nonTerminalsToReduce</title>
<polygon fill="none" stroke="black" points="926.32,-427.13 926.32,-463.13 980.32,-463.13 980.32,-427.13 926.32,-427.13"/>
<text text-anchor="middle" x="953.19" y="-439.71" font-family="Times New Roman,serif" font-size="14.00"> </text>
</g>
<!-- Parser&#45;&gt;nonTerminalsToReduce -->
<g id="edge9" class="edge">
<title>Parser&#45;&gt;nonTerminalsToReduce</title>
<path fill="none" stroke="black" d="M901.67,-524.12C912.51,-516.24 922.83,-507.3 931.32,-497.38 937.12,-490.6 941.59,-482.07 944.94,-473.92"/>
<polygon fill="black" stroke="black" points="948.18,-475.26 948.32,-464.66 941.61,-472.86 948.18,-475.26"/>
<text text-anchor="middle" x="1006.94" y="-484.08" font-family="Times New Roman,serif" font-size="14.00">non&#45;terminals to reduce</text>
</g>
<!-- error -->
<g id="node16" class="node">
<title>error</title>
<ellipse fill="none" stroke="black" cx="1107.32" cy="-445.13" rx="34.1" ry="18"/>
<text text-anchor="middle" x="1107.32" y="-439.71" font-family="Times New Roman,serif" font-size="14.00">Errors</text>
</g>
<!-- Parser&#45;&gt;error -->
<g id="edge11" class="edge">
<title>Parser&#45;&gt;error</title>
<path fill="none" stroke="black" d="M953.24,-549.82C995.58,-540.1 1040.83,-524.01 1076.32,-497.38 1084.57,-491.19 1091.08,-482.1 1095.96,-473.3"/>
<polygon fill="black" stroke="black" points="1098.95,-475.14 1100.27,-464.63 1092.69,-472.02 1098.95,-475.14"/>
<text text-anchor="middle" x="1127.82" y="-484.08" font-family="Times New Roman,serif" font-size="14.00">error tracking</text>
</g>
<!-- todo&#45;1 -->
<g id="node2" class="node">
<title>todo&#45;1</title>
<polygon fill="none" stroke="red" points="175.32,-338.38 175.32,-374.38 229.32,-374.38 229.32,-338.38 175.32,-338.38"/>
<text text-anchor="middle" x="202.19" y="-350.96" font-family="Times New Roman,serif" font-size="14.00">0</text>
</g>
<!-- 86 -->
<g id="node3" class="node">
<title>86</title>
<ellipse fill="none" stroke="black" cx="116.32" cy="-247.06" rx="62.23" ry="39.07"/>
<text text-anchor="middle" x="116.32" y="-257.39" font-family="Times New Roman,serif" font-size="14.00">Literal: </text>
<text text-anchor="middle" x="116.32" y="-241.64" font-family="Times New Roman,serif" font-size="14.00">.0@4</text>
<text text-anchor="middle" x="116.32" y="-225.89" font-family="Times New Roman,serif" font-size="14.00">in: &#39;End &#45;&gt; $&#39;</text>
</g>
<!-- todo&#45;1&#45;&gt;86 -->
<g id="edge3" class="edge">
<title>todo&#45;1:sw&#45;&gt;86</title>
<path fill="none" stroke="black" d="M175.32,-337.88C162.55,-325.11 151,-309.16 141.58,-294.25"/>
<polygon fill="black" stroke="black" points="144.7,-292.65 136.49,-285.95 138.73,-296.3 144.7,-292.65"/>
<text text-anchor="middle" x="174.07" y="-306.58" font-family="Times New Roman,serif" font-size="14.00">Stack</text>
</g>
<!-- 412375354 -->
<g id="node6" class="node">
<title>412375354</title>
<polygon fill="none" stroke="black" points="301.89,-239.61 301.89,-254.52 271.09,-265.06 227.54,-265.06 196.75,-254.52 196.75,-239.61 227.54,-229.06 271.09,-229.06 301.89,-239.61"/>
<text text-anchor="middle" x="249.32" y="-241.64" font-family="Times New Roman,serif" font-size="14.00">Literal &quot;$&quot;</text>
</g>
<!-- todo&#45;1&#45;&gt;412375354 -->
<g id="edge4" class="edge">
<title>todo&#45;1:se&#45;&gt;412375354</title>
<path fill="none" stroke="black" d="M229.07,-337.88C244.89,-322.06 249.46,-296.7 250.36,-276.95"/>
<polygon fill="black" stroke="black" points="253.86,-277.07 250.49,-267.03 246.86,-276.98 253.86,-277.07"/>
<text text-anchor="middle" x="261.69" y="-306.58" font-family="Times New Roman,serif" font-size="14.00">Node</text>
</g>
<!-- 37 -->
<g id="node4" class="node">
<title>37</title>
<ellipse fill="none" stroke="black" cx="116.32" cy="-131.93" rx="116.32" ry="39.07"/>
<text text-anchor="middle" x="116.32" y="-142.25" font-family="Times New Roman,serif" font-size="14.00">NonTerminal: End</text>
<text text-anchor="middle" x="116.32" y="-126.5" font-family="Times New Roman,serif" font-size="14.00">.2@4</text>
<text text-anchor="middle" x="116.32" y="-110.75" font-family="Times New Roman,serif" font-size="14.00">in: &#39;S &#45;&gt; ABC Layout End&#39;</text>
</g>
<!-- 86&#45;&gt;37 -->
<g id="edge2" class="edge">
<title>86&#45;&gt;37</title>
<path fill="none" stroke="black" d="M116.32,-207.76C116.32,-199.65 116.32,-190.98 116.32,-182.52"/>
<polygon fill="black" stroke="black" points="119.82,-182.71 116.32,-172.71 112.82,-182.71 119.82,-182.71"/>
</g>
<!-- &#45;1 -->
<g id="node5" class="node">
<title>&#45;1</title>
<ellipse fill="none" stroke="black" cx="116.32" cy="-27.93" rx="73.36" ry="27.93"/>
<text text-anchor="middle" x="116.32" y="-30.38" font-family="Times New Roman,serif" font-size="14.00">NonTerminal: S</text>
<text text-anchor="middle" x="116.32" y="-14.63" font-family="Times New Roman,serif" font-size="14.00">.0@&#45;1</text>
</g>
<!-- 37&#45;&gt;&#45;1 -->
<g id="edge1" class="edge">
<title>37&#45;&gt;&#45;1</title>
<path fill="none" stroke="black" d="M116.32,-92.37C116.32,-84.26 116.32,-75.7 116.32,-67.58"/>
<polygon fill="black" stroke="black" points="119.82,-67.63 116.32,-57.63 112.82,-67.63 119.82,-67.63"/>
</g>
<!-- todoLists&#45;&gt;todo&#45;1 -->
<g id="edge5" class="edge">
<title>todoLists:1&#45;&gt;todo&#45;1</title>
<path fill="none" stroke="black" d="M201.94,-426.63C201.94,-413.24 202.02,-398.39 202.1,-385.89"/>
<polygon fill="black" stroke="black" points="205.59,-386.28 202.16,-376.26 198.59,-386.23 205.59,-386.28"/>
</g>
<!-- unexpandableNodes -->
<g id="node11" class="node">
<title>unexpandableNodes</title>
<polygon fill="none" stroke="black" points="919.32,-338.38 919.32,-374.38 973.32,-374.38 973.32,-338.38 919.32,-338.38"/>
<text text-anchor="middle" x="946.19" y="-350.96" font-family="Times New Roman,serif" font-size="14.00"> </text>
</g>
<!-- 78 -->
<g id="node12" class="node">
<title>78</title>
<ellipse fill="none" stroke="black" cx="1046.32" cy="-247.06" rx="35.71" ry="27.93"/>
<text text-anchor="middle" x="1046.32" y="-249.51" font-family="Times New Roman,serif" font-size="14.00">Char: </text>
<text text-anchor="middle" x="1046.32" y="-233.76" font-family="Times New Roman,serif" font-size="14.00">.0@&#45;1</text>
</g>
<!-- unmatchableLeafNodes -->
<g id="node13" class="node">
<title>unmatchableLeafNodes</title>
<polygon fill="none" stroke="black" points="1019.32,-338.38 1019.32,-374.38 1073.32,-374.38 1073.32,-338.38 1019.32,-338.38"/>
<text text-anchor="middle" x="1046.19" y="-350.96" font-family="Times New Roman,serif" font-size="14.00">0</text>
</g>
<!-- unmatchableLeafNodes&#45;&gt;78 -->
<g id="edge10" class="edge">
<title>unmatchableLeafNodes:0&#45;&gt;78</title>
<path fill="none" stroke="black" d="M1046.22,-338.01C1046.23,-323.95 1046.25,-304.06 1046.27,-286.56"/>
<polygon fill="black" stroke="black" points="1049.77,-287.01 1046.29,-277 1042.77,-287 1049.77,-287.01"/>
</g>
<!-- unmatchableMidProductionNodes -->
<g id="node14" class="node">
<title>unmatchableMidProductionNodes</title>
<polygon fill="none" stroke="black" points="1141.32,-338.38 1141.32,-374.38 1195.32,-374.38 1195.32,-338.38 1141.32,-338.38"/>
<text text-anchor="middle" x="1168.19" y="-350.96" font-family="Times New Roman,serif" font-size="14.00"> </text>
</g>
<!-- filteredNodes -->
<g id="node15" class="node">
<title>filteredNodes</title>
<polygon fill="none" stroke="black" points="1290.32,-338.38 1290.32,-374.38 1344.32,-374.38 1344.32,-338.38 1290.32,-338.38"/>
<text text-anchor="middle" x="1317.19" y="-350.96" font-family="Times New Roman,serif" font-size="14.00"> </text>
</g>
<!-- error&#45;&gt;unexpandableNodes -->
<g id="edge12" class="edge">
<title>error&#45;&gt;unexpandableNodes</title>
<path fill="none" stroke="black" d="M1074.19,-439.9C1036.42,-434.43 977.82,-423.78 961.82,-408.63 955.51,-402.66 951.74,-394.21 949.5,-385.89"/>
<polygon fill="black" stroke="black" points="952.99,-385.48 947.59,-376.36 946.12,-386.85 952.99,-385.48"/>
<text text-anchor="middle" x="1000.57" y="-395.33" font-family="Times New Roman,serif" font-size="14.00">unexpandable</text>
</g>
<!-- error&#45;&gt;unmatchableLeafNodes -->
<g id="edge13" class="edge">
<title>error&#45;&gt;unmatchableLeafNodes</title>
<path fill="none" stroke="black" d="M1079.15,-434.63C1067.15,-429.04 1054.33,-420.66 1047.32,-408.63 1043.39,-401.89 1042.03,-393.76 1041.95,-385.98"/>
<polygon fill="black" stroke="black" points="1045.43,-386.37 1042.54,-376.17 1038.44,-385.95 1045.43,-386.37"/>
<text text-anchor="middle" x="1096.82" y="-395.33" font-family="Times New Roman,serif" font-size="14.00">unmatchable leafs</text>
</g>
<!-- error&#45;&gt;unmatchableMidProductionNodes -->
<g id="edge14" class="edge">
<title>error&#45;&gt;unmatchableMidProductionNodes</title>
<path fill="none" stroke="black" d="M1126,-429.99C1133.03,-423.98 1140.69,-416.54 1146.32,-408.63 1151.36,-401.56 1155.57,-393.15 1158.91,-385.2"/>
<polygon fill="black" stroke="black" points="1162.17,-386.48 1162.51,-375.89 1155.64,-383.96 1162.17,-386.48"/>
<text text-anchor="middle" x="1217.32" y="-395.33" font-family="Times New Roman,serif" font-size="14.00">unmatchable mid&#45;prod</text>
</g>
<!-- error&#45;&gt;filteredNodes -->
<g id="edge15" class="edge">
<title>error&#45;&gt;filteredNodes</title>
<path fill="none" stroke="black" d="M1141.63,-444.92C1179.67,-444.16 1241.33,-437.94 1284.32,-408.63 1292.99,-402.72 1299.9,-393.7 1305.1,-384.86"/>
<polygon fill="black" stroke="black" points="1308.15,-386.58 1309.73,-376.11 1301.96,-383.31 1308.15,-386.58"/>
<text text-anchor="middle" x="1318.44" y="-395.33" font-family="Times New Roman,serif" font-size="14.00">filtered</text>
</g>
</g>
</svg>
