<?xml version="1.0" encoding="UTF-8" standalone="no"?>
<!DOCTYPE svg PUBLIC "-//W3C//DTD SVG 1.1//EN"
 "http://www.w3.org/Graphics/SVG/1.1/DTD/svg11.dtd">
<!-- Generated by graphviz version 12.0.0 (20240704.0754)
 -->
<!-- Title: Parser Pages: 1 -->
<svg width="1153pt" height="624pt"
 viewBox="0.00 0.00 1152.50 623.79" xmlns="http://www.w3.org/2000/svg" xmlns:xlink="http://www.w3.org/1999/xlink">
<g id="graph0" class="graph" transform="scale(1 1) rotate(0) translate(4 619.79)">
<title>Parser</title>
<polygon fill="white" stroke="none" points="-4,4 -4,-619.79 1148.5,-619.79 1148.5,4 -4,4"/>
<!-- Parser -->
<g id="node1" class="node">
<title>Parser</title>
<ellipse fill="none" stroke="black" cx="657.5" cy="-565.59" rx="121.62" ry="50.2"/>
<text text-anchor="middle" x="657.5" y="-583.79" font-family="Times New Roman,serif" font-size="14.00">Parser</text>
<text text-anchor="middle" x="657.5" y="-568.04" font-family="Times New Roman,serif" font-size="14.00">Input: &quot;a x $&quot;</text>
<text text-anchor="middle" x="657.5" y="-552.29" font-family="Times New Roman,serif" font-size="14.00">Location: 5 (&#39;$&#39;)</text>
<text text-anchor="middle" x="657.5" y="-536.54" font-family="Times New Roman,serif" font-size="14.00">Step 32: Reducing terminals</text>
</g>
<!-- todoLists -->
<g id="node7" class="node">
<title>todoLists</title>
<polygon fill="none" stroke="black" points="0,-427.13 0,-463.13 493,-463.13 493,-427.13 0,-427.13"/>
<text text-anchor="middle" x="11.38" y="-439.71" font-family="Times New Roman,serif" font-size="14.00">0</text>
<polyline fill="none" stroke="black" points="22.75,-427.13 22.75,-463.13"/>
<text text-anchor="middle" x="34.12" y="-439.71" font-family="Times New Roman,serif" font-size="14.00">1</text>
<polyline fill="none" stroke="black" points="45.5,-427.13 45.5,-463.13"/>
<text text-anchor="middle" x="56.88" y="-439.71" font-family="Times New Roman,serif" font-size="14.00">2</text>
<polyline fill="none" stroke="black" points="68.25,-427.13 68.25,-463.13"/>
<text text-anchor="middle" x="79.62" y="-439.71" font-family="Times New Roman,serif" font-size="14.00">3</text>
<polyline fill="none" stroke="black" points="91,-427.13 91,-463.13"/>
<text text-anchor="middle" x="102.38" y="-439.71" font-family="Times New Roman,serif" font-size="14.00">4</text>
<polyline fill="none" stroke="black" points="113.75,-427.13 113.75,-463.13"/>
<text text-anchor="middle" x="125.12" y="-439.71" font-family="Times New Roman,serif" font-size="14.00">5</text>
<polyline fill="none" stroke="black" points="136.5,-427.13 136.5,-463.13"/>
<text text-anchor="middle" x="147.88" y="-439.71" font-family="Times New Roman,serif" font-size="14.00">6</text>
<polyline fill="none" stroke="black" points="159.25,-427.13 159.25,-463.13"/>
<text text-anchor="middle" x="170.62" y="-439.71" font-family="Times New Roman,serif" font-size="14.00">7</text>
<polyline fill="none" stroke="black" points="182,-427.13 182,-463.13"/>
<text text-anchor="middle" x="193.38" y="-439.71" font-family="Times New Roman,serif" font-size="14.00">8</text>
<polyline fill="none" stroke="black" points="204.75,-427.13 204.75,-463.13"/>
<text text-anchor="middle" x="216.12" y="-439.71" font-family="Times New Roman,serif" font-size="14.00">9</text>
<polyline fill="none" stroke="black" points="227.5,-427.13 227.5,-463.13"/>
<text text-anchor="middle" x="242.25" y="-439.71" font-family="Times New Roman,serif" font-size="14.00">10</text>
<polyline fill="none" stroke="black" points="257,-427.13 257,-463.13"/>
<text text-anchor="middle" x="271.75" y="-439.71" font-family="Times New Roman,serif" font-size="14.00">11</text>
<polyline fill="none" stroke="black" points="286.5,-427.13 286.5,-463.13"/>
<text text-anchor="middle" x="301.25" y="-439.71" font-family="Times New Roman,serif" font-size="14.00">12</text>
<polyline fill="none" stroke="black" points="316,-427.13 316,-463.13"/>
<text text-anchor="middle" x="330.75" y="-439.71" font-family="Times New Roman,serif" font-size="14.00">13</text>
<polyline fill="none" stroke="black" points="345.5,-427.13 345.5,-463.13"/>
<text text-anchor="middle" x="360.25" y="-439.71" font-family="Times New Roman,serif" font-size="14.00">14</text>
<polyline fill="none" stroke="black" points="375,-427.13 375,-463.13"/>
<text text-anchor="middle" x="389.75" y="-439.71" font-family="Times New Roman,serif" font-size="14.00">15</text>
<polyline fill="none" stroke="black" points="404.5,-427.13 404.5,-463.13"/>
<text text-anchor="middle" x="419.25" y="-439.71" font-family="Times New Roman,serif" font-size="14.00">16</text>
<polyline fill="none" stroke="black" points="434,-427.13 434,-463.13"/>
<text text-anchor="middle" x="448.75" y="-439.71" font-family="Times New Roman,serif" font-size="14.00">17</text>
<polyline fill="none" stroke="black" points="463.5,-427.13 463.5,-463.13"/>
<text text-anchor="middle" x="478.25" y="-439.71" font-family="Times New Roman,serif" font-size="14.00">18</text>
</g>
<!-- Parser&#45;&gt;todoLists -->
<g id="edge6" class="edge">
<title>Parser&#45;&gt;todoLists</title>
<path fill="none" stroke="black" d="M558.53,-536.06C484.28,-514.66 384.38,-485.87 317.83,-466.69"/>
<polygon fill="black" stroke="black" points="319.07,-463.41 308.49,-464 317.13,-470.13 319.07,-463.41"/>
<text text-anchor="middle" x="441.38" y="-484.08" font-family="Times New Roman,serif" font-size="14.00">todo lists</text>
</g>
<!-- stacksToExpand -->
<g id="node8" class="node">
<title>stacksToExpand</title>
<polygon fill="none" stroke="black" points="653.5,-427.13 653.5,-463.13 707.5,-463.13 707.5,-427.13 653.5,-427.13"/>
<text text-anchor="middle" x="680.38" y="-439.71" font-family="Times New Roman,serif" font-size="14.00"> </text>
</g>
<!-- Parser&#45;&gt;stacksToExpand -->
<g id="edge7" class="edge">
<title>Parser&#45;&gt;stacksToExpand</title>
<path fill="none" stroke="black" d="M654.16,-515.26C654.56,-504.04 655.92,-492.29 659,-481.63 659.81,-478.85 660.89,-476.06 662.14,-473.34"/>
<polygon fill="black" stroke="black" points="665.16,-475.12 666.88,-464.66 659.01,-471.76 665.16,-475.12"/>
<text text-anchor="middle" x="706.75" y="-484.08" font-family="Times New Roman,serif" font-size="14.00">stacks to expand</text>
</g>
<!-- terminalsToReduce -->
<g id="node9" class="node">
<title>terminalsToReduce</title>
<polygon fill="none" stroke="red" points="406.5,-338.38 406.5,-374.38 460.5,-374.38 460.5,-338.38 406.5,-338.38"/>
<text text-anchor="middle" x="433.38" y="-350.96" font-family="Times New Roman,serif" font-size="14.00">0</text>
</g>
<!-- Parser&#45;&gt;terminalsToReduce -->
<g id="edge10" class="edge">
<title>Parser&#45;&gt;terminalsToReduce</title>
<path fill="none" stroke="black" d="M603.45,-520.31C582.86,-503.01 559.39,-482.76 538.75,-463.63 530.65,-456.12 486.8,-411.63 458.31,-382.66"/>
<polygon fill="black" stroke="black" points="460.94,-380.34 451.44,-375.66 455.95,-385.24 460.94,-380.34"/>
<text text-anchor="middle" x="592.38" y="-439.71" font-family="Times New Roman,serif" font-size="14.00">terminals to reduce</text>
</g>
<!-- nonTerminalsToReduce -->
<g id="node10" class="node">
<title>nonTerminalsToReduce</title>
<polygon fill="none" stroke="black" points="748.5,-427.13 748.5,-463.13 802.5,-463.13 802.5,-427.13 748.5,-427.13"/>
<text text-anchor="middle" x="775.38" y="-439.71" font-family="Times New Roman,serif" font-size="14.00"> </text>
</g>
<!-- Parser&#45;&gt;nonTerminalsToReduce -->
<g id="edge11" class="edge">
<title>Parser&#45;&gt;nonTerminalsToReduce</title>
<path fill="none" stroke="black" d="M726.12,-523.77C736.12,-515.87 745.67,-507.01 753.5,-497.38 759.04,-490.56 763.42,-482.14 766.76,-474.11"/>
<polygon fill="black" stroke="black" points="769.95,-475.59 770.16,-464.99 763.39,-473.14 769.95,-475.59"/>
<text text-anchor="middle" x="828.12" y="-484.08" font-family="Times New Roman,serif" font-size="14.00">non&#45;terminals to reduce</text>
</g>
<!-- error -->
<g id="node15" class="node">
<title>error</title>
<ellipse fill="none" stroke="black" cx="929.5" cy="-445.13" rx="34.1" ry="18"/>
<text text-anchor="middle" x="929.5" y="-439.71" font-family="Times New Roman,serif" font-size="14.00">Errors</text>
</g>
<!-- Parser&#45;&gt;error -->
<g id="edge12" class="edge">
<title>Parser&#45;&gt;error</title>
<path fill="none" stroke="black" d="M773.68,-549.96C815.79,-540.27 861.74,-524.16 897.5,-497.38 905.83,-491.15 912.51,-482.05 917.56,-473.24"/>
<polygon fill="black" stroke="black" points="920.56,-475.06 922.06,-464.57 914.35,-471.84 920.56,-475.06"/>
<text text-anchor="middle" x="949" y="-484.08" font-family="Times New Roman,serif" font-size="14.00">error tracking</text>
</g>
<!-- todo&#45;1 -->
<g id="node2" class="node">
<title>todo&#45;1</title>
<polygon fill="none" stroke="black" points="295.5,-338.38 295.5,-374.38 349.5,-374.38 349.5,-338.38 295.5,-338.38"/>
<text text-anchor="middle" x="322.38" y="-350.96" font-family="Times New Roman,serif" font-size="14.00">0</text>
</g>
<!-- 86 -->
<g id="node3" class="node">
<title>86</title>
<ellipse fill="none" stroke="black" cx="310.5" cy="-247.06" rx="62.23" ry="39.07"/>
<text text-anchor="middle" x="310.5" y="-257.39" font-family="Times New Roman,serif" font-size="14.00">Literal: </text>
<text text-anchor="middle" x="310.5" y="-241.64" font-family="Times New Roman,serif" font-size="14.00">.0@4</text>
<text text-anchor="middle" x="310.5" y="-225.89" font-family="Times New Roman,serif" font-size="14.00">in: &#39;End &#45;&gt; $&#39;</text>
</g>
<!-- todo&#45;1&#45;&gt;86 -->
<g id="edge3" class="edge">
<title>todo&#45;1:sw&#45;&gt;86</title>
<path fill="none" stroke="black" d="M295.5,-337.88C284.33,-326.71 284.16,-310.57 288.12,-295.05"/>
<polygon fill="black" stroke="black" points="291.33,-296.5 290.98,-285.91 284.65,-294.41 291.33,-296.5"/>
<text text-anchor="middle" x="302.25" y="-306.58" font-family="Times New Roman,serif" font-size="14.00">Stack</text>
</g>
<!-- 412375354 -->
<g id="node6" class="node">
<title>412375354</title>
<polygon fill="none" stroke="black" points="504.07,-239.61 504.07,-254.52 473.28,-265.06 429.72,-265.06 398.93,-254.52 398.93,-239.61 429.72,-229.06 473.28,-229.06 504.07,-239.61"/>
<text text-anchor="middle" x="451.5" y="-241.64" font-family="Times New Roman,serif" font-size="14.00">Literal &quot;$&quot;</text>
</g>
<!-- todo&#45;1&#45;&gt;412375354 -->
<g id="edge4" class="edge">
<title>todo&#45;1:se&#45;&gt;412375354</title>
<path fill="none" stroke="black" d="M349.25,-337.88C354.93,-332.21 348.08,-327.9 347.75,-319.88 347.46,-312.89 344.15,-310.13 347.75,-304.13 356.5,-289.55 366.53,-294.19 381.5,-286.13 391.91,-280.52 403.18,-274.42 413.57,-268.77"/>
<polygon fill="black" stroke="black" points="415.16,-271.89 422.27,-264.03 411.81,-265.74 415.16,-271.89"/>
<text text-anchor="middle" x="363.88" y="-306.58" font-family="Times New Roman,serif" font-size="14.00">Node</text>
</g>
<!-- 37 -->
<g id="node4" class="node">
<title>37</title>
<ellipse fill="none" stroke="black" cx="310.5" cy="-131.93" rx="116.32" ry="39.07"/>
<text text-anchor="middle" x="310.5" y="-142.25" font-family="Times New Roman,serif" font-size="14.00">NonTerminal: End</text>
<text text-anchor="middle" x="310.5" y="-126.5" font-family="Times New Roman,serif" font-size="14.00">.2@4</text>
<text text-anchor="middle" x="310.5" y="-110.75" font-family="Times New Roman,serif" font-size="14.00">in: &#39;S &#45;&gt; ABC Layout End&#39;</text>
</g>
<!-- 86&#45;&gt;37 -->
<g id="edge2" class="edge">
<title>86&#45;&gt;37</title>
<path fill="none" stroke="black" d="M310.5,-207.76C310.5,-199.65 310.5,-190.98 310.5,-182.52"/>
<polygon fill="black" stroke="black" points="314,-182.71 310.5,-172.71 307,-182.71 314,-182.71"/>
</g>
<!-- &#45;1 -->
<g id="node5" class="node">
<title>&#45;1</title>
<ellipse fill="none" stroke="black" cx="310.5" cy="-27.93" rx="73.36" ry="27.93"/>
<text text-anchor="middle" x="310.5" y="-30.38" font-family="Times New Roman,serif" font-size="14.00">NonTerminal: S</text>
<text text-anchor="middle" x="310.5" y="-14.63" font-family="Times New Roman,serif" font-size="14.00">.0@&#45;1</text>
</g>
<!-- 37&#45;&gt;&#45;1 -->
<g id="edge1" class="edge">
<title>37&#45;&gt;&#45;1</title>
<path fill="none" stroke="black" d="M310.5,-92.37C310.5,-84.26 310.5,-75.7 310.5,-67.58"/>
<polygon fill="black" stroke="black" points="314,-67.63 310.5,-57.63 307,-67.63 314,-67.63"/>
</g>
<!-- todoLists&#45;&gt;todo&#45;1 -->
<g id="edge5" class="edge">
<title>todoLists:1&#45;&gt;todo&#45;1</title>
<path fill="none" stroke="black" d="M34.12,-426.63C34.12,-375.88 205.12,-362.23 283.76,-358.63"/>
<polygon fill="black" stroke="black" points="283.75,-362.14 293.6,-358.22 283.46,-355.14 283.75,-362.14"/>
</g>
<!-- terminalsToReduce&#45;&gt;86 -->
<g id="edge8" class="edge">
<title>terminalsToReduce:sw&#45;&gt;86</title>
<path fill="none" stroke="black" d="M406.5,-337.88C393.49,-324.87 395.23,-317.43 382.5,-304.13 375.73,-297.06 368.04,-290.14 360.26,-283.71"/>
<polygon fill="black" stroke="black" points="362.66,-281.15 352.67,-277.62 358.28,-286.61 362.66,-281.15"/>
<text text-anchor="middle" x="410.25" y="-306.58" font-family="Times New Roman,serif" font-size="14.00">Stack</text>
</g>
<!-- terminalsToReduce&#45;&gt;412375354 -->
<g id="edge9" class="edge">
<title>terminalsToReduce:se&#45;&gt;412375354</title>
<path fill="none" stroke="black" d="M460.25,-337.88C476.07,-322.07 471.52,-295.95 464.4,-275.95"/>
<polygon fill="black" stroke="black" points="467.67,-274.7 460.73,-266.69 461.17,-277.28 467.67,-274.7"/>
<text text-anchor="middle" x="486.88" y="-306.58" font-family="Times New Roman,serif" font-size="14.00">Node</text>
</g>
<!-- unexpandableNodes -->
<g id="node11" class="node">
<title>unexpandableNodes</title>
<polygon fill="none" stroke="black" points="938.5,-338.38 938.5,-374.38 992.5,-374.38 992.5,-338.38 938.5,-338.38"/>
<text text-anchor="middle" x="965.38" y="-350.96" font-family="Times New Roman,serif" font-size="14.00"> </text>
</g>
<!-- unmatchableLeafNodes -->
<g id="node12" class="node">
<title>unmatchableLeafNodes</title>
<polygon fill="none" stroke="black" points="1035.5,-338.38 1035.5,-374.38 1089.5,-374.38 1089.5,-338.38 1035.5,-338.38"/>
<text text-anchor="middle" x="1062.38" y="-350.96" font-family="Times New Roman,serif" font-size="14.00"> </text>
</g>
<!-- unmatchableMidProductionNodes -->
<g id="node13" class="node">
<title>unmatchableMidProductionNodes</title>
<polygon fill="none" stroke="black" points="720.5,-338.38 720.5,-374.38 774.5,-374.38 774.5,-338.38 720.5,-338.38"/>
<text text-anchor="middle" x="747.38" y="-350.96" font-family="Times New Roman,serif" font-size="14.00"> </text>
</g>
<!-- filteredNodes -->
<g id="node14" class="node">
<title>filteredNodes</title>
<polygon fill="none" stroke="black" points="866.5,-338.38 866.5,-374.38 920.5,-374.38 920.5,-338.38 866.5,-338.38"/>
<text text-anchor="middle" x="893.38" y="-350.96" font-family="Times New Roman,serif" font-size="14.00"> </text>
</g>
<!-- error&#45;&gt;unexpandableNodes -->
<g id="edge13" class="edge">
<title>error&#45;&gt;unexpandableNodes</title>
<path fill="none" stroke="black" d="M936.44,-427.41C941.41,-415.44 948.21,-399.06 953.98,-385.15"/>
<polygon fill="black" stroke="black" points="957.15,-386.63 957.75,-376.05 950.69,-383.94 957.15,-386.63"/>
<text text-anchor="middle" x="988.75" y="-395.33" font-family="Times New Roman,serif" font-size="14.00">unexpandable</text>
</g>
<!-- error&#45;&gt;unmatchableLeafNodes -->
<g id="edge14" class="edge">
<title>error&#45;&gt;unmatchableLeafNodes</title>
<path fill="none" stroke="black" d="M961.72,-438.84C983.32,-433.96 1011.39,-424.92 1031.5,-408.63 1039.31,-402.3 1045.65,-393.44 1050.5,-384.87"/>
<polygon fill="black" stroke="black" points="1053.56,-386.58 1055,-376.09 1047.33,-383.39 1053.56,-386.58"/>
<text text-anchor="middle" x="1095" y="-395.33" font-family="Times New Roman,serif" font-size="14.00">unmatchable leafs</text>
</g>
<!-- error&#45;&gt;unmatchableMidProductionNodes -->
<g id="edge15" class="edge">
<title>error&#45;&gt;unmatchableMidProductionNodes</title>
<path fill="none" stroke="black" d="M896.26,-440.67C854.38,-435.68 785.58,-425.2 766.5,-408.63 759.63,-402.66 755.23,-393.97 752.43,-385.43"/>
<polygon fill="black" stroke="black" points="755.88,-384.79 749.97,-376 749.11,-386.56 755.88,-384.79"/>
<text text-anchor="middle" x="829.5" y="-395.33" font-family="Times New Roman,serif" font-size="14.00">unmatchable mid&#45;prod</text>
</g>
<!-- error&#45;&gt;filteredNodes -->
<g id="edge16" class="edge">
<title>error&#45;&gt;filteredNodes</title>
<path fill="none" stroke="black" d="M914.32,-428.69C909.4,-422.85 904.4,-415.85 901.25,-408.63 898.18,-401.59 896.3,-393.56 895.15,-385.97"/>
<polygon fill="black" stroke="black" points="898.64,-385.67 894.05,-376.12 891.68,-386.44 898.64,-385.67"/>
<text text-anchor="middle" x="919.62" y="-395.33" font-family="Times New Roman,serif" font-size="14.00">filtered</text>
</g>
</g>
</svg>
