<?xml version="1.0" encoding="UTF-8" standalone="no"?>
<!DOCTYPE svg PUBLIC "-//W3C//DTD SVG 1.1//EN"
 "http://www.w3.org/Graphics/SVG/1.1/DTD/svg11.dtd">
<!-- Generated by graphviz version 12.0.0 (20240704.0754)
 -->
<!-- Title: Parser Pages: 1 -->
<svg width="1323pt" height="420pt"
 viewBox="0.00 0.00 1322.50 419.91" xmlns="http://www.w3.org/2000/svg" xmlns:xlink="http://www.w3.org/1999/xlink">
<g id="graph0" class="graph" transform="scale(1 1) rotate(0) translate(4 415.91)">
<title>Parser</title>
<polygon fill="white" stroke="none" points="-4,4 -4,-415.91 1318.5,-415.91 1318.5,4 -4,4"/>
<!-- Parser -->
<g id="node1" class="node">
<title>Parser</title>
<ellipse fill="none" stroke="black" cx="656.5" cy="-361.7" rx="139.65" ry="50.2"/>
<text text-anchor="middle" x="656.5" y="-379.9" font-family="Times New Roman,serif" font-size="14.00">Parser</text>
<text text-anchor="middle" x="656.5" y="-364.15" font-family="Times New Roman,serif" font-size="14.00">Input: &quot;a x $&quot;</text>
<text text-anchor="middle" x="656.5" y="-348.4" font-family="Times New Roman,serif" font-size="14.00">Location: 5 (&#39;$&#39;)</text>
<text text-anchor="middle" x="656.5" y="-332.65" font-family="Times New Roman,serif" font-size="14.00">Step 33: Reducing non&#45;terminals</text>
</g>
<!-- todoLists -->
<g id="node2" class="node">
<title>todoLists</title>
<polygon fill="none" stroke="black" points="0,-223.25 0,-259.25 493,-259.25 493,-223.25 0,-223.25"/>
<text text-anchor="middle" x="11.38" y="-235.82" font-family="Times New Roman,serif" font-size="14.00">0</text>
<polyline fill="none" stroke="black" points="22.75,-223.25 22.75,-259.25"/>
<text text-anchor="middle" x="34.12" y="-235.82" font-family="Times New Roman,serif" font-size="14.00">1</text>
<polyline fill="none" stroke="black" points="45.5,-223.25 45.5,-259.25"/>
<text text-anchor="middle" x="56.88" y="-235.82" font-family="Times New Roman,serif" font-size="14.00">2</text>
<polyline fill="none" stroke="black" points="68.25,-223.25 68.25,-259.25"/>
<text text-anchor="middle" x="79.62" y="-235.82" font-family="Times New Roman,serif" font-size="14.00">3</text>
<polyline fill="none" stroke="black" points="91,-223.25 91,-259.25"/>
<text text-anchor="middle" x="102.38" y="-235.82" font-family="Times New Roman,serif" font-size="14.00">4</text>
<polyline fill="none" stroke="black" points="113.75,-223.25 113.75,-259.25"/>
<text text-anchor="middle" x="125.12" y="-235.82" font-family="Times New Roman,serif" font-size="14.00">5</text>
<polyline fill="none" stroke="black" points="136.5,-223.25 136.5,-259.25"/>
<text text-anchor="middle" x="147.88" y="-235.82" font-family="Times New Roman,serif" font-size="14.00">6</text>
<polyline fill="none" stroke="black" points="159.25,-223.25 159.25,-259.25"/>
<text text-anchor="middle" x="170.62" y="-235.82" font-family="Times New Roman,serif" font-size="14.00">7</text>
<polyline fill="none" stroke="black" points="182,-223.25 182,-259.25"/>
<text text-anchor="middle" x="193.38" y="-235.82" font-family="Times New Roman,serif" font-size="14.00">8</text>
<polyline fill="none" stroke="black" points="204.75,-223.25 204.75,-259.25"/>
<text text-anchor="middle" x="216.12" y="-235.82" font-family="Times New Roman,serif" font-size="14.00">9</text>
<polyline fill="none" stroke="black" points="227.5,-223.25 227.5,-259.25"/>
<text text-anchor="middle" x="242.25" y="-235.82" font-family="Times New Roman,serif" font-size="14.00">10</text>
<polyline fill="none" stroke="black" points="257,-223.25 257,-259.25"/>
<text text-anchor="middle" x="271.75" y="-235.82" font-family="Times New Roman,serif" font-size="14.00">11</text>
<polyline fill="none" stroke="black" points="286.5,-223.25 286.5,-259.25"/>
<text text-anchor="middle" x="301.25" y="-235.82" font-family="Times New Roman,serif" font-size="14.00">12</text>
<polyline fill="none" stroke="black" points="316,-223.25 316,-259.25"/>
<text text-anchor="middle" x="330.75" y="-235.82" font-family="Times New Roman,serif" font-size="14.00">13</text>
<polyline fill="none" stroke="black" points="345.5,-223.25 345.5,-259.25"/>
<text text-anchor="middle" x="360.25" y="-235.82" font-family="Times New Roman,serif" font-size="14.00">14</text>
<polyline fill="none" stroke="black" points="375,-223.25 375,-259.25"/>
<text text-anchor="middle" x="389.75" y="-235.82" font-family="Times New Roman,serif" font-size="14.00">15</text>
<polyline fill="none" stroke="black" points="404.5,-223.25 404.5,-259.25"/>
<text text-anchor="middle" x="419.25" y="-235.82" font-family="Times New Roman,serif" font-size="14.00">16</text>
<polyline fill="none" stroke="black" points="434,-223.25 434,-259.25"/>
<text text-anchor="middle" x="448.75" y="-235.82" font-family="Times New Roman,serif" font-size="14.00">17</text>
<polyline fill="none" stroke="black" points="463.5,-223.25 463.5,-259.25"/>
<text text-anchor="middle" x="478.25" y="-235.82" font-family="Times New Roman,serif" font-size="14.00">18</text>
</g>
<!-- Parser&#45;&gt;todoLists -->
<g id="edge1" class="edge">
<title>Parser&#45;&gt;todoLists</title>
<path fill="none" stroke="black" d="M548.51,-329.5C475.51,-308.41 381.17,-281.16 317.51,-262.76"/>
<polygon fill="black" stroke="black" points="318.82,-259.5 308.24,-260.08 316.87,-266.22 318.82,-259.5"/>
<text text-anchor="middle" x="441.38" y="-280.2" font-family="Times New Roman,serif" font-size="14.00">todo lists</text>
</g>
<!-- stacksToExpand -->
<g id="node3" class="node">
<title>stacksToExpand</title>
<polygon fill="none" stroke="black" points="511.5,-223.25 511.5,-259.25 565.5,-259.25 565.5,-223.25 511.5,-223.25"/>
<text text-anchor="middle" x="538.38" y="-235.82" font-family="Times New Roman,serif" font-size="14.00"> </text>
</g>
<!-- Parser&#45;&gt;stacksToExpand -->
<g id="edge2" class="edge">
<title>Parser&#45;&gt;stacksToExpand</title>
<path fill="none" stroke="black" d="M583.72,-318.8C574.24,-311.23 565.31,-302.76 558,-293.5 552.71,-286.79 548.73,-278.49 545.8,-270.54"/>
<polygon fill="black" stroke="black" points="549.18,-269.61 542.78,-261.17 542.52,-271.76 549.18,-269.61"/>
<text text-anchor="middle" x="605.75" y="-280.2" font-family="Times New Roman,serif" font-size="14.00">stacks to expand</text>
</g>
<!-- terminalsToReduce -->
<g id="node4" class="node">
<title>terminalsToReduce</title>
<polygon fill="none" stroke="black" points="629.5,-223.25 629.5,-259.25 683.5,-259.25 683.5,-223.25 629.5,-223.25"/>
<text text-anchor="middle" x="656.38" y="-235.82" font-family="Times New Roman,serif" font-size="14.00"> </text>
</g>
<!-- Parser&#45;&gt;terminalsToReduce -->
<g id="edge3" class="edge">
<title>Parser&#45;&gt;terminalsToReduce</title>
<path fill="none" stroke="black" d="M656.5,-311.15C656.5,-297.36 656.5,-282.85 656.5,-270.73"/>
<polygon fill="black" stroke="black" points="660,-271.02 656.5,-261.02 653,-271.02 660,-271.02"/>
<text text-anchor="middle" x="709.38" y="-280.2" font-family="Times New Roman,serif" font-size="14.00">terminals to reduce</text>
</g>
<!-- nonTerminalsToReduce -->
<g id="node5" class="node">
<title>nonTerminalsToReduce</title>
<polygon fill="none" stroke="red" points="729.5,-223.25 729.5,-259.25 783.5,-259.25 783.5,-223.25 729.5,-223.25"/>
<text text-anchor="middle" x="756.38" y="-235.82" font-family="Times New Roman,serif" font-size="14.00">0</text>
</g>
<!-- Parser&#45;&gt;nonTerminalsToReduce -->
<g id="edge7" class="edge">
<title>Parser&#45;&gt;nonTerminalsToReduce</title>
<path fill="none" stroke="black" d="M740.01,-321C749.4,-313.18 757.66,-304.06 763.5,-293.5 767.35,-286.53 767.7,-278.23 766.5,-270.37"/>
<polygon fill="black" stroke="black" points="769.95,-269.76 764.22,-260.84 763.14,-271.38 769.95,-269.76"/>
<text text-anchor="middle" x="833.12" y="-280.2" font-family="Times New Roman,serif" font-size="14.00">non&#45;terminals to reduce</text>
</g>
<!-- error -->
<g id="node13" class="node">
<title>error</title>
<ellipse fill="none" stroke="black" cx="1016.5" cy="-241.25" rx="34.1" ry="18"/>
<text text-anchor="middle" x="1016.5" y="-235.82" font-family="Times New Roman,serif" font-size="14.00">Errors</text>
</g>
<!-- Parser&#45;&gt;error -->
<g id="edge8" class="edge">
<title>Parser&#45;&gt;error</title>
<path fill="none" stroke="black" d="M772.17,-333.07C813.71,-322.11 860.62,-308.53 902.5,-293.5 929.88,-283.67 959.85,-270.08 982.18,-259.36"/>
<polygon fill="black" stroke="black" points="983.66,-262.54 991.13,-255.02 980.6,-256.24 983.66,-262.54"/>
<text text-anchor="middle" x="978" y="-280.2" font-family="Times New Roman,serif" font-size="14.00">error tracking</text>
</g>
<!-- 37 -->
<g id="node6" class="node">
<title>37</title>
<ellipse fill="none" stroke="black" cx="559.5" cy="-131.93" rx="116.32" ry="39.07"/>
<text text-anchor="middle" x="559.5" y="-142.25" font-family="Times New Roman,serif" font-size="14.00">NonTerminal: End</text>
<text text-anchor="middle" x="559.5" y="-126.5" font-family="Times New Roman,serif" font-size="14.00">.2@4</text>
<text text-anchor="middle" x="559.5" y="-110.75" font-family="Times New Roman,serif" font-size="14.00">in: &#39;S &#45;&gt; ABC Layout End&#39;</text>
</g>
<!-- nonTerminalsToReduce&#45;&gt;37 -->
<g id="edge5" class="edge">
<title>nonTerminalsToReduce:sw&#45;&gt;37</title>
<path fill="none" stroke="black" d="M729.5,-222.75C706.06,-199.31 675.23,-180.54 646.27,-166.35"/>
<polygon fill="black" stroke="black" points="648.02,-163.3 637.49,-162.17 645.01,-169.62 648.02,-163.3"/>
<text text-anchor="middle" x="722.25" y="-191.45" font-family="Times New Roman,serif" font-size="14.00">Stack</text>
</g>
<!-- 1183701566 -->
<g id="node8" class="node">
<title>1183701566</title>
<polygon fill="none" stroke="black" points="871.09,-119.41 871.09,-144.45 819.2,-162.16 745.8,-162.16 693.91,-144.45 693.91,-119.41 745.8,-101.7 819.2,-101.7 871.09,-119.41"/>
<text text-anchor="middle" x="782.5" y="-134.38" font-family="Times New Roman,serif" font-size="14.00">SortContainer 4&#45;5</text>
<text text-anchor="middle" x="782.5" y="-118.63" font-family="Times New Roman,serif" font-size="14.00">&#39;End &#45;&gt; $&#39;</text>
</g>
<!-- nonTerminalsToReduce&#45;&gt;1183701566 -->
<g id="edge6" class="edge">
<title>nonTerminalsToReduce:se&#45;&gt;1183701566</title>
<path fill="none" stroke="black" d="M783.25,-222.75C795.82,-210.17 797.05,-190.98 794.54,-173.56"/>
<polygon fill="black" stroke="black" points="798.02,-173.12 792.71,-163.95 791.14,-174.42 798.02,-173.12"/>
<text text-anchor="middle" x="811.88" y="-191.45" font-family="Times New Roman,serif" font-size="14.00">Node</text>
</g>
<!-- &#45;1 -->
<g id="node7" class="node">
<title>&#45;1</title>
<ellipse fill="none" stroke="black" cx="559.5" cy="-27.93" rx="73.36" ry="27.93"/>
<text text-anchor="middle" x="559.5" y="-30.38" font-family="Times New Roman,serif" font-size="14.00">NonTerminal: S</text>
<text text-anchor="middle" x="559.5" y="-14.63" font-family="Times New Roman,serif" font-size="14.00">.0@&#45;1</text>
</g>
<!-- 37&#45;&gt;&#45;1 -->
<g id="edge4" class="edge">
<title>37&#45;&gt;&#45;1</title>
<path fill="none" stroke="black" d="M559.5,-92.37C559.5,-84.26 559.5,-75.7 559.5,-67.58"/>
<polygon fill="black" stroke="black" points="563,-67.63 559.5,-57.63 556,-67.63 563,-67.63"/>
</g>
<!-- unexpandableNodes -->
<g id="node9" class="node">
<title>unexpandableNodes</title>
<polygon fill="none" stroke="black" points="889.5,-113.93 889.5,-149.93 943.5,-149.93 943.5,-113.93 889.5,-113.93"/>
<text text-anchor="middle" x="916.38" y="-126.5" font-family="Times New Roman,serif" font-size="14.00"> </text>
</g>
<!-- unmatchableLeafNodes -->
<g id="node10" class="node">
<title>unmatchableLeafNodes</title>
<polygon fill="none" stroke="black" points="989.5,-113.93 989.5,-149.93 1043.5,-149.93 1043.5,-113.93 989.5,-113.93"/>
<text text-anchor="middle" x="1016.38" y="-126.5" font-family="Times New Roman,serif" font-size="14.00"> </text>
</g>
<!-- unmatchableMidProductionNodes -->
<g id="node11" class="node">
<title>unmatchableMidProductionNodes</title>
<polygon fill="none" stroke="black" points="1111.5,-113.93 1111.5,-149.93 1165.5,-149.93 1165.5,-113.93 1111.5,-113.93"/>
<text text-anchor="middle" x="1138.38" y="-126.5" font-family="Times New Roman,serif" font-size="14.00"> </text>
</g>
<!-- filteredNodes -->
<g id="node12" class="node">
<title>filteredNodes</title>
<polygon fill="none" stroke="black" points="1260.5,-113.93 1260.5,-149.93 1314.5,-149.93 1314.5,-113.93 1260.5,-113.93"/>
<text text-anchor="middle" x="1287.38" y="-126.5" font-family="Times New Roman,serif" font-size="14.00"> </text>
</g>
<!-- error&#45;&gt;unexpandableNodes -->
<g id="edge9" class="edge">
<title>error&#45;&gt;unexpandableNodes</title>
<path fill="none" stroke="black" d="M985.41,-233.49C968.56,-228.31 948.65,-219.45 936,-204.75 925.73,-192.81 920.82,-175.96 918.49,-161.58"/>
<polygon fill="black" stroke="black" points="921.98,-161.24 917.27,-151.75 915.03,-162.11 921.98,-161.24"/>
<text text-anchor="middle" x="973.75" y="-191.45" font-family="Times New Roman,serif" font-size="14.00">unexpandable</text>
</g>
<!-- error&#45;&gt;unmatchableLeafNodes -->
<g id="edge10" class="edge">
<title>error&#45;&gt;unmatchableLeafNodes</title>
<path fill="none" stroke="black" d="M1016.5,-223C1016.5,-206.42 1016.5,-181.05 1016.5,-161.45"/>
<polygon fill="black" stroke="black" points="1020,-161.64 1016.5,-151.64 1013,-161.64 1020,-161.64"/>
<text text-anchor="middle" x="1066" y="-191.45" font-family="Times New Roman,serif" font-size="14.00">unmatchable leafs</text>
</g>
<!-- error&#45;&gt;unmatchableMidProductionNodes -->
<g id="edge11" class="edge">
<title>error&#45;&gt;unmatchableMidProductionNodes</title>
<path fill="none" stroke="black" d="M1049.45,-236.28C1071.24,-231.99 1098.92,-223.11 1116.5,-204.75 1127.67,-193.08 1133.18,-175.88 1135.89,-161.24"/>
<polygon fill="black" stroke="black" points="1139.3,-162.11 1137.3,-151.7 1132.38,-161.09 1139.3,-162.11"/>
<text text-anchor="middle" x="1189.5" y="-191.45" font-family="Times New Roman,serif" font-size="14.00">unmatchable mid&#45;prod</text>
</g>
<!-- error&#45;&gt;filteredNodes -->
<g id="edge12" class="edge">
<title>error&#45;&gt;filteredNodes</title>
<path fill="none" stroke="black" d="M1050.73,-239.21C1109.16,-236.79 1224.94,-229 1256.5,-204.75 1270.14,-194.26 1277.88,-176.57 1282.21,-161.36"/>
<polygon fill="black" stroke="black" points="1285.56,-162.4 1284.54,-151.85 1278.76,-160.73 1285.56,-162.4"/>
<text text-anchor="middle" x="1288.62" y="-191.45" font-family="Times New Roman,serif" font-size="14.00">filtered</text>
</g>
</g>
</svg>
