<?xml version="1.0" encoding="UTF-8" standalone="no"?>
<!DOCTYPE svg PUBLIC "-//W3C//DTD SVG 1.1//EN"
 "http://www.w3.org/Graphics/SVG/1.1/DTD/svg11.dtd">
<!-- Generated by graphviz version 12.0.0 (20240704.0754)
 -->
<!-- Title: Parser Pages: 1 -->
<svg width="1185pt" height="286pt"
 viewBox="0.00 0.00 1184.50 285.91" xmlns="http://www.w3.org/2000/svg" xmlns:xlink="http://www.w3.org/1999/xlink">
<g id="graph0" class="graph" transform="scale(1 1) rotate(0) translate(4 281.91)">
<title>Parser</title>
<polygon fill="white" stroke="none" points="-4,4 -4,-281.91 1180.5,-281.91 1180.5,4 -4,4"/>
<!-- Parser -->
<g id="node1" class="node">
<title>Parser</title>
<ellipse fill="none" stroke="black" cx="656.5" cy="-227.7" rx="143.37" ry="50.2"/>
<text text-anchor="middle" x="656.5" y="-245.9" font-family="Times New Roman,serif" font-size="14.00">Parser</text>
<text text-anchor="middle" x="656.5" y="-230.15" font-family="Times New Roman,serif" font-size="14.00">Input: &quot;a x $&quot;</text>
<text text-anchor="middle" x="656.5" y="-214.4" font-family="Times New Roman,serif" font-size="14.00">Location: 5 (&#39;$&#39;)</text>
<text text-anchor="middle" x="656.5" y="-198.65" font-family="Times New Roman,serif" font-size="14.00">Step 35: Finding stacks to reduce</text>
</g>
<!-- todoLists -->
<g id="node2" class="node">
<title>todoLists</title>
<polygon fill="none" stroke="red" points="0,-89.25 0,-125.25 493,-125.25 493,-89.25 0,-89.25"/>
<text text-anchor="middle" x="11.38" y="-101.83" font-family="Times New Roman,serif" font-size="14.00">0</text>
<polyline fill="none" stroke="red" points="22.75,-89.25 22.75,-125.25"/>
<text text-anchor="middle" x="34.12" y="-101.83" font-family="Times New Roman,serif" font-size="14.00">1</text>
<polyline fill="none" stroke="red" points="45.5,-89.25 45.5,-125.25"/>
<text text-anchor="middle" x="56.88" y="-101.83" font-family="Times New Roman,serif" font-size="14.00">2</text>
<polyline fill="none" stroke="red" points="68.25,-89.25 68.25,-125.25"/>
<text text-anchor="middle" x="79.62" y="-101.83" font-family="Times New Roman,serif" font-size="14.00">3</text>
<polyline fill="none" stroke="red" points="91,-89.25 91,-125.25"/>
<text text-anchor="middle" x="102.38" y="-101.83" font-family="Times New Roman,serif" font-size="14.00">4</text>
<polyline fill="none" stroke="red" points="113.75,-89.25 113.75,-125.25"/>
<text text-anchor="middle" x="125.12" y="-101.83" font-family="Times New Roman,serif" font-size="14.00">5</text>
<polyline fill="none" stroke="red" points="136.5,-89.25 136.5,-125.25"/>
<text text-anchor="middle" x="147.88" y="-101.83" font-family="Times New Roman,serif" font-size="14.00">6</text>
<polyline fill="none" stroke="red" points="159.25,-89.25 159.25,-125.25"/>
<text text-anchor="middle" x="170.62" y="-101.83" font-family="Times New Roman,serif" font-size="14.00">7</text>
<polyline fill="none" stroke="red" points="182,-89.25 182,-125.25"/>
<text text-anchor="middle" x="193.38" y="-101.83" font-family="Times New Roman,serif" font-size="14.00">8</text>
<polyline fill="none" stroke="red" points="204.75,-89.25 204.75,-125.25"/>
<text text-anchor="middle" x="216.12" y="-101.83" font-family="Times New Roman,serif" font-size="14.00">9</text>
<polyline fill="none" stroke="red" points="227.5,-89.25 227.5,-125.25"/>
<text text-anchor="middle" x="242.25" y="-101.83" font-family="Times New Roman,serif" font-size="14.00">10</text>
<polyline fill="none" stroke="red" points="257,-89.25 257,-125.25"/>
<text text-anchor="middle" x="271.75" y="-101.83" font-family="Times New Roman,serif" font-size="14.00">11</text>
<polyline fill="none" stroke="red" points="286.5,-89.25 286.5,-125.25"/>
<text text-anchor="middle" x="301.25" y="-101.83" font-family="Times New Roman,serif" font-size="14.00">12</text>
<polyline fill="none" stroke="red" points="316,-89.25 316,-125.25"/>
<text text-anchor="middle" x="330.75" y="-101.83" font-family="Times New Roman,serif" font-size="14.00">13</text>
<polyline fill="none" stroke="red" points="345.5,-89.25 345.5,-125.25"/>
<text text-anchor="middle" x="360.25" y="-101.83" font-family="Times New Roman,serif" font-size="14.00">14</text>
<polyline fill="none" stroke="red" points="375,-89.25 375,-125.25"/>
<text text-anchor="middle" x="389.75" y="-101.83" font-family="Times New Roman,serif" font-size="14.00">15</text>
<polyline fill="none" stroke="red" points="404.5,-89.25 404.5,-125.25"/>
<text text-anchor="middle" x="419.25" y="-101.83" font-family="Times New Roman,serif" font-size="14.00">16</text>
<polyline fill="none" stroke="red" points="434,-89.25 434,-125.25"/>
<text text-anchor="middle" x="448.75" y="-101.83" font-family="Times New Roman,serif" font-size="14.00">17</text>
<polyline fill="none" stroke="red" points="463.5,-89.25 463.5,-125.25"/>
<text text-anchor="middle" x="478.25" y="-101.83" font-family="Times New Roman,serif" font-size="14.00">18</text>
</g>
<!-- Parser&#45;&gt;todoLists -->
<g id="edge1" class="edge">
<title>Parser&#45;&gt;todoLists</title>
<path fill="none" stroke="black" d="M546.9,-195.04C474.28,-174.06 381.11,-147.14 317.93,-128.89"/>
<polygon fill="black" stroke="black" points="318.92,-125.53 308.34,-126.12 316.97,-132.25 318.92,-125.53"/>
<text text-anchor="middle" x="441.38" y="-146.2" font-family="Times New Roman,serif" font-size="14.00">todo lists</text>
</g>
<!-- stacksToExpand -->
<g id="node3" class="node">
<title>stacksToExpand</title>
<polygon fill="none" stroke="black" points="511.5,-89.25 511.5,-125.25 565.5,-125.25 565.5,-89.25 511.5,-89.25"/>
<text text-anchor="middle" x="538.38" y="-101.83" font-family="Times New Roman,serif" font-size="14.00"> </text>
</g>
<!-- Parser&#45;&gt;stacksToExpand -->
<g id="edge2" class="edge">
<title>Parser&#45;&gt;stacksToExpand</title>
<path fill="none" stroke="black" d="M583.22,-184.41C573.93,-176.94 565.18,-168.6 558,-159.5 552.71,-152.79 548.73,-144.49 545.8,-136.54"/>
<polygon fill="black" stroke="black" points="549.18,-135.61 542.78,-127.17 542.52,-137.76 549.18,-135.61"/>
<text text-anchor="middle" x="605.75" y="-146.2" font-family="Times New Roman,serif" font-size="14.00">stacks to expand</text>
</g>
<!-- terminalsToReduce -->
<g id="node4" class="node">
<title>terminalsToReduce</title>
<polygon fill="none" stroke="black" points="629.5,-89.25 629.5,-125.25 683.5,-125.25 683.5,-89.25 629.5,-89.25"/>
<text text-anchor="middle" x="656.38" y="-101.83" font-family="Times New Roman,serif" font-size="14.00"> </text>
</g>
<!-- Parser&#45;&gt;terminalsToReduce -->
<g id="edge3" class="edge">
<title>Parser&#45;&gt;terminalsToReduce</title>
<path fill="none" stroke="black" d="M656.5,-177.16C656.5,-163.37 656.5,-148.86 656.5,-136.73"/>
<polygon fill="black" stroke="black" points="660,-137.02 656.5,-127.02 653,-137.02 660,-137.02"/>
<text text-anchor="middle" x="709.38" y="-146.2" font-family="Times New Roman,serif" font-size="14.00">terminals to reduce</text>
</g>
<!-- nonTerminalsToReduce -->
<g id="node5" class="node">
<title>nonTerminalsToReduce</title>
<polygon fill="none" stroke="black" points="758.5,-89.25 758.5,-125.25 812.5,-125.25 812.5,-89.25 758.5,-89.25"/>
<text text-anchor="middle" x="785.38" y="-101.83" font-family="Times New Roman,serif" font-size="14.00"> </text>
</g>
<!-- Parser&#45;&gt;nonTerminalsToReduce -->
<g id="edge4" class="edge">
<title>Parser&#45;&gt;nonTerminalsToReduce</title>
<path fill="none" stroke="black" d="M734.94,-185.44C745.39,-177.75 755.3,-169.08 763.5,-159.5 769.3,-152.72 773.77,-144.19 777.13,-136.03"/>
<polygon fill="black" stroke="black" points="780.36,-137.37 780.5,-126.78 773.79,-134.97 780.36,-137.37"/>
<text text-anchor="middle" x="839.12" y="-146.2" font-family="Times New Roman,serif" font-size="14.00">non&#45;terminals to reduce</text>
</g>
<!-- error -->
<g id="node10" class="node">
<title>error</title>
<ellipse fill="none" stroke="black" cx="939.5" cy="-107.25" rx="34.1" ry="18"/>
<text text-anchor="middle" x="939.5" y="-101.83" font-family="Times New Roman,serif" font-size="14.00">Errors</text>
</g>
<!-- Parser&#45;&gt;error -->
<g id="edge5" class="edge">
<title>Parser&#45;&gt;error</title>
<path fill="none" stroke="black" d="M791.6,-210.48C832.12,-200.64 874.73,-184.84 908.5,-159.5 916.75,-153.31 923.26,-144.22 928.14,-135.41"/>
<polygon fill="black" stroke="black" points="931.13,-137.26 932.45,-126.74 924.87,-134.14 931.13,-137.26"/>
<text text-anchor="middle" x="960" y="-146.2" font-family="Times New Roman,serif" font-size="14.00">error tracking</text>
</g>
<!-- unexpandableNodes -->
<g id="node6" class="node">
<title>unexpandableNodes</title>
<polygon fill="none" stroke="black" points="751.5,-0.5 751.5,-36.5 805.5,-36.5 805.5,-0.5 751.5,-0.5"/>
<text text-anchor="middle" x="778.38" y="-13.07" font-family="Times New Roman,serif" font-size="14.00"> </text>
</g>
<!-- unmatchableLeafNodes -->
<g id="node7" class="node">
<title>unmatchableLeafNodes</title>
<polygon fill="none" stroke="black" points="851.5,-0.5 851.5,-36.5 905.5,-36.5 905.5,-0.5 851.5,-0.5"/>
<text text-anchor="middle" x="878.38" y="-13.07" font-family="Times New Roman,serif" font-size="14.00"> </text>
</g>
<!-- unmatchableMidProductionNodes -->
<g id="node8" class="node">
<title>unmatchableMidProductionNodes</title>
<polygon fill="none" stroke="black" points="973.5,-0.5 973.5,-36.5 1027.5,-36.5 1027.5,-0.5 973.5,-0.5"/>
<text text-anchor="middle" x="1000.38" y="-13.07" font-family="Times New Roman,serif" font-size="14.00"> </text>
</g>
<!-- filteredNodes -->
<g id="node9" class="node">
<title>filteredNodes</title>
<polygon fill="none" stroke="black" points="1122.5,-0.5 1122.5,-36.5 1176.5,-36.5 1176.5,-0.5 1122.5,-0.5"/>
<text text-anchor="middle" x="1149.38" y="-13.07" font-family="Times New Roman,serif" font-size="14.00"> </text>
</g>
<!-- error&#45;&gt;unexpandableNodes -->
<g id="edge6" class="edge">
<title>error&#45;&gt;unexpandableNodes</title>
<path fill="none" stroke="black" d="M906.37,-102.02C868.6,-96.55 810,-85.9 794,-70.75 787.69,-64.77 783.92,-56.33 781.68,-48.01"/>
<polygon fill="black" stroke="black" points="785.17,-47.6 779.77,-38.48 778.3,-48.97 785.17,-47.6"/>
<text text-anchor="middle" x="831.75" y="-57.45" font-family="Times New Roman,serif" font-size="14.00">unexpandable</text>
</g>
<!-- error&#45;&gt;unmatchableLeafNodes -->
<g id="edge7" class="edge">
<title>error&#45;&gt;unmatchableLeafNodes</title>
<path fill="none" stroke="black" d="M911.33,-96.75C899.33,-91.16 886.51,-82.77 879.5,-70.75 875.57,-64.01 874.21,-55.88 874.13,-48.1"/>
<polygon fill="black" stroke="black" points="877.61,-48.49 874.72,-38.29 870.63,-48.06 877.61,-48.49"/>
<text text-anchor="middle" x="929" y="-57.45" font-family="Times New Roman,serif" font-size="14.00">unmatchable leafs</text>
</g>
<!-- error&#45;&gt;unmatchableMidProductionNodes -->
<g id="edge8" class="edge">
<title>error&#45;&gt;unmatchableMidProductionNodes</title>
<path fill="none" stroke="black" d="M958.18,-92.11C965.22,-86.1 972.87,-78.65 978.5,-70.75 983.54,-63.67 987.75,-55.26 991.09,-47.32"/>
<polygon fill="black" stroke="black" points="994.35,-48.6 994.69,-38.01 987.82,-46.08 994.35,-48.6"/>
<text text-anchor="middle" x="1049.5" y="-57.45" font-family="Times New Roman,serif" font-size="14.00">unmatchable mid&#45;prod</text>
</g>
<!-- error&#45;&gt;filteredNodes -->
<g id="edge9" class="edge">
<title>error&#45;&gt;filteredNodes</title>
<path fill="none" stroke="black" d="M973.81,-107.04C1011.85,-106.28 1073.51,-100.05 1116.5,-70.75 1125.17,-64.84 1132.08,-55.81 1137.29,-46.98"/>
<polygon fill="black" stroke="black" points="1140.33,-48.7 1141.91,-38.22 1134.15,-45.43 1140.33,-48.7"/>
<text text-anchor="middle" x="1150.62" y="-57.45" font-family="Times New Roman,serif" font-size="14.00">filtered</text>
</g>
</g>
</svg>
