<?xml version="1.0" encoding="UTF-8" standalone="no"?>
<!DOCTYPE svg PUBLIC "-//W3C//DTD SVG 1.1//EN"
 "http://www.w3.org/Graphics/SVG/1.1/DTD/svg11.dtd">
<!-- Generated by graphviz version 12.0.0 (20240704.0754)
 -->
<!-- Title: Parser Pages: 1 -->
<svg width="1063pt" height="694pt"
 viewBox="0.00 0.00 1063.25 694.38" xmlns="http://www.w3.org/2000/svg" xmlns:xlink="http://www.w3.org/1999/xlink">
<g id="graph0" class="graph" transform="scale(1 1) rotate(0) translate(4 690.38)">
<title>Parser</title>
<polygon fill="white" stroke="none" points="-4,4 -4,-690.38 1059.25,-690.38 1059.25,4 -4,4"/>
<!-- Parser -->
<g id="node1" class="node">
<title>Parser</title>
<ellipse fill="none" stroke="black" cx="568.25" cy="-636.17" rx="116.85" ry="50.2"/>
<text text-anchor="middle" x="568.25" y="-654.37" font-family="Times New Roman,serif" font-size="14.00">Parser</text>
<text text-anchor="middle" x="568.25" y="-638.62" font-family="Times New Roman,serif" font-size="14.00">Input: &quot;a b x $&quot;</text>
<text text-anchor="middle" x="568.25" y="-622.87" font-family="Times New Roman,serif" font-size="14.00">Location: 2 (&#39;b&#39;)</text>
<text text-anchor="middle" x="568.25" y="-607.12" font-family="Times New Roman,serif" font-size="14.00">Step 7: Reducing terminals</text>
</g>
<!-- todoLists -->
<g id="node8" class="node">
<title>todoLists</title>
<polygon fill="none" stroke="black" points="0,-497.72 0,-533.72 404.5,-533.72 404.5,-497.72 0,-497.72"/>
<text text-anchor="middle" x="11.38" y="-510.29" font-family="Times New Roman,serif" font-size="14.00">0</text>
<polyline fill="none" stroke="black" points="22.75,-497.72 22.75,-533.72"/>
<text text-anchor="middle" x="34.12" y="-510.29" font-family="Times New Roman,serif" font-size="14.00">1</text>
<polyline fill="none" stroke="black" points="45.5,-497.72 45.5,-533.72"/>
<text text-anchor="middle" x="56.88" y="-510.29" font-family="Times New Roman,serif" font-size="14.00">2</text>
<polyline fill="none" stroke="black" points="68.25,-497.72 68.25,-533.72"/>
<text text-anchor="middle" x="79.62" y="-510.29" font-family="Times New Roman,serif" font-size="14.00">3</text>
<polyline fill="none" stroke="black" points="91,-497.72 91,-533.72"/>
<text text-anchor="middle" x="102.38" y="-510.29" font-family="Times New Roman,serif" font-size="14.00">4</text>
<polyline fill="none" stroke="black" points="113.75,-497.72 113.75,-533.72"/>
<text text-anchor="middle" x="125.12" y="-510.29" font-family="Times New Roman,serif" font-size="14.00">5</text>
<polyline fill="none" stroke="black" points="136.5,-497.72 136.5,-533.72"/>
<text text-anchor="middle" x="147.88" y="-510.29" font-family="Times New Roman,serif" font-size="14.00">6</text>
<polyline fill="none" stroke="black" points="159.25,-497.72 159.25,-533.72"/>
<text text-anchor="middle" x="170.62" y="-510.29" font-family="Times New Roman,serif" font-size="14.00">7</text>
<polyline fill="none" stroke="black" points="182,-497.72 182,-533.72"/>
<text text-anchor="middle" x="193.38" y="-510.29" font-family="Times New Roman,serif" font-size="14.00">8</text>
<polyline fill="none" stroke="black" points="204.75,-497.72 204.75,-533.72"/>
<text text-anchor="middle" x="216.12" y="-510.29" font-family="Times New Roman,serif" font-size="14.00">9</text>
<polyline fill="none" stroke="black" points="227.5,-497.72 227.5,-533.72"/>
<text text-anchor="middle" x="242.25" y="-510.29" font-family="Times New Roman,serif" font-size="14.00">10</text>
<polyline fill="none" stroke="black" points="257,-497.72 257,-533.72"/>
<text text-anchor="middle" x="271.75" y="-510.29" font-family="Times New Roman,serif" font-size="14.00">11</text>
<polyline fill="none" stroke="black" points="286.5,-497.72 286.5,-533.72"/>
<text text-anchor="middle" x="301.25" y="-510.29" font-family="Times New Roman,serif" font-size="14.00">12</text>
<polyline fill="none" stroke="black" points="316,-497.72 316,-533.72"/>
<text text-anchor="middle" x="330.75" y="-510.29" font-family="Times New Roman,serif" font-size="14.00">13</text>
<polyline fill="none" stroke="black" points="345.5,-497.72 345.5,-533.72"/>
<text text-anchor="middle" x="360.25" y="-510.29" font-family="Times New Roman,serif" font-size="14.00">14</text>
<polyline fill="none" stroke="black" points="375,-497.72 375,-533.72"/>
<text text-anchor="middle" x="389.75" y="-510.29" font-family="Times New Roman,serif" font-size="14.00">15</text>
</g>
<!-- Parser&#45;&gt;todoLists -->
<g id="edge7" class="edge">
<title>Parser&#45;&gt;todoLists</title>
<path fill="none" stroke="black" d="M475.89,-605.28C410.74,-584.2 325.08,-556.47 267.08,-537.7"/>
<polygon fill="black" stroke="black" points="268.26,-534.4 257.66,-534.65 266.1,-541.06 268.26,-534.4"/>
<text text-anchor="middle" x="379.12" y="-554.67" font-family="Times New Roman,serif" font-size="14.00">todo lists</text>
</g>
<!-- stacksToExpand -->
<g id="node9" class="node">
<title>stacksToExpand</title>
<polygon fill="none" stroke="black" points="564.25,-497.72 564.25,-533.72 618.25,-533.72 618.25,-497.72 564.25,-497.72"/>
<text text-anchor="middle" x="591.12" y="-510.29" font-family="Times New Roman,serif" font-size="14.00"> </text>
</g>
<!-- Parser&#45;&gt;stacksToExpand -->
<g id="edge8" class="edge">
<title>Parser&#45;&gt;stacksToExpand</title>
<path fill="none" stroke="black" d="M564.91,-585.85C565.31,-574.63 566.67,-562.87 569.75,-552.22 570.56,-549.43 571.64,-546.65 572.89,-543.93"/>
<polygon fill="black" stroke="black" points="575.91,-545.7 577.63,-535.25 569.76,-542.35 575.91,-545.7"/>
<text text-anchor="middle" x="617.5" y="-554.67" font-family="Times New Roman,serif" font-size="14.00">stacks to expand</text>
</g>
<!-- terminalsToReduce -->
<g id="node10" class="node">
<title>terminalsToReduce</title>
<polygon fill="none" stroke="red" points="349.25,-408.97 349.25,-444.97 403.25,-444.97 403.25,-408.97 349.25,-408.97"/>
<text text-anchor="middle" x="376.12" y="-421.54" font-family="Times New Roman,serif" font-size="14.00">0</text>
</g>
<!-- Parser&#45;&gt;terminalsToReduce -->
<g id="edge11" class="edge">
<title>Parser&#45;&gt;terminalsToReduce</title>
<path fill="none" stroke="black" d="M511.43,-592.01C490.84,-575.08 468.1,-554.8 449.5,-534.22 427.06,-509.39 405.88,-477.37 392.12,-455"/>
<polygon fill="black" stroke="black" points="395.12,-453.2 386.94,-446.46 389.13,-456.83 395.12,-453.2"/>
<text text-anchor="middle" x="503.12" y="-510.29" font-family="Times New Roman,serif" font-size="14.00">terminals to reduce</text>
</g>
<!-- nonTerminalsToReduce -->
<g id="node11" class="node">
<title>nonTerminalsToReduce</title>
<polygon fill="none" stroke="black" points="659.25,-497.72 659.25,-533.72 713.25,-533.72 713.25,-497.72 659.25,-497.72"/>
<text text-anchor="middle" x="686.12" y="-510.29" font-family="Times New Roman,serif" font-size="14.00"> </text>
</g>
<!-- Parser&#45;&gt;nonTerminalsToReduce -->
<g id="edge12" class="edge">
<title>Parser&#45;&gt;nonTerminalsToReduce</title>
<path fill="none" stroke="black" d="M635.88,-595.13C646.24,-587.03 656.16,-577.91 664.25,-567.97 669.79,-561.15 674.17,-552.73 677.51,-544.69"/>
<polygon fill="black" stroke="black" points="680.7,-546.18 680.91,-535.58 674.14,-543.73 680.7,-546.18"/>
<text text-anchor="middle" x="738.88" y="-554.67" font-family="Times New Roman,serif" font-size="14.00">non&#45;terminals to reduce</text>
</g>
<!-- error -->
<g id="node16" class="node">
<title>error</title>
<ellipse fill="none" stroke="black" cx="840.25" cy="-515.72" rx="34.1" ry="18"/>
<text text-anchor="middle" x="840.25" y="-510.29" font-family="Times New Roman,serif" font-size="14.00">Errors</text>
</g>
<!-- Parser&#45;&gt;error -->
<g id="edge13" class="edge">
<title>Parser&#45;&gt;error</title>
<path fill="none" stroke="black" d="M680.46,-621.45C723.63,-611.87 771.37,-595.59 808.25,-567.97 816.58,-561.73 823.26,-552.64 828.31,-543.83"/>
<polygon fill="black" stroke="black" points="831.31,-545.65 832.81,-535.16 825.1,-542.43 831.31,-545.65"/>
<text text-anchor="middle" x="859.75" y="-554.67" font-family="Times New Roman,serif" font-size="14.00">error tracking</text>
</g>
<!-- todo&#45;1 -->
<g id="node2" class="node">
<title>todo&#45;1</title>
<polygon fill="none" stroke="black" points="198.25,-408.97 198.25,-444.97 252.25,-444.97 252.25,-408.97 198.25,-408.97"/>
<text text-anchor="middle" x="225.12" y="-421.54" font-family="Times New Roman,serif" font-size="14.00">0</text>
</g>
<!-- 92 -->
<g id="node3" class="node">
<title>92</title>
<ellipse fill="none" stroke="black" cx="198.25" cy="-317.65" rx="124.8" ry="39.07"/>
<text text-anchor="middle" x="198.25" y="-327.98" font-family="Times New Roman,serif" font-size="14.00">Char: </text>
<text text-anchor="middle" x="198.25" y="-312.23" font-family="Times New Roman,serif" font-size="14.00">.0@1</text>
<text text-anchor="middle" x="198.25" y="-296.48" font-family="Times New Roman,serif" font-size="14.00">in: &#39;Layout &#45;&gt; [range(32,32)]&#39;</text>
</g>
<!-- todo&#45;1&#45;&gt;92 -->
<g id="edge4" class="edge">
<title>todo&#45;1:sw&#45;&gt;92</title>
<path fill="none" stroke="black" d="M198.25,-408.47C187.79,-398.01 185.08,-382.98 185.82,-368.19"/>
<polygon fill="black" stroke="black" points="189.27,-368.83 186.82,-358.52 182.31,-368.11 189.27,-368.83"/>
<text text-anchor="middle" x="204" y="-377.17" font-family="Times New Roman,serif" font-size="14.00">Stack</text>
</g>
<!-- 858267892 -->
<g id="node7" class="node">
<title>858267892</title>
<polygon fill="none" stroke="black" points="463.86,-305.13 463.86,-330.17 427.77,-347.88 376.73,-347.88 340.64,-330.17 340.64,-305.13 376.73,-287.42 427.77,-287.42 463.86,-305.13"/>
<text text-anchor="middle" x="402.25" y="-320.1" font-family="Times New Roman,serif" font-size="14.00">Char</text>
<text text-anchor="middle" x="402.25" y="-304.35" font-family="Times New Roman,serif" font-size="14.00">char=32(&#39; &#39;)</text>
</g>
<!-- todo&#45;1&#45;&gt;858267892 -->
<g id="edge5" class="edge">
<title>todo&#45;1:se&#45;&gt;858267892</title>
<path fill="none" stroke="black" d="M252,-408.47C266.72,-393.74 267.11,-386.17 284.5,-374.72 303.44,-362.25 311.63,-366.16 332.25,-356.72 339.01,-353.62 346.02,-350.15 352.87,-346.59"/>
<polygon fill="black" stroke="black" points="354.22,-349.84 361.42,-342.07 350.94,-343.66 354.22,-349.84"/>
<text text-anchor="middle" x="300.62" y="-377.17" font-family="Times New Roman,serif" font-size="14.00">Node</text>
</g>
<!-- 56 -->
<g id="node4" class="node">
<title>56</title>
<ellipse fill="none" stroke="black" cx="198.25" cy="-213.65" rx="95.11" ry="27.93"/>
<text text-anchor="middle" x="198.25" y="-216.1" font-family="Times New Roman,serif" font-size="14.00">NonTerminal: Layout</text>
<text text-anchor="middle" x="198.25" y="-200.35" font-family="Times New Roman,serif" font-size="14.00">.1@1</text>
</g>
<!-- 92&#45;&gt;56 -->
<g id="edge3" class="edge">
<title>92&#45;&gt;56</title>
<path fill="none" stroke="black" d="M198.25,-278.09C198.25,-269.98 198.25,-261.42 198.25,-253.31"/>
<polygon fill="black" stroke="black" points="201.75,-253.35 198.25,-243.35 194.75,-253.35 201.75,-253.35"/>
</g>
<!-- 35 -->
<g id="node5" class="node">
<title>35</title>
<ellipse fill="none" stroke="black" cx="198.25" cy="-120.79" rx="87.68" ry="27.93"/>
<text text-anchor="middle" x="198.25" y="-123.24" font-family="Times New Roman,serif" font-size="14.00">NonTerminal: ABC</text>
<text text-anchor="middle" x="198.25" y="-107.49" font-family="Times New Roman,serif" font-size="14.00">.0@0</text>
</g>
<!-- 56&#45;&gt;35 -->
<g id="edge2" class="edge">
<title>56&#45;&gt;35</title>
<path fill="none" stroke="black" d="M198.25,-185.39C198.25,-177.58 198.25,-168.9 198.25,-160.53"/>
<polygon fill="black" stroke="black" points="201.75,-160.55 198.25,-150.55 194.75,-160.55 201.75,-160.55"/>
</g>
<!-- &#45;1 -->
<g id="node6" class="node">
<title>&#45;1</title>
<ellipse fill="none" stroke="black" cx="198.25" cy="-27.93" rx="73.36" ry="27.93"/>
<text text-anchor="middle" x="198.25" y="-30.38" font-family="Times New Roman,serif" font-size="14.00">NonTerminal: S</text>
<text text-anchor="middle" x="198.25" y="-14.63" font-family="Times New Roman,serif" font-size="14.00">.0@&#45;1</text>
</g>
<!-- 35&#45;&gt;&#45;1 -->
<g id="edge1" class="edge">
<title>35&#45;&gt;&#45;1</title>
<path fill="none" stroke="black" d="M198.25,-92.53C198.25,-84.71 198.25,-76.04 198.25,-67.67"/>
<polygon fill="black" stroke="black" points="201.75,-67.69 198.25,-57.69 194.75,-67.69 201.75,-67.69"/>
</g>
<!-- todoLists&#45;&gt;todo&#45;1 -->
<g id="edge6" class="edge">
<title>todoLists:1&#45;&gt;todo&#45;1</title>
<path fill="none" stroke="black" d="M34.12,-497.22C34.12,-465.09 130.78,-443.64 186.62,-433.92"/>
<polygon fill="black" stroke="black" points="187.09,-437.39 196.37,-432.28 185.93,-430.49 187.09,-437.39"/>
</g>
<!-- terminalsToReduce&#45;&gt;92 -->
<g id="edge9" class="edge">
<title>terminalsToReduce:sw&#45;&gt;92</title>
<path fill="none" stroke="black" d="M349.25,-408.47C334.19,-393.41 332.65,-386.99 315.25,-374.72 305,-367.49 293.67,-360.75 282.22,-354.64"/>
<polygon fill="black" stroke="black" points="283.99,-351.61 273.5,-350.12 280.77,-357.82 283.99,-351.61"/>
<text text-anchor="middle" x="349" y="-377.17" font-family="Times New Roman,serif" font-size="14.00">Stack</text>
</g>
<!-- terminalsToReduce&#45;&gt;858267892 -->
<g id="edge10" class="edge">
<title>terminalsToReduce:se&#45;&gt;858267892</title>
<path fill="none" stroke="black" d="M403,-408.47C415.57,-395.9 416.8,-376.71 414.29,-359.29"/>
<polygon fill="black" stroke="black" points="417.77,-358.84 412.46,-349.67 410.89,-360.15 417.77,-358.84"/>
<text text-anchor="middle" x="431.62" y="-377.17" font-family="Times New Roman,serif" font-size="14.00">Node</text>
</g>
<!-- unexpandableNodes -->
<g id="node12" class="node">
<title>unexpandableNodes</title>
<polygon fill="none" stroke="black" points="849.25,-408.97 849.25,-444.97 903.25,-444.97 903.25,-408.97 849.25,-408.97"/>
<text text-anchor="middle" x="876.12" y="-421.54" font-family="Times New Roman,serif" font-size="14.00"> </text>
</g>
<!-- unmatchableLeafNodes -->
<g id="node13" class="node">
<title>unmatchableLeafNodes</title>
<polygon fill="none" stroke="black" points="946.25,-408.97 946.25,-444.97 1000.25,-444.97 1000.25,-408.97 946.25,-408.97"/>
<text text-anchor="middle" x="973.12" y="-421.54" font-family="Times New Roman,serif" font-size="14.00"> </text>
</g>
<!-- unmatchableMidProductionNodes -->
<g id="node14" class="node">
<title>unmatchableMidProductionNodes</title>
<polygon fill="none" stroke="black" points="631.25,-408.97 631.25,-444.97 685.25,-444.97 685.25,-408.97 631.25,-408.97"/>
<text text-anchor="middle" x="658.12" y="-421.54" font-family="Times New Roman,serif" font-size="14.00"> </text>
</g>
<!-- filteredNodes -->
<g id="node15" class="node">
<title>filteredNodes</title>
<polygon fill="none" stroke="black" points="777.25,-408.97 777.25,-444.97 831.25,-444.97 831.25,-408.97 777.25,-408.97"/>
<text text-anchor="middle" x="804.12" y="-421.54" font-family="Times New Roman,serif" font-size="14.00"> </text>
</g>
<!-- error&#45;&gt;unexpandableNodes -->
<g id="edge14" class="edge">
<title>error&#45;&gt;unexpandableNodes</title>
<path fill="none" stroke="black" d="M847.19,-497.99C852.16,-486.03 858.96,-469.64 864.73,-455.73"/>
<polygon fill="black" stroke="black" points="867.9,-457.21 868.5,-446.64 861.44,-454.53 867.9,-457.21"/>
<text text-anchor="middle" x="899.5" y="-465.92" font-family="Times New Roman,serif" font-size="14.00">unexpandable</text>
</g>
<!-- error&#45;&gt;unmatchableLeafNodes -->
<g id="edge15" class="edge">
<title>error&#45;&gt;unmatchableLeafNodes</title>
<path fill="none" stroke="black" d="M872.47,-509.43C894.07,-504.55 922.14,-495.51 942.25,-479.22 950.06,-472.89 956.4,-464.03 961.25,-455.46"/>
<polygon fill="black" stroke="black" points="964.31,-457.17 965.75,-446.67 958.08,-453.98 964.31,-457.17"/>
<text text-anchor="middle" x="1005.75" y="-465.92" font-family="Times New Roman,serif" font-size="14.00">unmatchable leafs</text>
</g>
<!-- error&#45;&gt;unmatchableMidProductionNodes -->
<g id="edge16" class="edge">
<title>error&#45;&gt;unmatchableMidProductionNodes</title>
<path fill="none" stroke="black" d="M807.01,-511.25C765.13,-506.26 696.33,-495.79 677.25,-479.22 670.38,-473.25 665.98,-464.55 663.18,-456.02"/>
<polygon fill="black" stroke="black" points="666.63,-455.38 660.72,-446.59 659.86,-457.15 666.63,-455.38"/>
<text text-anchor="middle" x="740.25" y="-465.92" font-family="Times New Roman,serif" font-size="14.00">unmatchable mid&#45;prod</text>
</g>
<!-- error&#45;&gt;filteredNodes -->
<g id="edge17" class="edge">
<title>error&#45;&gt;filteredNodes</title>
<path fill="none" stroke="black" d="M825.07,-499.28C820.15,-493.44 815.15,-486.44 812,-479.22 808.93,-472.18 807.05,-464.14 805.9,-456.55"/>
<polygon fill="black" stroke="black" points="809.39,-456.26 804.8,-446.71 802.43,-457.03 809.39,-456.26"/>
<text text-anchor="middle" x="830.38" y="-465.92" font-family="Times New Roman,serif" font-size="14.00">filtered</text>
</g>
</g>
</svg>
