<?xml version="1.0" encoding="UTF-8" standalone="no"?>
<!DOCTYPE svg PUBLIC "-//W3C//DTD SVG 1.1//EN"
 "http://www.w3.org/Graphics/SVG/1.1/DTD/svg11.dtd">
<!-- Generated by graphviz version 12.0.0 (20240704.0754)
 -->
<!-- Title: Parser Pages: 1 -->
<svg width="1183pt" height="579pt"
 viewBox="0.00 0.00 1182.68 579.24" xmlns="http://www.w3.org/2000/svg" xmlns:xlink="http://www.w3.org/1999/xlink">
<g id="graph0" class="graph" transform="scale(1 1) rotate(0) translate(4 575.24)">
<title>Parser</title>
<polygon fill="white" stroke="none" points="-4,4 -4,-575.24 1178.68,-575.24 1178.68,4 -4,4"/>
<!-- Parser -->
<g id="node1" class="node">
<title>Parser</title>
<ellipse fill="none" stroke="black" cx="654.68" cy="-521.04" rx="143.37" ry="50.2"/>
<text text-anchor="middle" x="654.68" y="-539.24" font-family="Times New Roman,serif" font-size="14.00">Parser</text>
<text text-anchor="middle" x="654.68" y="-523.49" font-family="Times New Roman,serif" font-size="14.00">Input: &quot;a b x $&quot;</text>
<text text-anchor="middle" x="654.68" y="-507.74" font-family="Times New Roman,serif" font-size="14.00">Location: 2 (&#39;b&#39;)</text>
<text text-anchor="middle" x="654.68" y="-491.99" font-family="Times New Roman,serif" font-size="14.00">Step 10: Finding stacks to reduce</text>
</g>
<!-- todoLists -->
<g id="node7" class="node">
<title>todoLists</title>
<polygon fill="none" stroke="red" points="87.43,-382.58 87.43,-418.58 491.93,-418.58 491.93,-382.58 87.43,-382.58"/>
<text text-anchor="middle" x="98.81" y="-395.16" font-family="Times New Roman,serif" font-size="14.00">0</text>
<polyline fill="none" stroke="red" points="110.18,-382.58 110.18,-418.58"/>
<text text-anchor="middle" x="121.56" y="-395.16" font-family="Times New Roman,serif" font-size="14.00">1</text>
<polyline fill="none" stroke="red" points="132.93,-382.58 132.93,-418.58"/>
<text text-anchor="middle" x="144.31" y="-395.16" font-family="Times New Roman,serif" font-size="14.00">2</text>
<polyline fill="none" stroke="red" points="155.68,-382.58 155.68,-418.58"/>
<text text-anchor="middle" x="167.06" y="-395.16" font-family="Times New Roman,serif" font-size="14.00">3</text>
<polyline fill="none" stroke="red" points="178.43,-382.58 178.43,-418.58"/>
<text text-anchor="middle" x="189.81" y="-395.16" font-family="Times New Roman,serif" font-size="14.00">4</text>
<polyline fill="none" stroke="red" points="201.18,-382.58 201.18,-418.58"/>
<text text-anchor="middle" x="212.56" y="-395.16" font-family="Times New Roman,serif" font-size="14.00">5</text>
<polyline fill="none" stroke="red" points="223.93,-382.58 223.93,-418.58"/>
<text text-anchor="middle" x="235.31" y="-395.16" font-family="Times New Roman,serif" font-size="14.00">6</text>
<polyline fill="none" stroke="red" points="246.68,-382.58 246.68,-418.58"/>
<text text-anchor="middle" x="258.06" y="-395.16" font-family="Times New Roman,serif" font-size="14.00">7</text>
<polyline fill="none" stroke="red" points="269.43,-382.58 269.43,-418.58"/>
<text text-anchor="middle" x="280.81" y="-395.16" font-family="Times New Roman,serif" font-size="14.00">8</text>
<polyline fill="none" stroke="red" points="292.18,-382.58 292.18,-418.58"/>
<text text-anchor="middle" x="303.56" y="-395.16" font-family="Times New Roman,serif" font-size="14.00">9</text>
<polyline fill="none" stroke="red" points="314.93,-382.58 314.93,-418.58"/>
<text text-anchor="middle" x="329.68" y="-395.16" font-family="Times New Roman,serif" font-size="14.00">10</text>
<polyline fill="none" stroke="red" points="344.43,-382.58 344.43,-418.58"/>
<text text-anchor="middle" x="359.18" y="-395.16" font-family="Times New Roman,serif" font-size="14.00">11</text>
<polyline fill="none" stroke="red" points="373.93,-382.58 373.93,-418.58"/>
<text text-anchor="middle" x="388.68" y="-395.16" font-family="Times New Roman,serif" font-size="14.00">12</text>
<polyline fill="none" stroke="red" points="403.43,-382.58 403.43,-418.58"/>
<text text-anchor="middle" x="418.18" y="-395.16" font-family="Times New Roman,serif" font-size="14.00">13</text>
<polyline fill="none" stroke="red" points="432.93,-382.58 432.93,-418.58"/>
<text text-anchor="middle" x="447.68" y="-395.16" font-family="Times New Roman,serif" font-size="14.00">14</text>
<polyline fill="none" stroke="red" points="462.43,-382.58 462.43,-418.58"/>
<text text-anchor="middle" x="477.18" y="-395.16" font-family="Times New Roman,serif" font-size="14.00">15</text>
</g>
<!-- Parser&#45;&gt;todoLists -->
<g id="edge6" class="edge">
<title>Parser&#45;&gt;todoLists</title>
<path fill="none" stroke="black" d="M550.58,-486.25C487.4,-465.75 408.74,-440.22 354.4,-422.59"/>
<polygon fill="black" stroke="black" points="355.56,-419.28 344.97,-419.53 353.4,-425.94 355.56,-419.28"/>
<text text-anchor="middle" x="465.56" y="-439.53" font-family="Times New Roman,serif" font-size="14.00">todo lists</text>
</g>
<!-- stacksToExpand -->
<g id="node8" class="node">
<title>stacksToExpand</title>
<polygon fill="none" stroke="black" points="509.68,-382.58 509.68,-418.58 563.68,-418.58 563.68,-382.58 509.68,-382.58"/>
<text text-anchor="middle" x="536.56" y="-395.16" font-family="Times New Roman,serif" font-size="14.00"> </text>
</g>
<!-- Parser&#45;&gt;stacksToExpand -->
<g id="edge7" class="edge">
<title>Parser&#45;&gt;stacksToExpand</title>
<path fill="none" stroke="black" d="M581.4,-477.74C572.11,-470.27 563.36,-461.94 556.18,-452.83 550.89,-446.13 546.91,-437.83 543.98,-429.87"/>
<polygon fill="black" stroke="black" points="547.36,-428.95 540.96,-420.5 540.7,-431.1 547.36,-428.95"/>
<text text-anchor="middle" x="603.93" y="-439.53" font-family="Times New Roman,serif" font-size="14.00">stacks to expand</text>
</g>
<!-- terminalsToReduce -->
<g id="node9" class="node">
<title>terminalsToReduce</title>
<polygon fill="none" stroke="black" points="627.68,-382.58 627.68,-418.58 681.68,-418.58 681.68,-382.58 627.68,-382.58"/>
<text text-anchor="middle" x="654.56" y="-395.16" font-family="Times New Roman,serif" font-size="14.00"> </text>
</g>
<!-- Parser&#45;&gt;terminalsToReduce -->
<g id="edge8" class="edge">
<title>Parser&#45;&gt;terminalsToReduce</title>
<path fill="none" stroke="black" d="M654.68,-470.49C654.68,-456.7 654.68,-442.19 654.68,-430.06"/>
<polygon fill="black" stroke="black" points="658.18,-430.36 654.68,-420.36 651.18,-430.36 658.18,-430.36"/>
<text text-anchor="middle" x="707.56" y="-439.53" font-family="Times New Roman,serif" font-size="14.00">terminals to reduce</text>
</g>
<!-- nonTerminalsToReduce -->
<g id="node10" class="node">
<title>nonTerminalsToReduce</title>
<polygon fill="none" stroke="black" points="756.68,-382.58 756.68,-418.58 810.68,-418.58 810.68,-382.58 756.68,-382.58"/>
<text text-anchor="middle" x="783.56" y="-395.16" font-family="Times New Roman,serif" font-size="14.00"> </text>
</g>
<!-- Parser&#45;&gt;nonTerminalsToReduce -->
<g id="edge9" class="edge">
<title>Parser&#45;&gt;nonTerminalsToReduce</title>
<path fill="none" stroke="black" d="M733.12,-478.77C743.57,-471.09 753.48,-462.42 761.68,-452.83 767.48,-446.06 771.95,-437.52 775.31,-429.37"/>
<polygon fill="black" stroke="black" points="778.54,-430.71 778.68,-420.11 771.97,-428.31 778.54,-430.71"/>
<text text-anchor="middle" x="837.31" y="-439.53" font-family="Times New Roman,serif" font-size="14.00">non&#45;terminals to reduce</text>
</g>
<!-- error -->
<g id="node15" class="node">
<title>error</title>
<ellipse fill="none" stroke="black" cx="937.68" cy="-400.58" rx="34.1" ry="18"/>
<text text-anchor="middle" x="937.68" y="-395.16" font-family="Times New Roman,serif" font-size="14.00">Errors</text>
</g>
<!-- Parser&#45;&gt;error -->
<g id="edge10" class="edge">
<title>Parser&#45;&gt;error</title>
<path fill="none" stroke="black" d="M789.78,-503.81C830.3,-493.97 872.91,-478.17 906.68,-452.83 914.93,-446.64 921.44,-437.56 926.32,-428.75"/>
<polygon fill="black" stroke="black" points="929.32,-430.59 930.64,-420.08 923.05,-427.47 929.32,-430.59"/>
<text text-anchor="middle" x="958.18" y="-439.53" font-family="Times New Roman,serif" font-size="14.00">error tracking</text>
</g>
<!-- todo&#45;2 -->
<g id="node2" class="node">
<title>todo&#45;2</title>
<polygon fill="none" stroke="black" points="117.68,-293.83 117.68,-329.83 171.68,-329.83 171.68,-293.83 117.68,-293.83"/>
<text text-anchor="middle" x="144.56" y="-306.41" font-family="Times New Roman,serif" font-size="14.00">0</text>
</g>
<!-- 57 -->
<g id="node3" class="node">
<title>57</title>
<ellipse fill="none" stroke="black" cx="87.68" cy="-213.65" rx="40.48" ry="27.93"/>
<text text-anchor="middle" x="87.68" y="-216.1" font-family="Times New Roman,serif" font-size="14.00">Literal: </text>
<text text-anchor="middle" x="87.68" y="-200.35" font-family="Times New Roman,serif" font-size="14.00">.2@2</text>
</g>
<!-- todo&#45;2&#45;&gt;57 -->
<g id="edge3" class="edge">
<title>todo&#45;2:sw&#45;&gt;57</title>
<path fill="none" stroke="black" d="M117.68,-293.33C106.75,-282.4 99.73,-267.08 95.26,-252.86"/>
<polygon fill="black" stroke="black" points="98.64,-251.95 92.59,-243.25 91.89,-253.82 98.64,-251.95"/>
<text text-anchor="middle" x="120.43" y="-262.03" font-family="Times New Roman,serif" font-size="14.00">Stack</text>
</g>
<!-- 1051927339 -->
<g id="node6" class="node">
<title>1051927339</title>
<polygon fill="none" stroke="black" points="252.79,-206.2 252.79,-221.11 221.68,-231.65 177.68,-231.65 146.57,-221.11 146.57,-206.2 177.68,-195.65 221.68,-195.65 252.79,-206.2"/>
<text text-anchor="middle" x="199.68" y="-208.23" font-family="Times New Roman,serif" font-size="14.00">Literal &quot;b&quot;</text>
</g>
<!-- todo&#45;2&#45;&gt;1051927339 -->
<g id="edge4" class="edge">
<title>todo&#45;2:se&#45;&gt;1051927339</title>
<path fill="none" stroke="black" d="M171.43,-293.33C184.81,-279.96 191.89,-259.8 195.61,-243.24"/>
<polygon fill="black" stroke="black" points="199.05,-243.93 197.49,-233.45 192.17,-242.61 199.05,-243.93"/>
<text text-anchor="middle" x="206.06" y="-262.03" font-family="Times New Roman,serif" font-size="14.00">Node</text>
</g>
<!-- 35 -->
<g id="node4" class="node">
<title>35</title>
<ellipse fill="none" stroke="black" cx="87.68" cy="-120.79" rx="87.68" ry="27.93"/>
<text text-anchor="middle" x="87.68" y="-123.24" font-family="Times New Roman,serif" font-size="14.00">NonTerminal: ABC</text>
<text text-anchor="middle" x="87.68" y="-107.49" font-family="Times New Roman,serif" font-size="14.00">.0@0</text>
</g>
<!-- 57&#45;&gt;35 -->
<g id="edge2" class="edge">
<title>57&#45;&gt;35</title>
<path fill="none" stroke="black" d="M87.68,-185.39C87.68,-177.58 87.68,-168.9 87.68,-160.53"/>
<polygon fill="black" stroke="black" points="91.18,-160.55 87.68,-150.55 84.18,-160.55 91.18,-160.55"/>
</g>
<!-- &#45;1 -->
<g id="node5" class="node">
<title>&#45;1</title>
<ellipse fill="none" stroke="black" cx="87.68" cy="-27.93" rx="73.36" ry="27.93"/>
<text text-anchor="middle" x="87.68" y="-30.38" font-family="Times New Roman,serif" font-size="14.00">NonTerminal: S</text>
<text text-anchor="middle" x="87.68" y="-14.63" font-family="Times New Roman,serif" font-size="14.00">.0@&#45;1</text>
</g>
<!-- 35&#45;&gt;&#45;1 -->
<g id="edge1" class="edge">
<title>35&#45;&gt;&#45;1</title>
<path fill="none" stroke="black" d="M87.68,-92.53C87.68,-84.71 87.68,-76.04 87.68,-67.67"/>
<polygon fill="black" stroke="black" points="91.18,-67.69 87.68,-57.69 84.18,-67.69 91.18,-67.69"/>
</g>
<!-- todoLists&#45;&gt;todo&#45;2 -->
<g id="edge5" class="edge">
<title>todoLists:2&#45;&gt;todo&#45;2</title>
<path fill="none" stroke="black" d="M144.31,-382.08C144.31,-368.69 144.38,-353.84 144.46,-341.34"/>
<polygon fill="black" stroke="black" points="147.95,-341.73 144.52,-331.71 140.95,-341.68 147.95,-341.73"/>
</g>
<!-- unexpandableNodes -->
<g id="node11" class="node">
<title>unexpandableNodes</title>
<polygon fill="none" stroke="black" points="749.68,-293.83 749.68,-329.83 803.68,-329.83 803.68,-293.83 749.68,-293.83"/>
<text text-anchor="middle" x="776.56" y="-306.41" font-family="Times New Roman,serif" font-size="14.00"> </text>
</g>
<!-- unmatchableLeafNodes -->
<g id="node12" class="node">
<title>unmatchableLeafNodes</title>
<polygon fill="none" stroke="black" points="849.68,-293.83 849.68,-329.83 903.68,-329.83 903.68,-293.83 849.68,-293.83"/>
<text text-anchor="middle" x="876.56" y="-306.41" font-family="Times New Roman,serif" font-size="14.00"> </text>
</g>
<!-- unmatchableMidProductionNodes -->
<g id="node13" class="node">
<title>unmatchableMidProductionNodes</title>
<polygon fill="none" stroke="black" points="971.68,-293.83 971.68,-329.83 1025.68,-329.83 1025.68,-293.83 971.68,-293.83"/>
<text text-anchor="middle" x="998.56" y="-306.41" font-family="Times New Roman,serif" font-size="14.00"> </text>
</g>
<!-- filteredNodes -->
<g id="node14" class="node">
<title>filteredNodes</title>
<polygon fill="none" stroke="black" points="1120.68,-293.83 1120.68,-329.83 1174.68,-329.83 1174.68,-293.83 1120.68,-293.83"/>
<text text-anchor="middle" x="1147.56" y="-306.41" font-family="Times New Roman,serif" font-size="14.00"> </text>
</g>
<!-- error&#45;&gt;unexpandableNodes -->
<g id="edge11" class="edge">
<title>error&#45;&gt;unexpandableNodes</title>
<path fill="none" stroke="black" d="M904.55,-395.35C866.78,-389.89 808.18,-379.24 792.18,-364.08 785.87,-358.11 782.1,-349.66 779.86,-341.34"/>
<polygon fill="black" stroke="black" points="783.35,-340.93 777.95,-331.81 776.48,-342.31 783.35,-340.93"/>
<text text-anchor="middle" x="830.93" y="-350.78" font-family="Times New Roman,serif" font-size="14.00">unexpandable</text>
</g>
<!-- error&#45;&gt;unmatchableLeafNodes -->
<g id="edge12" class="edge">
<title>error&#45;&gt;unmatchableLeafNodes</title>
<path fill="none" stroke="black" d="M909.51,-390.08C897.51,-384.49 884.69,-376.11 877.68,-364.08 873.75,-357.35 872.4,-349.21 872.31,-341.43"/>
<polygon fill="black" stroke="black" points="875.79,-341.82 872.9,-331.63 868.81,-341.4 875.79,-341.82"/>
<text text-anchor="middle" x="927.18" y="-350.78" font-family="Times New Roman,serif" font-size="14.00">unmatchable leafs</text>
</g>
<!-- error&#45;&gt;unmatchableMidProductionNodes -->
<g id="edge13" class="edge">
<title>error&#45;&gt;unmatchableMidProductionNodes</title>
<path fill="none" stroke="black" d="M956.36,-385.45C963.4,-379.43 971.05,-371.99 976.68,-364.08 981.72,-357.01 985.93,-348.6 989.27,-340.66"/>
<polygon fill="black" stroke="black" points="992.53,-341.93 992.87,-331.34 986,-339.41 992.53,-341.93"/>
<text text-anchor="middle" x="1047.68" y="-350.78" font-family="Times New Roman,serif" font-size="14.00">unmatchable mid&#45;prod</text>
</g>
<!-- error&#45;&gt;filteredNodes -->
<g id="edge14" class="edge">
<title>error&#45;&gt;filteredNodes</title>
<path fill="none" stroke="black" d="M971.99,-400.37C1010.03,-399.62 1071.69,-393.39 1114.68,-364.08 1123.35,-358.17 1130.26,-349.15 1135.47,-340.31"/>
<polygon fill="black" stroke="black" points="1138.51,-342.03 1140.09,-331.56 1132.33,-338.76 1138.51,-342.03"/>
<text text-anchor="middle" x="1148.81" y="-350.78" font-family="Times New Roman,serif" font-size="14.00">filtered</text>
</g>
</g>
</svg>
