<?xml version="1.0" encoding="UTF-8" standalone="no"?>
<!DOCTYPE svg PUBLIC "-//W3C//DTD SVG 1.1//EN"
 "http://www.w3.org/Graphics/SVG/1.1/DTD/svg11.dtd">
<!-- Generated by graphviz version 12.0.0 (20240704.0754)
 -->
<!-- Title: Parser Pages: 1 -->
<svg width="1206pt" height="579pt"
 viewBox="0.00 0.00 1205.68 579.24" xmlns="http://www.w3.org/2000/svg" xmlns:xlink="http://www.w3.org/1999/xlink">
<g id="graph0" class="graph" transform="scale(1 1) rotate(0) translate(4 575.24)">
<title>Parser</title>
<polygon fill="white" stroke="none" points="-4,4 -4,-575.24 1201.68,-575.24 1201.68,4 -4,4"/>
<!-- Parser -->
<g id="node1" class="node">
<title>Parser</title>
<ellipse fill="none" stroke="black" cx="677.68" cy="-521.04" rx="135.41" ry="50.2"/>
<text text-anchor="middle" x="677.68" y="-539.24" font-family="Times New Roman,serif" font-size="14.00">Parser</text>
<text text-anchor="middle" x="677.68" y="-523.49" font-family="Times New Roman,serif" font-size="14.00">Input: &quot;a b x $&quot;</text>
<text text-anchor="middle" x="677.68" y="-507.74" font-family="Times New Roman,serif" font-size="14.00">Location: 2 (&#39;b&#39;)</text>
<text text-anchor="middle" x="677.68" y="-491.99" font-family="Times New Roman,serif" font-size="14.00">Step 11: Found stack to reduce</text>
</g>
<!-- todoLists -->
<g id="node7" class="node">
<title>todoLists</title>
<polygon fill="none" stroke="black" points="110.43,-382.58 110.43,-418.58 514.93,-418.58 514.93,-382.58 110.43,-382.58"/>
<text text-anchor="middle" x="121.81" y="-395.16" font-family="Times New Roman,serif" font-size="14.00">0</text>
<polyline fill="none" stroke="black" points="133.18,-382.58 133.18,-418.58"/>
<text text-anchor="middle" x="144.56" y="-395.16" font-family="Times New Roman,serif" font-size="14.00">1</text>
<polyline fill="none" stroke="black" points="155.93,-382.58 155.93,-418.58"/>
<text text-anchor="middle" x="167.31" y="-395.16" font-family="Times New Roman,serif" font-size="14.00">2</text>
<polyline fill="none" stroke="black" points="178.68,-382.58 178.68,-418.58"/>
<text text-anchor="middle" x="190.06" y="-395.16" font-family="Times New Roman,serif" font-size="14.00">3</text>
<polyline fill="none" stroke="black" points="201.43,-382.58 201.43,-418.58"/>
<text text-anchor="middle" x="212.81" y="-395.16" font-family="Times New Roman,serif" font-size="14.00">4</text>
<polyline fill="none" stroke="black" points="224.18,-382.58 224.18,-418.58"/>
<text text-anchor="middle" x="235.56" y="-395.16" font-family="Times New Roman,serif" font-size="14.00">5</text>
<polyline fill="none" stroke="black" points="246.93,-382.58 246.93,-418.58"/>
<text text-anchor="middle" x="258.31" y="-395.16" font-family="Times New Roman,serif" font-size="14.00">6</text>
<polyline fill="none" stroke="black" points="269.68,-382.58 269.68,-418.58"/>
<text text-anchor="middle" x="281.06" y="-395.16" font-family="Times New Roman,serif" font-size="14.00">7</text>
<polyline fill="none" stroke="black" points="292.43,-382.58 292.43,-418.58"/>
<text text-anchor="middle" x="303.81" y="-395.16" font-family="Times New Roman,serif" font-size="14.00">8</text>
<polyline fill="none" stroke="black" points="315.18,-382.58 315.18,-418.58"/>
<text text-anchor="middle" x="326.56" y="-395.16" font-family="Times New Roman,serif" font-size="14.00">9</text>
<polyline fill="none" stroke="black" points="337.93,-382.58 337.93,-418.58"/>
<text text-anchor="middle" x="352.68" y="-395.16" font-family="Times New Roman,serif" font-size="14.00">10</text>
<polyline fill="none" stroke="black" points="367.43,-382.58 367.43,-418.58"/>
<text text-anchor="middle" x="382.18" y="-395.16" font-family="Times New Roman,serif" font-size="14.00">11</text>
<polyline fill="none" stroke="black" points="396.93,-382.58 396.93,-418.58"/>
<text text-anchor="middle" x="411.68" y="-395.16" font-family="Times New Roman,serif" font-size="14.00">12</text>
<polyline fill="none" stroke="black" points="426.43,-382.58 426.43,-418.58"/>
<text text-anchor="middle" x="441.18" y="-395.16" font-family="Times New Roman,serif" font-size="14.00">13</text>
<polyline fill="none" stroke="black" points="455.93,-382.58 455.93,-418.58"/>
<text text-anchor="middle" x="470.68" y="-395.16" font-family="Times New Roman,serif" font-size="14.00">14</text>
<polyline fill="none" stroke="black" points="485.43,-382.58 485.43,-418.58"/>
<text text-anchor="middle" x="500.18" y="-395.16" font-family="Times New Roman,serif" font-size="14.00">15</text>
</g>
<!-- Parser&#45;&gt;todoLists -->
<g id="edge6" class="edge">
<title>Parser&#45;&gt;todoLists</title>
<path fill="none" stroke="black" d="M576.49,-487.2C512.71,-466.5 432.26,-440.39 377.07,-422.48"/>
<polygon fill="black" stroke="black" points="378.42,-419.24 367.82,-419.48 376.26,-425.9 378.42,-419.24"/>
<text text-anchor="middle" x="488.56" y="-439.53" font-family="Times New Roman,serif" font-size="14.00">todo lists</text>
</g>
<!-- stacksToExpand -->
<g id="node8" class="node">
<title>stacksToExpand</title>
<polygon fill="none" stroke="black" points="532.68,-382.58 532.68,-418.58 586.68,-418.58 586.68,-382.58 532.68,-382.58"/>
<text text-anchor="middle" x="559.56" y="-395.16" font-family="Times New Roman,serif" font-size="14.00"> </text>
</g>
<!-- Parser&#45;&gt;stacksToExpand -->
<g id="edge7" class="edge">
<title>Parser&#45;&gt;stacksToExpand</title>
<path fill="none" stroke="black" d="M605.4,-478.54C595.74,-470.87 586.62,-462.26 579.18,-452.83 573.89,-446.13 569.91,-437.83 566.98,-429.87"/>
<polygon fill="black" stroke="black" points="570.36,-428.95 563.96,-420.5 563.7,-431.1 570.36,-428.95"/>
<text text-anchor="middle" x="626.93" y="-439.53" font-family="Times New Roman,serif" font-size="14.00">stacks to expand</text>
</g>
<!-- terminalsToReduce -->
<g id="node9" class="node">
<title>terminalsToReduce</title>
<polygon fill="none" stroke="black" points="650.68,-382.58 650.68,-418.58 704.68,-418.58 704.68,-382.58 650.68,-382.58"/>
<text text-anchor="middle" x="677.56" y="-395.16" font-family="Times New Roman,serif" font-size="14.00"> </text>
</g>
<!-- Parser&#45;&gt;terminalsToReduce -->
<g id="edge8" class="edge">
<title>Parser&#45;&gt;terminalsToReduce</title>
<path fill="none" stroke="black" d="M677.68,-470.49C677.68,-456.7 677.68,-442.19 677.68,-430.06"/>
<polygon fill="black" stroke="black" points="681.18,-430.36 677.68,-420.36 674.18,-430.36 681.18,-430.36"/>
<text text-anchor="middle" x="730.56" y="-439.53" font-family="Times New Roman,serif" font-size="14.00">terminals to reduce</text>
</g>
<!-- nonTerminalsToReduce -->
<g id="node10" class="node">
<title>nonTerminalsToReduce</title>
<polygon fill="none" stroke="black" points="779.68,-382.58 779.68,-418.58 833.68,-418.58 833.68,-382.58 779.68,-382.58"/>
<text text-anchor="middle" x="806.56" y="-395.16" font-family="Times New Roman,serif" font-size="14.00"> </text>
</g>
<!-- Parser&#45;&gt;nonTerminalsToReduce -->
<g id="edge9" class="edge">
<title>Parser&#45;&gt;nonTerminalsToReduce</title>
<path fill="none" stroke="black" d="M755.03,-479.57C765.87,-471.69 776.2,-462.75 784.68,-452.83 790.48,-446.06 794.95,-437.52 798.31,-429.37"/>
<polygon fill="black" stroke="black" points="801.54,-430.71 801.68,-420.11 794.97,-428.31 801.54,-430.71"/>
<text text-anchor="middle" x="860.31" y="-439.53" font-family="Times New Roman,serif" font-size="14.00">non&#45;terminals to reduce</text>
</g>
<!-- error -->
<g id="node15" class="node">
<title>error</title>
<ellipse fill="none" stroke="black" cx="960.68" cy="-400.58" rx="34.1" ry="18"/>
<text text-anchor="middle" x="960.68" y="-395.16" font-family="Times New Roman,serif" font-size="14.00">Errors</text>
</g>
<!-- Parser&#45;&gt;error -->
<g id="edge10" class="edge">
<title>Parser&#45;&gt;error</title>
<path fill="none" stroke="black" d="M806.61,-505.27C848.94,-495.56 894.19,-479.47 929.68,-452.83 937.93,-446.64 944.44,-437.56 949.32,-428.75"/>
<polygon fill="black" stroke="black" points="952.32,-430.59 953.64,-420.08 946.05,-427.47 952.32,-430.59"/>
<text text-anchor="middle" x="981.18" y="-439.53" font-family="Times New Roman,serif" font-size="14.00">error tracking</text>
</g>
<!-- todo&#45;1 -->
<g id="node2" class="node">
<title>todo&#45;1</title>
<polygon fill="none" stroke="red" points="117.68,-293.83 117.68,-329.83 171.68,-329.83 171.68,-293.83 117.68,-293.83"/>
<text text-anchor="middle" x="144.56" y="-306.41" font-family="Times New Roman,serif" font-size="14.00">0</text>
</g>
<!-- 57 -->
<g id="node3" class="node">
<title>57</title>
<ellipse fill="none" stroke="black" cx="87.68" cy="-213.65" rx="40.48" ry="27.93"/>
<text text-anchor="middle" x="87.68" y="-216.1" font-family="Times New Roman,serif" font-size="14.00">Literal: </text>
<text text-anchor="middle" x="87.68" y="-200.35" font-family="Times New Roman,serif" font-size="14.00">.2@2</text>
</g>
<!-- todo&#45;1&#45;&gt;57 -->
<g id="edge3" class="edge">
<title>todo&#45;1:sw&#45;&gt;57</title>
<path fill="none" stroke="black" d="M117.68,-293.33C106.75,-282.4 99.73,-267.08 95.26,-252.86"/>
<polygon fill="black" stroke="black" points="98.64,-251.95 92.59,-243.25 91.89,-253.82 98.64,-251.95"/>
<text text-anchor="middle" x="120.43" y="-262.03" font-family="Times New Roman,serif" font-size="14.00">Stack</text>
</g>
<!-- 1051927339 -->
<g id="node6" class="node">
<title>1051927339</title>
<polygon fill="none" stroke="black" points="252.79,-206.2 252.79,-221.11 221.68,-231.65 177.68,-231.65 146.57,-221.11 146.57,-206.2 177.68,-195.65 221.68,-195.65 252.79,-206.2"/>
<text text-anchor="middle" x="199.68" y="-208.23" font-family="Times New Roman,serif" font-size="14.00">Literal &quot;b&quot;</text>
</g>
<!-- todo&#45;1&#45;&gt;1051927339 -->
<g id="edge4" class="edge">
<title>todo&#45;1:se&#45;&gt;1051927339</title>
<path fill="none" stroke="black" d="M171.43,-293.33C184.81,-279.96 191.89,-259.8 195.61,-243.24"/>
<polygon fill="black" stroke="black" points="199.05,-243.93 197.49,-233.45 192.17,-242.61 199.05,-243.93"/>
<text text-anchor="middle" x="206.06" y="-262.03" font-family="Times New Roman,serif" font-size="14.00">Node</text>
</g>
<!-- 35 -->
<g id="node4" class="node">
<title>35</title>
<ellipse fill="none" stroke="black" cx="87.68" cy="-120.79" rx="87.68" ry="27.93"/>
<text text-anchor="middle" x="87.68" y="-123.24" font-family="Times New Roman,serif" font-size="14.00">NonTerminal: ABC</text>
<text text-anchor="middle" x="87.68" y="-107.49" font-family="Times New Roman,serif" font-size="14.00">.0@0</text>
</g>
<!-- 57&#45;&gt;35 -->
<g id="edge2" class="edge">
<title>57&#45;&gt;35</title>
<path fill="none" stroke="black" d="M87.68,-185.39C87.68,-177.58 87.68,-168.9 87.68,-160.53"/>
<polygon fill="black" stroke="black" points="91.18,-160.55 87.68,-150.55 84.18,-160.55 91.18,-160.55"/>
</g>
<!-- &#45;1 -->
<g id="node5" class="node">
<title>&#45;1</title>
<ellipse fill="none" stroke="black" cx="87.68" cy="-27.93" rx="73.36" ry="27.93"/>
<text text-anchor="middle" x="87.68" y="-30.38" font-family="Times New Roman,serif" font-size="14.00">NonTerminal: S</text>
<text text-anchor="middle" x="87.68" y="-14.63" font-family="Times New Roman,serif" font-size="14.00">.0@&#45;1</text>
</g>
<!-- 35&#45;&gt;&#45;1 -->
<g id="edge1" class="edge">
<title>35&#45;&gt;&#45;1</title>
<path fill="none" stroke="black" d="M87.68,-92.53C87.68,-84.71 87.68,-76.04 87.68,-67.67"/>
<polygon fill="black" stroke="black" points="91.18,-67.69 87.68,-57.69 84.18,-67.69 91.18,-67.69"/>
</g>
<!-- todoLists&#45;&gt;todo&#45;1 -->
<g id="edge5" class="edge">
<title>todoLists:1&#45;&gt;todo&#45;1</title>
<path fill="none" stroke="black" d="M144.56,-382.08C144.56,-368.69 144.58,-353.84 144.61,-341.34"/>
<polygon fill="black" stroke="black" points="148.11,-341.72 144.63,-331.71 141.11,-341.7 148.11,-341.72"/>
</g>
<!-- unexpandableNodes -->
<g id="node11" class="node">
<title>unexpandableNodes</title>
<polygon fill="none" stroke="black" points="772.68,-293.83 772.68,-329.83 826.68,-329.83 826.68,-293.83 772.68,-293.83"/>
<text text-anchor="middle" x="799.56" y="-306.41" font-family="Times New Roman,serif" font-size="14.00"> </text>
</g>
<!-- unmatchableLeafNodes -->
<g id="node12" class="node">
<title>unmatchableLeafNodes</title>
<polygon fill="none" stroke="black" points="872.68,-293.83 872.68,-329.83 926.68,-329.83 926.68,-293.83 872.68,-293.83"/>
<text text-anchor="middle" x="899.56" y="-306.41" font-family="Times New Roman,serif" font-size="14.00"> </text>
</g>
<!-- unmatchableMidProductionNodes -->
<g id="node13" class="node">
<title>unmatchableMidProductionNodes</title>
<polygon fill="none" stroke="black" points="994.68,-293.83 994.68,-329.83 1048.68,-329.83 1048.68,-293.83 994.68,-293.83"/>
<text text-anchor="middle" x="1021.56" y="-306.41" font-family="Times New Roman,serif" font-size="14.00"> </text>
</g>
<!-- filteredNodes -->
<g id="node14" class="node">
<title>filteredNodes</title>
<polygon fill="none" stroke="black" points="1143.68,-293.83 1143.68,-329.83 1197.68,-329.83 1197.68,-293.83 1143.68,-293.83"/>
<text text-anchor="middle" x="1170.56" y="-306.41" font-family="Times New Roman,serif" font-size="14.00"> </text>
</g>
<!-- error&#45;&gt;unexpandableNodes -->
<g id="edge11" class="edge">
<title>error&#45;&gt;unexpandableNodes</title>
<path fill="none" stroke="black" d="M927.55,-395.35C889.78,-389.89 831.18,-379.24 815.18,-364.08 808.87,-358.11 805.1,-349.66 802.86,-341.34"/>
<polygon fill="black" stroke="black" points="806.35,-340.93 800.95,-331.81 799.48,-342.31 806.35,-340.93"/>
<text text-anchor="middle" x="853.93" y="-350.78" font-family="Times New Roman,serif" font-size="14.00">unexpandable</text>
</g>
<!-- error&#45;&gt;unmatchableLeafNodes -->
<g id="edge12" class="edge">
<title>error&#45;&gt;unmatchableLeafNodes</title>
<path fill="none" stroke="black" d="M932.51,-390.08C920.51,-384.49 907.69,-376.11 900.68,-364.08 896.75,-357.35 895.4,-349.21 895.31,-341.43"/>
<polygon fill="black" stroke="black" points="898.79,-341.82 895.9,-331.63 891.81,-341.4 898.79,-341.82"/>
<text text-anchor="middle" x="950.18" y="-350.78" font-family="Times New Roman,serif" font-size="14.00">unmatchable leafs</text>
</g>
<!-- error&#45;&gt;unmatchableMidProductionNodes -->
<g id="edge13" class="edge">
<title>error&#45;&gt;unmatchableMidProductionNodes</title>
<path fill="none" stroke="black" d="M979.36,-385.45C986.4,-379.43 994.05,-371.99 999.68,-364.08 1004.72,-357.01 1008.93,-348.6 1012.27,-340.66"/>
<polygon fill="black" stroke="black" points="1015.53,-341.93 1015.87,-331.34 1009,-339.41 1015.53,-341.93"/>
<text text-anchor="middle" x="1070.68" y="-350.78" font-family="Times New Roman,serif" font-size="14.00">unmatchable mid&#45;prod</text>
</g>
<!-- error&#45;&gt;filteredNodes -->
<g id="edge14" class="edge">
<title>error&#45;&gt;filteredNodes</title>
<path fill="none" stroke="black" d="M994.99,-400.37C1033.03,-399.62 1094.69,-393.39 1137.68,-364.08 1146.35,-358.17 1153.26,-349.15 1158.47,-340.31"/>
<polygon fill="black" stroke="black" points="1161.51,-342.03 1163.09,-331.56 1155.33,-338.76 1161.51,-342.03"/>
<text text-anchor="middle" x="1171.81" y="-350.78" font-family="Times New Roman,serif" font-size="14.00">filtered</text>
</g>
</g>
</svg>
