<?xml version="1.0" encoding="UTF-8" standalone="no"?>
<!DOCTYPE svg PUBLIC "-//W3C//DTD SVG 1.1//EN"
 "http://www.w3.org/Graphics/SVG/1.1/DTD/svg11.dtd">
<!-- Generated by graphviz version 12.0.0 (20240704.0754)
 -->
<!-- Title: Parser Pages: 1 -->
<svg width="1206pt" height="773pt"
 viewBox="0.00 0.00 1205.71 772.98" xmlns="http://www.w3.org/2000/svg" xmlns:xlink="http://www.w3.org/1999/xlink">
<g id="graph0" class="graph" transform="scale(1 1) rotate(0) translate(4 768.98)">
<title>Parser</title>
<polygon fill="white" stroke="none" points="-4,4 -4,-768.98 1201.71,-768.98 1201.71,4 -4,4"/>
<!-- Parser -->
<g id="node1" class="node">
<title>Parser</title>
<ellipse fill="none" stroke="black" cx="567.25" cy="-714.78" rx="88.21" ry="50.2"/>
<text text-anchor="middle" x="567.25" y="-732.98" font-family="Times New Roman,serif" font-size="14.00">Parser</text>
<text text-anchor="middle" x="567.25" y="-717.23" font-family="Times New Roman,serif" font-size="14.00">Input: &quot;a b x $&quot;</text>
<text text-anchor="middle" x="567.25" y="-701.48" font-family="Times New Roman,serif" font-size="14.00">Location: 4 (&#39;x&#39;)</text>
<text text-anchor="middle" x="567.25" y="-685.73" font-family="Times New Roman,serif" font-size="14.00">Step 19: Expanding</text>
</g>
<!-- todoLists -->
<g id="node2" class="node">
<title>todoLists</title>
<polygon fill="none" stroke="black" points="0,-576.32 0,-612.32 404.5,-612.32 404.5,-576.32 0,-576.32"/>
<text text-anchor="middle" x="11.38" y="-588.9" font-family="Times New Roman,serif" font-size="14.00">0</text>
<polyline fill="none" stroke="black" points="22.75,-576.32 22.75,-612.32"/>
<text text-anchor="middle" x="34.12" y="-588.9" font-family="Times New Roman,serif" font-size="14.00">1</text>
<polyline fill="none" stroke="black" points="45.5,-576.32 45.5,-612.32"/>
<text text-anchor="middle" x="56.88" y="-588.9" font-family="Times New Roman,serif" font-size="14.00">2</text>
<polyline fill="none" stroke="black" points="68.25,-576.32 68.25,-612.32"/>
<text text-anchor="middle" x="79.62" y="-588.9" font-family="Times New Roman,serif" font-size="14.00">3</text>
<polyline fill="none" stroke="black" points="91,-576.32 91,-612.32"/>
<text text-anchor="middle" x="102.38" y="-588.9" font-family="Times New Roman,serif" font-size="14.00">4</text>
<polyline fill="none" stroke="black" points="113.75,-576.32 113.75,-612.32"/>
<text text-anchor="middle" x="125.12" y="-588.9" font-family="Times New Roman,serif" font-size="14.00">5</text>
<polyline fill="none" stroke="black" points="136.5,-576.32 136.5,-612.32"/>
<text text-anchor="middle" x="147.88" y="-588.9" font-family="Times New Roman,serif" font-size="14.00">6</text>
<polyline fill="none" stroke="black" points="159.25,-576.32 159.25,-612.32"/>
<text text-anchor="middle" x="170.62" y="-588.9" font-family="Times New Roman,serif" font-size="14.00">7</text>
<polyline fill="none" stroke="black" points="182,-576.32 182,-612.32"/>
<text text-anchor="middle" x="193.38" y="-588.9" font-family="Times New Roman,serif" font-size="14.00">8</text>
<polyline fill="none" stroke="black" points="204.75,-576.32 204.75,-612.32"/>
<text text-anchor="middle" x="216.12" y="-588.9" font-family="Times New Roman,serif" font-size="14.00">9</text>
<polyline fill="none" stroke="black" points="227.5,-576.32 227.5,-612.32"/>
<text text-anchor="middle" x="242.25" y="-588.9" font-family="Times New Roman,serif" font-size="14.00">10</text>
<polyline fill="none" stroke="black" points="257,-576.32 257,-612.32"/>
<text text-anchor="middle" x="271.75" y="-588.9" font-family="Times New Roman,serif" font-size="14.00">11</text>
<polyline fill="none" stroke="black" points="286.5,-576.32 286.5,-612.32"/>
<text text-anchor="middle" x="301.25" y="-588.9" font-family="Times New Roman,serif" font-size="14.00">12</text>
<polyline fill="none" stroke="black" points="316,-576.32 316,-612.32"/>
<text text-anchor="middle" x="330.75" y="-588.9" font-family="Times New Roman,serif" font-size="14.00">13</text>
<polyline fill="none" stroke="black" points="345.5,-576.32 345.5,-612.32"/>
<text text-anchor="middle" x="360.25" y="-588.9" font-family="Times New Roman,serif" font-size="14.00">14</text>
<polyline fill="none" stroke="black" points="375,-576.32 375,-612.32"/>
<text text-anchor="middle" x="389.75" y="-588.9" font-family="Times New Roman,serif" font-size="14.00">15</text>
</g>
<!-- Parser&#45;&gt;todoLists -->
<g id="edge1" class="edge">
<title>Parser&#45;&gt;todoLists</title>
<path fill="none" stroke="black" d="M491.18,-689.09C424.86,-667.57 329.71,-636.69 266.97,-616.33"/>
<polygon fill="black" stroke="black" points="268.07,-613 257.48,-613.25 265.91,-619.66 268.07,-613"/>
<text text-anchor="middle" x="378.12" y="-633.27" font-family="Times New Roman,serif" font-size="14.00">todo lists</text>
</g>
<!-- stacksToExpand -->
<g id="node3" class="node">
<title>stacksToExpand</title>
<polygon fill="none" stroke="red" points="422.25,-576.32 422.25,-612.32 476.25,-612.32 476.25,-576.32 422.25,-576.32"/>
<text text-anchor="middle" x="449.12" y="-588.9" font-family="Times New Roman,serif" font-size="14.00"> </text>
</g>
<!-- Parser&#45;&gt;stacksToExpand -->
<g id="edge2" class="edge">
<title>Parser&#45;&gt;stacksToExpand</title>
<path fill="none" stroke="black" d="M504.35,-679.33C491.3,-670.01 478.56,-659.01 468.75,-646.57 463.46,-639.87 459.48,-631.57 456.55,-623.61"/>
<polygon fill="black" stroke="black" points="459.93,-622.69 453.53,-614.24 453.27,-624.83 459.93,-622.69"/>
<text text-anchor="middle" x="516.5" y="-633.27" font-family="Times New Roman,serif" font-size="14.00">stacks to expand</text>
</g>
<!-- terminalsToReduce -->
<g id="node4" class="node">
<title>terminalsToReduce</title>
<polygon fill="none" stroke="black" points="540.25,-576.32 540.25,-612.32 594.25,-612.32 594.25,-576.32 540.25,-576.32"/>
<text text-anchor="middle" x="567.12" y="-588.9" font-family="Times New Roman,serif" font-size="14.00"> </text>
</g>
<!-- Parser&#45;&gt;terminalsToReduce -->
<g id="edge3" class="edge">
<title>Parser&#45;&gt;terminalsToReduce</title>
<path fill="none" stroke="black" d="M567.25,-664.23C567.25,-650.44 567.25,-635.93 567.25,-623.8"/>
<polygon fill="black" stroke="black" points="570.75,-624.1 567.25,-614.1 563.75,-624.1 570.75,-624.1"/>
<text text-anchor="middle" x="620.12" y="-633.27" font-family="Times New Roman,serif" font-size="14.00">terminals to reduce</text>
</g>
<!-- nonTerminalsToReduce -->
<g id="node5" class="node">
<title>nonTerminalsToReduce</title>
<polygon fill="none" stroke="black" points="669.25,-576.32 669.25,-612.32 723.25,-612.32 723.25,-576.32 669.25,-576.32"/>
<text text-anchor="middle" x="696.12" y="-588.9" font-family="Times New Roman,serif" font-size="14.00"> </text>
</g>
<!-- Parser&#45;&gt;nonTerminalsToReduce -->
<g id="edge4" class="edge">
<title>Parser&#45;&gt;nonTerminalsToReduce</title>
<path fill="none" stroke="black" d="M633.26,-681.07C648.11,-671.47 662.84,-659.91 674.25,-646.57 680.05,-639.79 684.52,-631.26 687.88,-623.11"/>
<polygon fill="black" stroke="black" points="691.11,-624.45 691.25,-613.85 684.54,-622.05 691.11,-624.45"/>
<text text-anchor="middle" x="749.88" y="-633.27" font-family="Times New Roman,serif" font-size="14.00">non&#45;terminals to reduce</text>
</g>
<!-- error -->
<g id="node17" class="node">
<title>error</title>
<ellipse fill="none" stroke="black" cx="850.25" cy="-594.32" rx="34.1" ry="18"/>
<text text-anchor="middle" x="850.25" y="-588.9" font-family="Times New Roman,serif" font-size="14.00">Errors</text>
</g>
<!-- Parser&#45;&gt;error -->
<g id="edge12" class="edge">
<title>Parser&#45;&gt;error</title>
<path fill="none" stroke="black" d="M654.59,-706.86C706.68,-699 771.71,-682.24 819.25,-646.57 827.5,-640.38 834.01,-631.29 838.89,-622.49"/>
<polygon fill="black" stroke="black" points="841.88,-624.33 843.2,-613.82 835.62,-621.21 841.88,-624.33"/>
<text text-anchor="middle" x="871.75" y="-633.27" font-family="Times New Roman,serif" font-size="14.00">error tracking</text>
</g>
<!-- unexpandableNodes -->
<g id="node6" class="node">
<title>unexpandableNodes</title>
<polygon fill="none" stroke="black" points="662.25,-487.57 662.25,-523.57 716.25,-523.57 716.25,-487.57 662.25,-487.57"/>
<text text-anchor="middle" x="689.12" y="-500.15" font-family="Times New Roman,serif" font-size="14.00"> </text>
</g>
<!-- unmatchableLeafNodes -->
<g id="node7" class="node">
<title>unmatchableLeafNodes</title>
<polygon fill="none" stroke="black" points="762.25,-487.57 762.25,-523.57 816.25,-523.57 816.25,-487.57 762.25,-487.57"/>
<text text-anchor="middle" x="789.12" y="-500.15" font-family="Times New Roman,serif" font-size="14.00"> </text>
</g>
<!-- unmatchableMidProductionNodes -->
<g id="node8" class="node">
<title>unmatchableMidProductionNodes</title>
<polygon fill="none" stroke="black" points="884.25,-487.57 884.25,-523.57 938.25,-523.57 938.25,-487.57 884.25,-487.57"/>
<text text-anchor="middle" x="911.12" y="-500.15" font-family="Times New Roman,serif" font-size="14.00">0</text>
</g>
<!-- unmatchable&#45;mid&#45;production&#45;0 -->
<g id="node9" class="node">
<title>unmatchable&#45;mid&#45;production&#45;0</title>
<polygon fill="none" stroke="black" points="823.62,-413.57 823.62,-449.57 998.88,-449.57 998.88,-413.57 823.62,-413.57"/>
<text text-anchor="middle" x="865.75" y="-426.15" font-family="Times New Roman,serif" font-size="14.00">Failed Node</text>
<polyline fill="none" stroke="black" points="907.88,-413.57 907.88,-449.57"/>
<text text-anchor="middle" x="953.38" y="-426.15" font-family="Times New Roman,serif" font-size="14.00">Predecessors</text>
</g>
<!-- unmatchableMidProductionNodes&#45;&gt;unmatchable&#45;mid&#45;production&#45;0 -->
<g id="edge5" class="edge">
<title>unmatchableMidProductionNodes:0&#45;&gt;unmatchable&#45;mid&#45;production&#45;0</title>
<path fill="none" stroke="black" d="M911.16,-487.15C911.17,-479.31 911.19,-469.98 911.2,-461.27"/>
<polygon fill="black" stroke="black" points="914.7,-461.5 911.22,-451.5 907.7,-461.49 914.7,-461.5"/>
</g>
<!-- 59 -->
<g id="node10" class="node">
<title>59</title>
<ellipse fill="none" stroke="black" cx="816.25" cy="-337" rx="141.77" ry="39.07"/>
<text text-anchor="middle" x="816.25" y="-347.33" font-family="Times New Roman,serif" font-size="14.00">Literal: </text>
<text text-anchor="middle" x="816.25" y="-331.58" font-family="Times New Roman,serif" font-size="14.00">.4@&#45;1</text>
<text text-anchor="middle" x="816.25" y="-315.83" font-family="Times New Roman,serif" font-size="14.00">in: &#39;ABC &#45;&gt; a Layout b Layout c&#39;</text>
</g>
<!-- unmatchable&#45;mid&#45;production&#45;0&#45;&gt;59 -->
<g id="edge10" class="edge">
<title>unmatchable&#45;mid&#45;production&#45;0:failedNode&#45;&gt;59</title>
<path fill="none" stroke="black" d="M822.62,-431.57C802.64,-431.57 800.35,-410.06 803.39,-387.66"/>
<polygon fill="black" stroke="black" points="806.84,-388.27 805.07,-377.82 799.94,-387.09 806.84,-388.27"/>
</g>
<!-- unmatchable&#45;mid&#45;production&#45;predecessors&#45;0 -->
<g id="node11" class="node">
<title>unmatchable&#45;mid&#45;production&#45;predecessors&#45;0</title>
<polygon fill="none" stroke="black" points="976.25,-319 976.25,-355 1030.25,-355 1030.25,-319 976.25,-319"/>
<text text-anchor="middle" x="1003.12" y="-331.58" font-family="Times New Roman,serif" font-size="14.00">0</text>
</g>
<!-- unmatchable&#45;mid&#45;production&#45;0&#45;&gt;unmatchable&#45;mid&#45;production&#45;predecessors&#45;0 -->
<g id="edge11" class="edge">
<title>unmatchable&#45;mid&#45;production&#45;0:predecessors&#45;&gt;unmatchable&#45;mid&#45;production&#45;predecessors&#45;0</title>
<path fill="none" stroke="black" d="M953.38,-413.07C953.38,-402.31 967.77,-381.45 981.09,-364.44"/>
<polygon fill="black" stroke="black" points="983.81,-366.65 987.34,-356.66 978.35,-362.27 983.81,-366.65"/>
</g>
<!-- 58 -->
<g id="node12" class="node">
<title>58</title>
<ellipse fill="none" stroke="black" cx="839.25" cy="-215.95" rx="95.11" ry="27.93"/>
<text text-anchor="middle" x="839.25" y="-218.4" font-family="Times New Roman,serif" font-size="14.00">NonTerminal: Layout</text>
<text text-anchor="middle" x="839.25" y="-202.65" font-family="Times New Roman,serif" font-size="14.00">.3@3</text>
</g>
<!-- unmatchable&#45;mid&#45;production&#45;predecessors&#45;0&#45;&gt;58 -->
<g id="edge8" class="edge">
<title>unmatchable&#45;mid&#45;production&#45;predecessors&#45;0:sw&#45;&gt;58</title>
<path fill="none" stroke="black" d="M976.25,-318C969.34,-311.09 973.65,-305.32 967.25,-297.94 948.71,-276.55 923.14,-258.83 899.72,-245.48"/>
<polygon fill="black" stroke="black" points="901.62,-242.53 891.17,-240.76 898.23,-248.66 901.62,-242.53"/>
<text text-anchor="middle" x="962" y="-266.64" font-family="Times New Roman,serif" font-size="14.00">Stack</text>
</g>
<!-- 197535883 -->
<g id="node15" class="node">
<title>197535883</title>
<polygon fill="none" stroke="black" points="1197.71,-203.43 1197.71,-228.48 1125.97,-246.19 1024.53,-246.19 952.79,-228.48 952.79,-203.43 1024.53,-185.72 1125.97,-185.72 1197.71,-203.43"/>
<text text-anchor="middle" x="1075.25" y="-218.4" font-family="Times New Roman,serif" font-size="14.00">SortContainer 3&#45;4</text>
<text text-anchor="middle" x="1075.25" y="-202.65" font-family="Times New Roman,serif" font-size="14.00">&#39;Layout &#45;&gt; [range(32,32)]&#39;</text>
</g>
<!-- unmatchable&#45;mid&#45;production&#45;predecessors&#45;0&#45;&gt;197535883 -->
<g id="edge9" class="edge">
<title>unmatchable&#45;mid&#45;production&#45;predecessors&#45;0:se&#45;&gt;197535883</title>
<path fill="none" stroke="black" d="M1030,-318C1046.63,-301.38 1057.7,-277.56 1064.72,-257.23"/>
<polygon fill="black" stroke="black" points="1068.03,-258.39 1067.76,-247.8 1061.36,-256.25 1068.03,-258.39"/>
<text text-anchor="middle" x="1076.62" y="-266.64" font-family="Times New Roman,serif" font-size="14.00">Node</text>
</g>
<!-- 35 -->
<g id="node13" class="node">
<title>35</title>
<ellipse fill="none" stroke="black" cx="839.25" cy="-120.79" rx="87.68" ry="27.93"/>
<text text-anchor="middle" x="839.25" y="-123.24" font-family="Times New Roman,serif" font-size="14.00">NonTerminal: ABC</text>
<text text-anchor="middle" x="839.25" y="-107.49" font-family="Times New Roman,serif" font-size="14.00">.0@0</text>
</g>
<!-- 58&#45;&gt;35 -->
<g id="edge7" class="edge">
<title>58&#45;&gt;35</title>
<path fill="none" stroke="black" d="M839.25,-188.01C839.25,-179.39 839.25,-169.68 839.25,-160.4"/>
<polygon fill="black" stroke="black" points="842.75,-160.51 839.25,-150.51 835.75,-160.51 842.75,-160.51"/>
</g>
<!-- &#45;1 -->
<g id="node14" class="node">
<title>&#45;1</title>
<ellipse fill="none" stroke="black" cx="839.25" cy="-27.93" rx="73.36" ry="27.93"/>
<text text-anchor="middle" x="839.25" y="-30.38" font-family="Times New Roman,serif" font-size="14.00">NonTerminal: S</text>
<text text-anchor="middle" x="839.25" y="-14.63" font-family="Times New Roman,serif" font-size="14.00">.0@&#45;1</text>
</g>
<!-- 35&#45;&gt;&#45;1 -->
<g id="edge6" class="edge">
<title>35&#45;&gt;&#45;1</title>
<path fill="none" stroke="black" d="M839.25,-92.53C839.25,-84.71 839.25,-76.04 839.25,-67.67"/>
<polygon fill="black" stroke="black" points="842.75,-67.69 839.25,-57.69 835.75,-67.69 842.75,-67.69"/>
</g>
<!-- filteredNodes -->
<g id="node16" class="node">
<title>filteredNodes</title>
<polygon fill="none" stroke="black" points="1033.25,-487.57 1033.25,-523.57 1087.25,-523.57 1087.25,-487.57 1033.25,-487.57"/>
<text text-anchor="middle" x="1060.12" y="-500.15" font-family="Times New Roman,serif" font-size="14.00"> </text>
</g>
<!-- error&#45;&gt;unexpandableNodes -->
<g id="edge13" class="edge">
<title>error&#45;&gt;unexpandableNodes</title>
<path fill="none" stroke="black" d="M815.76,-593.92C783.35,-592.6 735.52,-585.56 705.75,-557.82 699.26,-551.78 695.32,-543.17 692.92,-534.74"/>
<polygon fill="black" stroke="black" points="696.37,-534.11 690.84,-525.07 689.52,-535.59 696.37,-534.11"/>
<text text-anchor="middle" x="744.5" y="-544.52" font-family="Times New Roman,serif" font-size="14.00">unexpandable</text>
</g>
<!-- error&#45;&gt;unmatchableLeafNodes -->
<g id="edge14" class="edge">
<title>error&#45;&gt;unmatchableLeafNodes</title>
<path fill="none" stroke="black" d="M822.08,-583.82C810.08,-578.23 797.26,-569.85 790.25,-557.82 786.32,-551.08 784.96,-542.95 784.88,-535.17"/>
<polygon fill="black" stroke="black" points="788.36,-535.56 785.47,-525.37 781.38,-535.14 788.36,-535.56"/>
<text text-anchor="middle" x="839.75" y="-544.52" font-family="Times New Roman,serif" font-size="14.00">unmatchable leafs</text>
</g>
<!-- error&#45;&gt;unmatchableMidProductionNodes -->
<g id="edge15" class="edge">
<title>error&#45;&gt;unmatchableMidProductionNodes</title>
<path fill="none" stroke="black" d="M868.93,-579.18C875.97,-573.17 883.62,-565.73 889.25,-557.82 894.29,-550.75 898.5,-542.34 901.84,-534.39"/>
<polygon fill="black" stroke="black" points="905.1,-535.67 905.44,-525.08 898.57,-533.15 905.1,-535.67"/>
<text text-anchor="middle" x="960.25" y="-544.52" font-family="Times New Roman,serif" font-size="14.00">unmatchable mid&#45;prod</text>
</g>
<!-- error&#45;&gt;filteredNodes -->
<g id="edge16" class="edge">
<title>error&#45;&gt;filteredNodes</title>
<path fill="none" stroke="black" d="M884.56,-594.11C922.6,-593.35 984.26,-587.13 1027.25,-557.82 1035.92,-551.91 1042.83,-542.89 1048.04,-534.05"/>
<polygon fill="black" stroke="black" points="1051.08,-535.77 1052.66,-525.3 1044.9,-532.5 1051.08,-535.77"/>
<text text-anchor="middle" x="1061.38" y="-544.52" font-family="Times New Roman,serif" font-size="14.00">filtered</text>
</g>
</g>
</svg>
