<?xml version="1.0" encoding="UTF-8" standalone="no"?>
<!DOCTYPE svg PUBLIC "-//W3C//DTD SVG 1.1//EN"
 "http://www.w3.org/Graphics/SVG/1.1/DTD/svg11.dtd">
<!-- Generated by graphviz version 12.0.0 (20240704.0754)
 -->
<!-- Title: Parser Pages: 1 -->
<svg width="960pt" height="898pt"
 viewBox="0.00 0.00 960.02 897.69" xmlns="http://www.w3.org/2000/svg" xmlns:xlink="http://www.w3.org/1999/xlink">
<g id="graph0" class="graph" transform="scale(1 1) rotate(0) translate(4 893.69)">
<title>Parser</title>
<polygon fill="white" stroke="none" points="-4,4 -4,-893.69 956.02,-893.69 956.02,4 -4,4"/>
<!-- Parser -->
<g id="node1" class="node">
<title>Parser</title>
<ellipse fill="none" stroke="black" cx="624.77" cy="-839.49" rx="131.17" ry="50.2"/>
<text text-anchor="middle" x="624.77" y="-857.69" font-family="Times New Roman,serif" font-size="14.00">Parser</text>
<text text-anchor="middle" x="624.77" y="-841.94" font-family="Times New Roman,serif" font-size="14.00">Input: &quot;a b x $&quot;</text>
<text text-anchor="middle" x="624.77" y="-826.19" font-family="Times New Roman,serif" font-size="14.00">Location: 4 (&#39;x&#39;)</text>
<text text-anchor="middle" x="624.77" y="-810.44" font-family="Times New Roman,serif" font-size="14.00">Step 24: Queue recovery node</text>
</g>
<!-- todoLists -->
<g id="node8" class="node">
<title>todoLists</title>
<polygon fill="none" stroke="black" points="45.52,-701.03 45.52,-737.03 450.02,-737.03 450.02,-701.03 45.52,-701.03"/>
<text text-anchor="middle" x="56.9" y="-713.61" font-family="Times New Roman,serif" font-size="14.00">0</text>
<polyline fill="none" stroke="black" points="68.27,-701.03 68.27,-737.03"/>
<text text-anchor="middle" x="79.65" y="-713.61" font-family="Times New Roman,serif" font-size="14.00">1</text>
<polyline fill="none" stroke="black" points="91.02,-701.03 91.02,-737.03"/>
<text text-anchor="middle" x="102.4" y="-713.61" font-family="Times New Roman,serif" font-size="14.00">2</text>
<polyline fill="none" stroke="black" points="113.77,-701.03 113.77,-737.03"/>
<text text-anchor="middle" x="125.15" y="-713.61" font-family="Times New Roman,serif" font-size="14.00">3</text>
<polyline fill="none" stroke="black" points="136.52,-701.03 136.52,-737.03"/>
<text text-anchor="middle" x="147.9" y="-713.61" font-family="Times New Roman,serif" font-size="14.00">4</text>
<polyline fill="none" stroke="black" points="159.27,-701.03 159.27,-737.03"/>
<text text-anchor="middle" x="170.65" y="-713.61" font-family="Times New Roman,serif" font-size="14.00">5</text>
<polyline fill="none" stroke="black" points="182.02,-701.03 182.02,-737.03"/>
<text text-anchor="middle" x="193.4" y="-713.61" font-family="Times New Roman,serif" font-size="14.00">6</text>
<polyline fill="none" stroke="black" points="204.77,-701.03 204.77,-737.03"/>
<text text-anchor="middle" x="216.15" y="-713.61" font-family="Times New Roman,serif" font-size="14.00">7</text>
<polyline fill="none" stroke="black" points="227.52,-701.03 227.52,-737.03"/>
<text text-anchor="middle" x="238.9" y="-713.61" font-family="Times New Roman,serif" font-size="14.00">8</text>
<polyline fill="none" stroke="black" points="250.27,-701.03 250.27,-737.03"/>
<text text-anchor="middle" x="261.65" y="-713.61" font-family="Times New Roman,serif" font-size="14.00">9</text>
<polyline fill="none" stroke="black" points="273.02,-701.03 273.02,-737.03"/>
<text text-anchor="middle" x="287.77" y="-713.61" font-family="Times New Roman,serif" font-size="14.00">10</text>
<polyline fill="none" stroke="black" points="302.52,-701.03 302.52,-737.03"/>
<text text-anchor="middle" x="317.27" y="-713.61" font-family="Times New Roman,serif" font-size="14.00">11</text>
<polyline fill="none" stroke="black" points="332.02,-701.03 332.02,-737.03"/>
<text text-anchor="middle" x="346.77" y="-713.61" font-family="Times New Roman,serif" font-size="14.00">12</text>
<polyline fill="none" stroke="black" points="361.52,-701.03 361.52,-737.03"/>
<text text-anchor="middle" x="376.27" y="-713.61" font-family="Times New Roman,serif" font-size="14.00">13</text>
<polyline fill="none" stroke="black" points="391.02,-701.03 391.02,-737.03"/>
<text text-anchor="middle" x="405.77" y="-713.61" font-family="Times New Roman,serif" font-size="14.00">14</text>
<polyline fill="none" stroke="black" points="420.52,-701.03 420.52,-737.03"/>
<text text-anchor="middle" x="435.27" y="-713.61" font-family="Times New Roman,serif" font-size="14.00">15</text>
</g>
<!-- Parser&#45;&gt;todoLists -->
<g id="edge7" class="edge">
<title>Parser&#45;&gt;todoLists</title>
<path fill="none" stroke="black" d="M524.24,-806.9C457.74,-786 372.42,-759.19 314.27,-740.92"/>
<polygon fill="black" stroke="black" points="315.41,-737.61 304.82,-737.95 313.31,-744.29 315.41,-737.61"/>
<text text-anchor="middle" x="427.65" y="-757.98" font-family="Times New Roman,serif" font-size="14.00">todo lists</text>
</g>
<!-- stacksToExpand -->
<g id="node9" class="node">
<title>stacksToExpand</title>
<polygon fill="none" stroke="black" points="695.77,-701.03 695.77,-737.03 749.77,-737.03 749.77,-701.03 695.77,-701.03"/>
<text text-anchor="middle" x="722.65" y="-713.61" font-family="Times New Roman,serif" font-size="14.00"> </text>
</g>
<!-- Parser&#45;&gt;stacksToExpand -->
<g id="edge8" class="edge">
<title>Parser&#45;&gt;stacksToExpand</title>
<path fill="none" stroke="black" d="M681.26,-793.77C688.35,-786.71 695.1,-779.13 700.77,-771.28 705.87,-764.24 710.09,-755.84 713.43,-747.9"/>
<polygon fill="black" stroke="black" points="716.69,-749.17 717.02,-738.58 710.16,-746.65 716.69,-749.17"/>
<text text-anchor="middle" x="756.02" y="-757.98" font-family="Times New Roman,serif" font-size="14.00">stacks to expand</text>
</g>
<!-- terminalsToReduce -->
<g id="node10" class="node">
<title>terminalsToReduce</title>
<polygon fill="none" stroke="black" points="401.77,-612.28 401.77,-648.28 455.77,-648.28 455.77,-612.28 401.77,-612.28"/>
<text text-anchor="middle" x="428.65" y="-624.86" font-family="Times New Roman,serif" font-size="14.00">0</text>
</g>
<!-- Parser&#45;&gt;terminalsToReduce -->
<g id="edge11" class="edge">
<title>Parser&#45;&gt;terminalsToReduce</title>
<path fill="none" stroke="black" d="M560.24,-795.33C538.11,-778.77 514.13,-758.73 495.02,-737.53 473.29,-713.42 454.37,-681.28 442.37,-658.68"/>
<polygon fill="black" stroke="black" points="445.62,-657.34 437.91,-650.08 439.41,-660.57 445.62,-657.34"/>
<text text-anchor="middle" x="547.65" y="-713.61" font-family="Times New Roman,serif" font-size="14.00">terminals to reduce</text>
</g>
<!-- nonTerminalsToReduce -->
<g id="node11" class="node">
<title>nonTerminalsToReduce</title>
<polygon fill="none" stroke="black" points="813.77,-701.03 813.77,-737.03 867.77,-737.03 867.77,-701.03 813.77,-701.03"/>
<text text-anchor="middle" x="840.65" y="-713.61" font-family="Times New Roman,serif" font-size="14.00"> </text>
</g>
<!-- Parser&#45;&gt;nonTerminalsToReduce -->
<g id="edge12" class="edge">
<title>Parser&#45;&gt;nonTerminalsToReduce</title>
<path fill="none" stroke="black" d="M733.93,-811.41C759.88,-801.6 786.25,-788.52 807.77,-771.28 815.85,-764.81 822.57,-755.81 827.79,-747.16"/>
<polygon fill="black" stroke="black" points="830.72,-749.1 832.49,-738.65 824.59,-745.71 830.72,-749.1"/>
<text text-anchor="middle" x="886.4" y="-757.98" font-family="Times New Roman,serif" font-size="14.00">non&#45;terminals to reduce</text>
</g>
<!-- error -->
<g id="node21" class="node">
<title>error</title>
<ellipse fill="none" stroke="black" cx="643.77" cy="-719.03" rx="34.1" ry="18"/>
<text text-anchor="middle" x="643.77" y="-713.61" font-family="Times New Roman,serif" font-size="14.00">Errors</text>
</g>
<!-- Parser&#45;&gt;error -->
<g id="edge19" class="edge">
<title>Parser&#45;&gt;error</title>
<path fill="none" stroke="black" d="M621.69,-788.89C622.02,-777.79 623.17,-766.16 625.77,-755.53 626.51,-752.55 627.53,-749.54 628.71,-746.59"/>
<polygon fill="black" stroke="black" points="631.77,-748.3 632.87,-737.76 625.44,-745.32 631.77,-748.3"/>
<text text-anchor="middle" x="663.27" y="-757.98" font-family="Times New Roman,serif" font-size="14.00">error tracking</text>
</g>
<!-- todo&#45;2 -->
<g id="node2" class="node">
<title>todo&#45;2</title>
<polygon fill="none" stroke="black" points="141.77,-612.28 141.77,-648.28 195.77,-648.28 195.77,-612.28 141.77,-612.28"/>
<text text-anchor="middle" x="168.65" y="-624.86" font-family="Times New Roman,serif" font-size="14.00">0</text>
</g>
<!-- 1610612734 -->
<g id="node3" class="node">
<title>1610612734</title>
<ellipse fill="none" stroke="black" cx="141.77" cy="-517.74" rx="141.77" ry="39.07"/>
<text text-anchor="middle" x="141.77" y="-528.07" font-family="Times New Roman,serif" font-size="14.00">Skipping: </text>
<text text-anchor="middle" x="141.77" y="-512.32" font-family="Times New Roman,serif" font-size="14.00">.0@4</text>
<text text-anchor="middle" x="141.77" y="-496.57" font-family="Times New Roman,serif" font-size="14.00">in: &#39;ABC &#45;&gt; a Layout b Layout c&#39;</text>
</g>
<!-- todo&#45;2&#45;&gt;1610612734 -->
<g id="edge4" class="edge">
<title>todo&#45;2:sw&#45;&gt;1610612734</title>
<path fill="none" stroke="black" d="M141.77,-611.78C130.56,-600.57 127.95,-584.27 128.99,-568.44"/>
<polygon fill="black" stroke="black" points="132.46,-568.92 130.15,-558.58 125.51,-568.11 132.46,-568.92"/>
<text text-anchor="middle" x="147.52" y="-580.48" font-family="Times New Roman,serif" font-size="14.00">Stack</text>
</g>
<!-- 1637411253 -->
<g id="node7" class="node">
<title>1637411253</title>
<polygon fill="none" stroke="black" points="608.23,-500.23 608.23,-535.26 518.34,-560.03 391.21,-560.03 301.32,-535.26 301.32,-500.23 391.21,-475.46 518.34,-475.46 608.23,-500.23"/>
<text text-anchor="middle" x="454.77" y="-528.07" font-family="Times New Roman,serif" font-size="14.00">Skipped</text>
<text text-anchor="middle" x="454.77" y="-512.32" font-family="Times New Roman,serif" font-size="14.00">.4@4: &#160;&quot;x&quot;</text>
<text text-anchor="middle" x="454.77" y="-496.57" font-family="Times New Roman,serif" font-size="14.00">in: &#39;ABC &#45;&gt; a Layout b Layout c&#39;</text>
</g>
<!-- todo&#45;2&#45;&gt;1637411253 -->
<g id="edge5" class="edge">
<title>todo&#45;2:se&#45;&gt;1637411253</title>
<path fill="none" stroke="black" d="M195.52,-611.78C216.37,-590.93 277.3,-568.58 334.85,-551.01"/>
<polygon fill="black" stroke="black" points="335.53,-554.46 344.1,-548.22 333.51,-547.76 335.53,-554.46"/>
<text text-anchor="middle" x="267.15" y="-580.48" font-family="Times New Roman,serif" font-size="14.00">Node</text>
</g>
<!-- 1610612733 -->
<g id="node4" class="node">
<title>1610612733</title>
<ellipse fill="none" stroke="black" cx="401.77" cy="-303.25" rx="141.77" ry="39.07"/>
<text text-anchor="middle" x="401.77" y="-313.58" font-family="Times New Roman,serif" font-size="14.00">RecoveryPoint: 1610612733</text>
<text text-anchor="middle" x="401.77" y="-297.83" font-family="Times New Roman,serif" font-size="14.00">.4@4</text>
<text text-anchor="middle" x="401.77" y="-282.08" font-family="Times New Roman,serif" font-size="14.00">in: &#39;ABC &#45;&gt; a Layout b Layout c&#39;</text>
</g>
<!-- 1610612734&#45;&gt;1610612733 -->
<g id="edge3" class="edge">
<title>1610612734&#45;&gt;1610612733</title>
<path fill="none" stroke="black" d="M186.47,-480.22C231.44,-443.46 300.79,-386.79 348.57,-347.74"/>
<polygon fill="black" stroke="black" points="350.53,-350.66 356.06,-341.62 346.1,-345.24 350.53,-350.66"/>
</g>
<!-- 35 -->
<g id="node5" class="node">
<title>35</title>
<ellipse fill="none" stroke="black" cx="425.77" cy="-120.79" rx="87.68" ry="27.93"/>
<text text-anchor="middle" x="425.77" y="-123.24" font-family="Times New Roman,serif" font-size="14.00">NonTerminal: ABC</text>
<text text-anchor="middle" x="425.77" y="-107.49" font-family="Times New Roman,serif" font-size="14.00">.0@0</text>
</g>
<!-- 1610612733&#45;&gt;35 -->
<g id="edge2" class="edge">
<title>1610612733&#45;&gt;35</title>
<path fill="none" stroke="black" d="M406.86,-263.98C410.93,-233.43 416.59,-190.83 420.66,-160.23"/>
<polygon fill="black" stroke="black" points="424.09,-161.02 421.94,-150.65 417.15,-160.1 424.09,-161.02"/>
</g>
<!-- &#45;1 -->
<g id="node6" class="node">
<title>&#45;1</title>
<ellipse fill="none" stroke="black" cx="425.77" cy="-27.93" rx="73.36" ry="27.93"/>
<text text-anchor="middle" x="425.77" y="-30.38" font-family="Times New Roman,serif" font-size="14.00">NonTerminal: S</text>
<text text-anchor="middle" x="425.77" y="-14.63" font-family="Times New Roman,serif" font-size="14.00">.0@&#45;1</text>
</g>
<!-- 35&#45;&gt;&#45;1 -->
<g id="edge1" class="edge">
<title>35&#45;&gt;&#45;1</title>
<path fill="none" stroke="black" d="M425.77,-92.53C425.77,-84.71 425.77,-76.04 425.77,-67.67"/>
<polygon fill="black" stroke="black" points="429.28,-67.69 425.77,-57.69 422.28,-67.69 429.28,-67.69"/>
</g>
<!-- todoLists&#45;&gt;todo&#45;2 -->
<g id="edge6" class="edge">
<title>todoLists:2&#45;&gt;todo&#45;2</title>
<path fill="none" stroke="black" d="M102.4,-700.53C102.4,-680.62 116.87,-664.21 132.3,-652.36"/>
<polygon fill="black" stroke="black" points="134.02,-655.44 140.16,-646.8 129.97,-649.72 134.02,-655.44"/>
</g>
<!-- terminalsToReduce&#45;&gt;1610612734 -->
<g id="edge9" class="edge">
<title>terminalsToReduce:sw&#45;&gt;1610612734</title>
<path fill="none" stroke="black" d="M401.77,-611.78C379.91,-589.91 314.06,-566.46 254.1,-548.57"/>
<polygon fill="black" stroke="black" points="255.41,-545.31 244.83,-545.84 253.43,-552.02 255.41,-545.31"/>
<text text-anchor="middle" x="390.52" y="-580.48" font-family="Times New Roman,serif" font-size="14.00">Stack</text>
</g>
<!-- terminalsToReduce&#45;&gt;1637411253 -->
<g id="edge10" class="edge">
<title>terminalsToReduce:se&#45;&gt;1637411253</title>
<path fill="none" stroke="black" d="M455.52,-611.78C465.99,-601.31 468.87,-586.42 468.25,-571.61"/>
<polygon fill="black" stroke="black" points="471.75,-571.49 467.31,-561.88 464.79,-572.17 471.75,-571.49"/>
<text text-anchor="middle" x="483.15" y="-580.48" font-family="Times New Roman,serif" font-size="14.00">Node</text>
</g>
<!-- unexpandableNodes -->
<g id="node12" class="node">
<title>unexpandableNodes</title>
<polygon fill="none" stroke="black" points="824.77,-612.28 824.77,-648.28 878.77,-648.28 878.77,-612.28 824.77,-612.28"/>
<text text-anchor="middle" x="851.65" y="-624.86" font-family="Times New Roman,serif" font-size="14.00"> </text>
</g>
<!-- unmatchableLeafNodes -->
<g id="node13" class="node">
<title>unmatchableLeafNodes</title>
<polygon fill="none" stroke="black" points="492.77,-612.28 492.77,-648.28 546.77,-648.28 546.77,-612.28 492.77,-612.28"/>
<text text-anchor="middle" x="519.65" y="-624.86" font-family="Times New Roman,serif" font-size="14.00"> </text>
</g>
<!-- unmatchableMidProductionNodes -->
<g id="node14" class="node">
<title>unmatchableMidProductionNodes</title>
<polygon fill="none" stroke="black" points="686.77,-612.28 686.77,-648.28 740.77,-648.28 740.77,-612.28 686.77,-612.28"/>
<text text-anchor="middle" x="713.65" y="-624.86" font-family="Times New Roman,serif" font-size="14.00">0</text>
</g>
<!-- unmatchable&#45;mid&#45;production&#45;0 -->
<g id="node15" class="node">
<title>unmatchable&#45;mid&#45;production&#45;0</title>
<polygon fill="none" stroke="black" points="626.15,-499.74 626.15,-535.74 801.4,-535.74 801.4,-499.74 626.15,-499.74"/>
<text text-anchor="middle" x="668.27" y="-512.32" font-family="Times New Roman,serif" font-size="14.00">Failed Node</text>
<polyline fill="none" stroke="black" points="710.4,-499.74 710.4,-535.74"/>
<text text-anchor="middle" x="755.9" y="-512.32" font-family="Times New Roman,serif" font-size="14.00">Predecessors</text>
</g>
<!-- unmatchableMidProductionNodes&#45;&gt;unmatchable&#45;mid&#45;production&#45;0 -->
<g id="edge13" class="edge">
<title>unmatchableMidProductionNodes:0&#45;&gt;unmatchable&#45;mid&#45;production&#45;0</title>
<path fill="none" stroke="black" d="M713.67,-611.86C713.69,-594.36 713.72,-567.77 713.74,-547.48"/>
<polygon fill="black" stroke="black" points="717.24,-547.6 713.75,-537.6 710.24,-547.6 717.24,-547.6"/>
</g>
<!-- 59 -->
<g id="node16" class="node">
<title>59</title>
<ellipse fill="none" stroke="black" cx="568.77" cy="-399.39" rx="141.77" ry="39.07"/>
<text text-anchor="middle" x="568.77" y="-409.71" font-family="Times New Roman,serif" font-size="14.00">Literal: </text>
<text text-anchor="middle" x="568.77" y="-393.96" font-family="Times New Roman,serif" font-size="14.00">.4@&#45;1</text>
<text text-anchor="middle" x="568.77" y="-378.21" font-family="Times New Roman,serif" font-size="14.00">in: &#39;ABC &#45;&gt; a Layout b Layout c&#39;</text>
</g>
<!-- unmatchable&#45;mid&#45;production&#45;0&#45;&gt;59 -->
<g id="edge17" class="edge">
<title>unmatchable&#45;mid&#45;production&#45;0:failedNode&#45;&gt;59</title>
<path fill="none" stroke="black" d="M625.15,-517.74C615.57,-517.74 620.35,-484.35 616.77,-475.46 612.96,-465.97 607.92,-456.38 602.53,-447.37"/>
<polygon fill="black" stroke="black" points="605.66,-445.77 597.4,-439.14 599.72,-449.47 605.66,-445.77"/>
</g>
<!-- unmatchable&#45;mid&#45;production&#45;predecessors&#45;0 -->
<g id="node17" class="node">
<title>unmatchable&#45;mid&#45;production&#45;predecessors&#45;0</title>
<polygon fill="none" stroke="black" points="728.77,-381.39 728.77,-417.39 782.77,-417.39 782.77,-381.39 728.77,-381.39"/>
<text text-anchor="middle" x="755.65" y="-393.96" font-family="Times New Roman,serif" font-size="14.00">0</text>
</g>
<!-- unmatchable&#45;mid&#45;production&#45;0&#45;&gt;unmatchable&#45;mid&#45;production&#45;predecessors&#45;0 -->
<g id="edge18" class="edge">
<title>unmatchable&#45;mid&#45;production&#45;0:predecessors&#45;&gt;unmatchable&#45;mid&#45;production&#45;predecessors&#45;0</title>
<path fill="none" stroke="black" d="M755.9,-498.74C755.9,-475.38 755.86,-448.9 755.83,-429.3"/>
<polygon fill="black" stroke="black" points="759.33,-429.31 755.81,-419.31 752.33,-429.32 759.33,-429.31"/>
</g>
<!-- 58 -->
<g id="node18" class="node">
<title>58</title>
<ellipse fill="none" stroke="black" cx="542.77" cy="-215.95" rx="95.11" ry="27.93"/>
<text text-anchor="middle" x="542.77" y="-218.4" font-family="Times New Roman,serif" font-size="14.00">NonTerminal: Layout</text>
<text text-anchor="middle" x="542.77" y="-202.65" font-family="Times New Roman,serif" font-size="14.00">.3@3</text>
</g>
<!-- unmatchable&#45;mid&#45;production&#45;predecessors&#45;0&#45;&gt;58 -->
<g id="edge15" class="edge">
<title>unmatchable&#45;mid&#45;production&#45;predecessors&#45;0:sw&#45;&gt;58</title>
<path fill="none" stroke="black" d="M728.77,-380.39C721.86,-373.48 725.74,-368.07 719.77,-360.32 684.43,-314.38 631.53,-274.05 592.77,-247.96"/>
<polygon fill="black" stroke="black" points="594.77,-245.09 584.5,-242.48 590.9,-250.92 594.77,-245.09"/>
<text text-anchor="middle" x="719.52" y="-297.83" font-family="Times New Roman,serif" font-size="14.00">Stack</text>
</g>
<!-- 197535883 -->
<g id="node19" class="node">
<title>197535883</title>
<polygon fill="none" stroke="black" points="904.23,-203.43 904.23,-228.48 832.5,-246.19 731.05,-246.19 659.32,-228.48 659.32,-203.43 731.05,-185.72 832.5,-185.72 904.23,-203.43"/>
<text text-anchor="middle" x="781.77" y="-218.4" font-family="Times New Roman,serif" font-size="14.00">SortContainer 3&#45;4</text>
<text text-anchor="middle" x="781.77" y="-202.65" font-family="Times New Roman,serif" font-size="14.00">&#39;Layout &#45;&gt; [range(32,32)]&#39;</text>
</g>
<!-- unmatchable&#45;mid&#45;production&#45;predecessors&#45;0&#45;&gt;197535883 -->
<g id="edge16" class="edge">
<title>unmatchable&#45;mid&#45;production&#45;predecessors&#45;0:se&#45;&gt;197535883</title>
<path fill="none" stroke="black" d="M782.52,-380.39C813.98,-348.93 806.63,-294.71 796.2,-257.4"/>
<polygon fill="black" stroke="black" points="799.56,-256.43 793.34,-247.86 792.86,-258.44 799.56,-256.43"/>
<text text-anchor="middle" x="820.15" y="-297.83" font-family="Times New Roman,serif" font-size="14.00">Node</text>
</g>
<!-- 58&#45;&gt;35 -->
<g id="edge14" class="edge">
<title>58&#45;&gt;35</title>
<path fill="none" stroke="black" d="M510.49,-189.25C496.83,-178.37 480.75,-165.57 466.3,-154.06"/>
<polygon fill="black" stroke="black" points="468.73,-151.52 458.73,-148.03 464.37,-157 468.73,-151.52"/>
</g>
<!-- filteredNodes -->
<g id="node20" class="node">
<title>filteredNodes</title>
<polygon fill="none" stroke="black" points="614.77,-612.28 614.77,-648.28 668.77,-648.28 668.77,-612.28 614.77,-612.28"/>
<text text-anchor="middle" x="641.65" y="-624.86" font-family="Times New Roman,serif" font-size="14.00"> </text>
</g>
<!-- error&#45;&gt;unexpandableNodes -->
<g id="edge20" class="edge">
<title>error&#45;&gt;unexpandableNodes</title>
<path fill="none" stroke="black" d="M668.87,-706.57C674.66,-704.28 680.85,-702.1 686.77,-700.53 745.28,-685 771.37,-716.05 821.77,-682.53 830.41,-676.79 836.9,-667.64 841.58,-658.65"/>
<polygon fill="black" stroke="black" points="844.67,-660.31 845.65,-649.77 838.31,-657.4 844.67,-660.31"/>
<text text-anchor="middle" x="874.02" y="-669.23" font-family="Times New Roman,serif" font-size="14.00">unexpandable</text>
</g>
<!-- error&#45;&gt;unmatchableLeafNodes -->
<g id="edge21" class="edge">
<title>error&#45;&gt;unmatchableLeafNodes</title>
<path fill="none" stroke="black" d="M616.43,-707.83C609.7,-705.38 602.49,-702.81 595.77,-700.53 570.62,-691.98 558.02,-700.85 538.77,-682.53 532.35,-676.41 528.08,-667.93 525.25,-659.62"/>
<polygon fill="black" stroke="black" points="528.66,-658.81 522.63,-650.1 521.91,-660.67 528.66,-658.81"/>
<text text-anchor="middle" x="588.27" y="-669.23" font-family="Times New Roman,serif" font-size="14.00">unmatchable leafs</text>
</g>
<!-- error&#45;&gt;unmatchableMidProductionNodes -->
<g id="edge22" class="edge">
<title>error&#45;&gt;unmatchableMidProductionNodes</title>
<path fill="none" stroke="black" d="M660.82,-703.25C667.4,-697.15 674.78,-689.81 680.77,-682.53 686.93,-675.06 692.89,-666.4 698.02,-658.34"/>
<polygon fill="black" stroke="black" points="700.96,-660.23 703.23,-649.88 695,-656.56 700.96,-660.23"/>
<text text-anchor="middle" x="754.77" y="-669.23" font-family="Times New Roman,serif" font-size="14.00">unmatchable mid&#45;prod</text>
</g>
<!-- error&#45;&gt;filteredNodes -->
<g id="edge23" class="edge">
<title>error&#45;&gt;filteredNodes</title>
<path fill="none" stroke="black" d="M643.09,-700.7C642.89,-694.92 642.67,-688.45 642.52,-682.53 642.34,-675.15 642.2,-667.16 642.09,-659.75"/>
<polygon fill="black" stroke="black" points="645.59,-659.83 641.96,-649.88 638.59,-659.92 645.59,-659.83"/>
<text text-anchor="middle" x="660.9" y="-669.23" font-family="Times New Roman,serif" font-size="14.00">filtered</text>
</g>
</g>
</svg>
