<?xml version="1.0" encoding="UTF-8" standalone="no"?>
<!DOCTYPE svg PUBLIC "-//W3C//DTD SVG 1.1//EN"
 "http://www.w3.org/Graphics/SVG/1.1/DTD/svg11.dtd">
<!-- Generated by graphviz version 12.0.0 (20240704.0754)
 -->
<!-- Title: Parser Pages: 1 -->
<svg width="1434pt" height="975pt"
 viewBox="0.00 0.00 1433.78 974.82" xmlns="http://www.w3.org/2000/svg" xmlns:xlink="http://www.w3.org/1999/xlink">
<g id="graph0" class="graph" transform="scale(1 1) rotate(0) translate(4 970.82)">
<title>Parser</title>
<polygon fill="white" stroke="none" points="-4,4 -4,-970.82 1429.78,-970.82 1429.78,4 -4,4"/>
<!-- Parser -->
<g id="node1" class="node">
<title>Parser</title>
<ellipse fill="none" stroke="black" cx="970.32" cy="-916.62" rx="143.37" ry="50.2"/>
<text text-anchor="middle" x="970.32" y="-934.82" font-family="Times New Roman,serif" font-size="14.00">Parser</text>
<text text-anchor="middle" x="970.32" y="-919.07" font-family="Times New Roman,serif" font-size="14.00">Input: &quot;a b x $&quot;</text>
<text text-anchor="middle" x="970.32" y="-903.32" font-family="Times New Roman,serif" font-size="14.00">Location: 0 (&#39;x&#39;)</text>
<text text-anchor="middle" x="970.32" y="-887.57" font-family="Times New Roman,serif" font-size="14.00">Step 25: Finding stacks to reduce</text>
</g>
<!-- todoLists -->
<g id="node7" class="node">
<title>todoLists</title>
<polygon fill="none" stroke="red" points="292.32,-778.17 292.32,-814.17 844.32,-814.17 844.32,-778.17 292.32,-778.17"/>
<text text-anchor="middle" x="303.69" y="-790.74" font-family="Times New Roman,serif" font-size="14.00">0</text>
<polyline fill="none" stroke="red" points="315.07,-778.17 315.07,-814.17"/>
<text text-anchor="middle" x="326.44" y="-790.74" font-family="Times New Roman,serif" font-size="14.00">1</text>
<polyline fill="none" stroke="red" points="337.82,-778.17 337.82,-814.17"/>
<text text-anchor="middle" x="349.19" y="-790.74" font-family="Times New Roman,serif" font-size="14.00">2</text>
<polyline fill="none" stroke="red" points="360.57,-778.17 360.57,-814.17"/>
<text text-anchor="middle" x="371.94" y="-790.74" font-family="Times New Roman,serif" font-size="14.00">3</text>
<polyline fill="none" stroke="red" points="383.32,-778.17 383.32,-814.17"/>
<text text-anchor="middle" x="394.69" y="-790.74" font-family="Times New Roman,serif" font-size="14.00">4</text>
<polyline fill="none" stroke="red" points="406.07,-778.17 406.07,-814.17"/>
<text text-anchor="middle" x="417.44" y="-790.74" font-family="Times New Roman,serif" font-size="14.00">5</text>
<polyline fill="none" stroke="red" points="428.82,-778.17 428.82,-814.17"/>
<text text-anchor="middle" x="440.19" y="-790.74" font-family="Times New Roman,serif" font-size="14.00">6</text>
<polyline fill="none" stroke="red" points="451.57,-778.17 451.57,-814.17"/>
<text text-anchor="middle" x="462.94" y="-790.74" font-family="Times New Roman,serif" font-size="14.00">7</text>
<polyline fill="none" stroke="red" points="474.32,-778.17 474.32,-814.17"/>
<text text-anchor="middle" x="485.69" y="-790.74" font-family="Times New Roman,serif" font-size="14.00">8</text>
<polyline fill="none" stroke="red" points="497.07,-778.17 497.07,-814.17"/>
<text text-anchor="middle" x="508.44" y="-790.74" font-family="Times New Roman,serif" font-size="14.00">9</text>
<polyline fill="none" stroke="red" points="519.82,-778.17 519.82,-814.17"/>
<text text-anchor="middle" x="534.57" y="-790.74" font-family="Times New Roman,serif" font-size="14.00">10</text>
<polyline fill="none" stroke="red" points="549.32,-778.17 549.32,-814.17"/>
<text text-anchor="middle" x="564.07" y="-790.74" font-family="Times New Roman,serif" font-size="14.00">11</text>
<polyline fill="none" stroke="red" points="578.82,-778.17 578.82,-814.17"/>
<text text-anchor="middle" x="593.57" y="-790.74" font-family="Times New Roman,serif" font-size="14.00">12</text>
<polyline fill="none" stroke="red" points="608.32,-778.17 608.32,-814.17"/>
<text text-anchor="middle" x="623.07" y="-790.74" font-family="Times New Roman,serif" font-size="14.00">13</text>
<polyline fill="none" stroke="red" points="637.82,-778.17 637.82,-814.17"/>
<text text-anchor="middle" x="652.57" y="-790.74" font-family="Times New Roman,serif" font-size="14.00">14</text>
<polyline fill="none" stroke="red" points="667.32,-778.17 667.32,-814.17"/>
<text text-anchor="middle" x="682.07" y="-790.74" font-family="Times New Roman,serif" font-size="14.00">15</text>
<polyline fill="none" stroke="red" points="696.82,-778.17 696.82,-814.17"/>
<text text-anchor="middle" x="711.57" y="-790.74" font-family="Times New Roman,serif" font-size="14.00">16</text>
<polyline fill="none" stroke="red" points="726.32,-778.17 726.32,-814.17"/>
<text text-anchor="middle" x="741.07" y="-790.74" font-family="Times New Roman,serif" font-size="14.00">17</text>
<polyline fill="none" stroke="red" points="755.82,-778.17 755.82,-814.17"/>
<text text-anchor="middle" x="770.57" y="-790.74" font-family="Times New Roman,serif" font-size="14.00">18</text>
<polyline fill="none" stroke="red" points="785.32,-778.17 785.32,-814.17"/>
<text text-anchor="middle" x="800.07" y="-790.74" font-family="Times New Roman,serif" font-size="14.00">19</text>
<polyline fill="none" stroke="red" points="814.82,-778.17 814.82,-814.17"/>
<text text-anchor="middle" x="829.57" y="-790.74" font-family="Times New Roman,serif" font-size="14.00">20</text>
</g>
<!-- Parser&#45;&gt;todoLists -->
<g id="edge12" class="edge">
<title>Parser&#45;&gt;todoLists</title>
<path fill="none" stroke="black" d="M861.53,-883.56C790.57,-862.65 700.03,-835.98 638.46,-817.83"/>
<polygon fill="black" stroke="black" points="639.73,-814.56 629.15,-815.09 637.75,-821.27 639.73,-814.56"/>
<text text-anchor="middle" x="758.19" y="-835.12" font-family="Times New Roman,serif" font-size="14.00">todo lists</text>
</g>
<!-- stacksToExpand -->
<g id="node13" class="node">
<title>stacksToExpand</title>
<polygon fill="none" stroke="black" points="862.32,-778.17 862.32,-814.17 916.32,-814.17 916.32,-778.17 862.32,-778.17"/>
<text text-anchor="middle" x="889.19" y="-790.74" font-family="Times New Roman,serif" font-size="14.00"> </text>
</g>
<!-- Parser&#45;&gt;stacksToExpand -->
<g id="edge13" class="edge">
<title>Parser&#45;&gt;stacksToExpand</title>
<path fill="none" stroke="black" d="M885.4,-875.87C875.99,-868.07 867.69,-858.97 861.82,-848.42 857.35,-840.39 859.53,-831.59 864.2,-823.59"/>
<polygon fill="black" stroke="black" points="866.98,-825.72 869.97,-815.55 861.3,-821.63 866.98,-825.72"/>
<text text-anchor="middle" x="908.57" y="-835.12" font-family="Times New Roman,serif" font-size="14.00">stacks to expand</text>
</g>
<!-- terminalsToReduce -->
<g id="node14" class="node">
<title>terminalsToReduce</title>
<polygon fill="none" stroke="black" points="920.32,-689.42 920.32,-725.42 974.32,-725.42 974.32,-689.42 920.32,-689.42"/>
<text text-anchor="middle" x="947.19" y="-701.99" font-family="Times New Roman,serif" font-size="14.00">0</text>
</g>
<!-- Parser&#45;&gt;terminalsToReduce -->
<g id="edge16" class="edge">
<title>Parser&#45;&gt;terminalsToReduce</title>
<path fill="none" stroke="black" d="M964.81,-865.99C960.34,-825.68 954.18,-770.26 950.49,-737.02"/>
<polygon fill="black" stroke="black" points="954,-736.9 949.42,-727.35 947.05,-737.68 954,-736.9"/>
<text text-anchor="middle" x="1011.19" y="-790.74" font-family="Times New Roman,serif" font-size="14.00">terminals to reduce</text>
</g>
<!-- nonTerminalsToReduce -->
<g id="node15" class="node">
<title>nonTerminalsToReduce</title>
<polygon fill="none" stroke="black" points="1094.32,-778.17 1094.32,-814.17 1148.32,-814.17 1148.32,-778.17 1094.32,-778.17"/>
<text text-anchor="middle" x="1121.19" y="-790.74" font-family="Times New Roman,serif" font-size="14.00"> </text>
</g>
<!-- Parser&#45;&gt;nonTerminalsToReduce -->
<g id="edge17" class="edge">
<title>Parser&#45;&gt;nonTerminalsToReduce</title>
<path fill="none" stroke="black" d="M1016.43,-868.69C1029.66,-856.32 1044.47,-843.42 1059.07,-832.67 1066.92,-826.88 1075.79,-821.32 1084.33,-816.37"/>
<polygon fill="black" stroke="black" points="1085.79,-819.57 1092.79,-811.62 1082.36,-813.46 1085.79,-819.57"/>
<text text-anchor="middle" x="1123.94" y="-835.12" font-family="Times New Roman,serif" font-size="14.00">non&#45;terminals to reduce</text>
</g>
<!-- error -->
<g id="node25" class="node">
<title>error</title>
<ellipse fill="none" stroke="black" cx="1212.32" cy="-796.17" rx="34.1" ry="18"/>
<text text-anchor="middle" x="1212.32" y="-790.74" font-family="Times New Roman,serif" font-size="14.00">Errors</text>
</g>
<!-- Parser&#45;&gt;error -->
<g id="edge24" class="edge">
<title>Parser&#45;&gt;error</title>
<path fill="none" stroke="black" d="M1100.98,-895.7C1133.07,-885.74 1165.34,-870.81 1190.32,-848.42 1197.24,-842.21 1202.06,-833.46 1205.39,-824.94"/>
<polygon fill="black" stroke="black" points="1208.68,-826.14 1208.47,-815.55 1202.03,-823.95 1208.68,-826.14"/>
<text text-anchor="middle" x="1238.82" y="-835.12" font-family="Times New Roman,serif" font-size="14.00">error tracking</text>
</g>
<!-- todo&#45;2 -->
<g id="node2" class="node">
<title>todo&#45;2</title>
<polygon fill="none" stroke="black" points="322.32,-689.42 322.32,-725.42 376.32,-725.42 376.32,-689.42 322.32,-689.42"/>
<text text-anchor="middle" x="349.19" y="-701.99" font-family="Times New Roman,serif" font-size="14.00">0</text>
</g>
<!-- 1610612736 -->
<g id="node3" class="node">
<title>1610612736</title>
<ellipse fill="none" stroke="black" cx="116.32" cy="-594.88" rx="116.32" ry="39.07"/>
<text text-anchor="middle" x="116.32" y="-605.2" font-family="Times New Roman,serif" font-size="14.00">Skipping: </text>
<text text-anchor="middle" x="116.32" y="-589.45" font-family="Times New Roman,serif" font-size="14.00">.0@0</text>
<text text-anchor="middle" x="116.32" y="-573.7" font-family="Times New Roman,serif" font-size="14.00">in: &#39;S &#45;&gt; ABC Layout End&#39;</text>
</g>
<!-- todo&#45;2&#45;&gt;1610612736 -->
<g id="edge3" class="edge">
<title>todo&#45;2:sw&#45;&gt;1610612736</title>
<path fill="none" stroke="black" d="M322.32,-688.92C304.39,-670.99 252.07,-647.45 204.65,-628.54"/>
<polygon fill="black" stroke="black" points="205.98,-625.3 195.4,-624.89 203.41,-631.81 205.98,-625.3"/>
<text text-anchor="middle" x="312.07" y="-657.62" font-family="Times New Roman,serif" font-size="14.00">Stack</text>
</g>
<!-- 1829344035 -->
<g id="node6" class="node">
<title>1829344035</title>
<polygon fill="none" stroke="black" points="502.22,-577.36 502.22,-612.39 428.47,-637.17 324.17,-637.17 250.42,-612.39 250.42,-577.36 324.17,-552.59 428.47,-552.59 502.22,-577.36"/>
<text text-anchor="middle" x="376.32" y="-605.2" font-family="Times New Roman,serif" font-size="14.00">Skipped</text>
<text text-anchor="middle" x="376.32" y="-589.45" font-family="Times New Roman,serif" font-size="14.00">.0@0: &#160;&quot;a&quot;</text>
<text text-anchor="middle" x="376.32" y="-573.7" font-family="Times New Roman,serif" font-size="14.00">in: &#39;S &#45;&gt; ABC Layout End&#39;</text>
</g>
<!-- todo&#45;2&#45;&gt;1829344035 -->
<g id="edge4" class="edge">
<title>todo&#45;2:se&#45;&gt;1829344035</title>
<path fill="none" stroke="black" d="M376.07,-688.92C386.54,-678.45 389.54,-663.55 389.09,-648.74"/>
<polygon fill="black" stroke="black" points="392.59,-648.68 388.26,-639.01 385.62,-649.28 392.59,-648.68"/>
<text text-anchor="middle" x="404.69" y="-657.62" font-family="Times New Roman,serif" font-size="14.00">Node</text>
</g>
<!-- 1610612735 -->
<g id="node4" class="node">
<title>1610612735</title>
<ellipse fill="none" stroke="black" cx="417.32" cy="-205.79" rx="122.68" ry="39.07"/>
<text text-anchor="middle" x="417.32" y="-216.12" font-family="Times New Roman,serif" font-size="14.00">RecoveryPoint: 1610612735</text>
<text text-anchor="middle" x="417.32" y="-200.37" font-family="Times New Roman,serif" font-size="14.00">.0@0</text>
<text text-anchor="middle" x="417.32" y="-184.62" font-family="Times New Roman,serif" font-size="14.00">in: &#39;S &#45;&gt; ABC Layout End&#39;</text>
</g>
<!-- 1610612736&#45;&gt;1610612735 -->
<g id="edge2" class="edge">
<title>1610612736&#45;&gt;1610612735</title>
<path fill="none" stroke="black" d="M145.18,-556.76C200.4,-485.76 320.85,-330.85 381.26,-253.16"/>
<polygon fill="black" stroke="black" points="384.02,-255.32 387.4,-245.27 378.49,-251.02 384.02,-255.32"/>
</g>
<!-- &#45;1 -->
<g id="node5" class="node">
<title>&#45;1</title>
<ellipse fill="none" stroke="black" cx="440.32" cy="-27.93" rx="73.36" ry="27.93"/>
<text text-anchor="middle" x="440.32" y="-30.38" font-family="Times New Roman,serif" font-size="14.00">NonTerminal: S</text>
<text text-anchor="middle" x="440.32" y="-14.63" font-family="Times New Roman,serif" font-size="14.00">.0@&#45;1</text>
</g>
<!-- 1610612735&#45;&gt;&#45;1 -->
<g id="edge1" class="edge">
<title>1610612735&#45;&gt;&#45;1</title>
<path fill="none" stroke="black" d="M422.31,-166.63C426.16,-137.2 431.46,-96.68 435.31,-67.22"/>
<polygon fill="black" stroke="black" points="438.74,-67.99 436.57,-57.62 431.8,-67.08 438.74,-67.99"/>
</g>
<!-- todoLists&#45;&gt;todo&#45;2 -->
<g id="edge5" class="edge">
<title>todoLists:2&#45;&gt;todo&#45;2</title>
<path fill="none" stroke="black" d="M349.19,-777.67C349.19,-764.27 349.22,-749.42 349.24,-736.92"/>
<polygon fill="black" stroke="black" points="352.74,-737.3 349.27,-727.29 345.74,-737.28 352.74,-737.3"/>
</g>
<!-- todo&#45;6 -->
<g id="node8" class="node">
<title>todo&#45;6</title>
<polygon fill="none" stroke="black" points="662.32,-689.42 662.32,-725.42 716.32,-725.42 716.32,-689.42 662.32,-689.42"/>
<text text-anchor="middle" x="689.19" y="-701.99" font-family="Times New Roman,serif" font-size="14.00">0</text>
</g>
<!-- todoLists&#45;&gt;todo&#45;6 -->
<g id="edge11" class="edge">
<title>todoLists:6&#45;&gt;todo&#45;6</title>
<path fill="none" stroke="black" d="M440.19,-777.67C440.19,-734.49 580.87,-717.1 650.8,-711.12"/>
<polygon fill="black" stroke="black" points="650.99,-714.62 660.68,-710.32 650.42,-707.64 650.99,-714.62"/>
</g>
<!-- 1610612734 -->
<g id="node9" class="node">
<title>1610612734</title>
<ellipse fill="none" stroke="black" cx="662.32" cy="-594.88" rx="141.77" ry="39.07"/>
<text text-anchor="middle" x="662.32" y="-605.2" font-family="Times New Roman,serif" font-size="14.00">Skipping: </text>
<text text-anchor="middle" x="662.32" y="-589.45" font-family="Times New Roman,serif" font-size="14.00">.0@4</text>
<text text-anchor="middle" x="662.32" y="-573.7" font-family="Times New Roman,serif" font-size="14.00">in: &#39;ABC &#45;&gt; a Layout b Layout c&#39;</text>
</g>
<!-- todo&#45;6&#45;&gt;1610612734 -->
<g id="edge9" class="edge">
<title>todo&#45;6:sw&#45;&gt;1610612734</title>
<path fill="none" stroke="black" d="M662.32,-688.92C651.11,-677.7 648.49,-661.41 649.53,-645.58"/>
<polygon fill="black" stroke="black" points="653,-646.06 650.69,-635.72 646.05,-645.24 653,-646.06"/>
<text text-anchor="middle" x="667.07" y="-657.62" font-family="Times New Roman,serif" font-size="14.00">Stack</text>
</g>
<!-- 1637411253 -->
<g id="node12" class="node">
<title>1637411253</title>
<polygon fill="none" stroke="black" points="1128.78,-577.36 1128.78,-612.39 1038.88,-637.17 911.76,-637.17 821.86,-612.39 821.86,-577.36 911.76,-552.59 1038.88,-552.59 1128.78,-577.36"/>
<text text-anchor="middle" x="975.32" y="-605.2" font-family="Times New Roman,serif" font-size="14.00">Skipped</text>
<text text-anchor="middle" x="975.32" y="-589.45" font-family="Times New Roman,serif" font-size="14.00">.4@4: &#160;&quot;x&quot;</text>
<text text-anchor="middle" x="975.32" y="-573.7" font-family="Times New Roman,serif" font-size="14.00">in: &#39;ABC &#45;&gt; a Layout b Layout c&#39;</text>
</g>
<!-- todo&#45;6&#45;&gt;1637411253 -->
<g id="edge10" class="edge">
<title>todo&#45;6:se&#45;&gt;1637411253</title>
<path fill="none" stroke="black" d="M716.07,-688.92C736.92,-668.07 797.84,-645.71 855.4,-628.14"/>
<polygon fill="black" stroke="black" points="856.08,-631.59 864.64,-625.36 854.06,-624.89 856.08,-631.59"/>
<text text-anchor="middle" x="786.69" y="-657.62" font-family="Times New Roman,serif" font-size="14.00">Node</text>
</g>
<!-- 1610612733 -->
<g id="node10" class="node">
<title>1610612733</title>
<ellipse fill="none" stroke="black" cx="662.32" cy="-380.39" rx="141.77" ry="39.07"/>
<text text-anchor="middle" x="662.32" y="-390.71" font-family="Times New Roman,serif" font-size="14.00">RecoveryPoint: 1610612733</text>
<text text-anchor="middle" x="662.32" y="-374.96" font-family="Times New Roman,serif" font-size="14.00">.4@4</text>
<text text-anchor="middle" x="662.32" y="-359.21" font-family="Times New Roman,serif" font-size="14.00">in: &#39;ABC &#45;&gt; a Layout b Layout c&#39;</text>
</g>
<!-- 1610612734&#45;&gt;1610612733 -->
<g id="edge8" class="edge">
<title>1610612734&#45;&gt;1610612733</title>
<path fill="none" stroke="black" d="M662.32,-555.4C662.32,-520.61 662.32,-469.18 662.32,-431.25"/>
<polygon fill="black" stroke="black" points="665.82,-431.46 662.32,-421.46 658.82,-431.46 665.82,-431.46"/>
</g>
<!-- 35 -->
<g id="node11" class="node">
<title>35</title>
<ellipse fill="none" stroke="black" cx="662.32" cy="-120.79" rx="87.68" ry="27.93"/>
<text text-anchor="middle" x="662.32" y="-123.24" font-family="Times New Roman,serif" font-size="14.00">NonTerminal: ABC</text>
<text text-anchor="middle" x="662.32" y="-107.49" font-family="Times New Roman,serif" font-size="14.00">.0@0</text>
</g>
<!-- 1610612733&#45;&gt;35 -->
<g id="edge7" class="edge">
<title>1610612733&#45;&gt;35</title>
<path fill="none" stroke="black" d="M662.32,-340.82C662.32,-292.2 662.32,-209.1 662.32,-160.44"/>
<polygon fill="black" stroke="black" points="665.82,-160.65 662.32,-150.65 658.82,-160.65 665.82,-160.65"/>
</g>
<!-- 35&#45;&gt;&#45;1 -->
<g id="edge6" class="edge">
<title>35&#45;&gt;&#45;1</title>
<path fill="none" stroke="black" d="M609.43,-98.14C576.42,-84.63 533.86,-67.22 499.7,-53.23"/>
<polygon fill="black" stroke="black" points="501.37,-50.14 490.79,-49.59 498.72,-56.61 501.37,-50.14"/>
</g>
<!-- terminalsToReduce&#45;&gt;1610612734 -->
<g id="edge14" class="edge">
<title>terminalsToReduce:sw&#45;&gt;1610612734</title>
<path fill="none" stroke="black" d="M920.32,-688.92C898.65,-667.24 833.53,-643.84 774.14,-625.93"/>
<polygon fill="black" stroke="black" points="775.16,-622.58 764.58,-623.08 773.16,-629.29 775.16,-622.58"/>
<text text-anchor="middle" x="908.07" y="-657.62" font-family="Times New Roman,serif" font-size="14.00">Stack</text>
</g>
<!-- terminalsToReduce&#45;&gt;1637411253 -->
<g id="edge15" class="edge">
<title>terminalsToReduce:se&#45;&gt;1637411253</title>
<path fill="none" stroke="black" d="M974.07,-688.92C984.54,-678.45 987.67,-663.55 987.38,-648.74"/>
<polygon fill="black" stroke="black" points="990.89,-648.73 986.66,-639.01 983.91,-649.24 990.89,-648.73"/>
<text text-anchor="middle" x="1001.69" y="-657.62" font-family="Times New Roman,serif" font-size="14.00">Node</text>
</g>
<!-- unexpandableNodes -->
<g id="node16" class="node">
<title>unexpandableNodes</title>
<polygon fill="none" stroke="black" points="992.32,-689.42 992.32,-725.42 1046.32,-725.42 1046.32,-689.42 992.32,-689.42"/>
<text text-anchor="middle" x="1019.19" y="-701.99" font-family="Times New Roman,serif" font-size="14.00"> </text>
</g>
<!-- unmatchableLeafNodes -->
<g id="node17" class="node">
<title>unmatchableLeafNodes</title>
<polygon fill="none" stroke="black" points="1092.32,-689.42 1092.32,-725.42 1146.32,-725.42 1146.32,-689.42 1092.32,-689.42"/>
<text text-anchor="middle" x="1119.19" y="-701.99" font-family="Times New Roman,serif" font-size="14.00"> </text>
</g>
<!-- unmatchableMidProductionNodes -->
<g id="node18" class="node">
<title>unmatchableMidProductionNodes</title>
<polygon fill="none" stroke="black" points="1211.32,-689.42 1211.32,-725.42 1265.32,-725.42 1265.32,-689.42 1211.32,-689.42"/>
<text text-anchor="middle" x="1238.19" y="-701.99" font-family="Times New Roman,serif" font-size="14.00">0</text>
</g>
<!-- unmatchable&#45;mid&#45;production&#45;0 -->
<g id="node19" class="node">
<title>unmatchable&#45;mid&#45;production&#45;0</title>
<polygon fill="none" stroke="black" points="1147.69,-576.88 1147.69,-612.88 1322.94,-612.88 1322.94,-576.88 1147.69,-576.88"/>
<text text-anchor="middle" x="1189.82" y="-589.45" font-family="Times New Roman,serif" font-size="14.00">Failed Node</text>
<polyline fill="none" stroke="black" points="1231.94,-576.88 1231.94,-612.88"/>
<text text-anchor="middle" x="1277.44" y="-589.45" font-family="Times New Roman,serif" font-size="14.00">Predecessors</text>
</g>
<!-- unmatchableMidProductionNodes&#45;&gt;unmatchable&#45;mid&#45;production&#45;0 -->
<g id="edge18" class="edge">
<title>unmatchableMidProductionNodes:0&#45;&gt;unmatchable&#45;mid&#45;production&#45;0</title>
<path fill="none" stroke="black" d="M1237.72,-689C1237.27,-671.49 1236.58,-644.91 1236.06,-624.61"/>
<polygon fill="black" stroke="black" points="1239.56,-624.64 1235.81,-614.74 1232.56,-624.82 1239.56,-624.64"/>
</g>
<!-- 59 -->
<g id="node20" class="node">
<title>59</title>
<ellipse fill="none" stroke="black" cx="1090.32" cy="-476.53" rx="141.77" ry="39.07"/>
<text text-anchor="middle" x="1090.32" y="-486.85" font-family="Times New Roman,serif" font-size="14.00">Literal: </text>
<text text-anchor="middle" x="1090.32" y="-471.1" font-family="Times New Roman,serif" font-size="14.00">.4@&#45;1</text>
<text text-anchor="middle" x="1090.32" y="-455.35" font-family="Times New Roman,serif" font-size="14.00">in: &#39;ABC &#45;&gt; a Layout b Layout c&#39;</text>
</g>
<!-- unmatchable&#45;mid&#45;production&#45;0&#45;&gt;59 -->
<g id="edge22" class="edge">
<title>unmatchable&#45;mid&#45;production&#45;0:failedNode&#45;&gt;59</title>
<path fill="none" stroke="black" d="M1146.69,-594.88C1137.07,-594.88 1140.97,-561.5 1137.32,-552.59 1133.51,-543.29 1128.58,-533.84 1123.35,-524.93"/>
<polygon fill="black" stroke="black" points="1126.35,-523.13 1118.15,-516.42 1120.38,-526.78 1126.35,-523.13"/>
</g>
<!-- unmatchable&#45;mid&#45;production&#45;predecessors&#45;0 -->
<g id="node21" class="node">
<title>unmatchable&#45;mid&#45;production&#45;predecessors&#45;0</title>
<polygon fill="none" stroke="black" points="1250.32,-458.53 1250.32,-494.53 1304.32,-494.53 1304.32,-458.53 1250.32,-458.53"/>
<text text-anchor="middle" x="1277.19" y="-471.1" font-family="Times New Roman,serif" font-size="14.00">0</text>
</g>
<!-- unmatchable&#45;mid&#45;production&#45;0&#45;&gt;unmatchable&#45;mid&#45;production&#45;predecessors&#45;0 -->
<g id="edge23" class="edge">
<title>unmatchable&#45;mid&#45;production&#45;0:predecessors&#45;&gt;unmatchable&#45;mid&#45;production&#45;predecessors&#45;0</title>
<path fill="none" stroke="black" d="M1277.44,-575.88C1277.44,-552.52 1277.41,-526.03 1277.38,-506.44"/>
<polygon fill="black" stroke="black" points="1280.88,-506.44 1277.36,-496.45 1273.88,-506.46 1280.88,-506.44"/>
</g>
<!-- 58 -->
<g id="node22" class="node">
<title>58</title>
<ellipse fill="none" stroke="black" cx="926.32" cy="-293.09" rx="95.11" ry="27.93"/>
<text text-anchor="middle" x="926.32" y="-295.54" font-family="Times New Roman,serif" font-size="14.00">NonTerminal: Layout</text>
<text text-anchor="middle" x="926.32" y="-279.79" font-family="Times New Roman,serif" font-size="14.00">.3@3</text>
</g>
<!-- unmatchable&#45;mid&#45;production&#45;predecessors&#45;0&#45;&gt;58 -->
<g id="edge20" class="edge">
<title>unmatchable&#45;mid&#45;production&#45;predecessors&#45;0:sw&#45;&gt;58</title>
<path fill="none" stroke="black" d="M1250.32,-457.53C1243.41,-450.61 1248.21,-444.39 1241.32,-437.46 1177.57,-373.36 1079.96,-335.08 1010.3,-314.42"/>
<polygon fill="black" stroke="black" points="1011.4,-311.09 1000.82,-311.67 1009.45,-317.82 1011.4,-311.09"/>
<text text-anchor="middle" x="1236.07" y="-374.96" font-family="Times New Roman,serif" font-size="14.00">Stack</text>
</g>
<!-- 197535883 -->
<g id="node23" class="node">
<title>197535883</title>
<polygon fill="none" stroke="black" points="1425.78,-280.57 1425.78,-305.61 1354.04,-323.32 1252.6,-323.32 1180.86,-305.61 1180.86,-280.57 1252.6,-262.86 1354.04,-262.86 1425.78,-280.57"/>
<text text-anchor="middle" x="1303.32" y="-295.54" font-family="Times New Roman,serif" font-size="14.00">SortContainer 3&#45;4</text>
<text text-anchor="middle" x="1303.32" y="-279.79" font-family="Times New Roman,serif" font-size="14.00">&#39;Layout &#45;&gt; [range(32,32)]&#39;</text>
</g>
<!-- unmatchable&#45;mid&#45;production&#45;predecessors&#45;0&#45;&gt;197535883 -->
<g id="edge21" class="edge">
<title>unmatchable&#45;mid&#45;production&#45;predecessors&#45;0:se&#45;&gt;197535883</title>
<path fill="none" stroke="black" d="M1304.07,-457.53C1335.53,-426.07 1328.17,-371.84 1317.75,-334.54"/>
<polygon fill="black" stroke="black" points="1321.11,-333.57 1314.89,-324.99 1314.4,-335.58 1321.11,-333.57"/>
<text text-anchor="middle" x="1341.69" y="-374.96" font-family="Times New Roman,serif" font-size="14.00">Node</text>
</g>
<!-- 58&#45;&gt;35 -->
<g id="edge19" class="edge">
<title>58&#45;&gt;35</title>
<path fill="none" stroke="black" d="M887.65,-267.14C840.42,-236.68 760.56,-185.17 709.69,-152.35"/>
<polygon fill="black" stroke="black" points="711.81,-149.55 701.51,-147.07 708.01,-155.43 711.81,-149.55"/>
</g>
<!-- filteredNodes -->
<g id="node24" class="node">
<title>filteredNodes</title>
<polygon fill="none" stroke="black" points="1363.32,-689.42 1363.32,-725.42 1417.32,-725.42 1417.32,-689.42 1363.32,-689.42"/>
<text text-anchor="middle" x="1390.19" y="-701.99" font-family="Times New Roman,serif" font-size="14.00"> </text>
</g>
<!-- error&#45;&gt;unexpandableNodes -->
<g id="edge25" class="edge">
<title>error&#45;&gt;unexpandableNodes</title>
<path fill="none" stroke="black" d="M1184.59,-785.36C1175.93,-782.57 1166.3,-779.73 1157.32,-777.67 1130.07,-771.41 1053.68,-778.27 1032.82,-759.67 1026.3,-753.85 1022.76,-745.31 1020.89,-736.86"/>
<polygon fill="black" stroke="black" points="1024.38,-736.54 1019.46,-727.15 1017.45,-737.56 1024.38,-736.54"/>
<text text-anchor="middle" x="1070.57" y="-746.37" font-family="Times New Roman,serif" font-size="14.00">unexpandable</text>
</g>
<!-- error&#45;&gt;unmatchableLeafNodes -->
<g id="edge26" class="edge">
<title>error&#45;&gt;unmatchableLeafNodes</title>
<path fill="none" stroke="black" d="M1183.57,-786.01C1157.71,-777.49 1123.19,-765.29 1119.32,-759.67 1114.78,-753.07 1113.43,-744.77 1113.59,-736.79"/>
<polygon fill="black" stroke="black" points="1117.05,-737.35 1114.56,-727.06 1110.09,-736.66 1117.05,-737.35"/>
<text text-anchor="middle" x="1168.82" y="-746.37" font-family="Times New Roman,serif" font-size="14.00">unmatchable leafs</text>
</g>
<!-- error&#45;&gt;unmatchableMidProductionNodes -->
<g id="edge27" class="edge">
<title>error&#45;&gt;unmatchableMidProductionNodes</title>
<path fill="none" stroke="black" d="M1217.46,-778.03C1220.99,-766.22 1225.78,-750.27 1229.87,-736.61"/>
<polygon fill="black" stroke="black" points="1233.15,-737.85 1232.67,-727.27 1226.45,-735.84 1233.15,-737.85"/>
<text text-anchor="middle" x="1290.32" y="-746.37" font-family="Times New Roman,serif" font-size="14.00">unmatchable mid&#45;prod</text>
</g>
<!-- error&#45;&gt;filteredNodes -->
<g id="edge28" class="edge">
<title>error&#45;&gt;filteredNodes</title>
<path fill="none" stroke="black" d="M1246.64,-793.87C1278.06,-791.13 1324.51,-783.06 1357.32,-759.67 1365.87,-753.57 1372.74,-744.51 1377.96,-735.69"/>
<polygon fill="black" stroke="black" points="1380.99,-737.44 1382.61,-726.98 1374.82,-734.15 1380.99,-737.44"/>
<text text-anchor="middle" x="1390.44" y="-746.37" font-family="Times New Roman,serif" font-size="14.00">filtered</text>
</g>
</g>
</svg>
