<?xml version="1.0" encoding="UTF-8" standalone="no"?>
<!DOCTYPE svg PUBLIC "-//W3C//DTD SVG 1.1//EN"
 "http://www.w3.org/Graphics/SVG/1.1/DTD/svg11.dtd">
<!-- Generated by graphviz version 12.0.0 (20240704.0754)
 -->
<!-- Title: Parser Pages: 1 -->
<svg width="1433pt" height="975pt"
 viewBox="0.00 0.00 1432.78 974.82" xmlns="http://www.w3.org/2000/svg" xmlns:xlink="http://www.w3.org/1999/xlink">
<g id="graph0" class="graph" transform="scale(1 1) rotate(0) translate(4 970.82)">
<title>Parser</title>
<polygon fill="white" stroke="none" points="-4,4 -4,-970.82 1428.78,-970.82 1428.78,4 -4,4"/>
<!-- Parser -->
<g id="node1" class="node">
<title>Parser</title>
<ellipse fill="none" stroke="black" cx="980.32" cy="-916.62" rx="135.41" ry="50.2"/>
<text text-anchor="middle" x="980.32" y="-934.82" font-family="Times New Roman,serif" font-size="14.00">Parser</text>
<text text-anchor="middle" x="980.32" y="-919.07" font-family="Times New Roman,serif" font-size="14.00">Input: &quot;a b x $&quot;</text>
<text text-anchor="middle" x="980.32" y="-903.32" font-family="Times New Roman,serif" font-size="14.00">Location: 0 (&#39;x&#39;)</text>
<text text-anchor="middle" x="980.32" y="-887.57" font-family="Times New Roman,serif" font-size="14.00">Step 26: Found stack to reduce</text>
</g>
<!-- todoLists -->
<g id="node7" class="node">
<title>todoLists</title>
<polygon fill="none" stroke="black" points="314.32,-778.17 314.32,-814.17 866.32,-814.17 866.32,-778.17 314.32,-778.17"/>
<text text-anchor="middle" x="325.69" y="-790.74" font-family="Times New Roman,serif" font-size="14.00">0</text>
<polyline fill="none" stroke="black" points="337.07,-778.17 337.07,-814.17"/>
<text text-anchor="middle" x="348.44" y="-790.74" font-family="Times New Roman,serif" font-size="14.00">1</text>
<polyline fill="none" stroke="black" points="359.82,-778.17 359.82,-814.17"/>
<text text-anchor="middle" x="371.19" y="-790.74" font-family="Times New Roman,serif" font-size="14.00">2</text>
<polyline fill="none" stroke="black" points="382.57,-778.17 382.57,-814.17"/>
<text text-anchor="middle" x="393.94" y="-790.74" font-family="Times New Roman,serif" font-size="14.00">3</text>
<polyline fill="none" stroke="black" points="405.32,-778.17 405.32,-814.17"/>
<text text-anchor="middle" x="416.69" y="-790.74" font-family="Times New Roman,serif" font-size="14.00">4</text>
<polyline fill="none" stroke="black" points="428.07,-778.17 428.07,-814.17"/>
<text text-anchor="middle" x="439.44" y="-790.74" font-family="Times New Roman,serif" font-size="14.00">5</text>
<polyline fill="none" stroke="black" points="450.82,-778.17 450.82,-814.17"/>
<text text-anchor="middle" x="462.19" y="-790.74" font-family="Times New Roman,serif" font-size="14.00">6</text>
<polyline fill="none" stroke="black" points="473.57,-778.17 473.57,-814.17"/>
<text text-anchor="middle" x="484.94" y="-790.74" font-family="Times New Roman,serif" font-size="14.00">7</text>
<polyline fill="none" stroke="black" points="496.32,-778.17 496.32,-814.17"/>
<text text-anchor="middle" x="507.69" y="-790.74" font-family="Times New Roman,serif" font-size="14.00">8</text>
<polyline fill="none" stroke="black" points="519.07,-778.17 519.07,-814.17"/>
<text text-anchor="middle" x="530.44" y="-790.74" font-family="Times New Roman,serif" font-size="14.00">9</text>
<polyline fill="none" stroke="black" points="541.82,-778.17 541.82,-814.17"/>
<text text-anchor="middle" x="556.57" y="-790.74" font-family="Times New Roman,serif" font-size="14.00">10</text>
<polyline fill="none" stroke="black" points="571.32,-778.17 571.32,-814.17"/>
<text text-anchor="middle" x="586.07" y="-790.74" font-family="Times New Roman,serif" font-size="14.00">11</text>
<polyline fill="none" stroke="black" points="600.82,-778.17 600.82,-814.17"/>
<text text-anchor="middle" x="615.57" y="-790.74" font-family="Times New Roman,serif" font-size="14.00">12</text>
<polyline fill="none" stroke="black" points="630.32,-778.17 630.32,-814.17"/>
<text text-anchor="middle" x="645.07" y="-790.74" font-family="Times New Roman,serif" font-size="14.00">13</text>
<polyline fill="none" stroke="black" points="659.82,-778.17 659.82,-814.17"/>
<text text-anchor="middle" x="674.57" y="-790.74" font-family="Times New Roman,serif" font-size="14.00">14</text>
<polyline fill="none" stroke="black" points="689.32,-778.17 689.32,-814.17"/>
<text text-anchor="middle" x="704.07" y="-790.74" font-family="Times New Roman,serif" font-size="14.00">15</text>
<polyline fill="none" stroke="black" points="718.82,-778.17 718.82,-814.17"/>
<text text-anchor="middle" x="733.57" y="-790.74" font-family="Times New Roman,serif" font-size="14.00">16</text>
<polyline fill="none" stroke="black" points="748.32,-778.17 748.32,-814.17"/>
<text text-anchor="middle" x="763.07" y="-790.74" font-family="Times New Roman,serif" font-size="14.00">17</text>
<polyline fill="none" stroke="black" points="777.82,-778.17 777.82,-814.17"/>
<text text-anchor="middle" x="792.57" y="-790.74" font-family="Times New Roman,serif" font-size="14.00">18</text>
<polyline fill="none" stroke="black" points="807.32,-778.17 807.32,-814.17"/>
<text text-anchor="middle" x="822.07" y="-790.74" font-family="Times New Roman,serif" font-size="14.00">19</text>
<polyline fill="none" stroke="black" points="836.82,-778.17 836.82,-814.17"/>
<text text-anchor="middle" x="851.57" y="-790.74" font-family="Times New Roman,serif" font-size="14.00">20</text>
</g>
<!-- Parser&#45;&gt;todoLists -->
<g id="edge12" class="edge">
<title>Parser&#45;&gt;todoLists</title>
<path fill="none" stroke="black" d="M876.32,-884.03C807.39,-863.1 718.9,-836.22 658.73,-817.94"/>
<polygon fill="black" stroke="black" points="659.87,-814.63 649.28,-815.07 657.83,-821.33 659.87,-814.63"/>
<text text-anchor="middle" x="776.19" y="-835.12" font-family="Times New Roman,serif" font-size="14.00">todo lists</text>
</g>
<!-- stacksToExpand -->
<g id="node13" class="node">
<title>stacksToExpand</title>
<polygon fill="none" stroke="black" points="884.32,-778.17 884.32,-814.17 938.32,-814.17 938.32,-778.17 884.32,-778.17"/>
<text text-anchor="middle" x="911.19" y="-790.74" font-family="Times New Roman,serif" font-size="14.00"> </text>
</g>
<!-- Parser&#45;&gt;stacksToExpand -->
<g id="edge13" class="edge">
<title>Parser&#45;&gt;stacksToExpand</title>
<path fill="none" stroke="black" d="M896.7,-876.93C886.75,-868.9 877.96,-859.45 871.82,-848.42 866.88,-839.55 870.35,-830.56 876.9,-822.64"/>
<polygon fill="black" stroke="black" points="879.34,-825.15 883.9,-815.59 874.37,-820.22 879.34,-825.15"/>
<text text-anchor="middle" x="918.57" y="-835.12" font-family="Times New Roman,serif" font-size="14.00">stacks to expand</text>
</g>
<!-- terminalsToReduce -->
<g id="node14" class="node">
<title>terminalsToReduce</title>
<polygon fill="none" stroke="black" points="918.32,-689.42 918.32,-725.42 972.32,-725.42 972.32,-689.42 918.32,-689.42"/>
<text text-anchor="middle" x="945.19" y="-701.99" font-family="Times New Roman,serif" font-size="14.00">0</text>
</g>
<!-- Parser&#45;&gt;terminalsToReduce -->
<g id="edge16" class="edge">
<title>Parser&#45;&gt;terminalsToReduce</title>
<path fill="none" stroke="black" d="M971.96,-866.05C970.1,-855.06 968.14,-843.47 966.32,-832.67 960.78,-799.85 954.41,-762.17 950.15,-736.98"/>
<polygon fill="black" stroke="black" points="953.61,-736.47 948.49,-727.19 946.71,-737.64 953.61,-736.47"/>
<text text-anchor="middle" x="1015.19" y="-790.74" font-family="Times New Roman,serif" font-size="14.00">terminals to reduce</text>
</g>
<!-- nonTerminalsToReduce -->
<g id="node15" class="node">
<title>nonTerminalsToReduce</title>
<polygon fill="none" stroke="black" points="1104.32,-778.17 1104.32,-814.17 1158.32,-814.17 1158.32,-778.17 1104.32,-778.17"/>
<text text-anchor="middle" x="1131.19" y="-790.74" font-family="Times New Roman,serif" font-size="14.00"> </text>
</g>
<!-- Parser&#45;&gt;nonTerminalsToReduce -->
<g id="edge17" class="edge">
<title>Parser&#45;&gt;nonTerminalsToReduce</title>
<path fill="none" stroke="black" d="M1025.97,-869.13C1039.31,-856.62 1054.3,-843.55 1069.07,-832.67 1076.92,-826.88 1085.79,-821.32 1094.33,-816.37"/>
<polygon fill="black" stroke="black" points="1095.79,-819.57 1102.79,-811.62 1092.36,-813.46 1095.79,-819.57"/>
<text text-anchor="middle" x="1133.94" y="-835.12" font-family="Times New Roman,serif" font-size="14.00">non&#45;terminals to reduce</text>
</g>
<!-- error -->
<g id="node25" class="node">
<title>error</title>
<ellipse fill="none" stroke="black" cx="1222.32" cy="-796.17" rx="34.1" ry="18"/>
<text text-anchor="middle" x="1222.32" y="-790.74" font-family="Times New Roman,serif" font-size="14.00">Errors</text>
</g>
<!-- Parser&#45;&gt;error -->
<g id="edge24" class="edge">
<title>Parser&#45;&gt;error</title>
<path fill="none" stroke="black" d="M1105.82,-897.26C1139.59,-887.32 1174,-872.01 1200.32,-848.42 1207.24,-842.21 1212.06,-833.46 1215.39,-824.94"/>
<polygon fill="black" stroke="black" points="1218.68,-826.14 1218.47,-815.55 1212.03,-823.95 1218.68,-826.14"/>
<text text-anchor="middle" x="1248.82" y="-835.12" font-family="Times New Roman,serif" font-size="14.00">error tracking</text>
</g>
<!-- todo&#45;1 -->
<g id="node2" class="node">
<title>todo&#45;1</title>
<polygon fill="none" stroke="red" points="322.32,-689.42 322.32,-725.42 376.32,-725.42 376.32,-689.42 322.32,-689.42"/>
<text text-anchor="middle" x="349.19" y="-701.99" font-family="Times New Roman,serif" font-size="14.00">0</text>
</g>
<!-- 1610612736 -->
<g id="node3" class="node">
<title>1610612736</title>
<ellipse fill="none" stroke="black" cx="116.32" cy="-594.88" rx="116.32" ry="39.07"/>
<text text-anchor="middle" x="116.32" y="-605.2" font-family="Times New Roman,serif" font-size="14.00">Skipping: </text>
<text text-anchor="middle" x="116.32" y="-589.45" font-family="Times New Roman,serif" font-size="14.00">.0@0</text>
<text text-anchor="middle" x="116.32" y="-573.7" font-family="Times New Roman,serif" font-size="14.00">in: &#39;S &#45;&gt; ABC Layout End&#39;</text>
</g>
<!-- todo&#45;1&#45;&gt;1610612736 -->
<g id="edge3" class="edge">
<title>todo&#45;1:sw&#45;&gt;1610612736</title>
<path fill="none" stroke="black" d="M322.32,-688.92C304.39,-670.99 252.07,-647.45 204.65,-628.54"/>
<polygon fill="black" stroke="black" points="205.98,-625.3 195.4,-624.89 203.41,-631.81 205.98,-625.3"/>
<text text-anchor="middle" x="312.07" y="-657.62" font-family="Times New Roman,serif" font-size="14.00">Stack</text>
</g>
<!-- 1829344035 -->
<g id="node6" class="node">
<title>1829344035</title>
<polygon fill="none" stroke="black" points="502.22,-577.36 502.22,-612.39 428.47,-637.17 324.17,-637.17 250.42,-612.39 250.42,-577.36 324.17,-552.59 428.47,-552.59 502.22,-577.36"/>
<text text-anchor="middle" x="376.32" y="-605.2" font-family="Times New Roman,serif" font-size="14.00">Skipped</text>
<text text-anchor="middle" x="376.32" y="-589.45" font-family="Times New Roman,serif" font-size="14.00">.0@0: &#160;&quot;a&quot;</text>
<text text-anchor="middle" x="376.32" y="-573.7" font-family="Times New Roman,serif" font-size="14.00">in: &#39;S &#45;&gt; ABC Layout End&#39;</text>
</g>
<!-- todo&#45;1&#45;&gt;1829344035 -->
<g id="edge4" class="edge">
<title>todo&#45;1:se&#45;&gt;1829344035</title>
<path fill="none" stroke="black" d="M376.07,-688.92C386.54,-678.45 389.54,-663.55 389.09,-648.74"/>
<polygon fill="black" stroke="black" points="392.59,-648.68 388.26,-639.01 385.62,-649.28 392.59,-648.68"/>
<text text-anchor="middle" x="404.69" y="-657.62" font-family="Times New Roman,serif" font-size="14.00">Node</text>
</g>
<!-- 1610612735 -->
<g id="node4" class="node">
<title>1610612735</title>
<ellipse fill="none" stroke="black" cx="417.32" cy="-205.79" rx="122.68" ry="39.07"/>
<text text-anchor="middle" x="417.32" y="-216.12" font-family="Times New Roman,serif" font-size="14.00">RecoveryPoint: 1610612735</text>
<text text-anchor="middle" x="417.32" y="-200.37" font-family="Times New Roman,serif" font-size="14.00">.0@0</text>
<text text-anchor="middle" x="417.32" y="-184.62" font-family="Times New Roman,serif" font-size="14.00">in: &#39;S &#45;&gt; ABC Layout End&#39;</text>
</g>
<!-- 1610612736&#45;&gt;1610612735 -->
<g id="edge2" class="edge">
<title>1610612736&#45;&gt;1610612735</title>
<path fill="none" stroke="black" d="M145.18,-556.76C200.4,-485.76 320.85,-330.85 381.26,-253.16"/>
<polygon fill="black" stroke="black" points="384.02,-255.32 387.4,-245.27 378.49,-251.02 384.02,-255.32"/>
</g>
<!-- &#45;1 -->
<g id="node5" class="node">
<title>&#45;1</title>
<ellipse fill="none" stroke="black" cx="440.32" cy="-27.93" rx="73.36" ry="27.93"/>
<text text-anchor="middle" x="440.32" y="-30.38" font-family="Times New Roman,serif" font-size="14.00">NonTerminal: S</text>
<text text-anchor="middle" x="440.32" y="-14.63" font-family="Times New Roman,serif" font-size="14.00">.0@&#45;1</text>
</g>
<!-- 1610612735&#45;&gt;&#45;1 -->
<g id="edge1" class="edge">
<title>1610612735&#45;&gt;&#45;1</title>
<path fill="none" stroke="black" d="M422.31,-166.63C426.16,-137.2 431.46,-96.68 435.31,-67.22"/>
<polygon fill="black" stroke="black" points="438.74,-67.99 436.57,-57.62 431.8,-67.08 438.74,-67.99"/>
</g>
<!-- todoLists&#45;&gt;todo&#45;1 -->
<g id="edge5" class="edge">
<title>todoLists:1&#45;&gt;todo&#45;1</title>
<path fill="none" stroke="black" d="M348.44,-777.67C348.44,-764.27 348.61,-749.42 348.8,-736.92"/>
<polygon fill="black" stroke="black" points="352.29,-737.34 348.95,-727.29 345.29,-737.23 352.29,-737.34"/>
</g>
<!-- todo&#45;5 -->
<g id="node8" class="node">
<title>todo&#45;5</title>
<polygon fill="none" stroke="black" points="662.32,-689.42 662.32,-725.42 716.32,-725.42 716.32,-689.42 662.32,-689.42"/>
<text text-anchor="middle" x="689.19" y="-701.99" font-family="Times New Roman,serif" font-size="14.00">0</text>
</g>
<!-- todoLists&#45;&gt;todo&#45;5 -->
<g id="edge11" class="edge">
<title>todoLists:5&#45;&gt;todo&#45;5</title>
<path fill="none" stroke="black" d="M439.44,-777.67C439.44,-734.37 580.54,-717.04 650.68,-711.1"/>
<polygon fill="black" stroke="black" points="650.91,-714.59 660.59,-710.3 650.35,-707.61 650.91,-714.59"/>
</g>
<!-- 1610612734 -->
<g id="node9" class="node">
<title>1610612734</title>
<ellipse fill="none" stroke="black" cx="662.32" cy="-594.88" rx="141.77" ry="39.07"/>
<text text-anchor="middle" x="662.32" y="-605.2" font-family="Times New Roman,serif" font-size="14.00">Skipping: </text>
<text text-anchor="middle" x="662.32" y="-589.45" font-family="Times New Roman,serif" font-size="14.00">.0@4</text>
<text text-anchor="middle" x="662.32" y="-573.7" font-family="Times New Roman,serif" font-size="14.00">in: &#39;ABC &#45;&gt; a Layout b Layout c&#39;</text>
</g>
<!-- todo&#45;5&#45;&gt;1610612734 -->
<g id="edge9" class="edge">
<title>todo&#45;5:sw&#45;&gt;1610612734</title>
<path fill="none" stroke="black" d="M662.32,-688.92C651.11,-677.7 648.49,-661.41 649.53,-645.58"/>
<polygon fill="black" stroke="black" points="653,-646.06 650.69,-635.72 646.05,-645.24 653,-646.06"/>
<text text-anchor="middle" x="667.07" y="-657.62" font-family="Times New Roman,serif" font-size="14.00">Stack</text>
</g>
<!-- 1637411253 -->
<g id="node12" class="node">
<title>1637411253</title>
<polygon fill="none" stroke="black" points="1128.78,-577.36 1128.78,-612.39 1038.88,-637.17 911.76,-637.17 821.86,-612.39 821.86,-577.36 911.76,-552.59 1038.88,-552.59 1128.78,-577.36"/>
<text text-anchor="middle" x="975.32" y="-605.2" font-family="Times New Roman,serif" font-size="14.00">Skipped</text>
<text text-anchor="middle" x="975.32" y="-589.45" font-family="Times New Roman,serif" font-size="14.00">.4@4: &#160;&quot;x&quot;</text>
<text text-anchor="middle" x="975.32" y="-573.7" font-family="Times New Roman,serif" font-size="14.00">in: &#39;ABC &#45;&gt; a Layout b Layout c&#39;</text>
</g>
<!-- todo&#45;5&#45;&gt;1637411253 -->
<g id="edge10" class="edge">
<title>todo&#45;5:se&#45;&gt;1637411253</title>
<path fill="none" stroke="black" d="M716.07,-688.92C736.92,-668.07 797.84,-645.71 855.4,-628.14"/>
<polygon fill="black" stroke="black" points="856.08,-631.59 864.64,-625.36 854.06,-624.89 856.08,-631.59"/>
<text text-anchor="middle" x="786.69" y="-657.62" font-family="Times New Roman,serif" font-size="14.00">Node</text>
</g>
<!-- 1610612733 -->
<g id="node10" class="node">
<title>1610612733</title>
<ellipse fill="none" stroke="black" cx="662.32" cy="-380.39" rx="141.77" ry="39.07"/>
<text text-anchor="middle" x="662.32" y="-390.71" font-family="Times New Roman,serif" font-size="14.00">RecoveryPoint: 1610612733</text>
<text text-anchor="middle" x="662.32" y="-374.96" font-family="Times New Roman,serif" font-size="14.00">.4@4</text>
<text text-anchor="middle" x="662.32" y="-359.21" font-family="Times New Roman,serif" font-size="14.00">in: &#39;ABC &#45;&gt; a Layout b Layout c&#39;</text>
</g>
<!-- 1610612734&#45;&gt;1610612733 -->
<g id="edge8" class="edge">
<title>1610612734&#45;&gt;1610612733</title>
<path fill="none" stroke="black" d="M662.32,-555.4C662.32,-520.61 662.32,-469.18 662.32,-431.25"/>
<polygon fill="black" stroke="black" points="665.82,-431.46 662.32,-421.46 658.82,-431.46 665.82,-431.46"/>
</g>
<!-- 35 -->
<g id="node11" class="node">
<title>35</title>
<ellipse fill="none" stroke="black" cx="662.32" cy="-120.79" rx="87.68" ry="27.93"/>
<text text-anchor="middle" x="662.32" y="-123.24" font-family="Times New Roman,serif" font-size="14.00">NonTerminal: ABC</text>
<text text-anchor="middle" x="662.32" y="-107.49" font-family="Times New Roman,serif" font-size="14.00">.0@0</text>
</g>
<!-- 1610612733&#45;&gt;35 -->
<g id="edge7" class="edge">
<title>1610612733&#45;&gt;35</title>
<path fill="none" stroke="black" d="M662.32,-340.82C662.32,-292.2 662.32,-209.1 662.32,-160.44"/>
<polygon fill="black" stroke="black" points="665.82,-160.65 662.32,-150.65 658.82,-160.65 665.82,-160.65"/>
</g>
<!-- 35&#45;&gt;&#45;1 -->
<g id="edge6" class="edge">
<title>35&#45;&gt;&#45;1</title>
<path fill="none" stroke="black" d="M609.43,-98.14C576.42,-84.63 533.86,-67.22 499.7,-53.23"/>
<polygon fill="black" stroke="black" points="501.37,-50.14 490.79,-49.59 498.72,-56.61 501.37,-50.14"/>
</g>
<!-- terminalsToReduce&#45;&gt;1610612734 -->
<g id="edge14" class="edge">
<title>terminalsToReduce:sw&#45;&gt;1610612734</title>
<path fill="none" stroke="black" d="M918.32,-688.92C896.83,-667.43 832.42,-644.07 773.58,-626.14"/>
<polygon fill="black" stroke="black" points="774.7,-622.82 764.12,-623.29 772.69,-629.52 774.7,-622.82"/>
<text text-anchor="middle" x="907.07" y="-657.62" font-family="Times New Roman,serif" font-size="14.00">Stack</text>
</g>
<!-- terminalsToReduce&#45;&gt;1637411253 -->
<g id="edge15" class="edge">
<title>terminalsToReduce:se&#45;&gt;1637411253</title>
<path fill="none" stroke="black" d="M972.07,-688.92C982.54,-678.44 985.93,-663.55 985.97,-648.73"/>
<polygon fill="black" stroke="black" points="989.48,-648.82 985.48,-639.01 982.49,-649.17 989.48,-648.82"/>
<text text-anchor="middle" x="1000.69" y="-657.62" font-family="Times New Roman,serif" font-size="14.00">Node</text>
</g>
<!-- unexpandableNodes -->
<g id="node16" class="node">
<title>unexpandableNodes</title>
<polygon fill="none" stroke="black" points="990.32,-689.42 990.32,-725.42 1044.32,-725.42 1044.32,-689.42 990.32,-689.42"/>
<text text-anchor="middle" x="1017.19" y="-701.99" font-family="Times New Roman,serif" font-size="14.00"> </text>
</g>
<!-- unmatchableLeafNodes -->
<g id="node17" class="node">
<title>unmatchableLeafNodes</title>
<polygon fill="none" stroke="black" points="1090.32,-689.42 1090.32,-725.42 1144.32,-725.42 1144.32,-689.42 1090.32,-689.42"/>
<text text-anchor="middle" x="1117.19" y="-701.99" font-family="Times New Roman,serif" font-size="14.00"> </text>
</g>
<!-- unmatchableMidProductionNodes -->
<g id="node18" class="node">
<title>unmatchableMidProductionNodes</title>
<polygon fill="none" stroke="black" points="1209.32,-689.42 1209.32,-725.42 1263.32,-725.42 1263.32,-689.42 1209.32,-689.42"/>
<text text-anchor="middle" x="1236.19" y="-701.99" font-family="Times New Roman,serif" font-size="14.00">0</text>
</g>
<!-- unmatchable&#45;mid&#45;production&#45;0 -->
<g id="node19" class="node">
<title>unmatchable&#45;mid&#45;production&#45;0</title>
<polygon fill="none" stroke="black" points="1146.69,-576.88 1146.69,-612.88 1321.94,-612.88 1321.94,-576.88 1146.69,-576.88"/>
<text text-anchor="middle" x="1188.82" y="-589.45" font-family="Times New Roman,serif" font-size="14.00">Failed Node</text>
<polyline fill="none" stroke="black" points="1230.94,-576.88 1230.94,-612.88"/>
<text text-anchor="middle" x="1276.44" y="-589.45" font-family="Times New Roman,serif" font-size="14.00">Predecessors</text>
</g>
<!-- unmatchableMidProductionNodes&#45;&gt;unmatchable&#45;mid&#45;production&#45;0 -->
<g id="edge18" class="edge">
<title>unmatchableMidProductionNodes:0&#45;&gt;unmatchable&#45;mid&#45;production&#45;0</title>
<path fill="none" stroke="black" d="M1235.88,-689C1235.59,-671.49 1235.14,-644.91 1234.8,-624.61"/>
<polygon fill="black" stroke="black" points="1238.3,-624.68 1234.64,-614.74 1231.3,-624.79 1238.3,-624.68"/>
</g>
<!-- 59 -->
<g id="node20" class="node">
<title>59</title>
<ellipse fill="none" stroke="black" cx="1089.32" cy="-476.53" rx="141.77" ry="39.07"/>
<text text-anchor="middle" x="1089.32" y="-486.85" font-family="Times New Roman,serif" font-size="14.00">Literal: </text>
<text text-anchor="middle" x="1089.32" y="-471.1" font-family="Times New Roman,serif" font-size="14.00">.4@&#45;1</text>
<text text-anchor="middle" x="1089.32" y="-455.35" font-family="Times New Roman,serif" font-size="14.00">in: &#39;ABC &#45;&gt; a Layout b Layout c&#39;</text>
</g>
<!-- unmatchable&#45;mid&#45;production&#45;0&#45;&gt;59 -->
<g id="edge22" class="edge">
<title>unmatchable&#45;mid&#45;production&#45;0:failedNode&#45;&gt;59</title>
<path fill="none" stroke="black" d="M1145.69,-594.88C1136.11,-594.88 1140.89,-561.48 1137.32,-552.59 1133.51,-543.11 1128.46,-533.51 1123.08,-524.5"/>
<polygon fill="black" stroke="black" points="1126.2,-522.91 1117.94,-516.27 1120.27,-526.61 1126.2,-522.91"/>
</g>
<!-- unmatchable&#45;mid&#45;production&#45;predecessors&#45;0 -->
<g id="node21" class="node">
<title>unmatchable&#45;mid&#45;production&#45;predecessors&#45;0</title>
<polygon fill="none" stroke="black" points="1249.32,-458.53 1249.32,-494.53 1303.32,-494.53 1303.32,-458.53 1249.32,-458.53"/>
<text text-anchor="middle" x="1276.19" y="-471.1" font-family="Times New Roman,serif" font-size="14.00">0</text>
</g>
<!-- unmatchable&#45;mid&#45;production&#45;0&#45;&gt;unmatchable&#45;mid&#45;production&#45;predecessors&#45;0 -->
<g id="edge23" class="edge">
<title>unmatchable&#45;mid&#45;production&#45;0:predecessors&#45;&gt;unmatchable&#45;mid&#45;production&#45;predecessors&#45;0</title>
<path fill="none" stroke="black" d="M1276.44,-575.88C1276.44,-552.52 1276.41,-526.03 1276.38,-506.44"/>
<polygon fill="black" stroke="black" points="1279.88,-506.44 1276.36,-496.45 1272.88,-506.46 1279.88,-506.44"/>
</g>
<!-- 58 -->
<g id="node22" class="node">
<title>58</title>
<ellipse fill="none" stroke="black" cx="926.32" cy="-293.09" rx="95.11" ry="27.93"/>
<text text-anchor="middle" x="926.32" y="-295.54" font-family="Times New Roman,serif" font-size="14.00">NonTerminal: Layout</text>
<text text-anchor="middle" x="926.32" y="-279.79" font-family="Times New Roman,serif" font-size="14.00">.3@3</text>
</g>
<!-- unmatchable&#45;mid&#45;production&#45;predecessors&#45;0&#45;&gt;58 -->
<g id="edge20" class="edge">
<title>unmatchable&#45;mid&#45;production&#45;predecessors&#45;0:sw&#45;&gt;58</title>
<path fill="none" stroke="black" d="M1249.32,-457.53C1242.41,-450.61 1247.21,-444.39 1240.32,-437.46 1176.78,-373.49 1079.47,-335.19 1010.03,-314.49"/>
<polygon fill="black" stroke="black" points="1011.17,-311.17 1000.59,-311.74 1009.21,-317.89 1011.17,-311.17"/>
<text text-anchor="middle" x="1235.07" y="-374.96" font-family="Times New Roman,serif" font-size="14.00">Stack</text>
</g>
<!-- 197535883 -->
<g id="node23" class="node">
<title>197535883</title>
<polygon fill="none" stroke="black" points="1424.78,-280.57 1424.78,-305.61 1353.04,-323.32 1251.6,-323.32 1179.86,-305.61 1179.86,-280.57 1251.6,-262.86 1353.04,-262.86 1424.78,-280.57"/>
<text text-anchor="middle" x="1302.32" y="-295.54" font-family="Times New Roman,serif" font-size="14.00">SortContainer 3&#45;4</text>
<text text-anchor="middle" x="1302.32" y="-279.79" font-family="Times New Roman,serif" font-size="14.00">&#39;Layout &#45;&gt; [range(32,32)]&#39;</text>
</g>
<!-- unmatchable&#45;mid&#45;production&#45;predecessors&#45;0&#45;&gt;197535883 -->
<g id="edge21" class="edge">
<title>unmatchable&#45;mid&#45;production&#45;predecessors&#45;0:se&#45;&gt;197535883</title>
<path fill="none" stroke="black" d="M1303.07,-457.53C1334.53,-426.07 1327.17,-371.84 1316.75,-334.54"/>
<polygon fill="black" stroke="black" points="1320.11,-333.57 1313.89,-324.99 1313.4,-335.58 1320.11,-333.57"/>
<text text-anchor="middle" x="1340.69" y="-374.96" font-family="Times New Roman,serif" font-size="14.00">Node</text>
</g>
<!-- 58&#45;&gt;35 -->
<g id="edge19" class="edge">
<title>58&#45;&gt;35</title>
<path fill="none" stroke="black" d="M887.65,-267.14C840.42,-236.68 760.56,-185.17 709.69,-152.35"/>
<polygon fill="black" stroke="black" points="711.81,-149.55 701.51,-147.07 708.01,-155.43 711.81,-149.55"/>
</g>
<!-- filteredNodes -->
<g id="node24" class="node">
<title>filteredNodes</title>
<polygon fill="none" stroke="black" points="1361.32,-689.42 1361.32,-725.42 1415.32,-725.42 1415.32,-689.42 1361.32,-689.42"/>
<text text-anchor="middle" x="1388.19" y="-701.99" font-family="Times New Roman,serif" font-size="14.00"> </text>
</g>
<!-- error&#45;&gt;unexpandableNodes -->
<g id="edge25" class="edge">
<title>error&#45;&gt;unexpandableNodes</title>
<path fill="none" stroke="black" d="M1194.59,-785.32C1185.94,-782.53 1176.31,-779.7 1167.32,-777.67 1138.55,-771.17 1058.75,-778.22 1035.82,-759.67 1028.76,-753.96 1024.4,-745.33 1021.7,-736.77"/>
<polygon fill="black" stroke="black" points="1025.15,-736.16 1019.38,-727.28 1018.35,-737.83 1025.15,-736.16"/>
<text text-anchor="middle" x="1073.57" y="-746.37" font-family="Times New Roman,serif" font-size="14.00">unexpandable</text>
</g>
<!-- error&#45;&gt;unmatchableLeafNodes -->
<g id="edge26" class="edge">
<title>error&#45;&gt;unmatchableLeafNodes</title>
<path fill="none" stroke="black" d="M1194.09,-785.74C1165.97,-776.23 1126.64,-762.54 1124.32,-759.67 1119.24,-753.38 1116.87,-745.17 1115.92,-737.18"/>
<polygon fill="black" stroke="black" points="1119.43,-737.21 1115.49,-727.37 1112.44,-737.52 1119.43,-737.21"/>
<text text-anchor="middle" x="1173.82" y="-746.37" font-family="Times New Roman,serif" font-size="14.00">unmatchable leafs</text>
</g>
<!-- error&#45;&gt;unmatchableMidProductionNodes -->
<g id="edge27" class="edge">
<title>error&#45;&gt;unmatchableMidProductionNodes</title>
<path fill="none" stroke="black" d="M1225.09,-778.03C1226.97,-766.34 1229.51,-750.58 1231.7,-737.02"/>
<polygon fill="black" stroke="black" points="1235.13,-737.74 1233.27,-727.31 1228.22,-736.62 1235.13,-737.74"/>
<text text-anchor="middle" x="1293.32" y="-746.37" font-family="Times New Roman,serif" font-size="14.00">unmatchable mid&#45;prod</text>
</g>
<!-- error&#45;&gt;filteredNodes -->
<g id="edge28" class="edge">
<title>error&#45;&gt;filteredNodes</title>
<path fill="none" stroke="black" d="M1256.56,-793.87C1286.71,-791.1 1330.35,-782.99 1360.32,-759.67 1368.17,-753.56 1374.12,-744.6 1378.46,-735.88"/>
<polygon fill="black" stroke="black" points="1381.57,-737.52 1382.39,-726.95 1375.16,-734.7 1381.57,-737.52"/>
<text text-anchor="middle" x="1392.44" y="-746.37" font-family="Times New Roman,serif" font-size="14.00">filtered</text>
</g>
</g>
</svg>
