<?xml version="1.0" encoding="UTF-8" standalone="no"?>
<!DOCTYPE svg PUBLIC "-//W3C//DTD SVG 1.1//EN"
 "http://www.w3.org/Graphics/SVG/1.1/DTD/svg11.dtd">
<!-- Generated by graphviz version 12.0.0 (20240704.0754)
 -->
<!-- Title: Parser Pages: 1 -->
<svg width="1476pt" height="800pt"
 viewBox="0.00 0.00 1476.32 800.23" xmlns="http://www.w3.org/2000/svg" xmlns:xlink="http://www.w3.org/1999/xlink">
<g id="graph0" class="graph" transform="scale(1 1) rotate(0) translate(4 796.23)">
<title>Parser</title>
<polygon fill="white" stroke="none" points="-4,4 -4,-796.23 1472.32,-796.23 1472.32,4 -4,4"/>
<!-- Parser -->
<g id="node1" class="node">
<title>Parser</title>
<ellipse fill="none" stroke="black" cx="917.32" cy="-742.02" rx="121.62" ry="50.2"/>
<text text-anchor="middle" x="917.32" y="-760.22" font-family="Times New Roman,serif" font-size="14.00">Parser</text>
<text text-anchor="middle" x="917.32" y="-744.47" font-family="Times New Roman,serif" font-size="14.00">Input: &quot;a b x $&quot;</text>
<text text-anchor="middle" x="917.32" y="-728.72" font-family="Times New Roman,serif" font-size="14.00">Location: 1 (&#39; &#39;)</text>
<text text-anchor="middle" x="917.32" y="-712.97" font-family="Times New Roman,serif" font-size="14.00">Step 27: Reducing terminals</text>
</g>
<!-- todoLists -->
<g id="node7" class="node">
<title>todoLists</title>
<polygon fill="none" stroke="black" points="343.32,-603.57 343.32,-639.57 895.32,-639.57 895.32,-603.57 343.32,-603.57"/>
<text text-anchor="middle" x="354.69" y="-616.14" font-family="Times New Roman,serif" font-size="14.00">0</text>
<polyline fill="none" stroke="black" points="366.07,-603.57 366.07,-639.57"/>
<text text-anchor="middle" x="377.44" y="-616.14" font-family="Times New Roman,serif" font-size="14.00">1</text>
<polyline fill="none" stroke="black" points="388.82,-603.57 388.82,-639.57"/>
<text text-anchor="middle" x="400.19" y="-616.14" font-family="Times New Roman,serif" font-size="14.00">2</text>
<polyline fill="none" stroke="black" points="411.57,-603.57 411.57,-639.57"/>
<text text-anchor="middle" x="422.94" y="-616.14" font-family="Times New Roman,serif" font-size="14.00">3</text>
<polyline fill="none" stroke="black" points="434.32,-603.57 434.32,-639.57"/>
<text text-anchor="middle" x="445.69" y="-616.14" font-family="Times New Roman,serif" font-size="14.00">4</text>
<polyline fill="none" stroke="black" points="457.07,-603.57 457.07,-639.57"/>
<text text-anchor="middle" x="468.44" y="-616.14" font-family="Times New Roman,serif" font-size="14.00">5</text>
<polyline fill="none" stroke="black" points="479.82,-603.57 479.82,-639.57"/>
<text text-anchor="middle" x="491.19" y="-616.14" font-family="Times New Roman,serif" font-size="14.00">6</text>
<polyline fill="none" stroke="black" points="502.57,-603.57 502.57,-639.57"/>
<text text-anchor="middle" x="513.94" y="-616.14" font-family="Times New Roman,serif" font-size="14.00">7</text>
<polyline fill="none" stroke="black" points="525.32,-603.57 525.32,-639.57"/>
<text text-anchor="middle" x="536.69" y="-616.14" font-family="Times New Roman,serif" font-size="14.00">8</text>
<polyline fill="none" stroke="black" points="548.07,-603.57 548.07,-639.57"/>
<text text-anchor="middle" x="559.44" y="-616.14" font-family="Times New Roman,serif" font-size="14.00">9</text>
<polyline fill="none" stroke="black" points="570.82,-603.57 570.82,-639.57"/>
<text text-anchor="middle" x="585.57" y="-616.14" font-family="Times New Roman,serif" font-size="14.00">10</text>
<polyline fill="none" stroke="black" points="600.32,-603.57 600.32,-639.57"/>
<text text-anchor="middle" x="615.07" y="-616.14" font-family="Times New Roman,serif" font-size="14.00">11</text>
<polyline fill="none" stroke="black" points="629.82,-603.57 629.82,-639.57"/>
<text text-anchor="middle" x="644.57" y="-616.14" font-family="Times New Roman,serif" font-size="14.00">12</text>
<polyline fill="none" stroke="black" points="659.32,-603.57 659.32,-639.57"/>
<text text-anchor="middle" x="674.07" y="-616.14" font-family="Times New Roman,serif" font-size="14.00">13</text>
<polyline fill="none" stroke="black" points="688.82,-603.57 688.82,-639.57"/>
<text text-anchor="middle" x="703.57" y="-616.14" font-family="Times New Roman,serif" font-size="14.00">14</text>
<polyline fill="none" stroke="black" points="718.32,-603.57 718.32,-639.57"/>
<text text-anchor="middle" x="733.07" y="-616.14" font-family="Times New Roman,serif" font-size="14.00">15</text>
<polyline fill="none" stroke="black" points="747.82,-603.57 747.82,-639.57"/>
<text text-anchor="middle" x="762.57" y="-616.14" font-family="Times New Roman,serif" font-size="14.00">16</text>
<polyline fill="none" stroke="black" points="777.32,-603.57 777.32,-639.57"/>
<text text-anchor="middle" x="792.07" y="-616.14" font-family="Times New Roman,serif" font-size="14.00">17</text>
<polyline fill="none" stroke="black" points="806.82,-603.57 806.82,-639.57"/>
<text text-anchor="middle" x="821.57" y="-616.14" font-family="Times New Roman,serif" font-size="14.00">18</text>
<polyline fill="none" stroke="black" points="836.32,-603.57 836.32,-639.57"/>
<text text-anchor="middle" x="851.07" y="-616.14" font-family="Times New Roman,serif" font-size="14.00">19</text>
<polyline fill="none" stroke="black" points="865.82,-603.57 865.82,-639.57"/>
<text text-anchor="middle" x="880.57" y="-616.14" font-family="Times New Roman,serif" font-size="14.00">20</text>
</g>
<!-- Parser&#45;&gt;todoLists -->
<g id="edge12" class="edge">
<title>Parser&#45;&gt;todoLists</title>
<path fill="none" stroke="black" d="M830.32,-706.44C779.8,-686.36 717.71,-661.68 674,-644.3"/>
<polygon fill="black" stroke="black" points="675.29,-641.05 664.71,-640.61 672.71,-647.55 675.29,-641.05"/>
<text text-anchor="middle" x="768.19" y="-660.52" font-family="Times New Roman,serif" font-size="14.00">todo lists</text>
</g>
<!-- stacksToExpand -->
<g id="node13" class="node">
<title>stacksToExpand</title>
<polygon fill="none" stroke="black" points="913.32,-603.57 913.32,-639.57 967.32,-639.57 967.32,-603.57 913.32,-603.57"/>
<text text-anchor="middle" x="940.19" y="-616.14" font-family="Times New Roman,serif" font-size="14.00"> </text>
</g>
<!-- Parser&#45;&gt;stacksToExpand -->
<g id="edge13" class="edge">
<title>Parser&#45;&gt;stacksToExpand</title>
<path fill="none" stroke="black" d="M913.98,-691.69C914.38,-680.47 915.74,-668.72 918.82,-658.07 919.62,-655.28 920.71,-652.49 921.96,-649.77"/>
<polygon fill="black" stroke="black" points="924.98,-651.55 926.69,-641.1 918.83,-648.2 924.98,-651.55"/>
<text text-anchor="middle" x="966.57" y="-660.52" font-family="Times New Roman,serif" font-size="14.00">stacks to expand</text>
</g>
<!-- terminalsToReduce -->
<g id="node14" class="node">
<title>terminalsToReduce</title>
<polygon fill="none" stroke="red" points="192.32,-514.82 192.32,-550.82 246.32,-550.82 246.32,-514.82 192.32,-514.82"/>
<text text-anchor="middle" x="219.19" y="-527.39" font-family="Times New Roman,serif" font-size="14.00">0</text>
</g>
<!-- Parser&#45;&gt;terminalsToReduce -->
<g id="edge16" class="edge">
<title>Parser&#45;&gt;terminalsToReduce</title>
<path fill="none" stroke="black" d="M795.39,-740.62C618.57,-737.25 303.81,-719.86 228.57,-640.07 209.33,-619.67 209.62,-586.23 213.06,-562.31"/>
<polygon fill="black" stroke="black" points="216.48,-563.06 214.74,-552.61 209.58,-561.86 216.48,-563.06"/>
<text text-anchor="middle" x="282.19" y="-616.14" font-family="Times New Roman,serif" font-size="14.00">terminals to reduce</text>
</g>
<!-- nonTerminalsToReduce -->
<g id="node15" class="node">
<title>nonTerminalsToReduce</title>
<polygon fill="none" stroke="black" points="1008.32,-603.57 1008.32,-639.57 1062.32,-639.57 1062.32,-603.57 1008.32,-603.57"/>
<text text-anchor="middle" x="1035.19" y="-616.14" font-family="Times New Roman,serif" font-size="14.00"> </text>
</g>
<!-- Parser&#45;&gt;nonTerminalsToReduce -->
<g id="edge17" class="edge">
<title>Parser&#45;&gt;nonTerminalsToReduce</title>
<path fill="none" stroke="black" d="M985.94,-700.2C995.94,-692.3 1005.49,-683.44 1013.32,-673.82 1018.86,-667 1023.24,-658.57 1026.58,-650.54"/>
<polygon fill="black" stroke="black" points="1029.77,-652.02 1029.98,-641.43 1023.21,-649.58 1029.77,-652.02"/>
<text text-anchor="middle" x="1087.94" y="-660.52" font-family="Times New Roman,serif" font-size="14.00">non&#45;terminals to reduce</text>
</g>
<!-- error -->
<g id="node20" class="node">
<title>error</title>
<ellipse fill="none" stroke="black" cx="1189.32" cy="-621.57" rx="34.1" ry="18"/>
<text text-anchor="middle" x="1189.32" y="-616.14" font-family="Times New Roman,serif" font-size="14.00">Errors</text>
</g>
<!-- Parser&#45;&gt;error -->
<g id="edge18" class="edge">
<title>Parser&#45;&gt;error</title>
<path fill="none" stroke="black" d="M1033.5,-726.4C1075.61,-716.71 1121.56,-700.6 1157.32,-673.82 1165.65,-667.58 1172.33,-658.48 1177.38,-649.68"/>
<polygon fill="black" stroke="black" points="1180.38,-651.5 1181.88,-641.01 1174.17,-648.27 1180.38,-651.5"/>
<text text-anchor="middle" x="1208.82" y="-660.52" font-family="Times New Roman,serif" font-size="14.00">error tracking</text>
</g>
<!-- todo&#45;1 -->
<g id="node2" class="node">
<title>todo&#45;1</title>
<polygon fill="none" stroke="black" points="323.32,-514.82 323.32,-550.82 377.32,-550.82 377.32,-514.82 323.32,-514.82"/>
<text text-anchor="middle" x="350.19" y="-527.39" font-family="Times New Roman,serif" font-size="14.00">0</text>
</g>
<!-- 1610612736 -->
<g id="node3" class="node">
<title>1610612736</title>
<ellipse fill="none" stroke="black" cx="116.32" cy="-420.28" rx="116.32" ry="39.07"/>
<text text-anchor="middle" x="116.32" y="-430.6" font-family="Times New Roman,serif" font-size="14.00">Skipping: </text>
<text text-anchor="middle" x="116.32" y="-414.85" font-family="Times New Roman,serif" font-size="14.00">.0@0</text>
<text text-anchor="middle" x="116.32" y="-399.1" font-family="Times New Roman,serif" font-size="14.00">in: &#39;S &#45;&gt; ABC Layout End&#39;</text>
</g>
<!-- todo&#45;1&#45;&gt;1610612736 -->
<g id="edge3" class="edge">
<title>todo&#45;1:sw&#45;&gt;1610612736</title>
<path fill="none" stroke="black" d="M323.32,-514.32C309.13,-500.13 310.07,-491.63 293.32,-480.57 292.28,-479.88 251.18,-466.1 208.85,-452"/>
<polygon fill="black" stroke="black" points="210.12,-448.73 199.52,-448.89 207.9,-455.37 210.12,-448.73"/>
<text text-anchor="middle" x="325.07" y="-483.02" font-family="Times New Roman,serif" font-size="14.00">Stack</text>
</g>
<!-- 1829344035 -->
<g id="node6" class="node">
<title>1829344035</title>
<polygon fill="none" stroke="black" points="502.22,-402.76 502.22,-437.8 428.47,-462.57 324.17,-462.57 250.42,-437.8 250.42,-402.76 324.17,-377.99 428.47,-377.99 502.22,-402.76"/>
<text text-anchor="middle" x="376.32" y="-430.6" font-family="Times New Roman,serif" font-size="14.00">Skipped</text>
<text text-anchor="middle" x="376.32" y="-414.85" font-family="Times New Roman,serif" font-size="14.00">.0@0: &#160;&quot;a&quot;</text>
<text text-anchor="middle" x="376.32" y="-399.1" font-family="Times New Roman,serif" font-size="14.00">in: &#39;S &#45;&gt; ABC Layout End&#39;</text>
</g>
<!-- todo&#45;1&#45;&gt;1829344035 -->
<g id="edge4" class="edge">
<title>todo&#45;1:se&#45;&gt;1829344035</title>
<path fill="none" stroke="black" d="M377.07,-514.32C387.54,-503.85 390.41,-488.95 389.79,-474.14"/>
<polygon fill="black" stroke="black" points="393.3,-474.03 388.85,-464.41 386.33,-474.7 393.3,-474.03"/>
<text text-anchor="middle" x="405.69" y="-483.02" font-family="Times New Roman,serif" font-size="14.00">Node</text>
</g>
<!-- 1610612735 -->
<g id="node4" class="node">
<title>1610612735</title>
<ellipse fill="none" stroke="black" cx="320.32" cy="-205.79" rx="122.68" ry="39.07"/>
<text text-anchor="middle" x="320.32" y="-216.12" font-family="Times New Roman,serif" font-size="14.00">RecoveryPoint: 1610612735</text>
<text text-anchor="middle" x="320.32" y="-200.37" font-family="Times New Roman,serif" font-size="14.00">.0@0</text>
<text text-anchor="middle" x="320.32" y="-184.62" font-family="Times New Roman,serif" font-size="14.00">in: &#39;S &#45;&gt; ABC Layout End&#39;</text>
</g>
<!-- 1610612736&#45;&gt;1610612735 -->
<g id="edge2" class="edge">
<title>1610612736&#45;&gt;1610612735</title>
<path fill="none" stroke="black" d="M151.39,-382.75C186.27,-346.42 239.86,-290.6 277.29,-251.61"/>
<polygon fill="black" stroke="black" points="279.58,-254.28 283.98,-244.65 274.53,-249.43 279.58,-254.28"/>
</g>
<!-- &#45;1 -->
<g id="node5" class="node">
<title>&#45;1</title>
<ellipse fill="none" stroke="black" cx="343.32" cy="-27.93" rx="73.36" ry="27.93"/>
<text text-anchor="middle" x="343.32" y="-30.38" font-family="Times New Roman,serif" font-size="14.00">NonTerminal: S</text>
<text text-anchor="middle" x="343.32" y="-14.63" font-family="Times New Roman,serif" font-size="14.00">.0@&#45;1</text>
</g>
<!-- 1610612735&#45;&gt;&#45;1 -->
<g id="edge1" class="edge">
<title>1610612735&#45;&gt;&#45;1</title>
<path fill="none" stroke="black" d="M325.31,-166.63C329.16,-137.2 334.46,-96.68 338.31,-67.22"/>
<polygon fill="black" stroke="black" points="341.74,-67.99 339.57,-57.62 334.8,-67.08 341.74,-67.99"/>
</g>
<!-- todoLists&#45;&gt;todo&#45;1 -->
<g id="edge5" class="edge">
<title>todoLists:1&#45;&gt;todo&#45;1</title>
<path fill="none" stroke="black" d="M377.44,-603.07C377.44,-588.69 372.31,-573.71 366.51,-561.38"/>
<polygon fill="black" stroke="black" points="369.71,-559.96 362.04,-552.65 363.48,-563.15 369.71,-559.96"/>
</g>
<!-- todo&#45;5 -->
<g id="node8" class="node">
<title>todo&#45;5</title>
<polygon fill="none" stroke="black" points="662.32,-514.82 662.32,-550.82 716.32,-550.82 716.32,-514.82 662.32,-514.82"/>
<text text-anchor="middle" x="689.19" y="-527.39" font-family="Times New Roman,serif" font-size="14.00">0</text>
</g>
<!-- todoLists&#45;&gt;todo&#45;5 -->
<g id="edge11" class="edge">
<title>todoLists:5&#45;&gt;todo&#45;5</title>
<path fill="none" stroke="black" d="M468.44,-603.07C468.44,-565.23 587.92,-545.59 651.13,-537.85"/>
<polygon fill="black" stroke="black" points="651.21,-541.36 660.73,-536.72 650.39,-534.41 651.21,-541.36"/>
</g>
<!-- 1610612734 -->
<g id="node9" class="node">
<title>1610612734</title>
<ellipse fill="none" stroke="black" cx="662.32" cy="-420.28" rx="141.77" ry="39.07"/>
<text text-anchor="middle" x="662.32" y="-430.6" font-family="Times New Roman,serif" font-size="14.00">Skipping: </text>
<text text-anchor="middle" x="662.32" y="-414.85" font-family="Times New Roman,serif" font-size="14.00">.0@4</text>
<text text-anchor="middle" x="662.32" y="-399.1" font-family="Times New Roman,serif" font-size="14.00">in: &#39;ABC &#45;&gt; a Layout b Layout c&#39;</text>
</g>
<!-- todo&#45;5&#45;&gt;1610612734 -->
<g id="edge9" class="edge">
<title>todo&#45;5:sw&#45;&gt;1610612734</title>
<path fill="none" stroke="black" d="M662.32,-514.32C651.11,-503.1 648.49,-486.81 649.53,-470.98"/>
<polygon fill="black" stroke="black" points="653,-471.46 650.69,-461.12 646.05,-470.64 653,-471.46"/>
<text text-anchor="middle" x="668.07" y="-483.02" font-family="Times New Roman,serif" font-size="14.00">Stack</text>
</g>
<!-- 1637411253 -->
<g id="node12" class="node">
<title>1637411253</title>
<polygon fill="none" stroke="black" points="1128.78,-402.76 1128.78,-437.8 1038.88,-462.57 911.76,-462.57 821.86,-437.8 821.86,-402.76 911.76,-377.99 1038.88,-377.99 1128.78,-402.76"/>
<text text-anchor="middle" x="975.32" y="-430.6" font-family="Times New Roman,serif" font-size="14.00">Skipped</text>
<text text-anchor="middle" x="975.32" y="-414.85" font-family="Times New Roman,serif" font-size="14.00">.4@4: &#160;&quot;x&quot;</text>
<text text-anchor="middle" x="975.32" y="-399.1" font-family="Times New Roman,serif" font-size="14.00">in: &#39;ABC &#45;&gt; a Layout b Layout c&#39;</text>
</g>
<!-- todo&#45;5&#45;&gt;1637411253 -->
<g id="edge10" class="edge">
<title>todo&#45;5:se&#45;&gt;1637411253</title>
<path fill="none" stroke="black" d="M716.07,-514.32C736.92,-493.47 797.84,-471.11 855.4,-453.55"/>
<polygon fill="black" stroke="black" points="856.08,-457 864.64,-450.76 854.06,-450.29 856.08,-457"/>
<text text-anchor="middle" x="787.69" y="-483.02" font-family="Times New Roman,serif" font-size="14.00">Node</text>
</g>
<!-- 1610612733 -->
<g id="node10" class="node">
<title>1610612733</title>
<ellipse fill="none" stroke="black" cx="568.32" cy="-301.93" rx="141.77" ry="39.07"/>
<text text-anchor="middle" x="568.32" y="-312.25" font-family="Times New Roman,serif" font-size="14.00">RecoveryPoint: 1610612733</text>
<text text-anchor="middle" x="568.32" y="-296.5" font-family="Times New Roman,serif" font-size="14.00">.4@4</text>
<text text-anchor="middle" x="568.32" y="-280.75" font-family="Times New Roman,serif" font-size="14.00">in: &#39;ABC &#45;&gt; a Layout b Layout c&#39;</text>
</g>
<!-- 1610612734&#45;&gt;1610612733 -->
<g id="edge8" class="edge">
<title>1610612734&#45;&gt;1610612733</title>
<path fill="none" stroke="black" d="M632.06,-381.82C623.67,-371.44 614.47,-360.05 605.73,-349.23"/>
<polygon fill="black" stroke="black" points="608.48,-347.07 599.47,-341.49 603.03,-351.47 608.48,-347.07"/>
</g>
<!-- 35 -->
<g id="node11" class="node">
<title>35</title>
<ellipse fill="none" stroke="black" cx="452.32" cy="-120.79" rx="87.68" ry="27.93"/>
<text text-anchor="middle" x="452.32" y="-123.24" font-family="Times New Roman,serif" font-size="14.00">NonTerminal: ABC</text>
<text text-anchor="middle" x="452.32" y="-107.49" font-family="Times New Roman,serif" font-size="14.00">.0@0</text>
</g>
<!-- 1610612733&#45;&gt;35 -->
<g id="edge7" class="edge">
<title>1610612733&#45;&gt;35</title>
<path fill="none" stroke="black" d="M544,-263.37C523.92,-232.36 495.59,-188.62 475.76,-157.98"/>
<polygon fill="black" stroke="black" points="478.83,-156.29 470.46,-149.8 472.96,-160.1 478.83,-156.29"/>
</g>
<!-- 35&#45;&gt;&#45;1 -->
<g id="edge6" class="edge">
<title>35&#45;&gt;&#45;1</title>
<path fill="none" stroke="black" d="M421.67,-94.24C409.29,-83.92 394.86,-71.89 381.78,-60.99"/>
<polygon fill="black" stroke="black" points="384.08,-58.35 374.15,-54.63 379.59,-63.72 384.08,-58.35"/>
</g>
<!-- terminalsToReduce&#45;&gt;1610612736 -->
<g id="edge14" class="edge">
<title>terminalsToReduce:sw&#45;&gt;1610612736</title>
<path fill="none" stroke="black" d="M192.32,-514.32C177.9,-499.89 163.4,-482.91 150.99,-467.43"/>
<polygon fill="black" stroke="black" points="153.83,-465.38 144.88,-459.71 148.34,-469.72 153.83,-465.38"/>
<text text-anchor="middle" x="190.07" y="-483.02" font-family="Times New Roman,serif" font-size="14.00">Stack</text>
</g>
<!-- terminalsToReduce&#45;&gt;1829344035 -->
<g id="edge15" class="edge">
<title>terminalsToReduce:se&#45;&gt;1829344035</title>
<path fill="none" stroke="black" d="M246.07,-514.32C257.88,-502.51 250.92,-492.52 262.57,-480.57 270.01,-472.93 278.65,-466.08 287.77,-459.98"/>
<polygon fill="black" stroke="black" points="289.55,-463 296.14,-454.71 285.81,-457.08 289.55,-463"/>
<text text-anchor="middle" x="278.69" y="-483.02" font-family="Times New Roman,serif" font-size="14.00">Node</text>
</g>
<!-- unexpandableNodes -->
<g id="node16" class="node">
<title>unexpandableNodes</title>
<polygon fill="none" stroke="black" points="1112.32,-514.82 1112.32,-550.82 1166.32,-550.82 1166.32,-514.82 1112.32,-514.82"/>
<text text-anchor="middle" x="1139.19" y="-527.39" font-family="Times New Roman,serif" font-size="14.00"> </text>
</g>
<!-- unmatchableLeafNodes -->
<g id="node17" class="node">
<title>unmatchableLeafNodes</title>
<polygon fill="none" stroke="black" points="1212.32,-514.82 1212.32,-550.82 1266.32,-550.82 1266.32,-514.82 1212.32,-514.82"/>
<text text-anchor="middle" x="1239.19" y="-527.39" font-family="Times New Roman,serif" font-size="14.00"> </text>
</g>
<!-- unmatchableMidProductionNodes -->
<g id="node18" class="node">
<title>unmatchableMidProductionNodes</title>
<polygon fill="none" stroke="black" points="1334.32,-514.82 1334.32,-550.82 1388.32,-550.82 1388.32,-514.82 1334.32,-514.82"/>
<text text-anchor="middle" x="1361.19" y="-527.39" font-family="Times New Roman,serif" font-size="14.00"> </text>
</g>
<!-- filteredNodes -->
<g id="node19" class="node">
<title>filteredNodes</title>
<polygon fill="none" stroke="black" points="1040.32,-514.82 1040.32,-550.82 1094.32,-550.82 1094.32,-514.82 1040.32,-514.82"/>
<text text-anchor="middle" x="1067.19" y="-527.39" font-family="Times New Roman,serif" font-size="14.00"> </text>
</g>
<!-- error&#45;&gt;unexpandableNodes -->
<g id="edge19" class="edge">
<title>error&#45;&gt;unexpandableNodes</title>
<path fill="none" stroke="black" d="M1164.69,-608.69C1155.52,-602.92 1146.06,-595.04 1140.82,-585.07 1137.19,-578.16 1135.87,-569.98 1135.7,-562.2"/>
<polygon fill="black" stroke="black" points="1139.19,-562.57 1136.12,-552.43 1132.19,-562.27 1139.19,-562.57"/>
<text text-anchor="middle" x="1178.57" y="-571.77" font-family="Times New Roman,serif" font-size="14.00">unexpandable</text>
</g>
<!-- error&#45;&gt;unmatchableLeafNodes -->
<g id="edge20" class="edge">
<title>error&#45;&gt;unmatchableLeafNodes</title>
<path fill="none" stroke="black" d="M1203.08,-604.95C1207.95,-598.98 1213.23,-591.95 1217.32,-585.07 1221.69,-577.71 1225.67,-569.33 1229,-561.51"/>
<polygon fill="black" stroke="black" points="1232.18,-562.97 1232.69,-552.38 1225.69,-560.34 1232.18,-562.97"/>
<text text-anchor="middle" x="1273.82" y="-571.77" font-family="Times New Roman,serif" font-size="14.00">unmatchable leafs</text>
</g>
<!-- error&#45;&gt;unmatchableMidProductionNodes -->
<g id="edge21" class="edge">
<title>error&#45;&gt;unmatchableMidProductionNodes</title>
<path fill="none" stroke="black" d="M1223.38,-618.61C1253.21,-615.4 1296.48,-607.01 1327.32,-585.07 1335.95,-578.93 1342.99,-569.85 1348.39,-561.04"/>
<polygon fill="black" stroke="black" points="1351.43,-562.77 1353.23,-552.32 1345.31,-559.37 1351.43,-562.77"/>
<text text-anchor="middle" x="1405.32" y="-571.77" font-family="Times New Roman,serif" font-size="14.00">unmatchable mid&#45;prod</text>
</g>
<!-- error&#45;&gt;filteredNodes -->
<g id="edge22" class="edge">
<title>error&#45;&gt;filteredNodes</title>
<path fill="none" stroke="black" d="M1157.57,-614.84C1137.44,-609.84 1111.93,-600.83 1094.07,-585.07 1086.87,-578.71 1081.32,-569.96 1077.19,-561.48"/>
<polygon fill="black" stroke="black" points="1080.48,-560.27 1073.3,-552.48 1074.05,-563.04 1080.48,-560.27"/>
<text text-anchor="middle" x="1112.44" y="-571.77" font-family="Times New Roman,serif" font-size="14.00">filtered</text>
</g>
</g>
</svg>
