<?xml version="1.0" encoding="UTF-8" standalone="no"?>
<!DOCTYPE svg PUBLIC "-//W3C//DTD SVG 1.1//EN"
 "http://www.w3.org/Graphics/SVG/1.1/DTD/svg11.dtd">
<!-- Generated by graphviz version 12.0.0 (20240704.0754)
 -->
<!-- Title: Parser Pages: 1 -->
<svg width="1370pt" height="809pt"
 viewBox="0.00 0.00 1369.77 808.94" xmlns="http://www.w3.org/2000/svg" xmlns:xlink="http://www.w3.org/1999/xlink">
<g id="graph0" class="graph" transform="scale(1 1) rotate(0) translate(4 804.94)">
<title>Parser</title>
<polygon fill="white" stroke="none" points="-4,4 -4,-804.94 1365.77,-804.94 1365.77,4 -4,4"/>
<!-- Parser -->
<g id="node1" class="node">
<title>Parser</title>
<ellipse fill="none" stroke="black" cx="747.77" cy="-750.74" rx="139.65" ry="50.2"/>
<text text-anchor="middle" x="747.77" y="-768.94" font-family="Times New Roman,serif" font-size="14.00">Parser</text>
<text text-anchor="middle" x="747.77" y="-753.19" font-family="Times New Roman,serif" font-size="14.00">Input: &quot;a b x $&quot;</text>
<text text-anchor="middle" x="747.77" y="-737.44" font-family="Times New Roman,serif" font-size="14.00">Location: 1 (&#39; &#39;)</text>
<text text-anchor="middle" x="747.77" y="-721.69" font-family="Times New Roman,serif" font-size="14.00">Step 28: Reducing non&#45;terminals</text>
</g>
<!-- todoLists -->
<g id="node8" class="node">
<title>todoLists</title>
<polygon fill="none" stroke="black" points="37.77,-612.28 37.77,-648.28 589.77,-648.28 589.77,-612.28 37.77,-612.28"/>
<text text-anchor="middle" x="49.15" y="-624.86" font-family="Times New Roman,serif" font-size="14.00">0</text>
<polyline fill="none" stroke="black" points="60.52,-612.28 60.52,-648.28"/>
<text text-anchor="middle" x="71.9" y="-624.86" font-family="Times New Roman,serif" font-size="14.00">1</text>
<polyline fill="none" stroke="black" points="83.27,-612.28 83.27,-648.28"/>
<text text-anchor="middle" x="94.65" y="-624.86" font-family="Times New Roman,serif" font-size="14.00">2</text>
<polyline fill="none" stroke="black" points="106.02,-612.28 106.02,-648.28"/>
<text text-anchor="middle" x="117.4" y="-624.86" font-family="Times New Roman,serif" font-size="14.00">3</text>
<polyline fill="none" stroke="black" points="128.77,-612.28 128.77,-648.28"/>
<text text-anchor="middle" x="140.15" y="-624.86" font-family="Times New Roman,serif" font-size="14.00">4</text>
<polyline fill="none" stroke="black" points="151.52,-612.28 151.52,-648.28"/>
<text text-anchor="middle" x="162.9" y="-624.86" font-family="Times New Roman,serif" font-size="14.00">5</text>
<polyline fill="none" stroke="black" points="174.27,-612.28 174.27,-648.28"/>
<text text-anchor="middle" x="185.65" y="-624.86" font-family="Times New Roman,serif" font-size="14.00">6</text>
<polyline fill="none" stroke="black" points="197.02,-612.28 197.02,-648.28"/>
<text text-anchor="middle" x="208.4" y="-624.86" font-family="Times New Roman,serif" font-size="14.00">7</text>
<polyline fill="none" stroke="black" points="219.77,-612.28 219.77,-648.28"/>
<text text-anchor="middle" x="231.15" y="-624.86" font-family="Times New Roman,serif" font-size="14.00">8</text>
<polyline fill="none" stroke="black" points="242.52,-612.28 242.52,-648.28"/>
<text text-anchor="middle" x="253.9" y="-624.86" font-family="Times New Roman,serif" font-size="14.00">9</text>
<polyline fill="none" stroke="black" points="265.27,-612.28 265.27,-648.28"/>
<text text-anchor="middle" x="280.02" y="-624.86" font-family="Times New Roman,serif" font-size="14.00">10</text>
<polyline fill="none" stroke="black" points="294.77,-612.28 294.77,-648.28"/>
<text text-anchor="middle" x="309.52" y="-624.86" font-family="Times New Roman,serif" font-size="14.00">11</text>
<polyline fill="none" stroke="black" points="324.27,-612.28 324.27,-648.28"/>
<text text-anchor="middle" x="339.02" y="-624.86" font-family="Times New Roman,serif" font-size="14.00">12</text>
<polyline fill="none" stroke="black" points="353.77,-612.28 353.77,-648.28"/>
<text text-anchor="middle" x="368.52" y="-624.86" font-family="Times New Roman,serif" font-size="14.00">13</text>
<polyline fill="none" stroke="black" points="383.27,-612.28 383.27,-648.28"/>
<text text-anchor="middle" x="398.02" y="-624.86" font-family="Times New Roman,serif" font-size="14.00">14</text>
<polyline fill="none" stroke="black" points="412.77,-612.28 412.77,-648.28"/>
<text text-anchor="middle" x="427.52" y="-624.86" font-family="Times New Roman,serif" font-size="14.00">15</text>
<polyline fill="none" stroke="black" points="442.27,-612.28 442.27,-648.28"/>
<text text-anchor="middle" x="457.02" y="-624.86" font-family="Times New Roman,serif" font-size="14.00">16</text>
<polyline fill="none" stroke="black" points="471.77,-612.28 471.77,-648.28"/>
<text text-anchor="middle" x="486.52" y="-624.86" font-family="Times New Roman,serif" font-size="14.00">17</text>
<polyline fill="none" stroke="black" points="501.27,-612.28 501.27,-648.28"/>
<text text-anchor="middle" x="516.02" y="-624.86" font-family="Times New Roman,serif" font-size="14.00">18</text>
<polyline fill="none" stroke="black" points="530.77,-612.28 530.77,-648.28"/>
<text text-anchor="middle" x="545.52" y="-624.86" font-family="Times New Roman,serif" font-size="14.00">19</text>
<polyline fill="none" stroke="black" points="560.27,-612.28 560.27,-648.28"/>
<text text-anchor="middle" x="575.02" y="-624.86" font-family="Times New Roman,serif" font-size="14.00">20</text>
</g>
<!-- Parser&#45;&gt;todoLists -->
<g id="edge7" class="edge">
<title>Parser&#45;&gt;todoLists</title>
<path fill="none" stroke="black" d="M637.42,-719.61C559.47,-698.34 457.08,-670.39 388.54,-651.69"/>
<polygon fill="black" stroke="black" points="389.87,-648.42 379.3,-649.16 388.02,-655.17 389.87,-648.42"/>
<text text-anchor="middle" x="518.65" y="-669.23" font-family="Times New Roman,serif" font-size="14.00">todo lists</text>
</g>
<!-- stacksToExpand -->
<g id="node9" class="node">
<title>stacksToExpand</title>
<polygon fill="none" stroke="black" points="607.77,-612.28 607.77,-648.28 661.77,-648.28 661.77,-612.28 607.77,-612.28"/>
<text text-anchor="middle" x="634.65" y="-624.86" font-family="Times New Roman,serif" font-size="14.00"> </text>
</g>
<!-- Parser&#45;&gt;stacksToExpand -->
<g id="edge8" class="edge">
<title>Parser&#45;&gt;stacksToExpand</title>
<path fill="none" stroke="black" d="M673.75,-708C664.57,-700.45 656.05,-691.94 649.27,-682.53 644.48,-675.87 641.27,-667.68 639.12,-659.81"/>
<polygon fill="black" stroke="black" points="642.57,-659.22 636.99,-650.21 635.74,-660.73 642.57,-659.22"/>
<text text-anchor="middle" x="697.02" y="-669.23" font-family="Times New Roman,serif" font-size="14.00">stacks to expand</text>
</g>
<!-- terminalsToReduce -->
<g id="node10" class="node">
<title>terminalsToReduce</title>
<polygon fill="none" stroke="black" points="720.77,-612.28 720.77,-648.28 774.77,-648.28 774.77,-612.28 720.77,-612.28"/>
<text text-anchor="middle" x="747.65" y="-624.86" font-family="Times New Roman,serif" font-size="14.00"> </text>
</g>
<!-- Parser&#45;&gt;terminalsToReduce -->
<g id="edge9" class="edge">
<title>Parser&#45;&gt;terminalsToReduce</title>
<path fill="none" stroke="black" d="M747.77,-700.19C747.77,-686.4 747.77,-671.89 747.77,-659.76"/>
<polygon fill="black" stroke="black" points="751.28,-660.05 747.77,-650.05 744.28,-660.05 751.28,-660.05"/>
<text text-anchor="middle" x="800.65" y="-669.23" font-family="Times New Roman,serif" font-size="14.00">terminals to reduce</text>
</g>
<!-- nonTerminalsToReduce -->
<g id="node11" class="node">
<title>nonTerminalsToReduce</title>
<polygon fill="none" stroke="red" points="792.77,-612.28 792.77,-648.28 846.77,-648.28 846.77,-612.28 792.77,-612.28"/>
<text text-anchor="middle" x="819.65" y="-624.86" font-family="Times New Roman,serif" font-size="14.00">0</text>
</g>
<!-- Parser&#45;&gt;nonTerminalsToReduce -->
<g id="edge13" class="edge">
<title>Parser&#45;&gt;nonTerminalsToReduce</title>
<path fill="none" stroke="black" d="M831.29,-710.03C840.67,-702.21 848.94,-693.09 854.77,-682.53 859.47,-674.04 856.53,-665.17 850.74,-657.25"/>
<polygon fill="black" stroke="black" points="853.5,-655.09 844.25,-649.91 848.25,-659.72 853.5,-655.09"/>
<text text-anchor="middle" x="922.4" y="-669.23" font-family="Times New Roman,serif" font-size="14.00">non&#45;terminals to reduce</text>
</g>
<!-- error -->
<g id="node18" class="node">
<title>error</title>
<ellipse fill="none" stroke="black" cx="1063.77" cy="-630.28" rx="34.1" ry="18"/>
<text text-anchor="middle" x="1063.77" y="-624.86" font-family="Times New Roman,serif" font-size="14.00">Errors</text>
</g>
<!-- Parser&#45;&gt;error -->
<g id="edge14" class="edge">
<title>Parser&#45;&gt;error</title>
<path fill="none" stroke="black" d="M868.68,-725.34C908.93,-714.91 953.28,-700.83 991.77,-682.53 1008.06,-674.79 1024.56,-663.36 1037.65,-653.26"/>
<polygon fill="black" stroke="black" points="1039.69,-656.11 1045.34,-647.15 1035.33,-650.63 1039.69,-656.11"/>
<text text-anchor="middle" x="1054.27" y="-669.23" font-family="Times New Roman,serif" font-size="14.00">error tracking</text>
</g>
<!-- todo&#45;5 -->
<g id="node2" class="node">
<title>todo&#45;5</title>
<polygon fill="none" stroke="black" points="141.77,-511.8 141.77,-547.8 195.77,-547.8 195.77,-511.8 141.77,-511.8"/>
<text text-anchor="middle" x="168.65" y="-524.37" font-family="Times New Roman,serif" font-size="14.00">0</text>
</g>
<!-- 1610612734 -->
<g id="node3" class="node">
<title>1610612734</title>
<ellipse fill="none" stroke="black" cx="141.77" cy="-343.14" rx="141.77" ry="39.07"/>
<text text-anchor="middle" x="141.77" y="-353.47" font-family="Times New Roman,serif" font-size="14.00">Skipping: </text>
<text text-anchor="middle" x="141.77" y="-337.72" font-family="Times New Roman,serif" font-size="14.00">.0@4</text>
<text text-anchor="middle" x="141.77" y="-321.97" font-family="Times New Roman,serif" font-size="14.00">in: &#39;ABC &#45;&gt; a Layout b Layout c&#39;</text>
</g>
<!-- todo&#45;5&#45;&gt;1610612734 -->
<g id="edge4" class="edge">
<title>todo&#45;5:sw&#45;&gt;1610612734</title>
<path fill="none" stroke="black" d="M141.77,-510.8C111.8,-480.82 116.14,-430.56 125.33,-393.05"/>
<polygon fill="black" stroke="black" points="128.6,-394.38 127.78,-383.82 121.83,-392.59 128.6,-394.38"/>
<text text-anchor="middle" x="139.52" y="-437.07" font-family="Times New Roman,serif" font-size="14.00">Stack</text>
</g>
<!-- 1637411253 -->
<g id="node7" class="node">
<title>1637411253</title>
<polygon fill="none" stroke="black" points="608.23,-325.63 608.23,-360.66 518.34,-385.43 391.21,-385.43 301.32,-360.66 301.32,-325.63 391.21,-300.86 518.34,-300.86 608.23,-325.63"/>
<text text-anchor="middle" x="454.77" y="-353.47" font-family="Times New Roman,serif" font-size="14.00">Skipped</text>
<text text-anchor="middle" x="454.77" y="-337.72" font-family="Times New Roman,serif" font-size="14.00">.4@4: &#160;&quot;x&quot;</text>
<text text-anchor="middle" x="454.77" y="-321.97" font-family="Times New Roman,serif" font-size="14.00">in: &#39;ABC &#45;&gt; a Layout b Layout c&#39;</text>
</g>
<!-- todo&#45;5&#45;&gt;1637411253 -->
<g id="edge5" class="edge">
<title>todo&#45;5:se&#45;&gt;1637411253</title>
<path fill="none" stroke="black" d="M195.52,-510.8C245.92,-460.4 314.07,-417.33 367.84,-387.6"/>
<polygon fill="black" stroke="black" points="369.29,-390.8 376.38,-382.93 365.93,-384.66 369.29,-390.8"/>
<text text-anchor="middle" x="351.15" y="-437.07" font-family="Times New Roman,serif" font-size="14.00">Node</text>
</g>
<!-- 1610612733 -->
<g id="node4" class="node">
<title>1610612733</title>
<ellipse fill="none" stroke="black" cx="385.77" cy="-224.79" rx="141.77" ry="39.07"/>
<text text-anchor="middle" x="385.77" y="-235.12" font-family="Times New Roman,serif" font-size="14.00">RecoveryPoint: 1610612733</text>
<text text-anchor="middle" x="385.77" y="-219.37" font-family="Times New Roman,serif" font-size="14.00">.4@4</text>
<text text-anchor="middle" x="385.77" y="-203.62" font-family="Times New Roman,serif" font-size="14.00">in: &#39;ABC &#45;&gt; a Layout b Layout c&#39;</text>
</g>
<!-- 1610612734&#45;&gt;1610612733 -->
<g id="edge3" class="edge">
<title>1610612734&#45;&gt;1610612733</title>
<path fill="none" stroke="black" d="M211.7,-308.8C241.05,-294.81 275.35,-278.45 305.71,-263.97"/>
<polygon fill="black" stroke="black" points="306.96,-267.25 314.48,-259.79 303.95,-260.93 306.96,-267.25"/>
</g>
<!-- 35 -->
<g id="node5" class="node">
<title>35</title>
<ellipse fill="none" stroke="black" cx="466.77" cy="-120.79" rx="87.68" ry="27.93"/>
<text text-anchor="middle" x="466.77" y="-123.24" font-family="Times New Roman,serif" font-size="14.00">NonTerminal: ABC</text>
<text text-anchor="middle" x="466.77" y="-107.49" font-family="Times New Roman,serif" font-size="14.00">.0@0</text>
</g>
<!-- 1610612733&#45;&gt;35 -->
<g id="edge2" class="edge">
<title>1610612733&#45;&gt;35</title>
<path fill="none" stroke="black" d="M415.48,-186.39C423.07,-176.82 431.22,-166.57 438.73,-157.11"/>
<polygon fill="black" stroke="black" points="441.27,-159.53 444.75,-149.52 435.79,-155.18 441.27,-159.53"/>
</g>
<!-- &#45;1 -->
<g id="node6" class="node">
<title>&#45;1</title>
<ellipse fill="none" stroke="black" cx="551.77" cy="-27.93" rx="73.36" ry="27.93"/>
<text text-anchor="middle" x="551.77" y="-30.38" font-family="Times New Roman,serif" font-size="14.00">NonTerminal: S</text>
<text text-anchor="middle" x="551.77" y="-14.63" font-family="Times New Roman,serif" font-size="14.00">.0@&#45;1</text>
</g>
<!-- 35&#45;&gt;&#45;1 -->
<g id="edge1" class="edge">
<title>35&#45;&gt;&#45;1</title>
<path fill="none" stroke="black" d="M491.36,-93.51C500.32,-83.93 510.59,-72.96 520.08,-62.81"/>
<polygon fill="black" stroke="black" points="522.52,-65.33 526.8,-55.63 517.41,-60.54 522.52,-65.33"/>
</g>
<!-- todoLists&#45;&gt;todo&#45;5 -->
<g id="edge6" class="edge">
<title>todoLists:5&#45;&gt;todo&#45;5</title>
<path fill="none" stroke="black" d="M162.9,-611.78C162.9,-594.43 164.26,-575.04 165.67,-559.59"/>
<polygon fill="black" stroke="black" points="169.15,-559.95 166.64,-549.66 162.18,-559.27 169.15,-559.95"/>
</g>
<!-- 1610612735 -->
<g id="node12" class="node">
<title>1610612735</title>
<ellipse fill="none" stroke="black" cx="653.77" cy="-442.5" rx="122.68" ry="39.07"/>
<text text-anchor="middle" x="653.77" y="-452.82" font-family="Times New Roman,serif" font-size="14.00">RecoveryPoint: 1610612735</text>
<text text-anchor="middle" x="653.77" y="-437.07" font-family="Times New Roman,serif" font-size="14.00">.0@0</text>
<text text-anchor="middle" x="653.77" y="-421.32" font-family="Times New Roman,serif" font-size="14.00">in: &#39;S &#45;&gt; ABC Layout End&#39;</text>
</g>
<!-- nonTerminalsToReduce&#45;&gt;1610612735 -->
<g id="edge11" class="edge">
<title>nonTerminalsToReduce:sw&#45;&gt;1610612735</title>
<path fill="none" stroke="black" d="M792.77,-611.78C754.85,-573.86 717.9,-601.4 683.77,-560.03 668.31,-541.28 660.7,-515.51 657.01,-492.96"/>
<polygon fill="black" stroke="black" points="660.52,-492.78 655.66,-483.36 653.59,-493.75 660.52,-492.78"/>
<text text-anchor="middle" x="779.52" y="-580.48" font-family="Times New Roman,serif" font-size="14.00">Stack</text>
</g>
<!-- 189194499 -->
<g id="node13" class="node">
<title>189194499</title>
<polygon fill="none" stroke="black" points="919.05,-517.28 919.05,-542.32 852.69,-560.03 758.86,-560.03 692.5,-542.32 692.5,-517.28 758.86,-499.57 852.69,-499.57 919.05,-517.28"/>
<text text-anchor="middle" x="805.77" y="-532.25" font-family="Times New Roman,serif" font-size="14.00">Recovered 0&#45;1</text>
<text text-anchor="middle" x="805.77" y="-516.5" font-family="Times New Roman,serif" font-size="14.00">&#39;S &#45;&gt; ABC Layout End&#39;</text>
</g>
<!-- nonTerminalsToReduce&#45;&gt;189194499 -->
<g id="edge12" class="edge">
<title>nonTerminalsToReduce:se&#45;&gt;189194499</title>
<path fill="none" stroke="black" d="M846.52,-611.78C858.41,-599.89 853.28,-583.82 843.27,-569.13"/>
<polygon fill="black" stroke="black" points="846.25,-567.28 837.43,-561.42 840.68,-571.51 846.25,-567.28"/>
<text text-anchor="middle" x="868.15" y="-580.48" font-family="Times New Roman,serif" font-size="14.00">Node</text>
</g>
<!-- 1610612735&#45;&gt;&#45;1 -->
<g id="edge10" class="edge">
<title>1610612735&#45;&gt;&#45;1</title>
<path fill="none" stroke="black" d="M647.35,-403.15C642.53,-371.1 636.77,-324.13 636.77,-282.86 636.77,-282.86 636.77,-282.86 636.77,-119.79 636.77,-94.99 619.68,-74.16 600.82,-58.73"/>
<polygon fill="black" stroke="black" points="603.05,-56.03 592.99,-52.72 598.8,-61.59 603.05,-56.03"/>
</g>
<!-- unexpandableNodes -->
<g id="node14" class="node">
<title>unexpandableNodes</title>
<polygon fill="none" stroke="black" points="936.77,-511.8 936.77,-547.8 990.77,-547.8 990.77,-511.8 936.77,-511.8"/>
<text text-anchor="middle" x="963.65" y="-524.37" font-family="Times New Roman,serif" font-size="14.00"> </text>
</g>
<!-- unmatchableLeafNodes -->
<g id="node15" class="node">
<title>unmatchableLeafNodes</title>
<polygon fill="none" stroke="black" points="1036.77,-511.8 1036.77,-547.8 1090.77,-547.8 1090.77,-511.8 1036.77,-511.8"/>
<text text-anchor="middle" x="1063.65" y="-524.37" font-family="Times New Roman,serif" font-size="14.00"> </text>
</g>
<!-- unmatchableMidProductionNodes -->
<g id="node16" class="node">
<title>unmatchableMidProductionNodes</title>
<polygon fill="none" stroke="black" points="1158.77,-511.8 1158.77,-547.8 1212.77,-547.8 1212.77,-511.8 1158.77,-511.8"/>
<text text-anchor="middle" x="1185.65" y="-524.37" font-family="Times New Roman,serif" font-size="14.00"> </text>
</g>
<!-- filteredNodes -->
<g id="node17" class="node">
<title>filteredNodes</title>
<polygon fill="none" stroke="black" points="1307.77,-511.8 1307.77,-547.8 1361.77,-547.8 1361.77,-511.8 1307.77,-511.8"/>
<text text-anchor="middle" x="1334.65" y="-524.37" font-family="Times New Roman,serif" font-size="14.00"> </text>
</g>
<!-- error&#45;&gt;unexpandableNodes -->
<g id="edge15" class="edge">
<title>error&#45;&gt;unexpandableNodes</title>
<path fill="none" stroke="black" d="M1032.88,-622.36C1016.09,-617.11 996.18,-608.26 983.27,-593.78 974.82,-584.29 970.03,-571.19 967.32,-559.4"/>
<polygon fill="black" stroke="black" points="970.79,-558.89 965.52,-549.7 963.91,-560.18 970.79,-558.89"/>
<text text-anchor="middle" x="1021.02" y="-580.48" font-family="Times New Roman,serif" font-size="14.00">unexpandable</text>
</g>
<!-- error&#45;&gt;unmatchableLeafNodes -->
<g id="edge16" class="edge">
<title>error&#45;&gt;unmatchableLeafNodes</title>
<path fill="none" stroke="black" d="M1063.77,-612.13C1063.77,-597.53 1063.77,-576.27 1063.77,-559.15"/>
<polygon fill="black" stroke="black" points="1067.28,-559.6 1063.77,-549.6 1060.28,-559.6 1067.28,-559.6"/>
<text text-anchor="middle" x="1113.27" y="-580.48" font-family="Times New Roman,serif" font-size="14.00">unmatchable leafs</text>
</g>
<!-- error&#45;&gt;unmatchableMidProductionNodes -->
<g id="edge17" class="edge">
<title>error&#45;&gt;unmatchableMidProductionNodes</title>
<path fill="none" stroke="black" d="M1096.5,-625.09C1118.19,-620.71 1145.84,-611.8 1163.77,-593.78 1173,-584.51 1178.37,-571.16 1181.48,-559.14"/>
<polygon fill="black" stroke="black" points="1184.84,-560.19 1183.52,-549.68 1178,-558.72 1184.84,-560.19"/>
<text text-anchor="middle" x="1236.77" y="-580.48" font-family="Times New Roman,serif" font-size="14.00">unmatchable mid&#45;prod</text>
</g>
<!-- error&#45;&gt;filteredNodes -->
<g id="edge18" class="edge">
<title>error&#45;&gt;filteredNodes</title>
<path fill="none" stroke="black" d="M1097.88,-628.08C1156.13,-625.41 1271.62,-617.23 1303.77,-593.78 1315.35,-585.34 1322.83,-571.37 1327.54,-558.73"/>
<polygon fill="black" stroke="black" points="1330.75,-560.16 1330.52,-549.57 1324.1,-557.99 1330.75,-560.16"/>
<text text-anchor="middle" x="1335.9" y="-580.48" font-family="Times New Roman,serif" font-size="14.00">filtered</text>
</g>
</g>
</svg>
