<?xml version="1.0" encoding="UTF-8" standalone="no"?>
<!DOCTYPE svg PUBLIC "-//W3C//DTD SVG 1.1//EN"
 "http://www.w3.org/Graphics/SVG/1.1/DTD/svg11.dtd">
<!-- Generated by graphviz version 12.0.0 (20240704.0754)
 -->
<!-- Title: Parser Pages: 1 -->
<svg width="1416pt" height="723pt"
 viewBox="0.00 0.00 1415.77 723.09" xmlns="http://www.w3.org/2000/svg" xmlns:xlink="http://www.w3.org/1999/xlink">
<g id="graph0" class="graph" transform="scale(1 1) rotate(0) translate(4 719.09)">
<title>Parser</title>
<polygon fill="white" stroke="none" points="-4,4 -4,-719.09 1411.77,-719.09 1411.77,4 -4,4"/>
<!-- Parser -->
<g id="node1" class="node">
<title>Parser</title>
<ellipse fill="none" stroke="black" cx="887.77" cy="-664.89" rx="88.21" ry="50.2"/>
<text text-anchor="middle" x="887.77" y="-683.09" font-family="Times New Roman,serif" font-size="14.00">Parser</text>
<text text-anchor="middle" x="887.77" y="-667.34" font-family="Times New Roman,serif" font-size="14.00">Input: &quot;a b x $&quot;</text>
<text text-anchor="middle" x="887.77" y="-651.59" font-family="Times New Roman,serif" font-size="14.00">Location: 1 (&#39; &#39;)</text>
<text text-anchor="middle" x="887.77" y="-635.84" font-family="Times New Roman,serif" font-size="14.00">Step 29: Expanding</text>
</g>
<!-- todoLists -->
<g id="node8" class="node">
<title>todoLists</title>
<polygon fill="none" stroke="black" points="172.77,-526.43 172.77,-562.43 724.77,-562.43 724.77,-526.43 172.77,-526.43"/>
<text text-anchor="middle" x="184.15" y="-539.01" font-family="Times New Roman,serif" font-size="14.00">0</text>
<polyline fill="none" stroke="black" points="195.52,-526.43 195.52,-562.43"/>
<text text-anchor="middle" x="206.9" y="-539.01" font-family="Times New Roman,serif" font-size="14.00">1</text>
<polyline fill="none" stroke="black" points="218.27,-526.43 218.27,-562.43"/>
<text text-anchor="middle" x="229.65" y="-539.01" font-family="Times New Roman,serif" font-size="14.00">2</text>
<polyline fill="none" stroke="black" points="241.02,-526.43 241.02,-562.43"/>
<text text-anchor="middle" x="252.4" y="-539.01" font-family="Times New Roman,serif" font-size="14.00">3</text>
<polyline fill="none" stroke="black" points="263.77,-526.43 263.77,-562.43"/>
<text text-anchor="middle" x="275.15" y="-539.01" font-family="Times New Roman,serif" font-size="14.00">4</text>
<polyline fill="none" stroke="black" points="286.52,-526.43 286.52,-562.43"/>
<text text-anchor="middle" x="297.9" y="-539.01" font-family="Times New Roman,serif" font-size="14.00">5</text>
<polyline fill="none" stroke="black" points="309.27,-526.43 309.27,-562.43"/>
<text text-anchor="middle" x="320.65" y="-539.01" font-family="Times New Roman,serif" font-size="14.00">6</text>
<polyline fill="none" stroke="black" points="332.02,-526.43 332.02,-562.43"/>
<text text-anchor="middle" x="343.4" y="-539.01" font-family="Times New Roman,serif" font-size="14.00">7</text>
<polyline fill="none" stroke="black" points="354.77,-526.43 354.77,-562.43"/>
<text text-anchor="middle" x="366.15" y="-539.01" font-family="Times New Roman,serif" font-size="14.00">8</text>
<polyline fill="none" stroke="black" points="377.52,-526.43 377.52,-562.43"/>
<text text-anchor="middle" x="388.9" y="-539.01" font-family="Times New Roman,serif" font-size="14.00">9</text>
<polyline fill="none" stroke="black" points="400.27,-526.43 400.27,-562.43"/>
<text text-anchor="middle" x="415.02" y="-539.01" font-family="Times New Roman,serif" font-size="14.00">10</text>
<polyline fill="none" stroke="black" points="429.77,-526.43 429.77,-562.43"/>
<text text-anchor="middle" x="444.52" y="-539.01" font-family="Times New Roman,serif" font-size="14.00">11</text>
<polyline fill="none" stroke="black" points="459.27,-526.43 459.27,-562.43"/>
<text text-anchor="middle" x="474.02" y="-539.01" font-family="Times New Roman,serif" font-size="14.00">12</text>
<polyline fill="none" stroke="black" points="488.77,-526.43 488.77,-562.43"/>
<text text-anchor="middle" x="503.52" y="-539.01" font-family="Times New Roman,serif" font-size="14.00">13</text>
<polyline fill="none" stroke="black" points="518.27,-526.43 518.27,-562.43"/>
<text text-anchor="middle" x="533.02" y="-539.01" font-family="Times New Roman,serif" font-size="14.00">14</text>
<polyline fill="none" stroke="black" points="547.77,-526.43 547.77,-562.43"/>
<text text-anchor="middle" x="562.52" y="-539.01" font-family="Times New Roman,serif" font-size="14.00">15</text>
<polyline fill="none" stroke="black" points="577.27,-526.43 577.27,-562.43"/>
<text text-anchor="middle" x="592.02" y="-539.01" font-family="Times New Roman,serif" font-size="14.00">16</text>
<polyline fill="none" stroke="black" points="606.77,-526.43 606.77,-562.43"/>
<text text-anchor="middle" x="621.52" y="-539.01" font-family="Times New Roman,serif" font-size="14.00">17</text>
<polyline fill="none" stroke="black" points="636.27,-526.43 636.27,-562.43"/>
<text text-anchor="middle" x="651.02" y="-539.01" font-family="Times New Roman,serif" font-size="14.00">18</text>
<polyline fill="none" stroke="black" points="665.77,-526.43 665.77,-562.43"/>
<text text-anchor="middle" x="680.52" y="-539.01" font-family="Times New Roman,serif" font-size="14.00">19</text>
<polyline fill="none" stroke="black" points="695.27,-526.43 695.27,-562.43"/>
<text text-anchor="middle" x="710.02" y="-539.01" font-family="Times New Roman,serif" font-size="14.00">20</text>
</g>
<!-- Parser&#45;&gt;todoLists -->
<g id="edge7" class="edge">
<title>Parser&#45;&gt;todoLists</title>
<path fill="none" stroke="black" d="M808.28,-642.43C727.57,-620.66 603.52,-587.19 524.28,-565.81"/>
<polygon fill="black" stroke="black" points="525.43,-562.49 514.87,-563.27 523.61,-569.25 525.43,-562.49"/>
<text text-anchor="middle" x="655.65" y="-583.38" font-family="Times New Roman,serif" font-size="14.00">todo lists</text>
</g>
<!-- stacksToExpand -->
<g id="node9" class="node">
<title>stacksToExpand</title>
<polygon fill="none" stroke="red" points="742.77,-526.43 742.77,-562.43 796.77,-562.43 796.77,-526.43 742.77,-526.43"/>
<text text-anchor="middle" x="769.65" y="-539.01" font-family="Times New Roman,serif" font-size="14.00"> </text>
</g>
<!-- Parser&#45;&gt;stacksToExpand -->
<g id="edge8" class="edge">
<title>Parser&#45;&gt;stacksToExpand</title>
<path fill="none" stroke="black" d="M824.87,-629.44C811.82,-620.12 799.08,-609.12 789.27,-596.68 783.99,-589.97 780.01,-581.67 777.07,-573.72"/>
<polygon fill="black" stroke="black" points="780.45,-572.8 774.05,-564.35 773.79,-574.94 780.45,-572.8"/>
<text text-anchor="middle" x="837.02" y="-583.38" font-family="Times New Roman,serif" font-size="14.00">stacks to expand</text>
</g>
<!-- terminalsToReduce -->
<g id="node10" class="node">
<title>terminalsToReduce</title>
<polygon fill="none" stroke="black" points="860.77,-526.43 860.77,-562.43 914.77,-562.43 914.77,-526.43 860.77,-526.43"/>
<text text-anchor="middle" x="887.65" y="-539.01" font-family="Times New Roman,serif" font-size="14.00"> </text>
</g>
<!-- Parser&#45;&gt;terminalsToReduce -->
<g id="edge9" class="edge">
<title>Parser&#45;&gt;terminalsToReduce</title>
<path fill="none" stroke="black" d="M887.77,-614.34C887.77,-600.55 887.77,-586.04 887.77,-573.91"/>
<polygon fill="black" stroke="black" points="891.28,-574.2 887.77,-564.2 884.28,-574.2 891.28,-574.2"/>
<text text-anchor="middle" x="940.65" y="-583.38" font-family="Times New Roman,serif" font-size="14.00">terminals to reduce</text>
</g>
<!-- nonTerminalsToReduce -->
<g id="node11" class="node">
<title>nonTerminalsToReduce</title>
<polygon fill="none" stroke="black" points="989.77,-526.43 989.77,-562.43 1043.77,-562.43 1043.77,-526.43 989.77,-526.43"/>
<text text-anchor="middle" x="1016.65" y="-539.01" font-family="Times New Roman,serif" font-size="14.00"> </text>
</g>
<!-- Parser&#45;&gt;nonTerminalsToReduce -->
<g id="edge10" class="edge">
<title>Parser&#45;&gt;nonTerminalsToReduce</title>
<path fill="none" stroke="black" d="M953.78,-631.18C968.64,-621.58 983.37,-610.02 994.77,-596.68 1000.57,-589.9 1005.05,-581.37 1008.4,-573.21"/>
<polygon fill="black" stroke="black" points="1011.64,-574.55 1011.78,-563.96 1005.06,-572.16 1011.64,-574.55"/>
<text text-anchor="middle" x="1070.4" y="-583.38" font-family="Times New Roman,serif" font-size="14.00">non&#45;terminals to reduce</text>
</g>
<!-- error -->
<g id="node16" class="node">
<title>error</title>
<ellipse fill="none" stroke="black" cx="1170.77" cy="-544.43" rx="34.1" ry="18"/>
<text text-anchor="middle" x="1170.77" y="-539.01" font-family="Times New Roman,serif" font-size="14.00">Errors</text>
</g>
<!-- Parser&#45;&gt;error -->
<g id="edge11" class="edge">
<title>Parser&#45;&gt;error</title>
<path fill="none" stroke="black" d="M975.11,-656.97C1027.21,-649.11 1092.24,-632.35 1139.77,-596.68 1148.02,-590.49 1154.54,-581.4 1159.42,-572.59"/>
<polygon fill="black" stroke="black" points="1162.41,-574.44 1163.73,-563.92 1156.14,-571.32 1162.41,-574.44"/>
<text text-anchor="middle" x="1191.27" y="-583.38" font-family="Times New Roman,serif" font-size="14.00">error tracking</text>
</g>
<!-- todo&#45;5 -->
<g id="node2" class="node">
<title>todo&#45;5</title>
<polygon fill="none" stroke="black" points="271.77,-437.68 271.77,-473.68 325.77,-473.68 325.77,-437.68 271.77,-437.68"/>
<text text-anchor="middle" x="298.65" y="-450.26" font-family="Times New Roman,serif" font-size="14.00">0</text>
</g>
<!-- 1610612734 -->
<g id="node3" class="node">
<title>1610612734</title>
<ellipse fill="none" stroke="black" cx="141.77" cy="-343.14" rx="141.77" ry="39.07"/>
<text text-anchor="middle" x="141.77" y="-353.47" font-family="Times New Roman,serif" font-size="14.00">Skipping: </text>
<text text-anchor="middle" x="141.77" y="-337.72" font-family="Times New Roman,serif" font-size="14.00">.0@4</text>
<text text-anchor="middle" x="141.77" y="-321.97" font-family="Times New Roman,serif" font-size="14.00">in: &#39;ABC &#45;&gt; a Layout b Layout c&#39;</text>
</g>
<!-- todo&#45;5&#45;&gt;1610612734 -->
<g id="edge4" class="edge">
<title>todo&#45;5:sw&#45;&gt;1610612734</title>
<path fill="none" stroke="black" d="M271.77,-437.18C252.88,-418.29 229.82,-400.45 208.39,-385.55"/>
<polygon fill="black" stroke="black" points="210.49,-382.74 200.26,-379.98 206.53,-388.52 210.49,-382.74"/>
<text text-anchor="middle" x="265.52" y="-405.88" font-family="Times New Roman,serif" font-size="14.00">Stack</text>
</g>
<!-- 1637411253 -->
<g id="node7" class="node">
<title>1637411253</title>
<polygon fill="none" stroke="black" points="608.23,-325.63 608.23,-360.66 518.34,-385.43 391.21,-385.43 301.32,-360.66 301.32,-325.63 391.21,-300.86 518.34,-300.86 608.23,-325.63"/>
<text text-anchor="middle" x="454.77" y="-353.47" font-family="Times New Roman,serif" font-size="14.00">Skipped</text>
<text text-anchor="middle" x="454.77" y="-337.72" font-family="Times New Roman,serif" font-size="14.00">.4@4: &#160;&quot;x&quot;</text>
<text text-anchor="middle" x="454.77" y="-321.97" font-family="Times New Roman,serif" font-size="14.00">in: &#39;ABC &#45;&gt; a Layout b Layout c&#39;</text>
</g>
<!-- todo&#45;5&#45;&gt;1637411253 -->
<g id="edge5" class="edge">
<title>todo&#45;5:se&#45;&gt;1637411253</title>
<path fill="none" stroke="black" d="M325.52,-437.18C341.82,-420.88 361.21,-405.34 379.95,-391.78"/>
<polygon fill="black" stroke="black" points="381.72,-394.81 387.84,-386.16 377.67,-389.1 381.72,-394.81"/>
<text text-anchor="middle" x="377.15" y="-405.88" font-family="Times New Roman,serif" font-size="14.00">Node</text>
</g>
<!-- 1610612733 -->
<g id="node4" class="node">
<title>1610612733</title>
<ellipse fill="none" stroke="black" cx="141.77" cy="-224.79" rx="141.77" ry="39.07"/>
<text text-anchor="middle" x="141.77" y="-235.12" font-family="Times New Roman,serif" font-size="14.00">RecoveryPoint: 1610612733</text>
<text text-anchor="middle" x="141.77" y="-219.37" font-family="Times New Roman,serif" font-size="14.00">.4@4</text>
<text text-anchor="middle" x="141.77" y="-203.62" font-family="Times New Roman,serif" font-size="14.00">in: &#39;ABC &#45;&gt; a Layout b Layout c&#39;</text>
</g>
<!-- 1610612734&#45;&gt;1610612733 -->
<g id="edge3" class="edge">
<title>1610612734&#45;&gt;1610612733</title>
<path fill="none" stroke="black" d="M141.77,-303.72C141.77,-294.69 141.77,-284.93 141.77,-275.48"/>
<polygon fill="black" stroke="black" points="145.28,-275.68 141.77,-265.68 138.28,-275.68 145.28,-275.68"/>
</g>
<!-- 35 -->
<g id="node5" class="node">
<title>35</title>
<ellipse fill="none" stroke="black" cx="141.77" cy="-120.79" rx="87.68" ry="27.93"/>
<text text-anchor="middle" x="141.77" y="-123.24" font-family="Times New Roman,serif" font-size="14.00">NonTerminal: ABC</text>
<text text-anchor="middle" x="141.77" y="-107.49" font-family="Times New Roman,serif" font-size="14.00">.0@0</text>
</g>
<!-- 1610612733&#45;&gt;35 -->
<g id="edge2" class="edge">
<title>1610612733&#45;&gt;35</title>
<path fill="none" stroke="black" d="M141.77,-185.23C141.77,-177.12 141.77,-168.56 141.77,-160.44"/>
<polygon fill="black" stroke="black" points="145.28,-160.49 141.77,-150.49 138.28,-160.49 145.28,-160.49"/>
</g>
<!-- &#45;1 -->
<g id="node6" class="node">
<title>&#45;1</title>
<ellipse fill="none" stroke="black" cx="141.77" cy="-27.93" rx="73.36" ry="27.93"/>
<text text-anchor="middle" x="141.77" y="-30.38" font-family="Times New Roman,serif" font-size="14.00">NonTerminal: S</text>
<text text-anchor="middle" x="141.77" y="-14.63" font-family="Times New Roman,serif" font-size="14.00">.0@&#45;1</text>
</g>
<!-- 35&#45;&gt;&#45;1 -->
<g id="edge1" class="edge">
<title>35&#45;&gt;&#45;1</title>
<path fill="none" stroke="black" d="M141.77,-92.53C141.77,-84.71 141.77,-76.04 141.77,-67.67"/>
<polygon fill="black" stroke="black" points="145.28,-67.69 141.77,-57.69 138.28,-67.69 145.28,-67.69"/>
</g>
<!-- todoLists&#45;&gt;todo&#45;5 -->
<g id="edge6" class="edge">
<title>todoLists:5&#45;&gt;todo&#45;5</title>
<path fill="none" stroke="black" d="M297.9,-525.93C297.9,-512.54 298.07,-497.69 298.25,-485.18"/>
<polygon fill="black" stroke="black" points="301.75,-485.61 298.41,-475.55 294.75,-485.5 301.75,-485.61"/>
</g>
<!-- unexpandableNodes -->
<g id="node12" class="node">
<title>unexpandableNodes</title>
<polygon fill="none" stroke="black" points="982.77,-437.68 982.77,-473.68 1036.77,-473.68 1036.77,-437.68 982.77,-437.68"/>
<text text-anchor="middle" x="1009.65" y="-450.26" font-family="Times New Roman,serif" font-size="14.00"> </text>
</g>
<!-- unmatchableLeafNodes -->
<g id="node13" class="node">
<title>unmatchableLeafNodes</title>
<polygon fill="none" stroke="black" points="1082.77,-437.68 1082.77,-473.68 1136.77,-473.68 1136.77,-437.68 1082.77,-437.68"/>
<text text-anchor="middle" x="1109.65" y="-450.26" font-family="Times New Roman,serif" font-size="14.00"> </text>
</g>
<!-- unmatchableMidProductionNodes -->
<g id="node14" class="node">
<title>unmatchableMidProductionNodes</title>
<polygon fill="none" stroke="black" points="1204.77,-437.68 1204.77,-473.68 1258.77,-473.68 1258.77,-437.68 1204.77,-437.68"/>
<text text-anchor="middle" x="1231.65" y="-450.26" font-family="Times New Roman,serif" font-size="14.00"> </text>
</g>
<!-- filteredNodes -->
<g id="node15" class="node">
<title>filteredNodes</title>
<polygon fill="none" stroke="black" points="1353.77,-437.68 1353.77,-473.68 1407.77,-473.68 1407.77,-437.68 1353.77,-437.68"/>
<text text-anchor="middle" x="1380.65" y="-450.26" font-family="Times New Roman,serif" font-size="14.00"> </text>
</g>
<!-- error&#45;&gt;unexpandableNodes -->
<g id="edge12" class="edge">
<title>error&#45;&gt;unexpandableNodes</title>
<path fill="none" stroke="black" d="M1137.65,-539.2C1099.87,-533.73 1041.27,-523.08 1025.27,-507.93 1018.96,-501.95 1015.2,-493.51 1012.95,-485.19"/>
<polygon fill="black" stroke="black" points="1016.44,-484.78 1011.05,-475.66 1009.58,-486.15 1016.44,-484.78"/>
<text text-anchor="middle" x="1064.02" y="-494.63" font-family="Times New Roman,serif" font-size="14.00">unexpandable</text>
</g>
<!-- error&#45;&gt;unmatchableLeafNodes -->
<g id="edge13" class="edge">
<title>error&#45;&gt;unmatchableLeafNodes</title>
<path fill="none" stroke="black" d="M1142.6,-533.93C1130.61,-528.34 1117.79,-519.95 1110.77,-507.93 1106.84,-501.19 1105.49,-493.06 1105.4,-485.28"/>
<polygon fill="black" stroke="black" points="1108.89,-485.67 1105.99,-475.47 1101.9,-485.25 1108.89,-485.67"/>
<text text-anchor="middle" x="1160.27" y="-494.63" font-family="Times New Roman,serif" font-size="14.00">unmatchable leafs</text>
</g>
<!-- error&#45;&gt;unmatchableMidProductionNodes -->
<g id="edge14" class="edge">
<title>error&#45;&gt;unmatchableMidProductionNodes</title>
<path fill="none" stroke="black" d="M1189.45,-529.29C1196.49,-523.28 1204.14,-515.84 1209.77,-507.93 1214.81,-500.86 1219.02,-492.44 1222.37,-484.5"/>
<polygon fill="black" stroke="black" points="1225.63,-485.78 1225.96,-475.19 1219.1,-483.26 1225.63,-485.78"/>
<text text-anchor="middle" x="1280.77" y="-494.63" font-family="Times New Roman,serif" font-size="14.00">unmatchable mid&#45;prod</text>
</g>
<!-- error&#45;&gt;filteredNodes -->
<g id="edge15" class="edge">
<title>error&#45;&gt;filteredNodes</title>
<path fill="none" stroke="black" d="M1205.08,-544.22C1243.13,-543.46 1304.79,-537.24 1347.77,-507.93 1356.45,-502.02 1363.35,-492.99 1368.56,-484.16"/>
<polygon fill="black" stroke="black" points="1371.61,-485.88 1373.19,-475.4 1365.42,-482.61 1371.61,-485.88"/>
<text text-anchor="middle" x="1381.9" y="-494.63" font-family="Times New Roman,serif" font-size="14.00">filtered</text>
</g>
</g>
</svg>
