<?xml version="1.0" encoding="UTF-8" standalone="no"?>
<!DOCTYPE svg PUBLIC "-//W3C//DTD SVG 1.1//EN"
 "http://www.w3.org/Graphics/SVG/1.1/DTD/svg11.dtd">
<!-- Generated by graphviz version 12.0.0 (20240704.0754)
 -->
<!-- Title: Parser Pages: 1 -->
<svg width="1211pt" height="723pt"
 viewBox="0.00 0.00 1211.00 723.09" xmlns="http://www.w3.org/2000/svg" xmlns:xlink="http://www.w3.org/1999/xlink">
<g id="graph0" class="graph" transform="scale(1 1) rotate(0) translate(4 719.09)">
<title>Parser</title>
<polygon fill="white" stroke="none" points="-4,4 -4,-719.09 1207,-719.09 1207,4 -4,4"/>
<!-- Parser -->
<g id="node1" class="node">
<title>Parser</title>
<ellipse fill="none" stroke="black" cx="716" cy="-664.89" rx="121.62" ry="50.2"/>
<text text-anchor="middle" x="716" y="-683.09" font-family="Times New Roman,serif" font-size="14.00">Parser</text>
<text text-anchor="middle" x="716" y="-667.34" font-family="Times New Roman,serif" font-size="14.00">Input: &quot;a b x $&quot;</text>
<text text-anchor="middle" x="716" y="-651.59" font-family="Times New Roman,serif" font-size="14.00">Location: 5 (&#39; &#39;)</text>
<text text-anchor="middle" x="716" y="-635.84" font-family="Times New Roman,serif" font-size="14.00">Step 32: Reducing terminals</text>
</g>
<!-- todoLists -->
<g id="node8" class="node">
<title>todoLists</title>
<polygon fill="none" stroke="black" points="0,-526.43 0,-562.43 552,-562.43 552,-526.43 0,-526.43"/>
<text text-anchor="middle" x="11.38" y="-539.01" font-family="Times New Roman,serif" font-size="14.00">0</text>
<polyline fill="none" stroke="black" points="22.75,-526.43 22.75,-562.43"/>
<text text-anchor="middle" x="34.12" y="-539.01" font-family="Times New Roman,serif" font-size="14.00">1</text>
<polyline fill="none" stroke="black" points="45.5,-526.43 45.5,-562.43"/>
<text text-anchor="middle" x="56.88" y="-539.01" font-family="Times New Roman,serif" font-size="14.00">2</text>
<polyline fill="none" stroke="black" points="68.25,-526.43 68.25,-562.43"/>
<text text-anchor="middle" x="79.62" y="-539.01" font-family="Times New Roman,serif" font-size="14.00">3</text>
<polyline fill="none" stroke="black" points="91,-526.43 91,-562.43"/>
<text text-anchor="middle" x="102.38" y="-539.01" font-family="Times New Roman,serif" font-size="14.00">4</text>
<polyline fill="none" stroke="black" points="113.75,-526.43 113.75,-562.43"/>
<text text-anchor="middle" x="125.12" y="-539.01" font-family="Times New Roman,serif" font-size="14.00">5</text>
<polyline fill="none" stroke="black" points="136.5,-526.43 136.5,-562.43"/>
<text text-anchor="middle" x="147.88" y="-539.01" font-family="Times New Roman,serif" font-size="14.00">6</text>
<polyline fill="none" stroke="black" points="159.25,-526.43 159.25,-562.43"/>
<text text-anchor="middle" x="170.62" y="-539.01" font-family="Times New Roman,serif" font-size="14.00">7</text>
<polyline fill="none" stroke="black" points="182,-526.43 182,-562.43"/>
<text text-anchor="middle" x="193.38" y="-539.01" font-family="Times New Roman,serif" font-size="14.00">8</text>
<polyline fill="none" stroke="black" points="204.75,-526.43 204.75,-562.43"/>
<text text-anchor="middle" x="216.12" y="-539.01" font-family="Times New Roman,serif" font-size="14.00">9</text>
<polyline fill="none" stroke="black" points="227.5,-526.43 227.5,-562.43"/>
<text text-anchor="middle" x="242.25" y="-539.01" font-family="Times New Roman,serif" font-size="14.00">10</text>
<polyline fill="none" stroke="black" points="257,-526.43 257,-562.43"/>
<text text-anchor="middle" x="271.75" y="-539.01" font-family="Times New Roman,serif" font-size="14.00">11</text>
<polyline fill="none" stroke="black" points="286.5,-526.43 286.5,-562.43"/>
<text text-anchor="middle" x="301.25" y="-539.01" font-family="Times New Roman,serif" font-size="14.00">12</text>
<polyline fill="none" stroke="black" points="316,-526.43 316,-562.43"/>
<text text-anchor="middle" x="330.75" y="-539.01" font-family="Times New Roman,serif" font-size="14.00">13</text>
<polyline fill="none" stroke="black" points="345.5,-526.43 345.5,-562.43"/>
<text text-anchor="middle" x="360.25" y="-539.01" font-family="Times New Roman,serif" font-size="14.00">14</text>
<polyline fill="none" stroke="black" points="375,-526.43 375,-562.43"/>
<text text-anchor="middle" x="389.75" y="-539.01" font-family="Times New Roman,serif" font-size="14.00">15</text>
<polyline fill="none" stroke="black" points="404.5,-526.43 404.5,-562.43"/>
<text text-anchor="middle" x="419.25" y="-539.01" font-family="Times New Roman,serif" font-size="14.00">16</text>
<polyline fill="none" stroke="black" points="434,-526.43 434,-562.43"/>
<text text-anchor="middle" x="448.75" y="-539.01" font-family="Times New Roman,serif" font-size="14.00">17</text>
<polyline fill="none" stroke="black" points="463.5,-526.43 463.5,-562.43"/>
<text text-anchor="middle" x="478.25" y="-539.01" font-family="Times New Roman,serif" font-size="14.00">18</text>
<polyline fill="none" stroke="black" points="493,-526.43 493,-562.43"/>
<text text-anchor="middle" x="507.75" y="-539.01" font-family="Times New Roman,serif" font-size="14.00">19</text>
<polyline fill="none" stroke="black" points="522.5,-526.43 522.5,-562.43"/>
<text text-anchor="middle" x="537.25" y="-539.01" font-family="Times New Roman,serif" font-size="14.00">20</text>
</g>
<!-- Parser&#45;&gt;todoLists -->
<g id="edge7" class="edge">
<title>Parser&#45;&gt;todoLists</title>
<path fill="none" stroke="black" d="M614.78,-636.64C534.65,-615.06 424.49,-585.41 351.82,-565.84"/>
<polygon fill="black" stroke="black" points="352.96,-562.53 342.4,-563.31 351.14,-569.29 352.96,-562.53"/>
<text text-anchor="middle" x="482.88" y="-583.38" font-family="Times New Roman,serif" font-size="14.00">todo lists</text>
</g>
<!-- stacksToExpand -->
<g id="node9" class="node">
<title>stacksToExpand</title>
<polygon fill="none" stroke="black" points="712,-526.43 712,-562.43 766,-562.43 766,-526.43 712,-526.43"/>
<text text-anchor="middle" x="738.88" y="-539.01" font-family="Times New Roman,serif" font-size="14.00"> </text>
</g>
<!-- Parser&#45;&gt;stacksToExpand -->
<g id="edge8" class="edge">
<title>Parser&#45;&gt;stacksToExpand</title>
<path fill="none" stroke="black" d="M712.66,-614.56C713.06,-603.34 714.42,-591.59 717.5,-580.93 718.31,-578.15 719.39,-575.36 720.64,-572.64"/>
<polygon fill="black" stroke="black" points="723.66,-574.42 725.38,-563.96 717.51,-571.06 723.66,-574.42"/>
<text text-anchor="middle" x="765.25" y="-583.38" font-family="Times New Roman,serif" font-size="14.00">stacks to expand</text>
</g>
<!-- terminalsToReduce -->
<g id="node10" class="node">
<title>terminalsToReduce</title>
<polygon fill="none" stroke="red" points="487,-437.68 487,-473.68 541,-473.68 541,-437.68 487,-437.68"/>
<text text-anchor="middle" x="513.88" y="-450.26" font-family="Times New Roman,serif" font-size="14.00">0</text>
</g>
<!-- Parser&#45;&gt;terminalsToReduce -->
<g id="edge11" class="edge">
<title>Parser&#45;&gt;terminalsToReduce</title>
<path fill="none" stroke="black" d="M659.84,-620.1C639.33,-603.1 616.47,-582.93 597.25,-562.93 572.92,-537.61 548.56,-505.54 532.53,-483.28"/>
<polygon fill="black" stroke="black" points="535.52,-481.45 526.87,-475.34 529.82,-485.51 535.52,-481.45"/>
<text text-anchor="middle" x="650.88" y="-539.01" font-family="Times New Roman,serif" font-size="14.00">terminals to reduce</text>
</g>
<!-- nonTerminalsToReduce -->
<g id="node11" class="node">
<title>nonTerminalsToReduce</title>
<polygon fill="none" stroke="black" points="807,-526.43 807,-562.43 861,-562.43 861,-526.43 807,-526.43"/>
<text text-anchor="middle" x="833.88" y="-539.01" font-family="Times New Roman,serif" font-size="14.00"> </text>
</g>
<!-- Parser&#45;&gt;nonTerminalsToReduce -->
<g id="edge12" class="edge">
<title>Parser&#45;&gt;nonTerminalsToReduce</title>
<path fill="none" stroke="black" d="M784.62,-623.07C794.62,-615.17 804.17,-606.31 812,-596.68 817.54,-589.86 821.92,-581.44 825.26,-573.4"/>
<polygon fill="black" stroke="black" points="828.45,-574.89 828.66,-564.29 821.89,-572.44 828.45,-574.89"/>
<text text-anchor="middle" x="886.62" y="-583.38" font-family="Times New Roman,serif" font-size="14.00">non&#45;terminals to reduce</text>
</g>
<!-- error -->
<g id="node16" class="node">
<title>error</title>
<ellipse fill="none" stroke="black" cx="988" cy="-544.43" rx="34.1" ry="18"/>
<text text-anchor="middle" x="988" y="-539.01" font-family="Times New Roman,serif" font-size="14.00">Errors</text>
</g>
<!-- Parser&#45;&gt;error -->
<g id="edge13" class="edge">
<title>Parser&#45;&gt;error</title>
<path fill="none" stroke="black" d="M832.18,-649.26C874.29,-639.57 920.24,-623.46 956,-596.68 964.33,-590.44 971.01,-581.35 976.06,-572.54"/>
<polygon fill="black" stroke="black" points="979.06,-574.36 980.56,-563.87 972.85,-571.14 979.06,-574.36"/>
<text text-anchor="middle" x="1007.5" y="-583.38" font-family="Times New Roman,serif" font-size="14.00">error tracking</text>
</g>
<!-- todo&#45;1 -->
<g id="node2" class="node">
<title>todo&#45;1</title>
<polygon fill="none" stroke="black" points="227,-437.68 227,-473.68 281,-473.68 281,-437.68 227,-437.68"/>
<text text-anchor="middle" x="253.88" y="-450.26" font-family="Times New Roman,serif" font-size="14.00">0</text>
</g>
<!-- 1610612734 -->
<g id="node3" class="node">
<title>1610612734</title>
<ellipse fill="none" stroke="black" cx="227" cy="-343.14" rx="141.77" ry="39.07"/>
<text text-anchor="middle" x="227" y="-353.47" font-family="Times New Roman,serif" font-size="14.00">Skipping: </text>
<text text-anchor="middle" x="227" y="-337.72" font-family="Times New Roman,serif" font-size="14.00">.0@4</text>
<text text-anchor="middle" x="227" y="-321.97" font-family="Times New Roman,serif" font-size="14.00">in: &#39;ABC &#45;&gt; a Layout b Layout c&#39;</text>
</g>
<!-- todo&#45;1&#45;&gt;1610612734 -->
<g id="edge4" class="edge">
<title>todo&#45;1:sw&#45;&gt;1610612734</title>
<path fill="none" stroke="black" d="M227,-437.18C215.79,-425.97 213.17,-409.67 214.21,-393.84"/>
<polygon fill="black" stroke="black" points="217.68,-394.32 215.37,-383.98 210.73,-393.51 217.68,-394.32"/>
<text text-anchor="middle" x="232.75" y="-405.88" font-family="Times New Roman,serif" font-size="14.00">Stack</text>
</g>
<!-- 1637411253 -->
<g id="node7" class="node">
<title>1637411253</title>
<polygon fill="none" stroke="black" points="693.46,-325.63 693.46,-360.66 603.56,-385.43 476.44,-385.43 386.54,-360.66 386.54,-325.63 476.44,-300.86 603.56,-300.86 693.46,-325.63"/>
<text text-anchor="middle" x="540" y="-353.47" font-family="Times New Roman,serif" font-size="14.00">Skipped</text>
<text text-anchor="middle" x="540" y="-337.72" font-family="Times New Roman,serif" font-size="14.00">.4@4: &#160;&quot;x&quot;</text>
<text text-anchor="middle" x="540" y="-321.97" font-family="Times New Roman,serif" font-size="14.00">in: &#39;ABC &#45;&gt; a Layout b Layout c&#39;</text>
</g>
<!-- todo&#45;1&#45;&gt;1637411253 -->
<g id="edge5" class="edge">
<title>todo&#45;1:se&#45;&gt;1637411253</title>
<path fill="none" stroke="black" d="M280.75,-437.18C301.6,-416.33 362.53,-393.98 420.08,-376.41"/>
<polygon fill="black" stroke="black" points="420.76,-379.86 429.32,-373.62 418.74,-373.16 420.76,-379.86"/>
<text text-anchor="middle" x="352.38" y="-405.88" font-family="Times New Roman,serif" font-size="14.00">Node</text>
</g>
<!-- 1610612733 -->
<g id="node4" class="node">
<title>1610612733</title>
<ellipse fill="none" stroke="black" cx="227" cy="-224.79" rx="141.77" ry="39.07"/>
<text text-anchor="middle" x="227" y="-235.12" font-family="Times New Roman,serif" font-size="14.00">RecoveryPoint: 1610612733</text>
<text text-anchor="middle" x="227" y="-219.37" font-family="Times New Roman,serif" font-size="14.00">.4@4</text>
<text text-anchor="middle" x="227" y="-203.62" font-family="Times New Roman,serif" font-size="14.00">in: &#39;ABC &#45;&gt; a Layout b Layout c&#39;</text>
</g>
<!-- 1610612734&#45;&gt;1610612733 -->
<g id="edge3" class="edge">
<title>1610612734&#45;&gt;1610612733</title>
<path fill="none" stroke="black" d="M227,-303.72C227,-294.69 227,-284.93 227,-275.48"/>
<polygon fill="black" stroke="black" points="230.5,-275.68 227,-265.68 223.5,-275.68 230.5,-275.68"/>
</g>
<!-- 35 -->
<g id="node5" class="node">
<title>35</title>
<ellipse fill="none" stroke="black" cx="227" cy="-120.79" rx="87.68" ry="27.93"/>
<text text-anchor="middle" x="227" y="-123.24" font-family="Times New Roman,serif" font-size="14.00">NonTerminal: ABC</text>
<text text-anchor="middle" x="227" y="-107.49" font-family="Times New Roman,serif" font-size="14.00">.0@0</text>
</g>
<!-- 1610612733&#45;&gt;35 -->
<g id="edge2" class="edge">
<title>1610612733&#45;&gt;35</title>
<path fill="none" stroke="black" d="M227,-185.23C227,-177.12 227,-168.56 227,-160.44"/>
<polygon fill="black" stroke="black" points="230.5,-160.49 227,-150.49 223.5,-160.49 230.5,-160.49"/>
</g>
<!-- &#45;1 -->
<g id="node6" class="node">
<title>&#45;1</title>
<ellipse fill="none" stroke="black" cx="227" cy="-27.93" rx="73.36" ry="27.93"/>
<text text-anchor="middle" x="227" y="-30.38" font-family="Times New Roman,serif" font-size="14.00">NonTerminal: S</text>
<text text-anchor="middle" x="227" y="-14.63" font-family="Times New Roman,serif" font-size="14.00">.0@&#45;1</text>
</g>
<!-- 35&#45;&gt;&#45;1 -->
<g id="edge1" class="edge">
<title>35&#45;&gt;&#45;1</title>
<path fill="none" stroke="black" d="M227,-92.53C227,-84.71 227,-76.04 227,-67.67"/>
<polygon fill="black" stroke="black" points="230.5,-67.69 227,-57.69 223.5,-67.69 230.5,-67.69"/>
</g>
<!-- todoLists&#45;&gt;todo&#45;1 -->
<g id="edge6" class="edge">
<title>todoLists:1&#45;&gt;todo&#45;1</title>
<path fill="none" stroke="black" d="M34.12,-525.93C34.12,-488.35 152.47,-468.64 215.51,-460.8"/>
<polygon fill="black" stroke="black" points="215.58,-464.32 225.09,-459.66 214.75,-457.37 215.58,-464.32"/>
</g>
<!-- terminalsToReduce&#45;&gt;1610612734 -->
<g id="edge9" class="edge">
<title>terminalsToReduce:sw&#45;&gt;1610612734</title>
<path fill="none" stroke="black" d="M487,-437.18C465.13,-415.32 399.28,-391.86 339.33,-373.97"/>
<polygon fill="black" stroke="black" points="340.64,-370.71 330.05,-371.24 338.66,-377.42 340.64,-370.71"/>
<text text-anchor="middle" x="475.75" y="-405.88" font-family="Times New Roman,serif" font-size="14.00">Stack</text>
</g>
<!-- terminalsToReduce&#45;&gt;1637411253 -->
<g id="edge10" class="edge">
<title>terminalsToReduce:se&#45;&gt;1637411253</title>
<path fill="none" stroke="black" d="M540.75,-437.18C551.22,-426.71 554.09,-411.82 553.47,-397.01"/>
<polygon fill="black" stroke="black" points="556.98,-396.89 552.53,-387.28 550.01,-397.57 556.98,-396.89"/>
<text text-anchor="middle" x="569.38" y="-405.88" font-family="Times New Roman,serif" font-size="14.00">Node</text>
</g>
<!-- unexpandableNodes -->
<g id="node12" class="node">
<title>unexpandableNodes</title>
<polygon fill="none" stroke="black" points="997,-437.68 997,-473.68 1051,-473.68 1051,-437.68 997,-437.68"/>
<text text-anchor="middle" x="1023.88" y="-450.26" font-family="Times New Roman,serif" font-size="14.00"> </text>
</g>
<!-- unmatchableLeafNodes -->
<g id="node13" class="node">
<title>unmatchableLeafNodes</title>
<polygon fill="none" stroke="black" points="1094,-437.68 1094,-473.68 1148,-473.68 1148,-437.68 1094,-437.68"/>
<text text-anchor="middle" x="1120.88" y="-450.26" font-family="Times New Roman,serif" font-size="14.00"> </text>
</g>
<!-- unmatchableMidProductionNodes -->
<g id="node14" class="node">
<title>unmatchableMidProductionNodes</title>
<polygon fill="none" stroke="black" points="779,-437.68 779,-473.68 833,-473.68 833,-437.68 779,-437.68"/>
<text text-anchor="middle" x="805.88" y="-450.26" font-family="Times New Roman,serif" font-size="14.00"> </text>
</g>
<!-- filteredNodes -->
<g id="node15" class="node">
<title>filteredNodes</title>
<polygon fill="none" stroke="black" points="925,-437.68 925,-473.68 979,-473.68 979,-437.68 925,-437.68"/>
<text text-anchor="middle" x="951.88" y="-450.26" font-family="Times New Roman,serif" font-size="14.00"> </text>
</g>
<!-- error&#45;&gt;unexpandableNodes -->
<g id="edge14" class="edge">
<title>error&#45;&gt;unexpandableNodes</title>
<path fill="none" stroke="black" d="M994.94,-526.7C999.91,-514.74 1006.71,-498.36 1012.48,-484.44"/>
<polygon fill="black" stroke="black" points="1015.65,-485.93 1016.25,-475.35 1009.19,-483.24 1015.65,-485.93"/>
<text text-anchor="middle" x="1047.25" y="-494.63" font-family="Times New Roman,serif" font-size="14.00">unexpandable</text>
</g>
<!-- error&#45;&gt;unmatchableLeafNodes -->
<g id="edge15" class="edge">
<title>error&#45;&gt;unmatchableLeafNodes</title>
<path fill="none" stroke="black" d="M1020.22,-538.14C1041.82,-533.26 1069.89,-524.22 1090,-507.93 1097.81,-501.6 1104.15,-492.74 1109,-484.17"/>
<polygon fill="black" stroke="black" points="1112.06,-485.88 1113.5,-475.39 1105.83,-482.69 1112.06,-485.88"/>
<text text-anchor="middle" x="1153.5" y="-494.63" font-family="Times New Roman,serif" font-size="14.00">unmatchable leafs</text>
</g>
<!-- error&#45;&gt;unmatchableMidProductionNodes -->
<g id="edge16" class="edge">
<title>error&#45;&gt;unmatchableMidProductionNodes</title>
<path fill="none" stroke="black" d="M954.76,-539.97C912.88,-534.98 844.08,-524.5 825,-507.93 818.13,-501.96 813.73,-493.27 810.93,-484.73"/>
<polygon fill="black" stroke="black" points="814.38,-484.09 808.47,-475.3 807.61,-485.86 814.38,-484.09"/>
<text text-anchor="middle" x="888" y="-494.63" font-family="Times New Roman,serif" font-size="14.00">unmatchable mid&#45;prod</text>
</g>
<!-- error&#45;&gt;filteredNodes -->
<g id="edge17" class="edge">
<title>error&#45;&gt;filteredNodes</title>
<path fill="none" stroke="black" d="M972.82,-527.99C967.9,-522.15 962.9,-515.15 959.75,-507.93 956.68,-500.89 954.8,-492.86 953.65,-485.26"/>
<polygon fill="black" stroke="black" points="957.14,-484.97 952.55,-475.42 950.18,-485.74 957.14,-484.97"/>
<text text-anchor="middle" x="978.12" y="-494.63" font-family="Times New Roman,serif" font-size="14.00">filtered</text>
</g>
</g>
</svg>
