<?xml version="1.0" encoding="UTF-8" standalone="no"?>
<!DOCTYPE svg PUBLIC "-//W3C//DTD SVG 1.1//EN"
 "http://www.w3.org/Graphics/SVG/1.1/DTD/svg11.dtd">
<!-- Generated by graphviz version 12.0.0 (20240704.0754)
 -->
<!-- Title: Parser Pages: 1 -->
<svg width="1433pt" height="513pt"
 viewBox="0.00 0.00 1433.00 512.77" xmlns="http://www.w3.org/2000/svg" xmlns:xlink="http://www.w3.org/1999/xlink">
<g id="graph0" class="graph" transform="scale(1 1) rotate(0) translate(4 508.77)">
<title>Parser</title>
<polygon fill="white" stroke="none" points="-4,4 -4,-508.77 1429,-508.77 1429,4 -4,4"/>
<!-- Parser -->
<g id="node1" class="node">
<title>Parser</title>
<ellipse fill="none" stroke="black" cx="715" cy="-454.56" rx="139.65" ry="50.2"/>
<text text-anchor="middle" x="715" y="-472.76" font-family="Times New Roman,serif" font-size="14.00">Parser</text>
<text text-anchor="middle" x="715" y="-457.01" font-family="Times New Roman,serif" font-size="14.00">Input: &quot;a b x $&quot;</text>
<text text-anchor="middle" x="715" y="-441.26" font-family="Times New Roman,serif" font-size="14.00">Location: 5 (&#39; &#39;)</text>
<text text-anchor="middle" x="715" y="-425.51" font-family="Times New Roman,serif" font-size="14.00">Step 33: Reducing non&#45;terminals</text>
</g>
<!-- todoLists -->
<g id="node2" class="node">
<title>todoLists</title>
<polygon fill="none" stroke="black" points="0,-316.11 0,-352.11 552,-352.11 552,-316.11 0,-316.11"/>
<text text-anchor="middle" x="11.38" y="-328.68" font-family="Times New Roman,serif" font-size="14.00">0</text>
<polyline fill="none" stroke="black" points="22.75,-316.11 22.75,-352.11"/>
<text text-anchor="middle" x="34.12" y="-328.68" font-family="Times New Roman,serif" font-size="14.00">1</text>
<polyline fill="none" stroke="black" points="45.5,-316.11 45.5,-352.11"/>
<text text-anchor="middle" x="56.88" y="-328.68" font-family="Times New Roman,serif" font-size="14.00">2</text>
<polyline fill="none" stroke="black" points="68.25,-316.11 68.25,-352.11"/>
<text text-anchor="middle" x="79.62" y="-328.68" font-family="Times New Roman,serif" font-size="14.00">3</text>
<polyline fill="none" stroke="black" points="91,-316.11 91,-352.11"/>
<text text-anchor="middle" x="102.38" y="-328.68" font-family="Times New Roman,serif" font-size="14.00">4</text>
<polyline fill="none" stroke="black" points="113.75,-316.11 113.75,-352.11"/>
<text text-anchor="middle" x="125.12" y="-328.68" font-family="Times New Roman,serif" font-size="14.00">5</text>
<polyline fill="none" stroke="black" points="136.5,-316.11 136.5,-352.11"/>
<text text-anchor="middle" x="147.88" y="-328.68" font-family="Times New Roman,serif" font-size="14.00">6</text>
<polyline fill="none" stroke="black" points="159.25,-316.11 159.25,-352.11"/>
<text text-anchor="middle" x="170.62" y="-328.68" font-family="Times New Roman,serif" font-size="14.00">7</text>
<polyline fill="none" stroke="black" points="182,-316.11 182,-352.11"/>
<text text-anchor="middle" x="193.38" y="-328.68" font-family="Times New Roman,serif" font-size="14.00">8</text>
<polyline fill="none" stroke="black" points="204.75,-316.11 204.75,-352.11"/>
<text text-anchor="middle" x="216.12" y="-328.68" font-family="Times New Roman,serif" font-size="14.00">9</text>
<polyline fill="none" stroke="black" points="227.5,-316.11 227.5,-352.11"/>
<text text-anchor="middle" x="242.25" y="-328.68" font-family="Times New Roman,serif" font-size="14.00">10</text>
<polyline fill="none" stroke="black" points="257,-316.11 257,-352.11"/>
<text text-anchor="middle" x="271.75" y="-328.68" font-family="Times New Roman,serif" font-size="14.00">11</text>
<polyline fill="none" stroke="black" points="286.5,-316.11 286.5,-352.11"/>
<text text-anchor="middle" x="301.25" y="-328.68" font-family="Times New Roman,serif" font-size="14.00">12</text>
<polyline fill="none" stroke="black" points="316,-316.11 316,-352.11"/>
<text text-anchor="middle" x="330.75" y="-328.68" font-family="Times New Roman,serif" font-size="14.00">13</text>
<polyline fill="none" stroke="black" points="345.5,-316.11 345.5,-352.11"/>
<text text-anchor="middle" x="360.25" y="-328.68" font-family="Times New Roman,serif" font-size="14.00">14</text>
<polyline fill="none" stroke="black" points="375,-316.11 375,-352.11"/>
<text text-anchor="middle" x="389.75" y="-328.68" font-family="Times New Roman,serif" font-size="14.00">15</text>
<polyline fill="none" stroke="black" points="404.5,-316.11 404.5,-352.11"/>
<text text-anchor="middle" x="419.25" y="-328.68" font-family="Times New Roman,serif" font-size="14.00">16</text>
<polyline fill="none" stroke="black" points="434,-316.11 434,-352.11"/>
<text text-anchor="middle" x="448.75" y="-328.68" font-family="Times New Roman,serif" font-size="14.00">17</text>
<polyline fill="none" stroke="black" points="463.5,-316.11 463.5,-352.11"/>
<text text-anchor="middle" x="478.25" y="-328.68" font-family="Times New Roman,serif" font-size="14.00">18</text>
<polyline fill="none" stroke="black" points="493,-316.11 493,-352.11"/>
<text text-anchor="middle" x="507.75" y="-328.68" font-family="Times New Roman,serif" font-size="14.00">19</text>
<polyline fill="none" stroke="black" points="522.5,-316.11 522.5,-352.11"/>
<text text-anchor="middle" x="537.25" y="-328.68" font-family="Times New Roman,serif" font-size="14.00">20</text>
</g>
<!-- Parser&#45;&gt;todoLists -->
<g id="edge1" class="edge">
<title>Parser&#45;&gt;todoLists</title>
<path fill="none" stroke="black" d="M604.22,-423.67C525.26,-402.37 421.18,-374.28 351.6,-355.51"/>
<polygon fill="black" stroke="black" points="352.77,-352.2 342.2,-352.97 350.94,-358.96 352.77,-352.2"/>
<text text-anchor="middle" x="482.88" y="-373.06" font-family="Times New Roman,serif" font-size="14.00">todo lists</text>
</g>
<!-- stacksToExpand -->
<g id="node3" class="node">
<title>stacksToExpand</title>
<polygon fill="none" stroke="black" points="570,-316.11 570,-352.11 624,-352.11 624,-316.11 570,-316.11"/>
<text text-anchor="middle" x="596.88" y="-328.68" font-family="Times New Roman,serif" font-size="14.00"> </text>
</g>
<!-- Parser&#45;&gt;stacksToExpand -->
<g id="edge2" class="edge">
<title>Parser&#45;&gt;stacksToExpand</title>
<path fill="none" stroke="black" d="M642.22,-411.67C632.74,-404.09 623.81,-395.62 616.5,-386.36 611.21,-379.65 607.23,-371.35 604.3,-363.4"/>
<polygon fill="black" stroke="black" points="607.68,-362.47 601.28,-354.03 601.02,-364.62 607.68,-362.47"/>
<text text-anchor="middle" x="664.25" y="-373.06" font-family="Times New Roman,serif" font-size="14.00">stacks to expand</text>
</g>
<!-- terminalsToReduce -->
<g id="node4" class="node">
<title>terminalsToReduce</title>
<polygon fill="none" stroke="black" points="688,-316.11 688,-352.11 742,-352.11 742,-316.11 688,-316.11"/>
<text text-anchor="middle" x="714.88" y="-328.68" font-family="Times New Roman,serif" font-size="14.00"> </text>
</g>
<!-- Parser&#45;&gt;terminalsToReduce -->
<g id="edge3" class="edge">
<title>Parser&#45;&gt;terminalsToReduce</title>
<path fill="none" stroke="black" d="M715,-404.01C715,-390.22 715,-375.72 715,-363.59"/>
<polygon fill="black" stroke="black" points="718.5,-363.88 715,-353.88 711.5,-363.88 718.5,-363.88"/>
<text text-anchor="middle" x="767.88" y="-373.06" font-family="Times New Roman,serif" font-size="14.00">terminals to reduce</text>
</g>
<!-- nonTerminalsToReduce -->
<g id="node5" class="node">
<title>nonTerminalsToReduce</title>
<polygon fill="none" stroke="red" points="788,-316.11 788,-352.11 842,-352.11 842,-316.11 788,-316.11"/>
<text text-anchor="middle" x="814.88" y="-328.68" font-family="Times New Roman,serif" font-size="14.00">0</text>
</g>
<!-- Parser&#45;&gt;nonTerminalsToReduce -->
<g id="edge8" class="edge">
<title>Parser&#45;&gt;nonTerminalsToReduce</title>
<path fill="none" stroke="black" d="M798.51,-413.86C807.9,-406.04 816.16,-396.92 822,-386.36 825.85,-379.39 826.2,-371.1 825,-363.24"/>
<polygon fill="black" stroke="black" points="828.45,-362.62 822.72,-353.7 821.64,-364.24 828.45,-362.62"/>
<text text-anchor="middle" x="891.62" y="-373.06" font-family="Times New Roman,serif" font-size="14.00">non&#45;terminals to reduce</text>
</g>
<!-- error -->
<g id="node14" class="node">
<title>error</title>
<ellipse fill="none" stroke="black" cx="1127" cy="-334.11" rx="34.1" ry="18"/>
<text text-anchor="middle" x="1127" y="-328.68" font-family="Times New Roman,serif" font-size="14.00">Errors</text>
</g>
<!-- Parser&#45;&gt;error -->
<g id="edge9" class="edge">
<title>Parser&#45;&gt;error</title>
<path fill="none" stroke="black" d="M826.35,-423.97C868.6,-412.53 917.11,-399.13 961,-386.36 1004.45,-373.72 1053.99,-358.29 1087.56,-347.68"/>
<polygon fill="black" stroke="black" points="1088.38,-351.1 1096.85,-344.74 1086.26,-344.42 1088.38,-351.1"/>
<text text-anchor="middle" x="1048.5" y="-373.06" font-family="Times New Roman,serif" font-size="14.00">error tracking</text>
</g>
<!-- 1610612733 -->
<g id="node6" class="node">
<title>1610612733</title>
<ellipse fill="none" stroke="black" cx="540" cy="-224.79" rx="141.77" ry="39.07"/>
<text text-anchor="middle" x="540" y="-235.12" font-family="Times New Roman,serif" font-size="14.00">RecoveryPoint: 1610612733</text>
<text text-anchor="middle" x="540" y="-219.37" font-family="Times New Roman,serif" font-size="14.00">.4@4</text>
<text text-anchor="middle" x="540" y="-203.62" font-family="Times New Roman,serif" font-size="14.00">in: &#39;ABC &#45;&gt; a Layout b Layout c&#39;</text>
</g>
<!-- nonTerminalsToReduce&#45;&gt;1610612733 -->
<g id="edge6" class="edge">
<title>nonTerminalsToReduce:sw&#45;&gt;1610612733</title>
<path fill="none" stroke="black" d="M788,-315.61C767.62,-295.23 707.31,-273.17 651.28,-256.02"/>
<polygon fill="black" stroke="black" points="652.54,-252.74 641.96,-253.2 650.52,-259.44 652.54,-252.74"/>
<text text-anchor="middle" x="772.75" y="-284.31" font-family="Times New Roman,serif" font-size="14.00">Stack</text>
</g>
<!-- 1555928242 -->
<g id="node9" class="node">
<title>1555928242</title>
<polygon fill="none" stroke="black" points="981.83,-212.27 981.83,-237.31 899.33,-255.02 782.67,-255.02 700.17,-237.31 700.17,-212.27 782.67,-194.56 899.33,-194.56 981.83,-212.27"/>
<text text-anchor="middle" x="841" y="-227.24" font-family="Times New Roman,serif" font-size="14.00">Recovered 4&#45;5</text>
<text text-anchor="middle" x="841" y="-211.49" font-family="Times New Roman,serif" font-size="14.00">&#39;ABC &#45;&gt; a Layout b Layout c&#39;</text>
</g>
<!-- nonTerminalsToReduce&#45;&gt;1555928242 -->
<g id="edge7" class="edge">
<title>nonTerminalsToReduce:se&#45;&gt;1555928242</title>
<path fill="none" stroke="black" d="M841.75,-315.61C854.32,-303.04 855.55,-283.84 853.04,-266.42"/>
<polygon fill="black" stroke="black" points="856.52,-265.98 851.21,-256.81 849.64,-267.28 856.52,-265.98"/>
<text text-anchor="middle" x="870.38" y="-284.31" font-family="Times New Roman,serif" font-size="14.00">Node</text>
</g>
<!-- 35 -->
<g id="node7" class="node">
<title>35</title>
<ellipse fill="none" stroke="black" cx="540" cy="-120.79" rx="87.68" ry="27.93"/>
<text text-anchor="middle" x="540" y="-123.24" font-family="Times New Roman,serif" font-size="14.00">NonTerminal: ABC</text>
<text text-anchor="middle" x="540" y="-107.49" font-family="Times New Roman,serif" font-size="14.00">.0@0</text>
</g>
<!-- 1610612733&#45;&gt;35 -->
<g id="edge5" class="edge">
<title>1610612733&#45;&gt;35</title>
<path fill="none" stroke="black" d="M540,-185.23C540,-177.12 540,-168.56 540,-160.44"/>
<polygon fill="black" stroke="black" points="543.5,-160.49 540,-150.49 536.5,-160.49 543.5,-160.49"/>
</g>
<!-- &#45;1 -->
<g id="node8" class="node">
<title>&#45;1</title>
<ellipse fill="none" stroke="black" cx="540" cy="-27.93" rx="73.36" ry="27.93"/>
<text text-anchor="middle" x="540" y="-30.38" font-family="Times New Roman,serif" font-size="14.00">NonTerminal: S</text>
<text text-anchor="middle" x="540" y="-14.63" font-family="Times New Roman,serif" font-size="14.00">.0@&#45;1</text>
</g>
<!-- 35&#45;&gt;&#45;1 -->
<g id="edge4" class="edge">
<title>35&#45;&gt;&#45;1</title>
<path fill="none" stroke="black" d="M540,-92.53C540,-84.71 540,-76.04 540,-67.67"/>
<polygon fill="black" stroke="black" points="543.5,-67.69 540,-57.69 536.5,-67.69 543.5,-67.69"/>
</g>
<!-- unexpandableNodes -->
<g id="node10" class="node">
<title>unexpandableNodes</title>
<polygon fill="none" stroke="black" points="1000,-206.79 1000,-242.79 1054,-242.79 1054,-206.79 1000,-206.79"/>
<text text-anchor="middle" x="1026.88" y="-219.37" font-family="Times New Roman,serif" font-size="14.00"> </text>
</g>
<!-- unmatchableLeafNodes -->
<g id="node11" class="node">
<title>unmatchableLeafNodes</title>
<polygon fill="none" stroke="black" points="1100,-206.79 1100,-242.79 1154,-242.79 1154,-206.79 1100,-206.79"/>
<text text-anchor="middle" x="1126.88" y="-219.37" font-family="Times New Roman,serif" font-size="14.00"> </text>
</g>
<!-- unmatchableMidProductionNodes -->
<g id="node12" class="node">
<title>unmatchableMidProductionNodes</title>
<polygon fill="none" stroke="black" points="1222,-206.79 1222,-242.79 1276,-242.79 1276,-206.79 1222,-206.79"/>
<text text-anchor="middle" x="1248.88" y="-219.37" font-family="Times New Roman,serif" font-size="14.00"> </text>
</g>
<!-- filteredNodes -->
<g id="node13" class="node">
<title>filteredNodes</title>
<polygon fill="none" stroke="black" points="1371,-206.79 1371,-242.79 1425,-242.79 1425,-206.79 1371,-206.79"/>
<text text-anchor="middle" x="1397.88" y="-219.37" font-family="Times New Roman,serif" font-size="14.00"> </text>
</g>
<!-- error&#45;&gt;unexpandableNodes -->
<g id="edge10" class="edge">
<title>error&#45;&gt;unexpandableNodes</title>
<path fill="none" stroke="black" d="M1095.91,-326.35C1079.06,-321.17 1059.15,-312.32 1046.5,-297.61 1036.23,-285.67 1031.32,-268.82 1028.99,-254.44"/>
<polygon fill="black" stroke="black" points="1032.48,-254.1 1027.77,-244.61 1025.53,-254.97 1032.48,-254.1"/>
<text text-anchor="middle" x="1084.25" y="-284.31" font-family="Times New Roman,serif" font-size="14.00">unexpandable</text>
</g>
<!-- error&#45;&gt;unmatchableLeafNodes -->
<g id="edge11" class="edge">
<title>error&#45;&gt;unmatchableLeafNodes</title>
<path fill="none" stroke="black" d="M1127,-315.87C1127,-299.28 1127,-273.91 1127,-254.31"/>
<polygon fill="black" stroke="black" points="1130.5,-254.5 1127,-244.5 1123.5,-254.5 1130.5,-254.5"/>
<text text-anchor="middle" x="1176.5" y="-284.31" font-family="Times New Roman,serif" font-size="14.00">unmatchable leafs</text>
</g>
<!-- error&#45;&gt;unmatchableMidProductionNodes -->
<g id="edge12" class="edge">
<title>error&#45;&gt;unmatchableMidProductionNodes</title>
<path fill="none" stroke="black" d="M1159.95,-329.14C1181.74,-324.86 1209.42,-315.98 1227,-297.61 1238.17,-285.94 1243.68,-268.74 1246.39,-254.11"/>
<polygon fill="black" stroke="black" points="1249.8,-254.97 1247.8,-244.57 1242.88,-253.95 1249.8,-254.97"/>
<text text-anchor="middle" x="1300" y="-284.31" font-family="Times New Roman,serif" font-size="14.00">unmatchable mid&#45;prod</text>
</g>
<!-- error&#45;&gt;filteredNodes -->
<g id="edge13" class="edge">
<title>error&#45;&gt;filteredNodes</title>
<path fill="none" stroke="black" d="M1161.23,-332.07C1219.66,-329.65 1335.44,-321.86 1367,-297.61 1380.64,-287.13 1388.38,-269.43 1392.71,-254.22"/>
<polygon fill="black" stroke="black" points="1396.06,-255.26 1395.04,-244.71 1389.26,-253.59 1396.06,-255.26"/>
<text text-anchor="middle" x="1399.12" y="-284.31" font-family="Times New Roman,serif" font-size="14.00">filtered</text>
</g>
</g>
</svg>
