<?xml version="1.0" encoding="UTF-8" standalone="no"?>
<!DOCTYPE svg PUBLIC "-//W3C//DTD SVG 1.1//EN"
 "http://www.w3.org/Graphics/SVG/1.1/DTD/svg11.dtd">
<!-- Generated by graphviz version 12.0.0 (20240704.0754)
 -->
<!-- Title: Parser Pages: 1 -->
<svg width="1200pt" height="398pt"
 viewBox="0.00 0.00 1200.00 397.63" xmlns="http://www.w3.org/2000/svg" xmlns:xlink="http://www.w3.org/1999/xlink">
<g id="graph0" class="graph" transform="scale(1 1) rotate(0) translate(4 393.63)">
<title>Parser</title>
<polygon fill="white" stroke="none" points="-4,4 -4,-393.63 1196,-393.63 1196,4 -4,4"/>
<!-- Parser -->
<g id="node1" class="node">
<title>Parser</title>
<ellipse fill="none" stroke="black" cx="692" cy="-339.43" rx="88.21" ry="50.2"/>
<text text-anchor="middle" x="692" y="-357.63" font-family="Times New Roman,serif" font-size="14.00">Parser</text>
<text text-anchor="middle" x="692" y="-341.88" font-family="Times New Roman,serif" font-size="14.00">Input: &quot;a b x $&quot;</text>
<text text-anchor="middle" x="692" y="-326.13" font-family="Times New Roman,serif" font-size="14.00">Location: 5 (&#39; &#39;)</text>
<text text-anchor="middle" x="692" y="-310.38" font-family="Times New Roman,serif" font-size="14.00">Step 34: Expanding</text>
</g>
<!-- todoLists -->
<g id="node2" class="node">
<title>todoLists</title>
<polygon fill="none" stroke="black" points="0,-200.97 0,-236.97 552,-236.97 552,-200.97 0,-200.97"/>
<text text-anchor="middle" x="11.38" y="-213.55" font-family="Times New Roman,serif" font-size="14.00">0</text>
<polyline fill="none" stroke="black" points="22.75,-200.97 22.75,-236.97"/>
<text text-anchor="middle" x="34.12" y="-213.55" font-family="Times New Roman,serif" font-size="14.00">1</text>
<polyline fill="none" stroke="black" points="45.5,-200.97 45.5,-236.97"/>
<text text-anchor="middle" x="56.88" y="-213.55" font-family="Times New Roman,serif" font-size="14.00">2</text>
<polyline fill="none" stroke="black" points="68.25,-200.97 68.25,-236.97"/>
<text text-anchor="middle" x="79.62" y="-213.55" font-family="Times New Roman,serif" font-size="14.00">3</text>
<polyline fill="none" stroke="black" points="91,-200.97 91,-236.97"/>
<text text-anchor="middle" x="102.38" y="-213.55" font-family="Times New Roman,serif" font-size="14.00">4</text>
<polyline fill="none" stroke="black" points="113.75,-200.97 113.75,-236.97"/>
<text text-anchor="middle" x="125.12" y="-213.55" font-family="Times New Roman,serif" font-size="14.00">5</text>
<polyline fill="none" stroke="black" points="136.5,-200.97 136.5,-236.97"/>
<text text-anchor="middle" x="147.88" y="-213.55" font-family="Times New Roman,serif" font-size="14.00">6</text>
<polyline fill="none" stroke="black" points="159.25,-200.97 159.25,-236.97"/>
<text text-anchor="middle" x="170.62" y="-213.55" font-family="Times New Roman,serif" font-size="14.00">7</text>
<polyline fill="none" stroke="black" points="182,-200.97 182,-236.97"/>
<text text-anchor="middle" x="193.38" y="-213.55" font-family="Times New Roman,serif" font-size="14.00">8</text>
<polyline fill="none" stroke="black" points="204.75,-200.97 204.75,-236.97"/>
<text text-anchor="middle" x="216.12" y="-213.55" font-family="Times New Roman,serif" font-size="14.00">9</text>
<polyline fill="none" stroke="black" points="227.5,-200.97 227.5,-236.97"/>
<text text-anchor="middle" x="242.25" y="-213.55" font-family="Times New Roman,serif" font-size="14.00">10</text>
<polyline fill="none" stroke="black" points="257,-200.97 257,-236.97"/>
<text text-anchor="middle" x="271.75" y="-213.55" font-family="Times New Roman,serif" font-size="14.00">11</text>
<polyline fill="none" stroke="black" points="286.5,-200.97 286.5,-236.97"/>
<text text-anchor="middle" x="301.25" y="-213.55" font-family="Times New Roman,serif" font-size="14.00">12</text>
<polyline fill="none" stroke="black" points="316,-200.97 316,-236.97"/>
<text text-anchor="middle" x="330.75" y="-213.55" font-family="Times New Roman,serif" font-size="14.00">13</text>
<polyline fill="none" stroke="black" points="345.5,-200.97 345.5,-236.97"/>
<text text-anchor="middle" x="360.25" y="-213.55" font-family="Times New Roman,serif" font-size="14.00">14</text>
<polyline fill="none" stroke="black" points="375,-200.97 375,-236.97"/>
<text text-anchor="middle" x="389.75" y="-213.55" font-family="Times New Roman,serif" font-size="14.00">15</text>
<polyline fill="none" stroke="black" points="404.5,-200.97 404.5,-236.97"/>
<text text-anchor="middle" x="419.25" y="-213.55" font-family="Times New Roman,serif" font-size="14.00">16</text>
<polyline fill="none" stroke="black" points="434,-200.97 434,-236.97"/>
<text text-anchor="middle" x="448.75" y="-213.55" font-family="Times New Roman,serif" font-size="14.00">17</text>
<polyline fill="none" stroke="black" points="463.5,-200.97 463.5,-236.97"/>
<text text-anchor="middle" x="478.25" y="-213.55" font-family="Times New Roman,serif" font-size="14.00">18</text>
<polyline fill="none" stroke="black" points="493,-200.97 493,-236.97"/>
<text text-anchor="middle" x="507.75" y="-213.55" font-family="Times New Roman,serif" font-size="14.00">19</text>
<polyline fill="none" stroke="black" points="522.5,-200.97 522.5,-236.97"/>
<text text-anchor="middle" x="537.25" y="-213.55" font-family="Times New Roman,serif" font-size="14.00">20</text>
</g>
<!-- Parser&#45;&gt;todoLists -->
<g id="edge1" class="edge">
<title>Parser&#45;&gt;todoLists</title>
<path fill="none" stroke="black" d="M613.75,-316.15C537.37,-294.4 422.12,-261.58 347.96,-240.46"/>
<polygon fill="black" stroke="black" points="349.36,-237.22 338.78,-237.85 347.44,-243.95 349.36,-237.22"/>
<text text-anchor="middle" x="472.88" y="-257.92" font-family="Times New Roman,serif" font-size="14.00">todo lists</text>
</g>
<!-- stacksToExpand -->
<g id="node5" class="node">
<title>stacksToExpand</title>
<polygon fill="none" stroke="red" points="570,-200.97 570,-236.97 624,-236.97 624,-200.97 570,-200.97"/>
<text text-anchor="middle" x="596.88" y="-213.55" font-family="Times New Roman,serif" font-size="14.00">0</text>
</g>
<!-- Parser&#45;&gt;stacksToExpand -->
<g id="edge4" class="edge">
<title>Parser&#45;&gt;stacksToExpand</title>
<path fill="none" stroke="black" d="M625.29,-306.11C612.52,-296.71 600.85,-285.13 593.5,-271.22 589.85,-264.31 589.11,-256.12 589.71,-248.34"/>
<polygon fill="black" stroke="black" points="593.16,-248.98 591.23,-238.57 586.24,-247.91 593.16,-248.98"/>
<text text-anchor="middle" x="641.25" y="-257.92" font-family="Times New Roman,serif" font-size="14.00">stacks to expand</text>
</g>
<!-- terminalsToReduce -->
<g id="node6" class="node">
<title>terminalsToReduce</title>
<polygon fill="none" stroke="black" points="665,-200.97 665,-236.97 719,-236.97 719,-200.97 665,-200.97"/>
<text text-anchor="middle" x="691.88" y="-213.55" font-family="Times New Roman,serif" font-size="14.00"> </text>
</g>
<!-- Parser&#45;&gt;terminalsToReduce -->
<g id="edge5" class="edge">
<title>Parser&#45;&gt;terminalsToReduce</title>
<path fill="none" stroke="black" d="M692,-288.88C692,-275.09 692,-260.58 692,-248.45"/>
<polygon fill="black" stroke="black" points="695.5,-248.75 692,-238.75 688.5,-248.75 695.5,-248.75"/>
<text text-anchor="middle" x="744.88" y="-257.92" font-family="Times New Roman,serif" font-size="14.00">terminals to reduce</text>
</g>
<!-- nonTerminalsToReduce -->
<g id="node7" class="node">
<title>nonTerminalsToReduce</title>
<polygon fill="none" stroke="black" points="794,-200.97 794,-236.97 848,-236.97 848,-200.97 794,-200.97"/>
<text text-anchor="middle" x="820.88" y="-213.55" font-family="Times New Roman,serif" font-size="14.00"> </text>
</g>
<!-- Parser&#45;&gt;nonTerminalsToReduce -->
<g id="edge6" class="edge">
<title>Parser&#45;&gt;nonTerminalsToReduce</title>
<path fill="none" stroke="black" d="M758.01,-305.72C772.86,-296.12 787.59,-284.56 799,-271.22 804.8,-264.44 809.27,-255.91 812.63,-247.76"/>
<polygon fill="black" stroke="black" points="815.86,-249.1 816,-238.5 809.29,-246.7 815.86,-249.1"/>
<text text-anchor="middle" x="873.62" y="-257.92" font-family="Times New Roman,serif" font-size="14.00">non&#45;terminals to reduce</text>
</g>
<!-- error -->
<g id="node12" class="node">
<title>error</title>
<ellipse fill="none" stroke="black" cx="975" cy="-218.97" rx="34.1" ry="18"/>
<text text-anchor="middle" x="975" y="-213.55" font-family="Times New Roman,serif" font-size="14.00">Errors</text>
</g>
<!-- Parser&#45;&gt;error -->
<g id="edge7" class="edge">
<title>Parser&#45;&gt;error</title>
<path fill="none" stroke="black" d="M779.41,-331.11C831.13,-323.09 895.59,-306.31 943,-271.22 951.36,-265.03 958.05,-255.95 963.1,-247.14"/>
<polygon fill="black" stroke="black" points="966.11,-248.95 967.59,-238.46 959.89,-245.73 966.11,-248.95"/>
<text text-anchor="middle" x="994.5" y="-257.92" font-family="Times New Roman,serif" font-size="14.00">error tracking</text>
</g>
<!-- 36 -->
<g id="node3" class="node">
<title>36</title>
<ellipse fill="none" stroke="black" cx="597" cy="-120.79" rx="95.11" ry="27.93"/>
<text text-anchor="middle" x="597" y="-123.24" font-family="Times New Roman,serif" font-size="14.00">NonTerminal: Layout</text>
<text text-anchor="middle" x="597" y="-107.49" font-family="Times New Roman,serif" font-size="14.00">.1@5</text>
</g>
<!-- &#45;1 -->
<g id="node4" class="node">
<title>&#45;1</title>
<ellipse fill="none" stroke="black" cx="597" cy="-27.93" rx="73.36" ry="27.93"/>
<text text-anchor="middle" x="597" y="-30.38" font-family="Times New Roman,serif" font-size="14.00">NonTerminal: S</text>
<text text-anchor="middle" x="597" y="-14.63" font-family="Times New Roman,serif" font-size="14.00">.0@&#45;1</text>
</g>
<!-- 36&#45;&gt;&#45;1 -->
<g id="edge2" class="edge">
<title>36&#45;&gt;&#45;1</title>
<path fill="none" stroke="black" d="M597,-92.53C597,-84.71 597,-76.04 597,-67.67"/>
<polygon fill="black" stroke="black" points="600.5,-67.69 597,-57.69 593.5,-67.69 600.5,-67.69"/>
</g>
<!-- stacksToExpand&#45;&gt;36 -->
<g id="edge3" class="edge">
<title>stacksToExpand:0&#45;&gt;36</title>
<path fill="none" stroke="black" d="M596.9,-200.69C596.91,-189.35 596.93,-174.35 596.95,-160.47"/>
<polygon fill="black" stroke="black" points="600.45,-160.7 596.96,-150.69 593.45,-160.69 600.45,-160.7"/>
</g>
<!-- unexpandableNodes -->
<g id="node8" class="node">
<title>unexpandableNodes</title>
<polygon fill="none" stroke="black" points="767,-102.79 767,-138.79 821,-138.79 821,-102.79 767,-102.79"/>
<text text-anchor="middle" x="793.88" y="-115.37" font-family="Times New Roman,serif" font-size="14.00"> </text>
</g>
<!-- unmatchableLeafNodes -->
<g id="node9" class="node">
<title>unmatchableLeafNodes</title>
<polygon fill="none" stroke="black" points="867,-102.79 867,-138.79 921,-138.79 921,-102.79 867,-102.79"/>
<text text-anchor="middle" x="893.88" y="-115.37" font-family="Times New Roman,serif" font-size="14.00"> </text>
</g>
<!-- unmatchableMidProductionNodes -->
<g id="node10" class="node">
<title>unmatchableMidProductionNodes</title>
<polygon fill="none" stroke="black" points="989,-102.79 989,-138.79 1043,-138.79 1043,-102.79 989,-102.79"/>
<text text-anchor="middle" x="1015.88" y="-115.37" font-family="Times New Roman,serif" font-size="14.00"> </text>
</g>
<!-- filteredNodes -->
<g id="node11" class="node">
<title>filteredNodes</title>
<polygon fill="none" stroke="black" points="1138,-102.79 1138,-138.79 1192,-138.79 1192,-102.79 1138,-102.79"/>
<text text-anchor="middle" x="1164.88" y="-115.37" font-family="Times New Roman,serif" font-size="14.00"> </text>
</g>
<!-- error&#45;&gt;unexpandableNodes -->
<g id="edge8" class="edge">
<title>error&#45;&gt;unexpandableNodes</title>
<path fill="none" stroke="black" d="M942.51,-213.21C895.75,-206.06 814.04,-192.34 804.5,-182.47 796.39,-174.09 793.29,-161.83 792.4,-150.52"/>
<polygon fill="black" stroke="black" points="795.9,-150.71 792.18,-140.79 788.9,-150.87 795.9,-150.71"/>
<text text-anchor="middle" x="843.25" y="-169.17" font-family="Times New Roman,serif" font-size="14.00">unexpandable</text>
</g>
<!-- error&#45;&gt;unmatchableLeafNodes -->
<g id="edge9" class="edge">
<title>error&#45;&gt;unmatchableLeafNodes</title>
<path fill="none" stroke="black" d="M942.25,-213.11C923.86,-208.51 902.37,-199.63 891,-182.47 884.84,-173.18 884.28,-161.21 885.74,-150.36"/>
<polygon fill="black" stroke="black" points="889.15,-151.18 887.67,-140.69 882.28,-149.81 889.15,-151.18"/>
<text text-anchor="middle" x="940.5" y="-169.17" font-family="Times New Roman,serif" font-size="14.00">unmatchable leafs</text>
</g>
<!-- error&#45;&gt;unmatchableMidProductionNodes -->
<g id="edge10" class="edge">
<title>error&#45;&gt;unmatchableMidProductionNodes</title>
<path fill="none" stroke="black" d="M984.59,-201.25C987.77,-195.4 991.21,-188.73 994,-182.47 998.69,-171.95 1003.17,-160.09 1006.84,-149.67"/>
<polygon fill="black" stroke="black" points="1010.05,-151.08 1009.99,-140.48 1003.43,-148.81 1010.05,-151.08"/>
<text text-anchor="middle" x="1063" y="-169.17" font-family="Times New Roman,serif" font-size="14.00">unmatchable mid&#45;prod</text>
</g>
<!-- error&#45;&gt;filteredNodes -->
<g id="edge11" class="edge">
<title>error&#45;&gt;filteredNodes</title>
<path fill="none" stroke="black" d="M1009.37,-217.8C1043.13,-215.98 1094.59,-208.64 1130,-182.47 1141.16,-174.23 1149.32,-161.28 1154.94,-149.46"/>
<polygon fill="black" stroke="black" points="1158.07,-151.05 1158.81,-140.48 1151.64,-148.28 1158.07,-151.05"/>
<text text-anchor="middle" x="1163.12" y="-169.17" font-family="Times New Roman,serif" font-size="14.00">filtered</text>
</g>
</g>
</svg>
