<?xml version="1.0" encoding="UTF-8" standalone="no"?>
<!DOCTYPE svg PUBLIC "-//W3C//DTD SVG 1.1//EN"
 "http://www.w3.org/Graphics/SVG/1.1/DTD/svg11.dtd">
<!-- Generated by graphviz version 12.0.0 (20240704.0754)
 -->
<!-- Title: Parser Pages: 1 -->
<svg width="1414pt" height="602pt"
 viewBox="0.00 0.00 1413.80 601.52" xmlns="http://www.w3.org/2000/svg" xmlns:xlink="http://www.w3.org/1999/xlink">
<g id="graph0" class="graph" transform="scale(1 1) rotate(0) translate(4 597.52)">
<title>Parser</title>
<polygon fill="white" stroke="none" points="-4,4 -4,-597.52 1409.8,-597.52 1409.8,4 -4,4"/>
<!-- Parser -->
<g id="node1" class="node">
<title>Parser</title>
<ellipse fill="none" stroke="black" cx="885.8" cy="-543.31" rx="143.37" ry="50.2"/>
<text text-anchor="middle" x="885.8" y="-561.51" font-family="Times New Roman,serif" font-size="14.00">Parser</text>
<text text-anchor="middle" x="885.8" y="-545.76" font-family="Times New Roman,serif" font-size="14.00">Input: &quot;a b x $&quot;</text>
<text text-anchor="middle" x="885.8" y="-530.01" font-family="Times New Roman,serif" font-size="14.00">Location: 5 (&#39; &#39;)</text>
<text text-anchor="middle" x="885.8" y="-514.26" font-family="Times New Roman,serif" font-size="14.00">Step 35: Finding stacks to reduce</text>
</g>
<!-- todoLists -->
<g id="node7" class="node">
<title>todoLists</title>
<polygon fill="none" stroke="red" points="170.8,-404.86 170.8,-440.86 722.8,-440.86 722.8,-404.86 170.8,-404.86"/>
<text text-anchor="middle" x="182.18" y="-417.43" font-family="Times New Roman,serif" font-size="14.00">0</text>
<polyline fill="none" stroke="red" points="193.55,-404.86 193.55,-440.86"/>
<text text-anchor="middle" x="204.93" y="-417.43" font-family="Times New Roman,serif" font-size="14.00">1</text>
<polyline fill="none" stroke="red" points="216.3,-404.86 216.3,-440.86"/>
<text text-anchor="middle" x="227.68" y="-417.43" font-family="Times New Roman,serif" font-size="14.00">2</text>
<polyline fill="none" stroke="red" points="239.05,-404.86 239.05,-440.86"/>
<text text-anchor="middle" x="250.43" y="-417.43" font-family="Times New Roman,serif" font-size="14.00">3</text>
<polyline fill="none" stroke="red" points="261.8,-404.86 261.8,-440.86"/>
<text text-anchor="middle" x="273.18" y="-417.43" font-family="Times New Roman,serif" font-size="14.00">4</text>
<polyline fill="none" stroke="red" points="284.55,-404.86 284.55,-440.86"/>
<text text-anchor="middle" x="295.93" y="-417.43" font-family="Times New Roman,serif" font-size="14.00">5</text>
<polyline fill="none" stroke="red" points="307.3,-404.86 307.3,-440.86"/>
<text text-anchor="middle" x="318.68" y="-417.43" font-family="Times New Roman,serif" font-size="14.00">6</text>
<polyline fill="none" stroke="red" points="330.05,-404.86 330.05,-440.86"/>
<text text-anchor="middle" x="341.43" y="-417.43" font-family="Times New Roman,serif" font-size="14.00">7</text>
<polyline fill="none" stroke="red" points="352.8,-404.86 352.8,-440.86"/>
<text text-anchor="middle" x="364.18" y="-417.43" font-family="Times New Roman,serif" font-size="14.00">8</text>
<polyline fill="none" stroke="red" points="375.55,-404.86 375.55,-440.86"/>
<text text-anchor="middle" x="386.93" y="-417.43" font-family="Times New Roman,serif" font-size="14.00">9</text>
<polyline fill="none" stroke="red" points="398.3,-404.86 398.3,-440.86"/>
<text text-anchor="middle" x="413.05" y="-417.43" font-family="Times New Roman,serif" font-size="14.00">10</text>
<polyline fill="none" stroke="red" points="427.8,-404.86 427.8,-440.86"/>
<text text-anchor="middle" x="442.55" y="-417.43" font-family="Times New Roman,serif" font-size="14.00">11</text>
<polyline fill="none" stroke="red" points="457.3,-404.86 457.3,-440.86"/>
<text text-anchor="middle" x="472.05" y="-417.43" font-family="Times New Roman,serif" font-size="14.00">12</text>
<polyline fill="none" stroke="red" points="486.8,-404.86 486.8,-440.86"/>
<text text-anchor="middle" x="501.55" y="-417.43" font-family="Times New Roman,serif" font-size="14.00">13</text>
<polyline fill="none" stroke="red" points="516.3,-404.86 516.3,-440.86"/>
<text text-anchor="middle" x="531.05" y="-417.43" font-family="Times New Roman,serif" font-size="14.00">14</text>
<polyline fill="none" stroke="red" points="545.8,-404.86 545.8,-440.86"/>
<text text-anchor="middle" x="560.55" y="-417.43" font-family="Times New Roman,serif" font-size="14.00">15</text>
<polyline fill="none" stroke="red" points="575.3,-404.86 575.3,-440.86"/>
<text text-anchor="middle" x="590.05" y="-417.43" font-family="Times New Roman,serif" font-size="14.00">16</text>
<polyline fill="none" stroke="red" points="604.8,-404.86 604.8,-440.86"/>
<text text-anchor="middle" x="619.55" y="-417.43" font-family="Times New Roman,serif" font-size="14.00">17</text>
<polyline fill="none" stroke="red" points="634.3,-404.86 634.3,-440.86"/>
<text text-anchor="middle" x="649.05" y="-417.43" font-family="Times New Roman,serif" font-size="14.00">18</text>
<polyline fill="none" stroke="red" points="663.8,-404.86 663.8,-440.86"/>
<text text-anchor="middle" x="678.55" y="-417.43" font-family="Times New Roman,serif" font-size="14.00">19</text>
<polyline fill="none" stroke="red" points="693.3,-404.86 693.3,-440.86"/>
<text text-anchor="middle" x="708.05" y="-417.43" font-family="Times New Roman,serif" font-size="14.00">20</text>
</g>
<!-- Parser&#45;&gt;todoLists -->
<g id="edge6" class="edge">
<title>Parser&#45;&gt;todoLists</title>
<path fill="none" stroke="black" d="M773.04,-511.88C694.3,-490.64 591.35,-462.86 522.35,-444.24"/>
<polygon fill="black" stroke="black" points="523.61,-440.96 513.04,-441.73 521.78,-447.71 523.61,-440.96"/>
<text text-anchor="middle" x="653.68" y="-461.81" font-family="Times New Roman,serif" font-size="14.00">todo lists</text>
</g>
<!-- stacksToExpand -->
<g id="node8" class="node">
<title>stacksToExpand</title>
<polygon fill="none" stroke="black" points="740.8,-404.86 740.8,-440.86 794.8,-440.86 794.8,-404.86 740.8,-404.86"/>
<text text-anchor="middle" x="767.68" y="-417.43" font-family="Times New Roman,serif" font-size="14.00"> </text>
</g>
<!-- Parser&#45;&gt;stacksToExpand -->
<g id="edge7" class="edge">
<title>Parser&#45;&gt;stacksToExpand</title>
<path fill="none" stroke="black" d="M812.53,-500.02C803.24,-492.55 794.48,-484.21 787.3,-475.11 782.02,-468.4 778.04,-460.1 775.1,-452.15"/>
<polygon fill="black" stroke="black" points="778.48,-451.22 772.08,-442.78 771.82,-453.37 778.48,-451.22"/>
<text text-anchor="middle" x="835.05" y="-461.81" font-family="Times New Roman,serif" font-size="14.00">stacks to expand</text>
</g>
<!-- terminalsToReduce -->
<g id="node9" class="node">
<title>terminalsToReduce</title>
<polygon fill="none" stroke="black" points="858.8,-404.86 858.8,-440.86 912.8,-440.86 912.8,-404.86 858.8,-404.86"/>
<text text-anchor="middle" x="885.68" y="-417.43" font-family="Times New Roman,serif" font-size="14.00"> </text>
</g>
<!-- Parser&#45;&gt;terminalsToReduce -->
<g id="edge8" class="edge">
<title>Parser&#45;&gt;terminalsToReduce</title>
<path fill="none" stroke="black" d="M885.8,-492.76C885.8,-478.97 885.8,-464.47 885.8,-452.34"/>
<polygon fill="black" stroke="black" points="889.3,-452.63 885.8,-442.63 882.3,-452.63 889.3,-452.63"/>
<text text-anchor="middle" x="938.68" y="-461.81" font-family="Times New Roman,serif" font-size="14.00">terminals to reduce</text>
</g>
<!-- nonTerminalsToReduce -->
<g id="node10" class="node">
<title>nonTerminalsToReduce</title>
<polygon fill="none" stroke="black" points="987.8,-404.86 987.8,-440.86 1041.8,-440.86 1041.8,-404.86 987.8,-404.86"/>
<text text-anchor="middle" x="1014.68" y="-417.43" font-family="Times New Roman,serif" font-size="14.00"> </text>
</g>
<!-- Parser&#45;&gt;nonTerminalsToReduce -->
<g id="edge9" class="edge">
<title>Parser&#45;&gt;nonTerminalsToReduce</title>
<path fill="none" stroke="black" d="M964.24,-501.04C974.69,-493.36 984.6,-484.69 992.8,-475.11 998.6,-468.33 1003.08,-459.79 1006.43,-451.64"/>
<polygon fill="black" stroke="black" points="1009.67,-452.98 1009.81,-442.39 1003.09,-450.58 1009.67,-452.98"/>
<text text-anchor="middle" x="1068.43" y="-461.81" font-family="Times New Roman,serif" font-size="14.00">non&#45;terminals to reduce</text>
</g>
<!-- error -->
<g id="node15" class="node">
<title>error</title>
<ellipse fill="none" stroke="black" cx="1168.8" cy="-422.86" rx="34.1" ry="18"/>
<text text-anchor="middle" x="1168.8" y="-417.43" font-family="Times New Roman,serif" font-size="14.00">Errors</text>
</g>
<!-- Parser&#45;&gt;error -->
<g id="edge10" class="edge">
<title>Parser&#45;&gt;error</title>
<path fill="none" stroke="black" d="M1020.9,-526.09C1061.43,-516.25 1104.03,-500.45 1137.8,-475.11 1146.05,-468.92 1152.57,-459.83 1157.45,-451.02"/>
<polygon fill="black" stroke="black" points="1160.44,-452.86 1161.76,-442.35 1154.17,-449.75 1160.44,-452.86"/>
<text text-anchor="middle" x="1189.3" y="-461.81" font-family="Times New Roman,serif" font-size="14.00">error tracking</text>
</g>
<!-- todo&#45;2 -->
<g id="node2" class="node">
<title>todo&#45;2</title>
<polygon fill="none" stroke="black" points="200.8,-316.11 200.8,-352.11 254.8,-352.11 254.8,-316.11 200.8,-316.11"/>
<text text-anchor="middle" x="227.68" y="-328.68" font-family="Times New Roman,serif" font-size="14.00">0</text>
</g>
<!-- 92 -->
<g id="node3" class="node">
<title>92</title>
<ellipse fill="none" stroke="black" cx="124.8" cy="-224.79" rx="124.8" ry="39.07"/>
<text text-anchor="middle" x="124.8" y="-235.12" font-family="Times New Roman,serif" font-size="14.00">Char: </text>
<text text-anchor="middle" x="124.8" y="-219.37" font-family="Times New Roman,serif" font-size="14.00">.0@5</text>
<text text-anchor="middle" x="124.8" y="-203.62" font-family="Times New Roman,serif" font-size="14.00">in: &#39;Layout &#45;&gt; [range(32,32)]&#39;</text>
</g>
<!-- todo&#45;2&#45;&gt;92 -->
<g id="edge3" class="edge">
<title>todo&#45;2:sw&#45;&gt;92</title>
<path fill="none" stroke="black" d="M200.8,-315.61C187.17,-301.97 173.25,-286.18 161.12,-271.67"/>
<polygon fill="black" stroke="black" points="163.85,-269.48 154.78,-264.01 158.46,-273.94 163.85,-269.48"/>
<text text-anchor="middle" x="199.55" y="-284.31" font-family="Times New Roman,serif" font-size="14.00">Stack</text>
</g>
<!-- 858267892 -->
<g id="node6" class="node">
<title>858267892</title>
<polygon fill="none" stroke="black" points="390.42,-212.27 390.42,-237.31 354.32,-255.02 303.28,-255.02 267.19,-237.31 267.19,-212.27 303.28,-194.56 354.32,-194.56 390.42,-212.27"/>
<text text-anchor="middle" x="328.8" y="-227.24" font-family="Times New Roman,serif" font-size="14.00">Char</text>
<text text-anchor="middle" x="328.8" y="-211.49" font-family="Times New Roman,serif" font-size="14.00">char=32(&#39; &#39;)</text>
</g>
<!-- todo&#45;2&#45;&gt;858267892 -->
<g id="edge4" class="edge">
<title>todo&#45;2:se&#45;&gt;858267892</title>
<path fill="none" stroke="black" d="M254.55,-315.61C270.49,-299.67 286.61,-280.61 299.74,-264.14"/>
<polygon fill="black" stroke="black" points="302.33,-266.51 305.77,-256.49 296.83,-262.18 302.33,-266.51"/>
<text text-anchor="middle" x="300.18" y="-284.31" font-family="Times New Roman,serif" font-size="14.00">Node</text>
</g>
<!-- 36 -->
<g id="node4" class="node">
<title>36</title>
<ellipse fill="none" stroke="black" cx="124.8" cy="-120.79" rx="95.11" ry="27.93"/>
<text text-anchor="middle" x="124.8" y="-123.24" font-family="Times New Roman,serif" font-size="14.00">NonTerminal: Layout</text>
<text text-anchor="middle" x="124.8" y="-107.49" font-family="Times New Roman,serif" font-size="14.00">.1@5</text>
</g>
<!-- 92&#45;&gt;36 -->
<g id="edge2" class="edge">
<title>92&#45;&gt;36</title>
<path fill="none" stroke="black" d="M124.8,-185.23C124.8,-177.12 124.8,-168.56 124.8,-160.44"/>
<polygon fill="black" stroke="black" points="128.3,-160.49 124.8,-150.49 121.3,-160.49 128.3,-160.49"/>
</g>
<!-- &#45;1 -->
<g id="node5" class="node">
<title>&#45;1</title>
<ellipse fill="none" stroke="black" cx="124.8" cy="-27.93" rx="73.36" ry="27.93"/>
<text text-anchor="middle" x="124.8" y="-30.38" font-family="Times New Roman,serif" font-size="14.00">NonTerminal: S</text>
<text text-anchor="middle" x="124.8" y="-14.63" font-family="Times New Roman,serif" font-size="14.00">.0@&#45;1</text>
</g>
<!-- 36&#45;&gt;&#45;1 -->
<g id="edge1" class="edge">
<title>36&#45;&gt;&#45;1</title>
<path fill="none" stroke="black" d="M124.8,-92.53C124.8,-84.71 124.8,-76.04 124.8,-67.67"/>
<polygon fill="black" stroke="black" points="128.3,-67.69 124.8,-57.69 121.3,-67.69 128.3,-67.69"/>
</g>
<!-- todoLists&#45;&gt;todo&#45;2 -->
<g id="edge5" class="edge">
<title>todoLists:2&#45;&gt;todo&#45;2</title>
<path fill="none" stroke="black" d="M227.68,-404.36C227.68,-390.97 227.7,-376.12 227.73,-363.61"/>
<polygon fill="black" stroke="black" points="231.23,-363.99 227.75,-353.98 224.23,-363.97 231.23,-363.99"/>
</g>
<!-- unexpandableNodes -->
<g id="node11" class="node">
<title>unexpandableNodes</title>
<polygon fill="none" stroke="black" points="980.8,-316.11 980.8,-352.11 1034.8,-352.11 1034.8,-316.11 980.8,-316.11"/>
<text text-anchor="middle" x="1007.68" y="-328.68" font-family="Times New Roman,serif" font-size="14.00"> </text>
</g>
<!-- unmatchableLeafNodes -->
<g id="node12" class="node">
<title>unmatchableLeafNodes</title>
<polygon fill="none" stroke="black" points="1080.8,-316.11 1080.8,-352.11 1134.8,-352.11 1134.8,-316.11 1080.8,-316.11"/>
<text text-anchor="middle" x="1107.68" y="-328.68" font-family="Times New Roman,serif" font-size="14.00"> </text>
</g>
<!-- unmatchableMidProductionNodes -->
<g id="node13" class="node">
<title>unmatchableMidProductionNodes</title>
<polygon fill="none" stroke="black" points="1202.8,-316.11 1202.8,-352.11 1256.8,-352.11 1256.8,-316.11 1202.8,-316.11"/>
<text text-anchor="middle" x="1229.68" y="-328.68" font-family="Times New Roman,serif" font-size="14.00"> </text>
</g>
<!-- filteredNodes -->
<g id="node14" class="node">
<title>filteredNodes</title>
<polygon fill="none" stroke="black" points="1351.8,-316.11 1351.8,-352.11 1405.8,-352.11 1405.8,-316.11 1351.8,-316.11"/>
<text text-anchor="middle" x="1378.68" y="-328.68" font-family="Times New Roman,serif" font-size="14.00"> </text>
</g>
<!-- error&#45;&gt;unexpandableNodes -->
<g id="edge11" class="edge">
<title>error&#45;&gt;unexpandableNodes</title>
<path fill="none" stroke="black" d="M1135.68,-417.63C1097.9,-412.16 1039.3,-401.51 1023.3,-386.36 1016.99,-380.38 1013.23,-371.93 1010.98,-363.62"/>
<polygon fill="black" stroke="black" points="1014.47,-363.21 1009.08,-354.09 1007.61,-364.58 1014.47,-363.21"/>
<text text-anchor="middle" x="1062.05" y="-373.06" font-family="Times New Roman,serif" font-size="14.00">unexpandable</text>
</g>
<!-- error&#45;&gt;unmatchableLeafNodes -->
<g id="edge12" class="edge">
<title>error&#45;&gt;unmatchableLeafNodes</title>
<path fill="none" stroke="black" d="M1140.63,-412.36C1128.64,-406.77 1115.82,-398.38 1108.8,-386.36 1104.87,-379.62 1103.52,-371.49 1103.43,-363.71"/>
<polygon fill="black" stroke="black" points="1106.92,-364.09 1104.02,-353.9 1099.93,-363.67 1106.92,-364.09"/>
<text text-anchor="middle" x="1158.3" y="-373.06" font-family="Times New Roman,serif" font-size="14.00">unmatchable leafs</text>
</g>
<!-- error&#45;&gt;unmatchableMidProductionNodes -->
<g id="edge13" class="edge">
<title>error&#45;&gt;unmatchableMidProductionNodes</title>
<path fill="none" stroke="black" d="M1187.48,-407.72C1194.52,-401.71 1202.17,-394.26 1207.8,-386.36 1212.84,-379.28 1217.05,-370.87 1220.4,-362.93"/>
<polygon fill="black" stroke="black" points="1223.65,-364.21 1223.99,-353.62 1217.13,-361.68 1223.65,-364.21"/>
<text text-anchor="middle" x="1278.8" y="-373.06" font-family="Times New Roman,serif" font-size="14.00">unmatchable mid&#45;prod</text>
</g>
<!-- error&#45;&gt;filteredNodes -->
<g id="edge14" class="edge">
<title>error&#45;&gt;filteredNodes</title>
<path fill="none" stroke="black" d="M1203.11,-422.65C1241.15,-421.89 1302.82,-415.66 1345.8,-386.36 1354.48,-380.45 1361.38,-371.42 1366.59,-362.58"/>
<polygon fill="black" stroke="black" points="1369.64,-364.31 1371.22,-353.83 1363.45,-361.04 1369.64,-364.31"/>
<text text-anchor="middle" x="1379.93" y="-373.06" font-family="Times New Roman,serif" font-size="14.00">filtered</text>
</g>
</g>
</svg>
