<?xml version="1.0" encoding="UTF-8" standalone="no"?>
<!DOCTYPE svg PUBLIC "-//W3C//DTD SVG 1.1//EN"
 "http://www.w3.org/Graphics/SVG/1.1/DTD/svg11.dtd">
<!-- Generated by graphviz version 12.0.0 (20240704.0754)
 -->
<!-- Title: Parser Pages: 1 -->
<svg width="1436pt" height="602pt"
 viewBox="0.00 0.00 1435.80 601.52" xmlns="http://www.w3.org/2000/svg" xmlns:xlink="http://www.w3.org/1999/xlink">
<g id="graph0" class="graph" transform="scale(1 1) rotate(0) translate(4 597.52)">
<title>Parser</title>
<polygon fill="white" stroke="none" points="-4,4 -4,-597.52 1431.8,-597.52 1431.8,4 -4,4"/>
<!-- Parser -->
<g id="node1" class="node">
<title>Parser</title>
<ellipse fill="none" stroke="black" cx="907.8" cy="-543.31" rx="135.41" ry="50.2"/>
<text text-anchor="middle" x="907.8" y="-561.51" font-family="Times New Roman,serif" font-size="14.00">Parser</text>
<text text-anchor="middle" x="907.8" y="-545.76" font-family="Times New Roman,serif" font-size="14.00">Input: &quot;a b x $&quot;</text>
<text text-anchor="middle" x="907.8" y="-530.01" font-family="Times New Roman,serif" font-size="14.00">Location: 5 (&#39; &#39;)</text>
<text text-anchor="middle" x="907.8" y="-514.26" font-family="Times New Roman,serif" font-size="14.00">Step 36: Found stack to reduce</text>
</g>
<!-- todoLists -->
<g id="node7" class="node">
<title>todoLists</title>
<polygon fill="none" stroke="black" points="192.8,-404.86 192.8,-440.86 744.8,-440.86 744.8,-404.86 192.8,-404.86"/>
<text text-anchor="middle" x="204.18" y="-417.43" font-family="Times New Roman,serif" font-size="14.00">0</text>
<polyline fill="none" stroke="black" points="215.55,-404.86 215.55,-440.86"/>
<text text-anchor="middle" x="226.93" y="-417.43" font-family="Times New Roman,serif" font-size="14.00">1</text>
<polyline fill="none" stroke="black" points="238.3,-404.86 238.3,-440.86"/>
<text text-anchor="middle" x="249.68" y="-417.43" font-family="Times New Roman,serif" font-size="14.00">2</text>
<polyline fill="none" stroke="black" points="261.05,-404.86 261.05,-440.86"/>
<text text-anchor="middle" x="272.43" y="-417.43" font-family="Times New Roman,serif" font-size="14.00">3</text>
<polyline fill="none" stroke="black" points="283.8,-404.86 283.8,-440.86"/>
<text text-anchor="middle" x="295.18" y="-417.43" font-family="Times New Roman,serif" font-size="14.00">4</text>
<polyline fill="none" stroke="black" points="306.55,-404.86 306.55,-440.86"/>
<text text-anchor="middle" x="317.93" y="-417.43" font-family="Times New Roman,serif" font-size="14.00">5</text>
<polyline fill="none" stroke="black" points="329.3,-404.86 329.3,-440.86"/>
<text text-anchor="middle" x="340.68" y="-417.43" font-family="Times New Roman,serif" font-size="14.00">6</text>
<polyline fill="none" stroke="black" points="352.05,-404.86 352.05,-440.86"/>
<text text-anchor="middle" x="363.43" y="-417.43" font-family="Times New Roman,serif" font-size="14.00">7</text>
<polyline fill="none" stroke="black" points="374.8,-404.86 374.8,-440.86"/>
<text text-anchor="middle" x="386.18" y="-417.43" font-family="Times New Roman,serif" font-size="14.00">8</text>
<polyline fill="none" stroke="black" points="397.55,-404.86 397.55,-440.86"/>
<text text-anchor="middle" x="408.93" y="-417.43" font-family="Times New Roman,serif" font-size="14.00">9</text>
<polyline fill="none" stroke="black" points="420.3,-404.86 420.3,-440.86"/>
<text text-anchor="middle" x="435.05" y="-417.43" font-family="Times New Roman,serif" font-size="14.00">10</text>
<polyline fill="none" stroke="black" points="449.8,-404.86 449.8,-440.86"/>
<text text-anchor="middle" x="464.55" y="-417.43" font-family="Times New Roman,serif" font-size="14.00">11</text>
<polyline fill="none" stroke="black" points="479.3,-404.86 479.3,-440.86"/>
<text text-anchor="middle" x="494.05" y="-417.43" font-family="Times New Roman,serif" font-size="14.00">12</text>
<polyline fill="none" stroke="black" points="508.8,-404.86 508.8,-440.86"/>
<text text-anchor="middle" x="523.55" y="-417.43" font-family="Times New Roman,serif" font-size="14.00">13</text>
<polyline fill="none" stroke="black" points="538.3,-404.86 538.3,-440.86"/>
<text text-anchor="middle" x="553.05" y="-417.43" font-family="Times New Roman,serif" font-size="14.00">14</text>
<polyline fill="none" stroke="black" points="567.8,-404.86 567.8,-440.86"/>
<text text-anchor="middle" x="582.55" y="-417.43" font-family="Times New Roman,serif" font-size="14.00">15</text>
<polyline fill="none" stroke="black" points="597.3,-404.86 597.3,-440.86"/>
<text text-anchor="middle" x="612.05" y="-417.43" font-family="Times New Roman,serif" font-size="14.00">16</text>
<polyline fill="none" stroke="black" points="626.8,-404.86 626.8,-440.86"/>
<text text-anchor="middle" x="641.55" y="-417.43" font-family="Times New Roman,serif" font-size="14.00">17</text>
<polyline fill="none" stroke="black" points="656.3,-404.86 656.3,-440.86"/>
<text text-anchor="middle" x="671.05" y="-417.43" font-family="Times New Roman,serif" font-size="14.00">18</text>
<polyline fill="none" stroke="black" points="685.8,-404.86 685.8,-440.86"/>
<text text-anchor="middle" x="700.55" y="-417.43" font-family="Times New Roman,serif" font-size="14.00">19</text>
<polyline fill="none" stroke="black" points="715.3,-404.86 715.3,-440.86"/>
<text text-anchor="middle" x="730.05" y="-417.43" font-family="Times New Roman,serif" font-size="14.00">20</text>
</g>
<!-- Parser&#45;&gt;todoLists -->
<g id="edge6" class="edge">
<title>Parser&#45;&gt;todoLists</title>
<path fill="none" stroke="black" d="M799.01,-512.96C719.83,-491.59 614.62,-463.2 544.45,-444.27"/>
<polygon fill="black" stroke="black" points="545.53,-440.94 534.96,-441.71 543.71,-447.69 545.53,-440.94"/>
<text text-anchor="middle" x="675.68" y="-461.81" font-family="Times New Roman,serif" font-size="14.00">todo lists</text>
</g>
<!-- stacksToExpand -->
<g id="node8" class="node">
<title>stacksToExpand</title>
<polygon fill="none" stroke="black" points="762.8,-404.86 762.8,-440.86 816.8,-440.86 816.8,-404.86 762.8,-404.86"/>
<text text-anchor="middle" x="789.68" y="-417.43" font-family="Times New Roman,serif" font-size="14.00"> </text>
</g>
<!-- Parser&#45;&gt;stacksToExpand -->
<g id="edge7" class="edge">
<title>Parser&#45;&gt;stacksToExpand</title>
<path fill="none" stroke="black" d="M835.53,-500.81C825.86,-493.14 816.74,-484.54 809.3,-475.11 804.02,-468.4 800.04,-460.1 797.1,-452.15"/>
<polygon fill="black" stroke="black" points="800.48,-451.22 794.08,-442.78 793.82,-453.37 800.48,-451.22"/>
<text text-anchor="middle" x="857.05" y="-461.81" font-family="Times New Roman,serif" font-size="14.00">stacks to expand</text>
</g>
<!-- terminalsToReduce -->
<g id="node9" class="node">
<title>terminalsToReduce</title>
<polygon fill="none" stroke="black" points="880.8,-404.86 880.8,-440.86 934.8,-440.86 934.8,-404.86 880.8,-404.86"/>
<text text-anchor="middle" x="907.68" y="-417.43" font-family="Times New Roman,serif" font-size="14.00"> </text>
</g>
<!-- Parser&#45;&gt;terminalsToReduce -->
<g id="edge8" class="edge">
<title>Parser&#45;&gt;terminalsToReduce</title>
<path fill="none" stroke="black" d="M907.8,-492.76C907.8,-478.97 907.8,-464.47 907.8,-452.34"/>
<polygon fill="black" stroke="black" points="911.3,-452.63 907.8,-442.63 904.3,-452.63 911.3,-452.63"/>
<text text-anchor="middle" x="960.68" y="-461.81" font-family="Times New Roman,serif" font-size="14.00">terminals to reduce</text>
</g>
<!-- nonTerminalsToReduce -->
<g id="node10" class="node">
<title>nonTerminalsToReduce</title>
<polygon fill="none" stroke="black" points="1009.8,-404.86 1009.8,-440.86 1063.8,-440.86 1063.8,-404.86 1009.8,-404.86"/>
<text text-anchor="middle" x="1036.68" y="-417.43" font-family="Times New Roman,serif" font-size="14.00"> </text>
</g>
<!-- Parser&#45;&gt;nonTerminalsToReduce -->
<g id="edge9" class="edge">
<title>Parser&#45;&gt;nonTerminalsToReduce</title>
<path fill="none" stroke="black" d="M985.15,-501.84C996,-493.96 1006.32,-485.03 1014.8,-475.11 1020.6,-468.33 1025.08,-459.79 1028.43,-451.64"/>
<polygon fill="black" stroke="black" points="1031.67,-452.98 1031.81,-442.39 1025.09,-450.58 1031.67,-452.98"/>
<text text-anchor="middle" x="1090.43" y="-461.81" font-family="Times New Roman,serif" font-size="14.00">non&#45;terminals to reduce</text>
</g>
<!-- error -->
<g id="node15" class="node">
<title>error</title>
<ellipse fill="none" stroke="black" cx="1190.8" cy="-422.86" rx="34.1" ry="18"/>
<text text-anchor="middle" x="1190.8" y="-417.43" font-family="Times New Roman,serif" font-size="14.00">Errors</text>
</g>
<!-- Parser&#45;&gt;error -->
<g id="edge10" class="edge">
<title>Parser&#45;&gt;error</title>
<path fill="none" stroke="black" d="M1036.73,-527.55C1079.06,-517.83 1124.31,-501.74 1159.8,-475.11 1168.05,-468.92 1174.57,-459.83 1179.45,-451.02"/>
<polygon fill="black" stroke="black" points="1182.44,-452.86 1183.76,-442.35 1176.17,-449.75 1182.44,-452.86"/>
<text text-anchor="middle" x="1211.3" y="-461.81" font-family="Times New Roman,serif" font-size="14.00">error tracking</text>
</g>
<!-- todo&#45;1 -->
<g id="node2" class="node">
<title>todo&#45;1</title>
<polygon fill="none" stroke="red" points="200.8,-316.11 200.8,-352.11 254.8,-352.11 254.8,-316.11 200.8,-316.11"/>
<text text-anchor="middle" x="227.68" y="-328.68" font-family="Times New Roman,serif" font-size="14.00">0</text>
</g>
<!-- 92 -->
<g id="node3" class="node">
<title>92</title>
<ellipse fill="none" stroke="black" cx="124.8" cy="-224.79" rx="124.8" ry="39.07"/>
<text text-anchor="middle" x="124.8" y="-235.12" font-family="Times New Roman,serif" font-size="14.00">Char: </text>
<text text-anchor="middle" x="124.8" y="-219.37" font-family="Times New Roman,serif" font-size="14.00">.0@5</text>
<text text-anchor="middle" x="124.8" y="-203.62" font-family="Times New Roman,serif" font-size="14.00">in: &#39;Layout &#45;&gt; [range(32,32)]&#39;</text>
</g>
<!-- todo&#45;1&#45;&gt;92 -->
<g id="edge3" class="edge">
<title>todo&#45;1:sw&#45;&gt;92</title>
<path fill="none" stroke="black" d="M200.8,-315.61C187.17,-301.97 173.25,-286.18 161.12,-271.67"/>
<polygon fill="black" stroke="black" points="163.85,-269.48 154.78,-264.01 158.46,-273.94 163.85,-269.48"/>
<text text-anchor="middle" x="199.55" y="-284.31" font-family="Times New Roman,serif" font-size="14.00">Stack</text>
</g>
<!-- 858267892 -->
<g id="node6" class="node">
<title>858267892</title>
<polygon fill="none" stroke="black" points="390.42,-212.27 390.42,-237.31 354.32,-255.02 303.28,-255.02 267.19,-237.31 267.19,-212.27 303.28,-194.56 354.32,-194.56 390.42,-212.27"/>
<text text-anchor="middle" x="328.8" y="-227.24" font-family="Times New Roman,serif" font-size="14.00">Char</text>
<text text-anchor="middle" x="328.8" y="-211.49" font-family="Times New Roman,serif" font-size="14.00">char=32(&#39; &#39;)</text>
</g>
<!-- todo&#45;1&#45;&gt;858267892 -->
<g id="edge4" class="edge">
<title>todo&#45;1:se&#45;&gt;858267892</title>
<path fill="none" stroke="black" d="M254.55,-315.61C270.49,-299.67 286.61,-280.61 299.74,-264.14"/>
<polygon fill="black" stroke="black" points="302.33,-266.51 305.77,-256.49 296.83,-262.18 302.33,-266.51"/>
<text text-anchor="middle" x="300.18" y="-284.31" font-family="Times New Roman,serif" font-size="14.00">Node</text>
</g>
<!-- 36 -->
<g id="node4" class="node">
<title>36</title>
<ellipse fill="none" stroke="black" cx="124.8" cy="-120.79" rx="95.11" ry="27.93"/>
<text text-anchor="middle" x="124.8" y="-123.24" font-family="Times New Roman,serif" font-size="14.00">NonTerminal: Layout</text>
<text text-anchor="middle" x="124.8" y="-107.49" font-family="Times New Roman,serif" font-size="14.00">.1@5</text>
</g>
<!-- 92&#45;&gt;36 -->
<g id="edge2" class="edge">
<title>92&#45;&gt;36</title>
<path fill="none" stroke="black" d="M124.8,-185.23C124.8,-177.12 124.8,-168.56 124.8,-160.44"/>
<polygon fill="black" stroke="black" points="128.3,-160.49 124.8,-150.49 121.3,-160.49 128.3,-160.49"/>
</g>
<!-- &#45;1 -->
<g id="node5" class="node">
<title>&#45;1</title>
<ellipse fill="none" stroke="black" cx="124.8" cy="-27.93" rx="73.36" ry="27.93"/>
<text text-anchor="middle" x="124.8" y="-30.38" font-family="Times New Roman,serif" font-size="14.00">NonTerminal: S</text>
<text text-anchor="middle" x="124.8" y="-14.63" font-family="Times New Roman,serif" font-size="14.00">.0@&#45;1</text>
</g>
<!-- 36&#45;&gt;&#45;1 -->
<g id="edge1" class="edge">
<title>36&#45;&gt;&#45;1</title>
<path fill="none" stroke="black" d="M124.8,-92.53C124.8,-84.71 124.8,-76.04 124.8,-67.67"/>
<polygon fill="black" stroke="black" points="128.3,-67.69 124.8,-57.69 121.3,-67.69 128.3,-67.69"/>
</g>
<!-- todoLists&#45;&gt;todo&#45;1 -->
<g id="edge5" class="edge">
<title>todoLists:1&#45;&gt;todo&#45;1</title>
<path fill="none" stroke="black" d="M226.93,-404.36C226.93,-390.96 227.1,-376.11 227.28,-363.61"/>
<polygon fill="black" stroke="black" points="230.78,-364.04 227.44,-353.98 223.78,-363.92 230.78,-364.04"/>
</g>
<!-- unexpandableNodes -->
<g id="node11" class="node">
<title>unexpandableNodes</title>
<polygon fill="none" stroke="black" points="1002.8,-316.11 1002.8,-352.11 1056.8,-352.11 1056.8,-316.11 1002.8,-316.11"/>
<text text-anchor="middle" x="1029.68" y="-328.68" font-family="Times New Roman,serif" font-size="14.00"> </text>
</g>
<!-- unmatchableLeafNodes -->
<g id="node12" class="node">
<title>unmatchableLeafNodes</title>
<polygon fill="none" stroke="black" points="1102.8,-316.11 1102.8,-352.11 1156.8,-352.11 1156.8,-316.11 1102.8,-316.11"/>
<text text-anchor="middle" x="1129.68" y="-328.68" font-family="Times New Roman,serif" font-size="14.00"> </text>
</g>
<!-- unmatchableMidProductionNodes -->
<g id="node13" class="node">
<title>unmatchableMidProductionNodes</title>
<polygon fill="none" stroke="black" points="1224.8,-316.11 1224.8,-352.11 1278.8,-352.11 1278.8,-316.11 1224.8,-316.11"/>
<text text-anchor="middle" x="1251.68" y="-328.68" font-family="Times New Roman,serif" font-size="14.00"> </text>
</g>
<!-- filteredNodes -->
<g id="node14" class="node">
<title>filteredNodes</title>
<polygon fill="none" stroke="black" points="1373.8,-316.11 1373.8,-352.11 1427.8,-352.11 1427.8,-316.11 1373.8,-316.11"/>
<text text-anchor="middle" x="1400.68" y="-328.68" font-family="Times New Roman,serif" font-size="14.00"> </text>
</g>
<!-- error&#45;&gt;unexpandableNodes -->
<g id="edge11" class="edge">
<title>error&#45;&gt;unexpandableNodes</title>
<path fill="none" stroke="black" d="M1157.68,-417.63C1119.9,-412.16 1061.3,-401.51 1045.3,-386.36 1038.99,-380.38 1035.23,-371.93 1032.98,-363.62"/>
<polygon fill="black" stroke="black" points="1036.47,-363.21 1031.08,-354.09 1029.61,-364.58 1036.47,-363.21"/>
<text text-anchor="middle" x="1084.05" y="-373.06" font-family="Times New Roman,serif" font-size="14.00">unexpandable</text>
</g>
<!-- error&#45;&gt;unmatchableLeafNodes -->
<g id="edge12" class="edge">
<title>error&#45;&gt;unmatchableLeafNodes</title>
<path fill="none" stroke="black" d="M1162.63,-412.36C1150.64,-406.77 1137.82,-398.38 1130.8,-386.36 1126.87,-379.62 1125.52,-371.49 1125.43,-363.71"/>
<polygon fill="black" stroke="black" points="1128.92,-364.09 1126.02,-353.9 1121.93,-363.67 1128.92,-364.09"/>
<text text-anchor="middle" x="1180.3" y="-373.06" font-family="Times New Roman,serif" font-size="14.00">unmatchable leafs</text>
</g>
<!-- error&#45;&gt;unmatchableMidProductionNodes -->
<g id="edge13" class="edge">
<title>error&#45;&gt;unmatchableMidProductionNodes</title>
<path fill="none" stroke="black" d="M1209.48,-407.72C1216.52,-401.71 1224.17,-394.26 1229.8,-386.36 1234.84,-379.28 1239.05,-370.87 1242.4,-362.93"/>
<polygon fill="black" stroke="black" points="1245.65,-364.21 1245.99,-353.62 1239.13,-361.68 1245.65,-364.21"/>
<text text-anchor="middle" x="1300.8" y="-373.06" font-family="Times New Roman,serif" font-size="14.00">unmatchable mid&#45;prod</text>
</g>
<!-- error&#45;&gt;filteredNodes -->
<g id="edge14" class="edge">
<title>error&#45;&gt;filteredNodes</title>
<path fill="none" stroke="black" d="M1225.11,-422.65C1263.15,-421.89 1324.82,-415.66 1367.8,-386.36 1376.48,-380.45 1383.38,-371.42 1388.59,-362.58"/>
<polygon fill="black" stroke="black" points="1391.64,-364.31 1393.22,-353.83 1385.45,-361.04 1391.64,-364.31"/>
<text text-anchor="middle" x="1401.93" y="-373.06" font-family="Times New Roman,serif" font-size="14.00">filtered</text>
</g>
</g>
</svg>
