<?xml version="1.0" encoding="UTF-8" standalone="no"?>
<!DOCTYPE svg PUBLIC "-//W3C//DTD SVG 1.1//EN"
 "http://www.w3.org/Graphics/SVG/1.1/DTD/svg11.dtd">
<!-- Generated by graphviz version 12.0.0 (20240704.0754)
 -->
<!-- Title: Parser Pages: 1 -->
<svg width="1211pt" height="602pt"
 viewBox="0.00 0.00 1211.00 601.52" xmlns="http://www.w3.org/2000/svg" xmlns:xlink="http://www.w3.org/1999/xlink">
<g id="graph0" class="graph" transform="scale(1 1) rotate(0) translate(4 597.52)">
<title>Parser</title>
<polygon fill="white" stroke="none" points="-4,4 -4,-597.52 1207,-597.52 1207,4 -4,4"/>
<!-- Parser -->
<g id="node1" class="node">
<title>Parser</title>
<ellipse fill="none" stroke="black" cx="716" cy="-543.31" rx="121.62" ry="50.2"/>
<text text-anchor="middle" x="716" y="-561.51" font-family="Times New Roman,serif" font-size="14.00">Parser</text>
<text text-anchor="middle" x="716" y="-545.76" font-family="Times New Roman,serif" font-size="14.00">Input: &quot;a b x $&quot;</text>
<text text-anchor="middle" x="716" y="-530.01" font-family="Times New Roman,serif" font-size="14.00">Location: 6 (&#39;$&#39;)</text>
<text text-anchor="middle" x="716" y="-514.26" font-family="Times New Roman,serif" font-size="14.00">Step 37: Reducing terminals</text>
</g>
<!-- todoLists -->
<g id="node7" class="node">
<title>todoLists</title>
<polygon fill="none" stroke="black" points="0,-404.86 0,-440.86 552,-440.86 552,-404.86 0,-404.86"/>
<text text-anchor="middle" x="11.38" y="-417.43" font-family="Times New Roman,serif" font-size="14.00">0</text>
<polyline fill="none" stroke="black" points="22.75,-404.86 22.75,-440.86"/>
<text text-anchor="middle" x="34.12" y="-417.43" font-family="Times New Roman,serif" font-size="14.00">1</text>
<polyline fill="none" stroke="black" points="45.5,-404.86 45.5,-440.86"/>
<text text-anchor="middle" x="56.88" y="-417.43" font-family="Times New Roman,serif" font-size="14.00">2</text>
<polyline fill="none" stroke="black" points="68.25,-404.86 68.25,-440.86"/>
<text text-anchor="middle" x="79.62" y="-417.43" font-family="Times New Roman,serif" font-size="14.00">3</text>
<polyline fill="none" stroke="black" points="91,-404.86 91,-440.86"/>
<text text-anchor="middle" x="102.38" y="-417.43" font-family="Times New Roman,serif" font-size="14.00">4</text>
<polyline fill="none" stroke="black" points="113.75,-404.86 113.75,-440.86"/>
<text text-anchor="middle" x="125.12" y="-417.43" font-family="Times New Roman,serif" font-size="14.00">5</text>
<polyline fill="none" stroke="black" points="136.5,-404.86 136.5,-440.86"/>
<text text-anchor="middle" x="147.88" y="-417.43" font-family="Times New Roman,serif" font-size="14.00">6</text>
<polyline fill="none" stroke="black" points="159.25,-404.86 159.25,-440.86"/>
<text text-anchor="middle" x="170.62" y="-417.43" font-family="Times New Roman,serif" font-size="14.00">7</text>
<polyline fill="none" stroke="black" points="182,-404.86 182,-440.86"/>
<text text-anchor="middle" x="193.38" y="-417.43" font-family="Times New Roman,serif" font-size="14.00">8</text>
<polyline fill="none" stroke="black" points="204.75,-404.86 204.75,-440.86"/>
<text text-anchor="middle" x="216.12" y="-417.43" font-family="Times New Roman,serif" font-size="14.00">9</text>
<polyline fill="none" stroke="black" points="227.5,-404.86 227.5,-440.86"/>
<text text-anchor="middle" x="242.25" y="-417.43" font-family="Times New Roman,serif" font-size="14.00">10</text>
<polyline fill="none" stroke="black" points="257,-404.86 257,-440.86"/>
<text text-anchor="middle" x="271.75" y="-417.43" font-family="Times New Roman,serif" font-size="14.00">11</text>
<polyline fill="none" stroke="black" points="286.5,-404.86 286.5,-440.86"/>
<text text-anchor="middle" x="301.25" y="-417.43" font-family="Times New Roman,serif" font-size="14.00">12</text>
<polyline fill="none" stroke="black" points="316,-404.86 316,-440.86"/>
<text text-anchor="middle" x="330.75" y="-417.43" font-family="Times New Roman,serif" font-size="14.00">13</text>
<polyline fill="none" stroke="black" points="345.5,-404.86 345.5,-440.86"/>
<text text-anchor="middle" x="360.25" y="-417.43" font-family="Times New Roman,serif" font-size="14.00">14</text>
<polyline fill="none" stroke="black" points="375,-404.86 375,-440.86"/>
<text text-anchor="middle" x="389.75" y="-417.43" font-family="Times New Roman,serif" font-size="14.00">15</text>
<polyline fill="none" stroke="black" points="404.5,-404.86 404.5,-440.86"/>
<text text-anchor="middle" x="419.25" y="-417.43" font-family="Times New Roman,serif" font-size="14.00">16</text>
<polyline fill="none" stroke="black" points="434,-404.86 434,-440.86"/>
<text text-anchor="middle" x="448.75" y="-417.43" font-family="Times New Roman,serif" font-size="14.00">17</text>
<polyline fill="none" stroke="black" points="463.5,-404.86 463.5,-440.86"/>
<text text-anchor="middle" x="478.25" y="-417.43" font-family="Times New Roman,serif" font-size="14.00">18</text>
<polyline fill="none" stroke="black" points="493,-404.86 493,-440.86"/>
<text text-anchor="middle" x="507.75" y="-417.43" font-family="Times New Roman,serif" font-size="14.00">19</text>
<polyline fill="none" stroke="black" points="522.5,-404.86 522.5,-440.86"/>
<text text-anchor="middle" x="537.25" y="-417.43" font-family="Times New Roman,serif" font-size="14.00">20</text>
</g>
<!-- Parser&#45;&gt;todoLists -->
<g id="edge6" class="edge">
<title>Parser&#45;&gt;todoLists</title>
<path fill="none" stroke="black" d="M614.78,-515.06C534.65,-493.49 424.49,-463.83 351.82,-444.27"/>
<polygon fill="black" stroke="black" points="352.96,-440.95 342.4,-441.73 351.14,-447.71 352.96,-440.95"/>
<text text-anchor="middle" x="482.88" y="-461.81" font-family="Times New Roman,serif" font-size="14.00">todo lists</text>
</g>
<!-- stacksToExpand -->
<g id="node8" class="node">
<title>stacksToExpand</title>
<polygon fill="none" stroke="black" points="712,-404.86 712,-440.86 766,-440.86 766,-404.86 712,-404.86"/>
<text text-anchor="middle" x="738.88" y="-417.43" font-family="Times New Roman,serif" font-size="14.00"> </text>
</g>
<!-- Parser&#45;&gt;stacksToExpand -->
<g id="edge7" class="edge">
<title>Parser&#45;&gt;stacksToExpand</title>
<path fill="none" stroke="black" d="M712.66,-492.99C713.06,-481.76 714.42,-470.01 717.5,-459.36 718.31,-456.57 719.39,-453.78 720.64,-451.06"/>
<polygon fill="black" stroke="black" points="723.66,-452.84 725.38,-442.39 717.51,-449.49 723.66,-452.84"/>
<text text-anchor="middle" x="765.25" y="-461.81" font-family="Times New Roman,serif" font-size="14.00">stacks to expand</text>
</g>
<!-- terminalsToReduce -->
<g id="node9" class="node">
<title>terminalsToReduce</title>
<polygon fill="none" stroke="red" points="460,-316.11 460,-352.11 514,-352.11 514,-316.11 460,-316.11"/>
<text text-anchor="middle" x="486.88" y="-328.68" font-family="Times New Roman,serif" font-size="14.00">0</text>
</g>
<!-- Parser&#45;&gt;terminalsToReduce -->
<g id="edge10" class="edge">
<title>Parser&#45;&gt;terminalsToReduce</title>
<path fill="none" stroke="black" d="M661.9,-498.1C641.3,-480.8 617.84,-460.54 597.25,-441.36 580.41,-425.66 577.46,-420.45 561,-404.36 545.79,-389.49 528.44,-373.22 514.36,-360.19"/>
<polygon fill="black" stroke="black" points="516.9,-357.77 507.18,-353.56 512.16,-362.91 516.9,-357.77"/>
<text text-anchor="middle" x="650.88" y="-417.43" font-family="Times New Roman,serif" font-size="14.00">terminals to reduce</text>
</g>
<!-- nonTerminalsToReduce -->
<g id="node10" class="node">
<title>nonTerminalsToReduce</title>
<polygon fill="none" stroke="black" points="807,-404.86 807,-440.86 861,-440.86 861,-404.86 807,-404.86"/>
<text text-anchor="middle" x="833.88" y="-417.43" font-family="Times New Roman,serif" font-size="14.00"> </text>
</g>
<!-- Parser&#45;&gt;nonTerminalsToReduce -->
<g id="edge11" class="edge">
<title>Parser&#45;&gt;nonTerminalsToReduce</title>
<path fill="none" stroke="black" d="M784.62,-501.5C794.62,-493.59 804.17,-484.74 812,-475.11 817.54,-468.29 821.92,-459.87 825.26,-451.83"/>
<polygon fill="black" stroke="black" points="828.45,-453.31 828.66,-442.72 821.89,-450.87 828.45,-453.31"/>
<text text-anchor="middle" x="886.62" y="-461.81" font-family="Times New Roman,serif" font-size="14.00">non&#45;terminals to reduce</text>
</g>
<!-- error -->
<g id="node15" class="node">
<title>error</title>
<ellipse fill="none" stroke="black" cx="988" cy="-422.86" rx="34.1" ry="18"/>
<text text-anchor="middle" x="988" y="-417.43" font-family="Times New Roman,serif" font-size="14.00">Errors</text>
</g>
<!-- Parser&#45;&gt;error -->
<g id="edge12" class="edge">
<title>Parser&#45;&gt;error</title>
<path fill="none" stroke="black" d="M832.18,-527.69C874.29,-518 920.24,-501.89 956,-475.11 964.33,-468.87 971.01,-459.77 976.06,-450.97"/>
<polygon fill="black" stroke="black" points="979.06,-452.79 980.56,-442.3 972.85,-449.56 979.06,-452.79"/>
<text text-anchor="middle" x="1007.5" y="-461.81" font-family="Times New Roman,serif" font-size="14.00">error tracking</text>
</g>
<!-- todo&#45;1 -->
<g id="node2" class="node">
<title>todo&#45;1</title>
<polygon fill="none" stroke="black" points="309,-316.11 309,-352.11 363,-352.11 363,-316.11 309,-316.11"/>
<text text-anchor="middle" x="335.88" y="-328.68" font-family="Times New Roman,serif" font-size="14.00">0</text>
</g>
<!-- 92 -->
<g id="node3" class="node">
<title>92</title>
<ellipse fill="none" stroke="black" cx="309" cy="-224.79" rx="124.8" ry="39.07"/>
<text text-anchor="middle" x="309" y="-235.12" font-family="Times New Roman,serif" font-size="14.00">Char: </text>
<text text-anchor="middle" x="309" y="-219.37" font-family="Times New Roman,serif" font-size="14.00">.0@5</text>
<text text-anchor="middle" x="309" y="-203.62" font-family="Times New Roman,serif" font-size="14.00">in: &#39;Layout &#45;&gt; [range(32,32)]&#39;</text>
</g>
<!-- todo&#45;1&#45;&gt;92 -->
<g id="edge3" class="edge">
<title>todo&#45;1:sw&#45;&gt;92</title>
<path fill="none" stroke="black" d="M309,-315.61C298.54,-305.15 295.83,-290.12 296.57,-275.33"/>
<polygon fill="black" stroke="black" points="300.02,-275.97 297.57,-265.66 293.06,-275.25 300.02,-275.97"/>
<text text-anchor="middle" x="314.75" y="-284.31" font-family="Times New Roman,serif" font-size="14.00">Stack</text>
</g>
<!-- 858267892 -->
<g id="node6" class="node">
<title>858267892</title>
<polygon fill="none" stroke="black" points="574.61,-212.27 574.61,-237.31 538.52,-255.02 487.48,-255.02 451.39,-237.31 451.39,-212.27 487.48,-194.56 538.52,-194.56 574.61,-212.27"/>
<text text-anchor="middle" x="513" y="-227.24" font-family="Times New Roman,serif" font-size="14.00">Char</text>
<text text-anchor="middle" x="513" y="-211.49" font-family="Times New Roman,serif" font-size="14.00">char=32(&#39; &#39;)</text>
</g>
<!-- todo&#45;1&#45;&gt;858267892 -->
<g id="edge4" class="edge">
<title>todo&#45;1:se&#45;&gt;858267892</title>
<path fill="none" stroke="black" d="M362.75,-315.61C377.47,-300.88 377.86,-293.31 395.25,-281.86 414.19,-269.38 422.38,-273.3 443,-263.86 449.76,-260.76 456.77,-257.29 463.62,-253.73"/>
<polygon fill="black" stroke="black" points="464.97,-256.98 472.17,-249.21 461.69,-250.79 464.97,-256.98"/>
<text text-anchor="middle" x="411.38" y="-284.31" font-family="Times New Roman,serif" font-size="14.00">Node</text>
</g>
<!-- 36 -->
<g id="node4" class="node">
<title>36</title>
<ellipse fill="none" stroke="black" cx="309" cy="-120.79" rx="95.11" ry="27.93"/>
<text text-anchor="middle" x="309" y="-123.24" font-family="Times New Roman,serif" font-size="14.00">NonTerminal: Layout</text>
<text text-anchor="middle" x="309" y="-107.49" font-family="Times New Roman,serif" font-size="14.00">.1@5</text>
</g>
<!-- 92&#45;&gt;36 -->
<g id="edge2" class="edge">
<title>92&#45;&gt;36</title>
<path fill="none" stroke="black" d="M309,-185.23C309,-177.12 309,-168.56 309,-160.44"/>
<polygon fill="black" stroke="black" points="312.5,-160.49 309,-150.49 305.5,-160.49 312.5,-160.49"/>
</g>
<!-- &#45;1 -->
<g id="node5" class="node">
<title>&#45;1</title>
<ellipse fill="none" stroke="black" cx="309" cy="-27.93" rx="73.36" ry="27.93"/>
<text text-anchor="middle" x="309" y="-30.38" font-family="Times New Roman,serif" font-size="14.00">NonTerminal: S</text>
<text text-anchor="middle" x="309" y="-14.63" font-family="Times New Roman,serif" font-size="14.00">.0@&#45;1</text>
</g>
<!-- 36&#45;&gt;&#45;1 -->
<g id="edge1" class="edge">
<title>36&#45;&gt;&#45;1</title>
<path fill="none" stroke="black" d="M309,-92.53C309,-84.71 309,-76.04 309,-67.67"/>
<polygon fill="black" stroke="black" points="312.5,-67.69 309,-57.69 305.5,-67.69 312.5,-67.69"/>
</g>
<!-- todoLists&#45;&gt;todo&#45;1 -->
<g id="edge5" class="edge">
<title>todoLists:1&#45;&gt;todo&#45;1</title>
<path fill="none" stroke="black" d="M34.12,-404.36C34.12,-350.99 215.66,-338.75 297.18,-335.94"/>
<polygon fill="black" stroke="black" points="297.28,-339.44 307.17,-335.63 297.06,-332.44 297.28,-339.44"/>
</g>
<!-- terminalsToReduce&#45;&gt;92 -->
<g id="edge8" class="edge">
<title>terminalsToReduce:sw&#45;&gt;92</title>
<path fill="none" stroke="black" d="M460,-315.61C444.94,-300.55 443.4,-294.13 426,-281.86 415.75,-274.63 404.42,-267.89 392.97,-261.77"/>
<polygon fill="black" stroke="black" points="394.74,-258.75 384.25,-257.26 391.52,-264.96 394.74,-258.75"/>
<text text-anchor="middle" x="459.75" y="-284.31" font-family="Times New Roman,serif" font-size="14.00">Stack</text>
</g>
<!-- terminalsToReduce&#45;&gt;858267892 -->
<g id="edge9" class="edge">
<title>terminalsToReduce:se&#45;&gt;858267892</title>
<path fill="none" stroke="black" d="M513.75,-315.61C526.32,-303.04 527.55,-283.84 525.04,-266.42"/>
<polygon fill="black" stroke="black" points="528.52,-265.98 523.21,-256.81 521.64,-267.28 528.52,-265.98"/>
<text text-anchor="middle" x="542.38" y="-284.31" font-family="Times New Roman,serif" font-size="14.00">Node</text>
</g>
<!-- unexpandableNodes -->
<g id="node11" class="node">
<title>unexpandableNodes</title>
<polygon fill="none" stroke="black" points="997,-316.11 997,-352.11 1051,-352.11 1051,-316.11 997,-316.11"/>
<text text-anchor="middle" x="1023.88" y="-328.68" font-family="Times New Roman,serif" font-size="14.00"> </text>
</g>
<!-- unmatchableLeafNodes -->
<g id="node12" class="node">
<title>unmatchableLeafNodes</title>
<polygon fill="none" stroke="black" points="1094,-316.11 1094,-352.11 1148,-352.11 1148,-316.11 1094,-316.11"/>
<text text-anchor="middle" x="1120.88" y="-328.68" font-family="Times New Roman,serif" font-size="14.00"> </text>
</g>
<!-- unmatchableMidProductionNodes -->
<g id="node13" class="node">
<title>unmatchableMidProductionNodes</title>
<polygon fill="none" stroke="black" points="779,-316.11 779,-352.11 833,-352.11 833,-316.11 779,-316.11"/>
<text text-anchor="middle" x="805.88" y="-328.68" font-family="Times New Roman,serif" font-size="14.00"> </text>
</g>
<!-- filteredNodes -->
<g id="node14" class="node">
<title>filteredNodes</title>
<polygon fill="none" stroke="black" points="925,-316.11 925,-352.11 979,-352.11 979,-316.11 925,-316.11"/>
<text text-anchor="middle" x="951.88" y="-328.68" font-family="Times New Roman,serif" font-size="14.00"> </text>
</g>
<!-- error&#45;&gt;unexpandableNodes -->
<g id="edge13" class="edge">
<title>error&#45;&gt;unexpandableNodes</title>
<path fill="none" stroke="black" d="M994.94,-405.13C999.91,-393.17 1006.71,-376.78 1012.48,-362.87"/>
<polygon fill="black" stroke="black" points="1015.65,-364.35 1016.25,-353.77 1009.19,-361.67 1015.65,-364.35"/>
<text text-anchor="middle" x="1047.25" y="-373.06" font-family="Times New Roman,serif" font-size="14.00">unexpandable</text>
</g>
<!-- error&#45;&gt;unmatchableLeafNodes -->
<g id="edge14" class="edge">
<title>error&#45;&gt;unmatchableLeafNodes</title>
<path fill="none" stroke="black" d="M1020.22,-416.57C1041.82,-411.69 1069.89,-402.65 1090,-386.36 1097.81,-380.03 1104.15,-371.17 1109,-362.6"/>
<polygon fill="black" stroke="black" points="1112.06,-364.31 1113.5,-353.81 1105.83,-361.12 1112.06,-364.31"/>
<text text-anchor="middle" x="1153.5" y="-373.06" font-family="Times New Roman,serif" font-size="14.00">unmatchable leafs</text>
</g>
<!-- error&#45;&gt;unmatchableMidProductionNodes -->
<g id="edge15" class="edge">
<title>error&#45;&gt;unmatchableMidProductionNodes</title>
<path fill="none" stroke="black" d="M954.76,-418.39C912.88,-413.4 844.08,-402.93 825,-386.36 818.13,-380.39 813.73,-371.69 810.93,-363.15"/>
<polygon fill="black" stroke="black" points="814.38,-362.52 808.47,-353.73 807.61,-364.29 814.38,-362.52"/>
<text text-anchor="middle" x="888" y="-373.06" font-family="Times New Roman,serif" font-size="14.00">unmatchable mid&#45;prod</text>
</g>
<!-- error&#45;&gt;filteredNodes -->
<g id="edge16" class="edge">
<title>error&#45;&gt;filteredNodes</title>
<path fill="none" stroke="black" d="M972.82,-406.42C967.9,-400.57 962.9,-393.58 959.75,-386.36 956.68,-379.32 954.8,-371.28 953.65,-363.69"/>
<polygon fill="black" stroke="black" points="957.14,-363.4 952.55,-353.84 950.18,-364.17 957.14,-363.4"/>
<text text-anchor="middle" x="978.12" y="-373.06" font-family="Times New Roman,serif" font-size="14.00">filtered</text>
</g>
</g>
</svg>
