<?xml version="1.0" encoding="UTF-8" standalone="no"?>
<!DOCTYPE svg PUBLIC "-//W3C//DTD SVG 1.1//EN"
 "http://www.w3.org/Graphics/SVG/1.1/DTD/svg11.dtd">
<!-- Generated by graphviz version 12.0.0 (20240704.0754)
 -->
<!-- Title: Parser Pages: 1 -->
<svg width="1414pt" height="402pt"
 viewBox="0.00 0.00 1414.00 402.23" xmlns="http://www.w3.org/2000/svg" xmlns:xlink="http://www.w3.org/1999/xlink">
<g id="graph0" class="graph" transform="scale(1 1) rotate(0) translate(4 398.23)">
<title>Parser</title>
<polygon fill="white" stroke="none" points="-4,4 -4,-398.23 1410,-398.23 1410,4 -4,4"/>
<!-- Parser -->
<g id="node1" class="node">
<title>Parser</title>
<ellipse fill="none" stroke="black" cx="715" cy="-344.03" rx="139.65" ry="50.2"/>
<text text-anchor="middle" x="715" y="-362.23" font-family="Times New Roman,serif" font-size="14.00">Parser</text>
<text text-anchor="middle" x="715" y="-346.48" font-family="Times New Roman,serif" font-size="14.00">Input: &quot;a b x $&quot;</text>
<text text-anchor="middle" x="715" y="-330.73" font-family="Times New Roman,serif" font-size="14.00">Location: 6 (&#39;$&#39;)</text>
<text text-anchor="middle" x="715" y="-314.98" font-family="Times New Roman,serif" font-size="14.00">Step 38: Reducing non&#45;terminals</text>
</g>
<!-- todoLists -->
<g id="node2" class="node">
<title>todoLists</title>
<polygon fill="none" stroke="black" points="0,-205.58 0,-241.58 552,-241.58 552,-205.58 0,-205.58"/>
<text text-anchor="middle" x="11.38" y="-218.15" font-family="Times New Roman,serif" font-size="14.00">0</text>
<polyline fill="none" stroke="black" points="22.75,-205.58 22.75,-241.58"/>
<text text-anchor="middle" x="34.12" y="-218.15" font-family="Times New Roman,serif" font-size="14.00">1</text>
<polyline fill="none" stroke="black" points="45.5,-205.58 45.5,-241.58"/>
<text text-anchor="middle" x="56.88" y="-218.15" font-family="Times New Roman,serif" font-size="14.00">2</text>
<polyline fill="none" stroke="black" points="68.25,-205.58 68.25,-241.58"/>
<text text-anchor="middle" x="79.62" y="-218.15" font-family="Times New Roman,serif" font-size="14.00">3</text>
<polyline fill="none" stroke="black" points="91,-205.58 91,-241.58"/>
<text text-anchor="middle" x="102.38" y="-218.15" font-family="Times New Roman,serif" font-size="14.00">4</text>
<polyline fill="none" stroke="black" points="113.75,-205.58 113.75,-241.58"/>
<text text-anchor="middle" x="125.12" y="-218.15" font-family="Times New Roman,serif" font-size="14.00">5</text>
<polyline fill="none" stroke="black" points="136.5,-205.58 136.5,-241.58"/>
<text text-anchor="middle" x="147.88" y="-218.15" font-family="Times New Roman,serif" font-size="14.00">6</text>
<polyline fill="none" stroke="black" points="159.25,-205.58 159.25,-241.58"/>
<text text-anchor="middle" x="170.62" y="-218.15" font-family="Times New Roman,serif" font-size="14.00">7</text>
<polyline fill="none" stroke="black" points="182,-205.58 182,-241.58"/>
<text text-anchor="middle" x="193.38" y="-218.15" font-family="Times New Roman,serif" font-size="14.00">8</text>
<polyline fill="none" stroke="black" points="204.75,-205.58 204.75,-241.58"/>
<text text-anchor="middle" x="216.12" y="-218.15" font-family="Times New Roman,serif" font-size="14.00">9</text>
<polyline fill="none" stroke="black" points="227.5,-205.58 227.5,-241.58"/>
<text text-anchor="middle" x="242.25" y="-218.15" font-family="Times New Roman,serif" font-size="14.00">10</text>
<polyline fill="none" stroke="black" points="257,-205.58 257,-241.58"/>
<text text-anchor="middle" x="271.75" y="-218.15" font-family="Times New Roman,serif" font-size="14.00">11</text>
<polyline fill="none" stroke="black" points="286.5,-205.58 286.5,-241.58"/>
<text text-anchor="middle" x="301.25" y="-218.15" font-family="Times New Roman,serif" font-size="14.00">12</text>
<polyline fill="none" stroke="black" points="316,-205.58 316,-241.58"/>
<text text-anchor="middle" x="330.75" y="-218.15" font-family="Times New Roman,serif" font-size="14.00">13</text>
<polyline fill="none" stroke="black" points="345.5,-205.58 345.5,-241.58"/>
<text text-anchor="middle" x="360.25" y="-218.15" font-family="Times New Roman,serif" font-size="14.00">14</text>
<polyline fill="none" stroke="black" points="375,-205.58 375,-241.58"/>
<text text-anchor="middle" x="389.75" y="-218.15" font-family="Times New Roman,serif" font-size="14.00">15</text>
<polyline fill="none" stroke="black" points="404.5,-205.58 404.5,-241.58"/>
<text text-anchor="middle" x="419.25" y="-218.15" font-family="Times New Roman,serif" font-size="14.00">16</text>
<polyline fill="none" stroke="black" points="434,-205.58 434,-241.58"/>
<text text-anchor="middle" x="448.75" y="-218.15" font-family="Times New Roman,serif" font-size="14.00">17</text>
<polyline fill="none" stroke="black" points="463.5,-205.58 463.5,-241.58"/>
<text text-anchor="middle" x="478.25" y="-218.15" font-family="Times New Roman,serif" font-size="14.00">18</text>
<polyline fill="none" stroke="black" points="493,-205.58 493,-241.58"/>
<text text-anchor="middle" x="507.75" y="-218.15" font-family="Times New Roman,serif" font-size="14.00">19</text>
<polyline fill="none" stroke="black" points="522.5,-205.58 522.5,-241.58"/>
<text text-anchor="middle" x="537.25" y="-218.15" font-family="Times New Roman,serif" font-size="14.00">20</text>
</g>
<!-- Parser&#45;&gt;todoLists -->
<g id="edge1" class="edge">
<title>Parser&#45;&gt;todoLists</title>
<path fill="none" stroke="black" d="M604.22,-313.14C525.26,-291.83 421.18,-263.75 351.6,-244.97"/>
<polygon fill="black" stroke="black" points="352.77,-241.66 342.2,-242.44 350.94,-248.42 352.77,-241.66"/>
<text text-anchor="middle" x="482.88" y="-262.53" font-family="Times New Roman,serif" font-size="14.00">todo lists</text>
</g>
<!-- stacksToExpand -->
<g id="node3" class="node">
<title>stacksToExpand</title>
<polygon fill="none" stroke="black" points="570,-205.58 570,-241.58 624,-241.58 624,-205.58 570,-205.58"/>
<text text-anchor="middle" x="596.88" y="-218.15" font-family="Times New Roman,serif" font-size="14.00"> </text>
</g>
<!-- Parser&#45;&gt;stacksToExpand -->
<g id="edge2" class="edge">
<title>Parser&#45;&gt;stacksToExpand</title>
<path fill="none" stroke="black" d="M642.22,-301.13C632.74,-293.56 623.81,-285.09 616.5,-275.83 611.21,-269.12 607.23,-260.82 604.3,-252.87"/>
<polygon fill="black" stroke="black" points="607.68,-251.94 601.28,-243.5 601.02,-254.09 607.68,-251.94"/>
<text text-anchor="middle" x="664.25" y="-262.53" font-family="Times New Roman,serif" font-size="14.00">stacks to expand</text>
</g>
<!-- terminalsToReduce -->
<g id="node4" class="node">
<title>terminalsToReduce</title>
<polygon fill="none" stroke="black" points="688,-205.58 688,-241.58 742,-241.58 742,-205.58 688,-205.58"/>
<text text-anchor="middle" x="714.88" y="-218.15" font-family="Times New Roman,serif" font-size="14.00"> </text>
</g>
<!-- Parser&#45;&gt;terminalsToReduce -->
<g id="edge3" class="edge">
<title>Parser&#45;&gt;terminalsToReduce</title>
<path fill="none" stroke="black" d="M715,-293.48C715,-279.69 715,-265.18 715,-253.06"/>
<polygon fill="black" stroke="black" points="718.5,-253.35 715,-243.35 711.5,-253.35 718.5,-253.35"/>
<text text-anchor="middle" x="767.88" y="-262.53" font-family="Times New Roman,serif" font-size="14.00">terminals to reduce</text>
</g>
<!-- nonTerminalsToReduce -->
<g id="node5" class="node">
<title>nonTerminalsToReduce</title>
<polygon fill="none" stroke="red" points="788,-205.58 788,-241.58 842,-241.58 842,-205.58 788,-205.58"/>
<text text-anchor="middle" x="814.88" y="-218.15" font-family="Times New Roman,serif" font-size="14.00">0</text>
</g>
<!-- Parser&#45;&gt;nonTerminalsToReduce -->
<g id="edge7" class="edge">
<title>Parser&#45;&gt;nonTerminalsToReduce</title>
<path fill="none" stroke="black" d="M798.51,-303.33C807.9,-295.51 816.16,-286.38 822,-275.83 825.85,-268.86 826.2,-260.56 825,-252.7"/>
<polygon fill="black" stroke="black" points="828.45,-252.08 822.72,-243.17 821.64,-253.71 828.45,-252.08"/>
<text text-anchor="middle" x="891.62" y="-262.53" font-family="Times New Roman,serif" font-size="14.00">non&#45;terminals to reduce</text>
</g>
<!-- error -->
<g id="node13" class="node">
<title>error</title>
<ellipse fill="none" stroke="black" cx="1108" cy="-223.58" rx="34.1" ry="18"/>
<text text-anchor="middle" x="1108" y="-218.15" font-family="Times New Roman,serif" font-size="14.00">Errors</text>
</g>
<!-- Parser&#45;&gt;error -->
<g id="edge8" class="edge">
<title>Parser&#45;&gt;error</title>
<path fill="none" stroke="black" d="M827.52,-314.03C869.59,-302.74 917.66,-289.28 961,-275.83 998.31,-264.24 1040.35,-249.4 1069.88,-238.67"/>
<polygon fill="black" stroke="black" points="1070.94,-242.01 1079.13,-235.3 1068.54,-235.44 1070.94,-242.01"/>
<text text-anchor="middle" x="1042.5" y="-262.53" font-family="Times New Roman,serif" font-size="14.00">error tracking</text>
</g>
<!-- 36 -->
<g id="node6" class="node">
<title>36</title>
<ellipse fill="none" stroke="black" cx="605" cy="-123.09" rx="95.11" ry="27.93"/>
<text text-anchor="middle" x="605" y="-125.54" font-family="Times New Roman,serif" font-size="14.00">NonTerminal: Layout</text>
<text text-anchor="middle" x="605" y="-109.79" font-family="Times New Roman,serif" font-size="14.00">.1@5</text>
</g>
<!-- nonTerminalsToReduce&#45;&gt;36 -->
<g id="edge5" class="edge">
<title>nonTerminalsToReduce:sw&#45;&gt;36</title>
<path fill="none" stroke="black" d="M788,-205.08C760.28,-177.36 721.45,-158.34 686.68,-145.74"/>
<polygon fill="black" stroke="black" points="688.07,-142.52 677.47,-142.53 685.76,-149.13 688.07,-142.52"/>
<text text-anchor="middle" x="779.75" y="-173.78" font-family="Times New Roman,serif" font-size="14.00">Stack</text>
</g>
<!-- 762708774 -->
<g id="node8" class="node">
<title>762708774</title>
<polygon fill="none" stroke="black" points="963.46,-110.57 963.46,-135.62 891.72,-153.33 790.28,-153.33 718.54,-135.62 718.54,-110.57 790.28,-92.86 891.72,-92.86 963.46,-110.57"/>
<text text-anchor="middle" x="841" y="-125.54" font-family="Times New Roman,serif" font-size="14.00">SortContainer 5&#45;6</text>
<text text-anchor="middle" x="841" y="-109.79" font-family="Times New Roman,serif" font-size="14.00">&#39;Layout &#45;&gt; [range(32,32)]&#39;</text>
</g>
<!-- nonTerminalsToReduce&#45;&gt;762708774 -->
<g id="edge6" class="edge">
<title>nonTerminalsToReduce:se&#45;&gt;762708774</title>
<path fill="none" stroke="black" d="M841.75,-205.08C852.21,-194.62 853.94,-179.08 852.36,-164.41"/>
<polygon fill="black" stroke="black" points="855.88,-164.26 850.84,-154.94 848.97,-165.37 855.88,-164.26"/>
<text text-anchor="middle" x="868.38" y="-173.78" font-family="Times New Roman,serif" font-size="14.00">Node</text>
</g>
<!-- &#45;1 -->
<g id="node7" class="node">
<title>&#45;1</title>
<ellipse fill="none" stroke="black" cx="605" cy="-27.93" rx="73.36" ry="27.93"/>
<text text-anchor="middle" x="605" y="-30.38" font-family="Times New Roman,serif" font-size="14.00">NonTerminal: S</text>
<text text-anchor="middle" x="605" y="-14.63" font-family="Times New Roman,serif" font-size="14.00">.0@&#45;1</text>
</g>
<!-- 36&#45;&gt;&#45;1 -->
<g id="edge4" class="edge">
<title>36&#45;&gt;&#45;1</title>
<path fill="none" stroke="black" d="M605,-95.15C605,-86.53 605,-76.82 605,-67.54"/>
<polygon fill="black" stroke="black" points="608.5,-67.65 605,-57.65 601.5,-67.65 608.5,-67.65"/>
</g>
<!-- unexpandableNodes -->
<g id="node9" class="node">
<title>unexpandableNodes</title>
<polygon fill="none" stroke="black" points="981,-105.09 981,-141.09 1035,-141.09 1035,-105.09 981,-105.09"/>
<text text-anchor="middle" x="1007.88" y="-117.67" font-family="Times New Roman,serif" font-size="14.00"> </text>
</g>
<!-- unmatchableLeafNodes -->
<g id="node10" class="node">
<title>unmatchableLeafNodes</title>
<polygon fill="none" stroke="black" points="1081,-105.09 1081,-141.09 1135,-141.09 1135,-105.09 1081,-105.09"/>
<text text-anchor="middle" x="1107.88" y="-117.67" font-family="Times New Roman,serif" font-size="14.00"> </text>
</g>
<!-- unmatchableMidProductionNodes -->
<g id="node11" class="node">
<title>unmatchableMidProductionNodes</title>
<polygon fill="none" stroke="black" points="1203,-105.09 1203,-141.09 1257,-141.09 1257,-105.09 1203,-105.09"/>
<text text-anchor="middle" x="1229.88" y="-117.67" font-family="Times New Roman,serif" font-size="14.00"> </text>
</g>
<!-- filteredNodes -->
<g id="node12" class="node">
<title>filteredNodes</title>
<polygon fill="none" stroke="black" points="1352,-105.09 1352,-141.09 1406,-141.09 1406,-105.09 1352,-105.09"/>
<text text-anchor="middle" x="1378.88" y="-117.67" font-family="Times New Roman,serif" font-size="14.00"> </text>
</g>
<!-- error&#45;&gt;unexpandableNodes -->
<g id="edge9" class="edge">
<title>error&#45;&gt;unexpandableNodes</title>
<path fill="none" stroke="black" d="M1077.11,-215.65C1060.32,-210.41 1040.41,-201.56 1027.5,-187.08 1019.05,-177.59 1014.26,-164.49 1011.55,-152.69"/>
<polygon fill="black" stroke="black" points="1015.01,-152.19 1009.74,-143 1008.13,-153.47 1015.01,-152.19"/>
<text text-anchor="middle" x="1065.25" y="-173.78" font-family="Times New Roman,serif" font-size="14.00">unexpandable</text>
</g>
<!-- error&#45;&gt;unmatchableLeafNodes -->
<g id="edge10" class="edge">
<title>error&#45;&gt;unmatchableLeafNodes</title>
<path fill="none" stroke="black" d="M1108,-205.42C1108,-190.82 1108,-169.56 1108,-152.44"/>
<polygon fill="black" stroke="black" points="1111.5,-152.9 1108,-142.9 1104.5,-152.9 1111.5,-152.9"/>
<text text-anchor="middle" x="1157.5" y="-173.78" font-family="Times New Roman,serif" font-size="14.00">unmatchable leafs</text>
</g>
<!-- error&#45;&gt;unmatchableMidProductionNodes -->
<g id="edge11" class="edge">
<title>error&#45;&gt;unmatchableMidProductionNodes</title>
<path fill="none" stroke="black" d="M1140.72,-218.39C1162.41,-214.01 1190.07,-205.1 1208,-187.08 1217.22,-177.8 1222.59,-164.46 1225.71,-152.44"/>
<polygon fill="black" stroke="black" points="1229.06,-153.48 1227.74,-142.97 1222.22,-152.01 1229.06,-153.48"/>
<text text-anchor="middle" x="1281" y="-173.78" font-family="Times New Roman,serif" font-size="14.00">unmatchable mid&#45;prod</text>
</g>
<!-- error&#45;&gt;filteredNodes -->
<g id="edge12" class="edge">
<title>error&#45;&gt;filteredNodes</title>
<path fill="none" stroke="black" d="M1142.1,-221.37C1200.35,-218.7 1315.84,-210.53 1348,-187.08 1359.58,-178.63 1367.06,-164.66 1371.76,-152.02"/>
<polygon fill="black" stroke="black" points="1374.98,-153.46 1374.75,-142.87 1368.32,-151.29 1374.98,-153.46"/>
<text text-anchor="middle" x="1380.12" y="-173.78" font-family="Times New Roman,serif" font-size="14.00">filtered</text>
</g>
</g>
</svg>
