<?xml version="1.0" encoding="UTF-8" standalone="no"?>
<!DOCTYPE svg PUBLIC "-//W3C//DTD SVG 1.1//EN"
 "http://www.w3.org/Graphics/SVG/1.1/DTD/svg11.dtd">
<!-- Generated by graphviz version 12.0.0 (20240704.0754)
 -->
<!-- Title: Parser Pages: 1 -->
<svg width="1211pt" height="420pt"
 viewBox="0.00 0.00 1211.00 419.91" xmlns="http://www.w3.org/2000/svg" xmlns:xlink="http://www.w3.org/1999/xlink">
<g id="graph0" class="graph" transform="scale(1 1) rotate(0) translate(4 415.91)">
<title>Parser</title>
<polygon fill="white" stroke="none" points="-4,4 -4,-415.91 1207,-415.91 1207,4 -4,4"/>
<!-- Parser -->
<g id="node1" class="node">
<title>Parser</title>
<ellipse fill="none" stroke="black" cx="692" cy="-361.7" rx="88.21" ry="50.2"/>
<text text-anchor="middle" x="692" y="-379.9" font-family="Times New Roman,serif" font-size="14.00">Parser</text>
<text text-anchor="middle" x="692" y="-364.15" font-family="Times New Roman,serif" font-size="14.00">Input: &quot;a b x $&quot;</text>
<text text-anchor="middle" x="692" y="-348.4" font-family="Times New Roman,serif" font-size="14.00">Location: 6 (&#39;$&#39;)</text>
<text text-anchor="middle" x="692" y="-332.65" font-family="Times New Roman,serif" font-size="14.00">Step 39: Expanding</text>
</g>
<!-- todoLists -->
<g id="node2" class="node">
<title>todoLists</title>
<polygon fill="none" stroke="black" points="0,-223.25 0,-259.25 552,-259.25 552,-223.25 0,-223.25"/>
<text text-anchor="middle" x="11.38" y="-235.82" font-family="Times New Roman,serif" font-size="14.00">0</text>
<polyline fill="none" stroke="black" points="22.75,-223.25 22.75,-259.25"/>
<text text-anchor="middle" x="34.12" y="-235.82" font-family="Times New Roman,serif" font-size="14.00">1</text>
<polyline fill="none" stroke="black" points="45.5,-223.25 45.5,-259.25"/>
<text text-anchor="middle" x="56.88" y="-235.82" font-family="Times New Roman,serif" font-size="14.00">2</text>
<polyline fill="none" stroke="black" points="68.25,-223.25 68.25,-259.25"/>
<text text-anchor="middle" x="79.62" y="-235.82" font-family="Times New Roman,serif" font-size="14.00">3</text>
<polyline fill="none" stroke="black" points="91,-223.25 91,-259.25"/>
<text text-anchor="middle" x="102.38" y="-235.82" font-family="Times New Roman,serif" font-size="14.00">4</text>
<polyline fill="none" stroke="black" points="113.75,-223.25 113.75,-259.25"/>
<text text-anchor="middle" x="125.12" y="-235.82" font-family="Times New Roman,serif" font-size="14.00">5</text>
<polyline fill="none" stroke="black" points="136.5,-223.25 136.5,-259.25"/>
<text text-anchor="middle" x="147.88" y="-235.82" font-family="Times New Roman,serif" font-size="14.00">6</text>
<polyline fill="none" stroke="black" points="159.25,-223.25 159.25,-259.25"/>
<text text-anchor="middle" x="170.62" y="-235.82" font-family="Times New Roman,serif" font-size="14.00">7</text>
<polyline fill="none" stroke="black" points="182,-223.25 182,-259.25"/>
<text text-anchor="middle" x="193.38" y="-235.82" font-family="Times New Roman,serif" font-size="14.00">8</text>
<polyline fill="none" stroke="black" points="204.75,-223.25 204.75,-259.25"/>
<text text-anchor="middle" x="216.12" y="-235.82" font-family="Times New Roman,serif" font-size="14.00">9</text>
<polyline fill="none" stroke="black" points="227.5,-223.25 227.5,-259.25"/>
<text text-anchor="middle" x="242.25" y="-235.82" font-family="Times New Roman,serif" font-size="14.00">10</text>
<polyline fill="none" stroke="black" points="257,-223.25 257,-259.25"/>
<text text-anchor="middle" x="271.75" y="-235.82" font-family="Times New Roman,serif" font-size="14.00">11</text>
<polyline fill="none" stroke="black" points="286.5,-223.25 286.5,-259.25"/>
<text text-anchor="middle" x="301.25" y="-235.82" font-family="Times New Roman,serif" font-size="14.00">12</text>
<polyline fill="none" stroke="black" points="316,-223.25 316,-259.25"/>
<text text-anchor="middle" x="330.75" y="-235.82" font-family="Times New Roman,serif" font-size="14.00">13</text>
<polyline fill="none" stroke="black" points="345.5,-223.25 345.5,-259.25"/>
<text text-anchor="middle" x="360.25" y="-235.82" font-family="Times New Roman,serif" font-size="14.00">14</text>
<polyline fill="none" stroke="black" points="375,-223.25 375,-259.25"/>
<text text-anchor="middle" x="389.75" y="-235.82" font-family="Times New Roman,serif" font-size="14.00">15</text>
<polyline fill="none" stroke="black" points="404.5,-223.25 404.5,-259.25"/>
<text text-anchor="middle" x="419.25" y="-235.82" font-family="Times New Roman,serif" font-size="14.00">16</text>
<polyline fill="none" stroke="black" points="434,-223.25 434,-259.25"/>
<text text-anchor="middle" x="448.75" y="-235.82" font-family="Times New Roman,serif" font-size="14.00">17</text>
<polyline fill="none" stroke="black" points="463.5,-223.25 463.5,-259.25"/>
<text text-anchor="middle" x="478.25" y="-235.82" font-family="Times New Roman,serif" font-size="14.00">18</text>
<polyline fill="none" stroke="black" points="493,-223.25 493,-259.25"/>
<text text-anchor="middle" x="507.75" y="-235.82" font-family="Times New Roman,serif" font-size="14.00">19</text>
<polyline fill="none" stroke="black" points="522.5,-223.25 522.5,-259.25"/>
<text text-anchor="middle" x="537.25" y="-235.82" font-family="Times New Roman,serif" font-size="14.00">20</text>
</g>
<!-- Parser&#45;&gt;todoLists -->
<g id="edge1" class="edge">
<title>Parser&#45;&gt;todoLists</title>
<path fill="none" stroke="black" d="M613.75,-338.42C537.37,-316.67 422.12,-283.85 347.96,-262.74"/>
<polygon fill="black" stroke="black" points="349.36,-259.5 338.78,-260.12 347.44,-266.23 349.36,-259.5"/>
<text text-anchor="middle" x="472.88" y="-280.2" font-family="Times New Roman,serif" font-size="14.00">todo lists</text>
</g>
<!-- stacksToExpand -->
<g id="node5" class="node">
<title>stacksToExpand</title>
<polygon fill="none" stroke="red" points="570,-223.25 570,-259.25 624,-259.25 624,-223.25 570,-223.25"/>
<text text-anchor="middle" x="596.88" y="-235.82" font-family="Times New Roman,serif" font-size="14.00">0</text>
</g>
<!-- Parser&#45;&gt;stacksToExpand -->
<g id="edge4" class="edge">
<title>Parser&#45;&gt;stacksToExpand</title>
<path fill="none" stroke="black" d="M625.29,-328.38C612.52,-318.98 600.85,-307.41 593.5,-293.5 589.85,-286.58 589.11,-278.4 589.71,-270.62"/>
<polygon fill="black" stroke="black" points="593.16,-271.26 591.23,-260.84 586.24,-270.19 593.16,-271.26"/>
<text text-anchor="middle" x="641.25" y="-280.2" font-family="Times New Roman,serif" font-size="14.00">stacks to expand</text>
</g>
<!-- terminalsToReduce -->
<g id="node6" class="node">
<title>terminalsToReduce</title>
<polygon fill="none" stroke="black" points="665,-223.25 665,-259.25 719,-259.25 719,-223.25 665,-223.25"/>
<text text-anchor="middle" x="691.88" y="-235.82" font-family="Times New Roman,serif" font-size="14.00"> </text>
</g>
<!-- Parser&#45;&gt;terminalsToReduce -->
<g id="edge5" class="edge">
<title>Parser&#45;&gt;terminalsToReduce</title>
<path fill="none" stroke="black" d="M692,-311.15C692,-297.36 692,-282.85 692,-270.73"/>
<polygon fill="black" stroke="black" points="695.5,-271.02 692,-261.02 688.5,-271.02 695.5,-271.02"/>
<text text-anchor="middle" x="744.88" y="-280.2" font-family="Times New Roman,serif" font-size="14.00">terminals to reduce</text>
</g>
<!-- nonTerminalsToReduce -->
<g id="node7" class="node">
<title>nonTerminalsToReduce</title>
<polygon fill="none" stroke="black" points="794,-223.25 794,-259.25 848,-259.25 848,-223.25 794,-223.25"/>
<text text-anchor="middle" x="820.88" y="-235.82" font-family="Times New Roman,serif" font-size="14.00"> </text>
</g>
<!-- Parser&#45;&gt;nonTerminalsToReduce -->
<g id="edge6" class="edge">
<title>Parser&#45;&gt;nonTerminalsToReduce</title>
<path fill="none" stroke="black" d="M758.01,-327.99C772.86,-318.39 787.59,-306.83 799,-293.5 804.8,-286.72 809.27,-278.18 812.63,-270.03"/>
<polygon fill="black" stroke="black" points="815.86,-271.37 816,-260.78 809.29,-268.97 815.86,-271.37"/>
<text text-anchor="middle" x="873.62" y="-280.2" font-family="Times New Roman,serif" font-size="14.00">non&#45;terminals to reduce</text>
</g>
<!-- error -->
<g id="node12" class="node">
<title>error</title>
<ellipse fill="none" stroke="black" cx="975" cy="-241.25" rx="34.1" ry="18"/>
<text text-anchor="middle" x="975" y="-235.82" font-family="Times New Roman,serif" font-size="14.00">Errors</text>
</g>
<!-- Parser&#45;&gt;error -->
<g id="edge7" class="edge">
<title>Parser&#45;&gt;error</title>
<path fill="none" stroke="black" d="M779.41,-353.38C831.13,-345.36 895.59,-328.58 943,-293.5 951.36,-287.31 958.05,-278.22 963.1,-269.41"/>
<polygon fill="black" stroke="black" points="966.11,-271.22 967.59,-260.73 959.89,-268 966.11,-271.22"/>
<text text-anchor="middle" x="994.5" y="-280.2" font-family="Times New Roman,serif" font-size="14.00">error tracking</text>
</g>
<!-- 37 -->
<g id="node3" class="node">
<title>37</title>
<ellipse fill="none" stroke="black" cx="597" cy="-131.93" rx="116.32" ry="39.07"/>
<text text-anchor="middle" x="597" y="-142.25" font-family="Times New Roman,serif" font-size="14.00">NonTerminal: End</text>
<text text-anchor="middle" x="597" y="-126.5" font-family="Times New Roman,serif" font-size="14.00">.2@6</text>
<text text-anchor="middle" x="597" y="-110.75" font-family="Times New Roman,serif" font-size="14.00">in: &#39;S &#45;&gt; ABC Layout End&#39;</text>
</g>
<!-- &#45;1 -->
<g id="node4" class="node">
<title>&#45;1</title>
<ellipse fill="none" stroke="black" cx="597" cy="-27.93" rx="73.36" ry="27.93"/>
<text text-anchor="middle" x="597" y="-30.38" font-family="Times New Roman,serif" font-size="14.00">NonTerminal: S</text>
<text text-anchor="middle" x="597" y="-14.63" font-family="Times New Roman,serif" font-size="14.00">.0@&#45;1</text>
</g>
<!-- 37&#45;&gt;&#45;1 -->
<g id="edge2" class="edge">
<title>37&#45;&gt;&#45;1</title>
<path fill="none" stroke="black" d="M597,-92.37C597,-84.26 597,-75.7 597,-67.58"/>
<polygon fill="black" stroke="black" points="600.5,-67.63 597,-57.63 593.5,-67.63 600.5,-67.63"/>
</g>
<!-- stacksToExpand&#45;&gt;37 -->
<g id="edge3" class="edge">
<title>stacksToExpand:0&#45;&gt;37</title>
<path fill="none" stroke="black" d="M596.9,-222.87C596.91,-211.73 596.93,-196.92 596.94,-182.55"/>
<polygon fill="black" stroke="black" points="600.44,-182.71 596.95,-172.71 593.44,-182.7 600.44,-182.71"/>
</g>
<!-- unexpandableNodes -->
<g id="node8" class="node">
<title>unexpandableNodes</title>
<polygon fill="none" stroke="black" points="778,-113.93 778,-149.93 832,-149.93 832,-113.93 778,-113.93"/>
<text text-anchor="middle" x="804.88" y="-126.5" font-family="Times New Roman,serif" font-size="14.00"> </text>
</g>
<!-- unmatchableLeafNodes -->
<g id="node9" class="node">
<title>unmatchableLeafNodes</title>
<polygon fill="none" stroke="black" points="878,-113.93 878,-149.93 932,-149.93 932,-113.93 878,-113.93"/>
<text text-anchor="middle" x="904.88" y="-126.5" font-family="Times New Roman,serif" font-size="14.00"> </text>
</g>
<!-- unmatchableMidProductionNodes -->
<g id="node10" class="node">
<title>unmatchableMidProductionNodes</title>
<polygon fill="none" stroke="black" points="1000,-113.93 1000,-149.93 1054,-149.93 1054,-113.93 1000,-113.93"/>
<text text-anchor="middle" x="1026.88" y="-126.5" font-family="Times New Roman,serif" font-size="14.00"> </text>
</g>
<!-- filteredNodes -->
<g id="node11" class="node">
<title>filteredNodes</title>
<polygon fill="none" stroke="black" points="1149,-113.93 1149,-149.93 1203,-149.93 1203,-113.93 1149,-113.93"/>
<text text-anchor="middle" x="1175.88" y="-126.5" font-family="Times New Roman,serif" font-size="14.00"> </text>
</g>
<!-- error&#45;&gt;unexpandableNodes -->
<g id="edge8" class="edge">
<title>error&#45;&gt;unexpandableNodes</title>
<path fill="none" stroke="black" d="M942.74,-235.07C898.68,-227.7 824.14,-214.05 815.5,-204.75 804.88,-193.31 802.08,-176.12 802.01,-161.43"/>
<polygon fill="black" stroke="black" points="805.5,-161.98 802.4,-151.85 798.5,-161.71 805.5,-161.98"/>
<text text-anchor="middle" x="853.25" y="-191.45" font-family="Times New Roman,serif" font-size="14.00">unexpandable</text>
</g>
<!-- error&#45;&gt;unmatchableLeafNodes -->
<g id="edge9" class="edge">
<title>error&#45;&gt;unmatchableLeafNodes</title>
<path fill="none" stroke="black" d="M943.81,-233.36C928.41,-228.21 911.19,-219.44 902,-204.75 894.04,-192.02 894.22,-175.39 896.65,-161.34"/>
<polygon fill="black" stroke="black" points="900.03,-162.29 898.77,-151.77 893.19,-160.78 900.03,-162.29"/>
<text text-anchor="middle" x="951.5" y="-191.45" font-family="Times New Roman,serif" font-size="14.00">unmatchable leafs</text>
</g>
<!-- error&#45;&gt;unmatchableMidProductionNodes -->
<g id="edge10" class="edge">
<title>error&#45;&gt;unmatchableMidProductionNodes</title>
<path fill="none" stroke="black" d="M990.23,-225.01C995.49,-219.08 1001.06,-211.97 1005,-204.75 1012.34,-191.29 1017.58,-175.05 1021.1,-161.41"/>
<polygon fill="black" stroke="black" points="1024.5,-162.25 1023.41,-151.71 1017.69,-160.63 1024.5,-162.25"/>
<text text-anchor="middle" x="1074" y="-191.45" font-family="Times New Roman,serif" font-size="14.00">unmatchable mid&#45;prod</text>
</g>
<!-- error&#45;&gt;filteredNodes -->
<g id="edge11" class="edge">
<title>error&#45;&gt;filteredNodes</title>
<path fill="none" stroke="black" d="M1008.24,-236.61C1050.58,-231.39 1120.69,-220.64 1141,-204.75 1154.84,-193.92 1163.55,-176.21 1168.83,-161.1"/>
<polygon fill="black" stroke="black" points="1172.14,-162.23 1171.76,-151.64 1165.45,-160.15 1172.14,-162.23"/>
<text text-anchor="middle" x="1173.12" y="-191.45" font-family="Times New Roman,serif" font-size="14.00">filtered</text>
</g>
</g>
</svg>
