<?xml version="1.0" encoding="UTF-8" standalone="no"?>
<!DOCTYPE svg PUBLIC "-//W3C//DTD SVG 1.1//EN"
 "http://www.w3.org/Graphics/SVG/1.1/DTD/svg11.dtd">
<!-- Generated by graphviz version 12.0.0 (20240704.0754)
 -->
<!-- Title: Parser Pages: 1 -->
<svg width="1388pt" height="624pt"
 viewBox="0.00 0.00 1388.32 623.79" xmlns="http://www.w3.org/2000/svg" xmlns:xlink="http://www.w3.org/1999/xlink">
<g id="graph0" class="graph" transform="scale(1 1) rotate(0) translate(4 619.79)">
<title>Parser</title>
<polygon fill="white" stroke="none" points="-4,4 -4,-619.79 1384.32,-619.79 1384.32,4 -4,4"/>
<!-- Parser -->
<g id="node1" class="node">
<title>Parser</title>
<ellipse fill="none" stroke="black" cx="860.32" cy="-565.59" rx="143.37" ry="50.2"/>
<text text-anchor="middle" x="860.32" y="-583.79" font-family="Times New Roman,serif" font-size="14.00">Parser</text>
<text text-anchor="middle" x="860.32" y="-568.04" font-family="Times New Roman,serif" font-size="14.00">Input: &quot;a b x $&quot;</text>
<text text-anchor="middle" x="860.32" y="-552.29" font-family="Times New Roman,serif" font-size="14.00">Location: 6 (&#39;$&#39;)</text>
<text text-anchor="middle" x="860.32" y="-536.54" font-family="Times New Roman,serif" font-size="14.00">Step 40: Finding stacks to reduce</text>
</g>
<!-- todoLists -->
<g id="node7" class="node">
<title>todoLists</title>
<polygon fill="none" stroke="red" points="145.32,-427.13 145.32,-463.13 697.32,-463.13 697.32,-427.13 145.32,-427.13"/>
<text text-anchor="middle" x="156.69" y="-439.71" font-family="Times New Roman,serif" font-size="14.00">0</text>
<polyline fill="none" stroke="red" points="168.07,-427.13 168.07,-463.13"/>
<text text-anchor="middle" x="179.44" y="-439.71" font-family="Times New Roman,serif" font-size="14.00">1</text>
<polyline fill="none" stroke="red" points="190.82,-427.13 190.82,-463.13"/>
<text text-anchor="middle" x="202.19" y="-439.71" font-family="Times New Roman,serif" font-size="14.00">2</text>
<polyline fill="none" stroke="red" points="213.57,-427.13 213.57,-463.13"/>
<text text-anchor="middle" x="224.94" y="-439.71" font-family="Times New Roman,serif" font-size="14.00">3</text>
<polyline fill="none" stroke="red" points="236.32,-427.13 236.32,-463.13"/>
<text text-anchor="middle" x="247.69" y="-439.71" font-family="Times New Roman,serif" font-size="14.00">4</text>
<polyline fill="none" stroke="red" points="259.07,-427.13 259.07,-463.13"/>
<text text-anchor="middle" x="270.44" y="-439.71" font-family="Times New Roman,serif" font-size="14.00">5</text>
<polyline fill="none" stroke="red" points="281.82,-427.13 281.82,-463.13"/>
<text text-anchor="middle" x="293.19" y="-439.71" font-family="Times New Roman,serif" font-size="14.00">6</text>
<polyline fill="none" stroke="red" points="304.57,-427.13 304.57,-463.13"/>
<text text-anchor="middle" x="315.94" y="-439.71" font-family="Times New Roman,serif" font-size="14.00">7</text>
<polyline fill="none" stroke="red" points="327.32,-427.13 327.32,-463.13"/>
<text text-anchor="middle" x="338.69" y="-439.71" font-family="Times New Roman,serif" font-size="14.00">8</text>
<polyline fill="none" stroke="red" points="350.07,-427.13 350.07,-463.13"/>
<text text-anchor="middle" x="361.44" y="-439.71" font-family="Times New Roman,serif" font-size="14.00">9</text>
<polyline fill="none" stroke="red" points="372.82,-427.13 372.82,-463.13"/>
<text text-anchor="middle" x="387.57" y="-439.71" font-family="Times New Roman,serif" font-size="14.00">10</text>
<polyline fill="none" stroke="red" points="402.32,-427.13 402.32,-463.13"/>
<text text-anchor="middle" x="417.07" y="-439.71" font-family="Times New Roman,serif" font-size="14.00">11</text>
<polyline fill="none" stroke="red" points="431.82,-427.13 431.82,-463.13"/>
<text text-anchor="middle" x="446.57" y="-439.71" font-family="Times New Roman,serif" font-size="14.00">12</text>
<polyline fill="none" stroke="red" points="461.32,-427.13 461.32,-463.13"/>
<text text-anchor="middle" x="476.07" y="-439.71" font-family="Times New Roman,serif" font-size="14.00">13</text>
<polyline fill="none" stroke="red" points="490.82,-427.13 490.82,-463.13"/>
<text text-anchor="middle" x="505.57" y="-439.71" font-family="Times New Roman,serif" font-size="14.00">14</text>
<polyline fill="none" stroke="red" points="520.32,-427.13 520.32,-463.13"/>
<text text-anchor="middle" x="535.07" y="-439.71" font-family="Times New Roman,serif" font-size="14.00">15</text>
<polyline fill="none" stroke="red" points="549.82,-427.13 549.82,-463.13"/>
<text text-anchor="middle" x="564.57" y="-439.71" font-family="Times New Roman,serif" font-size="14.00">16</text>
<polyline fill="none" stroke="red" points="579.32,-427.13 579.32,-463.13"/>
<text text-anchor="middle" x="594.07" y="-439.71" font-family="Times New Roman,serif" font-size="14.00">17</text>
<polyline fill="none" stroke="red" points="608.82,-427.13 608.82,-463.13"/>
<text text-anchor="middle" x="623.57" y="-439.71" font-family="Times New Roman,serif" font-size="14.00">18</text>
<polyline fill="none" stroke="red" points="638.32,-427.13 638.32,-463.13"/>
<text text-anchor="middle" x="653.07" y="-439.71" font-family="Times New Roman,serif" font-size="14.00">19</text>
<polyline fill="none" stroke="red" points="667.82,-427.13 667.82,-463.13"/>
<text text-anchor="middle" x="682.57" y="-439.71" font-family="Times New Roman,serif" font-size="14.00">20</text>
</g>
<!-- Parser&#45;&gt;todoLists -->
<g id="edge6" class="edge">
<title>Parser&#45;&gt;todoLists</title>
<path fill="none" stroke="black" d="M747.55,-534.16C668.82,-512.91 565.87,-485.14 496.87,-466.52"/>
<polygon fill="black" stroke="black" points="498.12,-463.23 487.56,-464 496.3,-469.99 498.12,-463.23"/>
<text text-anchor="middle" x="628.19" y="-484.08" font-family="Times New Roman,serif" font-size="14.00">todo lists</text>
</g>
<!-- stacksToExpand -->
<g id="node8" class="node">
<title>stacksToExpand</title>
<polygon fill="none" stroke="black" points="715.32,-427.13 715.32,-463.13 769.32,-463.13 769.32,-427.13 715.32,-427.13"/>
<text text-anchor="middle" x="742.19" y="-439.71" font-family="Times New Roman,serif" font-size="14.00"> </text>
</g>
<!-- Parser&#45;&gt;stacksToExpand -->
<g id="edge7" class="edge">
<title>Parser&#45;&gt;stacksToExpand</title>
<path fill="none" stroke="black" d="M787.04,-522.29C777.75,-514.82 769,-506.48 761.82,-497.38 756.53,-490.68 752.55,-482.38 749.62,-474.42"/>
<polygon fill="black" stroke="black" points="753,-473.5 746.6,-465.05 746.33,-475.64 753,-473.5"/>
<text text-anchor="middle" x="809.57" y="-484.08" font-family="Times New Roman,serif" font-size="14.00">stacks to expand</text>
</g>
<!-- terminalsToReduce -->
<g id="node9" class="node">
<title>terminalsToReduce</title>
<polygon fill="none" stroke="black" points="833.32,-427.13 833.32,-463.13 887.32,-463.13 887.32,-427.13 833.32,-427.13"/>
<text text-anchor="middle" x="860.19" y="-439.71" font-family="Times New Roman,serif" font-size="14.00"> </text>
</g>
<!-- Parser&#45;&gt;terminalsToReduce -->
<g id="edge8" class="edge">
<title>Parser&#45;&gt;terminalsToReduce</title>
<path fill="none" stroke="black" d="M860.32,-515.04C860.32,-501.25 860.32,-486.74 860.32,-474.61"/>
<polygon fill="black" stroke="black" points="863.82,-474.91 860.32,-464.91 856.82,-474.91 863.82,-474.91"/>
<text text-anchor="middle" x="913.19" y="-484.08" font-family="Times New Roman,serif" font-size="14.00">terminals to reduce</text>
</g>
<!-- nonTerminalsToReduce -->
<g id="node10" class="node">
<title>nonTerminalsToReduce</title>
<polygon fill="none" stroke="black" points="962.32,-427.13 962.32,-463.13 1016.32,-463.13 1016.32,-427.13 962.32,-427.13"/>
<text text-anchor="middle" x="989.19" y="-439.71" font-family="Times New Roman,serif" font-size="14.00"> </text>
</g>
<!-- Parser&#45;&gt;nonTerminalsToReduce -->
<g id="edge9" class="edge">
<title>Parser&#45;&gt;nonTerminalsToReduce</title>
<path fill="none" stroke="black" d="M938.76,-523.32C949.2,-515.64 959.12,-506.97 967.32,-497.38 973.12,-490.6 977.59,-482.07 980.94,-473.92"/>
<polygon fill="black" stroke="black" points="984.18,-475.26 984.32,-464.66 977.61,-472.86 984.18,-475.26"/>
<text text-anchor="middle" x="1042.94" y="-484.08" font-family="Times New Roman,serif" font-size="14.00">non&#45;terminals to reduce</text>
</g>
<!-- error -->
<g id="node16" class="node">
<title>error</title>
<ellipse fill="none" stroke="black" cx="1143.32" cy="-445.13" rx="34.1" ry="18"/>
<text text-anchor="middle" x="1143.32" y="-439.71" font-family="Times New Roman,serif" font-size="14.00">Errors</text>
</g>
<!-- Parser&#45;&gt;error -->
<g id="edge11" class="edge">
<title>Parser&#45;&gt;error</title>
<path fill="none" stroke="black" d="M995.42,-548.36C1035.94,-538.52 1078.55,-522.72 1112.32,-497.38 1120.57,-491.19 1127.08,-482.1 1131.96,-473.3"/>
<polygon fill="black" stroke="black" points="1134.95,-475.14 1136.27,-464.63 1128.69,-472.02 1134.95,-475.14"/>
<text text-anchor="middle" x="1163.82" y="-484.08" font-family="Times New Roman,serif" font-size="14.00">error tracking</text>
</g>
<!-- todo&#45;2 -->
<g id="node2" class="node">
<title>todo&#45;2</title>
<polygon fill="none" stroke="black" points="175.32,-338.38 175.32,-374.38 229.32,-374.38 229.32,-338.38 175.32,-338.38"/>
<text text-anchor="middle" x="202.19" y="-350.96" font-family="Times New Roman,serif" font-size="14.00">0</text>
</g>
<!-- 86 -->
<g id="node3" class="node">
<title>86</title>
<ellipse fill="none" stroke="black" cx="116.32" cy="-247.06" rx="62.23" ry="39.07"/>
<text text-anchor="middle" x="116.32" y="-257.39" font-family="Times New Roman,serif" font-size="14.00">Literal: </text>
<text text-anchor="middle" x="116.32" y="-241.64" font-family="Times New Roman,serif" font-size="14.00">.0@6</text>
<text text-anchor="middle" x="116.32" y="-225.89" font-family="Times New Roman,serif" font-size="14.00">in: &#39;End &#45;&gt; $&#39;</text>
</g>
<!-- todo&#45;2&#45;&gt;86 -->
<g id="edge3" class="edge">
<title>todo&#45;2:sw&#45;&gt;86</title>
<path fill="none" stroke="black" d="M175.32,-337.88C162.55,-325.11 151,-309.16 141.58,-294.25"/>
<polygon fill="black" stroke="black" points="144.7,-292.65 136.49,-285.95 138.73,-296.3 144.7,-292.65"/>
<text text-anchor="middle" x="174.07" y="-306.58" font-family="Times New Roman,serif" font-size="14.00">Stack</text>
</g>
<!-- 1465663131 -->
<g id="node6" class="node">
<title>1465663131</title>
<polygon fill="none" stroke="black" points="301.89,-239.61 301.89,-254.52 271.09,-265.06 227.54,-265.06 196.75,-254.52 196.75,-239.61 227.54,-229.06 271.09,-229.06 301.89,-239.61"/>
<text text-anchor="middle" x="249.32" y="-241.64" font-family="Times New Roman,serif" font-size="14.00">Literal &quot;$&quot;</text>
</g>
<!-- todo&#45;2&#45;&gt;1465663131 -->
<g id="edge4" class="edge">
<title>todo&#45;2:se&#45;&gt;1465663131</title>
<path fill="none" stroke="black" d="M229.07,-337.88C244.89,-322.06 249.46,-296.7 250.36,-276.95"/>
<polygon fill="black" stroke="black" points="253.86,-277.07 250.49,-267.03 246.86,-276.98 253.86,-277.07"/>
<text text-anchor="middle" x="261.69" y="-306.58" font-family="Times New Roman,serif" font-size="14.00">Node</text>
</g>
<!-- 37 -->
<g id="node4" class="node">
<title>37</title>
<ellipse fill="none" stroke="black" cx="116.32" cy="-131.93" rx="116.32" ry="39.07"/>
<text text-anchor="middle" x="116.32" y="-142.25" font-family="Times New Roman,serif" font-size="14.00">NonTerminal: End</text>
<text text-anchor="middle" x="116.32" y="-126.5" font-family="Times New Roman,serif" font-size="14.00">.2@6</text>
<text text-anchor="middle" x="116.32" y="-110.75" font-family="Times New Roman,serif" font-size="14.00">in: &#39;S &#45;&gt; ABC Layout End&#39;</text>
</g>
<!-- 86&#45;&gt;37 -->
<g id="edge2" class="edge">
<title>86&#45;&gt;37</title>
<path fill="none" stroke="black" d="M116.32,-207.76C116.32,-199.65 116.32,-190.98 116.32,-182.52"/>
<polygon fill="black" stroke="black" points="119.82,-182.71 116.32,-172.71 112.82,-182.71 119.82,-182.71"/>
</g>
<!-- &#45;1 -->
<g id="node5" class="node">
<title>&#45;1</title>
<ellipse fill="none" stroke="black" cx="116.32" cy="-27.93" rx="73.36" ry="27.93"/>
<text text-anchor="middle" x="116.32" y="-30.38" font-family="Times New Roman,serif" font-size="14.00">NonTerminal: S</text>
<text text-anchor="middle" x="116.32" y="-14.63" font-family="Times New Roman,serif" font-size="14.00">.0@&#45;1</text>
</g>
<!-- 37&#45;&gt;&#45;1 -->
<g id="edge1" class="edge">
<title>37&#45;&gt;&#45;1</title>
<path fill="none" stroke="black" d="M116.32,-92.37C116.32,-84.26 116.32,-75.7 116.32,-67.58"/>
<polygon fill="black" stroke="black" points="119.82,-67.63 116.32,-57.63 112.82,-67.63 119.82,-67.63"/>
</g>
<!-- todoLists&#45;&gt;todo&#45;2 -->
<g id="edge5" class="edge">
<title>todoLists:2&#45;&gt;todo&#45;2</title>
<path fill="none" stroke="black" d="M202.19,-426.63C202.19,-413.24 202.22,-398.39 202.24,-385.89"/>
<polygon fill="black" stroke="black" points="205.74,-386.26 202.27,-376.26 198.74,-386.25 205.74,-386.26"/>
</g>
<!-- unexpandableNodes -->
<g id="node11" class="node">
<title>unexpandableNodes</title>
<polygon fill="none" stroke="black" points="955.32,-338.38 955.32,-374.38 1009.32,-374.38 1009.32,-338.38 955.32,-338.38"/>
<text text-anchor="middle" x="982.19" y="-350.96" font-family="Times New Roman,serif" font-size="14.00"> </text>
</g>
<!-- 78 -->
<g id="node12" class="node">
<title>78</title>
<ellipse fill="none" stroke="black" cx="1082.32" cy="-247.06" rx="35.71" ry="27.93"/>
<text text-anchor="middle" x="1082.32" y="-249.51" font-family="Times New Roman,serif" font-size="14.00">Char: </text>
<text text-anchor="middle" x="1082.32" y="-233.76" font-family="Times New Roman,serif" font-size="14.00">.0@&#45;1</text>
</g>
<!-- unmatchableLeafNodes -->
<g id="node13" class="node">
<title>unmatchableLeafNodes</title>
<polygon fill="none" stroke="black" points="1055.32,-338.38 1055.32,-374.38 1109.32,-374.38 1109.32,-338.38 1055.32,-338.38"/>
<text text-anchor="middle" x="1082.19" y="-350.96" font-family="Times New Roman,serif" font-size="14.00">0</text>
</g>
<!-- unmatchableLeafNodes&#45;&gt;78 -->
<g id="edge10" class="edge">
<title>unmatchableLeafNodes:0&#45;&gt;78</title>
<path fill="none" stroke="black" d="M1082.22,-338.01C1082.23,-323.95 1082.25,-304.06 1082.27,-286.56"/>
<polygon fill="black" stroke="black" points="1085.77,-287.01 1082.29,-277 1078.77,-287 1085.77,-287.01"/>
</g>
<!-- unmatchableMidProductionNodes -->
<g id="node14" class="node">
<title>unmatchableMidProductionNodes</title>
<polygon fill="none" stroke="black" points="1177.32,-338.38 1177.32,-374.38 1231.32,-374.38 1231.32,-338.38 1177.32,-338.38"/>
<text text-anchor="middle" x="1204.19" y="-350.96" font-family="Times New Roman,serif" font-size="14.00"> </text>
</g>
<!-- filteredNodes -->
<g id="node15" class="node">
<title>filteredNodes</title>
<polygon fill="none" stroke="black" points="1326.32,-338.38 1326.32,-374.38 1380.32,-374.38 1380.32,-338.38 1326.32,-338.38"/>
<text text-anchor="middle" x="1353.19" y="-350.96" font-family="Times New Roman,serif" font-size="14.00"> </text>
</g>
<!-- error&#45;&gt;unexpandableNodes -->
<g id="edge12" class="edge">
<title>error&#45;&gt;unexpandableNodes</title>
<path fill="none" stroke="black" d="M1110.19,-439.9C1072.42,-434.43 1013.82,-423.78 997.82,-408.63 991.51,-402.66 987.74,-394.21 985.5,-385.89"/>
<polygon fill="black" stroke="black" points="988.99,-385.48 983.59,-376.36 982.12,-386.85 988.99,-385.48"/>
<text text-anchor="middle" x="1036.57" y="-395.33" font-family="Times New Roman,serif" font-size="14.00">unexpandable</text>
</g>
<!-- error&#45;&gt;unmatchableLeafNodes -->
<g id="edge13" class="edge">
<title>error&#45;&gt;unmatchableLeafNodes</title>
<path fill="none" stroke="black" d="M1115.15,-434.63C1103.15,-429.04 1090.33,-420.66 1083.32,-408.63 1079.39,-401.89 1078.03,-393.76 1077.95,-385.98"/>
<polygon fill="black" stroke="black" points="1081.43,-386.37 1078.54,-376.17 1074.44,-385.95 1081.43,-386.37"/>
<text text-anchor="middle" x="1132.82" y="-395.33" font-family="Times New Roman,serif" font-size="14.00">unmatchable leafs</text>
</g>
<!-- error&#45;&gt;unmatchableMidProductionNodes -->
<g id="edge14" class="edge">
<title>error&#45;&gt;unmatchableMidProductionNodes</title>
<path fill="none" stroke="black" d="M1162,-429.99C1169.03,-423.98 1176.69,-416.54 1182.32,-408.63 1187.36,-401.56 1191.57,-393.15 1194.91,-385.2"/>
<polygon fill="black" stroke="black" points="1198.17,-386.48 1198.51,-375.89 1191.64,-383.96 1198.17,-386.48"/>
<text text-anchor="middle" x="1253.32" y="-395.33" font-family="Times New Roman,serif" font-size="14.00">unmatchable mid&#45;prod</text>
</g>
<!-- error&#45;&gt;filteredNodes -->
<g id="edge15" class="edge">
<title>error&#45;&gt;filteredNodes</title>
<path fill="none" stroke="black" d="M1177.63,-444.92C1215.67,-444.16 1277.33,-437.94 1320.32,-408.63 1328.99,-402.72 1335.9,-393.7 1341.1,-384.86"/>
<polygon fill="black" stroke="black" points="1344.15,-386.58 1345.73,-376.11 1337.96,-383.31 1344.15,-386.58"/>
<text text-anchor="middle" x="1354.44" y="-395.33" font-family="Times New Roman,serif" font-size="14.00">filtered</text>
</g>
</g>
</svg>
