<?xml version="1.0" encoding="UTF-8" standalone="no"?>
<!DOCTYPE svg PUBLIC "-//W3C//DTD SVG 1.1//EN"
 "http://www.w3.org/Graphics/SVG/1.1/DTD/svg11.dtd">
<!-- Generated by graphviz version 12.0.0 (20240704.0754)
 -->
<!-- Title: Parser Pages: 1 -->
<svg width="1410pt" height="624pt"
 viewBox="0.00 0.00 1410.32 623.79" xmlns="http://www.w3.org/2000/svg" xmlns:xlink="http://www.w3.org/1999/xlink">
<g id="graph0" class="graph" transform="scale(1 1) rotate(0) translate(4 619.79)">
<title>Parser</title>
<polygon fill="white" stroke="none" points="-4,4 -4,-619.79 1406.32,-619.79 1406.32,4 -4,4"/>
<!-- Parser -->
<g id="node1" class="node">
<title>Parser</title>
<ellipse fill="none" stroke="black" cx="882.32" cy="-565.59" rx="135.41" ry="50.2"/>
<text text-anchor="middle" x="882.32" y="-583.79" font-family="Times New Roman,serif" font-size="14.00">Parser</text>
<text text-anchor="middle" x="882.32" y="-568.04" font-family="Times New Roman,serif" font-size="14.00">Input: &quot;a b x $&quot;</text>
<text text-anchor="middle" x="882.32" y="-552.29" font-family="Times New Roman,serif" font-size="14.00">Location: 6 (&#39;$&#39;)</text>
<text text-anchor="middle" x="882.32" y="-536.54" font-family="Times New Roman,serif" font-size="14.00">Step 41: Found stack to reduce</text>
</g>
<!-- todoLists -->
<g id="node7" class="node">
<title>todoLists</title>
<polygon fill="none" stroke="black" points="167.32,-427.13 167.32,-463.13 719.32,-463.13 719.32,-427.13 167.32,-427.13"/>
<text text-anchor="middle" x="178.69" y="-439.71" font-family="Times New Roman,serif" font-size="14.00">0</text>
<polyline fill="none" stroke="black" points="190.07,-427.13 190.07,-463.13"/>
<text text-anchor="middle" x="201.44" y="-439.71" font-family="Times New Roman,serif" font-size="14.00">1</text>
<polyline fill="none" stroke="black" points="212.82,-427.13 212.82,-463.13"/>
<text text-anchor="middle" x="224.19" y="-439.71" font-family="Times New Roman,serif" font-size="14.00">2</text>
<polyline fill="none" stroke="black" points="235.57,-427.13 235.57,-463.13"/>
<text text-anchor="middle" x="246.94" y="-439.71" font-family="Times New Roman,serif" font-size="14.00">3</text>
<polyline fill="none" stroke="black" points="258.32,-427.13 258.32,-463.13"/>
<text text-anchor="middle" x="269.69" y="-439.71" font-family="Times New Roman,serif" font-size="14.00">4</text>
<polyline fill="none" stroke="black" points="281.07,-427.13 281.07,-463.13"/>
<text text-anchor="middle" x="292.44" y="-439.71" font-family="Times New Roman,serif" font-size="14.00">5</text>
<polyline fill="none" stroke="black" points="303.82,-427.13 303.82,-463.13"/>
<text text-anchor="middle" x="315.19" y="-439.71" font-family="Times New Roman,serif" font-size="14.00">6</text>
<polyline fill="none" stroke="black" points="326.57,-427.13 326.57,-463.13"/>
<text text-anchor="middle" x="337.94" y="-439.71" font-family="Times New Roman,serif" font-size="14.00">7</text>
<polyline fill="none" stroke="black" points="349.32,-427.13 349.32,-463.13"/>
<text text-anchor="middle" x="360.69" y="-439.71" font-family="Times New Roman,serif" font-size="14.00">8</text>
<polyline fill="none" stroke="black" points="372.07,-427.13 372.07,-463.13"/>
<text text-anchor="middle" x="383.44" y="-439.71" font-family="Times New Roman,serif" font-size="14.00">9</text>
<polyline fill="none" stroke="black" points="394.82,-427.13 394.82,-463.13"/>
<text text-anchor="middle" x="409.57" y="-439.71" font-family="Times New Roman,serif" font-size="14.00">10</text>
<polyline fill="none" stroke="black" points="424.32,-427.13 424.32,-463.13"/>
<text text-anchor="middle" x="439.07" y="-439.71" font-family="Times New Roman,serif" font-size="14.00">11</text>
<polyline fill="none" stroke="black" points="453.82,-427.13 453.82,-463.13"/>
<text text-anchor="middle" x="468.57" y="-439.71" font-family="Times New Roman,serif" font-size="14.00">12</text>
<polyline fill="none" stroke="black" points="483.32,-427.13 483.32,-463.13"/>
<text text-anchor="middle" x="498.07" y="-439.71" font-family="Times New Roman,serif" font-size="14.00">13</text>
<polyline fill="none" stroke="black" points="512.82,-427.13 512.82,-463.13"/>
<text text-anchor="middle" x="527.57" y="-439.71" font-family="Times New Roman,serif" font-size="14.00">14</text>
<polyline fill="none" stroke="black" points="542.32,-427.13 542.32,-463.13"/>
<text text-anchor="middle" x="557.07" y="-439.71" font-family="Times New Roman,serif" font-size="14.00">15</text>
<polyline fill="none" stroke="black" points="571.82,-427.13 571.82,-463.13"/>
<text text-anchor="middle" x="586.57" y="-439.71" font-family="Times New Roman,serif" font-size="14.00">16</text>
<polyline fill="none" stroke="black" points="601.32,-427.13 601.32,-463.13"/>
<text text-anchor="middle" x="616.07" y="-439.71" font-family="Times New Roman,serif" font-size="14.00">17</text>
<polyline fill="none" stroke="black" points="630.82,-427.13 630.82,-463.13"/>
<text text-anchor="middle" x="645.57" y="-439.71" font-family="Times New Roman,serif" font-size="14.00">18</text>
<polyline fill="none" stroke="black" points="660.32,-427.13 660.32,-463.13"/>
<text text-anchor="middle" x="675.07" y="-439.71" font-family="Times New Roman,serif" font-size="14.00">19</text>
<polyline fill="none" stroke="black" points="689.82,-427.13 689.82,-463.13"/>
<text text-anchor="middle" x="704.57" y="-439.71" font-family="Times New Roman,serif" font-size="14.00">20</text>
</g>
<!-- Parser&#45;&gt;todoLists -->
<g id="edge6" class="edge">
<title>Parser&#45;&gt;todoLists</title>
<path fill="none" stroke="black" d="M773.52,-535.23C694.34,-513.87 589.13,-485.48 518.97,-466.54"/>
<polygon fill="black" stroke="black" points="520.04,-463.21 509.48,-463.98 518.22,-469.97 520.04,-463.21"/>
<text text-anchor="middle" x="650.19" y="-484.08" font-family="Times New Roman,serif" font-size="14.00">todo lists</text>
</g>
<!-- stacksToExpand -->
<g id="node8" class="node">
<title>stacksToExpand</title>
<polygon fill="none" stroke="black" points="737.32,-427.13 737.32,-463.13 791.32,-463.13 791.32,-427.13 737.32,-427.13"/>
<text text-anchor="middle" x="764.19" y="-439.71" font-family="Times New Roman,serif" font-size="14.00"> </text>
</g>
<!-- Parser&#45;&gt;stacksToExpand -->
<g id="edge7" class="edge">
<title>Parser&#45;&gt;stacksToExpand</title>
<path fill="none" stroke="black" d="M810.04,-523.09C800.38,-515.42 791.25,-506.81 783.82,-497.38 778.53,-490.68 774.55,-482.38 771.62,-474.42"/>
<polygon fill="black" stroke="black" points="775,-473.5 768.6,-465.05 768.33,-475.64 775,-473.5"/>
<text text-anchor="middle" x="831.57" y="-484.08" font-family="Times New Roman,serif" font-size="14.00">stacks to expand</text>
</g>
<!-- terminalsToReduce -->
<g id="node9" class="node">
<title>terminalsToReduce</title>
<polygon fill="none" stroke="black" points="855.32,-427.13 855.32,-463.13 909.32,-463.13 909.32,-427.13 855.32,-427.13"/>
<text text-anchor="middle" x="882.19" y="-439.71" font-family="Times New Roman,serif" font-size="14.00"> </text>
</g>
<!-- Parser&#45;&gt;terminalsToReduce -->
<g id="edge8" class="edge">
<title>Parser&#45;&gt;terminalsToReduce</title>
<path fill="none" stroke="black" d="M882.32,-515.04C882.32,-501.25 882.32,-486.74 882.32,-474.61"/>
<polygon fill="black" stroke="black" points="885.82,-474.91 882.32,-464.91 878.82,-474.91 885.82,-474.91"/>
<text text-anchor="middle" x="935.19" y="-484.08" font-family="Times New Roman,serif" font-size="14.00">terminals to reduce</text>
</g>
<!-- nonTerminalsToReduce -->
<g id="node10" class="node">
<title>nonTerminalsToReduce</title>
<polygon fill="none" stroke="black" points="984.32,-427.13 984.32,-463.13 1038.32,-463.13 1038.32,-427.13 984.32,-427.13"/>
<text text-anchor="middle" x="1011.19" y="-439.71" font-family="Times New Roman,serif" font-size="14.00"> </text>
</g>
<!-- Parser&#45;&gt;nonTerminalsToReduce -->
<g id="edge9" class="edge">
<title>Parser&#45;&gt;nonTerminalsToReduce</title>
<path fill="none" stroke="black" d="M959.67,-524.12C970.51,-516.24 980.83,-507.3 989.32,-497.38 995.12,-490.6 999.59,-482.07 1002.94,-473.92"/>
<polygon fill="black" stroke="black" points="1006.18,-475.26 1006.32,-464.66 999.61,-472.86 1006.18,-475.26"/>
<text text-anchor="middle" x="1064.94" y="-484.08" font-family="Times New Roman,serif" font-size="14.00">non&#45;terminals to reduce</text>
</g>
<!-- error -->
<g id="node16" class="node">
<title>error</title>
<ellipse fill="none" stroke="black" cx="1165.32" cy="-445.13" rx="34.1" ry="18"/>
<text text-anchor="middle" x="1165.32" y="-439.71" font-family="Times New Roman,serif" font-size="14.00">Errors</text>
</g>
<!-- Parser&#45;&gt;error -->
<g id="edge11" class="edge">
<title>Parser&#45;&gt;error</title>
<path fill="none" stroke="black" d="M1011.24,-549.82C1053.58,-540.1 1098.83,-524.01 1134.32,-497.38 1142.57,-491.19 1149.08,-482.1 1153.96,-473.3"/>
<polygon fill="black" stroke="black" points="1156.95,-475.14 1158.27,-464.63 1150.69,-472.02 1156.95,-475.14"/>
<text text-anchor="middle" x="1185.82" y="-484.08" font-family="Times New Roman,serif" font-size="14.00">error tracking</text>
</g>
<!-- todo&#45;1 -->
<g id="node2" class="node">
<title>todo&#45;1</title>
<polygon fill="none" stroke="red" points="175.32,-338.38 175.32,-374.38 229.32,-374.38 229.32,-338.38 175.32,-338.38"/>
<text text-anchor="middle" x="202.19" y="-350.96" font-family="Times New Roman,serif" font-size="14.00">0</text>
</g>
<!-- 86 -->
<g id="node3" class="node">
<title>86</title>
<ellipse fill="none" stroke="black" cx="116.32" cy="-247.06" rx="62.23" ry="39.07"/>
<text text-anchor="middle" x="116.32" y="-257.39" font-family="Times New Roman,serif" font-size="14.00">Literal: </text>
<text text-anchor="middle" x="116.32" y="-241.64" font-family="Times New Roman,serif" font-size="14.00">.0@6</text>
<text text-anchor="middle" x="116.32" y="-225.89" font-family="Times New Roman,serif" font-size="14.00">in: &#39;End &#45;&gt; $&#39;</text>
</g>
<!-- todo&#45;1&#45;&gt;86 -->
<g id="edge3" class="edge">
<title>todo&#45;1:sw&#45;&gt;86</title>
<path fill="none" stroke="black" d="M175.32,-337.88C162.55,-325.11 151,-309.16 141.58,-294.25"/>
<polygon fill="black" stroke="black" points="144.7,-292.65 136.49,-285.95 138.73,-296.3 144.7,-292.65"/>
<text text-anchor="middle" x="174.07" y="-306.58" font-family="Times New Roman,serif" font-size="14.00">Stack</text>
</g>
<!-- 1465663131 -->
<g id="node6" class="node">
<title>1465663131</title>
<polygon fill="none" stroke="black" points="301.89,-239.61 301.89,-254.52 271.09,-265.06 227.54,-265.06 196.75,-254.52 196.75,-239.61 227.54,-229.06 271.09,-229.06 301.89,-239.61"/>
<text text-anchor="middle" x="249.32" y="-241.64" font-family="Times New Roman,serif" font-size="14.00">Literal &quot;$&quot;</text>
</g>
<!-- todo&#45;1&#45;&gt;1465663131 -->
<g id="edge4" class="edge">
<title>todo&#45;1:se&#45;&gt;1465663131</title>
<path fill="none" stroke="black" d="M229.07,-337.88C244.89,-322.06 249.46,-296.7 250.36,-276.95"/>
<polygon fill="black" stroke="black" points="253.86,-277.07 250.49,-267.03 246.86,-276.98 253.86,-277.07"/>
<text text-anchor="middle" x="261.69" y="-306.58" font-family="Times New Roman,serif" font-size="14.00">Node</text>
</g>
<!-- 37 -->
<g id="node4" class="node">
<title>37</title>
<ellipse fill="none" stroke="black" cx="116.32" cy="-131.93" rx="116.32" ry="39.07"/>
<text text-anchor="middle" x="116.32" y="-142.25" font-family="Times New Roman,serif" font-size="14.00">NonTerminal: End</text>
<text text-anchor="middle" x="116.32" y="-126.5" font-family="Times New Roman,serif" font-size="14.00">.2@6</text>
<text text-anchor="middle" x="116.32" y="-110.75" font-family="Times New Roman,serif" font-size="14.00">in: &#39;S &#45;&gt; ABC Layout End&#39;</text>
</g>
<!-- 86&#45;&gt;37 -->
<g id="edge2" class="edge">
<title>86&#45;&gt;37</title>
<path fill="none" stroke="black" d="M116.32,-207.76C116.32,-199.65 116.32,-190.98 116.32,-182.52"/>
<polygon fill="black" stroke="black" points="119.82,-182.71 116.32,-172.71 112.82,-182.71 119.82,-182.71"/>
</g>
<!-- &#45;1 -->
<g id="node5" class="node">
<title>&#45;1</title>
<ellipse fill="none" stroke="black" cx="116.32" cy="-27.93" rx="73.36" ry="27.93"/>
<text text-anchor="middle" x="116.32" y="-30.38" font-family="Times New Roman,serif" font-size="14.00">NonTerminal: S</text>
<text text-anchor="middle" x="116.32" y="-14.63" font-family="Times New Roman,serif" font-size="14.00">.0@&#45;1</text>
</g>
<!-- 37&#45;&gt;&#45;1 -->
<g id="edge1" class="edge">
<title>37&#45;&gt;&#45;1</title>
<path fill="none" stroke="black" d="M116.32,-92.37C116.32,-84.26 116.32,-75.7 116.32,-67.58"/>
<polygon fill="black" stroke="black" points="119.82,-67.63 116.32,-57.63 112.82,-67.63 119.82,-67.63"/>
</g>
<!-- todoLists&#45;&gt;todo&#45;1 -->
<g id="edge5" class="edge">
<title>todoLists:1&#45;&gt;todo&#45;1</title>
<path fill="none" stroke="black" d="M201.44,-426.63C201.44,-413.24 201.61,-398.39 201.8,-385.89"/>
<polygon fill="black" stroke="black" points="205.29,-386.31 201.95,-376.25 198.29,-386.2 205.29,-386.31"/>
</g>
<!-- unexpandableNodes -->
<g id="node11" class="node">
<title>unexpandableNodes</title>
<polygon fill="none" stroke="black" points="977.32,-338.38 977.32,-374.38 1031.32,-374.38 1031.32,-338.38 977.32,-338.38"/>
<text text-anchor="middle" x="1004.19" y="-350.96" font-family="Times New Roman,serif" font-size="14.00"> </text>
</g>
<!-- 78 -->
<g id="node12" class="node">
<title>78</title>
<ellipse fill="none" stroke="black" cx="1104.32" cy="-247.06" rx="35.71" ry="27.93"/>
<text text-anchor="middle" x="1104.32" y="-249.51" font-family="Times New Roman,serif" font-size="14.00">Char: </text>
<text text-anchor="middle" x="1104.32" y="-233.76" font-family="Times New Roman,serif" font-size="14.00">.0@&#45;1</text>
</g>
<!-- unmatchableLeafNodes -->
<g id="node13" class="node">
<title>unmatchableLeafNodes</title>
<polygon fill="none" stroke="black" points="1077.32,-338.38 1077.32,-374.38 1131.32,-374.38 1131.32,-338.38 1077.32,-338.38"/>
<text text-anchor="middle" x="1104.19" y="-350.96" font-family="Times New Roman,serif" font-size="14.00">0</text>
</g>
<!-- unmatchableLeafNodes&#45;&gt;78 -->
<g id="edge10" class="edge">
<title>unmatchableLeafNodes:0&#45;&gt;78</title>
<path fill="none" stroke="black" d="M1104.22,-338.01C1104.23,-323.95 1104.25,-304.06 1104.27,-286.56"/>
<polygon fill="black" stroke="black" points="1107.77,-287.01 1104.29,-277 1100.77,-287 1107.77,-287.01"/>
</g>
<!-- unmatchableMidProductionNodes -->
<g id="node14" class="node">
<title>unmatchableMidProductionNodes</title>
<polygon fill="none" stroke="black" points="1199.32,-338.38 1199.32,-374.38 1253.32,-374.38 1253.32,-338.38 1199.32,-338.38"/>
<text text-anchor="middle" x="1226.19" y="-350.96" font-family="Times New Roman,serif" font-size="14.00"> </text>
</g>
<!-- filteredNodes -->
<g id="node15" class="node">
<title>filteredNodes</title>
<polygon fill="none" stroke="black" points="1348.32,-338.38 1348.32,-374.38 1402.32,-374.38 1402.32,-338.38 1348.32,-338.38"/>
<text text-anchor="middle" x="1375.19" y="-350.96" font-family="Times New Roman,serif" font-size="14.00"> </text>
</g>
<!-- error&#45;&gt;unexpandableNodes -->
<g id="edge12" class="edge">
<title>error&#45;&gt;unexpandableNodes</title>
<path fill="none" stroke="black" d="M1132.19,-439.9C1094.42,-434.43 1035.82,-423.78 1019.82,-408.63 1013.51,-402.66 1009.74,-394.21 1007.5,-385.89"/>
<polygon fill="black" stroke="black" points="1010.99,-385.48 1005.59,-376.36 1004.12,-386.85 1010.99,-385.48"/>
<text text-anchor="middle" x="1058.57" y="-395.33" font-family="Times New Roman,serif" font-size="14.00">unexpandable</text>
</g>
<!-- error&#45;&gt;unmatchableLeafNodes -->
<g id="edge13" class="edge">
<title>error&#45;&gt;unmatchableLeafNodes</title>
<path fill="none" stroke="black" d="M1137.15,-434.63C1125.15,-429.04 1112.33,-420.66 1105.32,-408.63 1101.39,-401.89 1100.03,-393.76 1099.95,-385.98"/>
<polygon fill="black" stroke="black" points="1103.43,-386.37 1100.54,-376.17 1096.44,-385.95 1103.43,-386.37"/>
<text text-anchor="middle" x="1154.82" y="-395.33" font-family="Times New Roman,serif" font-size="14.00">unmatchable leafs</text>
</g>
<!-- error&#45;&gt;unmatchableMidProductionNodes -->
<g id="edge14" class="edge">
<title>error&#45;&gt;unmatchableMidProductionNodes</title>
<path fill="none" stroke="black" d="M1184,-429.99C1191.03,-423.98 1198.69,-416.54 1204.32,-408.63 1209.36,-401.56 1213.57,-393.15 1216.91,-385.2"/>
<polygon fill="black" stroke="black" points="1220.17,-386.48 1220.51,-375.89 1213.64,-383.96 1220.17,-386.48"/>
<text text-anchor="middle" x="1275.32" y="-395.33" font-family="Times New Roman,serif" font-size="14.00">unmatchable mid&#45;prod</text>
</g>
<!-- error&#45;&gt;filteredNodes -->
<g id="edge15" class="edge">
<title>error&#45;&gt;filteredNodes</title>
<path fill="none" stroke="black" d="M1199.63,-444.92C1237.67,-444.16 1299.33,-437.94 1342.32,-408.63 1350.99,-402.72 1357.9,-393.7 1363.1,-384.86"/>
<polygon fill="black" stroke="black" points="1366.15,-386.58 1367.73,-376.11 1359.96,-383.31 1366.15,-386.58"/>
<text text-anchor="middle" x="1376.44" y="-395.33" font-family="Times New Roman,serif" font-size="14.00">filtered</text>
</g>
</g>
</svg>
