<?xml version="1.0" encoding="UTF-8" standalone="no"?>
<!DOCTYPE svg PUBLIC "-//W3C//DTD SVG 1.1//EN"
 "http://www.w3.org/Graphics/SVG/1.1/DTD/svg11.dtd">
<!-- Generated by graphviz version 12.0.0 (20240704.0754)
 -->
<!-- Title: Parser Pages: 1 -->
<svg width="1211pt" height="624pt"
 viewBox="0.00 0.00 1211.00 623.79" xmlns="http://www.w3.org/2000/svg" xmlns:xlink="http://www.w3.org/1999/xlink">
<g id="graph0" class="graph" transform="scale(1 1) rotate(0) translate(4 619.79)">
<title>Parser</title>
<polygon fill="white" stroke="none" points="-4,4 -4,-619.79 1207,-619.79 1207,4 -4,4"/>
<!-- Parser -->
<g id="node1" class="node">
<title>Parser</title>
<ellipse fill="none" stroke="black" cx="716" cy="-565.59" rx="121.62" ry="50.2"/>
<text text-anchor="middle" x="716" y="-583.79" font-family="Times New Roman,serif" font-size="14.00">Parser</text>
<text text-anchor="middle" x="716" y="-568.04" font-family="Times New Roman,serif" font-size="14.00">Input: &quot;a b x $&quot;</text>
<text text-anchor="middle" x="716" y="-552.29" font-family="Times New Roman,serif" font-size="14.00">Location: 7 (&#39;$&#39;)</text>
<text text-anchor="middle" x="716" y="-536.54" font-family="Times New Roman,serif" font-size="14.00">Step 42: Reducing terminals</text>
</g>
<!-- todoLists -->
<g id="node7" class="node">
<title>todoLists</title>
<polygon fill="none" stroke="black" points="0,-427.13 0,-463.13 552,-463.13 552,-427.13 0,-427.13"/>
<text text-anchor="middle" x="11.38" y="-439.71" font-family="Times New Roman,serif" font-size="14.00">0</text>
<polyline fill="none" stroke="black" points="22.75,-427.13 22.75,-463.13"/>
<text text-anchor="middle" x="34.12" y="-439.71" font-family="Times New Roman,serif" font-size="14.00">1</text>
<polyline fill="none" stroke="black" points="45.5,-427.13 45.5,-463.13"/>
<text text-anchor="middle" x="56.88" y="-439.71" font-family="Times New Roman,serif" font-size="14.00">2</text>
<polyline fill="none" stroke="black" points="68.25,-427.13 68.25,-463.13"/>
<text text-anchor="middle" x="79.62" y="-439.71" font-family="Times New Roman,serif" font-size="14.00">3</text>
<polyline fill="none" stroke="black" points="91,-427.13 91,-463.13"/>
<text text-anchor="middle" x="102.38" y="-439.71" font-family="Times New Roman,serif" font-size="14.00">4</text>
<polyline fill="none" stroke="black" points="113.75,-427.13 113.75,-463.13"/>
<text text-anchor="middle" x="125.12" y="-439.71" font-family="Times New Roman,serif" font-size="14.00">5</text>
<polyline fill="none" stroke="black" points="136.5,-427.13 136.5,-463.13"/>
<text text-anchor="middle" x="147.88" y="-439.71" font-family="Times New Roman,serif" font-size="14.00">6</text>
<polyline fill="none" stroke="black" points="159.25,-427.13 159.25,-463.13"/>
<text text-anchor="middle" x="170.62" y="-439.71" font-family="Times New Roman,serif" font-size="14.00">7</text>
<polyline fill="none" stroke="black" points="182,-427.13 182,-463.13"/>
<text text-anchor="middle" x="193.38" y="-439.71" font-family="Times New Roman,serif" font-size="14.00">8</text>
<polyline fill="none" stroke="black" points="204.75,-427.13 204.75,-463.13"/>
<text text-anchor="middle" x="216.12" y="-439.71" font-family="Times New Roman,serif" font-size="14.00">9</text>
<polyline fill="none" stroke="black" points="227.5,-427.13 227.5,-463.13"/>
<text text-anchor="middle" x="242.25" y="-439.71" font-family="Times New Roman,serif" font-size="14.00">10</text>
<polyline fill="none" stroke="black" points="257,-427.13 257,-463.13"/>
<text text-anchor="middle" x="271.75" y="-439.71" font-family="Times New Roman,serif" font-size="14.00">11</text>
<polyline fill="none" stroke="black" points="286.5,-427.13 286.5,-463.13"/>
<text text-anchor="middle" x="301.25" y="-439.71" font-family="Times New Roman,serif" font-size="14.00">12</text>
<polyline fill="none" stroke="black" points="316,-427.13 316,-463.13"/>
<text text-anchor="middle" x="330.75" y="-439.71" font-family="Times New Roman,serif" font-size="14.00">13</text>
<polyline fill="none" stroke="black" points="345.5,-427.13 345.5,-463.13"/>
<text text-anchor="middle" x="360.25" y="-439.71" font-family="Times New Roman,serif" font-size="14.00">14</text>
<polyline fill="none" stroke="black" points="375,-427.13 375,-463.13"/>
<text text-anchor="middle" x="389.75" y="-439.71" font-family="Times New Roman,serif" font-size="14.00">15</text>
<polyline fill="none" stroke="black" points="404.5,-427.13 404.5,-463.13"/>
<text text-anchor="middle" x="419.25" y="-439.71" font-family="Times New Roman,serif" font-size="14.00">16</text>
<polyline fill="none" stroke="black" points="434,-427.13 434,-463.13"/>
<text text-anchor="middle" x="448.75" y="-439.71" font-family="Times New Roman,serif" font-size="14.00">17</text>
<polyline fill="none" stroke="black" points="463.5,-427.13 463.5,-463.13"/>
<text text-anchor="middle" x="478.25" y="-439.71" font-family="Times New Roman,serif" font-size="14.00">18</text>
<polyline fill="none" stroke="black" points="493,-427.13 493,-463.13"/>
<text text-anchor="middle" x="507.75" y="-439.71" font-family="Times New Roman,serif" font-size="14.00">19</text>
<polyline fill="none" stroke="black" points="522.5,-427.13 522.5,-463.13"/>
<text text-anchor="middle" x="537.25" y="-439.71" font-family="Times New Roman,serif" font-size="14.00">20</text>
</g>
<!-- Parser&#45;&gt;todoLists -->
<g id="edge6" class="edge">
<title>Parser&#45;&gt;todoLists</title>
<path fill="none" stroke="black" d="M614.78,-537.34C534.65,-515.76 424.49,-486.11 351.82,-466.54"/>
<polygon fill="black" stroke="black" points="352.96,-463.23 342.4,-464.01 351.14,-469.99 352.96,-463.23"/>
<text text-anchor="middle" x="482.88" y="-484.08" font-family="Times New Roman,serif" font-size="14.00">todo lists</text>
</g>
<!-- stacksToExpand -->
<g id="node8" class="node">
<title>stacksToExpand</title>
<polygon fill="none" stroke="black" points="712,-427.13 712,-463.13 766,-463.13 766,-427.13 712,-427.13"/>
<text text-anchor="middle" x="738.88" y="-439.71" font-family="Times New Roman,serif" font-size="14.00"> </text>
</g>
<!-- Parser&#45;&gt;stacksToExpand -->
<g id="edge7" class="edge">
<title>Parser&#45;&gt;stacksToExpand</title>
<path fill="none" stroke="black" d="M712.66,-515.26C713.06,-504.04 714.42,-492.29 717.5,-481.63 718.31,-478.85 719.39,-476.06 720.64,-473.34"/>
<polygon fill="black" stroke="black" points="723.66,-475.12 725.38,-464.66 717.51,-471.76 723.66,-475.12"/>
<text text-anchor="middle" x="765.25" y="-484.08" font-family="Times New Roman,serif" font-size="14.00">stacks to expand</text>
</g>
<!-- terminalsToReduce -->
<g id="node9" class="node">
<title>terminalsToReduce</title>
<polygon fill="none" stroke="red" points="450,-338.38 450,-374.38 504,-374.38 504,-338.38 450,-338.38"/>
<text text-anchor="middle" x="476.88" y="-350.96" font-family="Times New Roman,serif" font-size="14.00">0</text>
</g>
<!-- Parser&#45;&gt;terminalsToReduce -->
<g id="edge10" class="edge">
<title>Parser&#45;&gt;terminalsToReduce</title>
<path fill="none" stroke="black" d="M661.9,-520.37C641.3,-503.08 617.84,-482.82 597.25,-463.63 580.41,-447.94 577.96,-442.2 561,-426.63 543.96,-411 524.03,-394.49 507.85,-381.52"/>
<polygon fill="black" stroke="black" points="510.48,-379.13 500.48,-375.64 506.12,-384.61 510.48,-379.13"/>
<text text-anchor="middle" x="650.88" y="-439.71" font-family="Times New Roman,serif" font-size="14.00">terminals to reduce</text>
</g>
<!-- nonTerminalsToReduce -->
<g id="node10" class="node">
<title>nonTerminalsToReduce</title>
<polygon fill="none" stroke="black" points="807,-427.13 807,-463.13 861,-463.13 861,-427.13 807,-427.13"/>
<text text-anchor="middle" x="833.88" y="-439.71" font-family="Times New Roman,serif" font-size="14.00"> </text>
</g>
<!-- Parser&#45;&gt;nonTerminalsToReduce -->
<g id="edge11" class="edge">
<title>Parser&#45;&gt;nonTerminalsToReduce</title>
<path fill="none" stroke="black" d="M784.62,-523.77C794.62,-515.87 804.17,-507.01 812,-497.38 817.54,-490.56 821.92,-482.14 825.26,-474.11"/>
<polygon fill="black" stroke="black" points="828.45,-475.59 828.66,-464.99 821.89,-473.14 828.45,-475.59"/>
<text text-anchor="middle" x="886.62" y="-484.08" font-family="Times New Roman,serif" font-size="14.00">non&#45;terminals to reduce</text>
</g>
<!-- error -->
<g id="node15" class="node">
<title>error</title>
<ellipse fill="none" stroke="black" cx="988" cy="-445.13" rx="34.1" ry="18"/>
<text text-anchor="middle" x="988" y="-439.71" font-family="Times New Roman,serif" font-size="14.00">Errors</text>
</g>
<!-- Parser&#45;&gt;error -->
<g id="edge12" class="edge">
<title>Parser&#45;&gt;error</title>
<path fill="none" stroke="black" d="M832.18,-549.96C874.29,-540.27 920.24,-524.16 956,-497.38 964.33,-491.15 971.01,-482.05 976.06,-473.24"/>
<polygon fill="black" stroke="black" points="979.06,-475.06 980.56,-464.57 972.85,-471.84 979.06,-475.06"/>
<text text-anchor="middle" x="1007.5" y="-484.08" font-family="Times New Roman,serif" font-size="14.00">error tracking</text>
</g>
<!-- todo&#45;1 -->
<g id="node2" class="node">
<title>todo&#45;1</title>
<polygon fill="none" stroke="black" points="339,-338.38 339,-374.38 393,-374.38 393,-338.38 339,-338.38"/>
<text text-anchor="middle" x="365.88" y="-350.96" font-family="Times New Roman,serif" font-size="14.00">0</text>
</g>
<!-- 86 -->
<g id="node3" class="node">
<title>86</title>
<ellipse fill="none" stroke="black" cx="354" cy="-247.06" rx="62.23" ry="39.07"/>
<text text-anchor="middle" x="354" y="-257.39" font-family="Times New Roman,serif" font-size="14.00">Literal: </text>
<text text-anchor="middle" x="354" y="-241.64" font-family="Times New Roman,serif" font-size="14.00">.0@6</text>
<text text-anchor="middle" x="354" y="-225.89" font-family="Times New Roman,serif" font-size="14.00">in: &#39;End &#45;&gt; $&#39;</text>
</g>
<!-- todo&#45;1&#45;&gt;86 -->
<g id="edge3" class="edge">
<title>todo&#45;1:sw&#45;&gt;86</title>
<path fill="none" stroke="black" d="M339,-337.88C327.83,-326.71 327.66,-310.57 331.62,-295.05"/>
<polygon fill="black" stroke="black" points="334.83,-296.5 334.48,-285.91 328.15,-294.41 334.83,-296.5"/>
<text text-anchor="middle" x="345.75" y="-306.58" font-family="Times New Roman,serif" font-size="14.00">Stack</text>
</g>
<!-- 1465663131 -->
<g id="node6" class="node">
<title>1465663131</title>
<polygon fill="none" stroke="black" points="547.57,-239.61 547.57,-254.52 516.78,-265.06 473.22,-265.06 442.43,-254.52 442.43,-239.61 473.22,-229.06 516.78,-229.06 547.57,-239.61"/>
<text text-anchor="middle" x="495" y="-241.64" font-family="Times New Roman,serif" font-size="14.00">Literal &quot;$&quot;</text>
</g>
<!-- todo&#45;1&#45;&gt;1465663131 -->
<g id="edge4" class="edge">
<title>todo&#45;1:se&#45;&gt;1465663131</title>
<path fill="none" stroke="black" d="M392.75,-337.88C398.43,-332.21 391.58,-327.9 391.25,-319.88 390.96,-312.89 387.65,-310.13 391.25,-304.13 400,-289.55 410.03,-294.19 425,-286.13 435.41,-280.52 446.68,-274.42 457.07,-268.77"/>
<polygon fill="black" stroke="black" points="458.66,-271.89 465.77,-264.03 455.31,-265.74 458.66,-271.89"/>
<text text-anchor="middle" x="407.38" y="-306.58" font-family="Times New Roman,serif" font-size="14.00">Node</text>
</g>
<!-- 37 -->
<g id="node4" class="node">
<title>37</title>
<ellipse fill="none" stroke="black" cx="354" cy="-131.93" rx="116.32" ry="39.07"/>
<text text-anchor="middle" x="354" y="-142.25" font-family="Times New Roman,serif" font-size="14.00">NonTerminal: End</text>
<text text-anchor="middle" x="354" y="-126.5" font-family="Times New Roman,serif" font-size="14.00">.2@6</text>
<text text-anchor="middle" x="354" y="-110.75" font-family="Times New Roman,serif" font-size="14.00">in: &#39;S &#45;&gt; ABC Layout End&#39;</text>
</g>
<!-- 86&#45;&gt;37 -->
<g id="edge2" class="edge">
<title>86&#45;&gt;37</title>
<path fill="none" stroke="black" d="M354,-207.76C354,-199.65 354,-190.98 354,-182.52"/>
<polygon fill="black" stroke="black" points="357.5,-182.71 354,-172.71 350.5,-182.71 357.5,-182.71"/>
</g>
<!-- &#45;1 -->
<g id="node5" class="node">
<title>&#45;1</title>
<ellipse fill="none" stroke="black" cx="354" cy="-27.93" rx="73.36" ry="27.93"/>
<text text-anchor="middle" x="354" y="-30.38" font-family="Times New Roman,serif" font-size="14.00">NonTerminal: S</text>
<text text-anchor="middle" x="354" y="-14.63" font-family="Times New Roman,serif" font-size="14.00">.0@&#45;1</text>
</g>
<!-- 37&#45;&gt;&#45;1 -->
<g id="edge1" class="edge">
<title>37&#45;&gt;&#45;1</title>
<path fill="none" stroke="black" d="M354,-92.37C354,-84.26 354,-75.7 354,-67.58"/>
<polygon fill="black" stroke="black" points="357.5,-67.63 354,-57.63 350.5,-67.63 357.5,-67.63"/>
</g>
<!-- todoLists&#45;&gt;todo&#45;1 -->
<g id="edge5" class="edge">
<title>todoLists:1&#45;&gt;todo&#45;1</title>
<path fill="none" stroke="black" d="M34.12,-426.63C34.12,-367.34 239.71,-358.48 327.27,-357.4"/>
<polygon fill="black" stroke="black" points="327.08,-360.9 337.05,-357.31 327.01,-353.9 327.08,-360.9"/>
</g>
<!-- terminalsToReduce&#45;&gt;86 -->
<g id="edge8" class="edge">
<title>terminalsToReduce:sw&#45;&gt;86</title>
<path fill="none" stroke="black" d="M450,-337.88C436.99,-324.87 438.73,-317.43 426,-304.13 419.23,-297.06 411.54,-290.14 403.76,-283.71"/>
<polygon fill="black" stroke="black" points="406.16,-281.15 396.17,-277.62 401.78,-286.61 406.16,-281.15"/>
<text text-anchor="middle" x="453.75" y="-306.58" font-family="Times New Roman,serif" font-size="14.00">Stack</text>
</g>
<!-- terminalsToReduce&#45;&gt;1465663131 -->
<g id="edge9" class="edge">
<title>terminalsToReduce:se&#45;&gt;1465663131</title>
<path fill="none" stroke="black" d="M503.75,-337.88C519.57,-322.07 515.02,-295.95 507.9,-275.95"/>
<polygon fill="black" stroke="black" points="511.17,-274.7 504.23,-266.69 504.67,-277.28 511.17,-274.7"/>
<text text-anchor="middle" x="530.38" y="-306.58" font-family="Times New Roman,serif" font-size="14.00">Node</text>
</g>
<!-- unexpandableNodes -->
<g id="node11" class="node">
<title>unexpandableNodes</title>
<polygon fill="none" stroke="black" points="997,-338.38 997,-374.38 1051,-374.38 1051,-338.38 997,-338.38"/>
<text text-anchor="middle" x="1023.88" y="-350.96" font-family="Times New Roman,serif" font-size="14.00"> </text>
</g>
<!-- unmatchableLeafNodes -->
<g id="node12" class="node">
<title>unmatchableLeafNodes</title>
<polygon fill="none" stroke="black" points="1094,-338.38 1094,-374.38 1148,-374.38 1148,-338.38 1094,-338.38"/>
<text text-anchor="middle" x="1120.88" y="-350.96" font-family="Times New Roman,serif" font-size="14.00"> </text>
</g>
<!-- unmatchableMidProductionNodes -->
<g id="node13" class="node">
<title>unmatchableMidProductionNodes</title>
<polygon fill="none" stroke="black" points="779,-338.38 779,-374.38 833,-374.38 833,-338.38 779,-338.38"/>
<text text-anchor="middle" x="805.88" y="-350.96" font-family="Times New Roman,serif" font-size="14.00"> </text>
</g>
<!-- filteredNodes -->
<g id="node14" class="node">
<title>filteredNodes</title>
<polygon fill="none" stroke="black" points="925,-338.38 925,-374.38 979,-374.38 979,-338.38 925,-338.38"/>
<text text-anchor="middle" x="951.88" y="-350.96" font-family="Times New Roman,serif" font-size="14.00"> </text>
</g>
<!-- error&#45;&gt;unexpandableNodes -->
<g id="edge13" class="edge">
<title>error&#45;&gt;unexpandableNodes</title>
<path fill="none" stroke="black" d="M994.94,-427.41C999.91,-415.44 1006.71,-399.06 1012.48,-385.15"/>
<polygon fill="black" stroke="black" points="1015.65,-386.63 1016.25,-376.05 1009.19,-383.94 1015.65,-386.63"/>
<text text-anchor="middle" x="1047.25" y="-395.33" font-family="Times New Roman,serif" font-size="14.00">unexpandable</text>
</g>
<!-- error&#45;&gt;unmatchableLeafNodes -->
<g id="edge14" class="edge">
<title>error&#45;&gt;unmatchableLeafNodes</title>
<path fill="none" stroke="black" d="M1020.22,-438.84C1041.82,-433.96 1069.89,-424.92 1090,-408.63 1097.81,-402.3 1104.15,-393.44 1109,-384.87"/>
<polygon fill="black" stroke="black" points="1112.06,-386.58 1113.5,-376.09 1105.83,-383.39 1112.06,-386.58"/>
<text text-anchor="middle" x="1153.5" y="-395.33" font-family="Times New Roman,serif" font-size="14.00">unmatchable leafs</text>
</g>
<!-- error&#45;&gt;unmatchableMidProductionNodes -->
<g id="edge15" class="edge">
<title>error&#45;&gt;unmatchableMidProductionNodes</title>
<path fill="none" stroke="black" d="M954.76,-440.67C912.88,-435.68 844.08,-425.2 825,-408.63 818.13,-402.66 813.73,-393.97 810.93,-385.43"/>
<polygon fill="black" stroke="black" points="814.38,-384.79 808.47,-376 807.61,-386.56 814.38,-384.79"/>
<text text-anchor="middle" x="888" y="-395.33" font-family="Times New Roman,serif" font-size="14.00">unmatchable mid&#45;prod</text>
</g>
<!-- error&#45;&gt;filteredNodes -->
<g id="edge16" class="edge">
<title>error&#45;&gt;filteredNodes</title>
<path fill="none" stroke="black" d="M972.82,-428.69C967.9,-422.85 962.9,-415.85 959.75,-408.63 956.68,-401.59 954.8,-393.56 953.65,-385.97"/>
<polygon fill="black" stroke="black" points="957.14,-385.67 952.55,-376.12 950.18,-386.44 957.14,-385.67"/>
<text text-anchor="middle" x="978.12" y="-395.33" font-family="Times New Roman,serif" font-size="14.00">filtered</text>
</g>
</g>
</svg>
