<?xml version="1.0" encoding="UTF-8" standalone="no"?>
<!DOCTYPE svg PUBLIC "-//W3C//DTD SVG 1.1//EN"
 "http://www.w3.org/Graphics/SVG/1.1/DTD/svg11.dtd">
<!-- Generated by graphviz version 12.0.0 (20240704.0754)
 -->
<!-- Title: Parser Pages: 1 -->
<svg width="1381pt" height="420pt"
 viewBox="0.00 0.00 1381.00 419.91" xmlns="http://www.w3.org/2000/svg" xmlns:xlink="http://www.w3.org/1999/xlink">
<g id="graph0" class="graph" transform="scale(1 1) rotate(0) translate(4 415.91)">
<title>Parser</title>
<polygon fill="white" stroke="none" points="-4,4 -4,-415.91 1377,-415.91 1377,4 -4,4"/>
<!-- Parser -->
<g id="node1" class="node">
<title>Parser</title>
<ellipse fill="none" stroke="black" cx="715" cy="-361.7" rx="139.65" ry="50.2"/>
<text text-anchor="middle" x="715" y="-379.9" font-family="Times New Roman,serif" font-size="14.00">Parser</text>
<text text-anchor="middle" x="715" y="-364.15" font-family="Times New Roman,serif" font-size="14.00">Input: &quot;a b x $&quot;</text>
<text text-anchor="middle" x="715" y="-348.4" font-family="Times New Roman,serif" font-size="14.00">Location: 7 (&#39;$&#39;)</text>
<text text-anchor="middle" x="715" y="-332.65" font-family="Times New Roman,serif" font-size="14.00">Step 43: Reducing non&#45;terminals</text>
</g>
<!-- todoLists -->
<g id="node2" class="node">
<title>todoLists</title>
<polygon fill="none" stroke="black" points="0,-223.25 0,-259.25 552,-259.25 552,-223.25 0,-223.25"/>
<text text-anchor="middle" x="11.38" y="-235.82" font-family="Times New Roman,serif" font-size="14.00">0</text>
<polyline fill="none" stroke="black" points="22.75,-223.25 22.75,-259.25"/>
<text text-anchor="middle" x="34.12" y="-235.82" font-family="Times New Roman,serif" font-size="14.00">1</text>
<polyline fill="none" stroke="black" points="45.5,-223.25 45.5,-259.25"/>
<text text-anchor="middle" x="56.88" y="-235.82" font-family="Times New Roman,serif" font-size="14.00">2</text>
<polyline fill="none" stroke="black" points="68.25,-223.25 68.25,-259.25"/>
<text text-anchor="middle" x="79.62" y="-235.82" font-family="Times New Roman,serif" font-size="14.00">3</text>
<polyline fill="none" stroke="black" points="91,-223.25 91,-259.25"/>
<text text-anchor="middle" x="102.38" y="-235.82" font-family="Times New Roman,serif" font-size="14.00">4</text>
<polyline fill="none" stroke="black" points="113.75,-223.25 113.75,-259.25"/>
<text text-anchor="middle" x="125.12" y="-235.82" font-family="Times New Roman,serif" font-size="14.00">5</text>
<polyline fill="none" stroke="black" points="136.5,-223.25 136.5,-259.25"/>
<text text-anchor="middle" x="147.88" y="-235.82" font-family="Times New Roman,serif" font-size="14.00">6</text>
<polyline fill="none" stroke="black" points="159.25,-223.25 159.25,-259.25"/>
<text text-anchor="middle" x="170.62" y="-235.82" font-family="Times New Roman,serif" font-size="14.00">7</text>
<polyline fill="none" stroke="black" points="182,-223.25 182,-259.25"/>
<text text-anchor="middle" x="193.38" y="-235.82" font-family="Times New Roman,serif" font-size="14.00">8</text>
<polyline fill="none" stroke="black" points="204.75,-223.25 204.75,-259.25"/>
<text text-anchor="middle" x="216.12" y="-235.82" font-family="Times New Roman,serif" font-size="14.00">9</text>
<polyline fill="none" stroke="black" points="227.5,-223.25 227.5,-259.25"/>
<text text-anchor="middle" x="242.25" y="-235.82" font-family="Times New Roman,serif" font-size="14.00">10</text>
<polyline fill="none" stroke="black" points="257,-223.25 257,-259.25"/>
<text text-anchor="middle" x="271.75" y="-235.82" font-family="Times New Roman,serif" font-size="14.00">11</text>
<polyline fill="none" stroke="black" points="286.5,-223.25 286.5,-259.25"/>
<text text-anchor="middle" x="301.25" y="-235.82" font-family="Times New Roman,serif" font-size="14.00">12</text>
<polyline fill="none" stroke="black" points="316,-223.25 316,-259.25"/>
<text text-anchor="middle" x="330.75" y="-235.82" font-family="Times New Roman,serif" font-size="14.00">13</text>
<polyline fill="none" stroke="black" points="345.5,-223.25 345.5,-259.25"/>
<text text-anchor="middle" x="360.25" y="-235.82" font-family="Times New Roman,serif" font-size="14.00">14</text>
<polyline fill="none" stroke="black" points="375,-223.25 375,-259.25"/>
<text text-anchor="middle" x="389.75" y="-235.82" font-family="Times New Roman,serif" font-size="14.00">15</text>
<polyline fill="none" stroke="black" points="404.5,-223.25 404.5,-259.25"/>
<text text-anchor="middle" x="419.25" y="-235.82" font-family="Times New Roman,serif" font-size="14.00">16</text>
<polyline fill="none" stroke="black" points="434,-223.25 434,-259.25"/>
<text text-anchor="middle" x="448.75" y="-235.82" font-family="Times New Roman,serif" font-size="14.00">17</text>
<polyline fill="none" stroke="black" points="463.5,-223.25 463.5,-259.25"/>
<text text-anchor="middle" x="478.25" y="-235.82" font-family="Times New Roman,serif" font-size="14.00">18</text>
<polyline fill="none" stroke="black" points="493,-223.25 493,-259.25"/>
<text text-anchor="middle" x="507.75" y="-235.82" font-family="Times New Roman,serif" font-size="14.00">19</text>
<polyline fill="none" stroke="black" points="522.5,-223.25 522.5,-259.25"/>
<text text-anchor="middle" x="537.25" y="-235.82" font-family="Times New Roman,serif" font-size="14.00">20</text>
</g>
<!-- Parser&#45;&gt;todoLists -->
<g id="edge1" class="edge">
<title>Parser&#45;&gt;todoLists</title>
<path fill="none" stroke="black" d="M604.22,-330.81C525.26,-309.5 421.18,-281.42 351.6,-262.65"/>
<polygon fill="black" stroke="black" points="352.77,-259.34 342.2,-260.11 350.94,-266.09 352.77,-259.34"/>
<text text-anchor="middle" x="482.88" y="-280.2" font-family="Times New Roman,serif" font-size="14.00">todo lists</text>
</g>
<!-- stacksToExpand -->
<g id="node3" class="node">
<title>stacksToExpand</title>
<polygon fill="none" stroke="black" points="570,-223.25 570,-259.25 624,-259.25 624,-223.25 570,-223.25"/>
<text text-anchor="middle" x="596.88" y="-235.82" font-family="Times New Roman,serif" font-size="14.00"> </text>
</g>
<!-- Parser&#45;&gt;stacksToExpand -->
<g id="edge2" class="edge">
<title>Parser&#45;&gt;stacksToExpand</title>
<path fill="none" stroke="black" d="M642.22,-318.8C632.74,-311.23 623.81,-302.76 616.5,-293.5 611.21,-286.79 607.23,-278.49 604.3,-270.54"/>
<polygon fill="black" stroke="black" points="607.68,-269.61 601.28,-261.17 601.02,-271.76 607.68,-269.61"/>
<text text-anchor="middle" x="664.25" y="-280.2" font-family="Times New Roman,serif" font-size="14.00">stacks to expand</text>
</g>
<!-- terminalsToReduce -->
<g id="node4" class="node">
<title>terminalsToReduce</title>
<polygon fill="none" stroke="black" points="688,-223.25 688,-259.25 742,-259.25 742,-223.25 688,-223.25"/>
<text text-anchor="middle" x="714.88" y="-235.82" font-family="Times New Roman,serif" font-size="14.00"> </text>
</g>
<!-- Parser&#45;&gt;terminalsToReduce -->
<g id="edge3" class="edge">
<title>Parser&#45;&gt;terminalsToReduce</title>
<path fill="none" stroke="black" d="M715,-311.15C715,-297.36 715,-282.85 715,-270.73"/>
<polygon fill="black" stroke="black" points="718.5,-271.02 715,-261.02 711.5,-271.02 718.5,-271.02"/>
<text text-anchor="middle" x="767.88" y="-280.2" font-family="Times New Roman,serif" font-size="14.00">terminals to reduce</text>
</g>
<!-- nonTerminalsToReduce -->
<g id="node5" class="node">
<title>nonTerminalsToReduce</title>
<polygon fill="none" stroke="red" points="788,-223.25 788,-259.25 842,-259.25 842,-223.25 788,-223.25"/>
<text text-anchor="middle" x="814.88" y="-235.82" font-family="Times New Roman,serif" font-size="14.00">0</text>
</g>
<!-- Parser&#45;&gt;nonTerminalsToReduce -->
<g id="edge7" class="edge">
<title>Parser&#45;&gt;nonTerminalsToReduce</title>
<path fill="none" stroke="black" d="M798.51,-321C807.9,-313.18 816.16,-304.06 822,-293.5 825.85,-286.53 826.2,-278.23 825,-270.37"/>
<polygon fill="black" stroke="black" points="828.45,-269.76 822.72,-260.84 821.64,-271.38 828.45,-269.76"/>
<text text-anchor="middle" x="891.62" y="-280.2" font-family="Times New Roman,serif" font-size="14.00">non&#45;terminals to reduce</text>
</g>
<!-- error -->
<g id="node13" class="node">
<title>error</title>
<ellipse fill="none" stroke="black" cx="1075" cy="-241.25" rx="34.1" ry="18"/>
<text text-anchor="middle" x="1075" y="-235.82" font-family="Times New Roman,serif" font-size="14.00">Errors</text>
</g>
<!-- Parser&#45;&gt;error -->
<g id="edge8" class="edge">
<title>Parser&#45;&gt;error</title>
<path fill="none" stroke="black" d="M830.67,-333.07C872.21,-322.11 919.12,-308.53 961,-293.5 988.38,-283.67 1018.35,-270.08 1040.68,-259.36"/>
<polygon fill="black" stroke="black" points="1042.16,-262.54 1049.63,-255.02 1039.1,-256.24 1042.16,-262.54"/>
<text text-anchor="middle" x="1036.5" y="-280.2" font-family="Times New Roman,serif" font-size="14.00">error tracking</text>
</g>
<!-- 37 -->
<g id="node6" class="node">
<title>37</title>
<ellipse fill="none" stroke="black" cx="618" cy="-131.93" rx="116.32" ry="39.07"/>
<text text-anchor="middle" x="618" y="-142.25" font-family="Times New Roman,serif" font-size="14.00">NonTerminal: End</text>
<text text-anchor="middle" x="618" y="-126.5" font-family="Times New Roman,serif" font-size="14.00">.2@6</text>
<text text-anchor="middle" x="618" y="-110.75" font-family="Times New Roman,serif" font-size="14.00">in: &#39;S &#45;&gt; ABC Layout End&#39;</text>
</g>
<!-- nonTerminalsToReduce&#45;&gt;37 -->
<g id="edge5" class="edge">
<title>nonTerminalsToReduce:sw&#45;&gt;37</title>
<path fill="none" stroke="black" d="M788,-222.75C764.56,-199.31 733.73,-180.54 704.77,-166.35"/>
<polygon fill="black" stroke="black" points="706.52,-163.3 695.99,-162.17 703.51,-169.62 706.52,-163.3"/>
<text text-anchor="middle" x="780.75" y="-191.45" font-family="Times New Roman,serif" font-size="14.00">Stack</text>
</g>
<!-- 2081703861 -->
<g id="node8" class="node">
<title>2081703861</title>
<polygon fill="none" stroke="black" points="929.59,-119.41 929.59,-144.45 877.7,-162.16 804.3,-162.16 752.41,-144.45 752.41,-119.41 804.3,-101.7 877.7,-101.7 929.59,-119.41"/>
<text text-anchor="middle" x="841" y="-134.38" font-family="Times New Roman,serif" font-size="14.00">SortContainer 6&#45;7</text>
<text text-anchor="middle" x="841" y="-118.63" font-family="Times New Roman,serif" font-size="14.00">&#39;End &#45;&gt; $&#39;</text>
</g>
<!-- nonTerminalsToReduce&#45;&gt;2081703861 -->
<g id="edge6" class="edge">
<title>nonTerminalsToReduce:se&#45;&gt;2081703861</title>
<path fill="none" stroke="black" d="M841.75,-222.75C854.32,-210.17 855.55,-190.98 853.04,-173.56"/>
<polygon fill="black" stroke="black" points="856.52,-173.12 851.21,-163.95 849.64,-174.42 856.52,-173.12"/>
<text text-anchor="middle" x="870.38" y="-191.45" font-family="Times New Roman,serif" font-size="14.00">Node</text>
</g>
<!-- &#45;1 -->
<g id="node7" class="node">
<title>&#45;1</title>
<ellipse fill="none" stroke="black" cx="618" cy="-27.93" rx="73.36" ry="27.93"/>
<text text-anchor="middle" x="618" y="-30.38" font-family="Times New Roman,serif" font-size="14.00">NonTerminal: S</text>
<text text-anchor="middle" x="618" y="-14.63" font-family="Times New Roman,serif" font-size="14.00">.0@&#45;1</text>
</g>
<!-- 37&#45;&gt;&#45;1 -->
<g id="edge4" class="edge">
<title>37&#45;&gt;&#45;1</title>
<path fill="none" stroke="black" d="M618,-92.37C618,-84.26 618,-75.7 618,-67.58"/>
<polygon fill="black" stroke="black" points="621.5,-67.63 618,-57.63 614.5,-67.63 621.5,-67.63"/>
</g>
<!-- unexpandableNodes -->
<g id="node9" class="node">
<title>unexpandableNodes</title>
<polygon fill="none" stroke="black" points="948,-113.93 948,-149.93 1002,-149.93 1002,-113.93 948,-113.93"/>
<text text-anchor="middle" x="974.88" y="-126.5" font-family="Times New Roman,serif" font-size="14.00"> </text>
</g>
<!-- unmatchableLeafNodes -->
<g id="node10" class="node">
<title>unmatchableLeafNodes</title>
<polygon fill="none" stroke="black" points="1048,-113.93 1048,-149.93 1102,-149.93 1102,-113.93 1048,-113.93"/>
<text text-anchor="middle" x="1074.88" y="-126.5" font-family="Times New Roman,serif" font-size="14.00"> </text>
</g>
<!-- unmatchableMidProductionNodes -->
<g id="node11" class="node">
<title>unmatchableMidProductionNodes</title>
<polygon fill="none" stroke="black" points="1170,-113.93 1170,-149.93 1224,-149.93 1224,-113.93 1170,-113.93"/>
<text text-anchor="middle" x="1196.88" y="-126.5" font-family="Times New Roman,serif" font-size="14.00"> </text>
</g>
<!-- filteredNodes -->
<g id="node12" class="node">
<title>filteredNodes</title>
<polygon fill="none" stroke="black" points="1319,-113.93 1319,-149.93 1373,-149.93 1373,-113.93 1319,-113.93"/>
<text text-anchor="middle" x="1345.88" y="-126.5" font-family="Times New Roman,serif" font-size="14.00"> </text>
</g>
<!-- error&#45;&gt;unexpandableNodes -->
<g id="edge9" class="edge">
<title>error&#45;&gt;unexpandableNodes</title>
<path fill="none" stroke="black" d="M1043.91,-233.49C1027.06,-228.31 1007.15,-219.45 994.5,-204.75 984.23,-192.81 979.32,-175.96 976.99,-161.58"/>
<polygon fill="black" stroke="black" points="980.48,-161.24 975.77,-151.75 973.53,-162.11 980.48,-161.24"/>
<text text-anchor="middle" x="1032.25" y="-191.45" font-family="Times New Roman,serif" font-size="14.00">unexpandable</text>
</g>
<!-- error&#45;&gt;unmatchableLeafNodes -->
<g id="edge10" class="edge">
<title>error&#45;&gt;unmatchableLeafNodes</title>
<path fill="none" stroke="black" d="M1075,-223C1075,-206.42 1075,-181.05 1075,-161.45"/>
<polygon fill="black" stroke="black" points="1078.5,-161.64 1075,-151.64 1071.5,-161.64 1078.5,-161.64"/>
<text text-anchor="middle" x="1124.5" y="-191.45" font-family="Times New Roman,serif" font-size="14.00">unmatchable leafs</text>
</g>
<!-- error&#45;&gt;unmatchableMidProductionNodes -->
<g id="edge11" class="edge">
<title>error&#45;&gt;unmatchableMidProductionNodes</title>
<path fill="none" stroke="black" d="M1107.95,-236.28C1129.74,-231.99 1157.42,-223.11 1175,-204.75 1186.17,-193.08 1191.68,-175.88 1194.39,-161.24"/>
<polygon fill="black" stroke="black" points="1197.8,-162.11 1195.8,-151.7 1190.88,-161.09 1197.8,-162.11"/>
<text text-anchor="middle" x="1248" y="-191.45" font-family="Times New Roman,serif" font-size="14.00">unmatchable mid&#45;prod</text>
</g>
<!-- error&#45;&gt;filteredNodes -->
<g id="edge12" class="edge">
<title>error&#45;&gt;filteredNodes</title>
<path fill="none" stroke="black" d="M1109.23,-239.21C1167.66,-236.79 1283.44,-229 1315,-204.75 1328.64,-194.26 1336.38,-176.57 1340.71,-161.36"/>
<polygon fill="black" stroke="black" points="1344.06,-162.4 1343.04,-151.85 1337.26,-160.73 1344.06,-162.4"/>
<text text-anchor="middle" x="1347.12" y="-191.45" font-family="Times New Roman,serif" font-size="14.00">filtered</text>
</g>
</g>
</svg>
