<?xml version="1.0" encoding="UTF-8" standalone="no"?>
<!DOCTYPE svg PUBLIC "-//W3C//DTD SVG 1.1//EN"
 "http://www.w3.org/Graphics/SVG/1.1/DTD/svg11.dtd">
<!-- Generated by graphviz version 12.0.0 (20240704.0754)
 -->
<!-- Title: Parser Pages: 1 -->
<svg width="1243pt" height="286pt"
 viewBox="0.00 0.00 1243.00 285.91" xmlns="http://www.w3.org/2000/svg" xmlns:xlink="http://www.w3.org/1999/xlink">
<g id="graph0" class="graph" transform="scale(1 1) rotate(0) translate(4 281.91)">
<title>Parser</title>
<polygon fill="white" stroke="none" points="-4,4 -4,-281.91 1239,-281.91 1239,4 -4,4"/>
<!-- Parser -->
<g id="node1" class="node">
<title>Parser</title>
<ellipse fill="none" stroke="red" cx="715" cy="-227.7" rx="73.89" ry="50.2"/>
<text text-anchor="middle" x="715" y="-245.9" font-family="Times New Roman,serif" font-size="14.00">Parser</text>
<text text-anchor="middle" x="715" y="-230.15" font-family="Times New Roman,serif" font-size="14.00">Input: &quot;a b x $&quot;</text>
<text text-anchor="middle" x="715" y="-214.4" font-family="Times New Roman,serif" font-size="14.00">Location: 7 (&#39;$&#39;)</text>
<text text-anchor="middle" x="715" y="-198.65" font-family="Times New Roman,serif" font-size="14.00">Step 46: Done</text>
</g>
<!-- todoLists -->
<g id="node2" class="node">
<title>todoLists</title>
<polygon fill="none" stroke="black" points="0,-89.25 0,-125.25 552,-125.25 552,-89.25 0,-89.25"/>
<text text-anchor="middle" x="11.38" y="-101.83" font-family="Times New Roman,serif" font-size="14.00">0</text>
<polyline fill="none" stroke="black" points="22.75,-89.25 22.75,-125.25"/>
<text text-anchor="middle" x="34.12" y="-101.83" font-family="Times New Roman,serif" font-size="14.00">1</text>
<polyline fill="none" stroke="black" points="45.5,-89.25 45.5,-125.25"/>
<text text-anchor="middle" x="56.88" y="-101.83" font-family="Times New Roman,serif" font-size="14.00">2</text>
<polyline fill="none" stroke="black" points="68.25,-89.25 68.25,-125.25"/>
<text text-anchor="middle" x="79.62" y="-101.83" font-family="Times New Roman,serif" font-size="14.00">3</text>
<polyline fill="none" stroke="black" points="91,-89.25 91,-125.25"/>
<text text-anchor="middle" x="102.38" y="-101.83" font-family="Times New Roman,serif" font-size="14.00">4</text>
<polyline fill="none" stroke="black" points="113.75,-89.25 113.75,-125.25"/>
<text text-anchor="middle" x="125.12" y="-101.83" font-family="Times New Roman,serif" font-size="14.00">5</text>
<polyline fill="none" stroke="black" points="136.5,-89.25 136.5,-125.25"/>
<text text-anchor="middle" x="147.88" y="-101.83" font-family="Times New Roman,serif" font-size="14.00">6</text>
<polyline fill="none" stroke="black" points="159.25,-89.25 159.25,-125.25"/>
<text text-anchor="middle" x="170.62" y="-101.83" font-family="Times New Roman,serif" font-size="14.00">7</text>
<polyline fill="none" stroke="black" points="182,-89.25 182,-125.25"/>
<text text-anchor="middle" x="193.38" y="-101.83" font-family="Times New Roman,serif" font-size="14.00">8</text>
<polyline fill="none" stroke="black" points="204.75,-89.25 204.75,-125.25"/>
<text text-anchor="middle" x="216.12" y="-101.83" font-family="Times New Roman,serif" font-size="14.00">9</text>
<polyline fill="none" stroke="black" points="227.5,-89.25 227.5,-125.25"/>
<text text-anchor="middle" x="242.25" y="-101.83" font-family="Times New Roman,serif" font-size="14.00">10</text>
<polyline fill="none" stroke="black" points="257,-89.25 257,-125.25"/>
<text text-anchor="middle" x="271.75" y="-101.83" font-family="Times New Roman,serif" font-size="14.00">11</text>
<polyline fill="none" stroke="black" points="286.5,-89.25 286.5,-125.25"/>
<text text-anchor="middle" x="301.25" y="-101.83" font-family="Times New Roman,serif" font-size="14.00">12</text>
<polyline fill="none" stroke="black" points="316,-89.25 316,-125.25"/>
<text text-anchor="middle" x="330.75" y="-101.83" font-family="Times New Roman,serif" font-size="14.00">13</text>
<polyline fill="none" stroke="black" points="345.5,-89.25 345.5,-125.25"/>
<text text-anchor="middle" x="360.25" y="-101.83" font-family="Times New Roman,serif" font-size="14.00">14</text>
<polyline fill="none" stroke="black" points="375,-89.25 375,-125.25"/>
<text text-anchor="middle" x="389.75" y="-101.83" font-family="Times New Roman,serif" font-size="14.00">15</text>
<polyline fill="none" stroke="black" points="404.5,-89.25 404.5,-125.25"/>
<text text-anchor="middle" x="419.25" y="-101.83" font-family="Times New Roman,serif" font-size="14.00">16</text>
<polyline fill="none" stroke="black" points="434,-89.25 434,-125.25"/>
<text text-anchor="middle" x="448.75" y="-101.83" font-family="Times New Roman,serif" font-size="14.00">17</text>
<polyline fill="none" stroke="black" points="463.5,-89.25 463.5,-125.25"/>
<text text-anchor="middle" x="478.25" y="-101.83" font-family="Times New Roman,serif" font-size="14.00">18</text>
<polyline fill="none" stroke="black" points="493,-89.25 493,-125.25"/>
<text text-anchor="middle" x="507.75" y="-101.83" font-family="Times New Roman,serif" font-size="14.00">19</text>
<polyline fill="none" stroke="black" points="522.5,-89.25 522.5,-125.25"/>
<text text-anchor="middle" x="537.25" y="-101.83" font-family="Times New Roman,serif" font-size="14.00">20</text>
</g>
<!-- Parser&#45;&gt;todoLists -->
<g id="edge1" class="edge">
<title>Parser&#45;&gt;todoLists</title>
<path fill="none" stroke="black" d="M646.41,-208.2C566.4,-186.61 434.57,-151.04 351.65,-128.66"/>
<polygon fill="black" stroke="black" points="352.57,-125.29 342,-126.06 350.74,-132.04 352.57,-125.29"/>
<text text-anchor="middle" x="482.88" y="-146.2" font-family="Times New Roman,serif" font-size="14.00">todo lists</text>
</g>
<!-- stacksToExpand -->
<g id="node3" class="node">
<title>stacksToExpand</title>
<polygon fill="none" stroke="black" points="570,-89.25 570,-125.25 624,-125.25 624,-89.25 570,-89.25"/>
<text text-anchor="middle" x="596.88" y="-101.83" font-family="Times New Roman,serif" font-size="14.00"> </text>
</g>
<!-- Parser&#45;&gt;stacksToExpand -->
<g id="edge2" class="edge">
<title>Parser&#45;&gt;stacksToExpand</title>
<path fill="none" stroke="black" d="M657.22,-195.82C642.43,-185.79 627.59,-173.56 616.5,-159.5 611.21,-152.79 607.23,-144.49 604.3,-136.54"/>
<polygon fill="black" stroke="black" points="607.68,-135.61 601.28,-127.17 601.02,-137.76 607.68,-135.61"/>
<text text-anchor="middle" x="664.25" y="-146.2" font-family="Times New Roman,serif" font-size="14.00">stacks to expand</text>
</g>
<!-- terminalsToReduce -->
<g id="node4" class="node">
<title>terminalsToReduce</title>
<polygon fill="none" stroke="black" points="688,-89.25 688,-125.25 742,-125.25 742,-89.25 688,-89.25"/>
<text text-anchor="middle" x="714.88" y="-101.83" font-family="Times New Roman,serif" font-size="14.00"> </text>
</g>
<!-- Parser&#45;&gt;terminalsToReduce -->
<g id="edge3" class="edge">
<title>Parser&#45;&gt;terminalsToReduce</title>
<path fill="none" stroke="black" d="M715,-177.16C715,-163.37 715,-148.86 715,-136.73"/>
<polygon fill="black" stroke="black" points="718.5,-137.02 715,-127.02 711.5,-137.02 718.5,-137.02"/>
<text text-anchor="middle" x="767.88" y="-146.2" font-family="Times New Roman,serif" font-size="14.00">terminals to reduce</text>
</g>
<!-- nonTerminalsToReduce -->
<g id="node5" class="node">
<title>nonTerminalsToReduce</title>
<polygon fill="none" stroke="black" points="817,-89.25 817,-125.25 871,-125.25 871,-89.25 817,-89.25"/>
<text text-anchor="middle" x="843.88" y="-101.83" font-family="Times New Roman,serif" font-size="14.00"> </text>
</g>
<!-- Parser&#45;&gt;nonTerminalsToReduce -->
<g id="edge4" class="edge">
<title>Parser&#45;&gt;nonTerminalsToReduce</title>
<path fill="none" stroke="black" d="M774.88,-197.84C791.75,-187.54 809.02,-174.67 822,-159.5 827.8,-152.72 832.27,-144.19 835.63,-136.03"/>
<polygon fill="black" stroke="black" points="838.86,-137.37 839,-126.78 832.29,-134.97 838.86,-137.37"/>
<text text-anchor="middle" x="896.62" y="-146.2" font-family="Times New Roman,serif" font-size="14.00">non&#45;terminals to reduce</text>
</g>
<!-- error -->
<g id="node10" class="node">
<title>error</title>
<ellipse fill="none" stroke="black" cx="998" cy="-107.25" rx="34.1" ry="18"/>
<text text-anchor="middle" x="998" y="-101.83" font-family="Times New Roman,serif" font-size="14.00">Errors</text>
</g>
<!-- Parser&#45;&gt;error -->
<g id="edge5" class="edge">
<title>Parser&#45;&gt;error</title>
<path fill="none" stroke="black" d="M788.79,-221.34C842.41,-214.23 914.33,-197.74 966,-159.5 974.36,-153.31 981.05,-144.22 986.1,-135.41"/>
<polygon fill="black" stroke="black" points="989.11,-137.22 990.59,-126.73 982.89,-134.01 989.11,-137.22"/>
<text text-anchor="middle" x="1017.5" y="-146.2" font-family="Times New Roman,serif" font-size="14.00">error tracking</text>
</g>
<!-- unexpandableNodes -->
<g id="node6" class="node">
<title>unexpandableNodes</title>
<polygon fill="none" stroke="black" points="810,-0.5 810,-36.5 864,-36.5 864,-0.5 810,-0.5"/>
<text text-anchor="middle" x="836.88" y="-13.07" font-family="Times New Roman,serif" font-size="14.00"> </text>
</g>
<!-- unmatchableLeafNodes -->
<g id="node7" class="node">
<title>unmatchableLeafNodes</title>
<polygon fill="none" stroke="black" points="910,-0.5 910,-36.5 964,-36.5 964,-0.5 910,-0.5"/>
<text text-anchor="middle" x="936.88" y="-13.07" font-family="Times New Roman,serif" font-size="14.00"> </text>
</g>
<!-- unmatchableMidProductionNodes -->
<g id="node8" class="node">
<title>unmatchableMidProductionNodes</title>
<polygon fill="none" stroke="black" points="1032,-0.5 1032,-36.5 1086,-36.5 1086,-0.5 1032,-0.5"/>
<text text-anchor="middle" x="1058.88" y="-13.07" font-family="Times New Roman,serif" font-size="14.00"> </text>
</g>
<!-- filteredNodes -->
<g id="node9" class="node">
<title>filteredNodes</title>
<polygon fill="none" stroke="black" points="1181,-0.5 1181,-36.5 1235,-36.5 1235,-0.5 1181,-0.5"/>
<text text-anchor="middle" x="1207.88" y="-13.07" font-family="Times New Roman,serif" font-size="14.00"> </text>
</g>
<!-- error&#45;&gt;unexpandableNodes -->
<g id="edge6" class="edge">
<title>error&#45;&gt;unexpandableNodes</title>
<path fill="none" stroke="black" d="M964.87,-102.02C927.1,-96.55 868.5,-85.9 852.5,-70.75 846.19,-64.77 842.42,-56.33 840.18,-48.01"/>
<polygon fill="black" stroke="black" points="843.67,-47.6 838.27,-38.48 836.8,-48.97 843.67,-47.6"/>
<text text-anchor="middle" x="890.25" y="-57.45" font-family="Times New Roman,serif" font-size="14.00">unexpandable</text>
</g>
<!-- error&#45;&gt;unmatchableLeafNodes -->
<g id="edge7" class="edge">
<title>error&#45;&gt;unmatchableLeafNodes</title>
<path fill="none" stroke="black" d="M969.83,-96.75C957.83,-91.16 945.01,-82.77 938,-70.75 934.07,-64.01 932.71,-55.88 932.63,-48.1"/>
<polygon fill="black" stroke="black" points="936.11,-48.49 933.22,-38.29 929.13,-48.06 936.11,-48.49"/>
<text text-anchor="middle" x="987.5" y="-57.45" font-family="Times New Roman,serif" font-size="14.00">unmatchable leafs</text>
</g>
<!-- error&#45;&gt;unmatchableMidProductionNodes -->
<g id="edge8" class="edge">
<title>error&#45;&gt;unmatchableMidProductionNodes</title>
<path fill="none" stroke="black" d="M1016.68,-92.11C1023.72,-86.1 1031.37,-78.65 1037,-70.75 1042.04,-63.67 1046.25,-55.26 1049.59,-47.32"/>
<polygon fill="black" stroke="black" points="1052.85,-48.6 1053.19,-38.01 1046.32,-46.08 1052.85,-48.6"/>
<text text-anchor="middle" x="1108" y="-57.45" font-family="Times New Roman,serif" font-size="14.00">unmatchable mid&#45;prod</text>
</g>
<!-- error&#45;&gt;filteredNodes -->
<g id="edge9" class="edge">
<title>error&#45;&gt;filteredNodes</title>
<path fill="none" stroke="black" d="M1032.31,-107.04C1070.35,-106.28 1132.01,-100.05 1175,-70.75 1183.67,-64.84 1190.58,-55.81 1195.79,-46.98"/>
<polygon fill="black" stroke="black" points="1198.83,-48.7 1200.41,-38.22 1192.65,-45.43 1198.83,-48.7"/>
<text text-anchor="middle" x="1209.12" y="-57.45" font-family="Times New Roman,serif" font-size="14.00">filtered</text>
</g>
</g>
</svg>
