<?xml version="1.0" encoding="UTF-8" standalone="no"?>
<!DOCTYPE svg PUBLIC "-//W3C//DTD SVG 1.1//EN"
 "http://www.w3.org/Graphics/SVG/1.1/DTD/svg11.dtd">
<!-- Generated by graphviz version 12.0.0 (20240704.0754)
 -->
<!-- Title: Parser Pages: 1 -->
<svg width="1072pt" height="490pt"
 viewBox="0.00 0.00 1072.25 490.49" xmlns="http://www.w3.org/2000/svg" xmlns:xlink="http://www.w3.org/1999/xlink">
<g id="graph0" class="graph" transform="scale(1 1) rotate(0) translate(4 486.49)">
<title>Parser</title>
<polygon fill="white" stroke="none" points="-4,4 -4,-486.49 1068.25,-486.49 1068.25,4 -4,4"/>
<!-- Parser -->
<g id="node1" class="node">
<title>Parser</title>
<ellipse fill="none" stroke="black" cx="544.25" cy="-432.29" rx="83.44" ry="50.2"/>
<text text-anchor="middle" x="544.25" y="-450.49" font-family="Times New Roman,serif" font-size="14.00">Parser</text>
<text text-anchor="middle" x="544.25" y="-434.74" font-family="Times New Roman,serif" font-size="14.00">Input: &quot;a b c $&quot;</text>
<text text-anchor="middle" x="544.25" y="-418.99" font-family="Times New Roman,serif" font-size="14.00">Location: 2 (&#39;b&#39;)</text>
<text text-anchor="middle" x="544.25" y="-403.24" font-family="Times New Roman,serif" font-size="14.00">Step 9: Expanding</text>
</g>
<!-- todoLists -->
<g id="node2" class="node">
<title>todoLists</title>
<polygon fill="none" stroke="black" points="0,-293.83 0,-329.83 404.5,-329.83 404.5,-293.83 0,-293.83"/>
<text text-anchor="middle" x="11.38" y="-306.41" font-family="Times New Roman,serif" font-size="14.00">0</text>
<polyline fill="none" stroke="black" points="22.75,-293.83 22.75,-329.83"/>
<text text-anchor="middle" x="34.12" y="-306.41" font-family="Times New Roman,serif" font-size="14.00">1</text>
<polyline fill="none" stroke="black" points="45.5,-293.83 45.5,-329.83"/>
<text text-anchor="middle" x="56.88" y="-306.41" font-family="Times New Roman,serif" font-size="14.00">2</text>
<polyline fill="none" stroke="black" points="68.25,-293.83 68.25,-329.83"/>
<text text-anchor="middle" x="79.62" y="-306.41" font-family="Times New Roman,serif" font-size="14.00">3</text>
<polyline fill="none" stroke="black" points="91,-293.83 91,-329.83"/>
<text text-anchor="middle" x="102.38" y="-306.41" font-family="Times New Roman,serif" font-size="14.00">4</text>
<polyline fill="none" stroke="black" points="113.75,-293.83 113.75,-329.83"/>
<text text-anchor="middle" x="125.12" y="-306.41" font-family="Times New Roman,serif" font-size="14.00">5</text>
<polyline fill="none" stroke="black" points="136.5,-293.83 136.5,-329.83"/>
<text text-anchor="middle" x="147.88" y="-306.41" font-family="Times New Roman,serif" font-size="14.00">6</text>
<polyline fill="none" stroke="black" points="159.25,-293.83 159.25,-329.83"/>
<text text-anchor="middle" x="170.62" y="-306.41" font-family="Times New Roman,serif" font-size="14.00">7</text>
<polyline fill="none" stroke="black" points="182,-293.83 182,-329.83"/>
<text text-anchor="middle" x="193.38" y="-306.41" font-family="Times New Roman,serif" font-size="14.00">8</text>
<polyline fill="none" stroke="black" points="204.75,-293.83 204.75,-329.83"/>
<text text-anchor="middle" x="216.12" y="-306.41" font-family="Times New Roman,serif" font-size="14.00">9</text>
<polyline fill="none" stroke="black" points="227.5,-293.83 227.5,-329.83"/>
<text text-anchor="middle" x="242.25" y="-306.41" font-family="Times New Roman,serif" font-size="14.00">10</text>
<polyline fill="none" stroke="black" points="257,-293.83 257,-329.83"/>
<text text-anchor="middle" x="271.75" y="-306.41" font-family="Times New Roman,serif" font-size="14.00">11</text>
<polyline fill="none" stroke="black" points="286.5,-293.83 286.5,-329.83"/>
<text text-anchor="middle" x="301.25" y="-306.41" font-family="Times New Roman,serif" font-size="14.00">12</text>
<polyline fill="none" stroke="black" points="316,-293.83 316,-329.83"/>
<text text-anchor="middle" x="330.75" y="-306.41" font-family="Times New Roman,serif" font-size="14.00">13</text>
<polyline fill="none" stroke="black" points="345.5,-293.83 345.5,-329.83"/>
<text text-anchor="middle" x="360.25" y="-306.41" font-family="Times New Roman,serif" font-size="14.00">14</text>
<polyline fill="none" stroke="black" points="375,-293.83 375,-329.83"/>
<text text-anchor="middle" x="389.75" y="-306.41" font-family="Times New Roman,serif" font-size="14.00">15</text>
</g>
<!-- Parser&#45;&gt;todoLists -->
<g id="edge1" class="edge">
<title>Parser&#45;&gt;todoLists</title>
<path fill="none" stroke="black" d="M472.56,-406.46C410.51,-384.97 321.76,-354.23 263.11,-333.91"/>
<polygon fill="black" stroke="black" points="264.55,-330.71 253.95,-330.74 262.26,-337.32 264.55,-330.71"/>
<text text-anchor="middle" x="369.12" y="-350.78" font-family="Times New Roman,serif" font-size="14.00">todo lists</text>
</g>
<!-- stacksToExpand -->
<g id="node6" class="node">
<title>stacksToExpand</title>
<polygon fill="none" stroke="red" points="422.25,-293.83 422.25,-329.83 476.25,-329.83 476.25,-293.83 422.25,-293.83"/>
<text text-anchor="middle" x="449.12" y="-306.41" font-family="Times New Roman,serif" font-size="14.00">0</text>
</g>
<!-- Parser&#45;&gt;stacksToExpand -->
<g id="edge5" class="edge">
<title>Parser&#45;&gt;stacksToExpand</title>
<path fill="none" stroke="black" d="M479.31,-400.25C465.85,-390.63 453.44,-378.64 445.75,-364.08 442.1,-357.17 441.36,-348.98 441.96,-341.21"/>
<polygon fill="black" stroke="black" points="445.41,-341.85 443.48,-331.43 438.49,-340.77 445.41,-341.85"/>
<text text-anchor="middle" x="493.5" y="-350.78" font-family="Times New Roman,serif" font-size="14.00">stacks to expand</text>
</g>
<!-- terminalsToReduce -->
<g id="node7" class="node">
<title>terminalsToReduce</title>
<polygon fill="none" stroke="black" points="517.25,-293.83 517.25,-329.83 571.25,-329.83 571.25,-293.83 517.25,-293.83"/>
<text text-anchor="middle" x="544.12" y="-306.41" font-family="Times New Roman,serif" font-size="14.00"> </text>
</g>
<!-- Parser&#45;&gt;terminalsToReduce -->
<g id="edge6" class="edge">
<title>Parser&#45;&gt;terminalsToReduce</title>
<path fill="none" stroke="black" d="M544.25,-381.74C544.25,-367.95 544.25,-353.44 544.25,-341.31"/>
<polygon fill="black" stroke="black" points="547.75,-341.61 544.25,-331.61 540.75,-341.61 547.75,-341.61"/>
<text text-anchor="middle" x="597.12" y="-350.78" font-family="Times New Roman,serif" font-size="14.00">terminals to reduce</text>
</g>
<!-- nonTerminalsToReduce -->
<g id="node8" class="node">
<title>nonTerminalsToReduce</title>
<polygon fill="none" stroke="black" points="646.25,-293.83 646.25,-329.83 700.25,-329.83 700.25,-293.83 646.25,-293.83"/>
<text text-anchor="middle" x="673.12" y="-306.41" font-family="Times New Roman,serif" font-size="14.00"> </text>
</g>
<!-- Parser&#45;&gt;nonTerminalsToReduce -->
<g id="edge7" class="edge">
<title>Parser&#45;&gt;nonTerminalsToReduce</title>
<path fill="none" stroke="black" d="M608.3,-399.83C623.82,-389.99 639.34,-378 651.25,-364.08 657.05,-357.31 661.52,-348.77 664.88,-340.62"/>
<polygon fill="black" stroke="black" points="668.11,-341.96 668.25,-331.36 661.54,-339.56 668.11,-341.96"/>
<text text-anchor="middle" x="726.88" y="-350.78" font-family="Times New Roman,serif" font-size="14.00">non&#45;terminals to reduce</text>
</g>
<!-- error -->
<g id="node13" class="node">
<title>error</title>
<ellipse fill="none" stroke="black" cx="827.25" cy="-311.83" rx="34.1" ry="18"/>
<text text-anchor="middle" x="827.25" y="-306.41" font-family="Times New Roman,serif" font-size="14.00">Errors</text>
</g>
<!-- Parser&#45;&gt;error -->
<g id="edge8" class="edge">
<title>Parser&#45;&gt;error</title>
<path fill="none" stroke="black" d="M627.16,-425.03C679.95,-417.45 747.36,-400.77 796.25,-364.08 804.5,-357.89 811.01,-348.81 815.89,-340"/>
<polygon fill="black" stroke="black" points="818.88,-341.84 820.2,-331.33 812.62,-338.72 818.88,-341.84"/>
<text text-anchor="middle" x="847.75" y="-350.78" font-family="Times New Roman,serif" font-size="14.00">error tracking</text>
</g>
<!-- 57 -->
<g id="node3" class="node">
<title>57</title>
<ellipse fill="none" stroke="black" cx="449.25" cy="-213.65" rx="40.48" ry="27.93"/>
<text text-anchor="middle" x="449.25" y="-216.1" font-family="Times New Roman,serif" font-size="14.00">Literal: </text>
<text text-anchor="middle" x="449.25" y="-200.35" font-family="Times New Roman,serif" font-size="14.00">.2@2</text>
</g>
<!-- 35 -->
<g id="node4" class="node">
<title>35</title>
<ellipse fill="none" stroke="black" cx="449.25" cy="-120.79" rx="87.68" ry="27.93"/>
<text text-anchor="middle" x="449.25" y="-123.24" font-family="Times New Roman,serif" font-size="14.00">NonTerminal: ABC</text>
<text text-anchor="middle" x="449.25" y="-107.49" font-family="Times New Roman,serif" font-size="14.00">.0@0</text>
</g>
<!-- 57&#45;&gt;35 -->
<g id="edge3" class="edge">
<title>57&#45;&gt;35</title>
<path fill="none" stroke="black" d="M449.25,-185.39C449.25,-177.58 449.25,-168.9 449.25,-160.53"/>
<polygon fill="black" stroke="black" points="452.75,-160.55 449.25,-150.55 445.75,-160.55 452.75,-160.55"/>
</g>
<!-- &#45;1 -->
<g id="node5" class="node">
<title>&#45;1</title>
<ellipse fill="none" stroke="black" cx="449.25" cy="-27.93" rx="73.36" ry="27.93"/>
<text text-anchor="middle" x="449.25" y="-30.38" font-family="Times New Roman,serif" font-size="14.00">NonTerminal: S</text>
<text text-anchor="middle" x="449.25" y="-14.63" font-family="Times New Roman,serif" font-size="14.00">.0@&#45;1</text>
</g>
<!-- 35&#45;&gt;&#45;1 -->
<g id="edge2" class="edge">
<title>35&#45;&gt;&#45;1</title>
<path fill="none" stroke="black" d="M449.25,-92.53C449.25,-84.71 449.25,-76.04 449.25,-67.67"/>
<polygon fill="black" stroke="black" points="452.75,-67.69 449.25,-57.69 445.75,-67.69 452.75,-67.69"/>
</g>
<!-- stacksToExpand&#45;&gt;57 -->
<g id="edge4" class="edge">
<title>stacksToExpand:0&#45;&gt;57</title>
<path fill="none" stroke="black" d="M449.15,-293.56C449.16,-282.22 449.18,-267.21 449.2,-253.33"/>
<polygon fill="black" stroke="black" points="452.7,-253.56 449.21,-243.55 445.7,-253.55 452.7,-253.56"/>
</g>
<!-- unexpandableNodes -->
<g id="node9" class="node">
<title>unexpandableNodes</title>
<polygon fill="none" stroke="black" points="639.25,-195.65 639.25,-231.65 693.25,-231.65 693.25,-195.65 639.25,-195.65"/>
<text text-anchor="middle" x="666.12" y="-208.23" font-family="Times New Roman,serif" font-size="14.00"> </text>
</g>
<!-- unmatchableLeafNodes -->
<g id="node10" class="node">
<title>unmatchableLeafNodes</title>
<polygon fill="none" stroke="black" points="739.25,-195.65 739.25,-231.65 793.25,-231.65 793.25,-195.65 739.25,-195.65"/>
<text text-anchor="middle" x="766.12" y="-208.23" font-family="Times New Roman,serif" font-size="14.00"> </text>
</g>
<!-- unmatchableMidProductionNodes -->
<g id="node11" class="node">
<title>unmatchableMidProductionNodes</title>
<polygon fill="none" stroke="black" points="861.25,-195.65 861.25,-231.65 915.25,-231.65 915.25,-195.65 861.25,-195.65"/>
<text text-anchor="middle" x="888.12" y="-208.23" font-family="Times New Roman,serif" font-size="14.00"> </text>
</g>
<!-- filteredNodes -->
<g id="node12" class="node">
<title>filteredNodes</title>
<polygon fill="none" stroke="black" points="1010.25,-195.65 1010.25,-231.65 1064.25,-231.65 1064.25,-195.65 1010.25,-195.65"/>
<text text-anchor="middle" x="1037.12" y="-208.23" font-family="Times New Roman,serif" font-size="14.00"> </text>
</g>
<!-- error&#45;&gt;unexpandableNodes -->
<g id="edge9" class="edge">
<title>error&#45;&gt;unexpandableNodes</title>
<path fill="none" stroke="black" d="M794.08,-306.84C755.9,-301.57 696.45,-291.09 680.75,-275.33 672.35,-266.91 668.49,-254.54 666.82,-243.17"/>
<polygon fill="black" stroke="black" points="670.32,-243.02 665.91,-233.39 663.35,-243.67 670.32,-243.02"/>
<text text-anchor="middle" x="719.5" y="-262.03" font-family="Times New Roman,serif" font-size="14.00">unexpandable</text>
</g>
<!-- error&#45;&gt;unmatchableLeafNodes -->
<g id="edge10" class="edge">
<title>error&#45;&gt;unmatchableLeafNodes</title>
<path fill="none" stroke="black" d="M799.06,-301.34C787.06,-295.75 774.24,-287.37 767.25,-275.33 761.75,-265.87 760.55,-254.09 761.06,-243.44"/>
<polygon fill="black" stroke="black" points="764.54,-243.88 762.08,-233.58 757.57,-243.16 764.54,-243.88"/>
<text text-anchor="middle" x="816.75" y="-262.03" font-family="Times New Roman,serif" font-size="14.00">unmatchable leafs</text>
</g>
<!-- error&#45;&gt;unmatchableMidProductionNodes -->
<g id="edge11" class="edge">
<title>error&#45;&gt;unmatchableMidProductionNodes</title>
<path fill="none" stroke="black" d="M846.57,-296.52C853.52,-290.59 860.95,-283.25 866.25,-275.33 872.8,-265.56 877.68,-253.59 881.15,-242.87"/>
<polygon fill="black" stroke="black" points="884.49,-243.94 883.96,-233.35 877.77,-241.96 884.49,-243.94"/>
<text text-anchor="middle" x="937.25" y="-262.03" font-family="Times New Roman,serif" font-size="14.00">unmatchable mid&#45;prod</text>
</g>
<!-- error&#45;&gt;filteredNodes -->
<g id="edge12" class="edge">
<title>error&#45;&gt;filteredNodes</title>
<path fill="none" stroke="black" d="M860.66,-307.52C905.43,-302.52 981.86,-291.84 1004.25,-275.33 1015.26,-267.22 1023.01,-254.28 1028.22,-242.44"/>
<polygon fill="black" stroke="black" points="1031.36,-244.03 1031.76,-233.45 1024.84,-241.47 1031.36,-244.03"/>
<text text-anchor="middle" x="1037.38" y="-262.03" font-family="Times New Roman,serif" font-size="14.00">filtered</text>
</g>
</g>
</svg>
