<?xml version="1.0" encoding="UTF-8" standalone="no"?>
<!DOCTYPE svg PUBLIC "-//W3C//DTD SVG 1.1//EN"
 "http://www.w3.org/Graphics/SVG/1.1/DTD/svg11.dtd">
<!-- Generated by graphviz version 12.0.0 (20240704.0754)
 -->
<!-- Title: Parser Pages: 1 -->
<svg width="1063pt" height="579pt"
 viewBox="0.00 0.00 1063.25 579.24" xmlns="http://www.w3.org/2000/svg" xmlns:xlink="http://www.w3.org/1999/xlink">
<g id="graph0" class="graph" transform="scale(1 1) rotate(0) translate(4 575.24)">
<title>Parser</title>
<polygon fill="white" stroke="none" points="-4,4 -4,-575.24 1059.25,-575.24 1059.25,4 -4,4"/>
<!-- Parser -->
<g id="node1" class="node">
<title>Parser</title>
<ellipse fill="none" stroke="black" cx="568.25" cy="-521.04" rx="121.62" ry="50.2"/>
<text text-anchor="middle" x="568.25" y="-539.24" font-family="Times New Roman,serif" font-size="14.00">Parser</text>
<text text-anchor="middle" x="568.25" y="-523.49" font-family="Times New Roman,serif" font-size="14.00">Input: &quot;a b c $&quot;</text>
<text text-anchor="middle" x="568.25" y="-507.74" font-family="Times New Roman,serif" font-size="14.00">Location: 3 (&#39; &#39;)</text>
<text text-anchor="middle" x="568.25" y="-491.99" font-family="Times New Roman,serif" font-size="14.00">Step 12: Reducing terminals</text>
</g>
<!-- todoLists -->
<g id="node7" class="node">
<title>todoLists</title>
<polygon fill="none" stroke="black" points="0,-382.58 0,-418.58 404.5,-418.58 404.5,-382.58 0,-382.58"/>
<text text-anchor="middle" x="11.38" y="-395.16" font-family="Times New Roman,serif" font-size="14.00">0</text>
<polyline fill="none" stroke="black" points="22.75,-382.58 22.75,-418.58"/>
<text text-anchor="middle" x="34.12" y="-395.16" font-family="Times New Roman,serif" font-size="14.00">1</text>
<polyline fill="none" stroke="black" points="45.5,-382.58 45.5,-418.58"/>
<text text-anchor="middle" x="56.88" y="-395.16" font-family="Times New Roman,serif" font-size="14.00">2</text>
<polyline fill="none" stroke="black" points="68.25,-382.58 68.25,-418.58"/>
<text text-anchor="middle" x="79.62" y="-395.16" font-family="Times New Roman,serif" font-size="14.00">3</text>
<polyline fill="none" stroke="black" points="91,-382.58 91,-418.58"/>
<text text-anchor="middle" x="102.38" y="-395.16" font-family="Times New Roman,serif" font-size="14.00">4</text>
<polyline fill="none" stroke="black" points="113.75,-382.58 113.75,-418.58"/>
<text text-anchor="middle" x="125.12" y="-395.16" font-family="Times New Roman,serif" font-size="14.00">5</text>
<polyline fill="none" stroke="black" points="136.5,-382.58 136.5,-418.58"/>
<text text-anchor="middle" x="147.88" y="-395.16" font-family="Times New Roman,serif" font-size="14.00">6</text>
<polyline fill="none" stroke="black" points="159.25,-382.58 159.25,-418.58"/>
<text text-anchor="middle" x="170.62" y="-395.16" font-family="Times New Roman,serif" font-size="14.00">7</text>
<polyline fill="none" stroke="black" points="182,-382.58 182,-418.58"/>
<text text-anchor="middle" x="193.38" y="-395.16" font-family="Times New Roman,serif" font-size="14.00">8</text>
<polyline fill="none" stroke="black" points="204.75,-382.58 204.75,-418.58"/>
<text text-anchor="middle" x="216.12" y="-395.16" font-family="Times New Roman,serif" font-size="14.00">9</text>
<polyline fill="none" stroke="black" points="227.5,-382.58 227.5,-418.58"/>
<text text-anchor="middle" x="242.25" y="-395.16" font-family="Times New Roman,serif" font-size="14.00">10</text>
<polyline fill="none" stroke="black" points="257,-382.58 257,-418.58"/>
<text text-anchor="middle" x="271.75" y="-395.16" font-family="Times New Roman,serif" font-size="14.00">11</text>
<polyline fill="none" stroke="black" points="286.5,-382.58 286.5,-418.58"/>
<text text-anchor="middle" x="301.25" y="-395.16" font-family="Times New Roman,serif" font-size="14.00">12</text>
<polyline fill="none" stroke="black" points="316,-382.58 316,-418.58"/>
<text text-anchor="middle" x="330.75" y="-395.16" font-family="Times New Roman,serif" font-size="14.00">13</text>
<polyline fill="none" stroke="black" points="345.5,-382.58 345.5,-418.58"/>
<text text-anchor="middle" x="360.25" y="-395.16" font-family="Times New Roman,serif" font-size="14.00">14</text>
<polyline fill="none" stroke="black" points="375,-382.58 375,-418.58"/>
<text text-anchor="middle" x="389.75" y="-395.16" font-family="Times New Roman,serif" font-size="14.00">15</text>
</g>
<!-- Parser&#45;&gt;todoLists -->
<g id="edge6" class="edge">
<title>Parser&#45;&gt;todoLists</title>
<path fill="none" stroke="black" d="M473.52,-489.38C408.65,-468.39 324.33,-441.09 267.03,-422.55"/>
<polygon fill="black" stroke="black" points="268.33,-419.29 257.74,-419.54 266.18,-425.95 268.33,-419.29"/>
<text text-anchor="middle" x="379.12" y="-439.53" font-family="Times New Roman,serif" font-size="14.00">todo lists</text>
</g>
<!-- stacksToExpand -->
<g id="node8" class="node">
<title>stacksToExpand</title>
<polygon fill="none" stroke="black" points="564.25,-382.58 564.25,-418.58 618.25,-418.58 618.25,-382.58 564.25,-382.58"/>
<text text-anchor="middle" x="591.12" y="-395.16" font-family="Times New Roman,serif" font-size="14.00"> </text>
</g>
<!-- Parser&#45;&gt;stacksToExpand -->
<g id="edge7" class="edge">
<title>Parser&#45;&gt;stacksToExpand</title>
<path fill="none" stroke="black" d="M564.91,-470.71C565.31,-459.49 566.67,-447.74 569.75,-437.08 570.56,-434.3 571.64,-431.51 572.89,-428.79"/>
<polygon fill="black" stroke="black" points="575.91,-430.57 577.63,-420.11 569.76,-427.22 575.91,-430.57"/>
<text text-anchor="middle" x="617.5" y="-439.53" font-family="Times New Roman,serif" font-size="14.00">stacks to expand</text>
</g>
<!-- terminalsToReduce -->
<g id="node9" class="node">
<title>terminalsToReduce</title>
<polygon fill="none" stroke="red" points="339.25,-293.83 339.25,-329.83 393.25,-329.83 393.25,-293.83 339.25,-293.83"/>
<text text-anchor="middle" x="366.12" y="-306.41" font-family="Times New Roman,serif" font-size="14.00">0</text>
</g>
<!-- Parser&#45;&gt;terminalsToReduce -->
<g id="edge10" class="edge">
<title>Parser&#45;&gt;terminalsToReduce</title>
<path fill="none" stroke="black" d="M512.09,-476.25C491.58,-459.25 468.72,-439.08 449.5,-419.08 425.17,-393.77 400.81,-361.69 384.78,-339.44"/>
<polygon fill="black" stroke="black" points="387.77,-337.6 379.12,-331.49 382.07,-341.67 387.77,-337.6"/>
<text text-anchor="middle" x="503.12" y="-395.16" font-family="Times New Roman,serif" font-size="14.00">terminals to reduce</text>
</g>
<!-- nonTerminalsToReduce -->
<g id="node10" class="node">
<title>nonTerminalsToReduce</title>
<polygon fill="none" stroke="black" points="659.25,-382.58 659.25,-418.58 713.25,-418.58 713.25,-382.58 659.25,-382.58"/>
<text text-anchor="middle" x="686.12" y="-395.16" font-family="Times New Roman,serif" font-size="14.00"> </text>
</g>
<!-- Parser&#45;&gt;nonTerminalsToReduce -->
<g id="edge11" class="edge">
<title>Parser&#45;&gt;nonTerminalsToReduce</title>
<path fill="none" stroke="black" d="M636.87,-479.22C646.87,-471.32 656.42,-462.46 664.25,-452.83 669.79,-446.02 674.17,-437.59 677.51,-429.56"/>
<polygon fill="black" stroke="black" points="680.7,-431.04 680.91,-420.45 674.14,-428.59 680.7,-431.04"/>
<text text-anchor="middle" x="738.88" y="-439.53" font-family="Times New Roman,serif" font-size="14.00">non&#45;terminals to reduce</text>
</g>
<!-- error -->
<g id="node15" class="node">
<title>error</title>
<ellipse fill="none" stroke="black" cx="840.25" cy="-400.58" rx="34.1" ry="18"/>
<text text-anchor="middle" x="840.25" y="-395.16" font-family="Times New Roman,serif" font-size="14.00">Errors</text>
</g>
<!-- Parser&#45;&gt;error -->
<g id="edge12" class="edge">
<title>Parser&#45;&gt;error</title>
<path fill="none" stroke="black" d="M684.43,-505.42C726.54,-495.73 772.49,-479.62 808.25,-452.83 816.58,-446.6 823.26,-437.5 828.31,-428.69"/>
<polygon fill="black" stroke="black" points="831.31,-430.51 832.81,-420.03 825.1,-427.29 831.31,-430.51"/>
<text text-anchor="middle" x="859.75" y="-439.53" font-family="Times New Roman,serif" font-size="14.00">error tracking</text>
</g>
<!-- todo&#45;1 -->
<g id="node2" class="node">
<title>todo&#45;1</title>
<polygon fill="none" stroke="black" points="228.25,-293.83 228.25,-329.83 282.25,-329.83 282.25,-293.83 228.25,-293.83"/>
<text text-anchor="middle" x="255.12" y="-306.41" font-family="Times New Roman,serif" font-size="14.00">0</text>
</g>
<!-- 57 -->
<g id="node3" class="node">
<title>57</title>
<ellipse fill="none" stroke="black" cx="254.25" cy="-213.65" rx="40.48" ry="27.93"/>
<text text-anchor="middle" x="254.25" y="-216.1" font-family="Times New Roman,serif" font-size="14.00">Literal: </text>
<text text-anchor="middle" x="254.25" y="-200.35" font-family="Times New Roman,serif" font-size="14.00">.2@2</text>
</g>
<!-- todo&#45;1&#45;&gt;57 -->
<g id="edge3" class="edge">
<title>todo&#45;1:sw&#45;&gt;57</title>
<path fill="none" stroke="black" d="M228.25,-293.33C216.32,-281.4 220.78,-263.88 229.12,-248.41"/>
<polygon fill="black" stroke="black" points="232.08,-250.28 234.24,-239.9 226.08,-246.66 232.08,-250.28"/>
<text text-anchor="middle" x="240" y="-262.03" font-family="Times New Roman,serif" font-size="14.00">Stack</text>
</g>
<!-- 373299466 -->
<g id="node6" class="node">
<title>373299466</title>
<polygon fill="none" stroke="black" points="432.36,-206.2 432.36,-221.11 401.25,-231.65 357.25,-231.65 326.14,-221.11 326.14,-206.2 357.25,-195.65 401.25,-195.65 432.36,-206.2"/>
<text text-anchor="middle" x="379.25" y="-208.23" font-family="Times New Roman,serif" font-size="14.00">Literal &quot;b&quot;</text>
</g>
<!-- todo&#45;1&#45;&gt;373299466 -->
<g id="edge4" class="edge">
<title>todo&#45;1:se&#45;&gt;373299466</title>
<path fill="none" stroke="black" d="M282,-293.33C287.68,-287.66 280.83,-283.36 280.5,-275.33 280.21,-268.34 276.71,-265.47 280.5,-259.58 286.7,-249.95 309.29,-239.34 331.3,-230.84"/>
<polygon fill="black" stroke="black" points="332.42,-234.16 340.57,-227.38 329.98,-227.6 332.42,-234.16"/>
<text text-anchor="middle" x="296.62" y="-262.03" font-family="Times New Roman,serif" font-size="14.00">Node</text>
</g>
<!-- 35 -->
<g id="node4" class="node">
<title>35</title>
<ellipse fill="none" stroke="black" cx="254.25" cy="-120.79" rx="87.68" ry="27.93"/>
<text text-anchor="middle" x="254.25" y="-123.24" font-family="Times New Roman,serif" font-size="14.00">NonTerminal: ABC</text>
<text text-anchor="middle" x="254.25" y="-107.49" font-family="Times New Roman,serif" font-size="14.00">.0@0</text>
</g>
<!-- 57&#45;&gt;35 -->
<g id="edge2" class="edge">
<title>57&#45;&gt;35</title>
<path fill="none" stroke="black" d="M254.25,-185.39C254.25,-177.58 254.25,-168.9 254.25,-160.53"/>
<polygon fill="black" stroke="black" points="257.75,-160.55 254.25,-150.55 250.75,-160.55 257.75,-160.55"/>
</g>
<!-- &#45;1 -->
<g id="node5" class="node">
<title>&#45;1</title>
<ellipse fill="none" stroke="black" cx="254.25" cy="-27.93" rx="73.36" ry="27.93"/>
<text text-anchor="middle" x="254.25" y="-30.38" font-family="Times New Roman,serif" font-size="14.00">NonTerminal: S</text>
<text text-anchor="middle" x="254.25" y="-14.63" font-family="Times New Roman,serif" font-size="14.00">.0@&#45;1</text>
</g>
<!-- 35&#45;&gt;&#45;1 -->
<g id="edge1" class="edge">
<title>35&#45;&gt;&#45;1</title>
<path fill="none" stroke="black" d="M254.25,-92.53C254.25,-84.71 254.25,-76.04 254.25,-67.67"/>
<polygon fill="black" stroke="black" points="257.75,-67.69 254.25,-57.69 250.75,-67.69 257.75,-67.69"/>
</g>
<!-- todoLists&#45;&gt;todo&#45;1 -->
<g id="edge5" class="edge">
<title>todoLists:1&#45;&gt;todo&#45;1</title>
<path fill="none" stroke="black" d="M34.12,-382.08C34.12,-344.21 153.74,-324.59 217.02,-316.86"/>
<polygon fill="black" stroke="black" points="217.11,-320.37 226.63,-315.73 216.29,-313.42 217.11,-320.37"/>
</g>
<!-- terminalsToReduce&#45;&gt;57 -->
<g id="edge8" class="edge">
<title>terminalsToReduce:sw&#45;&gt;57</title>
<path fill="none" stroke="black" d="M339.25,-293.33C326.24,-280.32 328.16,-272.71 315.25,-259.58 308.42,-252.64 300.44,-245.96 292.55,-239.96"/>
<polygon fill="black" stroke="black" points="294.75,-237.24 284.61,-234.16 290.62,-242.89 294.75,-237.24"/>
<text text-anchor="middle" x="343" y="-262.03" font-family="Times New Roman,serif" font-size="14.00">Stack</text>
</g>
<!-- terminalsToReduce&#45;&gt;373299466 -->
<g id="edge9" class="edge">
<title>terminalsToReduce:se&#45;&gt;373299466</title>
<path fill="none" stroke="black" d="M393,-293.33C406.24,-280.1 401.69,-258.95 394.44,-241.9"/>
<polygon fill="black" stroke="black" points="397.8,-240.83 390.35,-233.3 391.48,-243.83 397.8,-240.83"/>
<text text-anchor="middle" x="417.62" y="-262.03" font-family="Times New Roman,serif" font-size="14.00">Node</text>
</g>
<!-- unexpandableNodes -->
<g id="node11" class="node">
<title>unexpandableNodes</title>
<polygon fill="none" stroke="black" points="849.25,-293.83 849.25,-329.83 903.25,-329.83 903.25,-293.83 849.25,-293.83"/>
<text text-anchor="middle" x="876.12" y="-306.41" font-family="Times New Roman,serif" font-size="14.00"> </text>
</g>
<!-- unmatchableLeafNodes -->
<g id="node12" class="node">
<title>unmatchableLeafNodes</title>
<polygon fill="none" stroke="black" points="946.25,-293.83 946.25,-329.83 1000.25,-329.83 1000.25,-293.83 946.25,-293.83"/>
<text text-anchor="middle" x="973.12" y="-306.41" font-family="Times New Roman,serif" font-size="14.00"> </text>
</g>
<!-- unmatchableMidProductionNodes -->
<g id="node13" class="node">
<title>unmatchableMidProductionNodes</title>
<polygon fill="none" stroke="black" points="631.25,-293.83 631.25,-329.83 685.25,-329.83 685.25,-293.83 631.25,-293.83"/>
<text text-anchor="middle" x="658.12" y="-306.41" font-family="Times New Roman,serif" font-size="14.00"> </text>
</g>
<!-- filteredNodes -->
<g id="node14" class="node">
<title>filteredNodes</title>
<polygon fill="none" stroke="black" points="777.25,-293.83 777.25,-329.83 831.25,-329.83 831.25,-293.83 777.25,-293.83"/>
<text text-anchor="middle" x="804.12" y="-306.41" font-family="Times New Roman,serif" font-size="14.00"> </text>
</g>
<!-- error&#45;&gt;unexpandableNodes -->
<g id="edge13" class="edge">
<title>error&#45;&gt;unexpandableNodes</title>
<path fill="none" stroke="black" d="M847.19,-382.86C852.16,-370.89 858.96,-354.51 864.73,-340.6"/>
<polygon fill="black" stroke="black" points="867.9,-342.08 868.5,-331.5 861.44,-339.4 867.9,-342.08"/>
<text text-anchor="middle" x="899.5" y="-350.78" font-family="Times New Roman,serif" font-size="14.00">unexpandable</text>
</g>
<!-- error&#45;&gt;unmatchableLeafNodes -->
<g id="edge14" class="edge">
<title>error&#45;&gt;unmatchableLeafNodes</title>
<path fill="none" stroke="black" d="M872.47,-394.29C894.07,-389.42 922.14,-380.37 942.25,-364.08 950.06,-357.76 956.4,-348.9 961.25,-340.32"/>
<polygon fill="black" stroke="black" points="964.31,-342.03 965.75,-331.54 958.08,-338.84 964.31,-342.03"/>
<text text-anchor="middle" x="1005.75" y="-350.78" font-family="Times New Roman,serif" font-size="14.00">unmatchable leafs</text>
</g>
<!-- error&#45;&gt;unmatchableMidProductionNodes -->
<g id="edge15" class="edge">
<title>error&#45;&gt;unmatchableMidProductionNodes</title>
<path fill="none" stroke="black" d="M807.01,-396.12C765.13,-391.13 696.33,-380.65 677.25,-364.08 670.38,-358.11 665.98,-349.42 663.18,-340.88"/>
<polygon fill="black" stroke="black" points="666.63,-340.24 660.72,-331.45 659.86,-342.01 666.63,-340.24"/>
<text text-anchor="middle" x="740.25" y="-350.78" font-family="Times New Roman,serif" font-size="14.00">unmatchable mid&#45;prod</text>
</g>
<!-- error&#45;&gt;filteredNodes -->
<g id="edge16" class="edge">
<title>error&#45;&gt;filteredNodes</title>
<path fill="none" stroke="black" d="M825.07,-384.15C820.15,-378.3 815.15,-371.3 812,-364.08 808.93,-357.05 807.05,-349.01 805.9,-341.42"/>
<polygon fill="black" stroke="black" points="809.39,-341.12 804.8,-331.57 802.43,-341.9 809.39,-341.12"/>
<text text-anchor="middle" x="830.38" y="-350.78" font-family="Times New Roman,serif" font-size="14.00">filtered</text>
</g>
</g>
</svg>
