<?xml version="1.0" encoding="UTF-8" standalone="no"?>
<!DOCTYPE svg PUBLIC "-//W3C//DTD SVG 1.1//EN"
 "http://www.w3.org/Graphics/SVG/1.1/DTD/svg11.dtd">
<!-- Generated by graphviz version 12.0.0 (20240704.0754)
 -->
<!-- Title: Parser Pages: 1 -->
<svg width="1099pt" height="513pt"
 viewBox="0.00 0.00 1099.25 512.77" xmlns="http://www.w3.org/2000/svg" xmlns:xlink="http://www.w3.org/1999/xlink">
<g id="graph0" class="graph" transform="scale(1 1) rotate(0) translate(4 508.77)">
<title>Parser</title>
<polygon fill="white" stroke="none" points="-4,4 -4,-508.77 1095.25,-508.77 1095.25,4 -4,4"/>
<!-- Parser -->
<g id="node1" class="node">
<title>Parser</title>
<ellipse fill="none" stroke="black" cx="544.25" cy="-454.56" rx="88.21" ry="50.2"/>
<text text-anchor="middle" x="544.25" y="-472.76" font-family="Times New Roman,serif" font-size="14.00">Parser</text>
<text text-anchor="middle" x="544.25" y="-457.01" font-family="Times New Roman,serif" font-size="14.00">Input: &quot;a b c $&quot;</text>
<text text-anchor="middle" x="544.25" y="-441.26" font-family="Times New Roman,serif" font-size="14.00">Location: 4 (&#39;c&#39;)</text>
<text text-anchor="middle" x="544.25" y="-425.51" font-family="Times New Roman,serif" font-size="14.00">Step 19: Expanding</text>
</g>
<!-- todoLists -->
<g id="node2" class="node">
<title>todoLists</title>
<polygon fill="none" stroke="black" points="0,-316.11 0,-352.11 404.5,-352.11 404.5,-316.11 0,-316.11"/>
<text text-anchor="middle" x="11.38" y="-328.68" font-family="Times New Roman,serif" font-size="14.00">0</text>
<polyline fill="none" stroke="black" points="22.75,-316.11 22.75,-352.11"/>
<text text-anchor="middle" x="34.12" y="-328.68" font-family="Times New Roman,serif" font-size="14.00">1</text>
<polyline fill="none" stroke="black" points="45.5,-316.11 45.5,-352.11"/>
<text text-anchor="middle" x="56.88" y="-328.68" font-family="Times New Roman,serif" font-size="14.00">2</text>
<polyline fill="none" stroke="black" points="68.25,-316.11 68.25,-352.11"/>
<text text-anchor="middle" x="79.62" y="-328.68" font-family="Times New Roman,serif" font-size="14.00">3</text>
<polyline fill="none" stroke="black" points="91,-316.11 91,-352.11"/>
<text text-anchor="middle" x="102.38" y="-328.68" font-family="Times New Roman,serif" font-size="14.00">4</text>
<polyline fill="none" stroke="black" points="113.75,-316.11 113.75,-352.11"/>
<text text-anchor="middle" x="125.12" y="-328.68" font-family="Times New Roman,serif" font-size="14.00">5</text>
<polyline fill="none" stroke="black" points="136.5,-316.11 136.5,-352.11"/>
<text text-anchor="middle" x="147.88" y="-328.68" font-family="Times New Roman,serif" font-size="14.00">6</text>
<polyline fill="none" stroke="black" points="159.25,-316.11 159.25,-352.11"/>
<text text-anchor="middle" x="170.62" y="-328.68" font-family="Times New Roman,serif" font-size="14.00">7</text>
<polyline fill="none" stroke="black" points="182,-316.11 182,-352.11"/>
<text text-anchor="middle" x="193.38" y="-328.68" font-family="Times New Roman,serif" font-size="14.00">8</text>
<polyline fill="none" stroke="black" points="204.75,-316.11 204.75,-352.11"/>
<text text-anchor="middle" x="216.12" y="-328.68" font-family="Times New Roman,serif" font-size="14.00">9</text>
<polyline fill="none" stroke="black" points="227.5,-316.11 227.5,-352.11"/>
<text text-anchor="middle" x="242.25" y="-328.68" font-family="Times New Roman,serif" font-size="14.00">10</text>
<polyline fill="none" stroke="black" points="257,-316.11 257,-352.11"/>
<text text-anchor="middle" x="271.75" y="-328.68" font-family="Times New Roman,serif" font-size="14.00">11</text>
<polyline fill="none" stroke="black" points="286.5,-316.11 286.5,-352.11"/>
<text text-anchor="middle" x="301.25" y="-328.68" font-family="Times New Roman,serif" font-size="14.00">12</text>
<polyline fill="none" stroke="black" points="316,-316.11 316,-352.11"/>
<text text-anchor="middle" x="330.75" y="-328.68" font-family="Times New Roman,serif" font-size="14.00">13</text>
<polyline fill="none" stroke="black" points="345.5,-316.11 345.5,-352.11"/>
<text text-anchor="middle" x="360.25" y="-328.68" font-family="Times New Roman,serif" font-size="14.00">14</text>
<polyline fill="none" stroke="black" points="375,-316.11 375,-352.11"/>
<text text-anchor="middle" x="389.75" y="-328.68" font-family="Times New Roman,serif" font-size="14.00">15</text>
</g>
<!-- Parser&#45;&gt;todoLists -->
<g id="edge1" class="edge">
<title>Parser&#45;&gt;todoLists</title>
<path fill="none" stroke="black" d="M469.2,-427.57C407.41,-406.17 320.91,-376.21 263.3,-356.25"/>
<polygon fill="black" stroke="black" points="264.57,-352.99 253.97,-353.02 262.27,-359.6 264.57,-352.99"/>
<text text-anchor="middle" x="369.12" y="-373.06" font-family="Times New Roman,serif" font-size="14.00">todo lists</text>
</g>
<!-- stacksToExpand -->
<g id="node6" class="node">
<title>stacksToExpand</title>
<polygon fill="none" stroke="red" points="422.25,-316.11 422.25,-352.11 476.25,-352.11 476.25,-316.11 422.25,-316.11"/>
<text text-anchor="middle" x="449.12" y="-328.68" font-family="Times New Roman,serif" font-size="14.00">0</text>
</g>
<!-- Parser&#45;&gt;stacksToExpand -->
<g id="edge5" class="edge">
<title>Parser&#45;&gt;stacksToExpand</title>
<path fill="none" stroke="black" d="M477.54,-421.24C464.77,-411.84 453.1,-400.27 445.75,-386.36 442.1,-379.45 441.36,-371.26 441.96,-363.48"/>
<polygon fill="black" stroke="black" points="445.41,-364.12 443.48,-353.7 438.49,-363.05 445.41,-364.12"/>
<text text-anchor="middle" x="493.5" y="-373.06" font-family="Times New Roman,serif" font-size="14.00">stacks to expand</text>
</g>
<!-- terminalsToReduce -->
<g id="node7" class="node">
<title>terminalsToReduce</title>
<polygon fill="none" stroke="black" points="517.25,-316.11 517.25,-352.11 571.25,-352.11 571.25,-316.11 517.25,-316.11"/>
<text text-anchor="middle" x="544.12" y="-328.68" font-family="Times New Roman,serif" font-size="14.00"> </text>
</g>
<!-- Parser&#45;&gt;terminalsToReduce -->
<g id="edge6" class="edge">
<title>Parser&#45;&gt;terminalsToReduce</title>
<path fill="none" stroke="black" d="M544.25,-404.01C544.25,-390.22 544.25,-375.72 544.25,-363.59"/>
<polygon fill="black" stroke="black" points="547.75,-363.88 544.25,-353.88 540.75,-363.88 547.75,-363.88"/>
<text text-anchor="middle" x="597.12" y="-373.06" font-family="Times New Roman,serif" font-size="14.00">terminals to reduce</text>
</g>
<!-- nonTerminalsToReduce -->
<g id="node8" class="node">
<title>nonTerminalsToReduce</title>
<polygon fill="none" stroke="black" points="646.25,-316.11 646.25,-352.11 700.25,-352.11 700.25,-316.11 646.25,-316.11"/>
<text text-anchor="middle" x="673.12" y="-328.68" font-family="Times New Roman,serif" font-size="14.00"> </text>
</g>
<!-- Parser&#45;&gt;nonTerminalsToReduce -->
<g id="edge7" class="edge">
<title>Parser&#45;&gt;nonTerminalsToReduce</title>
<path fill="none" stroke="black" d="M610.26,-420.85C625.11,-411.26 639.84,-399.69 651.25,-386.36 657.05,-379.58 661.52,-371.04 664.88,-362.89"/>
<polygon fill="black" stroke="black" points="668.11,-364.23 668.25,-353.64 661.54,-361.83 668.11,-364.23"/>
<text text-anchor="middle" x="725.88" y="-373.06" font-family="Times New Roman,serif" font-size="14.00">non&#45;terminals to reduce</text>
</g>
<!-- error -->
<g id="node13" class="node">
<title>error</title>
<ellipse fill="none" stroke="black" cx="827.25" cy="-334.11" rx="34.1" ry="18"/>
<text text-anchor="middle" x="827.25" y="-328.68" font-family="Times New Roman,serif" font-size="14.00">Errors</text>
</g>
<!-- Parser&#45;&gt;error -->
<g id="edge8" class="edge">
<title>Parser&#45;&gt;error</title>
<path fill="none" stroke="black" d="M631.66,-446.24C683.38,-438.22 747.84,-421.45 795.25,-386.36 803.61,-380.17 810.3,-371.08 815.35,-362.27"/>
<polygon fill="black" stroke="black" points="818.36,-364.08 819.84,-353.59 812.14,-360.87 818.36,-364.08"/>
<text text-anchor="middle" x="846.75" y="-373.06" font-family="Times New Roman,serif" font-size="14.00">error tracking</text>
</g>
<!-- 59 -->
<g id="node3" class="node">
<title>59</title>
<ellipse fill="none" stroke="black" cx="449.25" cy="-224.79" rx="141.77" ry="39.07"/>
<text text-anchor="middle" x="449.25" y="-235.12" font-family="Times New Roman,serif" font-size="14.00">Literal: </text>
<text text-anchor="middle" x="449.25" y="-219.37" font-family="Times New Roman,serif" font-size="14.00">.4@4</text>
<text text-anchor="middle" x="449.25" y="-203.62" font-family="Times New Roman,serif" font-size="14.00">in: &#39;ABC &#45;&gt; a Layout b Layout c&#39;</text>
</g>
<!-- 35 -->
<g id="node4" class="node">
<title>35</title>
<ellipse fill="none" stroke="black" cx="449.25" cy="-120.79" rx="87.68" ry="27.93"/>
<text text-anchor="middle" x="449.25" y="-123.24" font-family="Times New Roman,serif" font-size="14.00">NonTerminal: ABC</text>
<text text-anchor="middle" x="449.25" y="-107.49" font-family="Times New Roman,serif" font-size="14.00">.0@0</text>
</g>
<!-- 59&#45;&gt;35 -->
<g id="edge3" class="edge">
<title>59&#45;&gt;35</title>
<path fill="none" stroke="black" d="M449.25,-185.23C449.25,-177.12 449.25,-168.56 449.25,-160.44"/>
<polygon fill="black" stroke="black" points="452.75,-160.49 449.25,-150.49 445.75,-160.49 452.75,-160.49"/>
</g>
<!-- &#45;1 -->
<g id="node5" class="node">
<title>&#45;1</title>
<ellipse fill="none" stroke="black" cx="449.25" cy="-27.93" rx="73.36" ry="27.93"/>
<text text-anchor="middle" x="449.25" y="-30.38" font-family="Times New Roman,serif" font-size="14.00">NonTerminal: S</text>
<text text-anchor="middle" x="449.25" y="-14.63" font-family="Times New Roman,serif" font-size="14.00">.0@&#45;1</text>
</g>
<!-- 35&#45;&gt;&#45;1 -->
<g id="edge2" class="edge">
<title>35&#45;&gt;&#45;1</title>
<path fill="none" stroke="black" d="M449.25,-92.53C449.25,-84.71 449.25,-76.04 449.25,-67.67"/>
<polygon fill="black" stroke="black" points="452.75,-67.69 449.25,-57.69 445.75,-67.69 452.75,-67.69"/>
</g>
<!-- stacksToExpand&#45;&gt;59 -->
<g id="edge4" class="edge">
<title>stacksToExpand:0&#45;&gt;59</title>
<path fill="none" stroke="black" d="M449.15,-315.73C449.16,-304.59 449.18,-289.79 449.19,-275.41"/>
<polygon fill="black" stroke="black" points="452.69,-275.57 449.2,-265.57 445.69,-275.56 452.69,-275.57"/>
</g>
<!-- unexpandableNodes -->
<g id="node9" class="node">
<title>unexpandableNodes</title>
<polygon fill="none" stroke="black" points="666.25,-206.79 666.25,-242.79 720.25,-242.79 720.25,-206.79 666.25,-206.79"/>
<text text-anchor="middle" x="693.12" y="-219.37" font-family="Times New Roman,serif" font-size="14.00"> </text>
</g>
<!-- unmatchableLeafNodes -->
<g id="node10" class="node">
<title>unmatchableLeafNodes</title>
<polygon fill="none" stroke="black" points="766.25,-206.79 766.25,-242.79 820.25,-242.79 820.25,-206.79 766.25,-206.79"/>
<text text-anchor="middle" x="793.12" y="-219.37" font-family="Times New Roman,serif" font-size="14.00"> </text>
</g>
<!-- unmatchableMidProductionNodes -->
<g id="node11" class="node">
<title>unmatchableMidProductionNodes</title>
<polygon fill="none" stroke="black" points="888.25,-206.79 888.25,-242.79 942.25,-242.79 942.25,-206.79 888.25,-206.79"/>
<text text-anchor="middle" x="915.12" y="-219.37" font-family="Times New Roman,serif" font-size="14.00"> </text>
</g>
<!-- filteredNodes -->
<g id="node12" class="node">
<title>filteredNodes</title>
<polygon fill="none" stroke="black" points="1037.25,-206.79 1037.25,-242.79 1091.25,-242.79 1091.25,-206.79 1037.25,-206.79"/>
<text text-anchor="middle" x="1064.12" y="-219.37" font-family="Times New Roman,serif" font-size="14.00"> </text>
</g>
<!-- error&#45;&gt;unexpandableNodes -->
<g id="edge9" class="edge">
<title>error&#45;&gt;unexpandableNodes</title>
<path fill="none" stroke="black" d="M793.02,-331.92C766.32,-329.11 730.25,-320.87 708.75,-297.61 698.13,-286.12 694.13,-269.15 692.84,-254.6"/>
<polygon fill="black" stroke="black" points="696.34,-254.45 692.38,-244.62 689.35,-254.77 696.34,-254.45"/>
<text text-anchor="middle" x="746.5" y="-284.31" font-family="Times New Roman,serif" font-size="14.00">unexpandable</text>
</g>
<!-- error&#45;&gt;unmatchableLeafNodes -->
<g id="edge10" class="edge">
<title>error&#45;&gt;unmatchableLeafNodes</title>
<path fill="none" stroke="black" d="M809.26,-318.67C803.33,-312.83 797.44,-305.57 794.25,-297.61 788.79,-284 788.14,-267.75 789.02,-254.15"/>
<polygon fill="black" stroke="black" points="792.48,-254.81 789.97,-244.51 785.51,-254.12 792.48,-254.81"/>
<text text-anchor="middle" x="843.75" y="-284.31" font-family="Times New Roman,serif" font-size="14.00">unmatchable leafs</text>
</g>
<!-- error&#45;&gt;unmatchableMidProductionNodes -->
<g id="edge11" class="edge">
<title>error&#45;&gt;unmatchableMidProductionNodes</title>
<path fill="none" stroke="black" d="M855.62,-323.63C868.73,-317.94 883.51,-309.48 893.25,-297.61 903.27,-285.4 908.73,-268.67 911.71,-254.43"/>
<polygon fill="black" stroke="black" points="915.13,-255.15 913.41,-244.7 908.24,-253.95 915.13,-255.15"/>
<text text-anchor="middle" x="965.25" y="-284.31" font-family="Times New Roman,serif" font-size="14.00">unmatchable mid&#45;prod</text>
</g>
<!-- error&#45;&gt;filteredNodes -->
<g id="edge12" class="edge">
<title>error&#45;&gt;filteredNodes</title>
<path fill="none" stroke="black" d="M860.97,-331.08C912.11,-327.38 1006.1,-317.97 1032.25,-297.61 1045.9,-286.98 1053.87,-269.28 1058.45,-254.11"/>
<polygon fill="black" stroke="black" points="1061.79,-255.19 1060.94,-244.63 1055.02,-253.41 1061.79,-255.19"/>
<text text-anchor="middle" x="1064.38" y="-284.31" font-family="Times New Roman,serif" font-size="14.00">filtered</text>
</g>
</g>
</svg>
