<?xml version="1.0" encoding="UTF-8" standalone="no"?>
<!DOCTYPE svg PUBLIC "-//W3C//DTD SVG 1.1//EN"
 "http://www.w3.org/Graphics/SVG/1.1/DTD/svg11.dtd">
<!-- Generated by graphviz version 12.0.0 (20240704.0754)
 -->
<!-- Title: Parser Pages: 1 -->
<svg width="1287pt" height="602pt"
 viewBox="0.00 0.00 1286.77 601.52" xmlns="http://www.w3.org/2000/svg" xmlns:xlink="http://www.w3.org/1999/xlink">
<g id="graph0" class="graph" transform="scale(1 1) rotate(0) translate(4 597.52)">
<title>Parser</title>
<polygon fill="white" stroke="none" points="-4,4 -4,-597.52 1282.77,-597.52 1282.77,4 -4,4"/>
<!-- Parser -->
<g id="node1" class="node">
<title>Parser</title>
<ellipse fill="none" stroke="black" cx="758.77" cy="-543.31" rx="143.37" ry="50.2"/>
<text text-anchor="middle" x="758.77" y="-561.51" font-family="Times New Roman,serif" font-size="14.00">Parser</text>
<text text-anchor="middle" x="758.77" y="-545.76" font-family="Times New Roman,serif" font-size="14.00">Input: &quot;a b c $&quot;</text>
<text text-anchor="middle" x="758.77" y="-530.01" font-family="Times New Roman,serif" font-size="14.00">Location: 4 (&#39;c&#39;)</text>
<text text-anchor="middle" x="758.77" y="-514.26" font-family="Times New Roman,serif" font-size="14.00">Step 20: Finding stacks to reduce</text>
</g>
<!-- todoLists -->
<g id="node7" class="node">
<title>todoLists</title>
<polygon fill="none" stroke="red" points="191.52,-404.86 191.52,-440.86 596.02,-440.86 596.02,-404.86 191.52,-404.86"/>
<text text-anchor="middle" x="202.9" y="-417.43" font-family="Times New Roman,serif" font-size="14.00">0</text>
<polyline fill="none" stroke="red" points="214.27,-404.86 214.27,-440.86"/>
<text text-anchor="middle" x="225.65" y="-417.43" font-family="Times New Roman,serif" font-size="14.00">1</text>
<polyline fill="none" stroke="red" points="237.02,-404.86 237.02,-440.86"/>
<text text-anchor="middle" x="248.4" y="-417.43" font-family="Times New Roman,serif" font-size="14.00">2</text>
<polyline fill="none" stroke="red" points="259.77,-404.86 259.77,-440.86"/>
<text text-anchor="middle" x="271.15" y="-417.43" font-family="Times New Roman,serif" font-size="14.00">3</text>
<polyline fill="none" stroke="red" points="282.52,-404.86 282.52,-440.86"/>
<text text-anchor="middle" x="293.9" y="-417.43" font-family="Times New Roman,serif" font-size="14.00">4</text>
<polyline fill="none" stroke="red" points="305.27,-404.86 305.27,-440.86"/>
<text text-anchor="middle" x="316.65" y="-417.43" font-family="Times New Roman,serif" font-size="14.00">5</text>
<polyline fill="none" stroke="red" points="328.02,-404.86 328.02,-440.86"/>
<text text-anchor="middle" x="339.4" y="-417.43" font-family="Times New Roman,serif" font-size="14.00">6</text>
<polyline fill="none" stroke="red" points="350.77,-404.86 350.77,-440.86"/>
<text text-anchor="middle" x="362.15" y="-417.43" font-family="Times New Roman,serif" font-size="14.00">7</text>
<polyline fill="none" stroke="red" points="373.52,-404.86 373.52,-440.86"/>
<text text-anchor="middle" x="384.9" y="-417.43" font-family="Times New Roman,serif" font-size="14.00">8</text>
<polyline fill="none" stroke="red" points="396.27,-404.86 396.27,-440.86"/>
<text text-anchor="middle" x="407.65" y="-417.43" font-family="Times New Roman,serif" font-size="14.00">9</text>
<polyline fill="none" stroke="red" points="419.02,-404.86 419.02,-440.86"/>
<text text-anchor="middle" x="433.77" y="-417.43" font-family="Times New Roman,serif" font-size="14.00">10</text>
<polyline fill="none" stroke="red" points="448.52,-404.86 448.52,-440.86"/>
<text text-anchor="middle" x="463.27" y="-417.43" font-family="Times New Roman,serif" font-size="14.00">11</text>
<polyline fill="none" stroke="red" points="478.02,-404.86 478.02,-440.86"/>
<text text-anchor="middle" x="492.77" y="-417.43" font-family="Times New Roman,serif" font-size="14.00">12</text>
<polyline fill="none" stroke="red" points="507.52,-404.86 507.52,-440.86"/>
<text text-anchor="middle" x="522.27" y="-417.43" font-family="Times New Roman,serif" font-size="14.00">13</text>
<polyline fill="none" stroke="red" points="537.02,-404.86 537.02,-440.86"/>
<text text-anchor="middle" x="551.77" y="-417.43" font-family="Times New Roman,serif" font-size="14.00">14</text>
<polyline fill="none" stroke="red" points="566.52,-404.86 566.52,-440.86"/>
<text text-anchor="middle" x="581.27" y="-417.43" font-family="Times New Roman,serif" font-size="14.00">15</text>
</g>
<!-- Parser&#45;&gt;todoLists -->
<g id="edge6" class="edge">
<title>Parser&#45;&gt;todoLists</title>
<path fill="none" stroke="black" d="M654.67,-508.53C591.49,-488.02 512.83,-462.5 458.49,-444.86"/>
<polygon fill="black" stroke="black" points="459.65,-441.56 449.06,-441.8 457.49,-448.22 459.65,-441.56"/>
<text text-anchor="middle" x="569.65" y="-461.81" font-family="Times New Roman,serif" font-size="14.00">todo lists</text>
</g>
<!-- stacksToExpand -->
<g id="node8" class="node">
<title>stacksToExpand</title>
<polygon fill="none" stroke="black" points="613.77,-404.86 613.77,-440.86 667.77,-440.86 667.77,-404.86 613.77,-404.86"/>
<text text-anchor="middle" x="640.65" y="-417.43" font-family="Times New Roman,serif" font-size="14.00"> </text>
</g>
<!-- Parser&#45;&gt;stacksToExpand -->
<g id="edge7" class="edge">
<title>Parser&#45;&gt;stacksToExpand</title>
<path fill="none" stroke="black" d="M685.5,-500.02C676.21,-492.55 667.45,-484.21 660.27,-475.11 654.99,-468.4 651.01,-460.1 648.07,-452.15"/>
<polygon fill="black" stroke="black" points="651.45,-451.22 645.05,-442.78 644.79,-453.37 651.45,-451.22"/>
<text text-anchor="middle" x="708.02" y="-461.81" font-family="Times New Roman,serif" font-size="14.00">stacks to expand</text>
</g>
<!-- terminalsToReduce -->
<g id="node9" class="node">
<title>terminalsToReduce</title>
<polygon fill="none" stroke="black" points="731.77,-404.86 731.77,-440.86 785.77,-440.86 785.77,-404.86 731.77,-404.86"/>
<text text-anchor="middle" x="758.65" y="-417.43" font-family="Times New Roman,serif" font-size="14.00"> </text>
</g>
<!-- Parser&#45;&gt;terminalsToReduce -->
<g id="edge8" class="edge">
<title>Parser&#45;&gt;terminalsToReduce</title>
<path fill="none" stroke="black" d="M758.77,-492.76C758.77,-478.97 758.77,-464.47 758.77,-452.34"/>
<polygon fill="black" stroke="black" points="762.28,-452.63 758.77,-442.63 755.28,-452.63 762.28,-452.63"/>
<text text-anchor="middle" x="811.65" y="-461.81" font-family="Times New Roman,serif" font-size="14.00">terminals to reduce</text>
</g>
<!-- nonTerminalsToReduce -->
<g id="node10" class="node">
<title>nonTerminalsToReduce</title>
<polygon fill="none" stroke="black" points="860.77,-404.86 860.77,-440.86 914.77,-440.86 914.77,-404.86 860.77,-404.86"/>
<text text-anchor="middle" x="887.65" y="-417.43" font-family="Times New Roman,serif" font-size="14.00"> </text>
</g>
<!-- Parser&#45;&gt;nonTerminalsToReduce -->
<g id="edge9" class="edge">
<title>Parser&#45;&gt;nonTerminalsToReduce</title>
<path fill="none" stroke="black" d="M837.21,-501.04C847.66,-493.36 857.57,-484.69 865.77,-475.11 871.57,-468.33 876.05,-459.79 879.4,-451.64"/>
<polygon fill="black" stroke="black" points="882.64,-452.98 882.78,-442.39 876.06,-450.58 882.64,-452.98"/>
<text text-anchor="middle" x="941.4" y="-461.81" font-family="Times New Roman,serif" font-size="14.00">non&#45;terminals to reduce</text>
</g>
<!-- error -->
<g id="node15" class="node">
<title>error</title>
<ellipse fill="none" stroke="black" cx="1041.77" cy="-422.86" rx="34.1" ry="18"/>
<text text-anchor="middle" x="1041.77" y="-417.43" font-family="Times New Roman,serif" font-size="14.00">Errors</text>
</g>
<!-- Parser&#45;&gt;error -->
<g id="edge10" class="edge">
<title>Parser&#45;&gt;error</title>
<path fill="none" stroke="black" d="M893.88,-526.09C934.4,-516.25 977,-500.45 1010.77,-475.11 1019.02,-468.92 1025.54,-459.83 1030.42,-451.02"/>
<polygon fill="black" stroke="black" points="1033.41,-452.86 1034.73,-442.35 1027.14,-449.75 1033.41,-452.86"/>
<text text-anchor="middle" x="1062.27" y="-461.81" font-family="Times New Roman,serif" font-size="14.00">error tracking</text>
</g>
<!-- todo&#45;2 -->
<g id="node2" class="node">
<title>todo&#45;2</title>
<polygon fill="none" stroke="black" points="221.77,-316.11 221.77,-352.11 275.77,-352.11 275.77,-316.11 221.77,-316.11"/>
<text text-anchor="middle" x="248.65" y="-328.68" font-family="Times New Roman,serif" font-size="14.00">0</text>
</g>
<!-- 59 -->
<g id="node3" class="node">
<title>59</title>
<ellipse fill="none" stroke="black" cx="141.77" cy="-224.79" rx="141.77" ry="39.07"/>
<text text-anchor="middle" x="141.77" y="-235.12" font-family="Times New Roman,serif" font-size="14.00">Literal: </text>
<text text-anchor="middle" x="141.77" y="-219.37" font-family="Times New Roman,serif" font-size="14.00">.4@4</text>
<text text-anchor="middle" x="141.77" y="-203.62" font-family="Times New Roman,serif" font-size="14.00">in: &#39;ABC &#45;&gt; a Layout b Layout c&#39;</text>
</g>
<!-- todo&#45;2&#45;&gt;59 -->
<g id="edge3" class="edge">
<title>todo&#45;2:sw&#45;&gt;59</title>
<path fill="none" stroke="black" d="M221.77,-315.61C207.83,-301.66 193.28,-285.78 180.48,-271.29"/>
<polygon fill="black" stroke="black" points="183.38,-269.29 174.15,-264.08 178.12,-273.9 183.38,-269.29"/>
<text text-anchor="middle" x="219.52" y="-284.31" font-family="Times New Roman,serif" font-size="14.00">Stack</text>
</g>
<!-- 835631769 -->
<g id="node6" class="node">
<title>835631769</title>
<polygon fill="none" stroke="black" points="406.35,-217.33 406.35,-232.25 375.55,-242.79 332,-242.79 301.2,-232.25 301.2,-217.33 332,-206.79 375.55,-206.79 406.35,-217.33"/>
<text text-anchor="middle" x="353.77" y="-219.37" font-family="Times New Roman,serif" font-size="14.00">Literal &quot;c&quot;</text>
</g>
<!-- todo&#45;2&#45;&gt;835631769 -->
<g id="edge4" class="edge">
<title>todo&#45;2:se&#45;&gt;835631769</title>
<path fill="none" stroke="black" d="M275.52,-315.61C296.04,-295.09 317.57,-270.09 332.84,-251.67"/>
<polygon fill="black" stroke="black" points="335.4,-254.08 339.05,-244.13 329.99,-249.63 335.4,-254.08"/>
<text text-anchor="middle" x="323.15" y="-284.31" font-family="Times New Roman,serif" font-size="14.00">Node</text>
</g>
<!-- 35 -->
<g id="node4" class="node">
<title>35</title>
<ellipse fill="none" stroke="black" cx="141.77" cy="-120.79" rx="87.68" ry="27.93"/>
<text text-anchor="middle" x="141.77" y="-123.24" font-family="Times New Roman,serif" font-size="14.00">NonTerminal: ABC</text>
<text text-anchor="middle" x="141.77" y="-107.49" font-family="Times New Roman,serif" font-size="14.00">.0@0</text>
</g>
<!-- 59&#45;&gt;35 -->
<g id="edge2" class="edge">
<title>59&#45;&gt;35</title>
<path fill="none" stroke="black" d="M141.77,-185.23C141.77,-177.12 141.77,-168.56 141.77,-160.44"/>
<polygon fill="black" stroke="black" points="145.28,-160.49 141.77,-150.49 138.28,-160.49 145.28,-160.49"/>
</g>
<!-- &#45;1 -->
<g id="node5" class="node">
<title>&#45;1</title>
<ellipse fill="none" stroke="black" cx="141.77" cy="-27.93" rx="73.36" ry="27.93"/>
<text text-anchor="middle" x="141.77" y="-30.38" font-family="Times New Roman,serif" font-size="14.00">NonTerminal: S</text>
<text text-anchor="middle" x="141.77" y="-14.63" font-family="Times New Roman,serif" font-size="14.00">.0@&#45;1</text>
</g>
<!-- 35&#45;&gt;&#45;1 -->
<g id="edge1" class="edge">
<title>35&#45;&gt;&#45;1</title>
<path fill="none" stroke="black" d="M141.77,-92.53C141.77,-84.71 141.77,-76.04 141.77,-67.67"/>
<polygon fill="black" stroke="black" points="145.28,-67.69 141.77,-57.69 138.28,-67.69 145.28,-67.69"/>
</g>
<!-- todoLists&#45;&gt;todo&#45;2 -->
<g id="edge5" class="edge">
<title>todoLists:2&#45;&gt;todo&#45;2</title>
<path fill="none" stroke="black" d="M248.4,-404.36C248.4,-390.97 248.47,-376.12 248.55,-363.61"/>
<polygon fill="black" stroke="black" points="252.05,-364.01 248.62,-353.98 245.05,-363.96 252.05,-364.01"/>
</g>
<!-- unexpandableNodes -->
<g id="node11" class="node">
<title>unexpandableNodes</title>
<polygon fill="none" stroke="black" points="853.77,-316.11 853.77,-352.11 907.77,-352.11 907.77,-316.11 853.77,-316.11"/>
<text text-anchor="middle" x="880.65" y="-328.68" font-family="Times New Roman,serif" font-size="14.00"> </text>
</g>
<!-- unmatchableLeafNodes -->
<g id="node12" class="node">
<title>unmatchableLeafNodes</title>
<polygon fill="none" stroke="black" points="953.77,-316.11 953.77,-352.11 1007.77,-352.11 1007.77,-316.11 953.77,-316.11"/>
<text text-anchor="middle" x="980.65" y="-328.68" font-family="Times New Roman,serif" font-size="14.00"> </text>
</g>
<!-- unmatchableMidProductionNodes -->
<g id="node13" class="node">
<title>unmatchableMidProductionNodes</title>
<polygon fill="none" stroke="black" points="1075.77,-316.11 1075.77,-352.11 1129.77,-352.11 1129.77,-316.11 1075.77,-316.11"/>
<text text-anchor="middle" x="1102.65" y="-328.68" font-family="Times New Roman,serif" font-size="14.00"> </text>
</g>
<!-- filteredNodes -->
<g id="node14" class="node">
<title>filteredNodes</title>
<polygon fill="none" stroke="black" points="1224.77,-316.11 1224.77,-352.11 1278.77,-352.11 1278.77,-316.11 1224.77,-316.11"/>
<text text-anchor="middle" x="1251.65" y="-328.68" font-family="Times New Roman,serif" font-size="14.00"> </text>
</g>
<!-- error&#45;&gt;unexpandableNodes -->
<g id="edge11" class="edge">
<title>error&#45;&gt;unexpandableNodes</title>
<path fill="none" stroke="black" d="M1008.65,-417.63C970.87,-412.16 912.27,-401.51 896.27,-386.36 889.96,-380.38 886.2,-371.93 883.95,-363.62"/>
<polygon fill="black" stroke="black" points="887.44,-363.21 882.05,-354.09 880.58,-364.58 887.44,-363.21"/>
<text text-anchor="middle" x="935.02" y="-373.06" font-family="Times New Roman,serif" font-size="14.00">unexpandable</text>
</g>
<!-- error&#45;&gt;unmatchableLeafNodes -->
<g id="edge12" class="edge">
<title>error&#45;&gt;unmatchableLeafNodes</title>
<path fill="none" stroke="black" d="M1013.6,-412.36C1001.61,-406.77 988.79,-398.38 981.77,-386.36 977.84,-379.62 976.49,-371.49 976.4,-363.71"/>
<polygon fill="black" stroke="black" points="979.89,-364.09 976.99,-353.9 972.9,-363.67 979.89,-364.09"/>
<text text-anchor="middle" x="1031.27" y="-373.06" font-family="Times New Roman,serif" font-size="14.00">unmatchable leafs</text>
</g>
<!-- error&#45;&gt;unmatchableMidProductionNodes -->
<g id="edge13" class="edge">
<title>error&#45;&gt;unmatchableMidProductionNodes</title>
<path fill="none" stroke="black" d="M1060.45,-407.72C1067.49,-401.71 1075.14,-394.26 1080.77,-386.36 1085.81,-379.28 1090.02,-370.87 1093.37,-362.93"/>
<polygon fill="black" stroke="black" points="1096.63,-364.21 1096.96,-353.62 1090.1,-361.68 1096.63,-364.21"/>
<text text-anchor="middle" x="1151.77" y="-373.06" font-family="Times New Roman,serif" font-size="14.00">unmatchable mid&#45;prod</text>
</g>
<!-- error&#45;&gt;filteredNodes -->
<g id="edge14" class="edge">
<title>error&#45;&gt;filteredNodes</title>
<path fill="none" stroke="black" d="M1076.08,-422.65C1114.13,-421.89 1175.79,-415.66 1218.77,-386.36 1227.45,-380.45 1234.35,-371.42 1239.56,-362.58"/>
<polygon fill="black" stroke="black" points="1242.61,-364.31 1244.19,-353.83 1236.42,-361.04 1242.61,-364.31"/>
<text text-anchor="middle" x="1252.9" y="-373.06" font-family="Times New Roman,serif" font-size="14.00">filtered</text>
</g>
</g>
</svg>
