<?xml version="1.0" encoding="UTF-8" standalone="no"?>
<!DOCTYPE svg PUBLIC "-//W3C//DTD SVG 1.1//EN"
 "http://www.w3.org/Graphics/SVG/1.1/DTD/svg11.dtd">
<!-- Generated by graphviz version 12.0.0 (20240704.0754)
 -->
<!-- Title: Parser Pages: 1 -->
<svg width="1310pt" height="602pt"
 viewBox="0.00 0.00 1309.77 601.52" xmlns="http://www.w3.org/2000/svg" xmlns:xlink="http://www.w3.org/1999/xlink">
<g id="graph0" class="graph" transform="scale(1 1) rotate(0) translate(4 597.52)">
<title>Parser</title>
<polygon fill="white" stroke="none" points="-4,4 -4,-597.52 1305.77,-597.52 1305.77,4 -4,4"/>
<!-- Parser -->
<g id="node1" class="node">
<title>Parser</title>
<ellipse fill="none" stroke="black" cx="781.77" cy="-543.31" rx="135.41" ry="50.2"/>
<text text-anchor="middle" x="781.77" y="-561.51" font-family="Times New Roman,serif" font-size="14.00">Parser</text>
<text text-anchor="middle" x="781.77" y="-545.76" font-family="Times New Roman,serif" font-size="14.00">Input: &quot;a b c $&quot;</text>
<text text-anchor="middle" x="781.77" y="-530.01" font-family="Times New Roman,serif" font-size="14.00">Location: 4 (&#39;c&#39;)</text>
<text text-anchor="middle" x="781.77" y="-514.26" font-family="Times New Roman,serif" font-size="14.00">Step 21: Found stack to reduce</text>
</g>
<!-- todoLists -->
<g id="node7" class="node">
<title>todoLists</title>
<polygon fill="none" stroke="black" points="214.52,-404.86 214.52,-440.86 619.02,-440.86 619.02,-404.86 214.52,-404.86"/>
<text text-anchor="middle" x="225.9" y="-417.43" font-family="Times New Roman,serif" font-size="14.00">0</text>
<polyline fill="none" stroke="black" points="237.27,-404.86 237.27,-440.86"/>
<text text-anchor="middle" x="248.65" y="-417.43" font-family="Times New Roman,serif" font-size="14.00">1</text>
<polyline fill="none" stroke="black" points="260.02,-404.86 260.02,-440.86"/>
<text text-anchor="middle" x="271.4" y="-417.43" font-family="Times New Roman,serif" font-size="14.00">2</text>
<polyline fill="none" stroke="black" points="282.77,-404.86 282.77,-440.86"/>
<text text-anchor="middle" x="294.15" y="-417.43" font-family="Times New Roman,serif" font-size="14.00">3</text>
<polyline fill="none" stroke="black" points="305.52,-404.86 305.52,-440.86"/>
<text text-anchor="middle" x="316.9" y="-417.43" font-family="Times New Roman,serif" font-size="14.00">4</text>
<polyline fill="none" stroke="black" points="328.27,-404.86 328.27,-440.86"/>
<text text-anchor="middle" x="339.65" y="-417.43" font-family="Times New Roman,serif" font-size="14.00">5</text>
<polyline fill="none" stroke="black" points="351.02,-404.86 351.02,-440.86"/>
<text text-anchor="middle" x="362.4" y="-417.43" font-family="Times New Roman,serif" font-size="14.00">6</text>
<polyline fill="none" stroke="black" points="373.77,-404.86 373.77,-440.86"/>
<text text-anchor="middle" x="385.15" y="-417.43" font-family="Times New Roman,serif" font-size="14.00">7</text>
<polyline fill="none" stroke="black" points="396.52,-404.86 396.52,-440.86"/>
<text text-anchor="middle" x="407.9" y="-417.43" font-family="Times New Roman,serif" font-size="14.00">8</text>
<polyline fill="none" stroke="black" points="419.27,-404.86 419.27,-440.86"/>
<text text-anchor="middle" x="430.65" y="-417.43" font-family="Times New Roman,serif" font-size="14.00">9</text>
<polyline fill="none" stroke="black" points="442.02,-404.86 442.02,-440.86"/>
<text text-anchor="middle" x="456.77" y="-417.43" font-family="Times New Roman,serif" font-size="14.00">10</text>
<polyline fill="none" stroke="black" points="471.52,-404.86 471.52,-440.86"/>
<text text-anchor="middle" x="486.27" y="-417.43" font-family="Times New Roman,serif" font-size="14.00">11</text>
<polyline fill="none" stroke="black" points="501.02,-404.86 501.02,-440.86"/>
<text text-anchor="middle" x="515.77" y="-417.43" font-family="Times New Roman,serif" font-size="14.00">12</text>
<polyline fill="none" stroke="black" points="530.52,-404.86 530.52,-440.86"/>
<text text-anchor="middle" x="545.27" y="-417.43" font-family="Times New Roman,serif" font-size="14.00">13</text>
<polyline fill="none" stroke="black" points="560.02,-404.86 560.02,-440.86"/>
<text text-anchor="middle" x="574.77" y="-417.43" font-family="Times New Roman,serif" font-size="14.00">14</text>
<polyline fill="none" stroke="black" points="589.52,-404.86 589.52,-440.86"/>
<text text-anchor="middle" x="604.27" y="-417.43" font-family="Times New Roman,serif" font-size="14.00">15</text>
</g>
<!-- Parser&#45;&gt;todoLists -->
<g id="edge6" class="edge">
<title>Parser&#45;&gt;todoLists</title>
<path fill="none" stroke="black" d="M680.59,-509.47C616.8,-488.77 536.35,-462.67 481.17,-444.76"/>
<polygon fill="black" stroke="black" points="482.51,-441.51 471.92,-441.75 480.35,-448.17 482.51,-441.51"/>
<text text-anchor="middle" x="592.65" y="-461.81" font-family="Times New Roman,serif" font-size="14.00">todo lists</text>
</g>
<!-- stacksToExpand -->
<g id="node8" class="node">
<title>stacksToExpand</title>
<polygon fill="none" stroke="black" points="636.77,-404.86 636.77,-440.86 690.77,-440.86 690.77,-404.86 636.77,-404.86"/>
<text text-anchor="middle" x="663.65" y="-417.43" font-family="Times New Roman,serif" font-size="14.00"> </text>
</g>
<!-- Parser&#45;&gt;stacksToExpand -->
<g id="edge7" class="edge">
<title>Parser&#45;&gt;stacksToExpand</title>
<path fill="none" stroke="black" d="M709.5,-500.81C699.83,-493.14 690.71,-484.54 683.27,-475.11 677.99,-468.4 674.01,-460.1 671.07,-452.15"/>
<polygon fill="black" stroke="black" points="674.45,-451.22 668.05,-442.78 667.79,-453.37 674.45,-451.22"/>
<text text-anchor="middle" x="731.02" y="-461.81" font-family="Times New Roman,serif" font-size="14.00">stacks to expand</text>
</g>
<!-- terminalsToReduce -->
<g id="node9" class="node">
<title>terminalsToReduce</title>
<polygon fill="none" stroke="black" points="754.77,-404.86 754.77,-440.86 808.77,-440.86 808.77,-404.86 754.77,-404.86"/>
<text text-anchor="middle" x="781.65" y="-417.43" font-family="Times New Roman,serif" font-size="14.00"> </text>
</g>
<!-- Parser&#45;&gt;terminalsToReduce -->
<g id="edge8" class="edge">
<title>Parser&#45;&gt;terminalsToReduce</title>
<path fill="none" stroke="black" d="M781.77,-492.76C781.77,-478.97 781.77,-464.47 781.77,-452.34"/>
<polygon fill="black" stroke="black" points="785.28,-452.63 781.77,-442.63 778.28,-452.63 785.28,-452.63"/>
<text text-anchor="middle" x="834.65" y="-461.81" font-family="Times New Roman,serif" font-size="14.00">terminals to reduce</text>
</g>
<!-- nonTerminalsToReduce -->
<g id="node10" class="node">
<title>nonTerminalsToReduce</title>
<polygon fill="none" stroke="black" points="883.77,-404.86 883.77,-440.86 937.77,-440.86 937.77,-404.86 883.77,-404.86"/>
<text text-anchor="middle" x="910.65" y="-417.43" font-family="Times New Roman,serif" font-size="14.00"> </text>
</g>
<!-- Parser&#45;&gt;nonTerminalsToReduce -->
<g id="edge9" class="edge">
<title>Parser&#45;&gt;nonTerminalsToReduce</title>
<path fill="none" stroke="black" d="M859.12,-501.84C869.97,-493.96 880.29,-485.03 888.77,-475.11 894.57,-468.33 899.05,-459.79 902.4,-451.64"/>
<polygon fill="black" stroke="black" points="905.64,-452.98 905.78,-442.39 899.06,-450.58 905.64,-452.98"/>
<text text-anchor="middle" x="964.4" y="-461.81" font-family="Times New Roman,serif" font-size="14.00">non&#45;terminals to reduce</text>
</g>
<!-- error -->
<g id="node15" class="node">
<title>error</title>
<ellipse fill="none" stroke="black" cx="1064.77" cy="-422.86" rx="34.1" ry="18"/>
<text text-anchor="middle" x="1064.77" y="-417.43" font-family="Times New Roman,serif" font-size="14.00">Errors</text>
</g>
<!-- Parser&#45;&gt;error -->
<g id="edge10" class="edge">
<title>Parser&#45;&gt;error</title>
<path fill="none" stroke="black" d="M910.7,-527.55C953.03,-517.83 998.28,-501.74 1033.77,-475.11 1042.02,-468.92 1048.54,-459.83 1053.42,-451.02"/>
<polygon fill="black" stroke="black" points="1056.41,-452.86 1057.73,-442.35 1050.14,-449.75 1056.41,-452.86"/>
<text text-anchor="middle" x="1085.27" y="-461.81" font-family="Times New Roman,serif" font-size="14.00">error tracking</text>
</g>
<!-- todo&#45;1 -->
<g id="node2" class="node">
<title>todo&#45;1</title>
<polygon fill="none" stroke="red" points="221.77,-316.11 221.77,-352.11 275.77,-352.11 275.77,-316.11 221.77,-316.11"/>
<text text-anchor="middle" x="248.65" y="-328.68" font-family="Times New Roman,serif" font-size="14.00">0</text>
</g>
<!-- 59 -->
<g id="node3" class="node">
<title>59</title>
<ellipse fill="none" stroke="black" cx="141.77" cy="-224.79" rx="141.77" ry="39.07"/>
<text text-anchor="middle" x="141.77" y="-235.12" font-family="Times New Roman,serif" font-size="14.00">Literal: </text>
<text text-anchor="middle" x="141.77" y="-219.37" font-family="Times New Roman,serif" font-size="14.00">.4@4</text>
<text text-anchor="middle" x="141.77" y="-203.62" font-family="Times New Roman,serif" font-size="14.00">in: &#39;ABC &#45;&gt; a Layout b Layout c&#39;</text>
</g>
<!-- todo&#45;1&#45;&gt;59 -->
<g id="edge3" class="edge">
<title>todo&#45;1:sw&#45;&gt;59</title>
<path fill="none" stroke="black" d="M221.77,-315.61C207.83,-301.66 193.28,-285.78 180.48,-271.29"/>
<polygon fill="black" stroke="black" points="183.38,-269.29 174.15,-264.08 178.12,-273.9 183.38,-269.29"/>
<text text-anchor="middle" x="219.52" y="-284.31" font-family="Times New Roman,serif" font-size="14.00">Stack</text>
</g>
<!-- 835631769 -->
<g id="node6" class="node">
<title>835631769</title>
<polygon fill="none" stroke="black" points="406.35,-217.33 406.35,-232.25 375.55,-242.79 332,-242.79 301.2,-232.25 301.2,-217.33 332,-206.79 375.55,-206.79 406.35,-217.33"/>
<text text-anchor="middle" x="353.77" y="-219.37" font-family="Times New Roman,serif" font-size="14.00">Literal &quot;c&quot;</text>
</g>
<!-- todo&#45;1&#45;&gt;835631769 -->
<g id="edge4" class="edge">
<title>todo&#45;1:se&#45;&gt;835631769</title>
<path fill="none" stroke="black" d="M275.52,-315.61C296.04,-295.09 317.57,-270.09 332.84,-251.67"/>
<polygon fill="black" stroke="black" points="335.4,-254.08 339.05,-244.13 329.99,-249.63 335.4,-254.08"/>
<text text-anchor="middle" x="323.15" y="-284.31" font-family="Times New Roman,serif" font-size="14.00">Node</text>
</g>
<!-- 35 -->
<g id="node4" class="node">
<title>35</title>
<ellipse fill="none" stroke="black" cx="141.77" cy="-120.79" rx="87.68" ry="27.93"/>
<text text-anchor="middle" x="141.77" y="-123.24" font-family="Times New Roman,serif" font-size="14.00">NonTerminal: ABC</text>
<text text-anchor="middle" x="141.77" y="-107.49" font-family="Times New Roman,serif" font-size="14.00">.0@0</text>
</g>
<!-- 59&#45;&gt;35 -->
<g id="edge2" class="edge">
<title>59&#45;&gt;35</title>
<path fill="none" stroke="black" d="M141.77,-185.23C141.77,-177.12 141.77,-168.56 141.77,-160.44"/>
<polygon fill="black" stroke="black" points="145.28,-160.49 141.77,-150.49 138.28,-160.49 145.28,-160.49"/>
</g>
<!-- &#45;1 -->
<g id="node5" class="node">
<title>&#45;1</title>
<ellipse fill="none" stroke="black" cx="141.77" cy="-27.93" rx="73.36" ry="27.93"/>
<text text-anchor="middle" x="141.77" y="-30.38" font-family="Times New Roman,serif" font-size="14.00">NonTerminal: S</text>
<text text-anchor="middle" x="141.77" y="-14.63" font-family="Times New Roman,serif" font-size="14.00">.0@&#45;1</text>
</g>
<!-- 35&#45;&gt;&#45;1 -->
<g id="edge1" class="edge">
<title>35&#45;&gt;&#45;1</title>
<path fill="none" stroke="black" d="M141.77,-92.53C141.77,-84.71 141.77,-76.04 141.77,-67.67"/>
<polygon fill="black" stroke="black" points="145.28,-67.69 141.77,-57.69 138.28,-67.69 145.28,-67.69"/>
</g>
<!-- todoLists&#45;&gt;todo&#45;1 -->
<g id="edge5" class="edge">
<title>todoLists:1&#45;&gt;todo&#45;1</title>
<path fill="none" stroke="black" d="M248.65,-404.36C248.65,-390.97 248.67,-376.12 248.7,-363.61"/>
<polygon fill="black" stroke="black" points="252.2,-363.99 248.72,-353.98 245.2,-363.97 252.2,-363.99"/>
</g>
<!-- unexpandableNodes -->
<g id="node11" class="node">
<title>unexpandableNodes</title>
<polygon fill="none" stroke="black" points="876.77,-316.11 876.77,-352.11 930.77,-352.11 930.77,-316.11 876.77,-316.11"/>
<text text-anchor="middle" x="903.65" y="-328.68" font-family="Times New Roman,serif" font-size="14.00"> </text>
</g>
<!-- unmatchableLeafNodes -->
<g id="node12" class="node">
<title>unmatchableLeafNodes</title>
<polygon fill="none" stroke="black" points="976.77,-316.11 976.77,-352.11 1030.77,-352.11 1030.77,-316.11 976.77,-316.11"/>
<text text-anchor="middle" x="1003.65" y="-328.68" font-family="Times New Roman,serif" font-size="14.00"> </text>
</g>
<!-- unmatchableMidProductionNodes -->
<g id="node13" class="node">
<title>unmatchableMidProductionNodes</title>
<polygon fill="none" stroke="black" points="1098.77,-316.11 1098.77,-352.11 1152.77,-352.11 1152.77,-316.11 1098.77,-316.11"/>
<text text-anchor="middle" x="1125.65" y="-328.68" font-family="Times New Roman,serif" font-size="14.00"> </text>
</g>
<!-- filteredNodes -->
<g id="node14" class="node">
<title>filteredNodes</title>
<polygon fill="none" stroke="black" points="1247.77,-316.11 1247.77,-352.11 1301.77,-352.11 1301.77,-316.11 1247.77,-316.11"/>
<text text-anchor="middle" x="1274.65" y="-328.68" font-family="Times New Roman,serif" font-size="14.00"> </text>
</g>
<!-- error&#45;&gt;unexpandableNodes -->
<g id="edge11" class="edge">
<title>error&#45;&gt;unexpandableNodes</title>
<path fill="none" stroke="black" d="M1031.65,-417.63C993.87,-412.16 935.27,-401.51 919.27,-386.36 912.96,-380.38 909.2,-371.93 906.95,-363.62"/>
<polygon fill="black" stroke="black" points="910.44,-363.21 905.05,-354.09 903.58,-364.58 910.44,-363.21"/>
<text text-anchor="middle" x="958.02" y="-373.06" font-family="Times New Roman,serif" font-size="14.00">unexpandable</text>
</g>
<!-- error&#45;&gt;unmatchableLeafNodes -->
<g id="edge12" class="edge">
<title>error&#45;&gt;unmatchableLeafNodes</title>
<path fill="none" stroke="black" d="M1036.6,-412.36C1024.61,-406.77 1011.79,-398.38 1004.77,-386.36 1000.84,-379.62 999.49,-371.49 999.4,-363.71"/>
<polygon fill="black" stroke="black" points="1002.89,-364.09 999.99,-353.9 995.9,-363.67 1002.89,-364.09"/>
<text text-anchor="middle" x="1054.27" y="-373.06" font-family="Times New Roman,serif" font-size="14.00">unmatchable leafs</text>
</g>
<!-- error&#45;&gt;unmatchableMidProductionNodes -->
<g id="edge13" class="edge">
<title>error&#45;&gt;unmatchableMidProductionNodes</title>
<path fill="none" stroke="black" d="M1083.45,-407.72C1090.49,-401.71 1098.14,-394.26 1103.77,-386.36 1108.81,-379.28 1113.02,-370.87 1116.37,-362.93"/>
<polygon fill="black" stroke="black" points="1119.63,-364.21 1119.96,-353.62 1113.1,-361.68 1119.63,-364.21"/>
<text text-anchor="middle" x="1174.77" y="-373.06" font-family="Times New Roman,serif" font-size="14.00">unmatchable mid&#45;prod</text>
</g>
<!-- error&#45;&gt;filteredNodes -->
<g id="edge14" class="edge">
<title>error&#45;&gt;filteredNodes</title>
<path fill="none" stroke="black" d="M1099.08,-422.65C1137.13,-421.89 1198.79,-415.66 1241.77,-386.36 1250.45,-380.45 1257.35,-371.42 1262.56,-362.58"/>
<polygon fill="black" stroke="black" points="1265.61,-364.31 1267.19,-353.83 1259.42,-361.04 1265.61,-364.31"/>
<text text-anchor="middle" x="1275.9" y="-373.06" font-family="Times New Roman,serif" font-size="14.00">filtered</text>
</g>
</g>
</svg>
