<?xml version="1.0" encoding="UTF-8" standalone="no"?>
<!DOCTYPE svg PUBLIC "-//W3C//DTD SVG 1.1//EN"
 "http://www.w3.org/Graphics/SVG/1.1/DTD/svg11.dtd">
<!-- Generated by graphviz version 12.0.0 (20240704.0754)
 -->
<!-- Title: Parser Pages: 1 -->
<svg width="1286pt" height="402pt"
 viewBox="0.00 0.00 1286.25 402.23" xmlns="http://www.w3.org/2000/svg" xmlns:xlink="http://www.w3.org/1999/xlink">
<g id="graph0" class="graph" transform="scale(1 1) rotate(0) translate(4 398.23)">
<title>Parser</title>
<polygon fill="white" stroke="none" points="-4,4 -4,-398.23 1282.25,-398.23 1282.25,4 -4,4"/>
<!-- Parser -->
<g id="node1" class="node">
<title>Parser</title>
<ellipse fill="none" stroke="black" cx="567.25" cy="-344.03" rx="139.65" ry="50.2"/>
<text text-anchor="middle" x="567.25" y="-362.23" font-family="Times New Roman,serif" font-size="14.00">Parser</text>
<text text-anchor="middle" x="567.25" y="-346.48" font-family="Times New Roman,serif" font-size="14.00">Input: &quot;a b c $&quot;</text>
<text text-anchor="middle" x="567.25" y="-330.73" font-family="Times New Roman,serif" font-size="14.00">Location: 5 (&#39; &#39;)</text>
<text text-anchor="middle" x="567.25" y="-314.98" font-family="Times New Roman,serif" font-size="14.00">Step 23: Reducing non&#45;terminals</text>
</g>
<!-- todoLists -->
<g id="node2" class="node">
<title>todoLists</title>
<polygon fill="none" stroke="black" points="0,-205.58 0,-241.58 404.5,-241.58 404.5,-205.58 0,-205.58"/>
<text text-anchor="middle" x="11.38" y="-218.15" font-family="Times New Roman,serif" font-size="14.00">0</text>
<polyline fill="none" stroke="black" points="22.75,-205.58 22.75,-241.58"/>
<text text-anchor="middle" x="34.12" y="-218.15" font-family="Times New Roman,serif" font-size="14.00">1</text>
<polyline fill="none" stroke="black" points="45.5,-205.58 45.5,-241.58"/>
<text text-anchor="middle" x="56.88" y="-218.15" font-family="Times New Roman,serif" font-size="14.00">2</text>
<polyline fill="none" stroke="black" points="68.25,-205.58 68.25,-241.58"/>
<text text-anchor="middle" x="79.62" y="-218.15" font-family="Times New Roman,serif" font-size="14.00">3</text>
<polyline fill="none" stroke="black" points="91,-205.58 91,-241.58"/>
<text text-anchor="middle" x="102.38" y="-218.15" font-family="Times New Roman,serif" font-size="14.00">4</text>
<polyline fill="none" stroke="black" points="113.75,-205.58 113.75,-241.58"/>
<text text-anchor="middle" x="125.12" y="-218.15" font-family="Times New Roman,serif" font-size="14.00">5</text>
<polyline fill="none" stroke="black" points="136.5,-205.58 136.5,-241.58"/>
<text text-anchor="middle" x="147.88" y="-218.15" font-family="Times New Roman,serif" font-size="14.00">6</text>
<polyline fill="none" stroke="black" points="159.25,-205.58 159.25,-241.58"/>
<text text-anchor="middle" x="170.62" y="-218.15" font-family="Times New Roman,serif" font-size="14.00">7</text>
<polyline fill="none" stroke="black" points="182,-205.58 182,-241.58"/>
<text text-anchor="middle" x="193.38" y="-218.15" font-family="Times New Roman,serif" font-size="14.00">8</text>
<polyline fill="none" stroke="black" points="204.75,-205.58 204.75,-241.58"/>
<text text-anchor="middle" x="216.12" y="-218.15" font-family="Times New Roman,serif" font-size="14.00">9</text>
<polyline fill="none" stroke="black" points="227.5,-205.58 227.5,-241.58"/>
<text text-anchor="middle" x="242.25" y="-218.15" font-family="Times New Roman,serif" font-size="14.00">10</text>
<polyline fill="none" stroke="black" points="257,-205.58 257,-241.58"/>
<text text-anchor="middle" x="271.75" y="-218.15" font-family="Times New Roman,serif" font-size="14.00">11</text>
<polyline fill="none" stroke="black" points="286.5,-205.58 286.5,-241.58"/>
<text text-anchor="middle" x="301.25" y="-218.15" font-family="Times New Roman,serif" font-size="14.00">12</text>
<polyline fill="none" stroke="black" points="316,-205.58 316,-241.58"/>
<text text-anchor="middle" x="330.75" y="-218.15" font-family="Times New Roman,serif" font-size="14.00">13</text>
<polyline fill="none" stroke="black" points="345.5,-205.58 345.5,-241.58"/>
<text text-anchor="middle" x="360.25" y="-218.15" font-family="Times New Roman,serif" font-size="14.00">14</text>
<polyline fill="none" stroke="black" points="375,-205.58 375,-241.58"/>
<text text-anchor="middle" x="389.75" y="-218.15" font-family="Times New Roman,serif" font-size="14.00">15</text>
</g>
<!-- Parser&#45;&gt;todoLists -->
<g id="edge1" class="edge">
<title>Parser&#45;&gt;todoLists</title>
<path fill="none" stroke="black" d="M464.61,-309.72C401.05,-289.09 321.41,-263.25 266.64,-245.47"/>
<polygon fill="black" stroke="black" points="268.06,-242.25 257.47,-242.5 265.9,-248.91 268.06,-242.25"/>
<text text-anchor="middle" x="378.12" y="-262.53" font-family="Times New Roman,serif" font-size="14.00">todo lists</text>
</g>
<!-- stacksToExpand -->
<g id="node3" class="node">
<title>stacksToExpand</title>
<polygon fill="none" stroke="black" points="422.25,-205.58 422.25,-241.58 476.25,-241.58 476.25,-205.58 422.25,-205.58"/>
<text text-anchor="middle" x="449.12" y="-218.15" font-family="Times New Roman,serif" font-size="14.00"> </text>
</g>
<!-- Parser&#45;&gt;stacksToExpand -->
<g id="edge2" class="edge">
<title>Parser&#45;&gt;stacksToExpand</title>
<path fill="none" stroke="black" d="M494.47,-301.13C484.99,-293.56 476.06,-285.09 468.75,-275.83 463.46,-269.12 459.48,-260.82 456.55,-252.87"/>
<polygon fill="black" stroke="black" points="459.93,-251.94 453.53,-243.5 453.27,-254.09 459.93,-251.94"/>
<text text-anchor="middle" x="516.5" y="-262.53" font-family="Times New Roman,serif" font-size="14.00">stacks to expand</text>
</g>
<!-- terminalsToReduce -->
<g id="node4" class="node">
<title>terminalsToReduce</title>
<polygon fill="none" stroke="black" points="540.25,-205.58 540.25,-241.58 594.25,-241.58 594.25,-205.58 540.25,-205.58"/>
<text text-anchor="middle" x="567.12" y="-218.15" font-family="Times New Roman,serif" font-size="14.00"> </text>
</g>
<!-- Parser&#45;&gt;terminalsToReduce -->
<g id="edge3" class="edge">
<title>Parser&#45;&gt;terminalsToReduce</title>
<path fill="none" stroke="black" d="M567.25,-293.48C567.25,-279.69 567.25,-265.18 567.25,-253.06"/>
<polygon fill="black" stroke="black" points="570.75,-253.35 567.25,-243.35 563.75,-253.35 570.75,-253.35"/>
<text text-anchor="middle" x="620.12" y="-262.53" font-family="Times New Roman,serif" font-size="14.00">terminals to reduce</text>
</g>
<!-- nonTerminalsToReduce -->
<g id="node5" class="node">
<title>nonTerminalsToReduce</title>
<polygon fill="none" stroke="red" points="641.25,-205.58 641.25,-241.58 695.25,-241.58 695.25,-205.58 641.25,-205.58"/>
<text text-anchor="middle" x="668.12" y="-218.15" font-family="Times New Roman,serif" font-size="14.00">0</text>
</g>
<!-- Parser&#45;&gt;nonTerminalsToReduce -->
<g id="edge7" class="edge">
<title>Parser&#45;&gt;nonTerminalsToReduce</title>
<path fill="none" stroke="black" d="M650.76,-303.33C660.15,-295.51 668.41,-286.38 674.25,-275.83 678.09,-268.87 678.55,-260.59 677.51,-252.72"/>
<polygon fill="black" stroke="black" points="680.99,-252.23 675.46,-243.19 674.15,-253.71 680.99,-252.23"/>
<text text-anchor="middle" x="743.88" y="-262.53" font-family="Times New Roman,serif" font-size="14.00">non&#45;terminals to reduce</text>
</g>
<!-- error -->
<g id="node13" class="node">
<title>error</title>
<ellipse fill="none" stroke="black" cx="980.25" cy="-223.58" rx="34.1" ry="18"/>
<text text-anchor="middle" x="980.25" y="-218.15" font-family="Times New Roman,serif" font-size="14.00">Errors</text>
</g>
<!-- Parser&#45;&gt;error -->
<g id="edge8" class="edge">
<title>Parser&#45;&gt;error</title>
<path fill="none" stroke="black" d="M678.59,-313.4C720.84,-301.95 769.35,-288.56 813.25,-275.83 856.95,-263.15 906.79,-247.73 940.56,-237.13"/>
<polygon fill="black" stroke="black" points="941.44,-240.53 949.93,-234.19 939.34,-233.85 941.44,-240.53"/>
<text text-anchor="middle" x="900.75" y="-262.53" font-family="Times New Roman,serif" font-size="14.00">error tracking</text>
</g>
<!-- 35 -->
<g id="node6" class="node">
<title>35</title>
<ellipse fill="none" stroke="black" cx="447.25" cy="-123.09" rx="87.68" ry="27.93"/>
<text text-anchor="middle" x="447.25" y="-125.54" font-family="Times New Roman,serif" font-size="14.00">NonTerminal: ABC</text>
<text text-anchor="middle" x="447.25" y="-109.79" font-family="Times New Roman,serif" font-size="14.00">.0@0</text>
</g>
<!-- nonTerminalsToReduce&#45;&gt;35 -->
<g id="edge5" class="edge">
<title>nonTerminalsToReduce:sw&#45;&gt;35</title>
<path fill="none" stroke="black" d="M641.25,-205.08C623.02,-186.84 565.8,-164.06 518.19,-147.31"/>
<polygon fill="black" stroke="black" points="519.6,-144.1 509.01,-144.12 517.3,-150.71 519.6,-144.1"/>
<text text-anchor="middle" x="629" y="-173.78" font-family="Times New Roman,serif" font-size="14.00">Stack</text>
</g>
<!-- 724081353 -->
<g id="node8" class="node">
<title>724081353</title>
<polygon fill="none" stroke="black" points="835.08,-110.57 835.08,-135.62 752.58,-153.33 635.92,-153.33 553.42,-135.62 553.42,-110.57 635.92,-92.86 752.58,-92.86 835.08,-110.57"/>
<text text-anchor="middle" x="694.25" y="-125.54" font-family="Times New Roman,serif" font-size="14.00">SortContainer 0&#45;5</text>
<text text-anchor="middle" x="694.25" y="-109.79" font-family="Times New Roman,serif" font-size="14.00">&#39;ABC &#45;&gt; a Layout b Layout c&#39;</text>
</g>
<!-- nonTerminalsToReduce&#45;&gt;724081353 -->
<g id="edge6" class="edge">
<title>nonTerminalsToReduce:se&#45;&gt;724081353</title>
<path fill="none" stroke="black" d="M695,-205.08C705.46,-194.62 707.19,-179.08 705.61,-164.41"/>
<polygon fill="black" stroke="black" points="709.13,-164.26 704.09,-154.94 702.22,-165.37 709.13,-164.26"/>
<text text-anchor="middle" x="721.62" y="-173.78" font-family="Times New Roman,serif" font-size="14.00">Node</text>
</g>
<!-- &#45;1 -->
<g id="node7" class="node">
<title>&#45;1</title>
<ellipse fill="none" stroke="black" cx="447.25" cy="-27.93" rx="73.36" ry="27.93"/>
<text text-anchor="middle" x="447.25" y="-30.38" font-family="Times New Roman,serif" font-size="14.00">NonTerminal: S</text>
<text text-anchor="middle" x="447.25" y="-14.63" font-family="Times New Roman,serif" font-size="14.00">.0@&#45;1</text>
</g>
<!-- 35&#45;&gt;&#45;1 -->
<g id="edge4" class="edge">
<title>35&#45;&gt;&#45;1</title>
<path fill="none" stroke="black" d="M447.25,-95.15C447.25,-86.53 447.25,-76.82 447.25,-67.54"/>
<polygon fill="black" stroke="black" points="450.75,-67.65 447.25,-57.65 443.75,-67.65 450.75,-67.65"/>
</g>
<!-- unexpandableNodes -->
<g id="node9" class="node">
<title>unexpandableNodes</title>
<polygon fill="none" stroke="black" points="853.25,-105.09 853.25,-141.09 907.25,-141.09 907.25,-105.09 853.25,-105.09"/>
<text text-anchor="middle" x="880.12" y="-117.67" font-family="Times New Roman,serif" font-size="14.00"> </text>
</g>
<!-- unmatchableLeafNodes -->
<g id="node10" class="node">
<title>unmatchableLeafNodes</title>
<polygon fill="none" stroke="black" points="953.25,-105.09 953.25,-141.09 1007.25,-141.09 1007.25,-105.09 953.25,-105.09"/>
<text text-anchor="middle" x="980.12" y="-117.67" font-family="Times New Roman,serif" font-size="14.00"> </text>
</g>
<!-- unmatchableMidProductionNodes -->
<g id="node11" class="node">
<title>unmatchableMidProductionNodes</title>
<polygon fill="none" stroke="black" points="1075.25,-105.09 1075.25,-141.09 1129.25,-141.09 1129.25,-105.09 1075.25,-105.09"/>
<text text-anchor="middle" x="1102.12" y="-117.67" font-family="Times New Roman,serif" font-size="14.00"> </text>
</g>
<!-- filteredNodes -->
<g id="node12" class="node">
<title>filteredNodes</title>
<polygon fill="none" stroke="black" points="1224.25,-105.09 1224.25,-141.09 1278.25,-141.09 1278.25,-105.09 1224.25,-105.09"/>
<text text-anchor="middle" x="1251.12" y="-117.67" font-family="Times New Roman,serif" font-size="14.00"> </text>
</g>
<!-- error&#45;&gt;unexpandableNodes -->
<g id="edge9" class="edge">
<title>error&#45;&gt;unexpandableNodes</title>
<path fill="none" stroke="black" d="M949.36,-215.65C932.57,-210.41 912.66,-201.56 899.75,-187.08 891.3,-177.59 886.51,-164.49 883.8,-152.69"/>
<polygon fill="black" stroke="black" points="887.26,-152.19 881.99,-143 880.38,-153.47 887.26,-152.19"/>
<text text-anchor="middle" x="937.5" y="-173.78" font-family="Times New Roman,serif" font-size="14.00">unexpandable</text>
</g>
<!-- error&#45;&gt;unmatchableLeafNodes -->
<g id="edge10" class="edge">
<title>error&#45;&gt;unmatchableLeafNodes</title>
<path fill="none" stroke="black" d="M980.25,-205.42C980.25,-190.82 980.25,-169.56 980.25,-152.44"/>
<polygon fill="black" stroke="black" points="983.75,-152.9 980.25,-142.9 976.75,-152.9 983.75,-152.9"/>
<text text-anchor="middle" x="1029.75" y="-173.78" font-family="Times New Roman,serif" font-size="14.00">unmatchable leafs</text>
</g>
<!-- error&#45;&gt;unmatchableMidProductionNodes -->
<g id="edge11" class="edge">
<title>error&#45;&gt;unmatchableMidProductionNodes</title>
<path fill="none" stroke="black" d="M1012.97,-218.39C1034.66,-214.01 1062.32,-205.1 1080.25,-187.08 1089.47,-177.8 1094.84,-164.46 1097.96,-152.44"/>
<polygon fill="black" stroke="black" points="1101.31,-153.48 1099.99,-142.97 1094.47,-152.01 1101.31,-153.48"/>
<text text-anchor="middle" x="1153.25" y="-173.78" font-family="Times New Roman,serif" font-size="14.00">unmatchable mid&#45;prod</text>
</g>
<!-- error&#45;&gt;filteredNodes -->
<g id="edge12" class="edge">
<title>error&#45;&gt;filteredNodes</title>
<path fill="none" stroke="black" d="M1014.35,-221.37C1072.6,-218.7 1188.09,-210.53 1220.25,-187.08 1231.83,-178.63 1239.31,-164.66 1244.01,-152.02"/>
<polygon fill="black" stroke="black" points="1247.23,-153.46 1247,-142.87 1240.57,-151.29 1247.23,-153.46"/>
<text text-anchor="middle" x="1252.38" y="-173.78" font-family="Times New Roman,serif" font-size="14.00">filtered</text>
</g>
</g>
</svg>
