<?xml version="1.0" encoding="UTF-8" standalone="no"?>
<!DOCTYPE svg PUBLIC "-//W3C//DTD SVG 1.1//EN"
 "http://www.w3.org/Graphics/SVG/1.1/DTD/svg11.dtd">
<!-- Generated by graphviz version 12.0.0 (20240704.0754)
 -->
<!-- Title: Parser Pages: 1 -->
<svg width="1014pt" height="398pt"
 viewBox="0.00 0.00 1014.25 397.63" xmlns="http://www.w3.org/2000/svg" xmlns:xlink="http://www.w3.org/1999/xlink">
<g id="graph0" class="graph" transform="scale(1 1) rotate(0) translate(4 393.63)">
<title>Parser</title>
<polygon fill="white" stroke="none" points="-4,4 -4,-393.63 1010.25,-393.63 1010.25,4 -4,4"/>
<!-- Parser -->
<g id="node1" class="node">
<title>Parser</title>
<ellipse fill="none" stroke="black" cx="534.25" cy="-339.43" rx="88.21" ry="50.2"/>
<text text-anchor="middle" x="534.25" y="-357.63" font-family="Times New Roman,serif" font-size="14.00">Parser</text>
<text text-anchor="middle" x="534.25" y="-341.88" font-family="Times New Roman,serif" font-size="14.00">Input: &quot;a b c $&quot;</text>
<text text-anchor="middle" x="534.25" y="-326.13" font-family="Times New Roman,serif" font-size="14.00">Location: 5 (&#39; &#39;)</text>
<text text-anchor="middle" x="534.25" y="-310.38" font-family="Times New Roman,serif" font-size="14.00">Step 24: Expanding</text>
</g>
<!-- todoLists -->
<g id="node2" class="node">
<title>todoLists</title>
<polygon fill="none" stroke="black" points="0,-200.97 0,-236.97 404.5,-236.97 404.5,-200.97 0,-200.97"/>
<text text-anchor="middle" x="11.38" y="-213.55" font-family="Times New Roman,serif" font-size="14.00">0</text>
<polyline fill="none" stroke="black" points="22.75,-200.97 22.75,-236.97"/>
<text text-anchor="middle" x="34.12" y="-213.55" font-family="Times New Roman,serif" font-size="14.00">1</text>
<polyline fill="none" stroke="black" points="45.5,-200.97 45.5,-236.97"/>
<text text-anchor="middle" x="56.88" y="-213.55" font-family="Times New Roman,serif" font-size="14.00">2</text>
<polyline fill="none" stroke="black" points="68.25,-200.97 68.25,-236.97"/>
<text text-anchor="middle" x="79.62" y="-213.55" font-family="Times New Roman,serif" font-size="14.00">3</text>
<polyline fill="none" stroke="black" points="91,-200.97 91,-236.97"/>
<text text-anchor="middle" x="102.38" y="-213.55" font-family="Times New Roman,serif" font-size="14.00">4</text>
<polyline fill="none" stroke="black" points="113.75,-200.97 113.75,-236.97"/>
<text text-anchor="middle" x="125.12" y="-213.55" font-family="Times New Roman,serif" font-size="14.00">5</text>
<polyline fill="none" stroke="black" points="136.5,-200.97 136.5,-236.97"/>
<text text-anchor="middle" x="147.88" y="-213.55" font-family="Times New Roman,serif" font-size="14.00">6</text>
<polyline fill="none" stroke="black" points="159.25,-200.97 159.25,-236.97"/>
<text text-anchor="middle" x="170.62" y="-213.55" font-family="Times New Roman,serif" font-size="14.00">7</text>
<polyline fill="none" stroke="black" points="182,-200.97 182,-236.97"/>
<text text-anchor="middle" x="193.38" y="-213.55" font-family="Times New Roman,serif" font-size="14.00">8</text>
<polyline fill="none" stroke="black" points="204.75,-200.97 204.75,-236.97"/>
<text text-anchor="middle" x="216.12" y="-213.55" font-family="Times New Roman,serif" font-size="14.00">9</text>
<polyline fill="none" stroke="black" points="227.5,-200.97 227.5,-236.97"/>
<text text-anchor="middle" x="242.25" y="-213.55" font-family="Times New Roman,serif" font-size="14.00">10</text>
<polyline fill="none" stroke="black" points="257,-200.97 257,-236.97"/>
<text text-anchor="middle" x="271.75" y="-213.55" font-family="Times New Roman,serif" font-size="14.00">11</text>
<polyline fill="none" stroke="black" points="286.5,-200.97 286.5,-236.97"/>
<text text-anchor="middle" x="301.25" y="-213.55" font-family="Times New Roman,serif" font-size="14.00">12</text>
<polyline fill="none" stroke="black" points="316,-200.97 316,-236.97"/>
<text text-anchor="middle" x="330.75" y="-213.55" font-family="Times New Roman,serif" font-size="14.00">13</text>
<polyline fill="none" stroke="black" points="345.5,-200.97 345.5,-236.97"/>
<text text-anchor="middle" x="360.25" y="-213.55" font-family="Times New Roman,serif" font-size="14.00">14</text>
<polyline fill="none" stroke="black" points="375,-200.97 375,-236.97"/>
<text text-anchor="middle" x="389.75" y="-213.55" font-family="Times New Roman,serif" font-size="14.00">15</text>
</g>
<!-- Parser&#45;&gt;todoLists -->
<g id="edge1" class="edge">
<title>Parser&#45;&gt;todoLists</title>
<path fill="none" stroke="black" d="M460.16,-311.99C400.31,-290.64 317.21,-260.99 261.67,-241.17"/>
<polygon fill="black" stroke="black" points="262.97,-237.92 252.37,-237.86 260.61,-244.51 262.97,-237.92"/>
<text text-anchor="middle" x="365.12" y="-257.92" font-family="Times New Roman,serif" font-size="14.00">todo lists</text>
</g>
<!-- stacksToExpand -->
<g id="node5" class="node">
<title>stacksToExpand</title>
<polygon fill="none" stroke="red" points="422.25,-200.97 422.25,-236.97 476.25,-236.97 476.25,-200.97 422.25,-200.97"/>
<text text-anchor="middle" x="449.12" y="-213.55" font-family="Times New Roman,serif" font-size="14.00">0</text>
</g>
<!-- Parser&#45;&gt;stacksToExpand -->
<g id="edge4" class="edge">
<title>Parser&#45;&gt;stacksToExpand</title>
<path fill="none" stroke="black" d="M467.54,-306.11C454.77,-296.71 443.1,-285.13 435.75,-271.22 431.95,-264.03 432.38,-255.7 434.58,-247.87"/>
<polygon fill="black" stroke="black" points="437.77,-249.32 438.06,-238.73 431.23,-246.83 437.77,-249.32"/>
<text text-anchor="middle" x="483.5" y="-257.92" font-family="Times New Roman,serif" font-size="14.00">stacks to expand</text>
</g>
<!-- terminalsToReduce -->
<g id="node6" class="node">
<title>terminalsToReduce</title>
<polygon fill="none" stroke="black" points="507.25,-200.97 507.25,-236.97 561.25,-236.97 561.25,-200.97 507.25,-200.97"/>
<text text-anchor="middle" x="534.12" y="-213.55" font-family="Times New Roman,serif" font-size="14.00"> </text>
</g>
<!-- Parser&#45;&gt;terminalsToReduce -->
<g id="edge5" class="edge">
<title>Parser&#45;&gt;terminalsToReduce</title>
<path fill="none" stroke="black" d="M534.25,-288.88C534.25,-275.09 534.25,-260.58 534.25,-248.45"/>
<polygon fill="black" stroke="black" points="537.75,-248.75 534.25,-238.75 530.75,-248.75 537.75,-248.75"/>
<text text-anchor="middle" x="587.12" y="-257.92" font-family="Times New Roman,serif" font-size="14.00">terminals to reduce</text>
</g>
<!-- nonTerminalsToReduce -->
<g id="node7" class="node">
<title>nonTerminalsToReduce</title>
<polygon fill="none" stroke="black" points="636.25,-200.97 636.25,-236.97 690.25,-236.97 690.25,-200.97 636.25,-200.97"/>
<text text-anchor="middle" x="663.12" y="-213.55" font-family="Times New Roman,serif" font-size="14.00"> </text>
</g>
<!-- Parser&#45;&gt;nonTerminalsToReduce -->
<g id="edge6" class="edge">
<title>Parser&#45;&gt;nonTerminalsToReduce</title>
<path fill="none" stroke="black" d="M600.26,-305.72C615.11,-296.12 629.84,-284.56 641.25,-271.22 647.05,-264.44 651.52,-255.91 654.88,-247.76"/>
<polygon fill="black" stroke="black" points="658.11,-249.1 658.25,-238.5 651.54,-246.7 658.11,-249.1"/>
<text text-anchor="middle" x="715.88" y="-257.92" font-family="Times New Roman,serif" font-size="14.00">non&#45;terminals to reduce</text>
</g>
<!-- error -->
<g id="node12" class="node">
<title>error</title>
<ellipse fill="none" stroke="black" cx="817.25" cy="-218.97" rx="34.1" ry="18"/>
<text text-anchor="middle" x="817.25" y="-213.55" font-family="Times New Roman,serif" font-size="14.00">Errors</text>
</g>
<!-- Parser&#45;&gt;error -->
<g id="edge7" class="edge">
<title>Parser&#45;&gt;error</title>
<path fill="none" stroke="black" d="M621.66,-331.11C673.38,-323.09 737.84,-306.31 785.25,-271.22 793.61,-265.03 800.3,-255.95 805.35,-247.14"/>
<polygon fill="black" stroke="black" points="808.36,-248.95 809.84,-238.46 802.14,-245.73 808.36,-248.95"/>
<text text-anchor="middle" x="836.75" y="-257.92" font-family="Times New Roman,serif" font-size="14.00">error tracking</text>
</g>
<!-- 36 -->
<g id="node3" class="node">
<title>36</title>
<ellipse fill="none" stroke="black" cx="449.25" cy="-120.79" rx="95.11" ry="27.93"/>
<text text-anchor="middle" x="449.25" y="-123.24" font-family="Times New Roman,serif" font-size="14.00">NonTerminal: Layout</text>
<text text-anchor="middle" x="449.25" y="-107.49" font-family="Times New Roman,serif" font-size="14.00">.1@5</text>
</g>
<!-- &#45;1 -->
<g id="node4" class="node">
<title>&#45;1</title>
<ellipse fill="none" stroke="black" cx="449.25" cy="-27.93" rx="73.36" ry="27.93"/>
<text text-anchor="middle" x="449.25" y="-30.38" font-family="Times New Roman,serif" font-size="14.00">NonTerminal: S</text>
<text text-anchor="middle" x="449.25" y="-14.63" font-family="Times New Roman,serif" font-size="14.00">.0@&#45;1</text>
</g>
<!-- 36&#45;&gt;&#45;1 -->
<g id="edge2" class="edge">
<title>36&#45;&gt;&#45;1</title>
<path fill="none" stroke="black" d="M449.25,-92.53C449.25,-84.71 449.25,-76.04 449.25,-67.67"/>
<polygon fill="black" stroke="black" points="452.75,-67.69 449.25,-57.69 445.75,-67.69 452.75,-67.69"/>
</g>
<!-- stacksToExpand&#45;&gt;36 -->
<g id="edge3" class="edge">
<title>stacksToExpand:0&#45;&gt;36</title>
<path fill="none" stroke="black" d="M449.15,-200.69C449.16,-189.35 449.18,-174.35 449.2,-160.47"/>
<polygon fill="black" stroke="black" points="452.7,-160.7 449.21,-150.69 445.7,-160.69 452.7,-160.7"/>
</g>
<!-- unexpandableNodes -->
<g id="node8" class="node">
<title>unexpandableNodes</title>
<polygon fill="none" stroke="black" points="581.25,-102.79 581.25,-138.79 635.25,-138.79 635.25,-102.79 581.25,-102.79"/>
<text text-anchor="middle" x="608.12" y="-115.37" font-family="Times New Roman,serif" font-size="14.00"> </text>
</g>
<!-- unmatchableLeafNodes -->
<g id="node9" class="node">
<title>unmatchableLeafNodes</title>
<polygon fill="none" stroke="black" points="681.25,-102.79 681.25,-138.79 735.25,-138.79 735.25,-102.79 681.25,-102.79"/>
<text text-anchor="middle" x="708.12" y="-115.37" font-family="Times New Roman,serif" font-size="14.00"> </text>
</g>
<!-- unmatchableMidProductionNodes -->
<g id="node10" class="node">
<title>unmatchableMidProductionNodes</title>
<polygon fill="none" stroke="black" points="803.25,-102.79 803.25,-138.79 857.25,-138.79 857.25,-102.79 803.25,-102.79"/>
<text text-anchor="middle" x="830.12" y="-115.37" font-family="Times New Roman,serif" font-size="14.00"> </text>
</g>
<!-- filteredNodes -->
<g id="node11" class="node">
<title>filteredNodes</title>
<polygon fill="none" stroke="black" points="952.25,-102.79 952.25,-138.79 1006.25,-138.79 1006.25,-102.79 952.25,-102.79"/>
<text text-anchor="middle" x="979.12" y="-115.37" font-family="Times New Roman,serif" font-size="14.00"> </text>
</g>
<!-- error&#45;&gt;unexpandableNodes -->
<g id="edge8" class="edge">
<title>error&#45;&gt;unexpandableNodes</title>
<path fill="none" stroke="black" d="M784.26,-213.54C733.62,-206.47 641.35,-192.42 629.75,-182.47 620.27,-174.34 614.97,-161.75 612,-150.14"/>
<polygon fill="black" stroke="black" points="615.47,-149.64 610.05,-140.54 608.61,-151.03 615.47,-149.64"/>
<text text-anchor="middle" x="667.5" y="-169.17" font-family="Times New Roman,serif" font-size="14.00">unexpandable</text>
</g>
<!-- error&#45;&gt;unmatchableLeafNodes -->
<g id="edge9" class="edge">
<title>error&#45;&gt;unmatchableLeafNodes</title>
<path fill="none" stroke="black" d="M783.82,-214.64C761.89,-210.63 734.38,-201.83 718.25,-182.47 710.92,-173.68 707.98,-161.61 707.03,-150.55"/>
<polygon fill="black" stroke="black" points="710.53,-150.54 706.72,-140.66 703.53,-150.76 710.53,-150.54"/>
<text text-anchor="middle" x="767.75" y="-169.17" font-family="Times New Roman,serif" font-size="14.00">unmatchable leafs</text>
</g>
<!-- error&#45;&gt;unmatchableMidProductionNodes -->
<g id="edge10" class="edge">
<title>error&#45;&gt;unmatchableMidProductionNodes</title>
<path fill="none" stroke="black" d="M819.57,-200.78C821.47,-186.78 824.18,-166.72 826.39,-150.32"/>
<polygon fill="black" stroke="black" points="829.83,-151.04 827.7,-140.66 822.89,-150.1 829.83,-151.04"/>
<text text-anchor="middle" x="886.25" y="-169.17" font-family="Times New Roman,serif" font-size="14.00">unmatchable mid&#45;prod</text>
</g>
<!-- error&#45;&gt;filteredNodes -->
<g id="edge11" class="edge">
<title>error&#45;&gt;filteredNodes</title>
<path fill="none" stroke="black" d="M851.54,-217.21C881.62,-214.8 924.86,-206.91 953.25,-182.47 962.89,-174.17 969.06,-161.66 972.96,-150.15"/>
<polygon fill="black" stroke="black" points="976.3,-151.2 975.72,-140.63 969.57,-149.26 976.3,-151.2"/>
<text text-anchor="middle" x="984.38" y="-169.17" font-family="Times New Roman,serif" font-size="14.00">filtered</text>
</g>
</g>
</svg>
