<?xml version="1.0" encoding="UTF-8" standalone="no"?>
<!DOCTYPE svg PUBLIC "-//W3C//DTD SVG 1.1//EN"
 "http://www.w3.org/Graphics/SVG/1.1/DTD/svg11.dtd">
<!-- Generated by graphviz version 12.0.0 (20240704.0754)
 -->
<!-- Title: Parser Pages: 1 -->
<svg width="1266pt" height="602pt"
 viewBox="0.00 0.00 1265.80 601.52" xmlns="http://www.w3.org/2000/svg" xmlns:xlink="http://www.w3.org/1999/xlink">
<g id="graph0" class="graph" transform="scale(1 1) rotate(0) translate(4 597.52)">
<title>Parser</title>
<polygon fill="white" stroke="none" points="-4,4 -4,-597.52 1261.8,-597.52 1261.8,4 -4,4"/>
<!-- Parser -->
<g id="node1" class="node">
<title>Parser</title>
<ellipse fill="none" stroke="black" cx="737.8" cy="-543.31" rx="143.37" ry="50.2"/>
<text text-anchor="middle" x="737.8" y="-561.51" font-family="Times New Roman,serif" font-size="14.00">Parser</text>
<text text-anchor="middle" x="737.8" y="-545.76" font-family="Times New Roman,serif" font-size="14.00">Input: &quot;a b c $&quot;</text>
<text text-anchor="middle" x="737.8" y="-530.01" font-family="Times New Roman,serif" font-size="14.00">Location: 5 (&#39; &#39;)</text>
<text text-anchor="middle" x="737.8" y="-514.26" font-family="Times New Roman,serif" font-size="14.00">Step 25: Finding stacks to reduce</text>
</g>
<!-- todoLists -->
<g id="node7" class="node">
<title>todoLists</title>
<polygon fill="none" stroke="red" points="170.55,-404.86 170.55,-440.86 575.05,-440.86 575.05,-404.86 170.55,-404.86"/>
<text text-anchor="middle" x="181.93" y="-417.43" font-family="Times New Roman,serif" font-size="14.00">0</text>
<polyline fill="none" stroke="red" points="193.3,-404.86 193.3,-440.86"/>
<text text-anchor="middle" x="204.68" y="-417.43" font-family="Times New Roman,serif" font-size="14.00">1</text>
<polyline fill="none" stroke="red" points="216.05,-404.86 216.05,-440.86"/>
<text text-anchor="middle" x="227.43" y="-417.43" font-family="Times New Roman,serif" font-size="14.00">2</text>
<polyline fill="none" stroke="red" points="238.8,-404.86 238.8,-440.86"/>
<text text-anchor="middle" x="250.18" y="-417.43" font-family="Times New Roman,serif" font-size="14.00">3</text>
<polyline fill="none" stroke="red" points="261.55,-404.86 261.55,-440.86"/>
<text text-anchor="middle" x="272.93" y="-417.43" font-family="Times New Roman,serif" font-size="14.00">4</text>
<polyline fill="none" stroke="red" points="284.3,-404.86 284.3,-440.86"/>
<text text-anchor="middle" x="295.68" y="-417.43" font-family="Times New Roman,serif" font-size="14.00">5</text>
<polyline fill="none" stroke="red" points="307.05,-404.86 307.05,-440.86"/>
<text text-anchor="middle" x="318.43" y="-417.43" font-family="Times New Roman,serif" font-size="14.00">6</text>
<polyline fill="none" stroke="red" points="329.8,-404.86 329.8,-440.86"/>
<text text-anchor="middle" x="341.18" y="-417.43" font-family="Times New Roman,serif" font-size="14.00">7</text>
<polyline fill="none" stroke="red" points="352.55,-404.86 352.55,-440.86"/>
<text text-anchor="middle" x="363.93" y="-417.43" font-family="Times New Roman,serif" font-size="14.00">8</text>
<polyline fill="none" stroke="red" points="375.3,-404.86 375.3,-440.86"/>
<text text-anchor="middle" x="386.68" y="-417.43" font-family="Times New Roman,serif" font-size="14.00">9</text>
<polyline fill="none" stroke="red" points="398.05,-404.86 398.05,-440.86"/>
<text text-anchor="middle" x="412.8" y="-417.43" font-family="Times New Roman,serif" font-size="14.00">10</text>
<polyline fill="none" stroke="red" points="427.55,-404.86 427.55,-440.86"/>
<text text-anchor="middle" x="442.3" y="-417.43" font-family="Times New Roman,serif" font-size="14.00">11</text>
<polyline fill="none" stroke="red" points="457.05,-404.86 457.05,-440.86"/>
<text text-anchor="middle" x="471.8" y="-417.43" font-family="Times New Roman,serif" font-size="14.00">12</text>
<polyline fill="none" stroke="red" points="486.55,-404.86 486.55,-440.86"/>
<text text-anchor="middle" x="501.3" y="-417.43" font-family="Times New Roman,serif" font-size="14.00">13</text>
<polyline fill="none" stroke="red" points="516.05,-404.86 516.05,-440.86"/>
<text text-anchor="middle" x="530.8" y="-417.43" font-family="Times New Roman,serif" font-size="14.00">14</text>
<polyline fill="none" stroke="red" points="545.55,-404.86 545.55,-440.86"/>
<text text-anchor="middle" x="560.3" y="-417.43" font-family="Times New Roman,serif" font-size="14.00">15</text>
</g>
<!-- Parser&#45;&gt;todoLists -->
<g id="edge6" class="edge">
<title>Parser&#45;&gt;todoLists</title>
<path fill="none" stroke="black" d="M633.7,-508.53C570.52,-488.02 491.86,-462.5 437.52,-444.86"/>
<polygon fill="black" stroke="black" points="438.68,-441.56 428.09,-441.8 436.52,-448.22 438.68,-441.56"/>
<text text-anchor="middle" x="548.68" y="-461.81" font-family="Times New Roman,serif" font-size="14.00">todo lists</text>
</g>
<!-- stacksToExpand -->
<g id="node8" class="node">
<title>stacksToExpand</title>
<polygon fill="none" stroke="black" points="592.8,-404.86 592.8,-440.86 646.8,-440.86 646.8,-404.86 592.8,-404.86"/>
<text text-anchor="middle" x="619.68" y="-417.43" font-family="Times New Roman,serif" font-size="14.00"> </text>
</g>
<!-- Parser&#45;&gt;stacksToExpand -->
<g id="edge7" class="edge">
<title>Parser&#45;&gt;stacksToExpand</title>
<path fill="none" stroke="black" d="M664.53,-500.02C655.24,-492.55 646.48,-484.21 639.3,-475.11 634.02,-468.4 630.04,-460.1 627.1,-452.15"/>
<polygon fill="black" stroke="black" points="630.48,-451.22 624.08,-442.78 623.82,-453.37 630.48,-451.22"/>
<text text-anchor="middle" x="687.05" y="-461.81" font-family="Times New Roman,serif" font-size="14.00">stacks to expand</text>
</g>
<!-- terminalsToReduce -->
<g id="node9" class="node">
<title>terminalsToReduce</title>
<polygon fill="none" stroke="black" points="710.8,-404.86 710.8,-440.86 764.8,-440.86 764.8,-404.86 710.8,-404.86"/>
<text text-anchor="middle" x="737.68" y="-417.43" font-family="Times New Roman,serif" font-size="14.00"> </text>
</g>
<!-- Parser&#45;&gt;terminalsToReduce -->
<g id="edge8" class="edge">
<title>Parser&#45;&gt;terminalsToReduce</title>
<path fill="none" stroke="black" d="M737.8,-492.76C737.8,-478.97 737.8,-464.47 737.8,-452.34"/>
<polygon fill="black" stroke="black" points="741.3,-452.63 737.8,-442.63 734.3,-452.63 741.3,-452.63"/>
<text text-anchor="middle" x="790.68" y="-461.81" font-family="Times New Roman,serif" font-size="14.00">terminals to reduce</text>
</g>
<!-- nonTerminalsToReduce -->
<g id="node10" class="node">
<title>nonTerminalsToReduce</title>
<polygon fill="none" stroke="black" points="839.8,-404.86 839.8,-440.86 893.8,-440.86 893.8,-404.86 839.8,-404.86"/>
<text text-anchor="middle" x="866.68" y="-417.43" font-family="Times New Roman,serif" font-size="14.00"> </text>
</g>
<!-- Parser&#45;&gt;nonTerminalsToReduce -->
<g id="edge9" class="edge">
<title>Parser&#45;&gt;nonTerminalsToReduce</title>
<path fill="none" stroke="black" d="M816.24,-501.04C826.69,-493.36 836.6,-484.69 844.8,-475.11 850.6,-468.33 855.08,-459.79 858.43,-451.64"/>
<polygon fill="black" stroke="black" points="861.67,-452.98 861.81,-442.39 855.09,-450.58 861.67,-452.98"/>
<text text-anchor="middle" x="920.43" y="-461.81" font-family="Times New Roman,serif" font-size="14.00">non&#45;terminals to reduce</text>
</g>
<!-- error -->
<g id="node15" class="node">
<title>error</title>
<ellipse fill="none" stroke="black" cx="1020.8" cy="-422.86" rx="34.1" ry="18"/>
<text text-anchor="middle" x="1020.8" y="-417.43" font-family="Times New Roman,serif" font-size="14.00">Errors</text>
</g>
<!-- Parser&#45;&gt;error -->
<g id="edge10" class="edge">
<title>Parser&#45;&gt;error</title>
<path fill="none" stroke="black" d="M872.9,-526.09C913.43,-516.25 956.03,-500.45 989.8,-475.11 998.05,-468.92 1004.57,-459.83 1009.45,-451.02"/>
<polygon fill="black" stroke="black" points="1012.44,-452.86 1013.76,-442.35 1006.17,-449.75 1012.44,-452.86"/>
<text text-anchor="middle" x="1041.3" y="-461.81" font-family="Times New Roman,serif" font-size="14.00">error tracking</text>
</g>
<!-- todo&#45;2 -->
<g id="node2" class="node">
<title>todo&#45;2</title>
<polygon fill="none" stroke="black" points="200.8,-316.11 200.8,-352.11 254.8,-352.11 254.8,-316.11 200.8,-316.11"/>
<text text-anchor="middle" x="227.68" y="-328.68" font-family="Times New Roman,serif" font-size="14.00">0</text>
</g>
<!-- 92 -->
<g id="node3" class="node">
<title>92</title>
<ellipse fill="none" stroke="black" cx="124.8" cy="-224.79" rx="124.8" ry="39.07"/>
<text text-anchor="middle" x="124.8" y="-235.12" font-family="Times New Roman,serif" font-size="14.00">Char: </text>
<text text-anchor="middle" x="124.8" y="-219.37" font-family="Times New Roman,serif" font-size="14.00">.0@5</text>
<text text-anchor="middle" x="124.8" y="-203.62" font-family="Times New Roman,serif" font-size="14.00">in: &#39;Layout &#45;&gt; [range(32,32)]&#39;</text>
</g>
<!-- todo&#45;2&#45;&gt;92 -->
<g id="edge3" class="edge">
<title>todo&#45;2:sw&#45;&gt;92</title>
<path fill="none" stroke="black" d="M200.8,-315.61C187.17,-301.97 173.25,-286.18 161.12,-271.67"/>
<polygon fill="black" stroke="black" points="163.85,-269.48 154.78,-264.01 158.46,-273.94 163.85,-269.48"/>
<text text-anchor="middle" x="199.55" y="-284.31" font-family="Times New Roman,serif" font-size="14.00">Stack</text>
</g>
<!-- 1286868539 -->
<g id="node6" class="node">
<title>1286868539</title>
<polygon fill="none" stroke="black" points="390.42,-212.27 390.42,-237.31 354.32,-255.02 303.28,-255.02 267.19,-237.31 267.19,-212.27 303.28,-194.56 354.32,-194.56 390.42,-212.27"/>
<text text-anchor="middle" x="328.8" y="-227.24" font-family="Times New Roman,serif" font-size="14.00">Char</text>
<text text-anchor="middle" x="328.8" y="-211.49" font-family="Times New Roman,serif" font-size="14.00">char=32(&#39; &#39;)</text>
</g>
<!-- todo&#45;2&#45;&gt;1286868539 -->
<g id="edge4" class="edge">
<title>todo&#45;2:se&#45;&gt;1286868539</title>
<path fill="none" stroke="black" d="M254.55,-315.61C270.49,-299.67 286.61,-280.61 299.74,-264.14"/>
<polygon fill="black" stroke="black" points="302.33,-266.51 305.77,-256.49 296.83,-262.18 302.33,-266.51"/>
<text text-anchor="middle" x="300.18" y="-284.31" font-family="Times New Roman,serif" font-size="14.00">Node</text>
</g>
<!-- 36 -->
<g id="node4" class="node">
<title>36</title>
<ellipse fill="none" stroke="black" cx="124.8" cy="-120.79" rx="95.11" ry="27.93"/>
<text text-anchor="middle" x="124.8" y="-123.24" font-family="Times New Roman,serif" font-size="14.00">NonTerminal: Layout</text>
<text text-anchor="middle" x="124.8" y="-107.49" font-family="Times New Roman,serif" font-size="14.00">.1@5</text>
</g>
<!-- 92&#45;&gt;36 -->
<g id="edge2" class="edge">
<title>92&#45;&gt;36</title>
<path fill="none" stroke="black" d="M124.8,-185.23C124.8,-177.12 124.8,-168.56 124.8,-160.44"/>
<polygon fill="black" stroke="black" points="128.3,-160.49 124.8,-150.49 121.3,-160.49 128.3,-160.49"/>
</g>
<!-- &#45;1 -->
<g id="node5" class="node">
<title>&#45;1</title>
<ellipse fill="none" stroke="black" cx="124.8" cy="-27.93" rx="73.36" ry="27.93"/>
<text text-anchor="middle" x="124.8" y="-30.38" font-family="Times New Roman,serif" font-size="14.00">NonTerminal: S</text>
<text text-anchor="middle" x="124.8" y="-14.63" font-family="Times New Roman,serif" font-size="14.00">.0@&#45;1</text>
</g>
<!-- 36&#45;&gt;&#45;1 -->
<g id="edge1" class="edge">
<title>36&#45;&gt;&#45;1</title>
<path fill="none" stroke="black" d="M124.8,-92.53C124.8,-84.71 124.8,-76.04 124.8,-67.67"/>
<polygon fill="black" stroke="black" points="128.3,-67.69 124.8,-57.69 121.3,-67.69 128.3,-67.69"/>
</g>
<!-- todoLists&#45;&gt;todo&#45;2 -->
<g id="edge5" class="edge">
<title>todoLists:2&#45;&gt;todo&#45;2</title>
<path fill="none" stroke="black" d="M227.43,-404.36C227.43,-390.97 227.5,-376.12 227.58,-363.61"/>
<polygon fill="black" stroke="black" points="231.08,-364.01 227.65,-353.98 224.08,-363.96 231.08,-364.01"/>
</g>
<!-- unexpandableNodes -->
<g id="node11" class="node">
<title>unexpandableNodes</title>
<polygon fill="none" stroke="black" points="832.8,-316.11 832.8,-352.11 886.8,-352.11 886.8,-316.11 832.8,-316.11"/>
<text text-anchor="middle" x="859.68" y="-328.68" font-family="Times New Roman,serif" font-size="14.00"> </text>
</g>
<!-- unmatchableLeafNodes -->
<g id="node12" class="node">
<title>unmatchableLeafNodes</title>
<polygon fill="none" stroke="black" points="932.8,-316.11 932.8,-352.11 986.8,-352.11 986.8,-316.11 932.8,-316.11"/>
<text text-anchor="middle" x="959.68" y="-328.68" font-family="Times New Roman,serif" font-size="14.00"> </text>
</g>
<!-- unmatchableMidProductionNodes -->
<g id="node13" class="node">
<title>unmatchableMidProductionNodes</title>
<polygon fill="none" stroke="black" points="1054.8,-316.11 1054.8,-352.11 1108.8,-352.11 1108.8,-316.11 1054.8,-316.11"/>
<text text-anchor="middle" x="1081.68" y="-328.68" font-family="Times New Roman,serif" font-size="14.00"> </text>
</g>
<!-- filteredNodes -->
<g id="node14" class="node">
<title>filteredNodes</title>
<polygon fill="none" stroke="black" points="1203.8,-316.11 1203.8,-352.11 1257.8,-352.11 1257.8,-316.11 1203.8,-316.11"/>
<text text-anchor="middle" x="1230.68" y="-328.68" font-family="Times New Roman,serif" font-size="14.00"> </text>
</g>
<!-- error&#45;&gt;unexpandableNodes -->
<g id="edge11" class="edge">
<title>error&#45;&gt;unexpandableNodes</title>
<path fill="none" stroke="black" d="M987.68,-417.63C949.9,-412.16 891.3,-401.51 875.3,-386.36 868.99,-380.38 865.23,-371.93 862.98,-363.62"/>
<polygon fill="black" stroke="black" points="866.47,-363.21 861.08,-354.09 859.61,-364.58 866.47,-363.21"/>
<text text-anchor="middle" x="914.05" y="-373.06" font-family="Times New Roman,serif" font-size="14.00">unexpandable</text>
</g>
<!-- error&#45;&gt;unmatchableLeafNodes -->
<g id="edge12" class="edge">
<title>error&#45;&gt;unmatchableLeafNodes</title>
<path fill="none" stroke="black" d="M992.63,-412.36C980.64,-406.77 967.82,-398.38 960.8,-386.36 956.87,-379.62 955.52,-371.49 955.43,-363.71"/>
<polygon fill="black" stroke="black" points="958.92,-364.09 956.02,-353.9 951.93,-363.67 958.92,-364.09"/>
<text text-anchor="middle" x="1010.3" y="-373.06" font-family="Times New Roman,serif" font-size="14.00">unmatchable leafs</text>
</g>
<!-- error&#45;&gt;unmatchableMidProductionNodes -->
<g id="edge13" class="edge">
<title>error&#45;&gt;unmatchableMidProductionNodes</title>
<path fill="none" stroke="black" d="M1039.48,-407.72C1046.52,-401.71 1054.17,-394.26 1059.8,-386.36 1064.84,-379.28 1069.05,-370.87 1072.4,-362.93"/>
<polygon fill="black" stroke="black" points="1075.65,-364.21 1075.99,-353.62 1069.13,-361.68 1075.65,-364.21"/>
<text text-anchor="middle" x="1130.8" y="-373.06" font-family="Times New Roman,serif" font-size="14.00">unmatchable mid&#45;prod</text>
</g>
<!-- error&#45;&gt;filteredNodes -->
<g id="edge14" class="edge">
<title>error&#45;&gt;filteredNodes</title>
<path fill="none" stroke="black" d="M1055.11,-422.65C1093.15,-421.89 1154.82,-415.66 1197.8,-386.36 1206.48,-380.45 1213.38,-371.42 1218.59,-362.58"/>
<polygon fill="black" stroke="black" points="1221.64,-364.31 1223.22,-353.83 1215.45,-361.04 1221.64,-364.31"/>
<text text-anchor="middle" x="1231.93" y="-373.06" font-family="Times New Roman,serif" font-size="14.00">filtered</text>
</g>
</g>
</svg>
