<?xml version="1.0" encoding="UTF-8" standalone="no"?>
<!DOCTYPE svg PUBLIC "-//W3C//DTD SVG 1.1//EN"
 "http://www.w3.org/Graphics/SVG/1.1/DTD/svg11.dtd">
<!-- Generated by graphviz version 12.0.0 (20240704.0754)
 -->
<!-- Title: Parser Pages: 1 -->
<svg width="1289pt" height="602pt"
 viewBox="0.00 0.00 1288.80 601.52" xmlns="http://www.w3.org/2000/svg" xmlns:xlink="http://www.w3.org/1999/xlink">
<g id="graph0" class="graph" transform="scale(1 1) rotate(0) translate(4 597.52)">
<title>Parser</title>
<polygon fill="white" stroke="none" points="-4,4 -4,-597.52 1284.8,-597.52 1284.8,4 -4,4"/>
<!-- Parser -->
<g id="node1" class="node">
<title>Parser</title>
<ellipse fill="none" stroke="black" cx="760.8" cy="-543.31" rx="135.41" ry="50.2"/>
<text text-anchor="middle" x="760.8" y="-561.51" font-family="Times New Roman,serif" font-size="14.00">Parser</text>
<text text-anchor="middle" x="760.8" y="-545.76" font-family="Times New Roman,serif" font-size="14.00">Input: &quot;a b c $&quot;</text>
<text text-anchor="middle" x="760.8" y="-530.01" font-family="Times New Roman,serif" font-size="14.00">Location: 5 (&#39; &#39;)</text>
<text text-anchor="middle" x="760.8" y="-514.26" font-family="Times New Roman,serif" font-size="14.00">Step 26: Found stack to reduce</text>
</g>
<!-- todoLists -->
<g id="node7" class="node">
<title>todoLists</title>
<polygon fill="none" stroke="black" points="193.55,-404.86 193.55,-440.86 598.05,-440.86 598.05,-404.86 193.55,-404.86"/>
<text text-anchor="middle" x="204.93" y="-417.43" font-family="Times New Roman,serif" font-size="14.00">0</text>
<polyline fill="none" stroke="black" points="216.3,-404.86 216.3,-440.86"/>
<text text-anchor="middle" x="227.68" y="-417.43" font-family="Times New Roman,serif" font-size="14.00">1</text>
<polyline fill="none" stroke="black" points="239.05,-404.86 239.05,-440.86"/>
<text text-anchor="middle" x="250.43" y="-417.43" font-family="Times New Roman,serif" font-size="14.00">2</text>
<polyline fill="none" stroke="black" points="261.8,-404.86 261.8,-440.86"/>
<text text-anchor="middle" x="273.18" y="-417.43" font-family="Times New Roman,serif" font-size="14.00">3</text>
<polyline fill="none" stroke="black" points="284.55,-404.86 284.55,-440.86"/>
<text text-anchor="middle" x="295.93" y="-417.43" font-family="Times New Roman,serif" font-size="14.00">4</text>
<polyline fill="none" stroke="black" points="307.3,-404.86 307.3,-440.86"/>
<text text-anchor="middle" x="318.68" y="-417.43" font-family="Times New Roman,serif" font-size="14.00">5</text>
<polyline fill="none" stroke="black" points="330.05,-404.86 330.05,-440.86"/>
<text text-anchor="middle" x="341.43" y="-417.43" font-family="Times New Roman,serif" font-size="14.00">6</text>
<polyline fill="none" stroke="black" points="352.8,-404.86 352.8,-440.86"/>
<text text-anchor="middle" x="364.18" y="-417.43" font-family="Times New Roman,serif" font-size="14.00">7</text>
<polyline fill="none" stroke="black" points="375.55,-404.86 375.55,-440.86"/>
<text text-anchor="middle" x="386.93" y="-417.43" font-family="Times New Roman,serif" font-size="14.00">8</text>
<polyline fill="none" stroke="black" points="398.3,-404.86 398.3,-440.86"/>
<text text-anchor="middle" x="409.68" y="-417.43" font-family="Times New Roman,serif" font-size="14.00">9</text>
<polyline fill="none" stroke="black" points="421.05,-404.86 421.05,-440.86"/>
<text text-anchor="middle" x="435.8" y="-417.43" font-family="Times New Roman,serif" font-size="14.00">10</text>
<polyline fill="none" stroke="black" points="450.55,-404.86 450.55,-440.86"/>
<text text-anchor="middle" x="465.3" y="-417.43" font-family="Times New Roman,serif" font-size="14.00">11</text>
<polyline fill="none" stroke="black" points="480.05,-404.86 480.05,-440.86"/>
<text text-anchor="middle" x="494.8" y="-417.43" font-family="Times New Roman,serif" font-size="14.00">12</text>
<polyline fill="none" stroke="black" points="509.55,-404.86 509.55,-440.86"/>
<text text-anchor="middle" x="524.3" y="-417.43" font-family="Times New Roman,serif" font-size="14.00">13</text>
<polyline fill="none" stroke="black" points="539.05,-404.86 539.05,-440.86"/>
<text text-anchor="middle" x="553.8" y="-417.43" font-family="Times New Roman,serif" font-size="14.00">14</text>
<polyline fill="none" stroke="black" points="568.55,-404.86 568.55,-440.86"/>
<text text-anchor="middle" x="583.3" y="-417.43" font-family="Times New Roman,serif" font-size="14.00">15</text>
</g>
<!-- Parser&#45;&gt;todoLists -->
<g id="edge6" class="edge">
<title>Parser&#45;&gt;todoLists</title>
<path fill="none" stroke="black" d="M659.62,-509.47C595.83,-488.77 515.38,-462.67 460.2,-444.76"/>
<polygon fill="black" stroke="black" points="461.54,-441.51 450.95,-441.75 459.38,-448.17 461.54,-441.51"/>
<text text-anchor="middle" x="571.68" y="-461.81" font-family="Times New Roman,serif" font-size="14.00">todo lists</text>
</g>
<!-- stacksToExpand -->
<g id="node8" class="node">
<title>stacksToExpand</title>
<polygon fill="none" stroke="black" points="615.8,-404.86 615.8,-440.86 669.8,-440.86 669.8,-404.86 615.8,-404.86"/>
<text text-anchor="middle" x="642.68" y="-417.43" font-family="Times New Roman,serif" font-size="14.00"> </text>
</g>
<!-- Parser&#45;&gt;stacksToExpand -->
<g id="edge7" class="edge">
<title>Parser&#45;&gt;stacksToExpand</title>
<path fill="none" stroke="black" d="M688.53,-500.81C678.86,-493.14 669.74,-484.54 662.3,-475.11 657.02,-468.4 653.04,-460.1 650.1,-452.15"/>
<polygon fill="black" stroke="black" points="653.48,-451.22 647.08,-442.78 646.82,-453.37 653.48,-451.22"/>
<text text-anchor="middle" x="710.05" y="-461.81" font-family="Times New Roman,serif" font-size="14.00">stacks to expand</text>
</g>
<!-- terminalsToReduce -->
<g id="node9" class="node">
<title>terminalsToReduce</title>
<polygon fill="none" stroke="black" points="733.8,-404.86 733.8,-440.86 787.8,-440.86 787.8,-404.86 733.8,-404.86"/>
<text text-anchor="middle" x="760.68" y="-417.43" font-family="Times New Roman,serif" font-size="14.00"> </text>
</g>
<!-- Parser&#45;&gt;terminalsToReduce -->
<g id="edge8" class="edge">
<title>Parser&#45;&gt;terminalsToReduce</title>
<path fill="none" stroke="black" d="M760.8,-492.76C760.8,-478.97 760.8,-464.47 760.8,-452.34"/>
<polygon fill="black" stroke="black" points="764.3,-452.63 760.8,-442.63 757.3,-452.63 764.3,-452.63"/>
<text text-anchor="middle" x="813.68" y="-461.81" font-family="Times New Roman,serif" font-size="14.00">terminals to reduce</text>
</g>
<!-- nonTerminalsToReduce -->
<g id="node10" class="node">
<title>nonTerminalsToReduce</title>
<polygon fill="none" stroke="black" points="862.8,-404.86 862.8,-440.86 916.8,-440.86 916.8,-404.86 862.8,-404.86"/>
<text text-anchor="middle" x="889.68" y="-417.43" font-family="Times New Roman,serif" font-size="14.00"> </text>
</g>
<!-- Parser&#45;&gt;nonTerminalsToReduce -->
<g id="edge9" class="edge">
<title>Parser&#45;&gt;nonTerminalsToReduce</title>
<path fill="none" stroke="black" d="M838.15,-501.84C849,-493.96 859.32,-485.03 867.8,-475.11 873.6,-468.33 878.08,-459.79 881.43,-451.64"/>
<polygon fill="black" stroke="black" points="884.67,-452.98 884.81,-442.39 878.09,-450.58 884.67,-452.98"/>
<text text-anchor="middle" x="943.43" y="-461.81" font-family="Times New Roman,serif" font-size="14.00">non&#45;terminals to reduce</text>
</g>
<!-- error -->
<g id="node15" class="node">
<title>error</title>
<ellipse fill="none" stroke="black" cx="1043.8" cy="-422.86" rx="34.1" ry="18"/>
<text text-anchor="middle" x="1043.8" y="-417.43" font-family="Times New Roman,serif" font-size="14.00">Errors</text>
</g>
<!-- Parser&#45;&gt;error -->
<g id="edge10" class="edge">
<title>Parser&#45;&gt;error</title>
<path fill="none" stroke="black" d="M889.73,-527.55C932.06,-517.83 977.31,-501.74 1012.8,-475.11 1021.05,-468.92 1027.57,-459.83 1032.45,-451.02"/>
<polygon fill="black" stroke="black" points="1035.44,-452.86 1036.76,-442.35 1029.17,-449.75 1035.44,-452.86"/>
<text text-anchor="middle" x="1064.3" y="-461.81" font-family="Times New Roman,serif" font-size="14.00">error tracking</text>
</g>
<!-- todo&#45;1 -->
<g id="node2" class="node">
<title>todo&#45;1</title>
<polygon fill="none" stroke="red" points="200.8,-316.11 200.8,-352.11 254.8,-352.11 254.8,-316.11 200.8,-316.11"/>
<text text-anchor="middle" x="227.68" y="-328.68" font-family="Times New Roman,serif" font-size="14.00">0</text>
</g>
<!-- 92 -->
<g id="node3" class="node">
<title>92</title>
<ellipse fill="none" stroke="black" cx="124.8" cy="-224.79" rx="124.8" ry="39.07"/>
<text text-anchor="middle" x="124.8" y="-235.12" font-family="Times New Roman,serif" font-size="14.00">Char: </text>
<text text-anchor="middle" x="124.8" y="-219.37" font-family="Times New Roman,serif" font-size="14.00">.0@5</text>
<text text-anchor="middle" x="124.8" y="-203.62" font-family="Times New Roman,serif" font-size="14.00">in: &#39;Layout &#45;&gt; [range(32,32)]&#39;</text>
</g>
<!-- todo&#45;1&#45;&gt;92 -->
<g id="edge3" class="edge">
<title>todo&#45;1:sw&#45;&gt;92</title>
<path fill="none" stroke="black" d="M200.8,-315.61C187.17,-301.97 173.25,-286.18 161.12,-271.67"/>
<polygon fill="black" stroke="black" points="163.85,-269.48 154.78,-264.01 158.46,-273.94 163.85,-269.48"/>
<text text-anchor="middle" x="199.55" y="-284.31" font-family="Times New Roman,serif" font-size="14.00">Stack</text>
</g>
<!-- 1286868539 -->
<g id="node6" class="node">
<title>1286868539</title>
<polygon fill="none" stroke="black" points="390.42,-212.27 390.42,-237.31 354.32,-255.02 303.28,-255.02 267.19,-237.31 267.19,-212.27 303.28,-194.56 354.32,-194.56 390.42,-212.27"/>
<text text-anchor="middle" x="328.8" y="-227.24" font-family="Times New Roman,serif" font-size="14.00">Char</text>
<text text-anchor="middle" x="328.8" y="-211.49" font-family="Times New Roman,serif" font-size="14.00">char=32(&#39; &#39;)</text>
</g>
<!-- todo&#45;1&#45;&gt;1286868539 -->
<g id="edge4" class="edge">
<title>todo&#45;1:se&#45;&gt;1286868539</title>
<path fill="none" stroke="black" d="M254.55,-315.61C270.49,-299.67 286.61,-280.61 299.74,-264.14"/>
<polygon fill="black" stroke="black" points="302.33,-266.51 305.77,-256.49 296.83,-262.18 302.33,-266.51"/>
<text text-anchor="middle" x="300.18" y="-284.31" font-family="Times New Roman,serif" font-size="14.00">Node</text>
</g>
<!-- 36 -->
<g id="node4" class="node">
<title>36</title>
<ellipse fill="none" stroke="black" cx="124.8" cy="-120.79" rx="95.11" ry="27.93"/>
<text text-anchor="middle" x="124.8" y="-123.24" font-family="Times New Roman,serif" font-size="14.00">NonTerminal: Layout</text>
<text text-anchor="middle" x="124.8" y="-107.49" font-family="Times New Roman,serif" font-size="14.00">.1@5</text>
</g>
<!-- 92&#45;&gt;36 -->
<g id="edge2" class="edge">
<title>92&#45;&gt;36</title>
<path fill="none" stroke="black" d="M124.8,-185.23C124.8,-177.12 124.8,-168.56 124.8,-160.44"/>
<polygon fill="black" stroke="black" points="128.3,-160.49 124.8,-150.49 121.3,-160.49 128.3,-160.49"/>
</g>
<!-- &#45;1 -->
<g id="node5" class="node">
<title>&#45;1</title>
<ellipse fill="none" stroke="black" cx="124.8" cy="-27.93" rx="73.36" ry="27.93"/>
<text text-anchor="middle" x="124.8" y="-30.38" font-family="Times New Roman,serif" font-size="14.00">NonTerminal: S</text>
<text text-anchor="middle" x="124.8" y="-14.63" font-family="Times New Roman,serif" font-size="14.00">.0@&#45;1</text>
</g>
<!-- 36&#45;&gt;&#45;1 -->
<g id="edge1" class="edge">
<title>36&#45;&gt;&#45;1</title>
<path fill="none" stroke="black" d="M124.8,-92.53C124.8,-84.71 124.8,-76.04 124.8,-67.67"/>
<polygon fill="black" stroke="black" points="128.3,-67.69 124.8,-57.69 121.3,-67.69 128.3,-67.69"/>
</g>
<!-- todoLists&#45;&gt;todo&#45;1 -->
<g id="edge5" class="edge">
<title>todoLists:1&#45;&gt;todo&#45;1</title>
<path fill="none" stroke="black" d="M227.68,-404.36C227.68,-390.97 227.7,-376.12 227.73,-363.61"/>
<polygon fill="black" stroke="black" points="231.23,-363.99 227.75,-353.98 224.23,-363.97 231.23,-363.99"/>
</g>
<!-- unexpandableNodes -->
<g id="node11" class="node">
<title>unexpandableNodes</title>
<polygon fill="none" stroke="black" points="855.8,-316.11 855.8,-352.11 909.8,-352.11 909.8,-316.11 855.8,-316.11"/>
<text text-anchor="middle" x="882.68" y="-328.68" font-family="Times New Roman,serif" font-size="14.00"> </text>
</g>
<!-- unmatchableLeafNodes -->
<g id="node12" class="node">
<title>unmatchableLeafNodes</title>
<polygon fill="none" stroke="black" points="955.8,-316.11 955.8,-352.11 1009.8,-352.11 1009.8,-316.11 955.8,-316.11"/>
<text text-anchor="middle" x="982.68" y="-328.68" font-family="Times New Roman,serif" font-size="14.00"> </text>
</g>
<!-- unmatchableMidProductionNodes -->
<g id="node13" class="node">
<title>unmatchableMidProductionNodes</title>
<polygon fill="none" stroke="black" points="1077.8,-316.11 1077.8,-352.11 1131.8,-352.11 1131.8,-316.11 1077.8,-316.11"/>
<text text-anchor="middle" x="1104.68" y="-328.68" font-family="Times New Roman,serif" font-size="14.00"> </text>
</g>
<!-- filteredNodes -->
<g id="node14" class="node">
<title>filteredNodes</title>
<polygon fill="none" stroke="black" points="1226.8,-316.11 1226.8,-352.11 1280.8,-352.11 1280.8,-316.11 1226.8,-316.11"/>
<text text-anchor="middle" x="1253.68" y="-328.68" font-family="Times New Roman,serif" font-size="14.00"> </text>
</g>
<!-- error&#45;&gt;unexpandableNodes -->
<g id="edge11" class="edge">
<title>error&#45;&gt;unexpandableNodes</title>
<path fill="none" stroke="black" d="M1010.68,-417.63C972.9,-412.16 914.3,-401.51 898.3,-386.36 891.99,-380.38 888.23,-371.93 885.98,-363.62"/>
<polygon fill="black" stroke="black" points="889.47,-363.21 884.08,-354.09 882.61,-364.58 889.47,-363.21"/>
<text text-anchor="middle" x="937.05" y="-373.06" font-family="Times New Roman,serif" font-size="14.00">unexpandable</text>
</g>
<!-- error&#45;&gt;unmatchableLeafNodes -->
<g id="edge12" class="edge">
<title>error&#45;&gt;unmatchableLeafNodes</title>
<path fill="none" stroke="black" d="M1015.63,-412.36C1003.64,-406.77 990.82,-398.38 983.8,-386.36 979.87,-379.62 978.52,-371.49 978.43,-363.71"/>
<polygon fill="black" stroke="black" points="981.92,-364.09 979.02,-353.9 974.93,-363.67 981.92,-364.09"/>
<text text-anchor="middle" x="1033.3" y="-373.06" font-family="Times New Roman,serif" font-size="14.00">unmatchable leafs</text>
</g>
<!-- error&#45;&gt;unmatchableMidProductionNodes -->
<g id="edge13" class="edge">
<title>error&#45;&gt;unmatchableMidProductionNodes</title>
<path fill="none" stroke="black" d="M1062.48,-407.72C1069.52,-401.71 1077.17,-394.26 1082.8,-386.36 1087.84,-379.28 1092.05,-370.87 1095.4,-362.93"/>
<polygon fill="black" stroke="black" points="1098.65,-364.21 1098.99,-353.62 1092.13,-361.68 1098.65,-364.21"/>
<text text-anchor="middle" x="1153.8" y="-373.06" font-family="Times New Roman,serif" font-size="14.00">unmatchable mid&#45;prod</text>
</g>
<!-- error&#45;&gt;filteredNodes -->
<g id="edge14" class="edge">
<title>error&#45;&gt;filteredNodes</title>
<path fill="none" stroke="black" d="M1078.11,-422.65C1116.15,-421.89 1177.82,-415.66 1220.8,-386.36 1229.48,-380.45 1236.38,-371.42 1241.59,-362.58"/>
<polygon fill="black" stroke="black" points="1244.64,-364.31 1246.22,-353.83 1238.45,-361.04 1244.64,-364.31"/>
<text text-anchor="middle" x="1254.93" y="-373.06" font-family="Times New Roman,serif" font-size="14.00">filtered</text>
</g>
</g>
</svg>
