<?xml version="1.0" encoding="UTF-8" standalone="no"?>
<!DOCTYPE svg PUBLIC "-//W3C//DTD SVG 1.1//EN"
 "http://www.w3.org/Graphics/SVG/1.1/DTD/svg11.dtd">
<!-- Generated by graphviz version 12.0.0 (20240704.0754)
 -->
<!-- Title: Parser Pages: 1 -->
<svg width="1063pt" height="602pt"
 viewBox="0.00 0.00 1063.25 601.52" xmlns="http://www.w3.org/2000/svg" xmlns:xlink="http://www.w3.org/1999/xlink">
<g id="graph0" class="graph" transform="scale(1 1) rotate(0) translate(4 597.52)">
<title>Parser</title>
<polygon fill="white" stroke="none" points="-4,4 -4,-597.52 1059.25,-597.52 1059.25,4 -4,4"/>
<!-- Parser -->
<g id="node1" class="node">
<title>Parser</title>
<ellipse fill="none" stroke="black" cx="568.25" cy="-543.31" rx="121.62" ry="50.2"/>
<text text-anchor="middle" x="568.25" y="-561.51" font-family="Times New Roman,serif" font-size="14.00">Parser</text>
<text text-anchor="middle" x="568.25" y="-545.76" font-family="Times New Roman,serif" font-size="14.00">Input: &quot;a b c $&quot;</text>
<text text-anchor="middle" x="568.25" y="-530.01" font-family="Times New Roman,serif" font-size="14.00">Location: 6 (&#39;$&#39;)</text>
<text text-anchor="middle" x="568.25" y="-514.26" font-family="Times New Roman,serif" font-size="14.00">Step 27: Reducing terminals</text>
</g>
<!-- todoLists -->
<g id="node7" class="node">
<title>todoLists</title>
<polygon fill="none" stroke="black" points="0,-404.86 0,-440.86 404.5,-440.86 404.5,-404.86 0,-404.86"/>
<text text-anchor="middle" x="11.38" y="-417.43" font-family="Times New Roman,serif" font-size="14.00">0</text>
<polyline fill="none" stroke="black" points="22.75,-404.86 22.75,-440.86"/>
<text text-anchor="middle" x="34.12" y="-417.43" font-family="Times New Roman,serif" font-size="14.00">1</text>
<polyline fill="none" stroke="black" points="45.5,-404.86 45.5,-440.86"/>
<text text-anchor="middle" x="56.88" y="-417.43" font-family="Times New Roman,serif" font-size="14.00">2</text>
<polyline fill="none" stroke="black" points="68.25,-404.86 68.25,-440.86"/>
<text text-anchor="middle" x="79.62" y="-417.43" font-family="Times New Roman,serif" font-size="14.00">3</text>
<polyline fill="none" stroke="black" points="91,-404.86 91,-440.86"/>
<text text-anchor="middle" x="102.38" y="-417.43" font-family="Times New Roman,serif" font-size="14.00">4</text>
<polyline fill="none" stroke="black" points="113.75,-404.86 113.75,-440.86"/>
<text text-anchor="middle" x="125.12" y="-417.43" font-family="Times New Roman,serif" font-size="14.00">5</text>
<polyline fill="none" stroke="black" points="136.5,-404.86 136.5,-440.86"/>
<text text-anchor="middle" x="147.88" y="-417.43" font-family="Times New Roman,serif" font-size="14.00">6</text>
<polyline fill="none" stroke="black" points="159.25,-404.86 159.25,-440.86"/>
<text text-anchor="middle" x="170.62" y="-417.43" font-family="Times New Roman,serif" font-size="14.00">7</text>
<polyline fill="none" stroke="black" points="182,-404.86 182,-440.86"/>
<text text-anchor="middle" x="193.38" y="-417.43" font-family="Times New Roman,serif" font-size="14.00">8</text>
<polyline fill="none" stroke="black" points="204.75,-404.86 204.75,-440.86"/>
<text text-anchor="middle" x="216.12" y="-417.43" font-family="Times New Roman,serif" font-size="14.00">9</text>
<polyline fill="none" stroke="black" points="227.5,-404.86 227.5,-440.86"/>
<text text-anchor="middle" x="242.25" y="-417.43" font-family="Times New Roman,serif" font-size="14.00">10</text>
<polyline fill="none" stroke="black" points="257,-404.86 257,-440.86"/>
<text text-anchor="middle" x="271.75" y="-417.43" font-family="Times New Roman,serif" font-size="14.00">11</text>
<polyline fill="none" stroke="black" points="286.5,-404.86 286.5,-440.86"/>
<text text-anchor="middle" x="301.25" y="-417.43" font-family="Times New Roman,serif" font-size="14.00">12</text>
<polyline fill="none" stroke="black" points="316,-404.86 316,-440.86"/>
<text text-anchor="middle" x="330.75" y="-417.43" font-family="Times New Roman,serif" font-size="14.00">13</text>
<polyline fill="none" stroke="black" points="345.5,-404.86 345.5,-440.86"/>
<text text-anchor="middle" x="360.25" y="-417.43" font-family="Times New Roman,serif" font-size="14.00">14</text>
<polyline fill="none" stroke="black" points="375,-404.86 375,-440.86"/>
<text text-anchor="middle" x="389.75" y="-417.43" font-family="Times New Roman,serif" font-size="14.00">15</text>
</g>
<!-- Parser&#45;&gt;todoLists -->
<g id="edge6" class="edge">
<title>Parser&#45;&gt;todoLists</title>
<path fill="none" stroke="black" d="M473.52,-511.65C408.65,-490.66 324.33,-463.37 267.03,-444.82"/>
<polygon fill="black" stroke="black" points="268.33,-441.57 257.74,-441.82 266.18,-448.23 268.33,-441.57"/>
<text text-anchor="middle" x="379.12" y="-461.81" font-family="Times New Roman,serif" font-size="14.00">todo lists</text>
</g>
<!-- stacksToExpand -->
<g id="node8" class="node">
<title>stacksToExpand</title>
<polygon fill="none" stroke="black" points="564.25,-404.86 564.25,-440.86 618.25,-440.86 618.25,-404.86 564.25,-404.86"/>
<text text-anchor="middle" x="591.12" y="-417.43" font-family="Times New Roman,serif" font-size="14.00"> </text>
</g>
<!-- Parser&#45;&gt;stacksToExpand -->
<g id="edge7" class="edge">
<title>Parser&#45;&gt;stacksToExpand</title>
<path fill="none" stroke="black" d="M564.91,-492.99C565.31,-481.76 566.67,-470.01 569.75,-459.36 570.56,-456.57 571.64,-453.78 572.89,-451.06"/>
<polygon fill="black" stroke="black" points="575.91,-452.84 577.63,-442.39 569.76,-449.49 575.91,-452.84"/>
<text text-anchor="middle" x="617.5" y="-461.81" font-family="Times New Roman,serif" font-size="14.00">stacks to expand</text>
</g>
<!-- terminalsToReduce -->
<g id="node9" class="node">
<title>terminalsToReduce</title>
<polygon fill="none" stroke="red" points="349.25,-316.11 349.25,-352.11 403.25,-352.11 403.25,-316.11 349.25,-316.11"/>
<text text-anchor="middle" x="376.12" y="-328.68" font-family="Times New Roman,serif" font-size="14.00">0</text>
</g>
<!-- Parser&#45;&gt;terminalsToReduce -->
<g id="edge10" class="edge">
<title>Parser&#45;&gt;terminalsToReduce</title>
<path fill="none" stroke="black" d="M510.82,-498.65C490.4,-481.82 467.92,-461.73 449.5,-441.36 427.06,-416.53 405.88,-384.51 392.12,-362.14"/>
<polygon fill="black" stroke="black" points="395.12,-360.34 386.94,-353.6 389.13,-363.97 395.12,-360.34"/>
<text text-anchor="middle" x="503.12" y="-417.43" font-family="Times New Roman,serif" font-size="14.00">terminals to reduce</text>
</g>
<!-- nonTerminalsToReduce -->
<g id="node10" class="node">
<title>nonTerminalsToReduce</title>
<polygon fill="none" stroke="black" points="659.25,-404.86 659.25,-440.86 713.25,-440.86 713.25,-404.86 659.25,-404.86"/>
<text text-anchor="middle" x="686.12" y="-417.43" font-family="Times New Roman,serif" font-size="14.00"> </text>
</g>
<!-- Parser&#45;&gt;nonTerminalsToReduce -->
<g id="edge11" class="edge">
<title>Parser&#45;&gt;nonTerminalsToReduce</title>
<path fill="none" stroke="black" d="M636.87,-501.5C646.87,-493.59 656.42,-484.74 664.25,-475.11 669.79,-468.29 674.17,-459.87 677.51,-451.83"/>
<polygon fill="black" stroke="black" points="680.7,-453.31 680.91,-442.72 674.14,-450.87 680.7,-453.31"/>
<text text-anchor="middle" x="738.88" y="-461.81" font-family="Times New Roman,serif" font-size="14.00">non&#45;terminals to reduce</text>
</g>
<!-- error -->
<g id="node15" class="node">
<title>error</title>
<ellipse fill="none" stroke="black" cx="840.25" cy="-422.86" rx="34.1" ry="18"/>
<text text-anchor="middle" x="840.25" y="-417.43" font-family="Times New Roman,serif" font-size="14.00">Errors</text>
</g>
<!-- Parser&#45;&gt;error -->
<g id="edge12" class="edge">
<title>Parser&#45;&gt;error</title>
<path fill="none" stroke="black" d="M684.43,-527.69C726.54,-518 772.49,-501.89 808.25,-475.11 816.58,-468.87 823.26,-459.77 828.31,-450.97"/>
<polygon fill="black" stroke="black" points="831.31,-452.79 832.81,-442.3 825.1,-449.56 831.31,-452.79"/>
<text text-anchor="middle" x="859.75" y="-461.81" font-family="Times New Roman,serif" font-size="14.00">error tracking</text>
</g>
<!-- todo&#45;1 -->
<g id="node2" class="node">
<title>todo&#45;1</title>
<polygon fill="none" stroke="black" points="198.25,-316.11 198.25,-352.11 252.25,-352.11 252.25,-316.11 198.25,-316.11"/>
<text text-anchor="middle" x="225.12" y="-328.68" font-family="Times New Roman,serif" font-size="14.00">0</text>
</g>
<!-- 92 -->
<g id="node3" class="node">
<title>92</title>
<ellipse fill="none" stroke="black" cx="198.25" cy="-224.79" rx="124.8" ry="39.07"/>
<text text-anchor="middle" x="198.25" y="-235.12" font-family="Times New Roman,serif" font-size="14.00">Char: </text>
<text text-anchor="middle" x="198.25" y="-219.37" font-family="Times New Roman,serif" font-size="14.00">.0@5</text>
<text text-anchor="middle" x="198.25" y="-203.62" font-family="Times New Roman,serif" font-size="14.00">in: &#39;Layout &#45;&gt; [range(32,32)]&#39;</text>
</g>
<!-- todo&#45;1&#45;&gt;92 -->
<g id="edge3" class="edge">
<title>todo&#45;1:sw&#45;&gt;92</title>
<path fill="none" stroke="black" d="M198.25,-315.61C187.79,-305.15 185.08,-290.12 185.82,-275.33"/>
<polygon fill="black" stroke="black" points="189.27,-275.97 186.82,-265.66 182.31,-275.25 189.27,-275.97"/>
<text text-anchor="middle" x="204" y="-284.31" font-family="Times New Roman,serif" font-size="14.00">Stack</text>
</g>
<!-- 1286868539 -->
<g id="node6" class="node">
<title>1286868539</title>
<polygon fill="none" stroke="black" points="463.86,-212.27 463.86,-237.31 427.77,-255.02 376.73,-255.02 340.64,-237.31 340.64,-212.27 376.73,-194.56 427.77,-194.56 463.86,-212.27"/>
<text text-anchor="middle" x="402.25" y="-227.24" font-family="Times New Roman,serif" font-size="14.00">Char</text>
<text text-anchor="middle" x="402.25" y="-211.49" font-family="Times New Roman,serif" font-size="14.00">char=32(&#39; &#39;)</text>
</g>
<!-- todo&#45;1&#45;&gt;1286868539 -->
<g id="edge4" class="edge">
<title>todo&#45;1:se&#45;&gt;1286868539</title>
<path fill="none" stroke="black" d="M252,-315.61C266.72,-300.88 267.11,-293.31 284.5,-281.86 303.44,-269.38 311.63,-273.3 332.25,-263.86 339.01,-260.76 346.02,-257.29 352.87,-253.73"/>
<polygon fill="black" stroke="black" points="354.22,-256.98 361.42,-249.21 350.94,-250.79 354.22,-256.98"/>
<text text-anchor="middle" x="300.62" y="-284.31" font-family="Times New Roman,serif" font-size="14.00">Node</text>
</g>
<!-- 36 -->
<g id="node4" class="node">
<title>36</title>
<ellipse fill="none" stroke="black" cx="198.25" cy="-120.79" rx="95.11" ry="27.93"/>
<text text-anchor="middle" x="198.25" y="-123.24" font-family="Times New Roman,serif" font-size="14.00">NonTerminal: Layout</text>
<text text-anchor="middle" x="198.25" y="-107.49" font-family="Times New Roman,serif" font-size="14.00">.1@5</text>
</g>
<!-- 92&#45;&gt;36 -->
<g id="edge2" class="edge">
<title>92&#45;&gt;36</title>
<path fill="none" stroke="black" d="M198.25,-185.23C198.25,-177.12 198.25,-168.56 198.25,-160.44"/>
<polygon fill="black" stroke="black" points="201.75,-160.49 198.25,-150.49 194.75,-160.49 201.75,-160.49"/>
</g>
<!-- &#45;1 -->
<g id="node5" class="node">
<title>&#45;1</title>
<ellipse fill="none" stroke="black" cx="198.25" cy="-27.93" rx="73.36" ry="27.93"/>
<text text-anchor="middle" x="198.25" y="-30.38" font-family="Times New Roman,serif" font-size="14.00">NonTerminal: S</text>
<text text-anchor="middle" x="198.25" y="-14.63" font-family="Times New Roman,serif" font-size="14.00">.0@&#45;1</text>
</g>
<!-- 36&#45;&gt;&#45;1 -->
<g id="edge1" class="edge">
<title>36&#45;&gt;&#45;1</title>
<path fill="none" stroke="black" d="M198.25,-92.53C198.25,-84.71 198.25,-76.04 198.25,-67.67"/>
<polygon fill="black" stroke="black" points="201.75,-67.69 198.25,-57.69 194.75,-67.69 201.75,-67.69"/>
</g>
<!-- todoLists&#45;&gt;todo&#45;1 -->
<g id="edge5" class="edge">
<title>todoLists:1&#45;&gt;todo&#45;1</title>
<path fill="none" stroke="black" d="M34.12,-404.36C34.12,-372.23 130.78,-350.78 186.62,-341.06"/>
<polygon fill="black" stroke="black" points="187.09,-344.53 196.37,-339.42 185.93,-337.63 187.09,-344.53"/>
</g>
<!-- terminalsToReduce&#45;&gt;92 -->
<g id="edge8" class="edge">
<title>terminalsToReduce:sw&#45;&gt;92</title>
<path fill="none" stroke="black" d="M349.25,-315.61C334.19,-300.55 332.65,-294.13 315.25,-281.86 305,-274.63 293.67,-267.89 282.22,-261.77"/>
<polygon fill="black" stroke="black" points="283.99,-258.75 273.5,-257.26 280.77,-264.96 283.99,-258.75"/>
<text text-anchor="middle" x="349" y="-284.31" font-family="Times New Roman,serif" font-size="14.00">Stack</text>
</g>
<!-- terminalsToReduce&#45;&gt;1286868539 -->
<g id="edge9" class="edge">
<title>terminalsToReduce:se&#45;&gt;1286868539</title>
<path fill="none" stroke="black" d="M403,-315.61C415.57,-303.04 416.8,-283.84 414.29,-266.42"/>
<polygon fill="black" stroke="black" points="417.77,-265.98 412.46,-256.81 410.89,-267.28 417.77,-265.98"/>
<text text-anchor="middle" x="431.62" y="-284.31" font-family="Times New Roman,serif" font-size="14.00">Node</text>
</g>
<!-- unexpandableNodes -->
<g id="node11" class="node">
<title>unexpandableNodes</title>
<polygon fill="none" stroke="black" points="849.25,-316.11 849.25,-352.11 903.25,-352.11 903.25,-316.11 849.25,-316.11"/>
<text text-anchor="middle" x="876.12" y="-328.68" font-family="Times New Roman,serif" font-size="14.00"> </text>
</g>
<!-- unmatchableLeafNodes -->
<g id="node12" class="node">
<title>unmatchableLeafNodes</title>
<polygon fill="none" stroke="black" points="946.25,-316.11 946.25,-352.11 1000.25,-352.11 1000.25,-316.11 946.25,-316.11"/>
<text text-anchor="middle" x="973.12" y="-328.68" font-family="Times New Roman,serif" font-size="14.00"> </text>
</g>
<!-- unmatchableMidProductionNodes -->
<g id="node13" class="node">
<title>unmatchableMidProductionNodes</title>
<polygon fill="none" stroke="black" points="631.25,-316.11 631.25,-352.11 685.25,-352.11 685.25,-316.11 631.25,-316.11"/>
<text text-anchor="middle" x="658.12" y="-328.68" font-family="Times New Roman,serif" font-size="14.00"> </text>
</g>
<!-- filteredNodes -->
<g id="node14" class="node">
<title>filteredNodes</title>
<polygon fill="none" stroke="black" points="777.25,-316.11 777.25,-352.11 831.25,-352.11 831.25,-316.11 777.25,-316.11"/>
<text text-anchor="middle" x="804.12" y="-328.68" font-family="Times New Roman,serif" font-size="14.00"> </text>
</g>
<!-- error&#45;&gt;unexpandableNodes -->
<g id="edge13" class="edge">
<title>error&#45;&gt;unexpandableNodes</title>
<path fill="none" stroke="black" d="M847.19,-405.13C852.16,-393.17 858.96,-376.78 864.73,-362.87"/>
<polygon fill="black" stroke="black" points="867.9,-364.35 868.5,-353.77 861.44,-361.67 867.9,-364.35"/>
<text text-anchor="middle" x="899.5" y="-373.06" font-family="Times New Roman,serif" font-size="14.00">unexpandable</text>
</g>
<!-- error&#45;&gt;unmatchableLeafNodes -->
<g id="edge14" class="edge">
<title>error&#45;&gt;unmatchableLeafNodes</title>
<path fill="none" stroke="black" d="M872.47,-416.57C894.07,-411.69 922.14,-402.65 942.25,-386.36 950.06,-380.03 956.4,-371.17 961.25,-362.6"/>
<polygon fill="black" stroke="black" points="964.31,-364.31 965.75,-353.81 958.08,-361.12 964.31,-364.31"/>
<text text-anchor="middle" x="1005.75" y="-373.06" font-family="Times New Roman,serif" font-size="14.00">unmatchable leafs</text>
</g>
<!-- error&#45;&gt;unmatchableMidProductionNodes -->
<g id="edge15" class="edge">
<title>error&#45;&gt;unmatchableMidProductionNodes</title>
<path fill="none" stroke="black" d="M807.01,-418.39C765.13,-413.4 696.33,-402.93 677.25,-386.36 670.38,-380.39 665.98,-371.69 663.18,-363.15"/>
<polygon fill="black" stroke="black" points="666.63,-362.52 660.72,-353.73 659.86,-364.29 666.63,-362.52"/>
<text text-anchor="middle" x="740.25" y="-373.06" font-family="Times New Roman,serif" font-size="14.00">unmatchable mid&#45;prod</text>
</g>
<!-- error&#45;&gt;filteredNodes -->
<g id="edge16" class="edge">
<title>error&#45;&gt;filteredNodes</title>
<path fill="none" stroke="black" d="M825.07,-406.42C820.15,-400.57 815.15,-393.58 812,-386.36 808.93,-379.32 807.05,-371.28 805.9,-363.69"/>
<polygon fill="black" stroke="black" points="809.39,-363.4 804.8,-353.84 802.43,-364.17 809.39,-363.4"/>
<text text-anchor="middle" x="830.38" y="-373.06" font-family="Times New Roman,serif" font-size="14.00">filtered</text>
</g>
</g>
</svg>
