<?xml version="1.0" encoding="UTF-8" standalone="no"?>
<!DOCTYPE svg PUBLIC "-//W3C//DTD SVG 1.1//EN"
 "http://www.w3.org/Graphics/SVG/1.1/DTD/svg11.dtd">
<!-- Generated by graphviz version 12.0.0 (20240704.0754)
 -->
<!-- Title: Parser Pages: 1 -->
<svg width="1025pt" height="420pt"
 viewBox="0.00 0.00 1025.25 419.91" xmlns="http://www.w3.org/2000/svg" xmlns:xlink="http://www.w3.org/1999/xlink">
<g id="graph0" class="graph" transform="scale(1 1) rotate(0) translate(4 415.91)">
<title>Parser</title>
<polygon fill="white" stroke="none" points="-4,4 -4,-415.91 1021.25,-415.91 1021.25,4 -4,4"/>
<!-- Parser -->
<g id="node1" class="node">
<title>Parser</title>
<ellipse fill="none" stroke="black" cx="540.25" cy="-361.7" rx="88.21" ry="50.2"/>
<text text-anchor="middle" x="540.25" y="-379.9" font-family="Times New Roman,serif" font-size="14.00">Parser</text>
<text text-anchor="middle" x="540.25" y="-364.15" font-family="Times New Roman,serif" font-size="14.00">Input: &quot;a b c $&quot;</text>
<text text-anchor="middle" x="540.25" y="-348.4" font-family="Times New Roman,serif" font-size="14.00">Location: 6 (&#39;$&#39;)</text>
<text text-anchor="middle" x="540.25" y="-332.65" font-family="Times New Roman,serif" font-size="14.00">Step 29: Expanding</text>
</g>
<!-- todoLists -->
<g id="node2" class="node">
<title>todoLists</title>
<polygon fill="none" stroke="black" points="0,-223.25 0,-259.25 404.5,-259.25 404.5,-223.25 0,-223.25"/>
<text text-anchor="middle" x="11.38" y="-235.82" font-family="Times New Roman,serif" font-size="14.00">0</text>
<polyline fill="none" stroke="black" points="22.75,-223.25 22.75,-259.25"/>
<text text-anchor="middle" x="34.12" y="-235.82" font-family="Times New Roman,serif" font-size="14.00">1</text>
<polyline fill="none" stroke="black" points="45.5,-223.25 45.5,-259.25"/>
<text text-anchor="middle" x="56.88" y="-235.82" font-family="Times New Roman,serif" font-size="14.00">2</text>
<polyline fill="none" stroke="black" points="68.25,-223.25 68.25,-259.25"/>
<text text-anchor="middle" x="79.62" y="-235.82" font-family="Times New Roman,serif" font-size="14.00">3</text>
<polyline fill="none" stroke="black" points="91,-223.25 91,-259.25"/>
<text text-anchor="middle" x="102.38" y="-235.82" font-family="Times New Roman,serif" font-size="14.00">4</text>
<polyline fill="none" stroke="black" points="113.75,-223.25 113.75,-259.25"/>
<text text-anchor="middle" x="125.12" y="-235.82" font-family="Times New Roman,serif" font-size="14.00">5</text>
<polyline fill="none" stroke="black" points="136.5,-223.25 136.5,-259.25"/>
<text text-anchor="middle" x="147.88" y="-235.82" font-family="Times New Roman,serif" font-size="14.00">6</text>
<polyline fill="none" stroke="black" points="159.25,-223.25 159.25,-259.25"/>
<text text-anchor="middle" x="170.62" y="-235.82" font-family="Times New Roman,serif" font-size="14.00">7</text>
<polyline fill="none" stroke="black" points="182,-223.25 182,-259.25"/>
<text text-anchor="middle" x="193.38" y="-235.82" font-family="Times New Roman,serif" font-size="14.00">8</text>
<polyline fill="none" stroke="black" points="204.75,-223.25 204.75,-259.25"/>
<text text-anchor="middle" x="216.12" y="-235.82" font-family="Times New Roman,serif" font-size="14.00">9</text>
<polyline fill="none" stroke="black" points="227.5,-223.25 227.5,-259.25"/>
<text text-anchor="middle" x="242.25" y="-235.82" font-family="Times New Roman,serif" font-size="14.00">10</text>
<polyline fill="none" stroke="black" points="257,-223.25 257,-259.25"/>
<text text-anchor="middle" x="271.75" y="-235.82" font-family="Times New Roman,serif" font-size="14.00">11</text>
<polyline fill="none" stroke="black" points="286.5,-223.25 286.5,-259.25"/>
<text text-anchor="middle" x="301.25" y="-235.82" font-family="Times New Roman,serif" font-size="14.00">12</text>
<polyline fill="none" stroke="black" points="316,-223.25 316,-259.25"/>
<text text-anchor="middle" x="330.75" y="-235.82" font-family="Times New Roman,serif" font-size="14.00">13</text>
<polyline fill="none" stroke="black" points="345.5,-223.25 345.5,-259.25"/>
<text text-anchor="middle" x="360.25" y="-235.82" font-family="Times New Roman,serif" font-size="14.00">14</text>
<polyline fill="none" stroke="black" points="375,-223.25 375,-259.25"/>
<text text-anchor="middle" x="389.75" y="-235.82" font-family="Times New Roman,serif" font-size="14.00">15</text>
</g>
<!-- Parser&#45;&gt;todoLists -->
<g id="edge1" class="edge">
<title>Parser&#45;&gt;todoLists</title>
<path fill="none" stroke="black" d="M465.66,-334.56C404.65,-313.18 319.49,-283.34 262.69,-263.43"/>
<polygon fill="black" stroke="black" points="264.1,-260.21 253.51,-260.21 261.79,-266.82 264.1,-260.21"/>
<text text-anchor="middle" x="367.12" y="-280.2" font-family="Times New Roman,serif" font-size="14.00">todo lists</text>
</g>
<!-- stacksToExpand -->
<g id="node5" class="node">
<title>stacksToExpand</title>
<polygon fill="none" stroke="red" points="422.25,-223.25 422.25,-259.25 476.25,-259.25 476.25,-223.25 422.25,-223.25"/>
<text text-anchor="middle" x="449.12" y="-235.82" font-family="Times New Roman,serif" font-size="14.00">0</text>
</g>
<!-- Parser&#45;&gt;stacksToExpand -->
<g id="edge4" class="edge">
<title>Parser&#45;&gt;stacksToExpand</title>
<path fill="none" stroke="black" d="M473.54,-328.38C460.77,-318.98 449.1,-307.41 441.75,-293.5 438.02,-286.45 437.78,-278.13 439.05,-270.27"/>
<polygon fill="black" stroke="black" points="442.4,-271.3 441.41,-260.75 435.61,-269.62 442.4,-271.3"/>
<text text-anchor="middle" x="489.5" y="-280.2" font-family="Times New Roman,serif" font-size="14.00">stacks to expand</text>
</g>
<!-- terminalsToReduce -->
<g id="node6" class="node">
<title>terminalsToReduce</title>
<polygon fill="none" stroke="black" points="513.25,-223.25 513.25,-259.25 567.25,-259.25 567.25,-223.25 513.25,-223.25"/>
<text text-anchor="middle" x="540.12" y="-235.82" font-family="Times New Roman,serif" font-size="14.00"> </text>
</g>
<!-- Parser&#45;&gt;terminalsToReduce -->
<g id="edge5" class="edge">
<title>Parser&#45;&gt;terminalsToReduce</title>
<path fill="none" stroke="black" d="M540.25,-311.15C540.25,-297.36 540.25,-282.85 540.25,-270.73"/>
<polygon fill="black" stroke="black" points="543.75,-271.02 540.25,-261.02 536.75,-271.02 543.75,-271.02"/>
<text text-anchor="middle" x="593.12" y="-280.2" font-family="Times New Roman,serif" font-size="14.00">terminals to reduce</text>
</g>
<!-- nonTerminalsToReduce -->
<g id="node7" class="node">
<title>nonTerminalsToReduce</title>
<polygon fill="none" stroke="black" points="642.25,-223.25 642.25,-259.25 696.25,-259.25 696.25,-223.25 642.25,-223.25"/>
<text text-anchor="middle" x="669.12" y="-235.82" font-family="Times New Roman,serif" font-size="14.00"> </text>
</g>
<!-- Parser&#45;&gt;nonTerminalsToReduce -->
<g id="edge6" class="edge">
<title>Parser&#45;&gt;nonTerminalsToReduce</title>
<path fill="none" stroke="black" d="M606.26,-327.99C621.11,-318.39 635.84,-306.83 647.25,-293.5 653.05,-286.72 657.52,-278.18 660.88,-270.03"/>
<polygon fill="black" stroke="black" points="664.11,-271.37 664.25,-260.78 657.54,-268.97 664.11,-271.37"/>
<text text-anchor="middle" x="721.88" y="-280.2" font-family="Times New Roman,serif" font-size="14.00">non&#45;terminals to reduce</text>
</g>
<!-- error -->
<g id="node12" class="node">
<title>error</title>
<ellipse fill="none" stroke="black" cx="823.25" cy="-241.25" rx="34.1" ry="18"/>
<text text-anchor="middle" x="823.25" y="-235.82" font-family="Times New Roman,serif" font-size="14.00">Errors</text>
</g>
<!-- Parser&#45;&gt;error -->
<g id="edge7" class="edge">
<title>Parser&#45;&gt;error</title>
<path fill="none" stroke="black" d="M627.66,-353.38C679.38,-345.36 743.84,-328.58 791.25,-293.5 799.61,-287.31 806.3,-278.22 811.35,-269.41"/>
<polygon fill="black" stroke="black" points="814.36,-271.22 815.84,-260.73 808.14,-268 814.36,-271.22"/>
<text text-anchor="middle" x="842.75" y="-280.2" font-family="Times New Roman,serif" font-size="14.00">error tracking</text>
</g>
<!-- 37 -->
<g id="node3" class="node">
<title>37</title>
<ellipse fill="none" stroke="black" cx="449.25" cy="-131.93" rx="116.32" ry="39.07"/>
<text text-anchor="middle" x="449.25" y="-142.25" font-family="Times New Roman,serif" font-size="14.00">NonTerminal: End</text>
<text text-anchor="middle" x="449.25" y="-126.5" font-family="Times New Roman,serif" font-size="14.00">.2@6</text>
<text text-anchor="middle" x="449.25" y="-110.75" font-family="Times New Roman,serif" font-size="14.00">in: &#39;S &#45;&gt; ABC Layout End&#39;</text>
</g>
<!-- &#45;1 -->
<g id="node4" class="node">
<title>&#45;1</title>
<ellipse fill="none" stroke="black" cx="449.25" cy="-27.93" rx="73.36" ry="27.93"/>
<text text-anchor="middle" x="449.25" y="-30.38" font-family="Times New Roman,serif" font-size="14.00">NonTerminal: S</text>
<text text-anchor="middle" x="449.25" y="-14.63" font-family="Times New Roman,serif" font-size="14.00">.0@&#45;1</text>
</g>
<!-- 37&#45;&gt;&#45;1 -->
<g id="edge2" class="edge">
<title>37&#45;&gt;&#45;1</title>
<path fill="none" stroke="black" d="M449.25,-92.37C449.25,-84.26 449.25,-75.7 449.25,-67.58"/>
<polygon fill="black" stroke="black" points="452.75,-67.63 449.25,-57.63 445.75,-67.63 452.75,-67.63"/>
</g>
<!-- stacksToExpand&#45;&gt;37 -->
<g id="edge3" class="edge">
<title>stacksToExpand:0&#45;&gt;37</title>
<path fill="none" stroke="black" d="M449.15,-222.87C449.16,-211.73 449.18,-196.92 449.19,-182.55"/>
<polygon fill="black" stroke="black" points="452.69,-182.71 449.2,-172.71 445.69,-182.7 452.69,-182.71"/>
</g>
<!-- unexpandableNodes -->
<g id="node8" class="node">
<title>unexpandableNodes</title>
<polygon fill="none" stroke="black" points="592.25,-113.93 592.25,-149.93 646.25,-149.93 646.25,-113.93 592.25,-113.93"/>
<text text-anchor="middle" x="619.12" y="-126.5" font-family="Times New Roman,serif" font-size="14.00"> </text>
</g>
<!-- unmatchableLeafNodes -->
<g id="node9" class="node">
<title>unmatchableLeafNodes</title>
<polygon fill="none" stroke="black" points="692.25,-113.93 692.25,-149.93 746.25,-149.93 746.25,-113.93 692.25,-113.93"/>
<text text-anchor="middle" x="719.12" y="-126.5" font-family="Times New Roman,serif" font-size="14.00"> </text>
</g>
<!-- unmatchableMidProductionNodes -->
<g id="node10" class="node">
<title>unmatchableMidProductionNodes</title>
<polygon fill="none" stroke="black" points="814.25,-113.93 814.25,-149.93 868.25,-149.93 868.25,-113.93 814.25,-113.93"/>
<text text-anchor="middle" x="841.12" y="-126.5" font-family="Times New Roman,serif" font-size="14.00"> </text>
</g>
<!-- filteredNodes -->
<g id="node11" class="node">
<title>filteredNodes</title>
<polygon fill="none" stroke="black" points="963.25,-113.93 963.25,-149.93 1017.25,-149.93 1017.25,-113.93 963.25,-113.93"/>
<text text-anchor="middle" x="990.12" y="-126.5" font-family="Times New Roman,serif" font-size="14.00"> </text>
</g>
<!-- error&#45;&gt;unexpandableNodes -->
<g id="edge8" class="edge">
<title>error&#45;&gt;unexpandableNodes</title>
<path fill="none" stroke="black" d="M790.5,-235.91C740.26,-228.97 648.78,-215.1 637.75,-204.75 626.05,-193.76 621.36,-176.44 619.62,-161.56"/>
<polygon fill="black" stroke="black" points="623.13,-161.55 618.9,-151.83 616.15,-162.06 623.13,-161.55"/>
<text text-anchor="middle" x="675.5" y="-191.45" font-family="Times New Roman,serif" font-size="14.00">unexpandable</text>
</g>
<!-- error&#45;&gt;unmatchableLeafNodes -->
<g id="edge9" class="edge">
<title>error&#45;&gt;unmatchableLeafNodes</title>
<path fill="none" stroke="black" d="M789.6,-236.96C768.01,-232.98 741.28,-224.18 726.25,-204.75 716.91,-192.67 714.87,-175.82 715.31,-161.47"/>
<polygon fill="black" stroke="black" points="718.78,-161.91 716.03,-151.68 711.8,-161.39 718.78,-161.91"/>
<text text-anchor="middle" x="775.75" y="-191.45" font-family="Times New Roman,serif" font-size="14.00">unmatchable leafs</text>
</g>
<!-- error&#45;&gt;unmatchableMidProductionNodes -->
<g id="edge10" class="edge">
<title>error&#45;&gt;unmatchableMidProductionNodes</title>
<path fill="none" stroke="black" d="M826.14,-223C828.92,-206.42 833.18,-181.05 836.47,-161.45"/>
<polygon fill="black" stroke="black" points="839.91,-162.06 838.11,-151.62 833.01,-160.9 839.91,-162.06"/>
<text text-anchor="middle" x="894.25" y="-191.45" font-family="Times New Roman,serif" font-size="14.00">unmatchable mid&#45;prod</text>
</g>
<!-- error&#45;&gt;filteredNodes -->
<g id="edge11" class="edge">
<title>error&#45;&gt;filteredNodes</title>
<path fill="none" stroke="black" d="M857.57,-239.81C888.19,-237.65 932.5,-229.93 961.25,-204.75 973.98,-193.59 981.21,-176.04 985.26,-161.08"/>
<polygon fill="black" stroke="black" points="988.57,-162.3 987.44,-151.76 981.75,-160.71 988.57,-162.3"/>
<text text-anchor="middle" x="991.38" y="-191.45" font-family="Times New Roman,serif" font-size="14.00">filtered</text>
</g>
</g>
</svg>
