<?xml version="1.0" encoding="UTF-8" standalone="no"?>
<!DOCTYPE svg PUBLIC "-//W3C//DTD SVG 1.1//EN"
 "http://www.w3.org/Graphics/SVG/1.1/DTD/svg11.dtd">
<!-- Generated by graphviz version 12.0.0 (20240704.0754)
 -->
<!-- Title: Parser Pages: 1 -->
<svg width="1240pt" height="624pt"
 viewBox="0.00 0.00 1240.32 623.79" xmlns="http://www.w3.org/2000/svg" xmlns:xlink="http://www.w3.org/1999/xlink">
<g id="graph0" class="graph" transform="scale(1 1) rotate(0) translate(4 619.79)">
<title>Parser</title>
<polygon fill="white" stroke="none" points="-4,4 -4,-619.79 1236.32,-619.79 1236.32,4 -4,4"/>
<!-- Parser -->
<g id="node1" class="node">
<title>Parser</title>
<ellipse fill="none" stroke="black" cx="712.32" cy="-565.59" rx="143.37" ry="50.2"/>
<text text-anchor="middle" x="712.32" y="-583.79" font-family="Times New Roman,serif" font-size="14.00">Parser</text>
<text text-anchor="middle" x="712.32" y="-568.04" font-family="Times New Roman,serif" font-size="14.00">Input: &quot;a b c $&quot;</text>
<text text-anchor="middle" x="712.32" y="-552.29" font-family="Times New Roman,serif" font-size="14.00">Location: 6 (&#39;$&#39;)</text>
<text text-anchor="middle" x="712.32" y="-536.54" font-family="Times New Roman,serif" font-size="14.00">Step 30: Finding stacks to reduce</text>
</g>
<!-- todoLists -->
<g id="node7" class="node">
<title>todoLists</title>
<polygon fill="none" stroke="red" points="145.07,-427.13 145.07,-463.13 549.57,-463.13 549.57,-427.13 145.07,-427.13"/>
<text text-anchor="middle" x="156.44" y="-439.71" font-family="Times New Roman,serif" font-size="14.00">0</text>
<polyline fill="none" stroke="red" points="167.82,-427.13 167.82,-463.13"/>
<text text-anchor="middle" x="179.19" y="-439.71" font-family="Times New Roman,serif" font-size="14.00">1</text>
<polyline fill="none" stroke="red" points="190.57,-427.13 190.57,-463.13"/>
<text text-anchor="middle" x="201.94" y="-439.71" font-family="Times New Roman,serif" font-size="14.00">2</text>
<polyline fill="none" stroke="red" points="213.32,-427.13 213.32,-463.13"/>
<text text-anchor="middle" x="224.69" y="-439.71" font-family="Times New Roman,serif" font-size="14.00">3</text>
<polyline fill="none" stroke="red" points="236.07,-427.13 236.07,-463.13"/>
<text text-anchor="middle" x="247.44" y="-439.71" font-family="Times New Roman,serif" font-size="14.00">4</text>
<polyline fill="none" stroke="red" points="258.82,-427.13 258.82,-463.13"/>
<text text-anchor="middle" x="270.19" y="-439.71" font-family="Times New Roman,serif" font-size="14.00">5</text>
<polyline fill="none" stroke="red" points="281.57,-427.13 281.57,-463.13"/>
<text text-anchor="middle" x="292.94" y="-439.71" font-family="Times New Roman,serif" font-size="14.00">6</text>
<polyline fill="none" stroke="red" points="304.32,-427.13 304.32,-463.13"/>
<text text-anchor="middle" x="315.69" y="-439.71" font-family="Times New Roman,serif" font-size="14.00">7</text>
<polyline fill="none" stroke="red" points="327.07,-427.13 327.07,-463.13"/>
<text text-anchor="middle" x="338.44" y="-439.71" font-family="Times New Roman,serif" font-size="14.00">8</text>
<polyline fill="none" stroke="red" points="349.82,-427.13 349.82,-463.13"/>
<text text-anchor="middle" x="361.19" y="-439.71" font-family="Times New Roman,serif" font-size="14.00">9</text>
<polyline fill="none" stroke="red" points="372.57,-427.13 372.57,-463.13"/>
<text text-anchor="middle" x="387.32" y="-439.71" font-family="Times New Roman,serif" font-size="14.00">10</text>
<polyline fill="none" stroke="red" points="402.07,-427.13 402.07,-463.13"/>
<text text-anchor="middle" x="416.82" y="-439.71" font-family="Times New Roman,serif" font-size="14.00">11</text>
<polyline fill="none" stroke="red" points="431.57,-427.13 431.57,-463.13"/>
<text text-anchor="middle" x="446.32" y="-439.71" font-family="Times New Roman,serif" font-size="14.00">12</text>
<polyline fill="none" stroke="red" points="461.07,-427.13 461.07,-463.13"/>
<text text-anchor="middle" x="475.82" y="-439.71" font-family="Times New Roman,serif" font-size="14.00">13</text>
<polyline fill="none" stroke="red" points="490.57,-427.13 490.57,-463.13"/>
<text text-anchor="middle" x="505.32" y="-439.71" font-family="Times New Roman,serif" font-size="14.00">14</text>
<polyline fill="none" stroke="red" points="520.07,-427.13 520.07,-463.13"/>
<text text-anchor="middle" x="534.82" y="-439.71" font-family="Times New Roman,serif" font-size="14.00">15</text>
</g>
<!-- Parser&#45;&gt;todoLists -->
<g id="edge6" class="edge">
<title>Parser&#45;&gt;todoLists</title>
<path fill="none" stroke="black" d="M608.21,-530.8C545.03,-510.3 466.38,-484.77 412.04,-467.14"/>
<polygon fill="black" stroke="black" points="413.2,-463.83 402.61,-464.07 411.04,-470.49 413.2,-463.83"/>
<text text-anchor="middle" x="523.19" y="-484.08" font-family="Times New Roman,serif" font-size="14.00">todo lists</text>
</g>
<!-- stacksToExpand -->
<g id="node8" class="node">
<title>stacksToExpand</title>
<polygon fill="none" stroke="black" points="567.32,-427.13 567.32,-463.13 621.32,-463.13 621.32,-427.13 567.32,-427.13"/>
<text text-anchor="middle" x="594.19" y="-439.71" font-family="Times New Roman,serif" font-size="14.00"> </text>
</g>
<!-- Parser&#45;&gt;stacksToExpand -->
<g id="edge7" class="edge">
<title>Parser&#45;&gt;stacksToExpand</title>
<path fill="none" stroke="black" d="M639.04,-522.29C629.75,-514.82 621,-506.48 613.82,-497.38 608.53,-490.68 604.55,-482.38 601.62,-474.42"/>
<polygon fill="black" stroke="black" points="605,-473.5 598.6,-465.05 598.33,-475.64 605,-473.5"/>
<text text-anchor="middle" x="661.57" y="-484.08" font-family="Times New Roman,serif" font-size="14.00">stacks to expand</text>
</g>
<!-- terminalsToReduce -->
<g id="node9" class="node">
<title>terminalsToReduce</title>
<polygon fill="none" stroke="black" points="685.32,-427.13 685.32,-463.13 739.32,-463.13 739.32,-427.13 685.32,-427.13"/>
<text text-anchor="middle" x="712.19" y="-439.71" font-family="Times New Roman,serif" font-size="14.00"> </text>
</g>
<!-- Parser&#45;&gt;terminalsToReduce -->
<g id="edge8" class="edge">
<title>Parser&#45;&gt;terminalsToReduce</title>
<path fill="none" stroke="black" d="M712.32,-515.04C712.32,-501.25 712.32,-486.74 712.32,-474.61"/>
<polygon fill="black" stroke="black" points="715.82,-474.91 712.32,-464.91 708.82,-474.91 715.82,-474.91"/>
<text text-anchor="middle" x="765.19" y="-484.08" font-family="Times New Roman,serif" font-size="14.00">terminals to reduce</text>
</g>
<!-- nonTerminalsToReduce -->
<g id="node10" class="node">
<title>nonTerminalsToReduce</title>
<polygon fill="none" stroke="black" points="814.32,-427.13 814.32,-463.13 868.32,-463.13 868.32,-427.13 814.32,-427.13"/>
<text text-anchor="middle" x="841.19" y="-439.71" font-family="Times New Roman,serif" font-size="14.00"> </text>
</g>
<!-- Parser&#45;&gt;nonTerminalsToReduce -->
<g id="edge9" class="edge">
<title>Parser&#45;&gt;nonTerminalsToReduce</title>
<path fill="none" stroke="black" d="M790.76,-523.32C801.2,-515.64 811.12,-506.97 819.32,-497.38 825.12,-490.6 829.59,-482.07 832.94,-473.92"/>
<polygon fill="black" stroke="black" points="836.18,-475.26 836.32,-464.66 829.61,-472.86 836.18,-475.26"/>
<text text-anchor="middle" x="894.94" y="-484.08" font-family="Times New Roman,serif" font-size="14.00">non&#45;terminals to reduce</text>
</g>
<!-- error -->
<g id="node16" class="node">
<title>error</title>
<ellipse fill="none" stroke="black" cx="995.32" cy="-445.13" rx="34.1" ry="18"/>
<text text-anchor="middle" x="995.32" y="-439.71" font-family="Times New Roman,serif" font-size="14.00">Errors</text>
</g>
<!-- Parser&#45;&gt;error -->
<g id="edge11" class="edge">
<title>Parser&#45;&gt;error</title>
<path fill="none" stroke="black" d="M847.42,-548.36C887.94,-538.52 930.55,-522.72 964.32,-497.38 972.57,-491.19 979.08,-482.1 983.96,-473.3"/>
<polygon fill="black" stroke="black" points="986.95,-475.14 988.27,-464.63 980.69,-472.02 986.95,-475.14"/>
<text text-anchor="middle" x="1015.82" y="-484.08" font-family="Times New Roman,serif" font-size="14.00">error tracking</text>
</g>
<!-- todo&#45;2 -->
<g id="node2" class="node">
<title>todo&#45;2</title>
<polygon fill="none" stroke="black" points="175.32,-338.38 175.32,-374.38 229.32,-374.38 229.32,-338.38 175.32,-338.38"/>
<text text-anchor="middle" x="202.19" y="-350.96" font-family="Times New Roman,serif" font-size="14.00">0</text>
</g>
<!-- 86 -->
<g id="node3" class="node">
<title>86</title>
<ellipse fill="none" stroke="black" cx="116.32" cy="-247.06" rx="62.23" ry="39.07"/>
<text text-anchor="middle" x="116.32" y="-257.39" font-family="Times New Roman,serif" font-size="14.00">Literal: </text>
<text text-anchor="middle" x="116.32" y="-241.64" font-family="Times New Roman,serif" font-size="14.00">.0@6</text>
<text text-anchor="middle" x="116.32" y="-225.89" font-family="Times New Roman,serif" font-size="14.00">in: &#39;End &#45;&gt; $&#39;</text>
</g>
<!-- todo&#45;2&#45;&gt;86 -->
<g id="edge3" class="edge">
<title>todo&#45;2:sw&#45;&gt;86</title>
<path fill="none" stroke="black" d="M175.32,-337.88C162.55,-325.11 151,-309.16 141.58,-294.25"/>
<polygon fill="black" stroke="black" points="144.7,-292.65 136.49,-285.95 138.73,-296.3 144.7,-292.65"/>
<text text-anchor="middle" x="174.07" y="-306.58" font-family="Times New Roman,serif" font-size="14.00">Stack</text>
</g>
<!-- 1401095299 -->
<g id="node6" class="node">
<title>1401095299</title>
<polygon fill="none" stroke="black" points="301.89,-239.61 301.89,-254.52 271.09,-265.06 227.54,-265.06 196.75,-254.52 196.75,-239.61 227.54,-229.06 271.09,-229.06 301.89,-239.61"/>
<text text-anchor="middle" x="249.32" y="-241.64" font-family="Times New Roman,serif" font-size="14.00">Literal &quot;$&quot;</text>
</g>
<!-- todo&#45;2&#45;&gt;1401095299 -->
<g id="edge4" class="edge">
<title>todo&#45;2:se&#45;&gt;1401095299</title>
<path fill="none" stroke="black" d="M229.07,-337.88C244.89,-322.06 249.46,-296.7 250.36,-276.95"/>
<polygon fill="black" stroke="black" points="253.86,-277.07 250.49,-267.03 246.86,-276.98 253.86,-277.07"/>
<text text-anchor="middle" x="261.69" y="-306.58" font-family="Times New Roman,serif" font-size="14.00">Node</text>
</g>
<!-- 37 -->
<g id="node4" class="node">
<title>37</title>
<ellipse fill="none" stroke="black" cx="116.32" cy="-131.93" rx="116.32" ry="39.07"/>
<text text-anchor="middle" x="116.32" y="-142.25" font-family="Times New Roman,serif" font-size="14.00">NonTerminal: End</text>
<text text-anchor="middle" x="116.32" y="-126.5" font-family="Times New Roman,serif" font-size="14.00">.2@6</text>
<text text-anchor="middle" x="116.32" y="-110.75" font-family="Times New Roman,serif" font-size="14.00">in: &#39;S &#45;&gt; ABC Layout End&#39;</text>
</g>
<!-- 86&#45;&gt;37 -->
<g id="edge2" class="edge">
<title>86&#45;&gt;37</title>
<path fill="none" stroke="black" d="M116.32,-207.76C116.32,-199.65 116.32,-190.98 116.32,-182.52"/>
<polygon fill="black" stroke="black" points="119.82,-182.71 116.32,-172.71 112.82,-182.71 119.82,-182.71"/>
</g>
<!-- &#45;1 -->
<g id="node5" class="node">
<title>&#45;1</title>
<ellipse fill="none" stroke="black" cx="116.32" cy="-27.93" rx="73.36" ry="27.93"/>
<text text-anchor="middle" x="116.32" y="-30.38" font-family="Times New Roman,serif" font-size="14.00">NonTerminal: S</text>
<text text-anchor="middle" x="116.32" y="-14.63" font-family="Times New Roman,serif" font-size="14.00">.0@&#45;1</text>
</g>
<!-- 37&#45;&gt;&#45;1 -->
<g id="edge1" class="edge">
<title>37&#45;&gt;&#45;1</title>
<path fill="none" stroke="black" d="M116.32,-92.37C116.32,-84.26 116.32,-75.7 116.32,-67.58"/>
<polygon fill="black" stroke="black" points="119.82,-67.63 116.32,-57.63 112.82,-67.63 119.82,-67.63"/>
</g>
<!-- todoLists&#45;&gt;todo&#45;2 -->
<g id="edge5" class="edge">
<title>todoLists:2&#45;&gt;todo&#45;2</title>
<path fill="none" stroke="black" d="M201.94,-426.63C201.94,-413.24 202.02,-398.39 202.1,-385.89"/>
<polygon fill="black" stroke="black" points="205.59,-386.28 202.16,-376.26 198.59,-386.23 205.59,-386.28"/>
</g>
<!-- unexpandableNodes -->
<g id="node11" class="node">
<title>unexpandableNodes</title>
<polygon fill="none" stroke="black" points="807.32,-338.38 807.32,-374.38 861.32,-374.38 861.32,-338.38 807.32,-338.38"/>
<text text-anchor="middle" x="834.19" y="-350.96" font-family="Times New Roman,serif" font-size="14.00"> </text>
</g>
<!-- 78 -->
<g id="node12" class="node">
<title>78</title>
<ellipse fill="none" stroke="black" cx="934.32" cy="-247.06" rx="35.71" ry="27.93"/>
<text text-anchor="middle" x="934.32" y="-249.51" font-family="Times New Roman,serif" font-size="14.00">Char: </text>
<text text-anchor="middle" x="934.32" y="-233.76" font-family="Times New Roman,serif" font-size="14.00">.0@&#45;1</text>
</g>
<!-- unmatchableLeafNodes -->
<g id="node13" class="node">
<title>unmatchableLeafNodes</title>
<polygon fill="none" stroke="black" points="907.32,-338.38 907.32,-374.38 961.32,-374.38 961.32,-338.38 907.32,-338.38"/>
<text text-anchor="middle" x="934.19" y="-350.96" font-family="Times New Roman,serif" font-size="14.00">0</text>
</g>
<!-- unmatchableLeafNodes&#45;&gt;78 -->
<g id="edge10" class="edge">
<title>unmatchableLeafNodes:0&#45;&gt;78</title>
<path fill="none" stroke="black" d="M934.22,-338.01C934.23,-323.95 934.25,-304.06 934.27,-286.56"/>
<polygon fill="black" stroke="black" points="937.77,-287.01 934.29,-277 930.77,-287 937.77,-287.01"/>
</g>
<!-- unmatchableMidProductionNodes -->
<g id="node14" class="node">
<title>unmatchableMidProductionNodes</title>
<polygon fill="none" stroke="black" points="1029.32,-338.38 1029.32,-374.38 1083.32,-374.38 1083.32,-338.38 1029.32,-338.38"/>
<text text-anchor="middle" x="1056.19" y="-350.96" font-family="Times New Roman,serif" font-size="14.00"> </text>
</g>
<!-- filteredNodes -->
<g id="node15" class="node">
<title>filteredNodes</title>
<polygon fill="none" stroke="black" points="1178.32,-338.38 1178.32,-374.38 1232.32,-374.38 1232.32,-338.38 1178.32,-338.38"/>
<text text-anchor="middle" x="1205.19" y="-350.96" font-family="Times New Roman,serif" font-size="14.00"> </text>
</g>
<!-- error&#45;&gt;unexpandableNodes -->
<g id="edge12" class="edge">
<title>error&#45;&gt;unexpandableNodes</title>
<path fill="none" stroke="black" d="M962.19,-439.9C924.42,-434.43 865.82,-423.78 849.82,-408.63 843.51,-402.66 839.74,-394.21 837.5,-385.89"/>
<polygon fill="black" stroke="black" points="840.99,-385.48 835.59,-376.36 834.12,-386.85 840.99,-385.48"/>
<text text-anchor="middle" x="888.57" y="-395.33" font-family="Times New Roman,serif" font-size="14.00">unexpandable</text>
</g>
<!-- error&#45;&gt;unmatchableLeafNodes -->
<g id="edge13" class="edge">
<title>error&#45;&gt;unmatchableLeafNodes</title>
<path fill="none" stroke="black" d="M967.15,-434.63C955.15,-429.04 942.33,-420.66 935.32,-408.63 931.39,-401.89 930.03,-393.76 929.95,-385.98"/>
<polygon fill="black" stroke="black" points="933.43,-386.37 930.54,-376.17 926.44,-385.95 933.43,-386.37"/>
<text text-anchor="middle" x="984.82" y="-395.33" font-family="Times New Roman,serif" font-size="14.00">unmatchable leafs</text>
</g>
<!-- error&#45;&gt;unmatchableMidProductionNodes -->
<g id="edge14" class="edge">
<title>error&#45;&gt;unmatchableMidProductionNodes</title>
<path fill="none" stroke="black" d="M1014,-429.99C1021.03,-423.98 1028.69,-416.54 1034.32,-408.63 1039.36,-401.56 1043.57,-393.15 1046.91,-385.2"/>
<polygon fill="black" stroke="black" points="1050.17,-386.48 1050.51,-375.89 1043.64,-383.96 1050.17,-386.48"/>
<text text-anchor="middle" x="1105.32" y="-395.33" font-family="Times New Roman,serif" font-size="14.00">unmatchable mid&#45;prod</text>
</g>
<!-- error&#45;&gt;filteredNodes -->
<g id="edge15" class="edge">
<title>error&#45;&gt;filteredNodes</title>
<path fill="none" stroke="black" d="M1029.63,-444.92C1067.67,-444.16 1129.33,-437.94 1172.32,-408.63 1180.99,-402.72 1187.9,-393.7 1193.1,-384.86"/>
<polygon fill="black" stroke="black" points="1196.15,-386.58 1197.73,-376.11 1189.96,-383.31 1196.15,-386.58"/>
<text text-anchor="middle" x="1206.44" y="-395.33" font-family="Times New Roman,serif" font-size="14.00">filtered</text>
</g>
</g>
</svg>
