<?xml version="1.0" encoding="UTF-8" standalone="no"?>
<!DOCTYPE svg PUBLIC "-//W3C//DTD SVG 1.1//EN"
 "http://www.w3.org/Graphics/SVG/1.1/DTD/svg11.dtd">
<!-- Generated by graphviz version 12.0.0 (20240704.0754)
 -->
<!-- Title: Parser Pages: 1 -->
<svg width="1263pt" height="624pt"
 viewBox="0.00 0.00 1263.32 623.79" xmlns="http://www.w3.org/2000/svg" xmlns:xlink="http://www.w3.org/1999/xlink">
<g id="graph0" class="graph" transform="scale(1 1) rotate(0) translate(4 619.79)">
<title>Parser</title>
<polygon fill="white" stroke="none" points="-4,4 -4,-619.79 1259.32,-619.79 1259.32,4 -4,4"/>
<!-- Parser -->
<g id="node1" class="node">
<title>Parser</title>
<ellipse fill="none" stroke="black" cx="735.32" cy="-565.59" rx="135.41" ry="50.2"/>
<text text-anchor="middle" x="735.32" y="-583.79" font-family="Times New Roman,serif" font-size="14.00">Parser</text>
<text text-anchor="middle" x="735.32" y="-568.04" font-family="Times New Roman,serif" font-size="14.00">Input: &quot;a b c $&quot;</text>
<text text-anchor="middle" x="735.32" y="-552.29" font-family="Times New Roman,serif" font-size="14.00">Location: 6 (&#39;$&#39;)</text>
<text text-anchor="middle" x="735.32" y="-536.54" font-family="Times New Roman,serif" font-size="14.00">Step 31: Found stack to reduce</text>
</g>
<!-- todoLists -->
<g id="node7" class="node">
<title>todoLists</title>
<polygon fill="none" stroke="black" points="168.07,-427.13 168.07,-463.13 572.57,-463.13 572.57,-427.13 168.07,-427.13"/>
<text text-anchor="middle" x="179.44" y="-439.71" font-family="Times New Roman,serif" font-size="14.00">0</text>
<polyline fill="none" stroke="black" points="190.82,-427.13 190.82,-463.13"/>
<text text-anchor="middle" x="202.19" y="-439.71" font-family="Times New Roman,serif" font-size="14.00">1</text>
<polyline fill="none" stroke="black" points="213.57,-427.13 213.57,-463.13"/>
<text text-anchor="middle" x="224.94" y="-439.71" font-family="Times New Roman,serif" font-size="14.00">2</text>
<polyline fill="none" stroke="black" points="236.32,-427.13 236.32,-463.13"/>
<text text-anchor="middle" x="247.69" y="-439.71" font-family="Times New Roman,serif" font-size="14.00">3</text>
<polyline fill="none" stroke="black" points="259.07,-427.13 259.07,-463.13"/>
<text text-anchor="middle" x="270.44" y="-439.71" font-family="Times New Roman,serif" font-size="14.00">4</text>
<polyline fill="none" stroke="black" points="281.82,-427.13 281.82,-463.13"/>
<text text-anchor="middle" x="293.19" y="-439.71" font-family="Times New Roman,serif" font-size="14.00">5</text>
<polyline fill="none" stroke="black" points="304.57,-427.13 304.57,-463.13"/>
<text text-anchor="middle" x="315.94" y="-439.71" font-family="Times New Roman,serif" font-size="14.00">6</text>
<polyline fill="none" stroke="black" points="327.32,-427.13 327.32,-463.13"/>
<text text-anchor="middle" x="338.69" y="-439.71" font-family="Times New Roman,serif" font-size="14.00">7</text>
<polyline fill="none" stroke="black" points="350.07,-427.13 350.07,-463.13"/>
<text text-anchor="middle" x="361.44" y="-439.71" font-family="Times New Roman,serif" font-size="14.00">8</text>
<polyline fill="none" stroke="black" points="372.82,-427.13 372.82,-463.13"/>
<text text-anchor="middle" x="384.19" y="-439.71" font-family="Times New Roman,serif" font-size="14.00">9</text>
<polyline fill="none" stroke="black" points="395.57,-427.13 395.57,-463.13"/>
<text text-anchor="middle" x="410.32" y="-439.71" font-family="Times New Roman,serif" font-size="14.00">10</text>
<polyline fill="none" stroke="black" points="425.07,-427.13 425.07,-463.13"/>
<text text-anchor="middle" x="439.82" y="-439.71" font-family="Times New Roman,serif" font-size="14.00">11</text>
<polyline fill="none" stroke="black" points="454.57,-427.13 454.57,-463.13"/>
<text text-anchor="middle" x="469.32" y="-439.71" font-family="Times New Roman,serif" font-size="14.00">12</text>
<polyline fill="none" stroke="black" points="484.07,-427.13 484.07,-463.13"/>
<text text-anchor="middle" x="498.82" y="-439.71" font-family="Times New Roman,serif" font-size="14.00">13</text>
<polyline fill="none" stroke="black" points="513.57,-427.13 513.57,-463.13"/>
<text text-anchor="middle" x="528.32" y="-439.71" font-family="Times New Roman,serif" font-size="14.00">14</text>
<polyline fill="none" stroke="black" points="543.07,-427.13 543.07,-463.13"/>
<text text-anchor="middle" x="557.82" y="-439.71" font-family="Times New Roman,serif" font-size="14.00">15</text>
</g>
<!-- Parser&#45;&gt;todoLists -->
<g id="edge6" class="edge">
<title>Parser&#45;&gt;todoLists</title>
<path fill="none" stroke="black" d="M634.13,-531.75C570.34,-511.05 489.9,-484.94 434.71,-467.03"/>
<polygon fill="black" stroke="black" points="436.05,-463.79 425.46,-464.03 433.89,-470.44 436.05,-463.79"/>
<text text-anchor="middle" x="546.19" y="-484.08" font-family="Times New Roman,serif" font-size="14.00">todo lists</text>
</g>
<!-- stacksToExpand -->
<g id="node8" class="node">
<title>stacksToExpand</title>
<polygon fill="none" stroke="black" points="590.32,-427.13 590.32,-463.13 644.32,-463.13 644.32,-427.13 590.32,-427.13"/>
<text text-anchor="middle" x="617.19" y="-439.71" font-family="Times New Roman,serif" font-size="14.00"> </text>
</g>
<!-- Parser&#45;&gt;stacksToExpand -->
<g id="edge7" class="edge">
<title>Parser&#45;&gt;stacksToExpand</title>
<path fill="none" stroke="black" d="M663.04,-523.09C653.38,-515.42 644.25,-506.81 636.82,-497.38 631.53,-490.68 627.55,-482.38 624.62,-474.42"/>
<polygon fill="black" stroke="black" points="628,-473.5 621.6,-465.05 621.33,-475.64 628,-473.5"/>
<text text-anchor="middle" x="684.57" y="-484.08" font-family="Times New Roman,serif" font-size="14.00">stacks to expand</text>
</g>
<!-- terminalsToReduce -->
<g id="node9" class="node">
<title>terminalsToReduce</title>
<polygon fill="none" stroke="black" points="708.32,-427.13 708.32,-463.13 762.32,-463.13 762.32,-427.13 708.32,-427.13"/>
<text text-anchor="middle" x="735.19" y="-439.71" font-family="Times New Roman,serif" font-size="14.00"> </text>
</g>
<!-- Parser&#45;&gt;terminalsToReduce -->
<g id="edge8" class="edge">
<title>Parser&#45;&gt;terminalsToReduce</title>
<path fill="none" stroke="black" d="M735.32,-515.04C735.32,-501.25 735.32,-486.74 735.32,-474.61"/>
<polygon fill="black" stroke="black" points="738.82,-474.91 735.32,-464.91 731.82,-474.91 738.82,-474.91"/>
<text text-anchor="middle" x="788.19" y="-484.08" font-family="Times New Roman,serif" font-size="14.00">terminals to reduce</text>
</g>
<!-- nonTerminalsToReduce -->
<g id="node10" class="node">
<title>nonTerminalsToReduce</title>
<polygon fill="none" stroke="black" points="837.32,-427.13 837.32,-463.13 891.32,-463.13 891.32,-427.13 837.32,-427.13"/>
<text text-anchor="middle" x="864.19" y="-439.71" font-family="Times New Roman,serif" font-size="14.00"> </text>
</g>
<!-- Parser&#45;&gt;nonTerminalsToReduce -->
<g id="edge9" class="edge">
<title>Parser&#45;&gt;nonTerminalsToReduce</title>
<path fill="none" stroke="black" d="M812.67,-524.12C823.51,-516.24 833.83,-507.3 842.32,-497.38 848.12,-490.6 852.59,-482.07 855.94,-473.92"/>
<polygon fill="black" stroke="black" points="859.18,-475.26 859.32,-464.66 852.61,-472.86 859.18,-475.26"/>
<text text-anchor="middle" x="917.94" y="-484.08" font-family="Times New Roman,serif" font-size="14.00">non&#45;terminals to reduce</text>
</g>
<!-- error -->
<g id="node16" class="node">
<title>error</title>
<ellipse fill="none" stroke="black" cx="1018.32" cy="-445.13" rx="34.1" ry="18"/>
<text text-anchor="middle" x="1018.32" y="-439.71" font-family="Times New Roman,serif" font-size="14.00">Errors</text>
</g>
<!-- Parser&#45;&gt;error -->
<g id="edge11" class="edge">
<title>Parser&#45;&gt;error</title>
<path fill="none" stroke="black" d="M864.24,-549.82C906.58,-540.1 951.83,-524.01 987.32,-497.38 995.57,-491.19 1002.08,-482.1 1006.96,-473.3"/>
<polygon fill="black" stroke="black" points="1009.95,-475.14 1011.27,-464.63 1003.69,-472.02 1009.95,-475.14"/>
<text text-anchor="middle" x="1038.82" y="-484.08" font-family="Times New Roman,serif" font-size="14.00">error tracking</text>
</g>
<!-- todo&#45;1 -->
<g id="node2" class="node">
<title>todo&#45;1</title>
<polygon fill="none" stroke="red" points="175.32,-338.38 175.32,-374.38 229.32,-374.38 229.32,-338.38 175.32,-338.38"/>
<text text-anchor="middle" x="202.19" y="-350.96" font-family="Times New Roman,serif" font-size="14.00">0</text>
</g>
<!-- 86 -->
<g id="node3" class="node">
<title>86</title>
<ellipse fill="none" stroke="black" cx="116.32" cy="-247.06" rx="62.23" ry="39.07"/>
<text text-anchor="middle" x="116.32" y="-257.39" font-family="Times New Roman,serif" font-size="14.00">Literal: </text>
<text text-anchor="middle" x="116.32" y="-241.64" font-family="Times New Roman,serif" font-size="14.00">.0@6</text>
<text text-anchor="middle" x="116.32" y="-225.89" font-family="Times New Roman,serif" font-size="14.00">in: &#39;End &#45;&gt; $&#39;</text>
</g>
<!-- todo&#45;1&#45;&gt;86 -->
<g id="edge3" class="edge">
<title>todo&#45;1:sw&#45;&gt;86</title>
<path fill="none" stroke="black" d="M175.32,-337.88C162.55,-325.11 151,-309.16 141.58,-294.25"/>
<polygon fill="black" stroke="black" points="144.7,-292.65 136.49,-285.95 138.73,-296.3 144.7,-292.65"/>
<text text-anchor="middle" x="174.07" y="-306.58" font-family="Times New Roman,serif" font-size="14.00">Stack</text>
</g>
<!-- 1401095299 -->
<g id="node6" class="node">
<title>1401095299</title>
<polygon fill="none" stroke="black" points="301.89,-239.61 301.89,-254.52 271.09,-265.06 227.54,-265.06 196.75,-254.52 196.75,-239.61 227.54,-229.06 271.09,-229.06 301.89,-239.61"/>
<text text-anchor="middle" x="249.32" y="-241.64" font-family="Times New Roman,serif" font-size="14.00">Literal &quot;$&quot;</text>
</g>
<!-- todo&#45;1&#45;&gt;1401095299 -->
<g id="edge4" class="edge">
<title>todo&#45;1:se&#45;&gt;1401095299</title>
<path fill="none" stroke="black" d="M229.07,-337.88C244.89,-322.06 249.46,-296.7 250.36,-276.95"/>
<polygon fill="black" stroke="black" points="253.86,-277.07 250.49,-267.03 246.86,-276.98 253.86,-277.07"/>
<text text-anchor="middle" x="261.69" y="-306.58" font-family="Times New Roman,serif" font-size="14.00">Node</text>
</g>
<!-- 37 -->
<g id="node4" class="node">
<title>37</title>
<ellipse fill="none" stroke="black" cx="116.32" cy="-131.93" rx="116.32" ry="39.07"/>
<text text-anchor="middle" x="116.32" y="-142.25" font-family="Times New Roman,serif" font-size="14.00">NonTerminal: End</text>
<text text-anchor="middle" x="116.32" y="-126.5" font-family="Times New Roman,serif" font-size="14.00">.2@6</text>
<text text-anchor="middle" x="116.32" y="-110.75" font-family="Times New Roman,serif" font-size="14.00">in: &#39;S &#45;&gt; ABC Layout End&#39;</text>
</g>
<!-- 86&#45;&gt;37 -->
<g id="edge2" class="edge">
<title>86&#45;&gt;37</title>
<path fill="none" stroke="black" d="M116.32,-207.76C116.32,-199.65 116.32,-190.98 116.32,-182.52"/>
<polygon fill="black" stroke="black" points="119.82,-182.71 116.32,-172.71 112.82,-182.71 119.82,-182.71"/>
</g>
<!-- &#45;1 -->
<g id="node5" class="node">
<title>&#45;1</title>
<ellipse fill="none" stroke="black" cx="116.32" cy="-27.93" rx="73.36" ry="27.93"/>
<text text-anchor="middle" x="116.32" y="-30.38" font-family="Times New Roman,serif" font-size="14.00">NonTerminal: S</text>
<text text-anchor="middle" x="116.32" y="-14.63" font-family="Times New Roman,serif" font-size="14.00">.0@&#45;1</text>
</g>
<!-- 37&#45;&gt;&#45;1 -->
<g id="edge1" class="edge">
<title>37&#45;&gt;&#45;1</title>
<path fill="none" stroke="black" d="M116.32,-92.37C116.32,-84.26 116.32,-75.7 116.32,-67.58"/>
<polygon fill="black" stroke="black" points="119.82,-67.63 116.32,-57.63 112.82,-67.63 119.82,-67.63"/>
</g>
<!-- todoLists&#45;&gt;todo&#45;1 -->
<g id="edge5" class="edge">
<title>todoLists:1&#45;&gt;todo&#45;1</title>
<path fill="none" stroke="black" d="M202.19,-426.63C202.19,-413.24 202.22,-398.39 202.24,-385.89"/>
<polygon fill="black" stroke="black" points="205.74,-386.26 202.27,-376.26 198.74,-386.25 205.74,-386.26"/>
</g>
<!-- unexpandableNodes -->
<g id="node11" class="node">
<title>unexpandableNodes</title>
<polygon fill="none" stroke="black" points="830.32,-338.38 830.32,-374.38 884.32,-374.38 884.32,-338.38 830.32,-338.38"/>
<text text-anchor="middle" x="857.19" y="-350.96" font-family="Times New Roman,serif" font-size="14.00"> </text>
</g>
<!-- 78 -->
<g id="node12" class="node">
<title>78</title>
<ellipse fill="none" stroke="black" cx="957.32" cy="-247.06" rx="35.71" ry="27.93"/>
<text text-anchor="middle" x="957.32" y="-249.51" font-family="Times New Roman,serif" font-size="14.00">Char: </text>
<text text-anchor="middle" x="957.32" y="-233.76" font-family="Times New Roman,serif" font-size="14.00">.0@&#45;1</text>
</g>
<!-- unmatchableLeafNodes -->
<g id="node13" class="node">
<title>unmatchableLeafNodes</title>
<polygon fill="none" stroke="black" points="930.32,-338.38 930.32,-374.38 984.32,-374.38 984.32,-338.38 930.32,-338.38"/>
<text text-anchor="middle" x="957.19" y="-350.96" font-family="Times New Roman,serif" font-size="14.00">0</text>
</g>
<!-- unmatchableLeafNodes&#45;&gt;78 -->
<g id="edge10" class="edge">
<title>unmatchableLeafNodes:0&#45;&gt;78</title>
<path fill="none" stroke="black" d="M957.22,-338.01C957.23,-323.95 957.25,-304.06 957.27,-286.56"/>
<polygon fill="black" stroke="black" points="960.77,-287.01 957.29,-277 953.77,-287 960.77,-287.01"/>
</g>
<!-- unmatchableMidProductionNodes -->
<g id="node14" class="node">
<title>unmatchableMidProductionNodes</title>
<polygon fill="none" stroke="black" points="1052.32,-338.38 1052.32,-374.38 1106.32,-374.38 1106.32,-338.38 1052.32,-338.38"/>
<text text-anchor="middle" x="1079.19" y="-350.96" font-family="Times New Roman,serif" font-size="14.00"> </text>
</g>
<!-- filteredNodes -->
<g id="node15" class="node">
<title>filteredNodes</title>
<polygon fill="none" stroke="black" points="1201.32,-338.38 1201.32,-374.38 1255.32,-374.38 1255.32,-338.38 1201.32,-338.38"/>
<text text-anchor="middle" x="1228.19" y="-350.96" font-family="Times New Roman,serif" font-size="14.00"> </text>
</g>
<!-- error&#45;&gt;unexpandableNodes -->
<g id="edge12" class="edge">
<title>error&#45;&gt;unexpandableNodes</title>
<path fill="none" stroke="black" d="M985.19,-439.9C947.42,-434.43 888.82,-423.78 872.82,-408.63 866.51,-402.66 862.74,-394.21 860.5,-385.89"/>
<polygon fill="black" stroke="black" points="863.99,-385.48 858.59,-376.36 857.12,-386.85 863.99,-385.48"/>
<text text-anchor="middle" x="911.57" y="-395.33" font-family="Times New Roman,serif" font-size="14.00">unexpandable</text>
</g>
<!-- error&#45;&gt;unmatchableLeafNodes -->
<g id="edge13" class="edge">
<title>error&#45;&gt;unmatchableLeafNodes</title>
<path fill="none" stroke="black" d="M990.15,-434.63C978.15,-429.04 965.33,-420.66 958.32,-408.63 954.39,-401.89 953.03,-393.76 952.95,-385.98"/>
<polygon fill="black" stroke="black" points="956.43,-386.37 953.54,-376.17 949.44,-385.95 956.43,-386.37"/>
<text text-anchor="middle" x="1007.82" y="-395.33" font-family="Times New Roman,serif" font-size="14.00">unmatchable leafs</text>
</g>
<!-- error&#45;&gt;unmatchableMidProductionNodes -->
<g id="edge14" class="edge">
<title>error&#45;&gt;unmatchableMidProductionNodes</title>
<path fill="none" stroke="black" d="M1037,-429.99C1044.03,-423.98 1051.69,-416.54 1057.32,-408.63 1062.36,-401.56 1066.57,-393.15 1069.91,-385.2"/>
<polygon fill="black" stroke="black" points="1073.17,-386.48 1073.51,-375.89 1066.64,-383.96 1073.17,-386.48"/>
<text text-anchor="middle" x="1128.32" y="-395.33" font-family="Times New Roman,serif" font-size="14.00">unmatchable mid&#45;prod</text>
</g>
<!-- error&#45;&gt;filteredNodes -->
<g id="edge15" class="edge">
<title>error&#45;&gt;filteredNodes</title>
<path fill="none" stroke="black" d="M1052.63,-444.92C1090.67,-444.16 1152.33,-437.94 1195.32,-408.63 1203.99,-402.72 1210.9,-393.7 1216.1,-384.86"/>
<polygon fill="black" stroke="black" points="1219.15,-386.58 1220.73,-376.11 1212.96,-383.31 1219.15,-386.58"/>
<text text-anchor="middle" x="1229.44" y="-395.33" font-family="Times New Roman,serif" font-size="14.00">filtered</text>
</g>
</g>
</svg>
