<?xml version="1.0" encoding="UTF-8" standalone="no"?>
<!DOCTYPE svg PUBLIC "-//W3C//DTD SVG 1.1//EN"
 "http://www.w3.org/Graphics/SVG/1.1/DTD/svg11.dtd">
<!-- Generated by graphviz version 12.0.0 (20240704.0754)
 -->
<!-- Title: Parser Pages: 1 -->
<svg width="1063pt" height="624pt"
 viewBox="0.00 0.00 1063.25 623.79" xmlns="http://www.w3.org/2000/svg" xmlns:xlink="http://www.w3.org/1999/xlink">
<g id="graph0" class="graph" transform="scale(1 1) rotate(0) translate(4 619.79)">
<title>Parser</title>
<polygon fill="white" stroke="none" points="-4,4 -4,-619.79 1059.25,-619.79 1059.25,4 -4,4"/>
<!-- Parser -->
<g id="node1" class="node">
<title>Parser</title>
<ellipse fill="none" stroke="black" cx="568.25" cy="-565.59" rx="121.62" ry="50.2"/>
<text text-anchor="middle" x="568.25" y="-583.79" font-family="Times New Roman,serif" font-size="14.00">Parser</text>
<text text-anchor="middle" x="568.25" y="-568.04" font-family="Times New Roman,serif" font-size="14.00">Input: &quot;a b c $&quot;</text>
<text text-anchor="middle" x="568.25" y="-552.29" font-family="Times New Roman,serif" font-size="14.00">Location: 7 (&#39;$&#39;)</text>
<text text-anchor="middle" x="568.25" y="-536.54" font-family="Times New Roman,serif" font-size="14.00">Step 32: Reducing terminals</text>
</g>
<!-- todoLists -->
<g id="node7" class="node">
<title>todoLists</title>
<polygon fill="none" stroke="black" points="0,-427.13 0,-463.13 404.5,-463.13 404.5,-427.13 0,-427.13"/>
<text text-anchor="middle" x="11.38" y="-439.71" font-family="Times New Roman,serif" font-size="14.00">0</text>
<polyline fill="none" stroke="black" points="22.75,-427.13 22.75,-463.13"/>
<text text-anchor="middle" x="34.12" y="-439.71" font-family="Times New Roman,serif" font-size="14.00">1</text>
<polyline fill="none" stroke="black" points="45.5,-427.13 45.5,-463.13"/>
<text text-anchor="middle" x="56.88" y="-439.71" font-family="Times New Roman,serif" font-size="14.00">2</text>
<polyline fill="none" stroke="black" points="68.25,-427.13 68.25,-463.13"/>
<text text-anchor="middle" x="79.62" y="-439.71" font-family="Times New Roman,serif" font-size="14.00">3</text>
<polyline fill="none" stroke="black" points="91,-427.13 91,-463.13"/>
<text text-anchor="middle" x="102.38" y="-439.71" font-family="Times New Roman,serif" font-size="14.00">4</text>
<polyline fill="none" stroke="black" points="113.75,-427.13 113.75,-463.13"/>
<text text-anchor="middle" x="125.12" y="-439.71" font-family="Times New Roman,serif" font-size="14.00">5</text>
<polyline fill="none" stroke="black" points="136.5,-427.13 136.5,-463.13"/>
<text text-anchor="middle" x="147.88" y="-439.71" font-family="Times New Roman,serif" font-size="14.00">6</text>
<polyline fill="none" stroke="black" points="159.25,-427.13 159.25,-463.13"/>
<text text-anchor="middle" x="170.62" y="-439.71" font-family="Times New Roman,serif" font-size="14.00">7</text>
<polyline fill="none" stroke="black" points="182,-427.13 182,-463.13"/>
<text text-anchor="middle" x="193.38" y="-439.71" font-family="Times New Roman,serif" font-size="14.00">8</text>
<polyline fill="none" stroke="black" points="204.75,-427.13 204.75,-463.13"/>
<text text-anchor="middle" x="216.12" y="-439.71" font-family="Times New Roman,serif" font-size="14.00">9</text>
<polyline fill="none" stroke="black" points="227.5,-427.13 227.5,-463.13"/>
<text text-anchor="middle" x="242.25" y="-439.71" font-family="Times New Roman,serif" font-size="14.00">10</text>
<polyline fill="none" stroke="black" points="257,-427.13 257,-463.13"/>
<text text-anchor="middle" x="271.75" y="-439.71" font-family="Times New Roman,serif" font-size="14.00">11</text>
<polyline fill="none" stroke="black" points="286.5,-427.13 286.5,-463.13"/>
<text text-anchor="middle" x="301.25" y="-439.71" font-family="Times New Roman,serif" font-size="14.00">12</text>
<polyline fill="none" stroke="black" points="316,-427.13 316,-463.13"/>
<text text-anchor="middle" x="330.75" y="-439.71" font-family="Times New Roman,serif" font-size="14.00">13</text>
<polyline fill="none" stroke="black" points="345.5,-427.13 345.5,-463.13"/>
<text text-anchor="middle" x="360.25" y="-439.71" font-family="Times New Roman,serif" font-size="14.00">14</text>
<polyline fill="none" stroke="black" points="375,-427.13 375,-463.13"/>
<text text-anchor="middle" x="389.75" y="-439.71" font-family="Times New Roman,serif" font-size="14.00">15</text>
</g>
<!-- Parser&#45;&gt;todoLists -->
<g id="edge6" class="edge">
<title>Parser&#45;&gt;todoLists</title>
<path fill="none" stroke="black" d="M473.52,-533.93C408.65,-512.93 324.33,-485.64 267.03,-467.1"/>
<polygon fill="black" stroke="black" points="268.33,-463.84 257.74,-464.09 266.18,-470.5 268.33,-463.84"/>
<text text-anchor="middle" x="379.12" y="-484.08" font-family="Times New Roman,serif" font-size="14.00">todo lists</text>
</g>
<!-- stacksToExpand -->
<g id="node8" class="node">
<title>stacksToExpand</title>
<polygon fill="none" stroke="black" points="564.25,-427.13 564.25,-463.13 618.25,-463.13 618.25,-427.13 564.25,-427.13"/>
<text text-anchor="middle" x="591.12" y="-439.71" font-family="Times New Roman,serif" font-size="14.00"> </text>
</g>
<!-- Parser&#45;&gt;stacksToExpand -->
<g id="edge7" class="edge">
<title>Parser&#45;&gt;stacksToExpand</title>
<path fill="none" stroke="black" d="M564.91,-515.26C565.31,-504.04 566.67,-492.29 569.75,-481.63 570.56,-478.85 571.64,-476.06 572.89,-473.34"/>
<polygon fill="black" stroke="black" points="575.91,-475.12 577.63,-464.66 569.76,-471.76 575.91,-475.12"/>
<text text-anchor="middle" x="617.5" y="-484.08" font-family="Times New Roman,serif" font-size="14.00">stacks to expand</text>
</g>
<!-- terminalsToReduce -->
<g id="node9" class="node">
<title>terminalsToReduce</title>
<polygon fill="none" stroke="red" points="339.25,-338.38 339.25,-374.38 393.25,-374.38 393.25,-338.38 339.25,-338.38"/>
<text text-anchor="middle" x="366.12" y="-350.96" font-family="Times New Roman,serif" font-size="14.00">0</text>
</g>
<!-- Parser&#45;&gt;terminalsToReduce -->
<g id="edge10" class="edge">
<title>Parser&#45;&gt;terminalsToReduce</title>
<path fill="none" stroke="black" d="M512.09,-520.8C491.58,-503.8 468.72,-483.63 449.5,-463.63 425.17,-438.31 400.81,-406.24 384.78,-383.98"/>
<polygon fill="black" stroke="black" points="387.77,-382.15 379.12,-376.04 382.07,-386.21 387.77,-382.15"/>
<text text-anchor="middle" x="503.12" y="-439.71" font-family="Times New Roman,serif" font-size="14.00">terminals to reduce</text>
</g>
<!-- nonTerminalsToReduce -->
<g id="node10" class="node">
<title>nonTerminalsToReduce</title>
<polygon fill="none" stroke="black" points="659.25,-427.13 659.25,-463.13 713.25,-463.13 713.25,-427.13 659.25,-427.13"/>
<text text-anchor="middle" x="686.12" y="-439.71" font-family="Times New Roman,serif" font-size="14.00"> </text>
</g>
<!-- Parser&#45;&gt;nonTerminalsToReduce -->
<g id="edge11" class="edge">
<title>Parser&#45;&gt;nonTerminalsToReduce</title>
<path fill="none" stroke="black" d="M636.87,-523.77C646.87,-515.87 656.42,-507.01 664.25,-497.38 669.79,-490.56 674.17,-482.14 677.51,-474.11"/>
<polygon fill="black" stroke="black" points="680.7,-475.59 680.91,-464.99 674.14,-473.14 680.7,-475.59"/>
<text text-anchor="middle" x="738.88" y="-484.08" font-family="Times New Roman,serif" font-size="14.00">non&#45;terminals to reduce</text>
</g>
<!-- error -->
<g id="node15" class="node">
<title>error</title>
<ellipse fill="none" stroke="black" cx="840.25" cy="-445.13" rx="34.1" ry="18"/>
<text text-anchor="middle" x="840.25" y="-439.71" font-family="Times New Roman,serif" font-size="14.00">Errors</text>
</g>
<!-- Parser&#45;&gt;error -->
<g id="edge12" class="edge">
<title>Parser&#45;&gt;error</title>
<path fill="none" stroke="black" d="M684.43,-549.96C726.54,-540.27 772.49,-524.16 808.25,-497.38 816.58,-491.15 823.26,-482.05 828.31,-473.24"/>
<polygon fill="black" stroke="black" points="831.31,-475.06 832.81,-464.57 825.1,-471.84 831.31,-475.06"/>
<text text-anchor="middle" x="859.75" y="-484.08" font-family="Times New Roman,serif" font-size="14.00">error tracking</text>
</g>
<!-- todo&#45;1 -->
<g id="node2" class="node">
<title>todo&#45;1</title>
<polygon fill="none" stroke="black" points="228.25,-338.38 228.25,-374.38 282.25,-374.38 282.25,-338.38 228.25,-338.38"/>
<text text-anchor="middle" x="255.12" y="-350.96" font-family="Times New Roman,serif" font-size="14.00">0</text>
</g>
<!-- 86 -->
<g id="node3" class="node">
<title>86</title>
<ellipse fill="none" stroke="black" cx="243.25" cy="-247.06" rx="62.23" ry="39.07"/>
<text text-anchor="middle" x="243.25" y="-257.39" font-family="Times New Roman,serif" font-size="14.00">Literal: </text>
<text text-anchor="middle" x="243.25" y="-241.64" font-family="Times New Roman,serif" font-size="14.00">.0@6</text>
<text text-anchor="middle" x="243.25" y="-225.89" font-family="Times New Roman,serif" font-size="14.00">in: &#39;End &#45;&gt; $&#39;</text>
</g>
<!-- todo&#45;1&#45;&gt;86 -->
<g id="edge3" class="edge">
<title>todo&#45;1:sw&#45;&gt;86</title>
<path fill="none" stroke="black" d="M228.25,-337.88C217.08,-326.71 216.91,-310.57 220.87,-295.05"/>
<polygon fill="black" stroke="black" points="224.08,-296.5 223.73,-285.91 217.4,-294.41 224.08,-296.5"/>
<text text-anchor="middle" x="235" y="-306.58" font-family="Times New Roman,serif" font-size="14.00">Stack</text>
</g>
<!-- 1401095299 -->
<g id="node6" class="node">
<title>1401095299</title>
<polygon fill="none" stroke="black" points="436.82,-239.61 436.82,-254.52 406.03,-265.06 362.47,-265.06 331.68,-254.52 331.68,-239.61 362.47,-229.06 406.03,-229.06 436.82,-239.61"/>
<text text-anchor="middle" x="384.25" y="-241.64" font-family="Times New Roman,serif" font-size="14.00">Literal &quot;$&quot;</text>
</g>
<!-- todo&#45;1&#45;&gt;1401095299 -->
<g id="edge4" class="edge">
<title>todo&#45;1:se&#45;&gt;1401095299</title>
<path fill="none" stroke="black" d="M282,-337.88C287.68,-332.21 280.83,-327.9 280.5,-319.88 280.21,-312.89 276.9,-310.13 280.5,-304.13 289.25,-289.55 299.28,-294.19 314.25,-286.13 324.66,-280.52 335.93,-274.42 346.32,-268.77"/>
<polygon fill="black" stroke="black" points="347.91,-271.89 355.02,-264.03 344.56,-265.74 347.91,-271.89"/>
<text text-anchor="middle" x="296.62" y="-306.58" font-family="Times New Roman,serif" font-size="14.00">Node</text>
</g>
<!-- 37 -->
<g id="node4" class="node">
<title>37</title>
<ellipse fill="none" stroke="black" cx="243.25" cy="-131.93" rx="116.32" ry="39.07"/>
<text text-anchor="middle" x="243.25" y="-142.25" font-family="Times New Roman,serif" font-size="14.00">NonTerminal: End</text>
<text text-anchor="middle" x="243.25" y="-126.5" font-family="Times New Roman,serif" font-size="14.00">.2@6</text>
<text text-anchor="middle" x="243.25" y="-110.75" font-family="Times New Roman,serif" font-size="14.00">in: &#39;S &#45;&gt; ABC Layout End&#39;</text>
</g>
<!-- 86&#45;&gt;37 -->
<g id="edge2" class="edge">
<title>86&#45;&gt;37</title>
<path fill="none" stroke="black" d="M243.25,-207.76C243.25,-199.65 243.25,-190.98 243.25,-182.52"/>
<polygon fill="black" stroke="black" points="246.75,-182.71 243.25,-172.71 239.75,-182.71 246.75,-182.71"/>
</g>
<!-- &#45;1 -->
<g id="node5" class="node">
<title>&#45;1</title>
<ellipse fill="none" stroke="black" cx="243.25" cy="-27.93" rx="73.36" ry="27.93"/>
<text text-anchor="middle" x="243.25" y="-30.38" font-family="Times New Roman,serif" font-size="14.00">NonTerminal: S</text>
<text text-anchor="middle" x="243.25" y="-14.63" font-family="Times New Roman,serif" font-size="14.00">.0@&#45;1</text>
</g>
<!-- 37&#45;&gt;&#45;1 -->
<g id="edge1" class="edge">
<title>37&#45;&gt;&#45;1</title>
<path fill="none" stroke="black" d="M243.25,-92.37C243.25,-84.26 243.25,-75.7 243.25,-67.58"/>
<polygon fill="black" stroke="black" points="246.75,-67.63 243.25,-57.63 239.75,-67.63 246.75,-67.63"/>
</g>
<!-- todoLists&#45;&gt;todo&#45;1 -->
<g id="edge5" class="edge">
<title>todoLists:1&#45;&gt;todo&#45;1</title>
<path fill="none" stroke="black" d="M34.12,-426.63C34.12,-388.76 153.74,-369.14 217.02,-361.41"/>
<polygon fill="black" stroke="black" points="217.11,-364.92 226.63,-360.28 216.29,-357.97 217.11,-364.92"/>
</g>
<!-- terminalsToReduce&#45;&gt;86 -->
<g id="edge8" class="edge">
<title>terminalsToReduce:sw&#45;&gt;86</title>
<path fill="none" stroke="black" d="M339.25,-337.88C326.24,-324.87 327.98,-317.43 315.25,-304.13 308.48,-297.06 300.79,-290.14 293.01,-283.71"/>
<polygon fill="black" stroke="black" points="295.41,-281.15 285.42,-277.62 291.03,-286.61 295.41,-281.15"/>
<text text-anchor="middle" x="343" y="-306.58" font-family="Times New Roman,serif" font-size="14.00">Stack</text>
</g>
<!-- terminalsToReduce&#45;&gt;1401095299 -->
<g id="edge9" class="edge">
<title>terminalsToReduce:se&#45;&gt;1401095299</title>
<path fill="none" stroke="black" d="M393,-337.88C408.82,-322.07 404.27,-295.95 397.15,-275.95"/>
<polygon fill="black" stroke="black" points="400.42,-274.7 393.48,-266.69 393.92,-277.28 400.42,-274.7"/>
<text text-anchor="middle" x="419.62" y="-306.58" font-family="Times New Roman,serif" font-size="14.00">Node</text>
</g>
<!-- unexpandableNodes -->
<g id="node11" class="node">
<title>unexpandableNodes</title>
<polygon fill="none" stroke="black" points="849.25,-338.38 849.25,-374.38 903.25,-374.38 903.25,-338.38 849.25,-338.38"/>
<text text-anchor="middle" x="876.12" y="-350.96" font-family="Times New Roman,serif" font-size="14.00"> </text>
</g>
<!-- unmatchableLeafNodes -->
<g id="node12" class="node">
<title>unmatchableLeafNodes</title>
<polygon fill="none" stroke="black" points="946.25,-338.38 946.25,-374.38 1000.25,-374.38 1000.25,-338.38 946.25,-338.38"/>
<text text-anchor="middle" x="973.12" y="-350.96" font-family="Times New Roman,serif" font-size="14.00"> </text>
</g>
<!-- unmatchableMidProductionNodes -->
<g id="node13" class="node">
<title>unmatchableMidProductionNodes</title>
<polygon fill="none" stroke="black" points="631.25,-338.38 631.25,-374.38 685.25,-374.38 685.25,-338.38 631.25,-338.38"/>
<text text-anchor="middle" x="658.12" y="-350.96" font-family="Times New Roman,serif" font-size="14.00"> </text>
</g>
<!-- filteredNodes -->
<g id="node14" class="node">
<title>filteredNodes</title>
<polygon fill="none" stroke="black" points="777.25,-338.38 777.25,-374.38 831.25,-374.38 831.25,-338.38 777.25,-338.38"/>
<text text-anchor="middle" x="804.12" y="-350.96" font-family="Times New Roman,serif" font-size="14.00"> </text>
</g>
<!-- error&#45;&gt;unexpandableNodes -->
<g id="edge13" class="edge">
<title>error&#45;&gt;unexpandableNodes</title>
<path fill="none" stroke="black" d="M847.19,-427.41C852.16,-415.44 858.96,-399.06 864.73,-385.15"/>
<polygon fill="black" stroke="black" points="867.9,-386.63 868.5,-376.05 861.44,-383.94 867.9,-386.63"/>
<text text-anchor="middle" x="899.5" y="-395.33" font-family="Times New Roman,serif" font-size="14.00">unexpandable</text>
</g>
<!-- error&#45;&gt;unmatchableLeafNodes -->
<g id="edge14" class="edge">
<title>error&#45;&gt;unmatchableLeafNodes</title>
<path fill="none" stroke="black" d="M872.47,-438.84C894.07,-433.96 922.14,-424.92 942.25,-408.63 950.06,-402.3 956.4,-393.44 961.25,-384.87"/>
<polygon fill="black" stroke="black" points="964.31,-386.58 965.75,-376.09 958.08,-383.39 964.31,-386.58"/>
<text text-anchor="middle" x="1005.75" y="-395.33" font-family="Times New Roman,serif" font-size="14.00">unmatchable leafs</text>
</g>
<!-- error&#45;&gt;unmatchableMidProductionNodes -->
<g id="edge15" class="edge">
<title>error&#45;&gt;unmatchableMidProductionNodes</title>
<path fill="none" stroke="black" d="M807.01,-440.67C765.13,-435.68 696.33,-425.2 677.25,-408.63 670.38,-402.66 665.98,-393.97 663.18,-385.43"/>
<polygon fill="black" stroke="black" points="666.63,-384.79 660.72,-376 659.86,-386.56 666.63,-384.79"/>
<text text-anchor="middle" x="740.25" y="-395.33" font-family="Times New Roman,serif" font-size="14.00">unmatchable mid&#45;prod</text>
</g>
<!-- error&#45;&gt;filteredNodes -->
<g id="edge16" class="edge">
<title>error&#45;&gt;filteredNodes</title>
<path fill="none" stroke="black" d="M825.07,-428.69C820.15,-422.85 815.15,-415.85 812,-408.63 808.93,-401.59 807.05,-393.56 805.9,-385.97"/>
<polygon fill="black" stroke="black" points="809.39,-385.67 804.8,-376.12 802.43,-386.44 809.39,-385.67"/>
<text text-anchor="middle" x="830.38" y="-395.33" font-family="Times New Roman,serif" font-size="14.00">filtered</text>
</g>
</g>
</svg>
