<?xml version="1.0" encoding="UTF-8" standalone="no"?>
<!DOCTYPE svg PUBLIC "-//W3C//DTD SVG 1.1//EN"
 "http://www.w3.org/Graphics/SVG/1.1/DTD/svg11.dtd">
<!-- Generated by graphviz version 12.0.0 (20240704.0754)
 -->
<!-- Title: Parser Pages: 1 -->
<svg width="1234pt" height="420pt"
 viewBox="0.00 0.00 1234.25 419.91" xmlns="http://www.w3.org/2000/svg" xmlns:xlink="http://www.w3.org/1999/xlink">
<g id="graph0" class="graph" transform="scale(1 1) rotate(0) translate(4 415.91)">
<title>Parser</title>
<polygon fill="white" stroke="none" points="-4,4 -4,-415.91 1230.25,-415.91 1230.25,4 -4,4"/>
<!-- Parser -->
<g id="node1" class="node">
<title>Parser</title>
<ellipse fill="none" stroke="black" cx="567.25" cy="-361.7" rx="139.65" ry="50.2"/>
<text text-anchor="middle" x="567.25" y="-379.9" font-family="Times New Roman,serif" font-size="14.00">Parser</text>
<text text-anchor="middle" x="567.25" y="-364.15" font-family="Times New Roman,serif" font-size="14.00">Input: &quot;a b c $&quot;</text>
<text text-anchor="middle" x="567.25" y="-348.4" font-family="Times New Roman,serif" font-size="14.00">Location: 7 (&#39;$&#39;)</text>
<text text-anchor="middle" x="567.25" y="-332.65" font-family="Times New Roman,serif" font-size="14.00">Step 33: Reducing non&#45;terminals</text>
</g>
<!-- todoLists -->
<g id="node2" class="node">
<title>todoLists</title>
<polygon fill="none" stroke="black" points="0,-223.25 0,-259.25 404.5,-259.25 404.5,-223.25 0,-223.25"/>
<text text-anchor="middle" x="11.38" y="-235.82" font-family="Times New Roman,serif" font-size="14.00">0</text>
<polyline fill="none" stroke="black" points="22.75,-223.25 22.75,-259.25"/>
<text text-anchor="middle" x="34.12" y="-235.82" font-family="Times New Roman,serif" font-size="14.00">1</text>
<polyline fill="none" stroke="black" points="45.5,-223.25 45.5,-259.25"/>
<text text-anchor="middle" x="56.88" y="-235.82" font-family="Times New Roman,serif" font-size="14.00">2</text>
<polyline fill="none" stroke="black" points="68.25,-223.25 68.25,-259.25"/>
<text text-anchor="middle" x="79.62" y="-235.82" font-family="Times New Roman,serif" font-size="14.00">3</text>
<polyline fill="none" stroke="black" points="91,-223.25 91,-259.25"/>
<text text-anchor="middle" x="102.38" y="-235.82" font-family="Times New Roman,serif" font-size="14.00">4</text>
<polyline fill="none" stroke="black" points="113.75,-223.25 113.75,-259.25"/>
<text text-anchor="middle" x="125.12" y="-235.82" font-family="Times New Roman,serif" font-size="14.00">5</text>
<polyline fill="none" stroke="black" points="136.5,-223.25 136.5,-259.25"/>
<text text-anchor="middle" x="147.88" y="-235.82" font-family="Times New Roman,serif" font-size="14.00">6</text>
<polyline fill="none" stroke="black" points="159.25,-223.25 159.25,-259.25"/>
<text text-anchor="middle" x="170.62" y="-235.82" font-family="Times New Roman,serif" font-size="14.00">7</text>
<polyline fill="none" stroke="black" points="182,-223.25 182,-259.25"/>
<text text-anchor="middle" x="193.38" y="-235.82" font-family="Times New Roman,serif" font-size="14.00">8</text>
<polyline fill="none" stroke="black" points="204.75,-223.25 204.75,-259.25"/>
<text text-anchor="middle" x="216.12" y="-235.82" font-family="Times New Roman,serif" font-size="14.00">9</text>
<polyline fill="none" stroke="black" points="227.5,-223.25 227.5,-259.25"/>
<text text-anchor="middle" x="242.25" y="-235.82" font-family="Times New Roman,serif" font-size="14.00">10</text>
<polyline fill="none" stroke="black" points="257,-223.25 257,-259.25"/>
<text text-anchor="middle" x="271.75" y="-235.82" font-family="Times New Roman,serif" font-size="14.00">11</text>
<polyline fill="none" stroke="black" points="286.5,-223.25 286.5,-259.25"/>
<text text-anchor="middle" x="301.25" y="-235.82" font-family="Times New Roman,serif" font-size="14.00">12</text>
<polyline fill="none" stroke="black" points="316,-223.25 316,-259.25"/>
<text text-anchor="middle" x="330.75" y="-235.82" font-family="Times New Roman,serif" font-size="14.00">13</text>
<polyline fill="none" stroke="black" points="345.5,-223.25 345.5,-259.25"/>
<text text-anchor="middle" x="360.25" y="-235.82" font-family="Times New Roman,serif" font-size="14.00">14</text>
<polyline fill="none" stroke="black" points="375,-223.25 375,-259.25"/>
<text text-anchor="middle" x="389.75" y="-235.82" font-family="Times New Roman,serif" font-size="14.00">15</text>
</g>
<!-- Parser&#45;&gt;todoLists -->
<g id="edge1" class="edge">
<title>Parser&#45;&gt;todoLists</title>
<path fill="none" stroke="black" d="M464.61,-327.39C401.05,-306.76 321.41,-280.92 266.64,-263.14"/>
<polygon fill="black" stroke="black" points="268.06,-259.92 257.47,-260.17 265.9,-266.58 268.06,-259.92"/>
<text text-anchor="middle" x="378.12" y="-280.2" font-family="Times New Roman,serif" font-size="14.00">todo lists</text>
</g>
<!-- stacksToExpand -->
<g id="node3" class="node">
<title>stacksToExpand</title>
<polygon fill="none" stroke="black" points="422.25,-223.25 422.25,-259.25 476.25,-259.25 476.25,-223.25 422.25,-223.25"/>
<text text-anchor="middle" x="449.12" y="-235.82" font-family="Times New Roman,serif" font-size="14.00"> </text>
</g>
<!-- Parser&#45;&gt;stacksToExpand -->
<g id="edge2" class="edge">
<title>Parser&#45;&gt;stacksToExpand</title>
<path fill="none" stroke="black" d="M494.47,-318.8C484.99,-311.23 476.06,-302.76 468.75,-293.5 463.46,-286.79 459.48,-278.49 456.55,-270.54"/>
<polygon fill="black" stroke="black" points="459.93,-269.61 453.53,-261.17 453.27,-271.76 459.93,-269.61"/>
<text text-anchor="middle" x="516.5" y="-280.2" font-family="Times New Roman,serif" font-size="14.00">stacks to expand</text>
</g>
<!-- terminalsToReduce -->
<g id="node4" class="node">
<title>terminalsToReduce</title>
<polygon fill="none" stroke="black" points="540.25,-223.25 540.25,-259.25 594.25,-259.25 594.25,-223.25 540.25,-223.25"/>
<text text-anchor="middle" x="567.12" y="-235.82" font-family="Times New Roman,serif" font-size="14.00"> </text>
</g>
<!-- Parser&#45;&gt;terminalsToReduce -->
<g id="edge3" class="edge">
<title>Parser&#45;&gt;terminalsToReduce</title>
<path fill="none" stroke="black" d="M567.25,-311.15C567.25,-297.36 567.25,-282.85 567.25,-270.73"/>
<polygon fill="black" stroke="black" points="570.75,-271.02 567.25,-261.02 563.75,-271.02 570.75,-271.02"/>
<text text-anchor="middle" x="620.12" y="-280.2" font-family="Times New Roman,serif" font-size="14.00">terminals to reduce</text>
</g>
<!-- nonTerminalsToReduce -->
<g id="node5" class="node">
<title>nonTerminalsToReduce</title>
<polygon fill="none" stroke="red" points="641.25,-223.25 641.25,-259.25 695.25,-259.25 695.25,-223.25 641.25,-223.25"/>
<text text-anchor="middle" x="668.12" y="-235.82" font-family="Times New Roman,serif" font-size="14.00">0</text>
</g>
<!-- Parser&#45;&gt;nonTerminalsToReduce -->
<g id="edge7" class="edge">
<title>Parser&#45;&gt;nonTerminalsToReduce</title>
<path fill="none" stroke="black" d="M650.76,-321C660.15,-313.18 668.41,-304.06 674.25,-293.5 678.09,-286.54 678.55,-278.26 677.51,-270.4"/>
<polygon fill="black" stroke="black" points="680.99,-269.9 675.46,-260.87 674.15,-271.38 680.99,-269.9"/>
<text text-anchor="middle" x="743.88" y="-280.2" font-family="Times New Roman,serif" font-size="14.00">non&#45;terminals to reduce</text>
</g>
<!-- error -->
<g id="node13" class="node">
<title>error</title>
<ellipse fill="none" stroke="black" cx="928.25" cy="-241.25" rx="34.1" ry="18"/>
<text text-anchor="middle" x="928.25" y="-235.82" font-family="Times New Roman,serif" font-size="14.00">Errors</text>
</g>
<!-- Parser&#45;&gt;error -->
<g id="edge8" class="edge">
<title>Parser&#45;&gt;error</title>
<path fill="none" stroke="black" d="M682.59,-333.08C724.2,-322.1 771.24,-308.5 813.25,-293.5 840.97,-283.6 871.35,-269.93 893.92,-259.2"/>
<polygon fill="black" stroke="black" points="895.16,-262.49 902.65,-255 892.12,-256.18 895.16,-262.49"/>
<text text-anchor="middle" x="888.75" y="-280.2" font-family="Times New Roman,serif" font-size="14.00">error tracking</text>
</g>
<!-- 37 -->
<g id="node6" class="node">
<title>37</title>
<ellipse fill="none" stroke="black" cx="471.25" cy="-131.93" rx="116.32" ry="39.07"/>
<text text-anchor="middle" x="471.25" y="-142.25" font-family="Times New Roman,serif" font-size="14.00">NonTerminal: End</text>
<text text-anchor="middle" x="471.25" y="-126.5" font-family="Times New Roman,serif" font-size="14.00">.2@6</text>
<text text-anchor="middle" x="471.25" y="-110.75" font-family="Times New Roman,serif" font-size="14.00">in: &#39;S &#45;&gt; ABC Layout End&#39;</text>
</g>
<!-- nonTerminalsToReduce&#45;&gt;37 -->
<g id="edge5" class="edge">
<title>nonTerminalsToReduce:sw&#45;&gt;37</title>
<path fill="none" stroke="black" d="M641.25,-222.75C617.81,-199.31 586.98,-180.54 558.02,-166.35"/>
<polygon fill="black" stroke="black" points="559.77,-163.3 549.24,-162.17 556.76,-169.62 559.77,-163.3"/>
<text text-anchor="middle" x="634" y="-191.45" font-family="Times New Roman,serif" font-size="14.00">Stack</text>
</g>
<!-- 1921143808 -->
<g id="node8" class="node">
<title>1921143808</title>
<polygon fill="none" stroke="black" points="782.84,-119.41 782.84,-144.45 730.95,-162.16 657.55,-162.16 605.66,-144.45 605.66,-119.41 657.55,-101.7 730.95,-101.7 782.84,-119.41"/>
<text text-anchor="middle" x="694.25" y="-134.38" font-family="Times New Roman,serif" font-size="14.00">SortContainer 6&#45;7</text>
<text text-anchor="middle" x="694.25" y="-118.63" font-family="Times New Roman,serif" font-size="14.00">&#39;End &#45;&gt; $&#39;</text>
</g>
<!-- nonTerminalsToReduce&#45;&gt;1921143808 -->
<g id="edge6" class="edge">
<title>nonTerminalsToReduce:se&#45;&gt;1921143808</title>
<path fill="none" stroke="black" d="M695,-222.75C707.57,-210.17 708.8,-190.98 706.29,-173.56"/>
<polygon fill="black" stroke="black" points="709.77,-173.12 704.46,-163.95 702.89,-174.42 709.77,-173.12"/>
<text text-anchor="middle" x="723.62" y="-191.45" font-family="Times New Roman,serif" font-size="14.00">Node</text>
</g>
<!-- &#45;1 -->
<g id="node7" class="node">
<title>&#45;1</title>
<ellipse fill="none" stroke="black" cx="471.25" cy="-27.93" rx="73.36" ry="27.93"/>
<text text-anchor="middle" x="471.25" y="-30.38" font-family="Times New Roman,serif" font-size="14.00">NonTerminal: S</text>
<text text-anchor="middle" x="471.25" y="-14.63" font-family="Times New Roman,serif" font-size="14.00">.0@&#45;1</text>
</g>
<!-- 37&#45;&gt;&#45;1 -->
<g id="edge4" class="edge">
<title>37&#45;&gt;&#45;1</title>
<path fill="none" stroke="black" d="M471.25,-92.37C471.25,-84.26 471.25,-75.7 471.25,-67.58"/>
<polygon fill="black" stroke="black" points="474.75,-67.63 471.25,-57.63 467.75,-67.63 474.75,-67.63"/>
</g>
<!-- unexpandableNodes -->
<g id="node9" class="node">
<title>unexpandableNodes</title>
<polygon fill="none" stroke="black" points="801.25,-113.93 801.25,-149.93 855.25,-149.93 855.25,-113.93 801.25,-113.93"/>
<text text-anchor="middle" x="828.12" y="-126.5" font-family="Times New Roman,serif" font-size="14.00"> </text>
</g>
<!-- unmatchableLeafNodes -->
<g id="node10" class="node">
<title>unmatchableLeafNodes</title>
<polygon fill="none" stroke="black" points="901.25,-113.93 901.25,-149.93 955.25,-149.93 955.25,-113.93 901.25,-113.93"/>
<text text-anchor="middle" x="928.12" y="-126.5" font-family="Times New Roman,serif" font-size="14.00"> </text>
</g>
<!-- unmatchableMidProductionNodes -->
<g id="node11" class="node">
<title>unmatchableMidProductionNodes</title>
<polygon fill="none" stroke="black" points="1023.25,-113.93 1023.25,-149.93 1077.25,-149.93 1077.25,-113.93 1023.25,-113.93"/>
<text text-anchor="middle" x="1050.12" y="-126.5" font-family="Times New Roman,serif" font-size="14.00"> </text>
</g>
<!-- filteredNodes -->
<g id="node12" class="node">
<title>filteredNodes</title>
<polygon fill="none" stroke="black" points="1172.25,-113.93 1172.25,-149.93 1226.25,-149.93 1226.25,-113.93 1172.25,-113.93"/>
<text text-anchor="middle" x="1199.12" y="-126.5" font-family="Times New Roman,serif" font-size="14.00"> </text>
</g>
<!-- error&#45;&gt;unexpandableNodes -->
<g id="edge9" class="edge">
<title>error&#45;&gt;unexpandableNodes</title>
<path fill="none" stroke="black" d="M897.16,-233.49C880.31,-228.31 860.4,-219.45 847.75,-204.75 837.48,-192.81 832.57,-175.96 830.24,-161.58"/>
<polygon fill="black" stroke="black" points="833.73,-161.24 829.02,-151.75 826.78,-162.11 833.73,-161.24"/>
<text text-anchor="middle" x="885.5" y="-191.45" font-family="Times New Roman,serif" font-size="14.00">unexpandable</text>
</g>
<!-- error&#45;&gt;unmatchableLeafNodes -->
<g id="edge10" class="edge">
<title>error&#45;&gt;unmatchableLeafNodes</title>
<path fill="none" stroke="black" d="M928.25,-223C928.25,-206.42 928.25,-181.05 928.25,-161.45"/>
<polygon fill="black" stroke="black" points="931.75,-161.64 928.25,-151.64 924.75,-161.64 931.75,-161.64"/>
<text text-anchor="middle" x="977.75" y="-191.45" font-family="Times New Roman,serif" font-size="14.00">unmatchable leafs</text>
</g>
<!-- error&#45;&gt;unmatchableMidProductionNodes -->
<g id="edge11" class="edge">
<title>error&#45;&gt;unmatchableMidProductionNodes</title>
<path fill="none" stroke="black" d="M961.2,-236.28C982.99,-231.99 1010.67,-223.11 1028.25,-204.75 1039.42,-193.08 1044.93,-175.88 1047.64,-161.24"/>
<polygon fill="black" stroke="black" points="1051.05,-162.11 1049.05,-151.7 1044.13,-161.09 1051.05,-162.11"/>
<text text-anchor="middle" x="1101.25" y="-191.45" font-family="Times New Roman,serif" font-size="14.00">unmatchable mid&#45;prod</text>
</g>
<!-- error&#45;&gt;filteredNodes -->
<g id="edge12" class="edge">
<title>error&#45;&gt;filteredNodes</title>
<path fill="none" stroke="black" d="M962.48,-239.21C1020.91,-236.79 1136.69,-229 1168.25,-204.75 1181.89,-194.26 1189.63,-176.57 1193.96,-161.36"/>
<polygon fill="black" stroke="black" points="1197.31,-162.4 1196.29,-151.85 1190.51,-160.73 1197.31,-162.4"/>
<text text-anchor="middle" x="1200.38" y="-191.45" font-family="Times New Roman,serif" font-size="14.00">filtered</text>
</g>
</g>
</svg>
