<?xml version="1.0" encoding="UTF-8" standalone="no"?>
<!DOCTYPE svg PUBLIC "-//W3C//DTD SVG 1.1//EN"
 "http://www.w3.org/Graphics/SVG/1.1/DTD/svg11.dtd">
<!-- Generated by graphviz version 12.0.0 (20240704.0754)
 -->
<!-- Title: Parser Pages: 1 -->
<svg width="1095pt" height="286pt"
 viewBox="0.00 0.00 1095.25 285.91" xmlns="http://www.w3.org/2000/svg" xmlns:xlink="http://www.w3.org/1999/xlink">
<g id="graph0" class="graph" transform="scale(1 1) rotate(0) translate(4 281.91)">
<title>Parser</title>
<polygon fill="white" stroke="none" points="-4,4 -4,-281.91 1091.25,-281.91 1091.25,4 -4,4"/>
<!-- Parser -->
<g id="node1" class="node">
<title>Parser</title>
<ellipse fill="none" stroke="red" cx="567.25" cy="-227.7" rx="73.89" ry="50.2"/>
<text text-anchor="middle" x="567.25" y="-245.9" font-family="Times New Roman,serif" font-size="14.00">Parser</text>
<text text-anchor="middle" x="567.25" y="-230.15" font-family="Times New Roman,serif" font-size="14.00">Input: &quot;a b c $&quot;</text>
<text text-anchor="middle" x="567.25" y="-214.4" font-family="Times New Roman,serif" font-size="14.00">Location: 7 (&#39;$&#39;)</text>
<text text-anchor="middle" x="567.25" y="-198.65" font-family="Times New Roman,serif" font-size="14.00">Step 36: Done</text>
</g>
<!-- todoLists -->
<g id="node2" class="node">
<title>todoLists</title>
<polygon fill="none" stroke="black" points="0,-89.25 0,-125.25 404.5,-125.25 404.5,-89.25 0,-89.25"/>
<text text-anchor="middle" x="11.38" y="-101.83" font-family="Times New Roman,serif" font-size="14.00">0</text>
<polyline fill="none" stroke="black" points="22.75,-89.25 22.75,-125.25"/>
<text text-anchor="middle" x="34.12" y="-101.83" font-family="Times New Roman,serif" font-size="14.00">1</text>
<polyline fill="none" stroke="black" points="45.5,-89.25 45.5,-125.25"/>
<text text-anchor="middle" x="56.88" y="-101.83" font-family="Times New Roman,serif" font-size="14.00">2</text>
<polyline fill="none" stroke="black" points="68.25,-89.25 68.25,-125.25"/>
<text text-anchor="middle" x="79.62" y="-101.83" font-family="Times New Roman,serif" font-size="14.00">3</text>
<polyline fill="none" stroke="black" points="91,-89.25 91,-125.25"/>
<text text-anchor="middle" x="102.38" y="-101.83" font-family="Times New Roman,serif" font-size="14.00">4</text>
<polyline fill="none" stroke="black" points="113.75,-89.25 113.75,-125.25"/>
<text text-anchor="middle" x="125.12" y="-101.83" font-family="Times New Roman,serif" font-size="14.00">5</text>
<polyline fill="none" stroke="black" points="136.5,-89.25 136.5,-125.25"/>
<text text-anchor="middle" x="147.88" y="-101.83" font-family="Times New Roman,serif" font-size="14.00">6</text>
<polyline fill="none" stroke="black" points="159.25,-89.25 159.25,-125.25"/>
<text text-anchor="middle" x="170.62" y="-101.83" font-family="Times New Roman,serif" font-size="14.00">7</text>
<polyline fill="none" stroke="black" points="182,-89.25 182,-125.25"/>
<text text-anchor="middle" x="193.38" y="-101.83" font-family="Times New Roman,serif" font-size="14.00">8</text>
<polyline fill="none" stroke="black" points="204.75,-89.25 204.75,-125.25"/>
<text text-anchor="middle" x="216.12" y="-101.83" font-family="Times New Roman,serif" font-size="14.00">9</text>
<polyline fill="none" stroke="black" points="227.5,-89.25 227.5,-125.25"/>
<text text-anchor="middle" x="242.25" y="-101.83" font-family="Times New Roman,serif" font-size="14.00">10</text>
<polyline fill="none" stroke="black" points="257,-89.25 257,-125.25"/>
<text text-anchor="middle" x="271.75" y="-101.83" font-family="Times New Roman,serif" font-size="14.00">11</text>
<polyline fill="none" stroke="black" points="286.5,-89.25 286.5,-125.25"/>
<text text-anchor="middle" x="301.25" y="-101.83" font-family="Times New Roman,serif" font-size="14.00">12</text>
<polyline fill="none" stroke="black" points="316,-89.25 316,-125.25"/>
<text text-anchor="middle" x="330.75" y="-101.83" font-family="Times New Roman,serif" font-size="14.00">13</text>
<polyline fill="none" stroke="black" points="345.5,-89.25 345.5,-125.25"/>
<text text-anchor="middle" x="360.25" y="-101.83" font-family="Times New Roman,serif" font-size="14.00">14</text>
<polyline fill="none" stroke="black" points="375,-89.25 375,-125.25"/>
<text text-anchor="middle" x="389.75" y="-101.83" font-family="Times New Roman,serif" font-size="14.00">15</text>
</g>
<!-- Parser&#45;&gt;todoLists -->
<g id="edge1" class="edge">
<title>Parser&#45;&gt;todoLists</title>
<path fill="none" stroke="black" d="M500.73,-205.12C434.21,-183.53 332.6,-150.55 266.79,-129.19"/>
<polygon fill="black" stroke="black" points="268.17,-125.96 257.58,-126.21 266.01,-132.62 268.17,-125.96"/>
<text text-anchor="middle" x="378.12" y="-146.2" font-family="Times New Roman,serif" font-size="14.00">todo lists</text>
</g>
<!-- stacksToExpand -->
<g id="node3" class="node">
<title>stacksToExpand</title>
<polygon fill="none" stroke="black" points="422.25,-89.25 422.25,-125.25 476.25,-125.25 476.25,-89.25 422.25,-89.25"/>
<text text-anchor="middle" x="449.12" y="-101.83" font-family="Times New Roman,serif" font-size="14.00"> </text>
</g>
<!-- Parser&#45;&gt;stacksToExpand -->
<g id="edge2" class="edge">
<title>Parser&#45;&gt;stacksToExpand</title>
<path fill="none" stroke="black" d="M509.47,-195.82C494.68,-185.79 479.84,-173.56 468.75,-159.5 463.46,-152.79 459.48,-144.49 456.55,-136.54"/>
<polygon fill="black" stroke="black" points="459.93,-135.61 453.53,-127.17 453.27,-137.76 459.93,-135.61"/>
<text text-anchor="middle" x="516.5" y="-146.2" font-family="Times New Roman,serif" font-size="14.00">stacks to expand</text>
</g>
<!-- terminalsToReduce -->
<g id="node4" class="node">
<title>terminalsToReduce</title>
<polygon fill="none" stroke="black" points="540.25,-89.25 540.25,-125.25 594.25,-125.25 594.25,-89.25 540.25,-89.25"/>
<text text-anchor="middle" x="567.12" y="-101.83" font-family="Times New Roman,serif" font-size="14.00"> </text>
</g>
<!-- Parser&#45;&gt;terminalsToReduce -->
<g id="edge3" class="edge">
<title>Parser&#45;&gt;terminalsToReduce</title>
<path fill="none" stroke="black" d="M567.25,-177.16C567.25,-163.37 567.25,-148.86 567.25,-136.73"/>
<polygon fill="black" stroke="black" points="570.75,-137.02 567.25,-127.02 563.75,-137.02 570.75,-137.02"/>
<text text-anchor="middle" x="620.12" y="-146.2" font-family="Times New Roman,serif" font-size="14.00">terminals to reduce</text>
</g>
<!-- nonTerminalsToReduce -->
<g id="node5" class="node">
<title>nonTerminalsToReduce</title>
<polygon fill="none" stroke="black" points="669.25,-89.25 669.25,-125.25 723.25,-125.25 723.25,-89.25 669.25,-89.25"/>
<text text-anchor="middle" x="696.12" y="-101.83" font-family="Times New Roman,serif" font-size="14.00"> </text>
</g>
<!-- Parser&#45;&gt;nonTerminalsToReduce -->
<g id="edge4" class="edge">
<title>Parser&#45;&gt;nonTerminalsToReduce</title>
<path fill="none" stroke="black" d="M627.13,-197.84C644,-187.54 661.27,-174.67 674.25,-159.5 680.05,-152.72 684.52,-144.19 687.88,-136.03"/>
<polygon fill="black" stroke="black" points="691.11,-137.37 691.25,-126.78 684.54,-134.97 691.11,-137.37"/>
<text text-anchor="middle" x="749.88" y="-146.2" font-family="Times New Roman,serif" font-size="14.00">non&#45;terminals to reduce</text>
</g>
<!-- error -->
<g id="node10" class="node">
<title>error</title>
<ellipse fill="none" stroke="black" cx="850.25" cy="-107.25" rx="34.1" ry="18"/>
<text text-anchor="middle" x="850.25" y="-101.83" font-family="Times New Roman,serif" font-size="14.00">Errors</text>
</g>
<!-- Parser&#45;&gt;error -->
<g id="edge5" class="edge">
<title>Parser&#45;&gt;error</title>
<path fill="none" stroke="black" d="M640.93,-221.7C694.9,-214.78 767.46,-198.36 819.25,-159.5 827.5,-153.31 834.01,-144.22 838.89,-135.41"/>
<polygon fill="black" stroke="black" points="841.88,-137.26 843.2,-126.74 835.62,-134.14 841.88,-137.26"/>
<text text-anchor="middle" x="870.75" y="-146.2" font-family="Times New Roman,serif" font-size="14.00">error tracking</text>
</g>
<!-- unexpandableNodes -->
<g id="node6" class="node">
<title>unexpandableNodes</title>
<polygon fill="none" stroke="black" points="662.25,-0.5 662.25,-36.5 716.25,-36.5 716.25,-0.5 662.25,-0.5"/>
<text text-anchor="middle" x="689.12" y="-13.07" font-family="Times New Roman,serif" font-size="14.00"> </text>
</g>
<!-- unmatchableLeafNodes -->
<g id="node7" class="node">
<title>unmatchableLeafNodes</title>
<polygon fill="none" stroke="black" points="762.25,-0.5 762.25,-36.5 816.25,-36.5 816.25,-0.5 762.25,-0.5"/>
<text text-anchor="middle" x="789.12" y="-13.07" font-family="Times New Roman,serif" font-size="14.00"> </text>
</g>
<!-- unmatchableMidProductionNodes -->
<g id="node8" class="node">
<title>unmatchableMidProductionNodes</title>
<polygon fill="none" stroke="black" points="884.25,-0.5 884.25,-36.5 938.25,-36.5 938.25,-0.5 884.25,-0.5"/>
<text text-anchor="middle" x="911.12" y="-13.07" font-family="Times New Roman,serif" font-size="14.00"> </text>
</g>
<!-- filteredNodes -->
<g id="node9" class="node">
<title>filteredNodes</title>
<polygon fill="none" stroke="black" points="1033.25,-0.5 1033.25,-36.5 1087.25,-36.5 1087.25,-0.5 1033.25,-0.5"/>
<text text-anchor="middle" x="1060.12" y="-13.07" font-family="Times New Roman,serif" font-size="14.00"> </text>
</g>
<!-- error&#45;&gt;unexpandableNodes -->
<g id="edge6" class="edge">
<title>error&#45;&gt;unexpandableNodes</title>
<path fill="none" stroke="black" d="M817.12,-102.02C779.35,-96.55 720.75,-85.9 704.75,-70.75 698.44,-64.77 694.67,-56.33 692.43,-48.01"/>
<polygon fill="black" stroke="black" points="695.92,-47.6 690.52,-38.48 689.05,-48.97 695.92,-47.6"/>
<text text-anchor="middle" x="743.5" y="-57.45" font-family="Times New Roman,serif" font-size="14.00">unexpandable</text>
</g>
<!-- error&#45;&gt;unmatchableLeafNodes -->
<g id="edge7" class="edge">
<title>error&#45;&gt;unmatchableLeafNodes</title>
<path fill="none" stroke="black" d="M822.08,-96.75C810.08,-91.16 797.26,-82.77 790.25,-70.75 786.32,-64.01 784.96,-55.88 784.88,-48.1"/>
<polygon fill="black" stroke="black" points="788.36,-48.49 785.47,-38.29 781.38,-48.06 788.36,-48.49"/>
<text text-anchor="middle" x="839.75" y="-57.45" font-family="Times New Roman,serif" font-size="14.00">unmatchable leafs</text>
</g>
<!-- error&#45;&gt;unmatchableMidProductionNodes -->
<g id="edge8" class="edge">
<title>error&#45;&gt;unmatchableMidProductionNodes</title>
<path fill="none" stroke="black" d="M868.93,-92.11C875.97,-86.1 883.62,-78.65 889.25,-70.75 894.29,-63.67 898.5,-55.26 901.84,-47.32"/>
<polygon fill="black" stroke="black" points="905.1,-48.6 905.44,-38.01 898.57,-46.08 905.1,-48.6"/>
<text text-anchor="middle" x="960.25" y="-57.45" font-family="Times New Roman,serif" font-size="14.00">unmatchable mid&#45;prod</text>
</g>
<!-- error&#45;&gt;filteredNodes -->
<g id="edge9" class="edge">
<title>error&#45;&gt;filteredNodes</title>
<path fill="none" stroke="black" d="M884.56,-107.04C922.6,-106.28 984.26,-100.05 1027.25,-70.75 1035.92,-64.84 1042.83,-55.81 1048.04,-46.98"/>
<polygon fill="black" stroke="black" points="1051.08,-48.7 1052.66,-38.22 1044.9,-45.43 1051.08,-48.7"/>
<text text-anchor="middle" x="1061.38" y="-57.45" font-family="Times New Roman,serif" font-size="14.00">filtered</text>
</g>
</g>
</svg>
